<?xml version="1.0" encoding="UTF-8"?>
<svg width="38px" height="53px" viewBox="0 0 38 53" version="1.1" xmlns="http://www.w3.org/2000/svg" xmlns:xlink="http://www.w3.org/1999/xlink">
    <title>football-court</title>
    <g id="V2-Pages" stroke="none" stroke-width="1" fill="none" fill-rule="evenodd">
        <g id="5,1-Sport-Facility" transform="translate(-1072.000000, -1760.000000)" fill="#185E30">
            <g id="key-features" transform="translate(112.000000, 1506.000000)">
                <g id="football-court" transform="translate(960.000000, 254.000000)">
                    <path d="M37.1,53 L0.757142857,53 C0.338984404,53 0,52.6610156 0,52.2428571 L0,0.757142857 C0,0.338984404 0.338984404,0 0.757142857,0 L37.1,0 C37.5181585,0 37.8571429,0.338984404 37.8571429,0.757142857 L37.8571429,52.2428571 C37.8571429,52.6610156 37.5181585,53 37.1,53 Z M1.51428571,51.4857143 L36.3428571,51.4857143 L36.3428571,1.51428571 L1.51428571,1.51428571 L1.51428571,51.4857143 Z" id="Shape"></path>
                    <path d="M30.4927455,7.57142857 L8.31082589,7.57142857 C7.90246803,7.57142857 7.57142857,7.23244417 7.57142857,6.81428571 L7.57142857,0.757142857 C7.57142857,0.338984404 7.90246803,0 8.31082589,0 L30.4927455,0 C30.9011034,0 31.2321429,0.338984404 31.2321429,0.757142857 L31.2321429,6.81428571 C31.2321429,7.23244417 30.9011034,7.57142857 30.4927455,7.57142857 Z M9.05022321,6.05714286 L29.7533482,6.05714286 L29.7533482,1.51428571 L9.05022321,1.51428571 L9.05022321,6.05714286 Z" id="Shape"></path>
                    <path d="M30.4927455,53 L8.31082589,53 C7.90246803,53 7.57142857,52.6610156 7.57142857,52.2428571 L7.57142857,46.1857143 C7.57142857,45.7675558 7.90246803,45.4285714 8.31082589,45.4285714 L30.4927455,45.4285714 C30.9011034,45.4285714 31.2321429,45.7675558 31.2321429,46.1857143 L31.2321429,52.2428571 C31.2321429,52.6610156 30.9011034,53 30.4927455,53 Z M9.05022321,51.4857143 L29.7533482,51.4857143 L29.7533482,46.9428571 L9.05022321,46.9428571 L9.05022321,51.4857143 Z" id="Shape"></path>
                    <path d="M18.9285714,12.3035714 C15.7938425,12.2999204 13.2535206,9.66551256 13.25,6.41468254 C13.25,6.0081396 13.5677979,5.67857143 13.9598214,5.67857143 C14.351845,5.67857143 14.6696429,6.0081396 14.6696429,6.41468254 C14.6696429,8.85394018 16.5764301,10.8313492 18.9285714,10.8313492 C21.2807127,10.8313492 23.1875,8.85394018 23.1875,6.41468254 C23.1875,6.0081396 23.5052979,5.67857143 23.8973214,5.67857143 C24.289345,5.67857143 24.6071429,6.0081396 24.6071429,6.41468254 C24.6036222,9.66551256 22.0633004,12.2999204 18.9285714,12.3035714 Z" id="Path"></path>
                    <path d="M23.8973214,47.3214286 C23.5052979,47.3214286 23.1875,46.9918604 23.1875,46.5853175 C23.1875,44.1460598 21.2807127,42.1686508 18.9285714,42.1686508 C16.5764301,42.1686508 14.6696429,44.1460598 14.6696429,46.5853175 C14.6696429,46.9918604 14.351845,47.3214286 13.9598214,47.3214286 C13.5677979,47.3214286 13.25,46.9918604 13.25,46.5853175 C13.25,43.3329739 15.792383,40.6964286 18.9285714,40.6964286 C22.0647598,40.6964286 24.6071429,43.3329739 24.6071429,46.5853175 C24.6071429,46.9918604 24.289345,47.3214286 23.8973214,47.3214286 Z" id="Path"></path>
                    <path d="M37.1,26.5 L0.757142857,26.5 C0.338984404,26.5 0,26.0762695 0,25.5535714 C0,25.0308734 0.338984404,24.6071429 0.757142857,24.6071429 L37.1,24.6071429 C37.5181585,24.6071429 37.8571429,25.0308734 37.8571429,25.5535714 C37.8571429,26.0762695 37.5181585,26.5 37.1,26.5 Z" id="Path"></path>
                    <path d="M19.4017857,33.125 C15.4815502,33.125 12.3035714,29.9470212 12.3035714,26.0267857 C12.3035714,22.1065502 15.4815502,18.9285714 19.4017857,18.9285714 C23.3220212,18.9285714 26.5,22.1065502 26.5,26.0267857 C26.4956534,29.9452194 23.3202194,33.1206534 19.4017857,33.125 L19.4017857,33.125 Z M19.4017857,20.5059524 C16.3527137,20.5059524 13.8809524,22.9777137 13.8809524,26.0267857 C13.8809524,29.0758578 16.3527137,31.547619 19.4017857,31.547619 C22.4508578,31.547619 24.922619,29.0758578 24.922619,26.0267857 C24.919142,22.9791551 22.4494164,20.5094294 19.4017857,20.5059524 L19.4017857,20.5059524 Z" id="Shape"></path>
                </g>
            </g>
        </g>
    </g>
</svg>