<?xml version="1.0" encoding="UTF-8"?>
<svg width="49px" height="54px" viewBox="0 0 49 54" version="1.1" xmlns="http://www.w3.org/2000/svg" xmlns:xlink="http://www.w3.org/1999/xlink">
    <title>gym-station (1)</title>
    <g id="V2-Pages" stroke="none" stroke-width="1" fill="none" fill-rule="evenodd">
        <g id="5,1-Sport-Facility" transform="translate(-592.000000, -1763.000000)" fill="#904346">
            <g id="key-features" transform="translate(112.000000, 1506.000000)">
                <g id="Yoga-Session" transform="translate(480.000000, 257.000000)">
                    <g id="gym-station-(1)" transform="translate(0.000000, 0.363636)">
                        <path d="M48.3379439,6.99316051 L45.2375321,3.8637152 L45.5389903,3.58228551 C45.8449765,3.2965902 45.8635913,2.81467614 45.5805465,2.50582457 C45.2975017,2.19697301 44.8200586,2.17828551 44.5140725,2.46387926 L44.1694481,2.78562926 L42.7033104,1.30576207 C42.275775,0.874121449 41.7071699,0.636363636 41.1023416,0.636363636 L7.89765842,0.636363636 C7.29283009,0.636363636 6.72422504,0.874121449 6.29679021,1.30566051 L4.92724796,2.6880277 L4.68716804,2.46387926 C4.38128248,2.17838707 3.90373876,2.19707457 3.62069399,2.50582457 C3.33764922,2.81467614 3.35626397,3.2965902 3.66225016,3.58228551 L3.85916399,3.76611364 L0.662056103,6.99316051 C-0.220685368,7.88416832 -0.220685368,9.33387145 0.662056103,10.2248793 C1.08969217,10.6564183 1.6581966,10.8941761 2.26292431,10.8941761 C2.86765203,10.8941761 3.43615645,10.6564183 3.86379252,10.2248793 L7.18566952,6.87189489 L7.68716086,7.34009801 C7.83225526,7.47558239 8.01598784,7.54261364 8.19931794,7.54261364 C8.40236961,7.54261364 8.60481755,7.46034801 8.75353429,7.2981527 C9.03657906,6.98930114 9.01796431,6.50738707 8.71197812,6.22169176 L8.25365287,5.79380895 L8.83533855,5.20667614 L10.6647154,5.20667614 L10.6647154,6.69497301 C10.6647154,7.49386364 11.2268807,8.16255114 11.9727786,8.31987145 L11.9727786,32.9332386 L10.8659559,32.9332386 L10.8659559,29.968223 C11.1152928,29.6879105 11.2684369,29.3188324 11.2684369,28.9133949 L11.2684369,25.9843324 C11.2684369,25.1118089 10.5652019,24.4019886 9.70077334,24.4019886 L8.30818905,24.4019886 C7.44376047,24.4019886 6.74052553,25.1118089 6.74052553,25.9843324 L6.74052553,28.9133949 C6.74052553,29.3188324 6.89366955,29.6879105 7.14300653,29.968223 L7.14300653,32.9332386 L6.58959515,32.9332386 C6.17282606,32.9332386 5.83494326,33.2741839 5.83494326,33.6949574 L5.83494326,35.9293324 C5.83494326,36.3501058 6.17282606,36.6910511 6.58959515,36.6910511 L11.9727786,36.6910511 L11.9727786,47.7613636 L6.59935531,47.7613636 C5.51205287,47.7613636 4.62750023,48.6541996 4.62750023,49.7516839 L4.62750023,51.8746449 C4.62750023,52.2954183 4.96538304,52.6363636 5.38215212,52.6363636 L43.8190884,52.6363636 C44.2358575,52.6363636 44.5737403,52.2954183 44.5737403,51.8746449 L44.5737403,49.7516839 C44.5737403,48.6541996 43.689087,47.7613636 42.6018852,47.7613636 L37.2284619,47.7613636 L37.2284619,36.6910511 L42.6116454,36.6910511 C43.0284144,36.6910511 43.3662972,36.3501058 43.3662972,35.9293324 L43.3662972,33.6949574 C43.3662972,33.2741839 43.0284144,32.9332386 42.6116454,32.9332386 L42.058234,32.9332386 L42.058234,29.968223 C42.307571,29.6879105 42.460715,29.3188324 42.460715,28.9133949 L42.460715,25.9843324 C42.460715,25.1118089 41.75748,24.4019886 40.8930515,24.4019886 L39.5004672,24.4019886 C38.6360386,24.4019886 37.9328036,25.1118089 37.9328036,25.9843324 L37.9328036,28.9133949 C37.9328036,29.3188324 38.0859477,29.6879105 38.3352846,29.968223 L38.3352846,32.9332386 L37.2284619,32.9332386 L37.2284619,8.33601989 C38.0236637,8.21983239 38.6371454,7.52930895 38.6371454,6.69497301 L38.6371454,5.20667614 L40.1646614,5.20667614 L40.8430432,5.89141051 L40.4892624,6.22169176 C40.1832762,6.50738707 40.1646614,6.98930114 40.4477062,7.2981527 C40.5965236,7.46055114 40.7988709,7.54261364 41.0019226,7.54261364 C41.185152,7.54261364 41.3689852,7.47558239 41.5141803,7.34009801 L41.9111272,6.96949645 L45.1362075,10.2248793 C45.5638435,10.6564183 46.132348,10.8941761 46.7370757,10.8941761 C47.3418034,10.8941761 47.9103078,10.6564183 48.3379439,10.2248793 C49.2206854,9.33387145 49.2206854,7.88416832 48.3379439,6.99316051 Z M2.79651351,9.14760582 C2.65393461,9.29151989 2.46446668,9.37073864 2.26292431,9.37073864 C2.06138195,9.37073864 1.87191401,9.29151989 1.72933512,9.14760582 C1.4351215,8.85063707 1.4351215,8.3674027 1.72933512,8.07053551 L4.96799917,4.80144176 L6.07673372,5.83666832 L2.79651351,9.14760582 Z M8.2498293,25.9843324 C8.2498293,25.9518324 8.27599057,25.9254261 8.30818905,25.9254261 L9.70077334,25.9254261 C9.73297182,25.9254261 9.75913308,25.9518324 9.75913308,25.9843324 L9.75913308,28.9133949 C9.75913308,28.9458949 9.73297182,28.9723011 9.70077334,28.9723011 L8.30818905,28.9723011 C8.27599057,28.9723011 8.2498293,28.9458949 8.2498293,28.9133949 L8.2498293,25.9843324 Z M9.35665208,30.4957386 L9.35665208,32.9332386 L8.65231031,32.9332386 L8.65231031,30.4957386 L9.35665208,30.4957386 Z M7.34424704,35.1676136 L7.34424704,34.4566761 L15.3434564,34.4566761 C15.4822118,34.4566761 15.5951077,34.5706293 15.5951077,34.7106839 L15.5951077,34.9136058 C15.5951077,35.0536605 15.4822118,35.1676136 15.3434564,35.1676136 L7.34424704,35.1676136 L7.34424704,35.1676136 Z M12.309454,6.83167614 C12.2347938,6.83167614 12.1740191,6.77033239 12.1740191,6.69497301 L12.1740191,5.20667614 L15.8969685,5.20667614 L15.8969685,6.69497301 C15.8969685,6.77033239 15.8361938,6.83167614 15.7615336,6.83167614 L12.309454,6.83167614 Z M14.4882849,8.40589489 L14.4882849,32.9332386 L13.4820824,32.9332386 L13.4820824,8.40589489 L14.4882849,8.40589489 Z M14.4882849,36.6910511 L14.4882849,47.7105824 L13.4820824,47.7105824 L13.4820824,36.6910511 L14.4882849,36.6910511 Z M9.35665208,51.1129261 L6.13680401,51.1129261 L6.13680401,49.7516839 C6.13680401,49.4943246 6.34438359,49.2848011 6.59935531,49.2848011 L9.35665208,49.2848011 L9.35665208,51.1129261 Z M39.8445884,49.2848011 L42.6018852,49.2848011 C42.8569575,49.2848011 43.0644365,49.4943246 43.0644365,49.7516839 L43.0644365,51.1129261 L39.8445884,51.1129261 L39.8445884,49.2848011 Z M38.3352846,49.2848011 L38.3352846,51.1129261 L10.8659559,51.1129261 L10.8659559,49.2848011 L38.3352846,49.2848011 Z M15.9975887,33.0618168 L15.9975887,31.8160511 L33.2036518,31.8160511 L33.2036518,33.0618168 C32.5558586,33.3245589 32.096829,33.9639964 32.096829,34.7106839 L32.096829,34.9136058 C32.096829,35.6602933 32.5559592,36.2997308 33.2036518,36.562473 L33.2036518,37.1988636 L15.9975887,37.1988636 L15.9975887,36.562473 C16.6453819,36.2997308 17.1044115,35.6602933 17.1044115,34.9136058 L17.1044115,34.7106839 C17.1044115,33.9639964 16.6453819,33.3245589 15.9975887,33.0618168 Z M26.0872845,28.0568168 C26.0867814,28.0503168 26.0861777,28.0439183 26.0856746,28.0374183 C26.0536773,27.6474183 25.7310888,27.3473011 25.3432983,27.3473011 L15.9975887,27.3473011 L15.9975887,21.9644886 L33.2036518,21.9644886 L33.2036518,27.3473011 L30.0224419,27.3473011 C29.6294192,27.3473011 29.3078369,27.6598089 29.289524,28.0561058 C29.2891215,28.0655511 29.2886184,28.0749964 29.2881153,28.0844418 C29.2660795,28.5109027 29.597422,28.8707386 30.0204295,28.8707386 L33.2036518,28.8707386 L33.2036518,30.2926136 L15.9975887,30.2926136 L15.9975887,28.8707386 L25.3449083,28.8707386 C25.7804933,28.8707386 26.1247152,28.4948558 26.0872845,28.0568168 Z M33.2036518,8.31987145 L33.2036518,17.4957386 L15.9975887,17.4957386 L15.9975887,8.33601989 C16.7927906,8.21983239 17.4062722,7.52930895 17.4062722,6.69497301 L17.4062722,5.20667614 L31.8955885,5.20667614 L31.8955885,6.69497301 C31.8955885,7.4939652 32.4577539,8.16255114 33.2036518,8.31987145 Z M33.2036518,19.0191761 L33.2036518,20.4410511 L15.9975887,20.4410511 L15.9975887,19.0191761 L33.2036518,19.0191761 Z M33.2036518,38.7223011 L33.2036518,40.1441761 L15.9975887,40.1441761 L15.9975887,38.7223011 L33.2036518,38.7223011 Z M33.2036518,41.6676136 L33.2036518,47.7613636 L15.9975887,47.7613636 L15.9975887,41.6676136 L33.2036518,41.6676136 Z M33.5403272,6.83167614 C33.4656669,6.83167614 33.4048923,6.77033239 33.4048923,6.69497301 L33.4048923,5.20667614 L37.1278416,5.20667614 L37.1278416,6.69497301 C37.1278416,6.77033239 37.067067,6.83167614 36.9924068,6.83167614 L33.5403272,6.83167614 Z M35.7191581,8.40589489 L35.7191581,32.9332386 L34.7129556,32.9332386 L34.7129556,8.40589489 L35.7191581,8.40589489 Z M34.7129556,47.7105824 L34.7129556,36.6910511 L35.7191581,36.6910511 L35.7191581,47.7105824 L34.7129556,47.7105824 Z M39.4421074,25.9843324 C39.4421074,25.9518324 39.4682687,25.9254261 39.5004672,25.9254261 L40.8930515,25.9254261 C40.9252499,25.9254261 40.9514112,25.9518324 40.9514112,25.9843324 L40.9514112,28.9133949 C40.9514112,28.9458949 40.9252499,28.9723011 40.8930515,28.9723011 L39.5004672,28.9723011 C39.4682687,28.9723011 39.4421074,28.9458949 39.4421074,28.9133949 L39.4421074,25.9843324 Z M40.5489302,30.4957386 L40.5489302,32.9332386 L39.8445884,32.9332386 L39.8445884,30.4957386 L40.5489302,30.4957386 Z M41.8569935,34.4566761 L41.8569935,35.1676136 L33.8577841,35.1676136 C33.7190287,35.1676136 33.6061328,35.0536605 33.6061328,34.9136058 L33.6061328,34.7106839 C33.6061328,34.5706293 33.7190287,34.4566761 33.8577841,34.4566761 L41.8569935,34.4566761 L41.8569935,34.4566761 Z M40.7898151,3.68323864 L8.21018493,3.68323864 L7.1448177,4.75858239 L6.03608314,3.72335582 L7.36416985,2.38283239 C7.5065475,2.23901989 7.69611606,2.15980114 7.89765842,2.15980114 L41.1023416,2.15980114 C41.3038839,2.15980114 41.4934525,2.23901989 41.6359308,2.38293395 L43.0606129,3.82095739 L41.9518784,4.85618395 L40.7898151,3.68323864 Z M47.2706649,9.14760582 C47.128086,9.29151989 46.9386181,9.37073864 46.7370757,9.37073864 C46.5355333,9.37073864 46.3460654,9.29151989 46.2034865,9.14760582 L43.0199623,5.93426989 L44.1286969,4.89904332 L47.2707655,8.07053551 C47.5649791,8.3674027 47.5649791,8.85063707 47.2706649,9.14760582 Z" id="Shape"></path>
                    </g>
                </g>
            </g>
        </g>
    </g>
</svg>