<?xml version="1.0" encoding="UTF-8"?>
<svg width="22px" height="23px" viewBox="0 0 22 23" version="1.1" xmlns="http://www.w3.org/2000/svg" xmlns:xlink="http://www.w3.org/1999/xlink">
    <title>arrow-left-navy-nocircle</title>
    <g id="Page-1" stroke="none" stroke-width="1" fill="none" fill-rule="evenodd">
        <g id="arrow-left-navy-nocircle" transform="translate(11.000000, 11.500000) scale(-1, 1) translate(-11.000000, -11.500000) " fill="#212237" fill-rule="nonzero">
            <g id="Atoms-/-icons-/-System-/-Arrow_bottom" transform="translate(11.000000, 11.500000) rotate(-90.000000) translate(-11.000000, -11.500000) translate(0.000000, 0.500000)">
                <g id="Mask" transform="translate(11.000000, 11.000000) rotate(90.000000) translate(-11.000000, -11.000000) ">
                    <path d="M10.2928932,1.04044009 L9.82710675,1.50622653 C9.43746298,1.89713695 9.43717978,2.52981376 9.82647343,2.92107285 L16.56,9.66666665 L16.56,9.66666665 L1.3333333,9.66666665 C0.781048551,9.66666665 0.3333333,10.1143819 0.3333333,10.6666667 L0.3333333,11.3333333 C0.3333333,11.8856181 0.781048551,12.3333333 1.3333333,12.3333333 L16.56,12.3333333 L16.56,12.3333333 L9.82647343,19.0789271 C9.43717978,19.4701862 9.43746298,20.102863 9.82710675,20.4937734 L10.2928932,20.9595599 C10.6834175,21.3500842 11.3165825,21.3500842 11.7071068,20.9595599 L21.6666667,11 L21.6666667,11 L11.7071068,1.04044009 C11.3165825,0.649915803 10.6834175,0.649915803 10.2928932,1.04044009 Z" id="path-2" transform="translate(11.000000, 11.000000) rotate(180.000000) translate(-11.000000, -11.000000) "></path>
                </g>
            </g>
        </g>
    </g>
</svg>