<?xml version="1.0" encoding="UTF-8"?>
<svg width="58px" height="60px" viewBox="0 0 58 60" version="1.1" xmlns="http://www.w3.org/2000/svg" xmlns:xlink="http://www.w3.org/1999/xlink">
    <title>Beach activities </title>
    <g id="V2-Pages" stroke="none" stroke-width="1" fill="none" fill-rule="evenodd">
        <g id="Artboard-Copy" transform="translate(-1505.000000, -361.000000)" fill="#373A79" fill-rule="nonzero">
            <g id="Beach-activities-" transform="translate(1505.000000, 361.091840)">
                <g id="water-basketball" transform="translate(0.000000, 0.908160)">
                    <path d="M56.9232617,34.8357969 C53.7189883,34.8880195 53.3468594,36.0004414 50.8391523,36.1701367 C50.9206016,35.8689219 50.9627422,35.5560391 50.9627422,35.2390781 L50.9627422,33.838582 C50.9627422,31.8713398 49.3623047,30.2707891 47.3949492,30.2707891 L46.8485938,30.2707891 L41.7654375,11.2998047 C41.644,10.8465664 41.1778477,10.57775 40.7248359,10.6989609 C40.2715977,10.8203984 40.002668,11.2863242 40.1239922,11.7395625 L45.0894492,30.2707891 L43.4659023,30.2707891 C43.2102266,29.3165078 36.9522305,5.96119922 36.6761641,4.93101953 L38.2998242,4.93101953 L39.0525781,7.74050781 C39.1741289,8.19397266 39.6398281,8.4625625 40.0931797,8.34135156 C40.546418,8.21991406 40.8153477,7.75398828 40.6940234,7.30075 L40.0101445,4.74841016 C40.9093711,4.38024609 41.5444258,3.49574609 41.5444258,2.46556641 C41.5441992,1.10596484 40.4382344,1.28785871e-14 39.0787461,1.28785871e-14 L18.9212539,1.28785871e-14 C17.5617656,1.28785871e-14 16.4558008,1.10596484 16.4558008,2.46545313 C16.4558008,3.49563281 17.0908555,4.38024609 17.9899688,4.74829688 L11.151293,30.2707891 L10.6049375,30.2707891 C8.63769531,30.2707891 7.03714453,31.8712266 7.03714453,33.838582 L7.03714453,35.2390781 C7.03714453,35.5560391 7.07928516,35.8689219 7.16073438,36.17025 C6.02758203,36.0936719 5.36703906,35.8384492 4.67432422,35.5708789 C3.81757812,35.2398711 2.84653125,34.8647969 1.07651172,34.8359102 C0.793988281,34.8287734 0.516902344,34.9422813 0.315828125,35.1402969 C0.112148437,35.3405781 0,35.6082617 0,35.893957 L0,56.9419531 C0,57.5253516 0.474648438,58 1.05804688,58 L56.9419531,58 C57.5253516,58 58.0001133,57.5253516 58.0001133,56.9419531 L58.0001133,42.6671563 C58.0001133,42.1979453 57.6196016,41.8175469 57.1503906,41.8175469 C56.6811797,41.8175469 56.3007812,42.1979453 56.3007812,42.6671563 L56.3007812,56.3007813 L1.69921875,56.3007813 L1.69921875,36.5648086 C2.74854297,36.6482969 3.36535937,36.8866406 4.06203906,37.1557969 C4.95594141,37.5011914 5.96912891,37.8925781 7.88686719,37.8925781 C11.4986133,37.8925781 11.6969687,36.5332031 14.9244648,36.5332031 C18.2203828,36.5332031 18.2654688,37.8925781 21.9619492,37.8925781 C25.6136836,37.8925781 25.7490547,36.5332031 28.999207,36.5332031 C32.2813047,36.5332031 32.34225,37.8925781 36.0366914,37.8925781 C39.6886523,37.8925781 39.8241367,36.5332031 43.0744023,36.5332031 C46.381875,36.5332031 46.39275,37.8925781 50.1124531,37.8925781 C53.4699961,37.8925781 53.8643281,36.7587461 56.3008945,36.5648086 L56.3008945,38.7024258 C56.3008945,39.1716367 56.681293,39.5520352 57.1505039,39.5520352 C57.6197148,39.5520352 58.0001133,39.1716367 58.0001133,38.7024258 L58.0001133,35.893957 C58.0001133,35.608375 57.8879648,35.3405781 57.6841719,35.1401836 C57.4829844,34.9422813 57.2043125,34.8293398 56.9232617,34.8357969 Z M18.9212539,1.69921875 L39.0787461,1.69921875 C39.5012852,1.69921875 39.8449805,2.04291406 39.8449805,2.46545313 C39.8449805,2.88799219 39.5012852,3.2316875 39.0787461,3.2316875 L20.6333867,3.2316875 C19.5495117,3.2316875 19.1900703,3.2316875 19.1919961,3.2316875 L18.9211406,3.2316875 C18.4986016,3.2316875 18.1549063,2.88799219 18.1549063,2.46545313 C18.1549063,2.04291406 18.4987148,1.69921875 18.9212539,1.69921875 Z M33.1741875,12.5078359 L33.3182812,9.56954688 L34.7794961,9.56954688 L34.5373008,12.5078359 L33.1741875,12.5078359 Z M34.3972852,14.2070547 L34.1549766,17.1463633 L32.9467188,17.1463633 L33.0909258,14.2070547 L34.3972852,14.2070547 Z M33.4016563,7.87032813 L33.5458633,4.93090625 L34.9170195,4.93090625 L35.1043867,5.63030469 L34.9197383,7.87032813 L33.4016563,7.87032813 Z M29.8496094,12.5078359 L29.8496094,9.56954688 L31.6170234,9.56954688 L31.4729297,12.5078359 L29.8496094,12.5078359 Z M31.3895547,14.2070547 L31.2453477,17.1463633 L29.8496094,17.1463633 L29.8496094,14.2070547 L31.3895547,14.2070547 Z M29.8496094,7.87032813 L29.8496094,4.93090625 L31.8444922,4.93090625 L31.7002852,7.87032813 L29.8496094,7.87032813 Z M26.5271836,12.5078359 L26.3830898,9.56954688 L28.1503906,9.56954688 L28.1503906,12.5078359 L26.5271836,12.5078359 Z M28.1503906,14.2070547 L28.1503906,17.1463633 L26.7546523,17.1463633 L26.6104453,14.2070547 L28.1503906,14.2070547 Z M26.2997148,7.87032813 L26.1555078,4.93090625 L28.1503906,4.93090625 L28.1503906,7.87032813 L26.2997148,7.87032813 Z M24.6817188,9.56954688 L24.8258125,12.5078359 L23.4626992,12.5078359 L23.2205039,9.56954688 L24.6817188,9.56954688 Z M23.080375,7.87032813 L22.8957266,5.63030469 L23.0830938,4.93090625 L24.45425,4.93090625 L24.598457,7.87032813 L23.080375,7.87032813 Z M24.9091875,14.2070547 L25.0533945,17.1463633 L23.8451367,17.1463633 L23.6028281,14.2070547 L24.9091875,14.2070547 Z M19.7002891,4.93090625 L21.3239492,4.93090625 C19.1486094,13.0487539 16.757582,21.9728242 14.5342109,30.2706758 L12.9106641,30.2706758 L19.7002891,4.93090625 Z M49.2635234,35.2390781 C49.2635234,35.5561523 49.1830937,35.8654102 49.0326563,36.1390977 C46.7743945,35.8918047 46.3333906,34.8339844 43.0742891,34.8339844 C39.4129258,34.8339844 39.2969258,36.1933594 36.0365781,36.1933594 C32.7404336,36.1933594 32.6958008,34.8339844 28.9990938,34.8339844 C25.337957,34.8339844 25.2220703,36.1933594 21.9618359,36.1933594 C18.6656914,36.1933594 18.6211719,34.8339844 14.9243516,34.8339844 C11.6785039,34.8339844 11.202043,35.8940703 8.96723047,36.1389844 C8.81679297,35.8652969 8.73636328,35.5560391 8.73636328,35.2390781 L8.73636328,33.838582 C8.73636328,32.8082891 9.57453125,31.9700078 10.6049375,31.9700078 C11.8816172,31.9700078 11.811043,31.9702344 11.8225977,31.9700078 L33.6831602,31.9700078 C34.1523711,31.9700078 34.5327695,31.5896094 34.5327695,31.1203984 C34.5327695,30.6511875 34.1523711,30.2707891 33.6831602,30.2707891 L16.2932422,30.2707891 L21.5917461,10.4963008 L21.7638203,12.5830547 C21.4691758,12.7163867 21.2641367,13.012957 21.2641367,13.3574453 C21.2641367,13.7510977 21.5319336,14.0822187 21.8953398,14.1786211 L22.1462578,17.2214687 C21.8516133,17.3548008 21.6465742,17.6513711 21.6465742,17.9958594 C21.6465742,18.389625 21.9143711,18.7207461 22.2777773,18.8170352 L22.4909727,21.4025664 C22.5275625,21.8465156 22.899125,22.1823945 23.3367305,22.1823945 C23.8338086,22.1823945 24.2253086,21.7587227 24.1844141,21.2628906 L23.9851523,18.8453555 L25.1366563,18.8453555 L25.2606992,21.3743594 C25.2830156,21.8288437 25.658543,22.1822812 26.1086094,22.1822812 C26.5965117,22.1822812 26.9815547,21.774582 26.9578789,21.2909844 L26.8379141,18.8453555 L28.1503906,18.8453555 L28.1503906,21.3326719 C28.1503906,21.8018828 28.5307891,22.1822812 29,22.1822812 C29.4692109,22.1822812 29.8496094,21.8018828 29.8496094,21.3326719 L29.8496094,18.8453555 L31.1619727,18.8453555 L31.0420078,21.2909844 C31.018332,21.7743555 31.4032617,22.1822812 31.8912773,22.1822812 C32.341457,22.1822812 32.7169844,21.8287305 32.7391875,21.3743594 L32.8632305,18.8453555 L34.0147344,18.8453555 L33.8154727,21.2628906 C33.7746914,21.7579297 34.1651719,22.1823945 34.6631563,22.1823945 C35.1007617,22.1823945 35.4723242,21.8464023 35.5089141,21.4025664 L35.7221094,18.8170352 C36.0855156,18.7206328 36.3533125,18.3895117 36.3533125,17.9958594 C36.3533125,17.6513711 36.1482734,17.3548008 35.8536289,17.2214687 L36.1045469,14.1786211 C36.4679531,14.0822187 36.73575,13.7510977 36.73575,13.3574453 C36.73575,13.012957 36.5307109,12.7163867 36.2360664,12.5830547 L36.4081406,10.4963008 L41.7066445,30.2707891 L37.6480039,30.2707891 C37.178793,30.2707891 36.7983945,30.6511875 36.7983945,31.1203984 C36.7983945,31.5896094 37.178793,31.9700078 37.6480039,31.9700078 L47.3949492,31.9700078 C48.4252422,31.9700078 49.2635234,32.8081758 49.2635234,33.838582 L49.2635234,35.2390781 Z" id="Shape"></path>
                    <path d="M28.9990937,43.355 C29.4683047,43.355 29.8487031,42.9746016 29.8487031,42.5053906 C29.8487031,42.0361797 29.4683047,41.6557812 28.9990937,41.6557812 C25.3378437,41.6557812 25.2221836,43.0151562 21.9618359,43.0151562 C18.6656914,43.0151562 18.6211719,41.6557812 14.9243516,41.6557812 C11.2629883,41.6557812 11.1472148,43.0151562 7.88675391,43.0151562 C7.41754297,43.0151562 7.03714453,43.3955547 7.03714453,43.8647656 C7.03714453,44.3339766 7.41754297,44.714375 7.88675391,44.714375 C11.5480039,44.714375 11.6640039,43.355 14.9243516,43.355 C18.2202695,43.355 18.2653555,44.714375 21.9618359,44.714375 C25.6229727,44.714375 25.7388594,43.355 28.9990937,43.355 L28.9990937,43.355 Z" id="Path"></path>
                    <path d="M21.9618359,51.5360586 C25.6229727,51.5360586 25.7388594,50.1766836 28.9990937,50.1766836 C32.2952383,50.1766836 32.3398711,51.5360586 36.0365781,51.5360586 C39.6980547,51.5360586 39.8138281,50.1766836 43.0742891,50.1766836 C46.3567266,50.1766836 46.4175586,51.5360586 50.1123398,51.5360586 C50.5815508,51.5360586 50.9619492,51.1556602 50.9619492,50.6864492 C50.9619492,50.2172383 50.5815508,49.8368398 50.1123398,49.8368398 C46.8299023,49.8368398 46.7690703,48.4774648 43.0742891,48.4774648 C39.4129258,48.4774648 39.2969258,49.8368398 36.0365781,49.8368398 C32.7404336,49.8368398 32.6958008,48.4774648 28.9990938,48.4774648 C25.3378438,48.4774648 25.2221836,49.8368398 21.9618359,49.8368398 C21.492625,49.8368398 21.1122266,50.2172383 21.1122266,50.6864492 C21.1122266,51.1556602 21.492625,51.5360586 21.9618359,51.5360586 Z" id="Path"></path>
                </g>
            </g>
        </g>
    </g>
</svg>