<?xml version="1.0" encoding="UTF-8"?>
<svg width="81px" height="57px" viewBox="0 0 81 57" version="1.1" xmlns="http://www.w3.org/2000/svg" xmlns:xlink="http://www.w3.org/1999/xlink">
    <title>Glamping tents with private swimming pools</title>
    <g id="V2-Pages" stroke="none" stroke-width="1" fill="none" fill-rule="evenodd">
        <g id="Artboard-Copy" transform="translate(-839.000000, -367.000000)" fill="#185E30" fill-rule="nonzero">
            <g id="Clamping-tents-with-private-swimming-pools" transform="translate(839.000000, 367.091840)">
                <g id="swimming-pool-2" transform="translate(46.000000, 0.000000)">
                    <g id="swimming-pool" transform="translate(0.000000, 0.908160)">
                        <path d="M35,12.7654206 C35,12.7532243 34.9937109,12.7430607 34.9930273,12.7310678 C34.8646484,9.51477804 28.21875,7.57550467 21,7.09998598 L21,0.623364486 C21,0.304025701 20.7388672,0.0451939252 20.4166895,0.0451939252 C20.0945117,0.0451939252 19.8333789,0.304093458 19.8333789,0.623364486 L19.8333789,2.35794393 L14.5833789,2.35794393 L14.5833789,0.623364486 C14.5833789,0.304025701 14.3221777,0.0451939252 14.0000684,0.0451939252 C13.677959,0.0451939252 13.4167578,0.304093458 13.4167578,0.623364486 L13.4167578,7.14091121 C6.426875,7.68039252 0.131933594,9.60157477 0.00697265625,12.7310678 C0.0062890625,12.7430607 0,12.7532243 0,12.7654206 L0,23.1728972 C0,23.1834673 0.00546875,23.1922757 0.00608398437,23.2027103 C0.00546875,23.2130771 0,23.2218855 0,23.2324556 C0,25.9975514 4.99112305,27.8147266 11.039834,28.5643902 C11.0549414,28.5655421 11.0679297,28.5731308 11.0833105,28.5731308 L11.0926758,28.5712336 C13.218584,28.827965 15.3583008,28.9560935 17.4999316,28.9548157 C19.6415625,28.9560935 21.7812793,28.827965 23.9071875,28.5712336 L23.9166211,28.5731308 C23.9320703,28.5731308 23.9449902,28.5656098 23.9600977,28.5643902 C30.008877,27.8147266 35,25.9975514 35,23.2324556 C35,23.2218855 34.9945313,23.2130771 34.993916,23.2026425 C34.9945313,23.1922757 35,23.1834673 35,23.1728972 L35,12.7654206 Z M14.5833105,3.5143528 L19.8333105,3.5143528 L19.8333105,4.67076168 L14.5833105,4.67076168 L14.5833105,3.5143528 L14.5833105,3.5143528 Z M14.5833105,5.8271028 L19.8333105,5.8271028 L19.8333105,7.03507477 C19.0559277,7.00106075 18.2757422,6.98351168 17.5,6.98351168 C16.5298437,6.98351168 15.553125,7.01163084 14.5833105,7.06468458 L14.5833105,5.8271028 L14.5833105,5.8271028 Z M4.66668945,25.9734977 C2.43817383,25.1588551 1.16668945,24.1723808 1.16668945,23.2324556 C1.16668945,23.2218855 1.1612207,23.2130771 1.16060547,23.2026425 C1.16115234,23.1922757 1.16668945,23.1833995 1.16668945,23.1728972 L1.16668945,15.0349416 C2.20677734,15.8605607 3.39404297,16.4852804 4.66668945,16.8766449 L4.66668945,25.9734977 Z M10.5,27.3346005 C8.92212891,27.1239439 7.36223633,26.7972196 5.83331055,26.3570023 L5.83331055,17.2434813 C7.36462891,17.6683855 8.92397461,17.9869112 10.5,18.1968224 L10.5,27.3346005 Z M16.9166895,27.7939252 C15.1625195,27.779493 13.4101953,27.6758248 11.6666895,27.4834626 L11.6666895,18.3424322 C13.410127,18.5369626 15.1623828,18.6436799 16.9166895,18.6621098 L16.9166895,27.7939252 L16.9166895,27.7939252 Z M23.3333105,27.4833949 C21.5898047,27.6758248 19.8375488,27.7794252 18.0833105,27.7938575 L18.0833105,18.6621098 C19.8376172,18.6436799 21.589873,18.5370304 23.3333105,18.3424322 L23.3333105,27.4833949 Z M17.5,17.5100374 C7.87438477,17.5100374 1.16668945,15.0409042 1.16668945,12.8249112 C1.16668945,10.6089182 7.87438477,8.1398528 17.5,8.1398528 C27.1256152,8.1398528 33.8333105,10.6090537 33.8333105,12.824979 C33.8333105,15.0409042 27.1256152,17.5100374 17.5,17.5100374 Z M29.1666895,26.3570701 C27.6377637,26.7972196 26.0778711,27.1240117 24.5,27.3346682 L24.5,18.1968224 C26.0760254,17.9869112 27.6353711,17.6683178 29.1666895,17.2434813 L29.1666895,26.3570701 Z M33.8333105,23.2324556 C33.8333105,24.1723808 32.5618262,25.1588551 30.3333105,25.9734977 L30.3333105,16.8765771 C31.6060254,16.4852126 32.7932227,15.860493 33.8333105,15.0348738 L33.8333105,23.1728972 C33.8333105,23.1834673 33.8387793,23.1922757 33.8393945,23.2027103 C33.8387793,23.2130771 33.8333105,23.2218855 33.8333105,23.2324556 Z" id="Shape"></path>
                        <path d="M17.5,9.29626168 C12.657627,9.29626168 3.5,10.0212617 3.5,12.7654206 C3.5,15.5095794 12.657627,16.2345794 17.5,16.2345794 C22.342373,16.2345794 31.5,15.5095794 31.5,12.7654206 C31.5,10.0212617 22.3424414,9.29626168 17.5,9.29626168 Z M17.5,15.0781706 C9.19631836,15.0781706 4.66668945,13.55025 4.66668945,12.7654206 C4.66668945,11.9805911 9.19631836,10.4526706 17.5,10.4526706 C25.8036816,10.4526706 30.3333105,11.9805911 30.3333105,12.7654206 C30.3333105,13.55025 25.8036816,15.0781706 17.5,15.0781706 Z" id="Shape"></path>
                        <path d="M14.7630957,12.4743364 C14.720918,12.4966285 14.4625879,12.6005 13.8234277,12.3532547 C12.9120605,12.0000374 11.8752539,12.2451822 11.2229004,12.9681495 C11.0751074,13.1397103 11.0414746,13.3807897 11.1367676,13.5856192 C11.2320605,13.7905164 11.4388477,13.9217624 11.666416,13.9217624 C11.8372461,13.9220327 11.9995996,13.8479065 12.1104785,13.7190327 C12.4388086,13.3685257 12.9506152,13.2539486 13.3990527,13.4305234 C14.8778711,14.002528 15.5005566,13.3949509 15.6104785,13.2670935 C15.8123438,13.032722 15.7932715,12.6826893 15.567207,12.4712196 C15.3411426,12.25975 14.9874512,12.2611051 14.7630957,12.4743364 Z" id="Path"></path>
                        <path d="M22.3464063,12.4743364 C22.3042285,12.4966285 22.0458984,12.6005 21.4067383,12.3532547 C20.4953711,12.0001051 19.4586328,12.24525 18.8062109,12.9681495 C18.658418,13.1397103 18.6247852,13.3807897 18.7200781,13.5856192 C18.8153711,13.7905164 19.0221582,13.9217624 19.2497266,13.9217624 C19.4205566,13.9220327 19.5829102,13.8479065 19.6937891,13.7190327 C20.0220508,13.3684579 20.5339258,13.2538808 20.9823633,13.4305234 C22.4620703,14.002528 23.0841406,13.3949509 23.1937891,13.2670935 C23.3956543,13.032722 23.376582,12.6826893 23.1505176,12.4712196 C22.9244531,12.25975 22.5707617,12.2611051 22.3464063,12.4743364 Z" id="Path"></path>
                    </g>
                </g>
                <g id="tent-2" transform="translate(0.000000, 4.000000)">
                    <g id="tent" transform="translate(0.000000, 0.908160)">
                        <path d="M59.5702213,46.2717986 C59.1260499,45.9725171 58.5265622,46.0939817 58.2301811,46.5433094 L57.1219316,48.2286331 L31.2132797,6.98345324 L34.7275654,1.64374101 C34.9190655,1.35273662 34.9427728,0.980338145 34.7897569,0.666824488 C34.636741,0.353310831 34.3302487,0.146312173 33.9857327,0.123802905 C33.6412167,0.101293637 33.3110172,0.266693453 33.1195171,0.557697842 L30.0603622,5.2076259 L27.0012072,0.557697842 C26.7051737,0.107844033 26.1052173,-0.0137154886 25.661167,0.28618705 C25.2171167,0.586089589 25.0971254,1.1938872 25.393159,1.64374101 L28.9074447,6.98345324 L2.99879276,48.2286331 L1.89054326,46.5433094 C1.59450974,46.0934555 0.994553292,45.971896 0.550503018,46.2717986 C0.106452744,46.5717011 -0.013538546,47.1794987 0.28249497,47.6293525 L2.21408451,50.5646043 C2.39384936,50.8362675 2.69527108,51 3.01810865,51 L57.1026157,51 C57.4254533,51 57.726875,50.8362675 57.9066398,50.5646043 L59.8382294,47.6293525 C60.1336498,47.179376 60.0137523,46.5720532 59.5702213,46.2717986 Z M21.9042254,49.0431655 L30.0663984,26.4368345 L38.3311871,49.0431655 L21.9042254,49.0431655 Z M32.9541247,28.7043165 L42.4720322,40.4123022 L39.7533199,47.2991367 L32.9541247,28.7043165 Z M41.1452716,49.0431655 L44.4784708,40.6006475 C44.6087406,40.2686968 44.5509628,39.8912768 44.3275654,39.6148921 L30.8064386,22.9817986 C30.5862238,22.7108639 30.2396353,22.580174 29.8981511,22.6393059 C29.556667,22.6984379 29.2726044,22.9383324 29.1537223,23.2679856 L19.8482897,49.0431655 L4.77706237,49.0431655 L30.0603622,8.79352518 L55.343662,49.0431655 L41.1452716,49.0431655 Z" id="Shape"></path>
                    </g>
                </g>
            </g>
        </g>
    </g>
</svg>