<?xml version="1.0" encoding="UTF-8"?>
<svg width="65px" height="60px" viewBox="0 0 65 60" version="1.1" xmlns="http://www.w3.org/2000/svg" xmlns:xlink="http://www.w3.org/1999/xlink">
    <title>Beach swings and hammocks</title>
    <g id="V2-Pages" stroke="none" stroke-width="1" fill="none" fill-rule="evenodd">
        <g id="Artboard-Copy" transform="translate(-1355.000000, -364.000000)" fill="#7D9831" fill-rule="nonzero">
            <g id="Beach-swings-and-hammocks" transform="translate(1355.000000, 364.091840)">
                <g id="hammock" transform="translate(0.000000, 0.908160)">
                    <path d="M62.8334862,25.4354571 L62.6191666,25.4354571 L62.6191666,23.2837155 L63.6515194,23.2837155 C64.1794184,23.2837155 64.6071657,22.8605998 64.6071657,22.3386982 C64.6071657,21.8167966 64.1794184,21.3936808 63.6515194,21.3936808 L61.7903028,21.3936808 L54.0290536,12.2199564 C54.8563884,11.7592919 55.4172891,10.8837019 55.4172891,9.87971541 C55.4172891,8.73208634 54.6839898,7.75304836 53.6574983,7.36962332 L53.6574983,1.01016055 C53.6574983,0.488258966 53.2297511,0.0651431962 52.7018521,0.0651431962 C52.1739531,0.0651431962 51.7462058,0.488258966 51.7462058,1.01016055 L51.7462058,7.36962332 C50.7198418,7.75317437 49.9865425,8.73208634 49.9865425,9.87971541 C49.9865425,10.8835758 50.5474432,11.7591659 51.3746506,12.2199564 L43.6135288,21.3936808 L41.7523122,21.3936808 C41.2244132,21.3936808 40.7966659,21.8167966 40.7966659,22.3386982 C40.7966659,22.8605998 41.2244132,23.2837155 41.7523122,23.2837155 L42.7845375,23.2837155 L42.7845375,25.4354571 L42.5702179,25.4354571 C41.3756601,25.4354571 40.4037042,26.3966027 40.4037042,27.5778744 L40.4037042,30.3259849 C40.4037042,31.4340492 41.2588164,32.348196 42.3506741,32.45744 L42.3506741,35.6262722 C42.3506741,42.6010043 38.8006394,49.015278 32.8543536,52.7842592 C32.8288697,52.8003875 32.8047874,52.8177759 32.7813423,52.8357942 C27.001976,49.1910513 23.2724072,42.803238 23.2724072,35.6572688 L23.2724072,32.3311857 C24.0495387,32.0054697 24.5961684,31.2434077 24.5961684,30.3574854 L24.5961684,27.609375 C24.5961684,26.4279773 23.6242124,25.4669576 22.4296546,25.4669576 L22.2173737,25.4669576 L22.2173737,23.3152161 L23.2497265,23.3152161 C23.7776255,23.3152161 24.2053728,22.8921004 24.2053728,22.3701988 C24.2053728,21.8482972 23.7776255,21.4251814 23.2497265,21.4251814 L21.3883825,21.4251814 L13.6272607,12.251457 C14.4545955,11.7907925 15.0154962,10.9152024 15.0154962,9.91121599 C15.0154962,8.76358692 14.2821969,7.78454894 13.2558329,7.4011239 L13.2558329,1.04166113 C13.2558329,0.519759544 12.8280856,0.0966437746 12.3001866,0.0966437746 C11.7722876,0.0966437746 11.3445404,0.519759544 11.3445404,1.04166113 L11.3445404,7.4011239 C10.3180489,7.78454894 9.58474965,8.76358692 9.58474965,9.91121599 C9.58474965,10.9150764 10.1456503,11.7907925 10.9729851,12.251457 L3.21186334,21.4251814 L1.3506467,21.4251814 C0.822747713,21.4251814 0.395000451,21.8482972 0.395000451,22.3701988 C0.395000451,22.8921004 0.822747713,23.3152161 1.3506467,23.3152161 L2.37892207,23.3152161 L2.37892207,25.4669576 L2.16651376,25.4669576 C0.971955948,25.4669576 0,26.4279773 0,27.609375 L0,30.3574854 C0,31.3293413 0.658376558,32.1508764 1.55693887,32.4120792 L1.55693887,35.6572688 C1.55693887,47.9285081 11.6526407,57.9117974 24.0616436,57.9117974 C24.0616436,57.9117974 41.5252506,57.8808008 41.5615652,57.8808008 C49.223682,57.8808008 56.288711,54.079941 60.4606803,47.7134221 C60.7477564,47.2754381 60.6213563,46.6902833 60.1784461,46.4064001 C59.7352811,46.1225169 59.1436723,46.2475112 58.8567236,46.6854953 C55.0384709,52.5120942 48.5729506,55.9906401 41.5615652,55.9906401 C41.5372281,55.9906401 41.5132732,55.9925302 41.4894457,55.9941682 C41.4868974,55.9939162 41.4844764,55.9932862 41.481928,55.9930342 C41.1177631,55.9551075 37.1977021,55.4567683 34.6366976,53.8759433 C40.6799497,49.7047627 44.2620941,42.9490226 44.2620941,35.6261462 L44.2620941,32.4682762 L62.1551048,32.4682762 L62.1551048,35.6261462 C62.1551048,38.3469141 61.6217268,40.9877966 60.5701337,43.4752083 C60.3665173,43.9566631 60.5962547,44.5103173 61.0831246,44.711669 C61.5703767,44.9131467 62.1298758,44.6860905 62.3334921,44.2043837 C63.4831983,41.4848758 64.0663973,38.5986668 64.0663973,35.6262722 L64.0663973,32.0853552 C64.6297189,31.6981501 65,31.0542782 65,30.3259849 L65,27.5778744 C65,26.3964767 64.0280441,25.4354571 62.8334862,25.4354571 L62.8334862,25.4354571 Z M16.2430556,25.4669576 L16.2430556,23.3152161 L20.3062087,23.3152161 L20.3062087,25.4669576 L16.2430556,25.4669576 Z M14.3317631,23.3152161 L14.3317631,25.4669576 L10.2684827,25.4669576 L10.2684827,23.3152161 L14.3317631,23.3152161 Z M12.3000592,9.11614139 C12.7433516,9.11614139 13.1040762,9.47285394 13.1040762,9.91121599 C13.1040762,10.349578 12.7433516,10.7064166 12.3000592,10.7064166 C11.8566393,10.7064166 11.4959147,10.349704 11.4959147,9.91121599 C11.4960422,9.47285394 11.8567668,9.11614139 12.3000592,9.11614139 Z M12.3000592,13.6281582 L18.8964393,21.4251814 L5.70367909,21.4251814 L12.3000592,13.6281582 Z M4.29021457,23.3152161 L8.35719018,23.3152161 L8.35719018,25.4669576 L4.29021457,25.4669576 L4.29021457,23.3152161 Z M24.0616436,56.0217627 C12.7064,56.0217627 3.46823138,46.8862169 3.46823138,35.6572688 L3.46823138,32.4999028 L4.53689873,32.4999028 C4.54110357,32.4999028 4.54505357,32.4993988 4.54925842,32.4992728 L4.83085551,32.4992728 C5.35862708,32.4992728 5.78650177,32.076157 5.78650177,31.5542554 C5.78650177,31.0323538 5.35862708,30.6092381 4.83085551,30.6092381 L2.51258513,30.6092381 C2.50838028,30.6092381 2.50443028,30.6097421 2.50022543,30.6098681 L2.16651376,30.6098681 C2.02584263,30.6098681 1.9112925,30.496718 1.9112925,30.3574854 L1.9112925,27.609375 C1.9112925,27.4701424 2.02571522,27.3569923 2.16651376,27.3569923 L22.4296546,27.3569923 C22.5704532,27.3569923 22.6848759,27.4701424 22.6848759,27.609375 L22.6848759,30.3574854 C22.6848759,30.496718 22.5704532,30.6098681 22.4296546,30.6098681 L22.3291206,30.6098681 C22.3249158,30.6098681 22.3209658,30.6092381 22.316761,30.6092381 L9.92750811,30.6092381 C9.39960912,30.6092381 8.97186185,31.0323538 8.97186185,31.5542554 C8.97186185,32.076157 9.39960912,32.4992728 9.92750811,32.4992728 L20.0489487,32.4992728 C20.0530261,32.4992728 20.0571035,32.4999028 20.0613084,32.4999028 L21.3612421,32.4999028 L21.3612421,35.6572688 C21.3612421,40.9101792 23.2469233,46.0092408 26.6709401,50.0152324 C28.8888039,52.610124 31.6678232,54.6557716 34.7643719,56.0131945 L24.0616436,56.0217627 Z M56.6448485,25.4354571 L56.6448485,23.2837155 L60.7080016,23.2837155 L60.7080016,25.4354571 L56.6448485,25.4354571 Z M54.733556,23.2837155 L54.733556,25.4354571 L50.6702756,25.4354571 L50.6702756,23.2837155 L54.733556,23.2837155 Z M52.7018521,9.08464082 C53.1451445,9.08464082 53.5059966,9.44135337 53.5059966,9.87971541 C53.5059966,10.3180775 53.145272,10.674916 52.7018521,10.674916 C52.2584322,10.674916 51.897835,10.3182035 51.897835,9.87971541 C51.8979625,9.44135337 52.2585596,9.08464082 52.7018521,9.08464082 Z M52.7018521,13.5966577 L59.2983596,21.3936808 L46.105472,21.3936808 L52.7018521,13.5966577 Z M44.69583,23.2837155 L48.7589831,23.2837155 L48.7589831,25.4354571 L44.69583,25.4354571 L44.69583,23.2837155 Z M42.3151241,27.5778744 C42.3151241,27.4386418 42.4295468,27.3254918 42.5703454,27.3254918 L62.8334862,27.3254918 C62.9742848,27.3254918 63.0887075,27.4386418 63.0887075,27.5778744 L63.0887075,30.3259849 C63.0887075,30.4649654 62.9745396,30.5779895 62.8341233,30.5783675 L43.3064478,30.5783675 C43.3060656,30.5783675 43.3056833,30.5783675 43.3051736,30.5783675 L42.5703454,30.5783675 C42.4296742,30.5783675 42.3151241,30.4652174 42.3151241,30.3259849 L42.3151241,27.5778744 Z" id="Shape"></path>
                </g>
            </g>
        </g>
    </g>
</svg>