<?xml version="1.0" encoding="UTF-8"?>
<svg width="53px" height="61px" viewBox="0 0 53 61" version="1.1" xmlns="http://www.w3.org/2000/svg" xmlns:xlink="http://www.w3.org/1999/xlink">
    <title>Beach cinema</title>
    <g id="V2-Pages" stroke="none" stroke-width="1" fill="none" fill-rule="evenodd">
        <g id="Artboard-Copy" transform="translate(-1430.000000, -360.000000)" fill="#FCCB62" fill-rule="nonzero">
            <g id="Beach-cinema" transform="translate(1430.000000, 360.091840)">
                <g id="popcorn" transform="translate(0.000000, 0.908160)">
                    <path d="M9.64182766,15.8455828 C9.64182766,14.0315341 8.19470213,12.555729 6.41615745,12.555729 C5.63581702,12.555729 4.90272553,12.8350877 4.3254766,13.3388304 C3.99168936,13.2226706 3.63940851,13.1626355 3.28250426,13.1626355 C1.50384681,13.1626355 0.0568340426,14.6384405 0.0568340426,16.4524893 C0.0568340426,17.852848 0.941708511,19.0883977 2.19577872,19.5495867 C2.57388298,20.9467251 3.83674894,21.9674366 5.30552553,21.9674366 C7.08418298,21.9674366 8.53119574,20.4916316 8.53119574,18.6775828 C8.53119574,18.5655634 8.52567021,18.4540039 8.51461915,18.3433645 C9.22143617,17.7246121 9.64182766,16.8141949 9.64182766,15.8455828 Z M7.16605106,17.2104035 L6.57154894,17.5512924 L6.77215957,18.2160487 C6.81704043,18.3648713 6.83993191,18.5201345 6.83993191,18.6773528 C6.83993191,19.5401559 6.15160851,20.2420604 5.30575106,20.2420604 C4.50522553,20.2420604 3.83336596,19.6049064 3.77630638,18.7915575 L3.72770426,18.100924 L3.05607021,17.9998304 C2.31068723,17.8876959 1.74854894,17.2223645 1.74854894,16.4522593 C1.74854894,15.5894561 2.43687234,14.8875517 3.28272979,14.8875517 C3.56509574,14.8875517 3.84069574,14.9662183 4.07987234,15.1150409 L4.73177234,15.5206803 L5.19377447,14.9005478 C5.48730426,14.5065244 5.93284255,14.2806452 6.41638298,14.2806452 C7.26235319,14.2806452 7.95056383,14.9826647 7.95056383,15.8453528 C7.95045106,16.4099357 7.64992979,16.933 7.16605106,17.2104035 Z" id="Shape"></path>
                    <path d="M18.6629915,4.81051267 C18.6629915,3.14080117 17.3311128,1.78253606 15.6939766,1.78253606 C14.9932489,1.78253606 14.3340191,2.02716179 13.8090936,2.46948928 C13.516466,2.37345614 13.209517,2.32388694 12.8985085,2.32388694 C11.2613723,2.32388694 9.92949362,3.68226706 9.92949362,5.35186355 C9.92949362,5.45491228 9.93468085,5.557846 9.94505532,5.66031969 C9.52601702,6.1938499 9.29259149,6.86102144 9.29259149,7.55349513 C9.29259149,9.22320663 10.6244702,10.5814717 12.2616064,10.5814717 C12.7735638,10.5814717 13.2746957,10.4457602 13.7162872,10.1926238 C14.0320319,10.3061384 14.3659319,10.3649084 14.7032149,10.3649084 C16.3403511,10.3649084 17.6722298,9.00652827 17.6722298,7.33693177 C17.6722298,7.25009942 17.6686213,7.16361209 17.6614043,7.0775848 C18.2903,6.50897661 18.6629915,5.68573684 18.6629915,4.81051267 Z M16.3184745,5.94703899 L15.7238596,6.28792788 L15.924583,6.95279922 C15.9620213,7.07654971 15.980966,7.20582066 15.980966,7.33693177 C15.980966,8.05528265 15.4078894,8.63976218 14.7034404,8.63976218 C14.4770064,8.63976218 14.2545191,8.57834698 14.0598851,8.46218713 L13.5430787,8.15350097 L13.0860383,8.54809942 C12.8525,8.7497115 12.5674277,8.85632554 12.2616064,8.85632554 C11.5571574,8.85632554 10.9840809,8.271846 10.9840809,7.55349513 C10.9841936,7.18155361 11.1411638,6.82617349 11.414734,6.57867251 L11.809866,6.22122222 L11.6683447,5.70218324 C11.6371085,5.58763353 11.6212085,5.46974854 11.6212085,5.35197856 C11.6212085,4.63362768 12.1942851,4.04914815 12.898734,4.04914815 C13.1338511,4.04914815 13.3633298,4.11458869 13.5624745,4.23845419 L14.2143745,4.64397856 L14.6762638,4.02373099 C14.9205149,3.6957232 15.2916277,3.50768226 15.6942021,3.50768226 C16.3986511,3.50768226 16.9717277,4.09216179 16.9717277,4.81051267 C16.9717277,5.2805575 16.7213872,5.71598441 16.3184745,5.94703899 Z" id="Shape"></path>
                    <path d="M52.9435043,11.1941287 C52.9435043,9.52441715 51.6116255,8.16615205 49.9744894,8.16615205 C49.2738745,8.16615205 48.6146447,8.41077778 48.0896064,8.85322027 C47.7970915,8.75707212 47.489917,8.70750292 47.1789085,8.70750292 C45.5417723,8.70750292 44.2098936,10.065883 44.2098936,11.7354795 C44.2098936,11.8385283 44.2150809,11.941462 44.2254553,12.0440507 C43.806417,12.5775809 43.5729915,13.2446374 43.5729915,13.9371111 C43.5729915,15.6068226 44.9048702,16.9650877 46.5420064,16.9650877 C47.0539638,16.9650877 47.5550957,16.8293762 47.9966872,16.5762398 C48.3124319,16.6897544 48.6463319,16.7485244 48.9836149,16.7485244 C50.6207511,16.7485244 51.9526298,15.3901442 51.9526298,13.7205478 C51.9526298,13.6338304 51.9490213,13.5472281 51.9418043,13.4613158 C52.5708128,12.8928226 52.9435043,12.0694678 52.9435043,11.1941287 Z M50.5987617,12.33077 L50.004034,12.6717739 L50.2048702,13.3366452 C50.2421957,13.4602807 50.2611404,13.5894366 50.2611404,13.7205478 C50.2611404,14.4388986 49.6880638,15.0233782 48.9836149,15.0233782 C48.7571809,15.0233782 48.5346936,14.961963 48.3400596,14.8458031 L47.8232532,14.537117 L47.3662128,14.9317154 C47.1326745,15.1333275 46.8476021,15.2399415 46.5417809,15.2399415 C45.8373319,15.2399415 45.2642553,14.655462 45.2642553,13.9371111 C45.2642553,13.5652846 45.4212255,13.2099045 45.6947957,12.9622885 L46.0898149,12.6049532 L45.9484064,12.0860292 C45.9170574,11.9712495 45.9012702,11.8533645 45.9012702,11.7354795 C45.9012702,11.0171287 46.4743468,10.4326491 47.1787957,10.4326491 C47.4139128,10.4326491 47.6433915,10.4980897 47.8423106,10.6219552 L48.4943234,11.0277096 L48.9563255,10.407347 C49.2006894,10.0792242 49.5716894,9.89118324 49.9742638,9.89118324 C50.6787128,9.89118324 51.2517895,10.4756628 51.2517895,11.1940136 C51.2520149,11.6642885 51.0016745,12.0997154 50.5987617,12.33077 Z" id="Shape"></path>
                    <path d="M43.9412851,3.74437232 C43.5027383,3.08594152 42.8641447,2.62463743 42.1312787,2.42084016 C42.0379085,2.07374074 41.8887191,1.74297271 41.6881085,1.44187719 C41.2038915,0.715015595 40.4711383,0.223923977 39.624717,0.0592300195 C38.778183,-0.105463938 37.9196957,0.0759064327 37.2071277,0.569643275 C36.0714617,1.35665497 35.5666085,2.79749708 35.8974638,4.11458869 C34.9768426,5.21868226 34.8587766,6.85768616 35.6842234,8.09680117 C36.1684404,8.82366277 36.9011936,9.31475439 37.7476149,9.47944834 C37.9514957,9.51912671 38.1559404,9.53879337 38.3590319,9.53879337 C38.9989787,9.53867836 39.624266,9.34396686 40.165317,8.96892008 C40.2559809,8.90612476 40.3432617,8.83884405 40.4268213,8.76730799 C41.3261298,9.01584405 42.3004277,8.85885575 43.0861809,8.31439961 L43.0860681,8.31439961 C44.5572128,7.29495322 44.9409553,5.24490448 43.9412851,3.74437232 Z M42.7803596,5.88654386 C42.703566,6.29701365 42.4745383,6.65250877 42.1355638,6.88747368 L42.1354511,6.88747368 C41.6776213,7.20478558 41.0844723,7.245154 40.5876255,6.99282261 L39.9771106,6.68310136 L39.5507426,7.22583236 C39.4552298,7.34739766 39.3421255,7.45378168 39.2147,7.54222417 C38.8757255,7.77707407 38.4674,7.86344639 38.0648255,7.78489474 C37.6622511,7.70645809 37.3138043,7.4729883 37.0834234,7.12726901 C36.6334872,6.45193177 36.7726404,5.5271384 37.400183,5.02178558 L37.9330021,4.59268421 L37.6374426,3.96933138 C37.3094064,3.27743275 37.533134,2.42923587 38.1577447,1.99645419 C38.4150766,1.81818908 38.7123277,1.72560624 39.0167957,1.72560624 C39.1133234,1.72560624 39.2106404,1.73492203 39.3076191,1.75378363 C39.7101936,1.83222027 40.0586404,2.06569006 40.2890213,2.41140936 C40.447683,2.64959454 40.5387979,2.926423 40.5525553,3.21176218 L40.5899936,3.98980312 L41.3526298,4.0308616 C41.8369596,4.05708382 42.2706574,4.30607992 42.5423106,4.71378947 C42.7725787,5.05950877 42.8571532,5.47607407 42.7803596,5.88654386 Z" id="Shape"></path>
                    <path d="M44.1478723,24.2358889 C44.1478723,23.7725146 44.0420979,23.3147758 43.8439681,22.9022359 C44.0440149,22.4895809 44.1478723,22.0360975 44.1478723,21.5642125 C44.1478723,20.0989883 43.1223787,18.8740195 41.7650149,18.5958109 C41.921083,18.2249045 42.0053191,17.8207602 42.0053191,17.404885 C42.0053191,15.7350585 40.6733277,14.3766784 39.0361915,14.3766784 C38.5898638,14.3766784 38.1547,14.478692 37.759117,14.6713333 C37.0429404,13.9720741 36.0844298,13.5716101 35.0702128,13.5716101 C34.8097234,13.5716101 34.5525043,13.5977173 34.3006979,13.6495867 C34.0711064,13.416347 33.8065574,13.2238207 33.5175383,13.0789084 C34.1061766,12.4713119 34.4501128,11.6430117 34.4501128,10.7666374 C34.4501128,8.95235867 33.0028745,7.47620858 31.2238787,7.47620858 C30.4442149,7.47620858 29.7112362,7.75568226 29.1336489,8.25953996 C28.7999745,8.14349513 28.4478064,8.08357505 28.0911277,8.08357505 C27.457383,8.08357505 26.8518298,8.26989084 26.3362638,8.61192982 C25.2599128,7.575577 23.5826319,7.40076218 22.3089404,8.28334698 C21.219734,9.03827096 20.710934,10.395271 20.9631915,11.6676238 C19.701566,11.906499 18.7175702,12.9619435 18.5596979,14.2740897 C18.1964787,14.1670156 17.7833043,14.1099708 17.3245723,14.1501092 C16.6242957,14.2108343 16.0043085,14.4497096 15.5214447,14.8372924 C15.2259979,14.7391891 14.9154404,14.6886998 14.6008234,14.6886998 C12.9635745,14.6886998 11.6316957,16.0471949 11.6316957,17.7169064 C11.6316957,17.8199552 11.6367702,17.9225439 11.6470319,18.0245575 C11.2281064,18.5580877 10.9945681,19.2253743 10.9945681,19.918193 C10.9945681,20.4181404 11.1129723,20.8943957 11.3268894,21.3153314 C9.63494894,21.4146998 8.28818511,22.8495614 8.28818511,24.5990897 C8.28818511,25.4216394 8.58994681,26.2002554 9.11250426,26.7953158 C8.28931277,27.8283333 7.88155106,29.157501 7.98811489,30.491039 L12.5888532,58.8855653 L39.0573915,58.8855653 L43.6496723,30.56177 L43.6582426,30.491154 C43.7393213,29.476423 43.5225851,28.4642222 43.0516745,27.5831326 C43.1205745,27.3091793 43.1562085,27.0309708 43.1562085,26.7615029 C43.1562085,26.6749006 43.1526,26.5886433 43.1454957,26.502846 C43.7750681,25.9341228 44.1478723,25.110768 44.1478723,24.2358889 Z M14.0241383,57.159729 L14.0241383,57.159729 L9.6718234,30.3166842 C9.60371277,29.3534776 9.91923191,28.4331696 10.5621106,27.7218343 C11.2124319,27.0022183 12.0989979,26.6060097 13.0586362,26.6060097 L13.0939319,26.6060097 C14.9260404,26.6060097 16.4163553,28.0687037 16.486834,29.9357719 L16.4875106,29.9531384 L16.495517,30.0573372 C16.4954043,30.1276082 16.4966447,30.1979942 16.4993511,30.2686101 L18.5933021,57.159729 L14.0241383,57.159729 Z M20.290317,57.159729 L18.1875702,29.9975322 C18.2038085,29.1240331 18.5363553,28.3030936 19.1357064,27.6677797 C19.7817426,26.9831267 20.650717,26.6060097 21.5823894,26.6060097 C23.4546426,26.6060097 24.9777723,28.1595614 24.9777723,30.0689532 L24.9777723,57.159729 L20.290317,57.159729 Z M26.6693745,57.1598441 L26.6693745,57.1598441 L26.6693745,30.0690682 C26.6693745,28.1595614 28.192617,26.6061248 30.0648702,26.6061248 C30.9965426,26.6061248 31.865517,26.9832417 32.5115532,27.6678947 C33.111017,28.3032086 33.4435638,29.1240331 33.4596894,29.9976472 L31.3568298,57.1598441 L26.6693745,57.1598441 Z M41.9753234,30.3166842 L37.6230085,57.159729 L33.0539574,57.159729 L35.1458787,30.3036881 L35.1479085,30.2684951 C35.1506149,30.1977641 35.1518553,30.1271481 35.1517426,30.0567622 L35.1583957,29.9703899 L35.1604255,29.9356569 C35.2309043,28.0685887 36.7212191,26.6058947 38.5533277,26.6058947 L38.5886234,26.6058947 C39.5481489,26.6058947 40.4348277,27.0021033 41.0851489,27.7217193 C41.7279149,28.4331696 42.043434,29.3534776 41.9753234,30.3166842 Z M41.802566,25.3719552 L41.283166,25.6700604 C40.4816255,25.1602222 39.5473596,24.8810936 38.5885106,24.8810936 L38.5532149,24.8810936 C36.7777149,24.8810936 35.2164702,25.7980663 34.3066745,27.2027953 C34.1382021,26.9450585 33.9457106,26.7004327 33.7301021,26.4719084 C32.7622319,25.4460214 31.4604617,24.8810936 30.0645319,24.8810936 C28.2957979,24.8810936 26.735117,25.806462 25.8234043,27.2075107 C24.9115787,25.806577 23.3508979,24.8810936 21.5821638,24.8810936 C20.1863468,24.8810936 18.8845766,25.4460214 17.9167064,26.4719084 C17.7010979,26.7004327 17.5086064,26.9449435 17.340134,27.2027953 C16.4302255,25.7980663 14.8690936,24.8810936 13.0935936,24.8810936 L13.0582979,24.8810936 C12.1075681,24.8810936 11.181083,25.1555068 10.384166,25.6569493 C10.1280745,25.3718402 9.97978723,24.9959883 9.97978723,24.5987446 C9.97978723,23.7362865 10.6682234,23.0346121 11.5145319,23.0346121 C11.7967851,23.0346121 12.0724979,23.1131637 12.3116745,23.2617563 L12.9628979,23.6663606 L13.4246745,23.0473782 C13.5262766,22.9110916 13.6498681,22.7922865 13.7918404,22.6944133 L15.2354702,21.6976238 L13.5743149,21.1582281 C13.0431872,20.9857135 12.686283,20.4872612 12.686283,19.917963 C12.686283,19.5456764 12.8431404,19.1902963 13.1167106,18.9427953 L13.5122936,18.585 L13.369983,18.065386 C13.3390851,17.9525614 13.3234106,17.8352515 13.3234106,17.7167914 C13.3234106,16.9983255 13.8966,16.413731 14.6010489,16.413731 C14.836617,16.413731 15.065983,16.4789415 15.2643383,16.602577 L15.9164638,17.0086764 L16.3785787,16.3879688 C16.6577872,16.013037 17.1253149,15.8988324 17.4683489,15.8689298 C18.2185809,15.8045244 18.7665106,16.2577778 19.0935319,16.5293158 C19.1947957,16.6131579 19.2821894,16.685729 19.3774766,16.744614 L20.0351277,17.1503684 L20.4894617,16.5273606 L20.9037638,15.9716335 L20.5009638,15.4478791 C20.3231319,15.2164795 20.2290851,14.938846 20.2290851,14.6448811 C20.2290851,13.9311306 20.7946064,13.3495263 21.4927404,13.3419357 L21.9692894,13.369653 L22.2415064,13.0082924 C22.3203298,12.9037485 22.4081745,12.8120858 22.5024468,12.7360643 L23.0347021,12.307078 L22.7394809,11.6840702 C22.4113319,10.9915965 22.6349468,10.1431696 23.2595574,9.7102729 C23.9592702,9.22504678 24.9155255,9.41159259 25.390383,10.124653 C25.4185745,10.1669766 25.4465404,10.2155107 25.4738298,10.2687602 L26.0772404,11.4481852 L26.8867872,10.4050468 C27.1807681,10.0262047 27.619766,9.80883626 28.0910149,9.80883626 C28.3732681,9.80883626 28.6489809,9.88738791 28.8881574,10.0359805 L29.5391553,10.4404698 L30.0009319,9.82183236 C30.2951383,9.42769396 30.7409021,9.2015848 31.2236532,9.2015848 C32.0698489,9.2015848 32.7583979,9.9037193 32.7583979,10.7668674 C32.7583979,11.3313353 32.4579894,11.8539396 31.9745617,12.130768 L31.3814128,12.4702768 L31.5794298,13.1339981 C31.6229574,13.2800604 31.6458489,13.4301481 31.6475404,13.5808109 C31.6461872,13.6038129 31.6453979,13.6271598 31.6453979,13.6511969 L31.6453979,14.4062359 L32.3792787,14.5060643 C32.7510681,14.5566686 33.0812468,14.7723119 33.2851277,15.0977895 L33.6548872,15.6880195 L34.2970894,15.4401735 C34.5432574,15.3451754 34.8034085,15.2969864 35.0701,15.2969864 C35.8047702,15.2969864 36.4876809,15.6686979 36.8970213,16.2913606 L37.4452894,17.1254113 L38.1710511,16.4468538 C38.4088745,16.224425 38.7161617,16.1020546 39.0361915,16.1020546 C39.7407532,16.1020546 40.3138298,16.6866491 40.3138298,17.405115 C40.3138298,17.8748148 40.0632638,18.3103567 39.6600128,18.5418713 L39.0622404,18.8849454 L39.2679255,19.552347 C39.2876596,19.6162924 39.3022064,19.6890936 39.3113404,19.7690253 L39.457034,21.0498889 L40.5621404,20.4236608 C40.7487681,20.3179669 40.9618957,20.2620721 41.1786319,20.2620721 C41.8831936,20.2620721 42.456383,20.8460916 42.456383,21.5639825 C42.456383,21.8587524 42.3622234,22.136731 42.1843915,22.3681306 L41.7743745,22.9013158 L42.1852936,23.4333509 C42.3626745,23.6632554 42.456383,23.9404288 42.456383,24.2351988 C42.456383,24.7048986 42.205817,25.1404405 41.802566,25.3719552 Z" id="Shape"></path>
                    <path d="M28.6990489,16.3892339 C28.4483702,16.3892339 28.2035553,16.4269571 27.9697915,16.5004483 C27.3809277,15.8505283 26.5482638,15.4691559 25.6543681,15.4691559 C24.1442064,15.4691559 22.8782957,16.5561131 22.5690915,18.0030507 C20.8990277,18.0849376 19.5650064,19.4963372 19.5650064,21.2196433 L21.2564957,21.2196433 C21.2564957,20.3952534 21.9141468,19.7245166 22.7224532,19.7245166 C22.8552915,19.7245166 22.9909489,19.7444133 23.1257043,19.7837466 L24.339517,20.1376316 L24.1986723,18.8581481 C24.1917936,18.7954678 24.1884106,18.7403782 24.1884106,18.6894288 C24.1884106,17.865039 24.8460617,17.1943021 25.6543681,17.1943021 C26.2011702,17.1943021 26.6990319,17.5026433 26.9534319,17.9987953 L27.4205085,18.9097875 L28.2190043,18.2824094 C28.3165468,18.2056979 28.4790426,18.1143801 28.6990489,18.1143801 C29.1343255,18.1143801 29.4884106,18.4756257 29.4884106,18.9194483 L31.1799,18.9194483 C31.1799,17.5242651 30.0670128,16.3892339 28.6990489,16.3892339 Z" id="Path"></path>
                    <path d="M34.3373468,19.5520019 C33.509983,19.5520019 32.729417,19.9148577 32.1818255,20.520039 C31.8807404,20.4123899 31.5625149,20.3570702 31.236283,20.3570702 C29.6506809,20.3570702 28.3607511,21.6726667 28.3607511,23.2898187 L30.0522404,23.2898187 C30.0522404,22.6239123 30.5833681,22.0822164 31.236283,22.0822164 C31.4922617,22.0822164 31.7371894,22.1660585 31.9444532,22.3248869 L32.773734,22.9599708 L33.217017,22.0037797 C33.4215745,21.5623723 33.8613617,21.2771481 34.3373468,21.2771481 C35.0212723,21.2771481 35.5777723,21.8447212 35.5777723,22.5422554 L37.2692617,22.5422554 C37.2691489,20.8933606 35.9540723,19.5520019 34.3373468,19.5520019 Z" id="Path"></path>
                    <polygon id="Rectangle" transform="translate(12.744340, 33.397925) rotate(-9.392619) translate(-12.744340, -33.397925) " points="11.9088028 30.0084369 13.6012002 30.0030178 13.5798776 36.7874127 11.8874802 36.7928319"></polygon>
                    <polygon id="Rectangle" transform="translate(15.211095, 48.612806) rotate(-9.386967) translate(-15.211095, -48.612806) " points="14.37156 46.4987291 16.0639288 46.4933131 16.0506309 50.7268839 14.3582621 50.7322998"></polygon>
                    <polygon id="Rectangle" transform="translate(29.295649, 50.971254) rotate(-85.457604) translate(-29.295649, -50.971254) " points="28.1745734 50.1270982 30.4193812 50.1236403 30.416724 51.8154103 28.1719161 51.8188683"></polygon>
                    <polygon id="Rectangle" transform="translate(30.166171, 39.789646) rotate(-85.457604) translate(-30.166171, -39.789646) " points="26.8795234 38.9488257 33.4554765 38.9386959 33.4528192 40.6304659 26.8768662 40.6405957"></polygon>
                    <polygon id="Rectangle" transform="translate(30.775409, 31.961044) rotate(-85.457604) translate(-30.775409, -31.961044) " points="28.8642233 31.1181022 32.6892516 31.11221 32.6865944 32.80398 28.861566 32.8098722"></polygon>
                </g>
            </g>
        </g>
    </g>
</svg>