<?xml version="1.0" encoding="UTF-8"?>
<svg width="48px" height="50px" viewBox="0 0 48 50" version="1.1" xmlns="http://www.w3.org/2000/svg" xmlns:xlink="http://www.w3.org/1999/xlink">
    <title>Non-motorised watersports centre</title>
    <g id="V2-Pages" stroke="none" stroke-width="1" fill="none" fill-rule="evenodd">
        <g id="Artboard-Copy" transform="translate(-1206.000000, -371.000000)" fill="#7DB3E1" fill-rule="nonzero">
            <g id="Non-motorised-watersports-centre" transform="translate(1206.000000, 371.091840)">
                <g id="beach-ball" transform="translate(0.000000, 0.908160)">
                    <path d="M40.9851223,7.11462087 C34.9347313,1.06424712 26.1161034,-1.29868355 17.8511305,0.915922002 C9.58615765,3.13052755 3.13048579,9.58621805 0.915904104,17.8511973 C-1.29867758,26.1161766 1.06427854,34.9347977 7.11466977,40.9851712 C13.1650608,47.035545 21.9836887,49.3984756 30.2486616,47.1838701 C38.5136344,44.9692645 44.9693063,38.513574 47.183888,30.2485948 C49.3984697,21.9836155 47.0355136,13.1649944 40.9851223,7.11462087 Z M31.2349272,14.4698545 C29.4712903,14.4698545 28.04158,13.0401442 28.04158,11.2765073 C28.04158,9.51287032 29.4712903,8.08316008 31.2349272,8.08316008 C32.9985642,8.08316008 34.4282744,9.51287032 34.4282744,11.2765073 C34.4262754,13.0393155 32.9977355,14.4678554 31.2349272,14.4698545 L31.2349272,14.4698545 Z M36.024948,11.2765073 C36.0246489,11.0093728 36.0020423,10.7427299 35.9573638,10.479358 C38.0527486,10.4903689 40.1295574,10.8730984 42.091216,11.609749 L42.8054021,11.8776289 C47.1237068,18.5499181 47.5866528,27.0097915 44.0222031,34.1134453 C43.6426703,26.4770275 40.6035597,19.2140007 35.4315064,13.5829452 C35.8215659,12.8768401 36.0257715,12.0831857 36.024948,11.2765073 L36.024948,11.2765073 Z M41.1145447,9.61091626 C39.4019291,9.12620096 37.630492,8.88073455 35.8506042,8.88149688 L35.3805385,8.88149688 C34.7193931,7.74024602 33.618248,6.92089071 32.3351741,6.61545979 C32.4921038,5.52967634 32.5408585,4.43099584 32.4807208,3.33557988 C35.2425308,4.46217306 37.750425,6.13107619 39.8561264,8.2436168 C40.2968595,8.68433064 40.7163323,9.14009713 41.1145447,9.61091626 L41.1145447,9.61091626 Z M30.8329816,2.74064033 C30.9600478,3.99691437 30.9277948,5.26421237 30.7369896,6.51239651 C29.9434721,6.59487481 29.183411,6.87547008 28.5266535,7.32839651 C24.7124277,5.25396121 20.5855153,3.81524124 16.3083084,3.06884956 C20.9808888,1.3590749 26.0879395,1.24367257 30.8329816,2.74064033 L30.8329816,2.74064033 Z M8.2436657,8.2436168 C9.81448407,6.66951032 11.6106715,5.33776931 13.5732843,4.29209613 C18.3846341,4.81525127 23.0536749,6.24345173 27.3343624,8.50143568 C26.9681306,9.01410462 26.7071259,9.59426801 26.5664303,10.2084015 L20.6986748,12.5555316 C12.9721317,15.6538746 6.4475227,21.1560433 2.08934719,28.2486806 C1.82776324,26.8643962 1.69638264,25.458679 1.69638264,24.049896 C1.68025377,18.1181732 4.0378295,12.4265034 8.2436657,8.2436168 L8.2436657,8.2436168 Z M2.63226012,30.4838919 C6.77936588,23.0221939 13.3680871,17.2150445 21.2915805,14.0379902 L26.494072,11.9569746 C26.7627474,13.8056625 28.0790479,15.3308124 29.8685848,15.866901 L29.2672496,19.1144263 C27.5262539,28.5358692 24.233644,37.603032 19.5236328,45.9463195 C11.486056,44.2750843 5.00558451,38.3428358 2.63226012,30.4838919 Z M39.8561264,39.8561753 C35.6732281,44.0619583 29.9815895,46.4195108 24.049896,46.4034092 C23.0966019,46.4034092 22.1442561,46.3432206 21.1985124,46.2234761 C25.844365,37.865819 29.0997784,28.8080904 30.8372208,19.4051296 L31.4564867,16.0609058 C32.5553921,16.0107217 33.6031765,15.5822558 34.4223787,14.8480765 C39.8349419,20.8340096 42.7124593,28.6873197 42.4485775,36.7531489 C41.67884,37.8628441 40.8112208,38.9013382 39.8561264,39.8561753 L39.8561264,39.8561753 Z" id="Shape"></path>
                    <path d="M4.95023401,22.5162262 C5.32083117,17.8570764 7.38526511,13.4950633 10.7533781,10.2545643 L9.64513996,9.10510304 C5.99619014,12.6161791 3.75979476,17.3422929 3.35862786,22.3902187 L4.95023401,22.5162262 Z" id="Path"></path>
                    <path d="M14.0872516,7.6802395 L13.2557838,6.31716125 C12.6862703,6.66453755 12.1269835,7.04396807 11.5933292,7.44488981 L12.552464,8.72143035 C13.0450887,8.35125356 13.5614929,8.00095834 14.0872516,7.6802395 Z" id="Path"></path>
                </g>
            </g>
        </g>
    </g>
</svg>