<?xml version="1.0" encoding="UTF-8"?>
<svg width="20px" height="30px" viewBox="0 0 20 30" version="1.1" xmlns="http://www.w3.org/2000/svg" xmlns:xlink="http://www.w3.org/1999/xlink">
    <title>booking</title>
    <g id="Page-1" stroke="none" stroke-width="1" fill="none" fill-rule="evenodd">
        <g id="booking" fill-rule="nonzero">
            <g id="Group" transform="translate(0.000000, 4.247788)" fill="#000000">
                <path d="M15.3982301,23.0973451 L6.54867257,23.0973451 L6.54867257,21.3274336 L15.3982301,21.3274336 L15.3982301,23.0973451 Z M14.619469,13.1622419 C15.0619469,13.2153392 15.3923304,13.5929204 15.3923304,14.0412979 L15.3923304,19.5634218 L5.98230088,19.5634218 L2.04719764,16.259587 C1.69911504,15.9646018 1.67551622,15.4926254 2,15.1681416 C2.35988201,14.8082596 3.02654867,14.7787611 3.4159292,15.1091445 L5.09144543,16.5132743 C5.66371681,16.9911504 6.54867257,16.5781711 6.54867257,15.8289086 L6.54867257,4.51327434 C6.54867257,4.02359882 6.9439528,3.62831858 7.43362832,3.62831858 C7.92330383,3.62831858 8.31858407,4.02359882 8.31858407,4.51327434 L8.31858407,11.5929204 C8.31858407,12.0412979 8.64896755,12.4129794 9.09144543,12.4719764 L14.619469,13.1622419 Z M4.77876106,7.14454277 L4.77876106,8.91445428 L4.77876106,13.9351032 L4.56047198,13.7522124 C3.46902655,12.8377581 1.75811209,12.9085546 0.755162242,13.9174041 C-0.300884956,14.9734513 -0.230088496,16.6489676 0.914454277,17.6165192 L4.77876106,20.8613569 L4.77876106,23.9882006 C4.77876106,24.4778761 5.1740413,24.8731563 5.66371681,24.8731563 L16.2831858,24.8731563 C16.7728614,24.8731563 17.1681416,24.4778761 17.1681416,23.9882006 L17.1681416,14.0353982 C17.1681416,12.6961652 16.1651917,11.5634218 14.8436578,11.3982301 L10.0884956,10.8082596 L10.0884956,8.90855457 L10.0884956,7.13864307 L10.0884956,4.50737463 C10.0884956,3.04424779 8.89675516,1.85250737 7.43362832,1.85250737 C5.97050147,1.85250737 4.77876106,3.04424779 4.77876106,4.50737463 L4.77876106,7.14454277" id="Shape"></path>
                <path d="M15.2271386,0.289085546 L12.3126844,3.20353982 L11.1681416,2.05899705 C10.820059,1.71091445 10.259587,1.71091445 9.91740413,2.05899705 C9.57522124,2.40707965 9.56932153,2.96755162 9.91740413,3.30973451 L11.6873156,5.07964602 C12.0353982,5.42772861 12.5958702,5.42772861 12.9380531,5.07964602 L16.4778761,1.53982301 C16.8259587,1.19174041 16.8259587,0.631268437 16.4778761,0.289085546 C16.1356932,-0.0589970501 15.5752212,-0.0589970501 15.2271386,0.289085546 L15.2271386,0.289085546 Z" id="Path"></path>
            </g>
            <path d="M6.53097345,6.74336283 C6.53097345,3.03244838 9.55162242,0.017699115 13.2566372,0.017699115 C16.9616519,0.017699115 19.9823009,3.03834808 19.9823009,6.74336283 C19.9823009,10.4542773 16.9616519,13.4690265 13.2566372,13.4690265 C11.9587021,13.4690265 10.7433628,13.0973451 9.71681416,12.460177 L10.0235988,10.4955752 C10.8908555,11.2448378 12.0235988,11.699115 13.2566372,11.699115 C15.9882006,11.699115 18.2123894,9.47492625 18.2123894,6.74336283 C18.2123894,4.01179941 15.9882006,1.78761062 13.2566372,1.78761062 C10.5250737,1.78761062 8.30088496,4.01179941 8.30088496,6.74336283 L6.53097345,6.74336283 L6.53097345,6.74336283 Z" id="Path" fill="#212237"></path>
        </g>
    </g>
</svg>