<?xml version="1.0" encoding="UTF-8"?>
<svg width="69px" height="51px" viewBox="0 0 69 51" version="1.1" xmlns="http://www.w3.org/2000/svg" xmlns:xlink="http://www.w3.org/1999/xlink">
    <title>High ropes course &amp; zip line</title>
    <g id="V2-Pages" stroke="none" stroke-width="1" fill="none" fill-rule="evenodd">
        <g id="Artboard-Copy" transform="translate(-1037.000000, -608.000000)" fill="#DB7112" fill-rule="nonzero">
            <g id="zip-line" transform="translate(1037.000000, 608.000000)">
                <path d="M68.9515563,0.825852273 C68.8639216,0.531382172 68.6638083,0.284064971 68.3952447,0.138314805 C68.126681,-0.00743536052 67.8116697,-0.0396776462 67.5195188,0.0486818182 L54.4330938,4.00552841 C47.9666649,5.96165273 41.2513952,6.95514853 34.5,6.95454545 C32.97625,6.95454545 31.4364,6.8999233 29.9104938,6.79806818 L29.8409188,6.58798295 C29.6843865,6.11471107 29.2449635,5.79547993 28.75,5.79545455 L24.15,5.79545455 C23.8860608,5.79558425 23.6302172,5.88732115 23.4255,6.0552358 C20.4314925,5.56727003 17.4723228,4.88262375 14.5669063,4.0056733 L1.480625,0.0488267045 C0.872252282,-0.135215912 0.231042895,0.212670284 0.04844375,0.825852273 C-0.134155395,1.43903426 0.211002282,2.0853125 0.819375,2.26935511 L13.9059438,6.2262017 C16.6433087,7.05292207 19.4271224,7.7144868 22.2425813,8.20737784 L21.971325,8.75432386 C21.8094188,9.08066288 21.8094188,9.46479167 21.971325,9.79113068 L23,11.8645994 L23,18.1945398 L19.55,23.4104489 L19.55,22.0227273 C20.1851275,22.0227273 20.7,21.5037846 20.7,20.8636364 L20.7,18.5454545 C20.7,15.3447134 18.1256373,12.75 14.95,12.75 C11.7743627,12.75 9.2,15.3447134 9.2,18.5454545 L9.2,20.8636364 C9.2,21.5037846 9.71487254,22.0227273 10.35,22.0227273 L10.35,24.3409091 C10.3519178,25.8679295 11.0985521,27.2964055 12.346975,28.1615625 C11.9842941,28.5532487 11.6537801,28.9739817 11.3586938,29.4196108 L11.3586938,29.4196108 C10.7083231,30.4026672 10.5003064,31.6169186 10.7859509,32.7628716 C11.0715953,33.9088245 11.8243095,34.8797994 12.8584375,35.4363068 C12.896673,35.4920028 12.9396748,35.5442165 12.98695,35.5923494 L21.652775,44.3265341 C22.9438495,45.6350921 24.700689,46.3686345 26.53165,46.3636364 L26.58915,46.3636364 C28.2604966,46.3637733 29.8750586,45.7523421 31.1328,44.6429659 L37.8971,38.6772699 L45.186375,46.0241676 L49.786375,50.6605312 C50.0020435,50.8779159 50.2945595,51.0000422 50.5995688,51.0000422 C50.904578,51.0000422 51.197094,50.8779159 51.4127625,50.6605312 L58.3127625,43.7059858 C58.5284422,43.4886124 58.6496107,43.193784 58.6496107,42.8863636 C58.6496107,42.5789433 58.5284422,42.2841149 58.3127625,42.0667415 L56.8033875,40.5454347 L58.5910625,35.1398693 C58.728849,34.7233704 58.6213315,34.264155 58.3133375,33.9536847 L56.0133375,31.6355028 C55.663361,31.2826221 55.1286024,31.195077 54.6858063,31.4181733 L50.5584563,33.4977273 L41.303975,29.577392 C40.3591884,28.7253765 39.1979362,28.154959 37.95,27.9298892 L37.95,24.3409091 C37.9500367,23.8419795 37.6332976,23.3990081 37.1636875,23.2412216 L34.6768125,22.4058068 C34.6768125,22.4058068 35.65,17.4625739 35.65,17.3863636 L35.65,9.26215057 C42.2390118,9.15668292 48.7820524,8.13510926 55.0939125,6.22634659 L68.180625,2.26935511 C68.4727919,2.1809989 68.7181613,1.97926832 68.862743,1.70855153 C69.0073246,1.43783473 69.0392723,1.12031282 68.9515563,0.825852273 Z M33.35,9.26142614 L33.35,17.2716136 L33.0556,18.75525 L30.6108438,11.5909091 L30.9285313,10.9503665 C31.0649471,10.6753905 31.0873888,10.3570549 30.9909188,10.0654006 L30.6943625,9.1682642 C31.579,9.21559375 32.4642125,9.24664773 33.35,9.26142614 Z M16.3968438,35.7508551 C17.6804511,35.4547159 18.8547065,34.7985007 19.7838813,33.8580597 L22.9046938,30.7125767 L26.059,34.6866648 L20.7,40.0880284 L16.3968438,35.7508551 Z M13.2722938,30.7054773 C13.775773,29.9432064 14.413468,29.2802882 15.1538375,28.7495114 C15.1740583,28.7357955 15.1938479,28.7213068 15.2132063,28.7060455 C15.6804522,28.3782436 16.1832839,28.1052505 16.7119438,27.8923636 L19.2729938,26.8597585 L21.3736125,28.9772727 L18.1574938,32.2188153 C17.2733331,33.114834 16.0702639,33.6170931 14.8164563,33.6136541 C14.1319782,33.6137244 13.5030307,33.2340278 13.1800826,32.625755 C12.8571344,32.0174821 12.8926314,31.279415 13.2724375,30.7054773 L13.2722938,30.7054773 Z M24.4416688,28.9378636 L29.6858125,21.537358 C29.8251233,21.3407692 29.9000084,21.1052201 29.9,20.8636364 L29.9,16.6351278 L31.9350688,22.5990852 L30.5356625,23.3042472 C30.1460965,23.5005899 29.9000148,23.901909 29.9,24.3409091 L29.9,26.2523949 L26.105,31.0336449 L24.4416688,28.9378636 Z M25.1070875,19.1886051 C25.2329828,18.9981209 25.3001077,18.7743332 25.3,18.5454545 L25.3,11.5909091 C25.3000195,11.4109431 25.2584302,11.2334485 25.1785313,11.0725057 L24.2857,9.27272727 L24.8607,8.11363636 L27.9211375,8.11363636 L27.9704438,8.26257955 C27.9718813,8.26721591 27.9733188,8.27170739 27.9749,8.27619886 L28.6584313,10.342858 L27.7214688,12.2315966 C27.6415698,12.3925394 27.5999805,12.570034 27.6,12.75 L27.6,20.4922926 L22.8532313,27.1900994 L21.0297625,25.3522159 L25.1070875,19.1886051 Z M11.5,18.5454545 C11.5,16.6250098 13.0446176,15.0681818 14.95,15.0681818 C16.8553824,15.0681818 18.4,16.6250098 18.4,18.5454545 L18.4,19.7045455 L11.5,19.7045455 L11.5,18.5454545 Z M17.25,22.0227273 L17.25,24.3409091 C17.2499502,24.6547111 17.1867179,24.9652392 17.0641313,25.2536932 L15.8577813,25.7399318 C15.3055354,25.9626342 14.7745383,26.2355175 14.2713563,26.5552074 C13.3084001,26.2542128 12.6514987,25.3570777 12.65,24.3409091 L12.65,22.0227273 L17.25,22.0227273 Z M37.192725,36.2185483 L29.6185375,42.8978097 C28.7801796,43.6375916 27.703839,44.045472 26.5895813,44.045472 L26.5320813,44.045472 C25.3114256,44.0488392 24.1401708,43.5598237 23.27945,42.6874347 L22.3263875,41.7272727 L28.37625,35.6291506 L33.6375,31.2109858 C34.4643586,30.5173132 35.5059818,30.1371358 36.5817875,30.1363462 L36.71835,30.1363462 C37.9390056,30.1329789 39.1102605,30.6219945 39.9709813,31.4943835 L48.9736125,40.5681818 L46,43.5653011 L38.7631938,36.2712869 C38.3350949,35.8397766 37.6483714,35.8167154 37.192725,36.2185483 L37.192725,36.2185483 Z M50.6,48.2018097 L47.6263875,45.2045455 L51.2212875,41.5812273 L53.7393563,40.7352358 L55.8737563,42.8863636 L50.6,48.2018097 Z M54.972875,33.8648693 L56.1842563,35.0858267 L54.984375,38.7121875 L54.8626188,38.5894688 C54.5546145,38.2789888 54.0989966,38.1705643 53.6857375,38.3094034 L51.75,38.9599432 L51.75,35.4890455 L54.972875,33.8648693 Z M49.45,37.7698466 L45.6384688,33.9281847 L49.45,35.5427983 L49.45,37.7698466 Z M35.65,27.8828011 C34.3673516,28.0595502 33.1596968,28.5956871 32.1644938,29.4301875 L27.7657438,33.1247898 L27.5788688,32.8887699 L31.9488688,27.3830881 C32.1116673,27.1774713 32.2002286,26.9221542 32.2,26.6590909 L32.2,25.0572273 L33.4382625,24.4333466 L35.65,25.1763239 L35.65,27.8828011 Z" id="Shape"></path>
            </g>
        </g>
    </g>
</svg>