<?xml version="1.0" encoding="UTF-8"?>
<svg width="61px" height="61px" viewBox="0 0 61 61" version="1.1" xmlns="http://www.w3.org/2000/svg" xmlns:xlink="http://www.w3.org/1999/xlink">
    <title>Playgrounds </title>
    <g id="V2-Pages" stroke="none" stroke-width="1" fill="none" fill-rule="evenodd">
        <g id="Artboard-Copy" transform="translate(-944.000000, -598.000000)" fill="#E75D51" fill-rule="nonzero">
            <g id="swing" transform="translate(944.000000, 598.000000)">
                <path d="M58.9028867,54.3987754 L58.5527324,54.3987754 L56.9518398,19.9443789 C56.9288457,19.4514941 56.5091133,19.0691719 56.0177773,19.0932383 C55.5247734,19.1161133 55.1436426,19.5342969 55.1665176,20.0273008 L56.7635977,54.3987754 L53.4977148,54.3987754 L51.2450039,5.90723047 C51.2227246,5.43042969 50.8297988,5.05513672 50.3524023,5.05513672 L43.6091621,5.05513672 L43.6091621,1.78710937 L52.1847852,1.78710937 C53.3819102,1.78710937 54.3630332,2.72367383 54.4184336,3.91948828 L54.9736289,15.8633359 C54.996623,16.3563398 55.4101602,16.7389004 55.9078105,16.7144766 C56.4008145,16.6916016 56.7818262,16.273418 56.7589512,15.7804141 L56.2037559,3.83656641 C56.1037969,1.68524414 54.3384902,0 52.1847852,0 L8.81521484,0 C6.66139063,0 4.89608398,1.68524414 4.79636328,3.83656641 L2.44726758,54.3987754 L2.09711328,54.3987754 C0.940734375,54.3987754 0,55.3396289 0,56.4958887 L0,58.9028867 C0,60.0592656 0.940734375,61 2.09711328,61 L9.31822656,61 C10.4746055,61 11.4153398,60.0592656 11.4153398,58.9028867 L11.4153398,56.4958887 C11.4153398,55.3395098 10.4746055,54.3987754 9.31822656,54.3987754 L9.29141992,54.3987754 L10.128502,36.3841172 C10.151377,35.8911133 9.77036523,35.4729297 9.27736133,35.4500547 C8.78662109,35.4262266 8.36629297,35.8081914 8.34329883,36.3011953 L7.50228516,54.3987754 L4.23616406,54.3987754 L6.58156641,3.91936914 C6.6369668,2.72367383 7.61808984,1.78710937 8.81521484,1.78710937 L17.3907188,1.78710937 L17.3907188,5.05513672 L10.6475977,5.05513672 C10.1702012,5.05513672 9.77715625,5.43031055 9.75499609,5.90723047 L8.53630664,32.1360391 C8.51343164,32.629043 8.89444336,33.0472266 9.38744727,33.0701016 C9.88104688,33.0955977 10.2986348,32.7119648 10.3215098,32.2189609 L11.5006445,6.84224609 L19.918168,6.84224609 L19.918168,43.5673437 L18.4644141,43.5673437 C17.3081543,43.5673437 16.3675391,44.507959 16.3675391,45.6642187 L16.3675391,48.3115234 C16.3675391,49.4683789 17.3082734,50.4095898 18.4644141,50.4095898 L26.3300781,50.4095898 C26.8235586,50.4095898 27.2236328,50.0095156 27.2236328,49.5160352 C27.2236328,49.0225547 26.8235586,48.6224805 26.3300781,48.6224805 L18.4644141,48.6224805 C18.2935664,48.6224805 18.1546484,48.4829668 18.1546484,48.3115234 L18.1546484,45.6642187 C18.1546484,45.4933711 18.2936855,45.3544531 18.4644141,45.3544531 L40.1269199,45.3544531 L40.1276348,45.3544531 L40.1285879,45.3544531 L42.5355859,45.3544531 C42.7064336,45.3544531 42.8454707,45.4933711 42.8454707,45.6642187 L42.8454707,48.3115234 C42.8454707,48.4829668 42.7064336,48.6224805 42.5355859,48.6224805 L30.5,48.6224805 C30.0065195,48.6224805 29.6064453,49.0225547 29.6064453,49.5160352 C29.6064453,50.0095156 30.0065195,50.4095898 30.5,50.4095898 L42.5355859,50.4095898 C43.6918457,50.4095898 44.6325801,49.4683789 44.6325801,48.3115234 L44.6325801,45.6642187 C44.6325801,44.507959 43.6918457,43.5673437 42.5355859,43.5673437 L41.0819512,43.5673437 L41.0819512,6.84224609 L49.4993555,6.84224609 L51.7086992,54.3987754 L51.6820117,54.3987754 C50.5256328,54.3987754 49.5847793,55.3395098 49.5847793,56.4958887 L49.5847793,58.9028867 C49.5847793,60.0592656 50.5255137,61 51.6820117,61 L58.9030059,61 C60.0592656,61 61.0001191,60.0592656 61.0001191,58.9028867 L61.0001191,56.4958887 C61.0001191,55.3396289 60.0592656,54.3987754 58.9028867,54.3987754 L58.9028867,54.3987754 Z M9.62811133,56.4958887 L9.62811133,58.9028867 C9.62811133,59.0738535 9.48907422,59.2128906 9.31810742,59.2128906 L2.09699414,59.2128906 C1.92602734,59.2128906 1.78699023,59.0738535 1.78699023,58.9028867 L1.78699023,56.4958887 C1.78699023,56.3249219 1.92602734,56.1858848 2.09699414,56.1858848 L9.31810742,56.1858848 C9.48907422,56.1858848 9.62811133,56.325041 9.62811133,56.4958887 Z M41.8220527,5.05513672 L38.5543828,5.05513672 L38.5543828,1.78710937 L41.8220527,1.78710937 L41.8220527,5.05513672 Z M24.2327266,5.05513672 L24.2327266,1.78710937 L36.7673926,1.78710937 L36.7673926,5.05513672 L24.2327266,5.05513672 Z M19.1778281,1.78710937 L22.445498,1.78710937 L22.445498,5.05513672 L19.1778281,5.05513672 L19.1778281,1.78710937 Z M22.0258848,43.5673437 L24.8808516,32.5280117 C25.0536055,31.8599902 25.6560996,31.3935547 26.346043,31.3935547 L34.6537188,31.3935547 C35.3436621,31.3935547 35.9462754,31.8601094 36.1190293,32.5280117 L38.9741152,43.5673437 L22.0258848,43.5673437 Z M39.2947227,37.6697637 L37.8491895,32.0805195 C37.4725859,30.6237871 36.158584,29.6063262 34.6538379,29.6063262 L26.3461621,29.6063262 C24.841416,29.6063262 23.5274141,30.6237871 23.1506914,32.0805195 L21.7052773,37.6694062 L21.7052773,6.84224609 L39.2947227,6.84224609 L39.2947227,37.6697637 Z M59.2128906,58.9028867 C59.2128906,59.0738535 59.0738535,59.2128906 58.9028867,59.2128906 L51.6818926,59.2128906 C51.5109258,59.2128906 51.3717695,59.0738535 51.3717695,58.9028867 L51.3717695,56.4958887 C51.3717695,56.3249219 51.5109258,56.1858848 51.6818926,56.1858848 L58.9028867,56.1858848 C59.0738535,56.1858848 59.2128906,56.3249219 59.2128906,56.4958887 L59.2128906,58.9028867 Z" id="Shape"></path>
            </g>
        </g>
    </g>
</svg>