<?xml version="1.0" encoding="UTF-8"?>
<svg width="51px" height="55px" viewBox="0 0 51 55" version="1.1" xmlns="http://www.w3.org/2000/svg" xmlns:xlink="http://www.w3.org/1999/xlink">
    <title>Group 23</title>
    <g id="Page-1" stroke="none" stroke-width="1" fill="none" fill-rule="evenodd">
        <g id="Group-23" fill="#FCCB62" fill-rule="nonzero">
            <g id="BMX-track" transform="translate(23.000000, 0.000000)">
                <path d="M17.7132121,28.8558437 C17.7132573,31.1023956 19.1710854,33.0890483 21.3140126,33.7628278 C23.4569397,34.4366073 25.7891994,33.6416347 27.0746376,31.7992648 C28.360076,29.9568948 28.3013066,27.4933598 26.9294788,25.7143929 C25.5576509,23.9354261 23.1901371,23.2525914 21.0817768,24.0278078 L19.2093678,20.2827025 L19.9991642,20.2827025 C20.2050568,20.2827044 20.3950343,20.1719439 20.4964778,19.9927593 C20.5979213,19.8135746 20.5951469,19.5936688 20.4892151,19.417101 L19.0043464,16.942035 L19.2603016,16.6860553 C19.4614063,16.4849299 19.4840281,16.1665197 19.3133785,15.9389775 L14.2842841,10.3297855 L14.2842841,7.06891975 L15.2899601,6.66512481 L16.1661227,7.54137132 C16.3672289,7.74249528 16.6856086,7.76511926 16.913129,7.59445335 L19.1465041,5.91926154 C19.2826383,5.99675293 19.4446532,6.01482308 19.594513,5.96922976 C19.7443728,5.92363648 19.8688787,5.81839528 19.9388008,5.67821338 L20.2431181,5.06959176 C20.8413939,3.87293563 20.7058498,2.43997001 19.8938117,1.37674087 C19.0817735,0.313511745 17.7350809,-0.194265491 16.4232923,0.0681640342 L15.3151771,0.289636851 C15.1486833,0.322934564 15.0056148,0.428547692 14.9247431,0.577855216 C14.8438713,0.727162741 14.833571,0.90470294 14.8966335,1.06236265 L15.3543954,2.20694846 L13.1517378,3.08826738 C12.3213373,2.76123495 11.3893817,2.8143119 10.6014726,3.23351068 L4.59756249,6.43622195 C2.55659664,7.52488959 1.5183718,9.86301178 2.07937204,12.1072834 C2.07937204,12.1072834 2.32225444,13.059045 2.32418321,13.0636888 C2.33282697,13.0855503 7.46000301,19.9461352 7.46000301,19.9461352 L8.34973839,24.83997 C6.55767353,23.4087456 4.03445865,23.3376578 2.16467008,24.6657151 C0.294881507,25.9937723 -0.469262593,28.3997771 0.291550399,30.5634702 C1.05236339,32.7271633 3.15412687,34.1252444 5.44352964,33.9905373 C7.73293242,33.8558303 9.6562704,32.2209147 10.1581407,29.982926 C10.2595448,30.0080262 10.3660409,30.0032876 10.4648155,29.9692804 L15.6082075,28.2546522 C15.9076342,28.154844 16.0694671,27.8311792 15.9696737,27.5317221 L15.6701425,26.6335426 C15.5925617,26.401342 15.4730478,26.185344 15.3175344,25.9962724 L19.4205326,23.2606545 L20.0610277,24.5416247 C18.5979496,25.4888612 17.7142052,27.1127821 17.7132121,28.8558437 Z M18.9535554,19.139617 L18.308917,19.139617 C18.1465072,19.1362337 17.989665,19.1988477 17.8742289,19.3131516 C17.7054068,19.487602 17.665059,19.7496159 17.7735756,19.9667822 L18.2847002,20.9892007 C18.2873671,20.9945099 18.2875911,21.0007172 18.2853139,21.0062049 C18.2830367,21.0116926 18.2784839,21.0159172 18.2728418,21.0177779 L12.0253349,23.1004797 C12.019084,23.1025697 12.0122094,23.1015403 12.0068594,23.0976767 C12.0015094,23.0938266 11.9983365,23.0876389 11.9983321,23.0810472 L11.9983321,19.1617642 C11.998292,18.6697 11.8645889,18.1868902 11.6115062,17.7649137 L8.5332575,12.6340315 C8.53221215,12.6322949 8.53141845,12.6304187 8.5309001,12.628459 L8.37831279,12.0180514 C8.20531033,11.3260409 8.5136319,10.6034024 9.13289128,10.2494837 L10.8246386,9.28271916 C10.8309848,9.27907186 10.8387939,9.27908474 10.8451279,9.28275296 C10.851462,9.28642123 10.8553603,9.29318833 10.8553561,9.30050847 L10.8553561,11.7095612 C10.8553561,11.8894584 10.9400473,12.058857 11.0839513,12.1667953 L15.544058,15.512178 C15.5466084,15.5140565 15.5486872,15.5165023 15.5501301,15.5193223 L15.9966051,16.4123578 C15.9980198,16.4151983 15.9987535,16.4183292 15.9987482,16.4215025 L15.9987482,17.4043417 C15.9987103,17.561387 16.0610637,17.7120132 16.1720875,17.8230744 C16.2831113,17.9341357 16.433708,17.9965314 16.5907383,17.9965314 L17.7047113,17.9965314 C17.8617198,17.9965393 18.0123005,17.9341682 18.1233262,17.8231397 L18.1526864,17.7937766 C18.1571578,17.7893178 18.1634342,17.7871683 18.1696999,17.7879498 C18.1759657,17.7887314 18.1815219,17.7923568 18.1847612,17.7977774 L18.9711287,19.1085393 C18.974941,19.1148739 18.9750481,19.1227705 18.9714089,19.1292061 C18.9677698,19.1356417 18.9609481,19.1396196 18.9535554,19.139617 L18.9535554,19.139617 Z M13.1413082,6.56567639 L13.1413082,8.28030461 L11.9983321,8.28030461 L11.9983321,6.56567639 C11.9983321,6.25002201 12.254196,5.99413362 12.5698201,5.99413362 C12.8854443,5.99413362 13.1413082,6.25002201 13.1413082,6.56567639 Z M17.4765447,16.8534459 L17.1417242,16.8534459 L17.1417242,16.2819032 C17.1417339,16.1931627 17.1210662,16.1056409 17.0813607,16.0262807 L16.6941062,15.2516974 L17.0798606,14.865906 L18.1013954,16.2283925 L17.4765447,16.8534459 Z M16.3335687,13.9957321 L15.9451712,14.3841669 L11.9983321,11.4237898 L11.9983321,9.42339016 L13.1413082,9.42339016 L13.1413082,10.5664757 C13.1413026,10.7180603 13.2015091,10.8634385 13.3086827,10.9706278 L16.3335687,13.9957321 Z M16.623956,6.38256838 L16.1226896,5.88125394 L16.8054749,4.51562396 L18.0874653,5.28484909 L16.623956,6.38256838 Z M16.6476013,1.18903081 C17.5311893,1.01250032 18.4381662,1.35463571 18.9850756,2.07078719 C19.5319851,2.78693866 19.623338,3.75206787 19.2205118,4.55813246 L19.1919374,4.61471519 L17.0293553,3.31695593 L16.2130561,1.27590531 L16.6476013,1.18903081 Z M15.9443854,3.68195742 L15.0129314,5.54454378 L14.1465555,5.89232759 L13.7884469,4.06453385 L15.7787253,3.26837479 L15.9443854,3.68195742 Z M3.35021848,9.43674995 C3.692107,8.58330906 4.32419356,7.87791832 5.13511838,7.44485199 L11.1396714,4.24214076 C11.5995349,3.99734069 12.1395515,3.95146587 12.6341125,4.11518682 L12.7809135,4.86447938 C12.2930212,4.80291014 11.8022234,4.95422143 11.4336735,5.27982894 C11.0651236,5.60543646 10.8544433,6.07386904 10.8553561,6.56567639 L10.8553561,7.94866693 L8.55254523,9.26471559 C7.49914506,9.87038384 6.97421165,11.100553 7.26576853,12.2802466 L7.26576853,12.2811039 L3.30071334,12.2811039 L3.18798733,11.8300852 C2.98761265,11.0352137 3.0444625,10.1972671 3.35036136,9.43674995 L3.35021848,9.43674995 Z M3.99750008,13.4241894 L7.67438248,13.4241894 L10.6314043,18.3531026 C10.7779513,18.5973787 10.8553561,18.8768942 10.8553561,19.1617642 L10.8553561,24.9803552 L9.59408212,25.2957039 L8.56018885,19.6088535 C8.54430747,19.5215782 8.50833071,19.439198 8.45510652,19.368234 L3.99750008,13.4241894 Z M5.14047608,32.8566459 C3.37385442,32.8581492 1.81541001,31.700566 1.30633899,30.0087181 C0.797267968,28.3168701 1.45811672,26.4913816 2.93218119,25.51759 C4.40624567,24.5437985 6.34447216,24.6522946 7.70067092,25.7845159 L6.82586563,26.5500974 C5.64098907,25.6842343 3.99300132,25.8563298 3.01253908,26.9483143 C2.03207684,28.0402987 2.03768413,29.6973954 3.02551394,30.7827183 C4.01334376,31.8680412 5.66245842,32.0289778 6.84144811,31.1551143 C8.0204378,30.2812508 8.34625857,28.6564981 7.59537424,27.395552 L8.46546474,26.6341141 C9.28650218,27.8610422 9.36474619,29.4405904 8.66898481,30.7426686 C7.97322348,32.0447467 6.61667589,32.8574716 5.14047608,32.8566459 L5.14047608,32.8566459 Z M6.85494165,28.8558437 C6.85567193,29.6258112 6.34366086,30.3020668 5.60241599,30.5101563 C4.86117113,30.7182459 4.07206312,30.4072532 3.67203439,29.7493803 C3.27200567,29.0915073 3.35893676,28.2477249 3.88469245,27.6852496 C4.41044815,27.1227744 5.2463846,26.9792348 5.92962959,27.3341111 C5.92962959,27.3341111 5.28177648,27.9062969 5.25934559,27.9352313 C4.86160203,27.8813742 4.47384192,28.0873171 4.29570625,28.4470287 C4.11757059,28.8067403 4.18877823,29.2400158 4.47266742,29.5237803 C4.75655661,29.8075449 5.18982868,29.8785275 5.54941046,29.7001823 C5.90899218,29.5218372 6.11470786,29.1339297 6.06064321,28.736177 C6.06992988,28.7290327 6.71071083,28.1691351 6.71071083,28.1691351 C6.80590514,28.3855515 6.8550229,28.6194125 6.85494165,28.8558437 L6.85494165,28.8558437 Z M10.6453343,28.7044563 L9.87818306,26.4029251 L11.4502037,26.0099895 L13.913317,26.4205715 C14.2267157,26.4723516 14.4855944,26.6935929 14.5856012,26.9951149 L14.7043992,27.3513289 L10.6453343,28.7044563 Z M14.2607817,25.3269244 C14.2082762,25.3137075 11.9983321,24.9424191 11.9983321,24.9424191 L11.9983321,24.3144365 L18.8116121,22.0431256 L18.9052647,22.2303058 L14.2607817,25.3269244 Z M22.8566042,24.855036 C24.8356964,24.8521871 26.5203197,26.2950594 26.8218266,28.2512395 C27.1233334,30.2074198 25.9513658,32.0906639 24.0632798,32.6839705 C22.1751937,33.2772771 20.1368262,32.4028393 19.2654235,30.6257415 C18.3940208,28.8486437 18.9507318,26.7014611 20.5757956,25.5717591 L21.094278,26.6088949 C19.9467559,27.513171 19.6699998,29.1394093 20.4537942,30.3724233 C21.2375887,31.6054373 22.8274494,32.0448892 24.1331358,31.3894266 C25.4388223,30.733964 26.0364011,29.196404 25.5160851,27.8311222 C24.995769,26.4658405 23.5264954,25.7161198 22.1158128,26.0960781 L21.5974018,25.0592281 C22.003445,24.9239667 22.4286285,24.855036 22.8566042,24.855036 L22.8566042,24.855036 Z M21.6231902,27.666749 L22.0185885,28.4576213 C21.8488227,28.8155561 21.924924,29.2417965 22.2080617,29.5188542 C22.4911994,29.7959118 22.9189568,29.86271 23.2730713,29.6851653 C23.6271858,29.5076205 23.829594,29.1248719 23.7770175,28.7322163 C23.7244409,28.3395607 23.4284699,28.0235578 23.0401233,27.9454476 L22.6447965,27.1547182 C23.4749116,27.0501979 24.2595463,27.5591201 24.5026781,28.3597594 C24.7458099,29.1603986 24.3766826,30.0197533 23.6286474,30.394565 C22.8806123,30.7693767 21.9713621,30.5505679 21.4756978,29.876463 C20.9800335,29.2023582 21.0422029,28.2691349 21.6229045,27.666749 L21.6231902,27.666749 Z" id="Shape"></path>
            </g>
            <g id="route" transform="translate(0.000000, 27.000000)">
                <path d="M6.81293333,13.0604444 L6.75496667,14.3048889 C6.86103333,14.3098667 6.96771667,14.3123556 7.07316667,14.3123556 L8.01666667,14.3123556 L8.01666667,13.0666667 L7.09166667,13.0666667 C6.99793333,13.0666667 6.90666667,13.0666667 6.81293333,13.0604444 Z" id="Path"></path>
                <polygon id="Path" points="10.83545 26.7555556 12.0687833 26.7555556 12.0687833 28 10.83545 28"></polygon>
                <path d="M4.14523333,13.6658667 C4.55524566,13.8551241 4.98228559,14.0043094 5.4205,14.1113778 L5.70971667,12.9011556 C5.34951073,12.8129295 4.99847411,12.6902099 4.66138333,12.5346667 L4.14523333,13.6658667 Z" id="Path"></path>
                <polygon id="Path" points="13.3021167 26.7555556 14.53545 26.7555556 14.53545 28 13.3021167 28"></polygon>
                <polygon id="Path" points="3.43545 26.7555556 4.66878333 26.7555556 4.66878333 28 3.43545 28"></polygon>
                <polygon id="Path" points="8.36878333 26.7555556 9.60211667 26.7555556 9.60211667 28 8.36878333 28"></polygon>
                <polygon id="Path" points="11.7166667 13.0666667 12.95 13.0666667 12.95 14.3111111 11.7166667 14.3111111"></polygon>
                <polygon id="Path" points="9.25 13.0666667 10.4833333 13.0666667 10.4833333 14.3111111 9.25 14.3111111"></polygon>
                <polygon id="Path" points="5.90211667 26.7555556 7.13545 26.7555556 7.13545 28 5.90211667 28"></polygon>
                <polygon id="Path" points="8.01666667 0 9.25 0 9.25 1.24444444 8.01666667 1.24444444"></polygon>
                <path d="M2.85208333,11.2348444 L1.95976667,12.0941333 C2.27081201,12.4228121 2.61190168,12.7211418 2.9785,12.9851556 L3.69445,11.9721778 C3.39121583,11.7537909 3.10916701,11.5069103 2.85208333,11.2348444 L2.85208333,11.2348444 Z" id="Path"></path>
                <polygon id="Path" points="10.4833333 0 11.7166667 0 11.7166667 1.24444444 10.4833333 1.24444444"></polygon>
                <path d="M6.81231667,1.25128889 L6.75496667,0.00684444444 C6.30490217,0.0280583669 5.85785948,0.0924374253 5.41988333,0.199111111 L5.70971667,1.40871111 C6.07147973,1.32112258 6.44067181,1.26841168 6.81231667,1.25128889 L6.81231667,1.25128889 Z" id="Path"></path>
                <polygon id="Path" points="15.4166667 0 16.65 0 16.65 1.24444444 15.4166667 1.24444444"></polygon>
                <polygon id="Path" points="12.95 0 14.1833333 0 14.1833333 1.24444444 12.95 1.24444444"></polygon>
                <path d="M4.6583,1.77706667 L4.14523333,0.645244444 C3.73572767,0.834525531 3.34487234,1.06244309 2.97788333,1.32595556 L3.69383333,2.33955556 C3.99676654,2.12138782 4.31973318,1.93302968 4.6583,1.77706667 L4.6583,1.77706667 Z" id="Path"></path>
                <path d="M2.16203333,10.3512889 C1.96087518,10.0365576 1.78990222,9.70319861 1.65143333,9.35573333 L0.506283333,9.81804444 C0.673304825,10.2400882 0.879793122,10.6451178 1.12295,11.0276444 L2.16203333,10.3512889 Z" id="Path"></path>
                <polygon id="Path" points="0.968783333 26.7555556 2.20211667 26.7555556 2.20211667 28 0.968783333 28"></polygon>
                <path d="M2.85146667,3.07688889 L1.95915,2.2176 C1.64821447,2.54655243 1.36885074,2.90447611 1.1248,3.28657778 L2.16203333,3.96044444 C2.36339638,3.64441775 2.59425899,3.34855167 2.85146667,3.07688889 L2.85146667,3.07688889 Z" id="Path"></path>
                <path d="M1.65081667,4.95848889 L0.506283333,4.49617778 C0.338270636,4.91832832 0.211258616,5.3559351 0.127033333,5.80284444 L1.33755,6.0368 C1.40815958,5.66822919 1.51304577,5.30719512 1.65081667,4.95848889 L1.65081667,4.95848889 Z" id="Path"></path>
                <path d="M1.23333333,7.15555556 L-1.1302026e-06,7.15555556 C-0.000253929684,7.60991524 0.0422816871,8.06327133 0.127033333,8.50951111 L1.33816667,8.27555556 C1.26817938,7.90641011 1.2330775,7.53139484 1.23333333,7.15555556 Z" id="Path"></path>
                <path d="M33.2636167,15.5275556 C33.5649208,15.7520146 33.8454206,16.0035939 34.1016667,16.2792 L35.002,15.428 C34.6954524,15.0978893 34.3598423,14.7965345 33.9993,14.5276444 L33.2636167,15.5275556 Z" id="Path"></path>
                <path d="M28.9833333,13.0666667 L28.9833333,14.3111111 L29.6,14.3111111 C29.7887,14.3111111 29.9753444,14.3196148 30.1599333,14.3366222 L30.27155,13.0971556 C30.0501667,13.0772444 29.8263167,13.0666667 29.6,13.0666667 L28.9833333,13.0666667 Z" id="Path"></path>
                <path d="M30.47875,26.6933333 L30.65265,27.9253333 C31.0969303,27.862136 31.5345374,27.757997 31.9599833,27.6142222 L31.56655,26.4351111 C31.2125099,26.5544659 30.8483935,26.6408999 30.47875,26.6933333 L30.47875,26.6933333 Z" id="Path"></path>
                <polygon id="Path" points="26.5166667 13.0666667 27.75 13.0666667 27.75 14.3111111 26.5166667 14.3111111"></polygon>
                <path d="M31.59245,13.3404444 L31.2613,14.5394667 C31.6221698,14.640624 31.9730841,14.7749644 32.3096333,14.9408 L32.8523,13.8208 C32.4477797,13.6221733 32.0260651,13.461382 31.59245,13.3404444 L31.59245,13.3404444 Z" id="Path"></path>
                <polygon id="Path" points="28.1021167 26.7555556 29.33545 26.7555556 29.33545 28 28.1021167 28"></polygon>
                <path d="M35.6353167,19.2496889 C35.7117759,19.6183331 35.7551183,19.9931857 35.7648167,20.3696889 L36.99815,20.3379556 C36.9869814,19.8855013 36.9349662,19.4350157 36.84275,18.9920889 L35.6353167,19.2496889 Z" id="Path"></path>
                <path d="M35.4207167,22.5947556 L36.5849833,23.0060444 C36.7328844,22.5785996 36.842272,22.1385648 36.9118167,21.6912889 L35.6926667,21.4996444 C35.6354298,21.8723113 35.5443976,22.2388875 35.4207167,22.5947556 L35.4207167,22.5947556 Z" id="Path"></path>
                <polygon id="Path" points="25.63545 26.7555556 26.8687833 26.7555556 26.8687833 28 25.63545 28"></polygon>
                <polygon id="Path" points="14.1833333 13.0666667 15.4166667 13.0666667 15.4166667 14.3111111 14.1833333 14.3111111"></polygon>
                <path d="M32.5902167,25.9765333 L33.1896167,27.0641778 C33.5818233,26.8444608 33.9533609,26.5891226 34.2996167,26.3013333 L33.51645,25.3406222 C33.2273027,25.5802883 32.9172998,25.7931227 32.5902167,25.9765333 L32.5902167,25.9765333 Z" id="Path"></path>
                <path d="M34.3125667,24.5466667 L35.2542167,25.3499556 C35.5440369,25.0043281 35.8020477,24.6327778 36.02505,24.2399111 L34.9551333,23.6214222 C34.7691262,23.9488161 34.5540552,24.2585011 34.3125667,24.5466667 L34.3125667,24.5466667 Z" id="Path"></path>
                <polygon id="Path" points="24.05 13.0666667 25.2833333 13.0666667 25.2833333 14.3111111 24.05 14.3111111"></polygon>
                <polygon id="Path" points="18.23545 26.7555556 19.4687833 26.7555556 19.4687833 28 18.23545 28"></polygon>
                <path d="M36.445,17.6978667 C36.2762431,17.2792004 36.0698248,16.8770157 35.8283333,16.4963556 L34.7911,17.1696 C34.9933466,17.4868672 35.1667204,17.8219524 35.3091,18.1707556 L36.445,17.6978667 Z" id="Path"></path>
                <polygon id="Path" points="16.65 13.0666667 17.8833333 13.0666667 17.8833333 14.3111111 16.65 14.3111111"></polygon>
                <polygon id="Path" points="19.1166667 13.0666667 20.35 13.0666667 20.35 14.3111111 19.1166667 14.3111111"></polygon>
                <polygon id="Path" points="15.7687833 26.7555556 17.0021167 26.7555556 17.0021167 28 15.7687833 28"></polygon>
                <polygon id="Path" points="23.1687833 26.7555556 24.4021167 26.7555556 24.4021167 28 23.1687833 28"></polygon>
                <polygon id="Path" points="21.5833333 13.0666667 22.8166667 13.0666667 22.8166667 14.3111111 21.5833333 14.3111111"></polygon>
                <polygon id="Path" points="20.7021167 26.7555556 21.93545 26.7555556 21.93545 28 20.7021167 28"></polygon>
                <polygon id="Path" points="17.8833333 0 19.1166667 0 19.1166667 1.24444444 17.8833333 1.24444444"></polygon>
            </g>
        </g>
    </g>
</svg>