<?xml version="1.0" encoding="UTF-8"?>
<svg width="61px" height="61px" viewBox="0 0 61 61" version="1.1" xmlns="http://www.w3.org/2000/svg" xmlns:xlink="http://www.w3.org/1999/xlink">
    <title>Climbing wall</title>
    <g id="V2-Pages" stroke="none" stroke-width="1" fill="none" fill-rule="evenodd">
        <g id="Artboard-Copy" transform="translate(-1122.000000, -598.000000)" fill="#353C8C" fill-rule="nonzero">
            <g id="climbing" transform="translate(1122.000000, 598.000000)">
                <path d="M57.4257812,53.8344063 L53.8483457,53.8344063 L53.8483457,1.2085625 C53.8483457,0.550548828 53.314834,0.01715625 52.6569395,0.01715625 L35.3908418,0.01715625 C34.7329473,0.01715625 34.1994355,0.550548828 34.1994355,1.2085625 C34.1994355,1.86657617 34.7329473,2.39996875 35.3908418,2.39996875 L51.4655332,2.39996875 L51.4655332,53.8344063 L9.53125,53.8344063 L9.53125,9.12307422 L13.1650391,9.12307422 C13.8229336,9.12307422 14.3564453,8.58968164 14.3564453,7.93166797 C14.3564453,7.2736543 13.8229336,6.74026172 13.1650391,6.74026172 L9.53125,6.74026172 L9.53125,2.39996875 L25.8000215,2.39996875 C26.457916,2.39996875 26.9914277,1.86657617 26.9914277,1.2085625 C26.9914277,0.550548828 26.457916,0.01715625 25.8000215,0.01715625 L8.33984375,0.01715625 C7.68194922,0.01715625 7.1484375,0.550548828 7.1484375,1.2085625 L7.1484375,53.8344063 L3.57421875,53.8344063 C1.60339453,53.8344063 0,55.4378008 0,57.408625 C0,59.3794492 1.60339453,60.9828438 3.57421875,60.9828438 L57.4257812,60.9828438 C59.3966055,60.9828438 61,59.3794492 61,57.408625 C61,55.4376816 59.3966055,53.8344063 57.4257812,53.8344063 Z M57.4257812,58.6000313 L3.57421875,58.6000313 C2.91727734,58.6000313 2.3828125,58.0655664 2.3828125,57.408625 C2.3828125,56.7516836 2.91727734,56.2172188 3.57421875,56.2172188 L57.4257812,56.2172188 C58.0827227,56.2172188 58.6171875,56.7516836 58.6171875,57.408625 C58.6171875,58.0655664 58.0827227,58.6000313 57.4257812,58.6000313 Z" id="Shape"></path>
                <path d="M46.7413691,42.700834 L41.0151133,42.700834 C40.3572188,42.700834 39.823707,43.2342266 39.823707,43.8922402 L39.823707,49.6184961 C39.823707,50.2765098 40.3572188,50.8099023 41.0151133,50.8099023 L46.7413691,50.8099023 C47.3992637,50.8099023 47.9327754,50.2765098 47.9327754,49.6184961 L47.9327754,43.8922402 C47.9327754,43.2342266 47.3992637,42.700834 46.7413691,42.700834 Z M45.5498438,48.4270898 L42.2064004,48.4270898 L42.2064004,45.0836465 L45.5498438,45.0836465 L45.5498438,48.4270898 Z" id="Shape"></path>
                <path d="M21.266125,19.6498633 L15.5398691,19.6498633 C14.8819746,19.6498633 14.3484629,20.1832559 14.3484629,20.8412695 L14.3484629,26.5675254 C14.3484629,27.2255391 14.8819746,27.7589316 15.5398691,27.7589316 L21.266125,27.7589316 C21.9241387,27.7589316 22.4575312,27.2255391 22.4575312,26.5675254 L22.4575312,20.8412695 C22.4575312,20.1832559 21.9240195,19.6498633 21.266125,19.6498633 Z M20.0747188,25.3761191 L16.7312754,25.3761191 L16.7312754,22.0326758 L20.0747188,22.0326758 L20.0747188,25.3761191 Z" id="Shape"></path>
                <path d="M22.9314727,43.2965371 C22.7186875,42.927916 22.3252852,42.700834 21.8997148,42.700834 L14.1305547,42.700834 C13.7051035,42.700834 13.3117012,42.927916 13.098916,43.2965371 C12.8861309,43.6651582 12.8861309,44.1193223 13.098916,44.4879434 L16.983377,51.216291 C17.1961621,51.5849121 17.5895645,51.8119941 18.0151348,51.8119941 C18.4407051,51.8119941 18.8341074,51.5849121 19.0468926,51.216291 L22.9314727,44.4879434 C23.1442578,44.1193223 23.1442578,43.6651582 22.9314727,43.2965371 Z M18.0152539,48.2377754 L16.1943086,45.0836465 L19.8363184,45.0836465 L18.0152539,48.2377754 Z" id="Shape"></path>
                <path d="M48.7946387,20.4346426 C48.5818535,20.0660215 48.1884512,19.8389395 47.7628809,19.8389395 L39.9937207,19.8389395 C39.5681504,19.8389395 39.174748,20.0660215 38.9619629,20.4346426 C38.7491777,20.8032637 38.7491777,21.2574277 38.9619629,21.6260488 L42.8464238,28.3542773 C43.059209,28.7228984 43.4526113,28.9499805 43.8781816,28.9499805 C44.303752,28.9499805 44.6971543,28.7228984 44.9099395,28.3542773 L48.7945195,21.6260488 C49.0074238,21.2574277 49.0074238,20.8032637 48.7946387,20.4346426 Z M43.8781816,25.3757617 L42.0572363,22.221752 L45.6992461,22.221752 L43.8781816,25.3757617 Z" id="Shape"></path>
                <path d="M31.2129375,7.33596484 C31.0001523,6.96734375 30.60675,6.74026172 30.1811797,6.74026172 L22.4120195,6.74026172 C21.9864492,6.74026172 21.5930469,6.96734375 21.3802617,7.33596484 C21.1674766,7.70458594 21.1674766,8.15875 21.3802617,8.52737109 L25.2647227,15.2555996 C25.477627,15.6242207 25.8709102,15.8513027 26.2965996,15.8513027 C26.7221699,15.8513027 27.1155723,15.6242207 27.3283574,15.2555996 L31.2129375,8.52737109 C31.4257227,8.15875 31.4257227,7.70458594 31.2129375,7.33596484 Z M26.2965996,12.277084 L24.4756543,9.12307422 L28.1176641,9.12307422 L26.2965996,12.277084 Z" id="Shape"></path>
                <path d="M32.9685938,23.2029941 L29.2226934,23.2029941 C28.5647988,23.2029941 28.0312871,23.7363867 28.0312871,24.3944004 C28.0312871,25.0524141 28.5647988,25.5858066 29.2226934,25.5858066 L32.9685938,25.5858066 C33.6264883,25.5858066 34.16,25.0524141 34.16,24.3944004 C34.16,23.7363867 33.6264883,23.2029941 32.9685938,23.2029941 Z" id="Path"></path>
                <path d="M19.8881445,33.2573906 L16.1423633,33.2573906 C15.4844688,33.2573906 14.950957,33.7907832 14.950957,34.4487969 C14.950957,35.1068105 15.4844688,35.6402031 16.1423633,35.6402031 L19.8881445,35.6402031 C20.5460391,35.6402031 21.0795508,35.1068105 21.0795508,34.4487969 C21.0795508,33.7907832 20.5460391,33.2573906 19.8881445,33.2573906 Z" id="Path"></path>
                <path d="M32.9685938,48.4270898 L29.2226934,48.4270898 C28.5647988,48.4270898 28.0312871,48.9604824 28.0312871,49.6184961 C28.0312871,50.2765098 28.5647988,50.8099023 29.2226934,50.8099023 L32.9685938,50.8099023 C33.6264883,50.8099023 34.16,50.2765098 34.16,49.6184961 C34.16,48.9604824 33.6264883,48.4270898 32.9685938,48.4270898 Z" id="Path"></path>
                <path d="M35.8948066,34.7076895 L26.2964805,34.7076895 C25.6385859,34.7076895 25.1050742,35.241082 25.1050742,35.8990957 C25.1050742,39.2022695 27.7924102,41.8896055 31.095584,41.8896055 C34.3987578,41.8896055 37.0862129,39.2022695 37.0862129,35.8990957 C37.0862129,35.241082 36.5527012,34.7076895 35.8948066,34.7076895 Z M31.0957031,39.506793 C29.5237617,39.506793 28.1833105,38.496123 27.6900684,37.090502 L34.5013379,37.090502 C34.0080957,38.496123 32.6676445,39.506793 31.0957031,39.506793 Z" id="Shape"></path>
                <path d="M48.6772852,7.70482422 L39.0790781,7.70482422 C38.4211836,7.70482422 37.8876719,8.2382168 37.8876719,8.89623047 C37.8876719,12.1994043 40.5750078,14.8867402 43.8780625,14.8867402 C47.1813555,14.8867402 49.8685723,12.1994043 49.8685723,8.89623047 C49.8685723,8.2382168 49.3352988,7.70482422 48.6772852,7.70482422 Z M43.8781816,12.5039277 C42.3062402,12.5039277 40.9659082,11.4932578 40.472666,10.0876367 L47.2838164,10.0876367 C46.7905742,11.4932578 45.450123,12.5039277 43.8781816,12.5039277 Z" id="Shape"></path>
                <path d="M31.3923633,0.366238281 C31.1707617,0.144636719 30.8633789,0.01715625 30.5500391,0.01715625 C30.2366992,0.01715625 29.9293164,0.144636719 29.7077148,0.366238281 C29.4849219,0.587839844 29.3586328,0.895222656 29.3586328,1.2085625 C29.3586328,1.52190234 29.4849219,1.82928516 29.7077148,2.05088672 C29.9293164,2.27248828 30.2366992,2.39996875 30.5500391,2.39996875 C30.8633789,2.39996875 31.1707617,2.27248828 31.3923633,2.05088672 C31.6138457,1.82928516 31.7414453,1.52190234 31.7414453,1.2085625 C31.7414453,0.895222656 31.6139648,0.587839844 31.3923633,0.366238281 Z" id="Path"></path>
                <path d="M47.414752,33.6171953 C46.7568574,33.6171953 46.2233457,34.1505879 46.2233457,34.8086016 L46.2233457,39.3931328 C46.2233457,40.0511465 46.7568574,40.5845391 47.414752,40.5845391 C48.0726465,40.5845391 48.6061582,40.0511465 48.6061582,39.3931328 L48.6061582,34.8086016 C48.6061582,34.1505879 48.0726465,33.6171953 47.414752,33.6171953 Z" id="Path"></path>
                <path d="M47.414752,29.5418711 C46.7568574,29.5418711 46.2233457,30.0752637 46.2233457,30.7332773 L46.2233457,30.7473359 C46.2233457,31.4053496 46.7568574,31.9387422 47.414752,31.9387422 C48.0726465,31.9387422 48.6061582,31.4053496 48.6061582,30.7473359 L48.6061582,30.7332773 C48.6061582,30.0752637 48.0726465,29.5418711 47.414752,29.5418711 Z" id="Path"></path>
            </g>
        </g>
    </g>
</svg>