<?xml version="1.0" encoding="UTF-8"?>
<svg width="60px" height="73px" viewBox="0 0 60 73" version="1.1" xmlns="http://www.w3.org/2000/svg" xmlns:xlink="http://www.w3.org/1999/xlink">
    <title>BMX track</title>
    <g id="V2-Pages" stroke="none" stroke-width="1" fill="none" fill-rule="evenodd">
        <g id="Artboard-Copy" transform="translate(-839.000000, -586.000000)" fill="#353C8C" fill-rule="nonzero">
            <g id="bmx" transform="translate(839.000000, 586.000000)">
                <path d="M37.8625954,61.8280922 C37.8626918,66.6404976 40.9783363,70.8961651 45.5581623,72.3394882 C50.1379882,73.7828112 55.1224524,72.0798769 57.8696683,68.1332816 C60.6168843,64.1866863 60.4912835,58.909475 57.5594373,55.0986974 C54.6275911,51.2879198 49.5677824,49.8251994 45.0618321,51.4858134 L41.0601527,43.4633124 L42.7480916,43.4633124 C43.1881217,43.4633166 43.5941383,43.2260533 43.8109415,42.8422166 C44.0277447,42.4583798 44.0218153,41.987313 43.7954198,41.6090818 L40.6219847,36.3071698 L41.1690076,35.7588281 C41.5988051,35.3279913 41.647152,34.6459155 41.2824427,34.1584906 L30.5343511,22.1428742 L30.5343511,15.1576771 L32.6836641,14.292696 L34.5561832,16.1697296 C34.9859838,16.6005632 35.6664192,16.6490267 36.1526718,16.2834382 L40.9258015,12.6949602 C41.2167453,12.8609568 41.5630006,12.8996654 41.8832783,12.8019986 C42.203556,12.7043319 42.4696477,12.4788916 42.619084,12.1786038 L43.2694656,10.8748574 C44.5480901,8.31146486 44.2584077,5.24186676 42.5229342,2.96429215 C40.7874606,0.686717541 37.909333,-0.401007115 35.1058015,0.161150943 L32.7375573,0.635574423 C32.3817297,0.70690244 32.0759663,0.933139449 31.9031286,1.25297552 C31.7302909,1.57281159 31.7082773,1.95312571 31.8430534,2.29085325 L32.821374,4.7427044 L28.1138931,6.63060377 C26.3391758,5.93005792 24.3474169,6.04375562 22.6635115,6.94173375 L9.83206107,13.8023564 C5.47014498,16.1344236 3.25126923,21.1429844 4.45022901,25.9505052 C4.45022901,25.9505052 4.96931298,27.9893019 4.97343511,27.9992495 C4.9919084,28.0460797 15.9496183,42.7423417 15.9496183,42.7423417 L17.851145,53.2255702 C14.0211757,50.1597019 8.62860552,50.0074227 4.63252647,52.8522935 C0.636447427,55.6971643 -0.99666782,60.8511383 0.629328243,65.4860494 C2.25532431,70.1209606 6.74717602,73.1158314 11.6400471,72.8272714 C16.5329182,72.5387115 20.6434421,69.0365104 21.7160305,64.2424486 C21.9327495,64.2962164 22.1603511,64.2860657 22.3714504,64.213218 L33.3638168,60.5402621 C34.0037462,60.3264599 34.3496126,59.633128 34.1363359,58.991652 L33.4961832,57.0676352 C33.3303787,56.5702314 33.0749558,56.1075357 32.7425954,55.7025199 L41.5114504,49.8424717 L42.8803053,52.5864759 C39.7534406,54.6155792 37.8647177,58.0942283 37.8625954,61.8280922 Z M40.5134351,41.0146751 L39.1357252,41.0146751 C38.7886259,41.0074277 38.4534255,41.141555 38.2067176,41.3864088 C37.845914,41.7601042 37.7596833,42.3213719 37.9916031,42.7865702 L39.0839695,44.9767233 C39.0896691,44.9880963 39.0901479,45.001393 39.0852812,45.0131484 C39.0804144,45.0249038 39.0706842,45.0339534 39.058626,45.0379392 L25.7065649,49.4993564 C25.6932054,49.5038336 25.6785132,49.5016231 25.6670793,49.493352 C25.6556454,49.4851047 25.6488643,49.4718499 25.648855,49.4577296 L25.648855,41.0621174 C25.6487692,40.008052 25.3630212,38.9738108 24.8221374,38.0698826 L18.2433588,27.0788679 C18.2411247,27.0751477 18.2394284,27.0711287 18.2383206,27.0669308 L17.9122137,25.7593585 C17.5424759,24.2769824 18.2014153,22.728997 19.5248855,21.9708574 L23.140458,19.8999224 C23.1540209,19.8921094 23.1707103,19.892137 23.1842474,19.8999948 C23.1977845,19.9078527 23.2061157,19.9223487 23.2061069,19.9380294 L23.2061069,25.0985325 C23.2061069,25.4838957 23.3871074,25.8467695 23.6946565,26.0779874 L33.2267176,33.2442306 C33.2321682,33.2482546 33.2366109,33.2534939 33.2396947,33.2595346 L34.1938931,35.1725325 C34.1969166,35.1786171 34.1984848,35.185324 34.1984733,35.1921216 L34.1984733,37.2974906 C34.1983923,37.633902 34.331653,37.9565628 34.5689311,38.1944703 C34.8062092,38.4323779 35.1280617,38.5660377 35.4636641,38.5660377 L37.8444275,38.5660377 C38.1799833,38.5660545 38.5018018,38.4324476 38.739084,38.1946101 L38.8018321,38.1317107 C38.8113882,38.1221593 38.8248019,38.1175547 38.838193,38.1192289 C38.8515841,38.1209031 38.8634587,38.1286693 38.8703817,38.1402809 L40.5509924,40.9481027 C40.5591399,40.9616722 40.5593688,40.9785877 40.5515913,40.9923737 C40.5438139,41.0061596 40.5292347,41.0146808 40.5134351,41.0146751 L40.5134351,41.0146751 Z M28.0916031,14.0796646 L28.0916031,17.7526205 L25.648855,17.7526205 L25.648855,14.0796646 C25.648855,13.403492 26.1956827,12.8553459 26.870229,12.8553459 C27.5447753,12.8553459 28.0916031,13.403492 28.0916031,14.0796646 Z M37.3567939,36.1174004 L36.6412214,36.1174004 L36.6412214,34.8930818 C36.6412421,34.7029882 36.5970715,34.5155051 36.5122137,34.3455052 L35.6845802,32.6862474 L36.5090076,31.8598323 L38.6922137,34.7784549 L37.3567939,36.1174004 Z M34.9140458,29.9958071 L34.0839695,30.8278847 L25.648855,24.4863732 L25.648855,20.2012579 L28.0916031,20.2012579 L28.0916031,22.6498952 C28.0915913,22.9746092 28.2202636,23.2860281 28.449313,23.5156415 L34.9140458,29.9958071 Z M35.5346565,13.6874235 L34.4633588,12.613543 L35.9225954,9.68818658 L38.6624427,11.3359665 L35.5346565,13.6874235 Z M35.5851908,2.56219287 C37.4735793,2.18404168 39.4119543,2.91694002 40.5807995,4.45102931 C41.7496448,5.9851186 41.9448826,8.05255045 41.0839695,9.77924528 L41.0229008,9.90045283 L36.4010687,7.12048428 L34.6564885,2.74828931 L35.5851908,2.56219287 Z M34.0822901,7.90236478 L32.0916031,11.8922662 L30.24,12.6372642 L29.4746565,8.72189308 L33.7282443,7.01641719 L34.0822901,7.90236478 Z M7.16625954,20.2298763 C7.89693762,18.4016953 9.24782183,16.8906569 10.980916,15.9629727 L23.8137405,9.1023501 C24.7965526,8.57795663 25.9506665,8.47968681 27.0076336,8.83039832 L27.321374,10.4354801 C26.2786592,10.3035908 25.2297348,10.6277192 24.4420766,11.3252127 C23.6544183,12.0227062 23.2041561,13.0261495 23.2061069,14.0796646 L23.2061069,17.0422096 L18.2845802,19.8613564 C16.033272,21.1587763 14.9113936,23.7939582 15.5345038,26.3210147 L15.5345038,26.3228512 L7.06045802,26.3228512 L6.81954198,25.3567107 C6.39130477,23.6539928 6.51280327,21.8590027 7.16656489,20.2298763 L7.16625954,20.2298763 Z M8.54961832,28.7714885 L16.4077863,28.7714885 L22.7274809,39.3298595 C23.0406786,39.8531305 23.2061069,40.4518888 23.2061069,41.0621174 L23.2061069,53.5262935 L20.5105344,54.2018113 L18.300916,42.0198407 C18.2669746,41.8328856 18.1900857,41.6564166 18.0763359,41.5044025 L8.54961832,28.7714885 Z M10.9923664,70.398326 C7.21677384,70.4015493 3.88609403,67.9218561 2.79811645,64.2976985 C1.71013888,60.6735409 3.12249313,56.7631078 6.27283764,54.6771201 C9.42318215,52.5911324 13.5655255,52.8235452 16.4639695,55.2489099 L14.5943511,56.8888847 C12.0620539,55.0340937 8.54000365,55.4027447 6.4445771,57.7419169 C4.34915055,60.0810891 4.36113434,63.630805 6.47230674,65.9557073 C8.58347914,68.2806096 12.1079378,68.6253568 14.6276537,66.7534279 C17.1473696,64.881499 17.843708,61.4010681 16.2389313,58.6999581 L18.0984733,57.0688595 C19.85318,59.6970985 20.0204017,63.0806954 18.5334328,65.8699156 C17.046464,68.6591358 14.1472745,70.4000978 10.9923664,70.398326 L10.9923664,70.398326 Z M14.6564902,61.8280922 C14.6580526,63.4774624 13.5637916,64.9260895 11.9796162,65.3718442 C10.3954408,65.817599 8.70897312,65.1514124 7.8540388,63.7421633 C6.99910449,62.3329142 7.18489208,60.5254229 8.30852784,59.3205279 C9.43216361,58.115633 11.2187122,57.8081526 12.6789313,58.5683438 C12.6789313,58.5683438 11.2943511,59.7940398 11.2464122,59.856021 C10.3963617,59.7406523 9.56764766,60.1818086 9.18693927,60.9523575 C8.80623088,61.7229063 8.95841459,62.6510387 9.56513754,63.258899 C10.1718605,63.8667594 11.0978419,64.0188134 11.8663337,63.6367749 C12.6348254,63.2547365 13.0744773,62.4237885 12.9589313,61.5717505 C12.9787786,61.5564465 14.3482443,60.3570734 14.3482443,60.3570734 C14.5516919,60.8206653 14.6566655,61.3216259 14.6564902,61.8280922 L14.6564902,61.8280922 Z M22.7572519,61.5038008 L21.1177099,56.5736226 L24.4774046,55.7319036 L29.7415267,56.6114235 C30.411317,56.7223432 30.9645878,57.1962706 31.1783206,57.8421698 L31.4322137,58.6052264 L22.7572519,61.5038008 Z M30.4841221,54.2686897 C30.3719084,54.2403774 25.648855,53.4450294 25.648855,53.4450294 L25.648855,52.0998092 L40.2100763,47.2343669 L40.410229,47.6353312 L30.4841221,54.2686897 Z M48.8549618,53.2578526 C53.0846427,53.2517408 56.6849898,56.3425602 57.3293649,60.5329517 C57.97374,64.7233433 55.4690316,68.7574963 51.4338475,70.028436 C47.3986634,71.2993757 43.0423005,69.4262165 41.179954,65.6194427 C39.3176075,61.8126689 40.5074006,57.2131254 43.980458,54.7931572 L45.0885496,57.0148365 C42.6360855,58.9519132 42.0446073,62.4355265 43.7197189,65.0768022 C45.3948305,67.718078 48.7926528,68.6594409 51.5831427,67.2553551 C54.3736326,65.8512693 55.6507675,62.5576165 54.5387573,59.633006 C53.426747,56.7083956 50.2866415,55.1023966 47.2717557,55.9163166 L46.1638168,53.6952495 C47.0316051,53.4055021 47.9402997,53.2578526 48.8549618,53.2578526 L48.8549618,53.2578526 Z M46.2189313,59.2808973 L47.0639695,60.9750482 C46.7011491,61.7417909 46.8637914,62.6548532 47.4689083,63.2483465 C48.0740253,63.8418398 48.9882207,63.9849304 49.745028,63.6046065 C50.5018352,63.2242826 50.9344184,62.4043855 50.8220528,61.5632663 C50.7096871,60.7221471 50.0771432,60.0452279 49.2471756,59.8779057 L48.4022901,58.1840608 C50.1763974,57.9601648 51.8533049,59.0503421 52.3729219,60.7654152 C52.8925388,62.4804883 52.1036465,64.3213373 50.504959,65.1242326 C48.9062715,65.9271278 46.9630382,65.4584111 45.9037131,64.0143911 C44.8443881,62.5703711 44.9772555,60.5712858 46.2183206,59.2808973 L46.2189313,59.2808973 Z" id="Shape"></path>
            </g>
        </g>
    </g>
</svg>