<?xml version="1.0" encoding="UTF-8"?>
<svg width="19px" height="19px" viewBox="0 0 19 19" version="1.1" xmlns="http://www.w3.org/2000/svg" xmlns:xlink="http://www.w3.org/1999/xlink">
    <title>Atoms / icons / System / Cancel</title>
    <defs>
        <path d="M17.8345599,1.57247655 L17.4275234,1.16544011 C17.0369992,0.774915823 16.4038342,0.774915823 16.0133099,1.16544011 L9.5,7.67875 L9.5,7.67875 L2.98669011,1.16544011 C2.59616582,0.774915823 1.96300084,0.774915823 1.57247655,1.16544011 L1.16544011,1.57247655 C0.774915823,1.96300084 0.774915823,2.59616582 1.16544011,2.98669011 L7.67875,9.5 L7.67875,9.5 L1.16544011,16.0133099 C0.774915823,16.4038342 0.774915823,17.0369992 1.16544011,17.4275234 L1.57247655,17.8345599 C1.96300084,18.2250842 2.59616582,18.2250842 2.98669011,17.8345599 L9.5,11.32125 L9.5,11.32125 L16.0133099,17.8345599 C16.4038342,18.2250842 17.0369992,18.2250842 17.4275234,17.8345599 L17.8345599,17.4275234 C18.2250842,17.0369992 18.2250842,16.4038342 17.8345599,16.0133099 L11.32125,9.5 L11.32125,9.5 L17.8345599,2.98669011 C18.2250842,2.59616582 18.2250842,1.96300084 17.8345599,1.57247655 Z" id="path-1"></path>
    </defs>
    <g id="Page-1" stroke="none" stroke-width="1" fill="none" fill-rule="evenodd">
        <g id="2,0-InteractiveMap-Copy" transform="translate(-513.000000, -921.000000)">
            <g id="Group-5" transform="translate(77.000000, 899.000000)">
                <g id="Atoms-/-icons-/-System-/-Cancel" transform="translate(436.000000, 22.000000)">
                    <mask id="mask-2" fill="white">
                        <use xlink:href="#path-1"></use>
                    </mask>
                    <use id="Mask" fill="#FFFFFF" xlink:href="#path-1"></use>
                    <g id="Group" mask="url(#mask-2)">
                        <g transform="translate(-6.000000, -6.000000)" id="↪🎨">
                            <rect id="Atoms-/-Colors-/-Black" fill="#212237" x="0" y="0" width="31" height="31"></rect>
                        </g>
                    </g>
                </g>
            </g>
        </g>
    </g>
</svg>