<?xml version="1.0" encoding="UTF-8"?>
<svg width="480px" height="464px" viewBox="0 0 480 464" version="1.1" xmlns="http://www.w3.org/2000/svg" xmlns:xlink="http://www.w3.org/1999/xlink">
    <title>dinner</title>
    <g id="Page-1" stroke="none" stroke-width="1" fill="none" fill-rule="evenodd">
        <g id="dinner" fill="#904346" fill-rule="nonzero">
            <path d="M472,104 C467.582,104 464,107.582 464,112 L464,280 L376,280 L376,208 C376,194.745 365.255,184 352,184 L344,184 L344,158.864 C358.086,155.227 367.945,142.547 368,128 L368,80 L304,80 L304,128 C304.055,142.547 313.915,155.227 328,158.864 L328,184 L288,184 L288,176 C288,162.745 277.255,152 264,152 L248,152 L248,96 L256,96 C278.08,95.974 295.974,78.08 296,56 L296,32 L280,32 L280,56 C280,69.255 269.255,80 256,80 L248,80 L248,32 L232,32 L232,80 L224,80 C210.745,80 200,69.255 200,56 L200,32 L184,32 L184,56 C184.026,78.08 201.92,95.974 224,96 L232,96 L232,152 L216,152 C202.745,152 192,162.745 192,176 L192,184 L152,184 L152,158.864 C166.086,155.227 175.945,142.547 176,128 L176,80 L112,80 L112,128 C112.055,142.547 121.915,155.227 136,158.864 L136,184 L128,184 C114.745,184 104,194.745 104,208 L104,280 L16,280 L16,112 C16,107.582 12.418,104 8,104 C3.582,104 0,107.582 0,112 L0,456 C0,460.418 3.582,464 8,464 C12.418,464 16,460.418 16,456 L16,416 L104,416 L104,456 C104,460.418 107.582,464 112,464 C116.418,464 120,460.418 120,456 L120,435.808 L144.376,416 L152,416 L152,456 C152,460.418 155.582,464 160,464 C164.418,464 168,460.418 168,456 L168,396.8 L240,338.296 L312,396.8 L312,456 C312,460.418 315.582,464 320,464 C324.418,464 328,460.418 328,456 L328,416 L335.624,416 L360,435.808 L360,456 C360,460.418 363.582,464 368,464 C372.418,464 376,460.418 376,456 L376,416 L464,416 L464,456 C464,460.418 467.582,464 472,464 C476.418,464 480,460.418 480,456 L480,112 C480,107.582 476.418,104 472,104 Z M104,400 L16,400 L16,360 L104,360 L104,400 Z M104,344 L16,344 L16,328 L104,328 L104,344 Z M104,312 L16,312 L16,296 L104,296 L104,312 Z M320,96 L352,96 L352,112 L320,112 L320,96 Z M320,128 L352,128 C352,136.837 344.837,144 336,144 C327.163,144 320,136.837 320,128 Z M208,176 C208,171.582 211.582,168 216,168 L264,168 C268.418,168 272,171.582 272,176 L272,184 L208,184 L208,176 Z M128,96 L160,96 L160,112 L128,112 L128,96 Z M128,128 L160,128 C160,136.837 152.837,144 144,144 C135.163,144 128,136.837 128,128 Z M120,415.2 L120,240.8 L227.312,328 L120,415.2 Z M134.528,232 L345.472,232 L240,317.696 L134.528,232 Z M360,280 L360,415.2 L252.688,328 L360,240.8 L360,280 Z M360,216 L120,216 L120,208 C120,203.582 123.582,200 128,200 L352,200 C356.418,200 360,203.582 360,208 L360,216 Z M464,400 L376,400 L376,360 L464,360 L464,400 Z M464,344 L376,344 L376,328 L464,328 L464,344 Z M464,312 L376,312 L376,296 L464,296 L464,312 Z" id="Shape"></path>
            <rect id="Rectangle" x="184" y="0" width="16" height="16"></rect>
            <rect id="Rectangle" x="232" y="0" width="16" height="16"></rect>
            <rect id="Rectangle" x="280" y="0" width="16" height="16"></rect>
        </g>
    </g>
</svg>