<?xml version="1.0" encoding="UTF-8"?>
<svg width="30px" height="30px" viewBox="0 0 30 30" version="1.1" xmlns="http://www.w3.org/2000/svg" xmlns:xlink="http://www.w3.org/1999/xlink">
    <title>Icon/Football</title>
    <g id="Extras" stroke="none" stroke-width="1" fill="none" fill-rule="evenodd">
        <g id="Sports" transform="translate(-163.000000, -532.000000)" fill="#FFFFFF" fill-rule="nonzero">
            <g id="02-Sports" transform="translate(47.000000, 117.000000)">
                <g id="All/Sports" transform="translate(81.000000, 142.000000)">
                    <g id="Icon/Activites" transform="translate(20.000000, 258.000000)">
                        <g id="ball" transform="translate(15.733333, 15.733333)">
                            <path d="M14.2583333,0 C6.39664479,0 0,6.39664479 0,14.2583333 C0,22.1200219 6.39664479,28.5166667 14.2583333,28.5166667 C22.1200219,28.5166667 28.5166667,22.1200219 28.5166667,14.2583333 C28.5166667,6.39664479 22.1200219,0 14.2583333,0 Z M15.1637375,4.63217604 L18.8299115,2.66096146 C20.8599417,3.464775 22.6315396,4.78188854 23.9789521,6.45724271 L23.1056292,10.4887865 L20.3092135,11.8593688 L15.1637375,8.11120938 L15.1637375,4.63217604 Z M9.71705417,2.65026771 L13.3832281,4.62861146 L13.3832281,8.11120938 L8.24131667,11.8593688 L5.43064271,10.4870042 L4.55731979,6.43050833 C5.90829687,4.75871875 7.68345937,3.44873437 9.71705417,2.65026771 Z M3.97451042,21.3055146 C2.81067396,19.6123375 2.0532,17.6215177 1.84467187,15.4702917 L4.86209167,12.1926573 L7.61395,13.5382875 L9.68675521,19.4251969 L7.9347625,21.5247365 L3.97451042,21.3055146 Z M17.4361594,26.3084073 C16.4184708,26.5775333 15.3580073,26.734375 14.2583333,26.734375 C12.9287437,26.734375 11.6490583,26.5205 10.4460115,26.1337427 L9.32495,22.6440156 L11.1125885,20.4963542 L17.4112073,20.4963542 L19.1667646,22.5745062 L17.4361594,26.3084073 Z M20.5569521,21.4641385 L18.833476,19.4234146 L20.9347979,13.5382875 L23.6741802,12.1962219 L26.6737771,15.472074 C26.4937656,17.3274396 25.8966979,19.0580448 24.9895115,20.5890333 L20.5569521,21.4641385 Z" id="Shape"></path>
                        </g>
                    </g>
                </g>
            </g>
        </g>
    </g>
</svg>