<?xml version="1.0" encoding="UTF-8"?>
<svg width="60px" height="72px" viewBox="0 0 60 72" version="1.1" xmlns="http://www.w3.org/2000/svg" xmlns:xlink="http://www.w3.org/1999/xlink">
    <title>harp</title>
    <g id="1.-Homepage" stroke="none" stroke-width="1" fill="none" fill-rule="evenodd">
        <g id="1,2-HP" transform="translate(-386.000000, -2976.000000)" fill="#9EC5E9" fill-rule="nonzero">
            <g id="02-Amphitheatre" transform="translate(47.000000, 2473.000000)">
                <g id="Activities" transform="translate(81.000000, 503.000000)">
                    <g id="Classical" transform="translate(258.000000, 0.000000)">
                        <g id="harp" transform="translate(0.000000, 0.000000)">
                            <path d="M51.7428807,8.09908537 C50.0995339,8.09908537 48.5095731,8.58120853 47.1446354,9.49347875 C43.1408273,12.1690762 37.7550701,11.2419162 34.8838464,7.38231147 C31.7498421,3.16935191 26.7375099,0.654232425 21.475951,0.654232425 L1.38305572,0.654232425 C0.619194047,0.654232425 0,1.27146588 0,2.0329089 L0,9.47776184 C0,10.1446276 0.475217947,10.7010615 1.10644458,10.8287269 L1.10644458,16.6468795 C1.10644458,17.211999 1.44792104,17.6972931 1.93627801,17.9100229 L1.93627801,62.4189383 L1.38305572,62.4189383 C0.619194047,62.4189383 0,63.0363096 0,63.7976148 L0,69.8637912 C0,70.6250964 0.619194047,71.2424677 1.38305572,71.2424677 L21.2990581,71.2424677 C22.0629198,71.2424677 22.6821139,70.6250964 22.6821139,69.8637912 L22.6821139,64.3012453 L35.8777102,48.7012453 C36.3700781,48.1190302 36.295808,47.2493611 35.7118818,46.7584144 C35.1279557,46.2674677 34.2553858,46.3415026 33.763018,46.9237177 L20.6562138,62.4189383 L12.4894081,62.4189383 L51.0993449,19.2183868 C51.512187,18.7562545 51.5657113,18.0767049 51.2303203,17.5561166 C50.894791,17.0353905 50.2524999,16.8011534 49.6593073,16.9836901 L47.3117085,17.7048758 C41.523482,19.4829549 35.2666762,17.9356662 30.9836292,13.6660431 C27.3821521,10.0762453 22.5938749,8.09908537 17.5007722,8.09908537 L12.724251,8.09908537 L12.724251,3.41158537 L21.4760893,3.41158537 C25.8657698,3.41158537 30.0474388,5.51006882 32.662244,9.02486662 C34.9697341,12.1264751 38.5186551,13.7790946 42.1271858,13.7789567 C44.3868222,13.778681 46.6703855,13.1304273 48.6853594,11.7837361 C49.5927823,11.1771185 50.6501284,10.8564383 51.7428807,10.8564383 C54.7706663,10.8564383 57.2338886,13.3195817 57.2338886,16.3471552 L57.2338886,16.4749585 C57.2338886,18.217192 56.6134498,19.9100688 55.4866743,21.2420082 L41.7865392,37.4385615 C41.2941713,38.0207765 41.3684414,38.8904457 41.9523676,39.3812545 C42.2118288,39.599499 42.5284103,39.7059328 42.8431938,39.7059328 C43.2366731,39.7059328 43.627663,39.5393887 43.9012314,39.2159512 L57.6013665,23.0193979 C59.148176,21.1908593 60,18.8666865 60,16.4748207 L60,16.3470174 C60,11.7991773 56.2957619,8.09908537 51.7428807,8.09908537 Z M3.87255603,10.8564383 L8.85155663,10.8564383 L8.85155663,15.268203 L3.87255603,15.268203 L3.87255603,10.8564383 Z M10.7878346,17.9100229 C11.2761916,17.6971552 11.6176681,17.211999 11.6176681,16.6468795 L11.6176681,10.8564383 L14.6603907,10.8564383 L14.6603907,55.8445817 L10.7878346,60.1774861 L10.7878346,17.9100229 Z M2.76611145,3.41158537 L9.95800121,3.41158537 L9.95800121,8.09908537 L2.76611145,8.09908537 L2.76611145,3.41158537 Z M4.70238946,18.025556 L8.0217232,18.025556 L8.0217232,62.4189383 L4.70238946,62.4189383 L4.70238946,18.025556 Z M19.9160024,68.4851148 L2.76611145,68.4851148 L2.76611145,65.1762912 L19.9160024,65.1762912 L19.9160024,68.4851148 Z M27.9377256,40.9886534 L24.0651696,45.3215578 L24.0651696,12.2231203 C25.4523745,12.8316681 26.7545214,13.6368151 27.9377256,14.6232582 L27.9377256,40.9886534 Z M42.4928657,21.1881019 C43.6294609,21.1881019 44.7731097,21.0864935 45.9095666,20.8801056 L37.3425045,30.4657674 L37.3425045,20.4783593 C39.0125443,20.9471093 40.7448216,21.1882398 42.4928657,21.1881019 L42.4928657,21.1881019 Z M34.5763931,19.4647563 L34.5763931,33.5606203 L30.7038371,37.8935247 L30.7038371,17.1012912 C31.9077871,18.0496828 33.2086893,18.8398023 34.5763931,19.4647563 Z M21.2990581,11.2985799 L21.2990581,48.4165486 L17.4265021,52.749453 L17.4265021,10.8564383 L17.5006339,10.8564383 C18.7966954,10.8564383 20.069245,11.0072655 21.2990581,11.2985799 Z" id="XMLID_659_"></path>
                            <path d="M38.1176471,41.5954089 C37.7463529,41.5954089 37.3821176,41.7464677 37.1195294,42.0091971 C36.8569412,42.2716442 36.7058824,42.6358795 36.7058824,43.0071736 C36.7058824,43.3786089 36.8569412,43.742703 37.1195294,44.0052912 C37.3821176,44.2678795 37.7463529,44.4189383 38.1176471,44.4189383 C38.4903529,44.4189383 38.8531765,44.2680207 39.1157647,44.0052912 C39.3783529,43.742703 39.5294118,43.3786089 39.5294118,43.0071736 C39.5294118,42.6358795 39.3783529,42.2716442 39.1157647,42.0091971 C38.8531765,41.7466089 38.4889412,41.5954089 38.1176471,41.5954089 Z" id="XMLID_690_"></path>
                        </g>
                    </g>
                </g>
            </g>
        </g>
    </g>
</svg>