<?xml version="1.0" encoding="UTF-8"?>
<svg width="58px" height="58px" viewBox="0 0 58 58" version="1.1" xmlns="http://www.w3.org/2000/svg" xmlns:xlink="http://www.w3.org/1999/xlink">
    <title>Archeological sites</title>
    <g id="V2-Pages" stroke="none" stroke-width="1" fill="none" fill-rule="evenodd">
        <g id="Artboard-Copy" transform="translate(-508.000000, -93.000000)" fill="#7D9831" fill-rule="nonzero">
            <g id="pottery" transform="translate(508.000000, 93.000000)">
                <path d="M54.2580645,35.5483871 L53.0774839,35.5483871 C53.8455161,33.1591613 54.2580645,30.653 54.2580645,28.0645161 C54.2580645,22.7275806 52.7930968,19.3083871 51.3758387,16.0023871 C50.0642903,12.9414839 48.834129,10.0180968 48.6769677,5.61009677 C49.6938387,5.59232258 50.516129,4.76348387 50.516129,3.74193548 L50.516129,1.87096774 C50.516129,0.839129032 49.677,0 48.6451613,0 L30.5341935,0 C29.201129,0 28.043,0.948580645 27.782,2.2563871 L26.6407097,7.96190323 L21.9052903,1.19741935 C21.3804839,0.44716129 20.5217097,0 19.605871,0 L9.35483871,0 C8.323,0 7.48387097,0.839129032 7.48387097,1.87096774 L7.48387097,3.74193548 C7.48387097,4.76348387 8.30616129,5.59232258 9.32303226,5.61009677 C9.16493548,10.0180968 7.93570968,12.9414839 6.62416129,16.0023871 C5.20690323,19.3083871 3.74193548,22.7275806 3.74193548,28.0645161 C3.74193548,30.653 4.15448387,33.1591613 4.92251613,35.5483871 L3.74193548,35.5483871 C1.67825806,35.5483871 0,37.2266452 0,39.2903226 C0,41.354 1.67825806,43.0322581 3.74193548,43.0322581 L3.74193548,55.1935484 C3.74193548,56.7408387 5.00109677,58 6.5483871,58 C8.09567742,58 9.35483871,56.7408387 9.35483871,55.1935484 L9.35483871,43.5636129 C13.4924839,48.4449677 19.5319677,51.5563871 26.1935484,52.2374194 L26.1935484,55.1935484 C26.1935484,56.7408387 27.4527097,58 29,58 C30.5472903,58 31.8064516,56.7408387 31.8064516,55.1935484 L31.8064516,52.2364839 C38.4680323,51.5554516 44.5075161,48.4440323 48.6451613,43.5626774 L48.6451613,55.1935484 C48.6451613,56.7408387 49.9043226,58 51.4516129,58 C52.9989032,58 54.2580645,56.7408387 54.2580645,55.1935484 L54.2580645,43.0322581 C56.3217419,43.0322581 58,41.354 58,39.2903226 C58,37.2266452 56.3217419,35.5483871 54.2580645,35.5483871 Z M48.2017419,13.0967742 L46.2344194,13.0967742 C44.4691613,13.0967742 43.0322581,14.5336774 43.0322581,16.2989355 C43.0322581,17.5655806 43.7797097,18.7143548 44.9369032,19.2260645 L51.6546129,22.2046452 C51.8585484,22.9857742 52.0353548,23.7996452 52.1588387,24.6827419 L44.3503548,21.3327742 C42.4129677,20.501129 41.1612903,18.6011613 41.1612903,16.4925806 C41.1612903,13.5888387 43.5233871,11.2258065 46.4280645,11.2258065 L47.6236129,11.2258065 C47.7994839,11.8750323 47.9921935,12.497129 48.2017419,13.0967742 L48.2017419,13.0967742 Z M50.9071613,19.8266452 L45.6946452,17.516 C45.2138065,17.3036452 44.9032258,16.8256129 44.9032258,16.2989355 C44.9032258,15.5655161 45.501,14.9677419 46.2344194,14.9677419 L48.9136452,14.9677419 C49.1578065,15.5664516 49.4066452,16.1576774 49.6554839,16.7395484 C50.0951613,17.7639032 50.5208065,18.7760968 50.9071613,19.8266452 Z M29.6164839,2.62309677 C29.7034839,2.18716129 30.0898387,1.87096774 30.5341935,1.87096774 L48.6451613,1.87096774 L48.6451613,3.74193548 L29.3919677,3.74193548 L29.6164839,2.62309677 Z M29.0187097,5.61290323 L46.8069355,5.61290323 C46.8527742,6.97496774 46.9921613,8.21541935 47.2045161,9.35483871 L46.4280645,9.35483871 C42.4924839,9.35483871 39.2903226,12.557 39.2903226,16.4925806 C39.2903226,19.3504839 40.9872903,21.925871 43.6131935,23.0521935 L52.3440645,26.797871 C52.3646452,27.2122903 52.3870968,27.6229677 52.3870968,28.0645161 C52.3870968,28.6304839 52.3524839,29.1889677 52.3122581,29.7465161 L49.8697097,27.7109032 C48.6947419,26.7323871 47.2054516,26.1935484 45.6778065,26.1935484 L44.5047097,26.1935484 C44.3288387,26.1935484 44.1576452,26.1439677 44.0089032,26.0513548 L37.9516452,22.2663871 C37.0526452,21.7032258 35.929129,21.693871 35.0198387,22.2392581 L32.8074194,23.5667097 C32.3022581,23.8698065 31.6605161,23.7893548 31.2460968,23.374 C31.0047419,23.1326452 30.8719032,22.8108387 30.8719032,22.4693871 L30.8719032,18.5487742 C30.8719032,17.7994516 30.5800323,17.0940968 30.0496129,16.5636774 L28.0645161,14.5804516 L28.0645161,10.3829355 L29.0187097,5.61290323 Z M22.7126129,5.61290323 L26.1935484,10.585 L26.1935484,14.8367742 L24.6724516,20.1624839 C24.5751613,20.5001935 24.302,20.7537097 23.955871,20.8229355 L21.0979677,21.3945161 C20.4197419,21.5301613 19.8182258,21.9090323 19.402871,22.4628387 L17.3766129,25.1645161 C17.2615484,25.317 17.1053226,25.4301935 16.9238387,25.491 L13.9330968,26.4882258 C12.3399677,27.0186452 11.1462903,28.3713548 10.817,30.016871 C10.5887419,31.1581613 9.66354839,32.0534194 8.52787097,32.2433226 L6.07877419,32.6184516 C5.77941935,31.1375806 5.61290323,29.6183548 5.61290323,28.0645161 C5.61290323,27.6229677 5.63535484,27.2122903 5.65593548,26.7988065 L14.3868065,23.053129 C17.0127097,21.925871 18.7096774,19.3504839 18.7096774,16.4925806 C18.7096774,12.557 15.5075161,9.35483871 11.5719355,9.35483871 L10.7964194,9.35483871 C11.0087742,8.21541935 11.1481613,6.97496774 11.194,5.61290323 L22.7126129,5.61290323 Z M6.3453871,22.2046452 L13.0630968,19.227 C14.2202903,18.7143548 14.9677419,17.5655806 14.9677419,16.2989355 C14.9677419,14.5336774 13.5308387,13.0967742 11.7655806,13.0967742 L9.79825806,13.0967742 C10.0078065,12.497129 10.2014516,11.8750323 10.3763871,11.2258065 L11.5719355,11.2258065 C14.4756774,11.2258065 16.8387097,13.5879032 16.8387097,16.4925806 C16.8387097,18.6011613 15.5870323,20.501129 13.6487097,21.3327742 L5.84022581,24.6827419 C5.96464516,23.7996452 6.14145161,22.9857742 6.3453871,22.2046452 L6.3453871,22.2046452 Z M9.35483871,1.87096774 L19.605871,1.87096774 C19.9108387,1.87096774 20.1970968,2.02064516 20.3720323,2.26948387 L21.4029355,3.74193548 L9.35483871,3.74193548 L9.35483871,1.87096774 Z M9.08541935,14.9677419 L11.7646452,14.9677419 C12.499,14.9677419 13.0967742,15.5655161 13.0967742,16.2989355 C13.0967742,16.8256129 12.7861935,17.3027097 12.3044194,17.516 L7.09283871,19.8266452 C7.47825806,18.7751613 7.90390323,17.7639032 8.34358065,16.7395484 C8.59335484,16.1576774 8.84125806,15.5664516 9.08541935,14.9677419 L9.08541935,14.9677419 Z M6.525,34.4426452 L8.82348387,34.0909032 C10.7337419,33.7728387 12.2716774,32.2826129 12.6514839,30.3845161 C12.848871,29.3947742 13.5673226,28.5827742 14.5243226,28.2637742 L17.516,27.2665484 C18.0604516,27.0850645 18.5300645,26.7464194 18.8733871,26.2880323 L20.9005806,23.5854194 C21.0390323,23.401129 21.2401613,23.2739032 21.4656129,23.229 L24.3225806,22.6574194 C25.3572258,22.4506774 26.1804516,21.6910645 26.4704516,20.677 L27.5911613,16.7535806 L28.7249677,17.8873871 C28.9027097,18.0641935 29,18.2999355 29,18.5497097 L29,22.4703226 C29,23.3113226 29.3274194,24.1027419 29.9223871,24.6977097 C30.9458065,25.721129 32.5277097,25.9166452 33.7700323,25.1710645 L35.9824516,23.8436129 C36.2855484,23.6611935 36.6597419,23.665871 36.9590968,23.8529677 L43.0163548,27.6379355 C43.4635161,27.9167097 43.9780323,28.0645161 44.5047097,28.0645161 L45.6778065,28.0645161 C46.7695161,28.0645161 47.8331613,28.4499355 48.6722903,29.1487419 L52.0493871,31.9626774 C51.8389032,33.1890968 51.5180323,34.3837097 51.1082903,35.5483871 L6.89264516,35.5483871 C6.76354839,35.1816774 6.63445161,34.8159032 6.525,34.4426452 Z M6.5483871,56.1290323 C6.03293548,56.1290323 5.61290323,55.709 5.61290323,55.1935484 L5.61290323,43.0322581 L7.48387097,43.0322581 L7.48387097,55.1935484 C7.48387097,55.709 7.06383871,56.1290323 6.5483871,56.1290323 Z M11.3876452,43.0322581 L26.1935484,43.0322581 L26.1935484,50.3580323 C20.4047742,49.7219032 15.1454839,47.1090968 11.3876452,43.0322581 Z M29,56.1290323 C28.4845484,56.1290323 28.0645161,55.709 28.0645161,55.1935484 L28.0645161,43.0322581 L29.9354839,43.0322581 L29.9354839,55.1935484 C29.9354839,55.709 29.5154516,56.1290323 29,56.1290323 Z M31.8064516,50.3580323 L31.8064516,43.0322581 L46.6123548,43.0322581 C42.8545161,47.1090968 37.5952258,49.7219032 31.8064516,50.3580323 Z M52.3870968,55.1935484 C52.3870968,55.709 51.9670645,56.1290323 51.4516129,56.1290323 C50.9361613,56.1290323 50.516129,55.709 50.516129,55.1935484 L50.516129,43.0322581 L52.3870968,43.0322581 L52.3870968,55.1935484 Z M54.2580645,41.1612903 L3.74193548,41.1612903 C2.71009677,41.1612903 1.87096774,40.3221613 1.87096774,39.2903226 C1.87096774,38.2584839 2.71009677,37.4193548 3.74193548,37.4193548 L54.2580645,37.4193548 C55.2899032,37.4193548 56.1290323,38.2584839 56.1290323,39.2903226 C56.1290323,40.3221613 55.2899032,41.1612903 54.2580645,41.1612903 Z" id="Shape"></path>
                <path d="M36.483871,28.0645161 C34.9365806,28.0645161 33.6774194,29.3236774 33.6774194,30.8709677 C33.6774194,32.4182581 34.9365806,33.6774194 36.483871,33.6774194 C38.0311613,33.6774194 39.2903226,32.4182581 39.2903226,30.8709677 C39.2903226,29.3236774 38.0311613,28.0645161 36.483871,28.0645161 Z M36.483871,31.8064516 C35.9684194,31.8064516 35.5483871,31.3864194 35.5483871,30.8709677 C35.5483871,30.3555161 35.9684194,29.9354839 36.483871,29.9354839 C36.9993226,29.9354839 37.4193548,30.3555161 37.4193548,30.8709677 C37.4193548,31.3864194 36.9993226,31.8064516 36.483871,31.8064516 Z" id="Shape"></path>
                <path d="M29,28.0645161 C27.4527097,28.0645161 26.1935484,29.3236774 26.1935484,30.8709677 C26.1935484,32.4182581 27.4527097,33.6774194 29,33.6774194 C30.5472903,33.6774194 31.8064516,32.4182581 31.8064516,30.8709677 C31.8064516,29.3236774 30.5472903,28.0645161 29,28.0645161 Z M29,31.8064516 C28.4845484,31.8064516 28.0645161,31.3864194 28.0645161,30.8709677 C28.0645161,30.3555161 28.4845484,29.9354839 29,29.9354839 C29.5154516,29.9354839 29.9354839,30.3555161 29.9354839,30.8709677 C29.9354839,31.3864194 29.5154516,31.8064516 29,31.8064516 Z" id="Shape"></path>
                <path d="M21.516129,28.0645161 C19.9688387,28.0645161 18.7096774,29.3236774 18.7096774,30.8709677 C18.7096774,32.4182581 19.9688387,33.6774194 21.516129,33.6774194 C23.0634194,33.6774194 24.3225806,32.4182581 24.3225806,30.8709677 C24.3225806,29.3236774 23.0634194,28.0645161 21.516129,28.0645161 Z M21.516129,31.8064516 C21.0006774,31.8064516 20.5806452,31.3864194 20.5806452,30.8709677 C20.5806452,30.3555161 21.0006774,29.9354839 21.516129,29.9354839 C22.0315806,29.9354839 22.4516129,30.3555161 22.4516129,30.8709677 C22.4516129,31.3864194 22.0315806,31.8064516 21.516129,31.8064516 Z" id="Shape"></path>
            </g>
        </g>
    </g>
</svg>