<?xml version="1.0" encoding="UTF-8"?>
<svg width="58px" height="58px" viewBox="0 0 58 58" version="1.1" xmlns="http://www.w3.org/2000/svg" xmlns:xlink="http://www.w3.org/1999/xlink">
    <title>Eco installations</title>
    <g id="V2-Pages" stroke="none" stroke-width="1" fill="none" fill-rule="evenodd">
        <g id="Artboard-Copy" transform="translate(-645.000000, -93.000000)" fill="#185E30" fill-rule="nonzero">
            <g id="trees" transform="translate(645.000000, 93.000000)">
                <path d="M57.1503906,56.3007812 L50.296875,56.3007812 L50.296875,44.6759727 C54.6154961,44.1975859 58,40.1139102 58,35.1625 C58,30.2926523 54.7253789,26.2643711 50.5088242,25.6778008 C51.3506172,24.6219062 51.9258594,23.3527031 52.1463047,21.9737305 C52.2202773,21.5104102 51.9046758,21.0747305 51.4413555,21.0006445 C50.9764492,20.9274648 50.5422422,21.2422734 50.4682695,21.7055937 C50.1074687,23.9641953 48.5293477,25.8419453 46.4053242,26.6114648 C45.8980508,26.795207 45.5200313,27.2371172 45.4183047,27.7644414 C45.2603906,28.5825586 44.6851484,30.5846914 42.7593672,31.5063477 C41.0977578,32.301582 39.4676406,31.8141328 38.8449336,31.5679727 C37.7965156,31.1517773 37.0945117,30.4720898 36.659625,29.910668 L36.659625,26.2391094 L40.3712852,22.5276758 C40.7030859,22.1957617 40.7030859,21.6579023 40.3712852,21.3261016 C40.0393711,20.9945273 39.5013984,20.9943008 39.1698242,21.3261016 L36.6597383,23.8360742 L36.6597383,18.2108672 C36.6597383,17.741543 36.2794531,17.3612578 35.8101289,17.3612578 C35.3408047,17.3612578 34.9605195,17.741543 34.9605195,18.2108672 L34.9605195,22.2055039 L32.4505469,19.6955312 C32.1186328,19.3638437 31.5807734,19.3638437 31.2489727,19.6955312 C30.9171719,20.0274453 30.9171719,20.5653047 31.2489727,20.8971055 L34.9606328,24.6087656 L34.9606328,29.9112344 C34.5240469,30.4733359 33.8209102,31.1530234 32.7762305,31.5677461 C32.1523906,31.8142461 30.5223867,32.3018086 28.8610039,31.5066875 C28.0563672,31.1210781 27.4073789,30.5074336 26.9249141,29.6862578 C27.0727461,25.9309844 25.9869453,20.4428477 24.3726875,15.1836523 C24.592793,15.0645937 24.8198086,14.9572031 25.0528281,14.8649922 C25.8095469,14.5675156 26.2696953,13.8008281 26.1723867,13.002875 C26.154375,12.8510781 26.1455391,12.7042656 26.1455391,12.5540547 C26.1455391,10.8299141 27.3130156,9.33709375 28.9845937,8.92339062 C29.7888906,8.72435547 30.3505391,8.0021875 30.3505391,7.15846875 C30.3505391,4.14835937 32.7999062,1.69944531 35.8106953,1.69944531 C38.8206914,1.69944531 41.2696055,4.14835937 41.2696055,7.16753125 C41.2696055,8.00230078 41.8312539,8.72435547 42.6356641,8.92350391 C44.4684414,9.37719531 45.6754531,11.1313555 45.4479844,13.0008359 C45.3507891,13.8002617 45.8107109,14.5666094 46.5670898,14.8648789 C48.157332,15.4907578 49.4396758,16.7572422 50.0852656,18.3393281 C50.2647031,18.7789727 50.767332,18.9786875 51.1928164,18.8050273 C51.6273633,18.6277422 51.8358008,18.1319102 51.6585156,17.6974766 C50.8384727,15.6876406 49.2094883,14.0789336 47.1899102,13.2839258 C47.1559258,13.2705586 47.1311172,13.235668 47.135082,13.2045156 C47.4757187,10.4598242 45.6823633,7.92855469 43.0439297,7.27401562 C43.0011094,7.26336719 42.9689375,7.21760156 42.9689375,7.15846875 C42.9687109,3.21118359 39.7575273,-6.43929354e-15 35.8104687,-6.43929354e-15 C31.8627305,-6.43929354e-15 28.6510938,3.21118359 28.6510938,7.16730469 C28.6510938,7.217375 28.6189219,7.26325391 28.5763281,7.27378906 C26.1445195,7.87542578 24.4460938,10.0466875 24.4460938,12.5538281 C24.4460938,12.7688359 24.4591211,12.9874687 24.4852891,13.2061016 C24.5028477,13.3531406 23.9619297,13.4753711 23.8436641,13.5462852 C23.632168,12.9204062 23.4136484,12.3049492 23.1882188,11.7063711 C19.5449805,2.03101953 15.8922266,-6.43929354e-15 13.4694805,-6.43929354e-15 C9.24148438,-6.43929354e-15 6.00809766,5.95734766 4.0400625,10.9549766 C3.86810156,11.3915625 4.08265625,11.8849023 4.51924219,12.0568633 C4.95560156,12.2289375 5.44916797,12.0142695 5.62112891,11.5776836 C8.09326563,5.29975 10.9538438,1.69921875 13.4694805,1.69921875 C16.0972656,1.69921875 19.0600234,5.56494141 21.5979766,12.3051758 C23.9887773,18.6547031 25.2397422,25.5126367 25.2397422,29.0054375 C25.2397422,35.9938711 20.4140742,41.7360977 14.3190898,42.2281914 L14.3190898,35.3333281 C14.3190898,35.3329883 14.3190898,35.3325352 14.3190898,35.3321953 L14.3190898,32.0836289 L17.8649063,28.5378125 C18.196707,28.2058984 18.196707,27.6680391 17.8649063,27.3362383 C17.5329922,27.0045508 16.9951328,27.0045508 16.663332,27.3362383 L14.3192031,29.6803672 L14.3192031,26.1277539 C14.3192031,25.6584297 13.938918,25.2781445 13.4695937,25.2781445 C13.0002695,25.2781445 12.6199844,25.6584297 12.6199844,26.1277539 L12.6199844,31.7310977 L12.6199844,31.7322305 L12.6199844,33.2815781 L10.2757422,30.9373359 C9.94382812,30.6056484 9.40596875,30.6056484 9.07416797,30.9373359 C8.74236719,31.26925 8.74236719,31.8071094 9.07416797,32.1389102 L12.6199844,35.6847266 L12.6199844,42.2281914 C6.52488672,41.7360977 1.69921875,35.9938711 1.69921875,29.0054375 C1.69921875,25.7223203 2.75511328,20.1894375 4.32677734,15.2375742 C4.46871875,14.7904531 4.22119922,14.3127461 3.77396484,14.1708047 C3.32741016,14.0292031 2.84925,14.2764961 2.70719531,14.7236172 C1.06269141,19.9051016 0,25.5110508 0,29.0054375 C0,36.9356914 5.58714453,43.4430195 12.6198711,43.9316016 L12.6198711,56.3007812 L0.849609375,56.3007812 C0.380285156,56.3007812 0,56.6810664 0,57.1503906 C0,57.6197148 0.380285156,58 0.849609375,58 L57.1503906,58 C57.6197148,58 58,57.6197148 58,57.1503906 C58,56.6810664 57.6197148,56.3007812 57.1503906,56.3007812 L57.1503906,56.3007812 Z M34.9604062,56.3007812 L14.3190898,56.3007812 L14.3190898,43.9316016 C20.4275547,43.50725 25.444668,38.5416797 26.6580234,32.0473789 C27.0942695,32.4472617 27.5843242,32.7789492 28.1268281,33.0389297 C30.3916602,34.1231445 32.5694922,33.476082 33.4017695,33.1472266 C34.0058984,32.9074102 34.520875,32.6014375 34.9604062,32.2721289 L34.9604062,56.3007812 Z M48.5976563,56.3007812 L36.659625,56.3007812 L36.659625,32.2726953 C37.0989297,32.6016641 37.6140195,32.9075234 38.219168,33.1476797 C38.7052578,33.3398047 39.6517227,33.6409062 40.8070781,33.6409062 C40.8721016,33.6409062 40.8945312,34.6493359 40.8945312,35.1626133 C40.8945312,40.1140234 44.2790352,44.1976992 48.5976563,44.6760859 L48.5976563,56.3007812 Z M49.4472656,34.576043 C48.9779414,34.576043 48.5976562,34.9563281 48.5976562,35.4256523 L48.5976562,40.0958984 L48.5976562,40.0970313 L48.5976562,42.9615742 C45.2183633,42.4797891 42.59375,39.1672187 42.59375,35.1625 C42.59375,34.5396797 42.658207,33.9239961 42.7836094,33.3256445 C45.385,32.4543984 46.8788398,29.4050938 47.0683594,28.1780313 C47.6446211,27.9620039 48.186332,27.6827656 48.6868086,27.3500586 C52.8125117,26.8183164 56.3007812,30.5648672 56.3007812,35.1625 C56.3007812,39.1672187 53.676168,42.4797891 50.296875,42.9615742 L50.296875,40.4484297 L52.9832266,37.7620781 C53.3150273,37.4301641 53.3150273,36.8923047 52.9832266,36.5605039 C52.6513125,36.2288164 52.1134531,36.2288164 51.7816523,36.5605039 L50.296875,38.0452812 L50.296875,35.4256523 C50.296875,34.9563281 49.9165898,34.576043 49.4472656,34.576043 L49.4472656,34.576043 Z" id="Shape"></path>
            </g>
        </g>
    </g>
</svg>