<?xml version="1.0" encoding="UTF-8"?>
<svg width="43px" height="58px" viewBox="0 0 43 58" version="1.1" xmlns="http://www.w3.org/2000/svg" xmlns:xlink="http://www.w3.org/1999/xlink">
    <title>Art installation</title>
    <g id="V2-Pages" stroke="none" stroke-width="1" fill="none" fill-rule="evenodd">
        <g id="Artboard-Copy" transform="translate(-576.000000, -93.000000)" fill="#E75D51" fill-rule="nonzero">
            <g id="sculpture" transform="translate(576.000000, 93.000000)">
                <path d="M23.2902532,11.3281682 C23.9127775,11.3281682 24.4181105,10.8206131 24.4181105,10.1953514 C24.4181105,9.57008964 23.9127775,9.06253457 23.2902532,9.06253457 C22.6677288,9.06253457 22.1623959,9.57008964 22.1623959,10.1953514 C22.1623959,10.8206131 22.6677288,11.3281682 23.2902532,11.3281682 Z" id="Path"></path>
                <path d="M21.424883,23.5218793 C21.9377055,23.874557 22.639973,23.7444601 22.9924284,23.2271698 C24.3150173,21.287221 25.1935124,19.1282316 25.6028012,16.8103821 C25.74114,16.0315705 25.7992951,15.248334 25.7768261,14.4819126 C25.7583221,13.8566507 25.2340447,13.3610433 24.6154855,13.3836112 C23.9929612,13.4021965 23.5034887,13.9243543 23.5219927,14.549616 C23.540056,15.1607176 23.4933556,15.7877495 23.3823321,16.4134537 C23.0285551,18.4131409 22.2716571,20.274766 21.1314638,21.947441 C20.779449,22.4634036 20.9107386,23.1683165 21.424883,23.5218793 Z" id="Path"></path>
                <path d="M1.18425016,4.53126729 C0.793465203,4.53126729 0.430436135,4.73482031 0.224690377,5.06847032 C0.0193850473,5.4025627 0.000881138513,5.81940394 0.17534662,6.1707541 C3.2214424,12.2879649 4.56782205,15.2567416 4.56782205,21.5235196 L4.56782205,30.5860542 C4.56782205,35.827102 7.30816283,40.4362504 11.424842,43.0470392 L7.95139394,43.0470392 C7.32842896,43.0470392 6.82353664,43.5541517 6.82353664,44.179856 L6.82353664,48.7111233 C6.82353664,49.3368277 7.32842896,49.8439401 7.95139394,49.8439401 L9.07925124,49.8439401 L9.07925124,56.8674044 C9.07925124,57.4931088 9.58414355,58.0002213 10.2071085,58.0002213 L32.7642545,58.0002213 C33.3872194,58.0002213 33.8921118,57.4931088 33.8921118,56.8674044 L33.8921118,49.8439401 L35.0199691,49.8439401 C35.642934,49.8439401 36.1478264,49.3368277 36.1478264,48.7111233 L36.1478264,44.179856 C36.1478264,43.5541517 35.642934,43.0470392 35.0199691,43.0470392 L34.2974355,43.0470392 C34.9076239,42.6408181 35.4614194,42.1845939 35.9491296,41.6814639 C37.6237334,39.9530333 38.4731509,37.7161625 38.4053032,35.2120179 C38.3801908,34.2854091 38.7194291,33.4105736 39.3617791,32.7476987 C40.004129,32.0843814 40.8658825,31.718871 41.7871128,31.718871 C42.1778978,31.718871 42.5409269,31.5157605 42.7466726,31.181668 C42.951978,30.8480181 42.9709225,30.4307343 42.7960164,30.0793842 L41.5923813,27.6610858 C41.5923813,27.6610858 41.5923813,27.6610858 41.5923813,27.6606432 C40.7508939,25.9715957 39.0599891,24.9219701 37.1800802,24.9219701 C35.4526081,24.9219701 33.8291103,25.8472513 32.9440067,27.3362859 C32.9409227,27.3411535 32.9391604,27.3464636 32.9360765,27.3513311 C32.9329925,27.3566413 32.929468,27.3619512 32.9259434,27.3672614 L31.1566173,30.5696815 C30.2812061,28.5801719 28.2986445,27.1876037 25.9971107,27.1876037 C25.9164865,27.1876037 25.8358623,27.1911438 25.7556787,27.1946838 L26.714798,25.7870704 C30.4398111,20.3194593 31.5570947,13.6530978 28.5211319,7.87219195 C25.9711171,3.01656727 20.9539144,0 15.4269731,0 L12.4628231,0 C12.0469257,0 11.6645116,0.230103417 11.4684583,0.598268884 C11.2719644,0.966876829 11.2935523,1.41380852 11.5244107,1.76161863 L12.3037777,2.93470358 C14.3889919,6.07650023 14.6070737,9.10811278 14.2057151,11.7348318 C11.4975359,7.43101282 6.69004413,4.53126729 1.18425016,4.53126729 Z M6.82353664,30.5860542 L6.82353664,21.5235196 C6.82353664,15.2085083 5.43133779,11.7410268 3.07385167,6.93540546 C7.65312858,7.60978547 11.6266227,10.6971539 13.38141,15.0673487 C12.2191884,18.6503245 10.4322395,21.9319532 9.9797748,24.9259526 L9.9797748,24.9263951 C9.5656397,27.6659533 9.67181686,30.46879 10.2872922,33.032673 C10.9318449,35.7186879 12.1420887,38.1542441 13.7876149,40.0769351 C14.7136914,41.1593062 15.7692954,42.0797199 16.9385662,42.8333085 C11.1886968,41.7500524 6.82353664,36.6709621 6.82353664,30.5860542 Z M11.3349658,49.8439401 L31.6363972,49.8439401 L31.6363972,55.7345876 L11.3349658,55.7345876 L11.3349658,49.8439401 Z M33.8921118,45.3126729 L33.8921118,47.5783065 C32.7999405,47.5783065 10.8331574,47.5783065 9.07925124,47.5783065 L9.07925124,45.3126729 L33.8921118,45.3126729 Z M25.9971107,29.4532374 C28.3660515,29.4532374 29.9842624,31.8379052 29.1705311,34.0309678 C28.6832614,35.3584875 27.4078134,36.2501383 25.9971107,36.2501383 C24.1312999,36.2501383 22.6135388,34.7257032 22.6135388,32.8516878 C22.6135388,30.9759024 24.1370272,29.4532374 25.9971107,29.4532374 L25.9971107,29.4532374 Z M15.4269731,2.26563364 C20.11463,2.26563364 24.367445,4.8188965 26.5257938,8.92889753 C28.9991497,13.6389376 28.3894018,19.3171819 24.8529524,24.5077839 C24.7018371,24.7299223 21.5817255,29.3089802 21.4323726,29.5284634 C20.7296647,30.4997654 20.3578242,31.6476275 20.3578242,32.8516878 C20.3578242,35.9748991 22.8875729,38.5157719 25.9971107,38.5157719 C28.1946701,38.5157719 30.1957356,37.2156877 31.1103575,35.2412233 C31.3099354,35.0345727 31.1147632,35.285474 34.886036,28.4894581 C35.3675782,27.6863086 36.2451921,27.1876037 37.1800802,27.1876037 C38.2004385,27.1876037 39.1181443,27.7575522 39.5750146,28.6744258 L40.0913618,29.7116612 C39.2111044,29.9891128 38.4083872,30.4833927 37.7448899,31.1679503 C36.6747472,32.2728892 36.1081752,33.7309484 36.1504698,35.2739687 C36.2020164,37.1789596 35.5900657,38.8034011 34.3322405,40.101273 C32.5184168,41.9735183 29.4806918,43.0470392 25.9971107,43.0470392 C21.6187335,43.0470392 17.9880021,41.5093288 15.4983452,38.5998482 C12.6756181,35.3022892 11.4464298,30.3174527 12.2099363,25.2662401 C12.6068893,22.6381937 14.3533058,19.3817878 15.5230171,15.7788992 C15.6635587,15.5833114 15.7393367,15.3452429 15.7362528,15.1000942 C16.7046239,11.8737788 17.5179147,7.17966908 14.5528837,2.26563364 L15.4269731,2.26563364 Z" id="Shape"></path>
            </g>
        </g>
    </g>
</svg>