<?xml version="1.0" encoding="UTF-8"?>
<svg width="50px" height="50px" viewBox="0 0 50 50" version="1.1" xmlns="http://www.w3.org/2000/svg" xmlns:xlink="http://www.w3.org/1999/xlink">
    <title>Group 10</title>
    <g id="Symbols" stroke="none" stroke-width="1" fill="none" fill-rule="evenodd">
        <g id="Menu/White" transform="translate(-284.000000, -27.000000)">
            <g id="Group-10" transform="translate(284.000000, 27.000000)">
                <circle id="Oval" fill="#FFFFFF" cx="25" cy="25" r="25"></circle>
                <g id="068-map-1" transform="translate(12.000000, 13.000000)" fill="#242655" fill-rule="nonzero">
                    <path d="M9.61373823,0.186551675 C9.37069879,0.00828866319 9.05609134,-0.0460414395 8.76583794,0.0401263121 L0.682726874,2.42810431 C0.277548297,2.54788779 0.000112141137,2.91471336 0,3.33080452 L0,22.0573836 C0,22.3553176 0.14329901,22.6356968 0.386261767,22.8136585 C0.551658203,22.9346739 0.752320563,23 0.958469675,23 C1.0507873,23 1.14376037,22.9868103 1.23421248,22.9604309 L9.31727313,20.5721554 C9.72247172,20.4524 10,20.0855572 10,19.6694552 L10,0.942876109 C10,0.644902322 9.85679079,0.364461443 9.61373823,0.186551675 Z M8.08306065,18.9677738 L1.91693935,20.7895373 L1.91693935,4.03179177 L8.08306065,2.2100282 L8.08306065,18.9677738 L8.08306065,18.9677738 Z" id="Shape"></path>
                    <path d="M17.400616,3.29822912 L9.31144738,0.0687107078 C9.01713141,-0.0491954608 8.6831048,-0.0138325856 8.42036276,0.163048442 C8.1575603,0.339694616 8,0.634490453 8,0.949879107 L8,19.8205738 C8,20.2085253 8.23726404,20.557499 8.59938382,20.702042 L16.6885525,23.9316104 C16.983034,24.0490565 17.3169247,24.01372 17.5799387,23.8372726 C17.8427148,23.6606374 18.0001166,23.3658028 18,23.050442 L18,4.17969732 C17.9998935,3.79178803 17.7626447,3.44288431 17.400616,3.29822912 L17.400616,3.29822912 Z M16.0891184,21.6452694 L9.91078094,19.1784476 L9.91078094,2.35500168 L16.0891184,4.82182349 L16.0891184,21.6452694 Z" id="Shape"></path>
                    <path d="M25.6308976,2.20816462 C25.3973747,2.03101963 25.0910061,1.96197353 24.7970094,2.02023178 L16.7903719,3.60717661 C16.3295707,3.69836848 16,4.07953774 16,4.52047033 L16,23.0664025 C16,23.3479356 16.1356405,23.6144361 16.3691024,23.7917634 C16.6025603,23.9690317 16.9089919,24.038092 17.2029906,23.9796963 L25.2096281,22.3927023 C25.6704307,22.3014996 26.0001136,21.920543 26,21.4794086 L26,2.93347639 C26,2.65194139 25.864418,2.3854274 25.6308976,2.20816462 L25.6308976,2.20816462 Z M24.0066375,20.7229629 L17.9933624,21.914743 L17.9933624,5.27725975 L24.0066375,4.08543059 L24.0066375,20.7229629 Z" id="Shape"></path>
                </g>
            </g>
        </g>
    </g>
</svg>