<?xml version="1.0" encoding="UTF-8"?>
<svg width="480px" height="480px" viewBox="0 0 480 480" version="1.1" xmlns="http://www.w3.org/2000/svg" xmlns:xlink="http://www.w3.org/1999/xlink">
    <title>010-beach umbrella</title>
    <g id="Page-1" stroke="none" stroke-width="1" fill="none" fill-rule="evenodd">
        <g id="010-beach-umbrella" fill="#FFFFFF" fill-rule="nonzero">
            <path d="M479.967,183.276 L479.959,183.197 L479.959,183.171 C479.672,180.161 474.972,136.003 443.542,91.393 C424.844978,64.8264862 399.967884,43.2052729 371.055,28.393 C334.653,9.554 290.562,0 240,0 C189.438,0 145.347,9.554 108.947,28.4 C80.0341158,43.2122729 55.1570223,64.8334862 36.46,91.4 C5.03,136 0.33,180.161 0.043,183.171 L0.043,183.197 L0.035,183.276 L0.035,183.276 C0.013,183.515 -0.002,183.756 -0.002,184 L-0.002,232 C-0.002,236.418278 3.579722,240 7.998,240 L103.998,240 C106.672607,239.999954 109.170262,238.663319 110.654,236.438 L136,198.422 L161.344,236.438 C162.827738,238.663319 165.325393,239.999954 168,240 L232,240 L232,383.569 C221.104489,384.209056 210.637392,388.037371 201.9,394.578 L161.707,424.72 L152.062,417.005 C137.976164,405.781105 118.135185,405.325498 103.549,415.891 L35.3,465.53 C32.4983438,467.567465 31.3263573,471.176645 32.3965207,474.471382 C33.466684,477.766119 36.5358209,480 40,480 L440,480 C443.464179,480 446.533316,477.766119 447.603479,474.471382 C448.673643,471.176645 447.501656,467.567465 444.7,465.53 L374.726,414.64 C361.170344,404.83565 342.956001,404.464303 329.012,413.708 L305.012,429.708 L275.094,399.78 C267.651858,392.354183 258.25753,387.189626 248,384.885 L248,328 L264,328 L264,336 C264,340.418278 267.581722,344 272,344 C276.418278,344 280,340.418278 280,336 L280,304 C280,299.581722 276.418278,296 272,296 C267.581722,296 264,299.581722 264,304 L264,312 L248,312 L248,240 L312,240 C314.674607,239.999954 317.172262,238.663319 318.656,236.438 L344,198.422 L369.344,236.438 C370.827738,238.663319 373.325393,239.999954 376,240 L472,240 C476.418278,240 480,236.418278 480,232 L480,184 C480,183.756 479.985,183.515 479.963,183.276 L479.967,183.276 Z M112.959,428.831 C121.710557,422.489542 133.617016,422.763183 142.068,429.5 L148.488,434.635 L109.334,464 L64.6,464 L112.959,428.831 Z M298.343,445.657 C301.039332,448.353417 305.264012,448.771951 308.437,446.657 L337.892,427.021 C346.259544,421.477643 357.186684,421.700735 365.321,427.581 L415.4,464 L136,464 L211.5,407.378 C227.450351,395.522907 249.669714,397.102143 263.783,411.094 L298.343,445.657 Z M430.043,100.019 C446.075117,122.804473 457.181039,148.681963 462.652,176 L351.852,176 C349.676,111.693 321.59,68.106 297.865,42.556 C289.263788,33.2958533 279.851999,24.8231343 269.742,17.239 C305.147,20.214 336.522,28.618 363.272,42.383 C389.860306,55.9158131 412.771604,75.6925956 430.043,100.019 L430.043,100.019 Z M335.85,176 L144.15,176 C145.816,128.637 162.361,87.6 193.414,53.928 C206.893348,39.2259456 222.622703,26.7585754 240.014,16.992 C257.215405,26.6350943 272.783675,38.9376998 286.142,53.444 C317.48,87.2 334.176,128.4 335.85,176 Z M49.54,100.607 C66.7634831,76.1473599 89.6759265,56.2422969 116.303,42.607 C143.148,28.707 174.667,20.233 210.261,17.242 C200.151001,24.8261343 190.739212,33.2988533 182.138,42.559 C158.413,68.106 130.327,111.693 128.151,176 L17.331,176 C22.7362631,148.911468 33.7037993,123.239282 49.54,100.607 Z M99.719,224 L16,224 L16,192 L121.052,192 L99.719,224 Z M307.719,224 L172.281,224 L150.948,192 L329.048,192 L307.719,224 Z M464,224 L380.281,224 L358.948,192 L464,192 L464,224 Z" id="Shape"></path>
            <circle id="Oval" cx="232" cy="424" r="8"></circle>
            <circle id="Oval" cx="200" cy="448" r="8"></circle>
            <circle id="Oval" cx="264" cy="448" r="8"></circle>
            <circle id="Oval" cx="352" cy="448" r="8"></circle>
        </g>
    </g>
</svg>