<?xml version="1.0" encoding="UTF-8"?>
<svg width="27px" height="25px" viewBox="0 0 27 25" version="1.1" xmlns="http://www.w3.org/2000/svg" xmlns:xlink="http://www.w3.org/1999/xlink">
    <title>Icon/Football</title>
    <g id="2.-V0.8" stroke="none" stroke-width="1" fill="none" fill-rule="evenodd">
        <g id="4,0-Event-Single" transform="translate(-712.000000, -3632.000000)" fill="#FFFFFF">
            <g id="White-area" transform="translate(0.000000, 1080.000000)">
                <g id="Group-2-Copy-3" transform="translate(131.000000, 2031.000000)">
                    <g id="Card/Events" transform="translate(0.000000, 87.000000)">
                        <g id="Icon/Activites" transform="translate(565.000000, 417.000000)">
                            <g id="Group" transform="translate(15.733333, 15.733333)">
                                <g id="073-like" transform="translate(0.983333, 1.966667)">
                                    <path d="M23.6850677,2.34325385 C22.1824276,0.84061371 20.1719886,0.0131441047 18.0234603,0.0131441047 C16.1737448,0.0131441047 14.4265431,0.626603325 13.0173834,1.75598134 C11.5879747,0.626603325 9.83859077,0.0131441047 8.00694201,0.0131441047 C5.84846686,0.0131441047 3.83269914,0.840968956 2.33010975,2.34325385 C0.827469605,3.8455895 0,5.85638378 0,8.00455679 C0,10.1530343 0.827469605,12.1635241 2.33010975,13.665809 L12.331048,23.6667472 C12.5060414,23.8424146 12.7439017,23.9409857 12.9918564,23.9405923 C13.230531,23.9405923 13.4691549,23.8495974 13.6517514,23.6679652 L23.6607588,13.6894582 C25.1590345,12.1575864 25.9837128,10.1443054 25.9837128,8.02013686 C25.9837128,5.87632831 25.1699456,3.86304731 23.6850677,2.34325385 Z M22.3325952,12.373779 L12.9927699,21.6849308 L3.65172664,12.3441921 C2.50240409,11.194565 1.86930484,9.65330457 1.86930484,8.00455679 C1.86930484,6.35580901 2.50240409,4.81454854 3.65172664,3.6649215 C4.80135369,2.51559895 6.34794284,1.8824997 8.00694201,1.8824997 C9.63950072,1.8824997 11.1891856,2.51839017 12.3696683,3.67238166 C12.7354195,4.03036821 13.322083,4.02722174 13.683825,3.6649215 C14.8334521,2.51559895 16.374408,1.8824997 18.0234603,1.8824997 C19.6725126,1.8824997 21.2134686,2.51559895 22.3553309,3.65741058 C23.4896824,4.81794875 24.1143572,6.36732913 24.1143572,8.02013686 C24.1143572,9.65300007 23.478822,11.2023297 22.3325952,12.373779 L22.3325952,12.373779 Z" id="Shape"></path>
                                </g>
                            </g>
                        </g>
                    </g>
                </g>
            </g>
        </g>
    </g>
</svg>