<?xml version="1.0" encoding="UTF-8"?>
<svg width="59px" height="59px" viewBox="0 0 59 59" version="1.1" xmlns="http://www.w3.org/2000/svg" xmlns:xlink="http://www.w3.org/1999/xlink">
    <title>Icon/Activites</title>
    <g id="Symbols" stroke="none" stroke-width="1" fill="none" fill-rule="evenodd">
        <g id="Card/OfferPackage/Detailed" transform="translate(-363.000000, -230.000000)">
            <g id="Group-2" transform="translate(363.000000, 230.000000)">
                <circle id="Oval" fill="#C2D1D9" cx="29.5" cy="29.5" r="29.5"></circle>
                <g id="push-pin" transform="translate(15.733333, 15.733333)" fill="#FFFFFF">
                    <path d="M21.9487169,20.2895805 L28.14217,14.0961274 C28.7446332,13.4936642 28.5341213,12.4714001 27.7426587,12.1559935 C24.4526803,10.8448383 21.5492056,10.6386622 19.2202333,11.0885363 C19.1462456,11.1028224 19.0758712,11.1172753 19.0089988,11.1316726 L11.5285712,4.76728626 C11.5998351,3.61383434 11.3648645,2.53926186 10.9231063,1.575254 C10.6881912,1.06262105 10.4452714,0.68467794 10.2602744,0.454821378 C9.81801595,-0.0946664392 8.99675819,-0.13897011 8.49796667,0.359765822 L0.347425276,8.50908428 C-0.15375653,9.01021049 -0.106395517,9.83619324 0.448873457,10.2767285 C0.902027193,10.636272 1.40804516,10.9128781 1.95436446,11.1152186 C2.88090598,11.4583635 3.82529126,11.5670382 4.69585562,11.5329627 L11.1162747,19.0798735 C11.1051571,19.144578 11.0940395,19.2128957 11.0829775,19.2847155 C10.7103152,21.7085765 10.9302215,24.6167207 12.1694458,27.7297623 C12.48463,28.5215584 13.5072833,28.7322927 14.1098577,28.1296071 L20.2717368,21.9666162 L26.4345609,28.1294404 C26.8976649,28.5925443 27.6485482,28.5925443 28.1116522,28.1294404 C28.5747562,27.6663364 28.5747562,26.9154531 28.1116522,26.4523491 L21.9487169,20.2895805 Z M13.7873358,25.0977796 C13.2440739,23.084325 13.1840388,21.2266838 13.4271809,19.6452039 C13.4725963,19.3496979 13.5153435,19.1549174 13.5382458,19.072925 C13.6441966,18.6933143 13.5546443,18.2858539 13.2992728,17.9856785 L6.10806988,9.53273811 C5.83963522,9.21722037 5.42600458,9.06463119 5.01698775,9.13022508 C5.00470279,9.13217066 4.95945413,9.13795182 4.88602232,9.14462238 C4.35865854,9.19248369 3.7628103,9.1645229 3.19147638,9.01932693 L9.00531875,3.20637398 C9.17069318,3.78571257 9.21916595,4.41029984 9.11038015,5.06918493 C9.04256274,5.47981381 9.19498515,5.89589032 9.51194818,6.16554792 L17.9447101,13.34013 C18.2685104,13.6156244 18.7150492,13.6966717 19.1150052,13.5526431 C19.1866582,13.5268503 19.3746569,13.474264 19.6700518,13.4172306 C21.1702063,13.1274502 23.00917,13.1745332 25.1185695,13.7655453 L19.0439081,19.8402068 L13.7873358,25.0977796 Z" id="Shape"></path>
                </g>
            </g>
        </g>
    </g>
</svg>