<?xml version="1.0" encoding="UTF-8"?>
<svg width="18px" height="25px" viewBox="0 0 18 25" version="1.1" xmlns="http://www.w3.org/2000/svg" xmlns:xlink="http://www.w3.org/1999/xlink">
    <title>Icon/Location</title>
    <g id="Symbols" stroke="none" stroke-width="1" fill="none" fill-rule="evenodd">
        <g id="Card/Events" transform="translate(-32.000000, -473.000000)" fill="#212237">
            <g id="pin-(2)" transform="translate(32.000000, 473.000000)">
                <path d="M16.4138308,4.28112375 C14.8862668,1.66276693 12.1730011,0.0631102899 9.15577596,0.00197753713 C9.02697548,-0.000659179044 8.89733926,-0.000659179044 8.76848962,0.00197753713 C5.75131368,0.0631102899 3.0380479,1.66276693 1.51043482,4.28112375 C-0.0510006799,6.95748832 -0.0937211461,10.1723289 1.39613668,12.8808712 L7.63770002,24.2278816 C7.64050217,24.2329109 7.64330432,24.2379402 7.64620478,24.2429207 C7.92081528,24.7169925 8.41276431,25 8.96223111,25 C9.51164875,25 10.0035978,24.7169436 10.2781591,24.2429207 C10.2810596,24.2379402 10.2838617,24.2329109 10.2866639,24.2278816 L16.5282272,12.8808712 C18.0179867,10.1723289 17.9752663,6.95748832 16.4138308,4.28112375 Z M8.96213279,11.3281384 C7.01041216,11.3281384 5.42257748,9.75104028 5.42257748,7.81251678 C5.42257748,5.87399329 7.01041216,4.29689522 8.96213279,4.29689522 C10.9138534,4.29689522 12.5016881,5.87399329 12.5016881,7.81251678 C12.5016881,9.75104028 10.9139026,11.3281384 8.96213279,11.3281384 Z" id="Shape"></path>
            </g>
        </g>
    </g>
</svg>