<?xml version="1.0" encoding="UTF-8"?>
<svg width="27px" height="25px" viewBox="0 0 27 25" version="1.1" xmlns="http://www.w3.org/2000/svg" xmlns:xlink="http://www.w3.org/1999/xlink">
    <title>map (1)</title>
    <g id="Symbols" stroke="none" stroke-width="1" fill="none" fill-rule="evenodd">
        <g id="Card/Events/Detailed" transform="translate(-802.000000, -302.000000)" fill="#242655" fill-rule="nonzero">
            <g id="map-(1)" transform="translate(802.000000, 302.000000)">
                <path d="M26.3631797,5.03543523 C17.202375,3.22980755 17.795373,3.32409743 17.587916,3.35871746 C17.5215762,3.36969964 16.7085176,3.53176527 14.8134023,3.90761739 C14.0189063,1.63566533 11.8392363,0 9.28125,0 C6.72089063,0 4.53948047,1.6387508 3.74683008,3.91404981 L0.945210937,3.36195981 C0.456890625,3.26594416 0,3.6361483 0,4.13139243 L0,22.539622 C0,22.9139052 0.266677734,23.2360493 0.636820313,23.3090023 C9.72021094,25.0994118 9.12552539,24.9838374 9.18574805,24.9911066 C9.37675195,25.0143784 8.78644336,25.1112308 17.7192246,23.339491 L26.0547891,24.9824777 C26.543373,25.0786503 27,24.7078186 27,24.2130974 L27,5.80486785 C27,5.43058461 26.7333223,5.1084406 26.3631797,5.03543523 Z M9.28125,1.5688832 C11.6365254,1.5688832 13.5527344,3.46911454 13.5527344,5.80486785 C13.5527344,7.77554204 10.372957,12.7779261 9.28125,14.4331502 C8.19075586,12.7797565 5.00976562,7.77596041 5.00976562,5.80486785 C5.00976562,3.46911454 6.92597461,1.5688832 9.28125,1.5688832 Z M1.58203125,5.08699919 L3.43880859,5.45291505 C3.43174219,5.56937848 3.42773438,5.68662635 3.42773438,5.80481555 C3.42773438,7.11295037 4.29062695,9.22398731 6.06577148,12.2586258 C7.10231836,14.0305748 8.12415234,15.5519208 8.49023438,16.087799 L8.49023438,23.2573338 L1.58203125,21.8957 L1.58203125,5.08699919 Z M10.0722656,16.087799 C10.4382949,15.5519208 11.4601816,14.0306271 12.4967285,12.2586258 C14.271873,9.22398731 15.1347656,7.11295037 15.1347656,5.80486785 C15.1347656,5.68437762 15.1305996,5.56482872 15.1232695,5.44616885 L16.9277344,5.088202 L16.9277344,21.8965368 L10.0722656,23.2562356 L10.0722656,16.087799 Z M25.4179688,23.2573861 L18.5097656,21.8957523 L18.5097656,5.08705149 L25.4179688,6.44868522 L25.4179688,23.2573861 Z" id="Shape"></path>
                <path d="M9.5,8 C10.8785106,8 12,6.87851064 12,5.5 C12,4.12148936 10.8785106,3 9.5,3 C8.12148936,3 7,4.12148936 7,5.5 C7,6.87851064 8.12148936,8 9.5,8 Z M9.5,4.59574468 C9.99861702,4.59574468 10.4042553,5.00138298 10.4042553,5.5 C10.4042553,5.99861702 9.99861702,6.40425532 9.5,6.40425532 C9.00138298,6.40425532 8.59574468,5.99861702 8.59574468,5.5 C8.59574468,5.00138298 9.00138298,4.59574468 9.5,4.59574468 Z" id="Shape"></path>
            </g>
        </g>
    </g>
</svg>