<?xml version="1.0" encoding="UTF-8"?>
<svg width="56px" height="49px" viewBox="0 0 56 49" version="1.1" xmlns="http://www.w3.org/2000/svg" xmlns:xlink="http://www.w3.org/1999/xlink">
    <title>Outdoor gym</title>
    <g id="V2-Pages" stroke="none" stroke-width="1" fill="none" fill-rule="evenodd">
        <g id="Artboard-Copy" transform="translate(-992.000000, -198.000000)" fill="#7D9831" fill-rule="nonzero">
            <g id="dumbbell-(1)" transform="translate(992.000000, 198.000000)">
                <path d="M55.1188044,36.2834336 C55.5713349,36.2834336 55.9382102,35.9191909 55.9382102,35.4696652 L55.9382102,33.8958373 C55.9382102,32.304866 54.7150013,31.0105404 53.2115556,31.0105404 L51.8854292,31.0105404 L51.8854292,29.3430749 C51.8854292,28.1763481 50.9295651,27.2271687 49.754865,27.2271687 L43.1591948,27.2271687 C41.9843854,27.2271687 41.0286305,28.1764566 41.0286305,29.3430749 L41.0286305,33.6854511 C35.1366659,33.0028622 27.8025472,33.0017772 21.9006406,33.6854511 L21.9006406,29.3430749 C21.9006406,28.1763481 20.9447764,27.2271687 19.7700763,27.2271687 L19.2489342,27.2271687 C23.7409167,24.5105931 28.7645296,20.8268267 32.6813985,17.2391935 L35.2534586,20.7507665 C35.9454741,21.6958228 37.2815425,21.9023029 38.2297589,21.217327 L43.5636534,17.3644053 C43.5636534,17.3644053 43.5636534,17.3644053 43.5636534,17.3642968 C44.5136179,16.6781273 44.724369,15.352119 44.0333368,14.4084733 L43.0456797,13.0600049 L44.118118,12.285406 C45.3340069,11.4069702 45.5565575,9.64575858 44.6142409,8.35913662 L40.1665064,2.28636345 C39.2240805,0.999958504 37.4684763,0.667615525 36.2525873,1.54594279 L35.1800398,2.32075873 L34.192492,0.972398884 C33.501569,0.0286446446 32.1663746,-0.180439561 31.2161917,0.505729881 L25.8822971,4.35865159 C24.9323327,5.04482103 24.7215815,6.37082937 25.4126137,7.31447511 L27.9845646,10.8260481 C22.8140049,13.7168787 16.8835829,17.9995786 12.5158223,22.0001721 L10.623869,19.4172715 C9.558423,17.9625792 7.49701658,17.639242 6.03246532,18.6975748 L2.56845472,21.1997496 C1.10292017,22.2586249 0.777889216,24.304113 1.8438815,25.7596732 L2.15132255,26.1794692 L1.07899353,26.9540681 C-0.161149803,27.8497558 -0.340217278,29.6199731 0.582870642,30.8803375 L5.03060519,36.9528936 C5.51722297,37.6174711 6.23043376,38.0400881 6.99106083,38.1523881 L6.99106083,41.4050743 C6.99106083,42.9960456 8.21426977,44.2904798 9.71771548,44.2904798 L11.0438418,44.2904798 L11.0438418,45.9578368 C11.0438418,47.1245635 11.9997059,48.0737429 13.1744061,48.0737429 L19.7700763,48.0737429 C20.9448857,48.0737429 21.9006406,47.124455 21.9006406,45.9578368 L21.9006406,41.6158946 C24.2293918,41.8849806 26.8472293,42.0541359 29.5360821,42.1078446 C29.5417633,42.1080616 29.5473353,42.1080616 29.5529072,42.1080616 C29.9977899,42.1080616 30.3629171,41.7543437 30.3719852,41.3105687 C30.3810533,40.8612601 30.0216073,40.4896392 29.5690768,40.4806335 C26.8579362,40.4263823 24.2241476,40.2531039 21.9006406,39.9771822 L21.9006406,35.323621 C27.6973355,34.6336539 35.1116467,34.6193316 41.0286305,35.323621 L41.0286305,39.9771822 C38.705342,40.2531039 36.071444,40.4263823 33.3601942,40.4806335 C32.907773,40.4896392 32.5482177,40.8612601 32.5572858,41.3104602 C32.5663539,41.7543437 32.9312626,42.1080616 33.3763638,42.1080616 C33.3819358,42.1080616 33.387617,42.1080616 33.393189,42.1078446 C36.0821509,42.0541359 38.6999885,41.8849806 41.0286305,41.6158946 L41.0286305,45.9578368 C41.0286305,47.1245635 41.9844946,48.0737429 43.1591948,48.0737429 L49.754865,48.0737429 C50.9296744,48.0737429 51.8854292,47.124455 51.8854292,45.9578368 L51.8854292,44.2904798 L53.2115556,44.2904798 C54.7150013,44.2904798 55.9382102,42.9960456 55.9382102,41.4050743 L55.9382102,39.2675762 C55.9382102,38.8180506 55.5713349,38.4538079 55.1188044,38.4538079 C54.6662739,38.4538079 54.2993987,38.8180506 54.2993987,39.2675762 L54.2993987,41.4050743 C54.2993987,42.0867952 53.8013092,42.6628346 53.2116648,42.6628346 L51.8855385,42.6628346 L51.8855385,32.638294 L53.2116648,32.638294 C53.8012,32.638294 54.2993987,33.214225 54.2993987,33.8959458 L54.2993987,35.4697737 C54.2992894,35.9191909 54.6662739,36.2834336 55.1188044,36.2834336 Z M37.2165363,2.86218591 C37.693212,2.51801617 38.4374509,2.6925966 38.8410356,3.2438975 L43.2887701,9.31667067 C43.6925733,9.86786308 43.6308447,10.6247761 43.1540598,10.9691629 L42.0816215,11.7437618 C41.4176843,10.8368984 36.8189606,4.55818758 36.144098,3.63678485 L37.2165363,2.86218591 Z M26.7379752,6.35726657 C26.5813049,6.14319125 26.6309062,5.83081272 26.8463553,5.67511172 L32.1802499,1.82208151 C32.3966823,1.66594649 32.7107878,1.71640013 32.8670212,1.92982443 C33.1987167,2.38271362 40.8423522,12.8189125 41.2381799,13.3594717 C41.2383984,13.3596887 41.2385076,13.3599057 41.2387261,13.3601227 L42.7078661,15.3658988 C42.8646457,15.5799741 42.8150443,15.8923527 42.599486,16.0480537 L37.2654821,19.9010839 C37.0489405,20.0573274 36.7375663,20.0102373 36.5788201,19.7933409 C36.2555372,19.3520615 27.1281216,6.88990506 26.7379752,6.35726657 Z M28.9548503,12.15108 L31.711222,15.9143787 C27.4480177,19.8439031 21.4681036,24.1879068 16.242152,27.0878516 L13.4862173,23.3250954 C17.73795,19.4058787 23.7214694,15.0550393 28.9548503,12.15108 Z M6.99106083,33.8958373 L6.99106083,36.4790635 C6.74731492,36.3888979 6.52203296,36.2220212 6.35618523,35.9954681 L1.90845068,29.9228034 C1.48618357,29.3464384 1.58057911,28.6044987 2.04316099,28.2703112 L3.11549001,27.4957123 C3.2455024,27.6733308 4.26342288,29.0630301 7.13254489,32.9805107 C7.03487172,33.2887662 6.99106083,33.6068953 6.99106083,33.8958373 Z M11.0438418,42.6627261 L9.71771548,42.6627261 C9.12818034,42.6627261 8.62998163,42.0867952 8.62998163,41.4049658 C8.62998163,40.6697533 8.62998163,34.6621901 8.62998163,33.8957288 C8.62998163,33.6114524 8.72448643,33.304499 8.91163871,33.0634066 C9.13451708,32.7757666 9.43594915,32.638077 9.71771548,32.638077 L11.0437325,32.638077 L11.0437325,42.6627261 L11.0438418,42.6627261 Z M11.0438418,29.3429664 L11.0438418,31.0104319 L9.71771548,31.0104319 C9.65117974,31.0104319 9.58529951,31.0137955 9.5198563,31.0188951 C9.50827537,31.0197631 9.49669443,31.0206311 9.4851135,31.0217161 C8.97773744,31.0672872 8.50969286,31.260313 8.11932795,31.5603223 L3.16935229,24.8020307 C2.63488121,24.0724602 2.79777908,23.0467867 3.53251293,22.5159927 L6.99652353,20.0138179 C7.72797975,19.4850855 8.76600299,19.6475137 9.29839824,20.3745885 C9.89503489,21.1891164 13.678723,26.3552431 14.317204,27.2269517 L13.1742968,27.2269517 C11.9997059,27.2269517 11.0438418,28.1762396 11.0438418,29.3429664 Z M20.261829,45.9577283 C20.261829,46.2223657 20.0366563,46.4459893 19.7701855,46.4459893 L13.1745153,46.4459893 C12.9080446,46.4459893 12.6828719,46.2223657 12.6828719,45.9577283 C12.6828719,45.1918095 12.6828719,29.8424031 12.6828719,29.3430749 C12.6828719,29.0784374 12.9080446,28.8548139 13.1745153,28.8548139 C14.8420607,28.8548139 15.762745,28.8548139 16.2420428,28.8548139 C16.5875043,28.8548139 16.7037506,28.8548139 16.7047339,28.8548139 C17.1838132,28.8548139 18.1039512,28.8548139 19.7701855,28.8548139 C20.0366563,28.8548139 20.261829,29.0784374 20.261829,29.3430749 C20.261829,30.350086 20.261829,45.3385048 20.261829,45.9577283 Z M50.2466177,45.9577283 C50.2466177,46.2223657 50.021445,46.4459893 49.7549742,46.4459893 L43.159304,46.4459893 C42.8928332,46.4459893 42.6676605,46.2223657 42.6676605,45.9577283 L42.6676605,29.3430749 C42.6676605,29.0784374 42.8928332,28.8548139 43.159304,28.8548139 L49.7549742,28.8548139 C50.021445,28.8548139 50.2466177,29.0784374 50.2466177,29.3430749 C50.2466177,30.3454204 50.2466177,45.4199902 50.2466177,45.9577283 Z" id="Shape"></path>
            </g>
        </g>
    </g>
</svg>