<?xml version="1.0" encoding="UTF-8"?>
<svg width="58px" height="49px" viewBox="0 0 58 49" version="1.1" xmlns="http://www.w3.org/2000/svg" xmlns:xlink="http://www.w3.org/1999/xlink">
    <title>Beach sports</title>
    <g id="V2-Pages" stroke="none" stroke-width="1" fill="none" fill-rule="evenodd">
        <g id="Artboard-Copy" transform="translate(-1069.000000, -193.000000)" fill="#242655" fill-rule="nonzero">
            <g id="beach-volleyball" transform="translate(1069.000000, 193.000000)">
                <path d="M11.7908789,39.2335703 C12.2602031,39.2335703 12.6404883,38.8531719 12.6404883,38.3839609 C12.6404883,37.91475 12.2602031,37.5343516 11.7908789,37.5343516 L6.37660156,37.5343516 C5.90727734,37.5343516 5.52699219,37.91475 5.52699219,38.3839609 C5.52699219,38.8531719 5.90727734,39.2335703 6.37660156,39.2335703 L11.7908789,39.2335703 Z" id="Path"></path>
                <path d="M17.2283789,39.2335703 C17.6977031,39.2335703 18.0779883,38.8531719 18.0779883,38.3839609 C18.0779883,37.91475 17.6977031,37.5343516 17.2283789,37.5343516 L15.2125391,37.5343516 C14.7432148,37.5343516 14.3629297,37.91475 14.3629297,38.3839609 C14.3629297,38.8531719 14.7432148,39.2335703 15.2125391,39.2335703 L17.2283789,39.2335703 Z" id="Path"></path>
                <path d="M26.2008203,42.0757969 C25.7314961,42.0757969 25.3512109,42.456082 25.3512109,42.9254063 C25.3512109,43.3947305 25.7314961,43.7750156 26.2008203,43.7750156 L28.5565039,43.7750156 C29.0258281,43.7750156 29.4061133,43.3947305 29.4061133,42.9254063 C29.4061133,42.456082 29.0258281,42.0757969 28.5565039,42.0757969 L26.2008203,42.0757969 Z" id="Path"></path>
                <path d="M13.4566797,42.9254063 C13.4566797,43.3947305 13.8369648,43.7750156 14.3062891,43.7750156 L22.7791602,43.7750156 C23.2484844,43.7750156 23.6287695,43.3947305 23.6287695,42.9254063 C23.6287695,42.456082 23.2484844,42.0757969 22.7791602,42.0757969 L14.3062891,42.0757969 C13.8369648,42.0757969 13.4566797,42.456082 13.4566797,42.9254063 Z" id="Path"></path>
                <path d="M43.8263633,37.5343516 L36.1463477,37.5343516 C35.6770234,37.5343516 35.2967383,37.91475 35.2967383,38.3839609 C35.2967383,38.8531719 35.6770234,39.2335703 36.1463477,39.2335703 L43.8263633,39.2335703 C44.2956875,39.2335703 44.6759727,38.8531719 44.6759727,38.3839609 C44.6759727,37.91475 44.2955742,37.5343516 43.8263633,37.5343516 Z" id="Path"></path>
                <path d="M32.7248008,39.2335703 C33.194125,39.2335703 33.5744102,38.8531719 33.5744102,38.3839609 C33.5744102,37.91475 33.194125,37.5343516 32.7248008,37.5343516 L29.5760352,37.5343516 C29.1067109,37.5343516 28.7264258,37.91475 28.7264258,38.3839609 C28.7264258,38.8531719 29.1067109,39.2335703 29.5760352,39.2335703 L32.7248008,39.2335703 Z" id="Path"></path>
                <path d="M37.9549961,42.9254063 C37.9549961,43.3947305 38.3352813,43.7750156 38.8046055,43.7750156 L50.6033008,43.7750156 C51.072625,43.7750156 51.4529102,43.3947305 51.4529102,42.9254063 C51.4529102,42.456082 51.072625,42.0757969 50.6033008,42.0757969 L38.8046055,42.0757969 C38.3352813,42.0757969 37.9549961,42.456082 37.9549961,42.9254063 Z" id="Path"></path>
                <path d="M57.1503906,47.3007812 L46.795125,47.3007812 C46.3258008,47.3007812 45.9455156,47.6810664 45.9455156,48.1503906 C45.9455156,48.6197148 46.3258008,49 46.795125,49 L57.1503906,49 C57.6197148,49 58,48.6197148 58,48.1503906 C58,47.6810664 57.6197148,47.3007812 57.1503906,47.3007812 Z" id="Path"></path>
                <path d="M57.1503906,30.154418 C55.6334414,30.154418 54.8460234,30.9165742 54.2133477,31.5288594 C53.6757148,32.0491602 53.2872734,32.4251406 52.4579414,32.4251406 C51.6287227,32.4251406 51.2402812,32.0491602 50.7026484,31.5288594 C50.0699727,30.9164609 49.2825547,30.1543047 47.7654922,30.1543047 C46.2486562,30.1543047 45.4612383,30.9164609 44.8285625,31.5288594 C44.2911563,32.0491602 43.9027148,32.4250273 43.0737227,32.4250273 C42.2446172,32.4250273 41.8562891,32.0491602 41.3186563,31.5287461 C40.6859805,30.9163477 39.8986758,30.1541914 38.3817266,30.1541914 C36.8648906,30.1541914 36.0775859,30.9163477 35.4449102,31.5287461 C34.9075039,32.0490469 34.5190625,32.4250273 33.6900703,32.4250273 C32.8610781,32.4250273 32.4726367,32.0491602 31.9352305,31.5287461 C31.3025547,30.9163477 30.51525,30.1541914 28.9984141,30.1541914 C27.4818047,30.1541914 26.6945,30.9163477 26.0619375,31.5287461 C25.5245313,32.0490469 25.1362031,32.4249141 24.3073242,32.4249141 C23.478332,32.4249141 23.0898906,32.0490469 22.5524844,31.5286328 C21.9198086,30.9162344 21.1325039,30.1540781 19.6157813,30.1540781 C18.0989453,30.1540781 17.3115273,30.9162344 16.6788516,31.5286328 C16.1414453,32.0489336 15.7530039,32.4248008 14.9240117,32.4248008 C14.0950195,32.4248008 13.7065781,32.0489336 13.1691719,31.5285195 C12.5364961,30.9161211 11.7491914,30.1539648 10.2323555,30.1539648 C8.71563281,30.1539648 7.92832813,30.9161211 7.29565234,31.5285195 C6.75824609,32.0488203 6.36991797,32.4246875 5.54092578,32.4246875 C4.71204688,32.4246875 4.32371875,32.0488203 3.7863125,31.5285195 C3.15363672,30.9161211 2.36644531,30.1539648 0.849609375,30.1539648 C0.380285156,30.1539648 0,30.5343633 0,31.0035742 C0,31.4727852 0.380285156,31.8531836 0.849609375,31.8531836 C1.67860156,31.8531836 2.06692969,32.2290508 2.60433594,32.7494648 C3.23701172,33.3618633 4.02420313,34.1240195 5.54092578,34.1240195 C7.05764844,34.1240195 7.84495313,33.3618633 8.47762891,32.7494648 C9.01503516,32.2291641 9.40336328,31.8531836 10.2323555,31.8531836 C11.0613477,31.8531836 11.4497891,32.2290508 11.9871953,32.7494648 C12.6198711,33.3618633 13.4071758,34.1240195 14.9240117,34.1240195 C16.4408477,34.1240195 17.2281523,33.3618633 17.8607148,32.7494648 C18.3982344,32.2291641 18.7866758,31.8531836 19.6157813,31.8531836 C20.4447734,31.8531836 20.8331016,32.2290508 21.3705078,32.7493516 C22.0031836,33.36175 22.7904883,34.1239063 24.3073242,34.1239063 C25.8240469,34.1239063 26.6113516,33.36175 27.2439141,32.7493516 C27.7813203,32.2290508 28.1696484,31.8531836 28.9984141,31.8531836 C29.8274063,31.8531836 30.2158477,32.2290508 30.7532539,32.7494648 C31.3859297,33.3618633 32.1732344,34.1240195 33.6900703,34.1240195 C35.2069063,34.1240195 35.9942109,33.3618633 36.6268867,32.7494648 C37.164293,32.2291641 37.5527344,31.8531836 38.3817266,31.8531836 C39.210832,31.8531836 39.5992734,32.2291641 40.1369063,32.7494648 C40.769582,33.3618633 41.5568867,34.1239063 43.0737227,34.1239063 C44.5905586,34.1239063 45.3778633,33.36175 46.0104258,32.7493516 C46.5479453,32.2290508 46.9363867,31.8530703 47.7654922,31.8530703 C48.5948242,31.8530703 48.9832656,32.2290508 49.5208984,32.7493516 C50.1535742,33.36175 50.9409922,34.123793 52.4579414,34.123793 C53.9748906,34.123793 54.7624219,33.3616367 55.3950977,32.7492383 C55.9327305,32.2289375 56.3211719,31.852957 57.1503906,31.852957 C57.6197148,31.852957 58,31.4725586 58,31.0033477 C58,30.5341367 57.6197148,30.154418 57.1503906,30.154418 L57.1503906,30.154418 Z" id="Path"></path>
                <path d="M42.8465938,47.3007812 L0.849609375,47.3007812 C0.380285156,47.3007812 0,47.6810664 0,48.1503906 C0,48.6197148 0.380285156,49 0.849609375,49 L42.8465938,49 C43.315918,49 43.6962031,48.6197148 43.6962031,48.1503906 C43.6962031,47.6810664 43.315918,47.3007812 42.8465938,47.3007812 Z" id="Path"></path>
                <path d="M0.849609375,27.337793 C3.09416406,27.337793 4.18596875,27.6013984 5.34166406,27.8805234 C6.54323828,28.1706367 7.78582031,28.4706055 10.2328086,28.4706055 C12.6797969,28.4706055 13.9222656,28.1706367 15.1239531,27.8805234 C16.2797617,27.6015117 17.3714531,27.337793 19.6161211,27.337793 C21.8606758,27.337793 22.9524805,27.6013984 24.1081758,27.8805234 C25.30975,28.1706367 26.5522187,28.4706055 28.999207,28.4706055 C31.4463086,28.4706055 32.6887773,28.1706367 33.8904648,27.8805234 C35.0462734,27.6015117 36.1379648,27.337793 38.3826328,27.337793 C40.6275273,27.337793 41.719332,27.6013984 42.8752539,27.8805234 C44.0768281,28.1706367 45.3194102,28.4706055 47.7665117,28.4706055 C50.2137266,28.4706055 51.4561953,28.1706367 52.6579961,27.8805234 C53.8138047,27.6015117 54.9056094,27.337793 57.1503906,27.337793 C57.6197148,27.337793 58,26.9573945 58,26.4881836 C58,26.0189727 57.6197148,25.6385742 57.1503906,25.6385742 C54.7032891,25.6385742 53.4608203,25.938543 52.2591328,26.2286562 C51.2593125,26.4700586 50.3075234,26.699793 48.6161211,26.7574531 L48.6161211,1.35277344 C48.6161211,0.8835625 48.2358359,0.503164062 47.7665117,0.503164062 C47.2971875,0.503164062 46.9169023,0.8835625 46.9169023,1.35277344 L46.9169023,3.90160156 L11.082418,3.90160156 L11.082418,1.35277344 C11.082418,0.8835625 10.7021328,0.503164062 10.2328086,0.503164062 C9.76348438,0.503164062 9.38319922,0.8835625 9.38319922,1.35277344 L9.38319922,26.7575664 C7.69202344,26.6999062 6.74023438,26.4700586 5.74064063,26.2287695 C4.53906641,25.9386562 3.29648438,25.6386875 0.849609375,25.6386875 C0.380285156,25.6386875 0,26.0190859 0,26.4882969 C0,26.9575078 0.380285156,27.337793 0.849609375,27.337793 L0.849609375,27.337793 Z M38.3826328,25.6385742 C35.9356445,25.6385742 34.6931758,25.938543 33.4916016,26.2286562 C32.3356797,26.507668 31.2439883,26.7713867 28.999207,26.7713867 C26.7546523,26.7713867 25.6628477,26.5077812 24.5071523,26.2286562 C23.3055781,25.938543 22.0631094,25.6385742 19.6161211,25.6385742 C17.1691328,25.6385742 15.9266641,25.938543 14.7249766,26.2286562 C13.7252695,26.4700586 12.7735938,26.699793 11.082418,26.7574531 L11.082418,18.929832 L46.9169023,18.929832 L46.9169023,26.7574531 C45.2256133,26.699793 44.2737109,26.4699453 43.2741172,26.2286562 C42.0723164,25.9386562 40.8298477,25.6385742 38.3826328,25.6385742 L38.3826328,25.6385742 Z M36.6990469,17.2308398 L36.6990469,12.2654961 L41.8394102,12.2654961 L41.8394102,17.2308398 L36.6990469,17.2308398 Z M23.0199961,17.2308398 L23.0199961,12.2654961 L28.1603594,12.2654961 L28.1603594,17.2308398 L23.0199961,17.2308398 Z M29.8595781,12.2654961 L34.9998281,12.2654961 L34.9998281,17.2308398 L29.8595781,17.2308398 L29.8595781,12.2654961 Z M41.8394102,10.5662773 L36.6990469,10.5662773 L36.6990469,5.60082031 L41.8394102,5.60082031 L41.8394102,10.5662773 Z M34.9998281,10.5662773 L29.8595781,10.5662773 L29.8595781,5.60082031 L34.9998281,5.60082031 L34.9998281,10.5662773 Z M28.1603594,10.5662773 L23.0199961,10.5662773 L23.0199961,5.60082031 L28.1603594,5.60082031 L28.1603594,10.5662773 Z M21.3207773,10.5662773 L16.1804141,10.5662773 L16.1804141,5.60082031 L21.3207773,5.60082031 L21.3207773,10.5662773 Z M16.1804141,12.2654961 L21.3207773,12.2654961 L21.3207773,17.2308398 L16.1804141,17.2308398 L16.1804141,12.2654961 Z M46.9169023,17.2308398 L43.5386289,17.2308398 L43.5386289,5.60082031 L46.9169023,5.60082031 L46.9169023,17.2308398 Z M14.4811953,5.60082031 L14.4811953,17.2308398 L11.082418,17.2308398 L11.082418,5.60082031 L14.4811953,5.60082031 Z" id="Shape"></path>
            </g>
        </g>
    </g>
</svg>