<?xml version="1.0" encoding="UTF-8"?>
<svg width="61px" height="41px" viewBox="0 0 61 41" version="1.1" xmlns="http://www.w3.org/2000/svg" xmlns:xlink="http://www.w3.org/1999/xlink">
    <title>Marina</title>
    <g id="V2-Pages" stroke="none" stroke-width="1" fill="none" fill-rule="evenodd">
        <g id="Artboard-Copy" transform="translate(-838.000000, -206.000000)" fill="#7DB3E1" fill-rule="nonzero">
            <g id="boat" transform="translate(838.000000, 206.000000)">
                <path d="M59.8664464,28.683576 C57.0957622,28.618 54.3668148,29.3735029 52.0178986,30.8564561 C51.5724678,31.1040146 51.1331014,31.348576 50.6713801,31.5725175 L60.3971345,19.7834591 C60.9123645,19.1761316 61.0297271,18.321845 60.6974971,17.596193 C60.3652671,16.8705409 59.6444444,16.4063538 58.8516823,16.4075526 L50.0492515,16.4075526 L39.3554639,8.56624269 L38.8379747,7.52385965 C37.8125088,5.43945322 35.7009337,4.12397661 33.3931598,4.13152924 L22.9500312,4.13152924 L21.935386,2.08548538 L27.3964912,2.08548538 C27.9569064,2.08548538 28.4111365,1.62741228 28.4111365,1.06252339 C28.4111365,0.497634503 27.9569064,0.0395614035 27.3964912,0.0395614035 L16.2349181,0.0395614035 C15.6745029,0.0395614035 15.2202729,0.49751462 15.2202729,1.06252339 C15.2202729,1.62753216 15.6745029,2.08548538 16.2349181,2.08548538 L19.666614,2.08548538 L20.6812593,4.13152924 L16.2349181,4.13152924 C14.5537914,4.13152924 13.1908635,5.50550877 13.1908635,7.20053509 C13.1908635,8.8955614 14.5536725,10.2695409 16.2349181,10.2695409 L17.6372047,10.2695409 L14.5931501,16.4075526 L13.6982456,16.4075526 C13.0598265,16.4088713 12.4588635,16.7118158 12.0747895,17.2259942 L9.63954581,20.4996404 L7.89420858,20.4996404 C7.54854191,20.4995205 7.22653801,20.6768275 7.03985185,20.9701813 L2.10444055,28.722538 C1.75437427,28.702038 1.40121637,28.6836959 1.01464522,28.6836959 C0.454230019,28.6836959 0,29.1416491 0,29.7066579 C0,30.2716667 0.454230019,30.7296199 1.01464522,30.7296199 C3.44097076,30.6707573 5.83019688,31.3386257 7.88005848,32.6488275 C10.228499,34.1321404 12.9572086,34.8876433 15.727655,34.8217076 C17.898922,34.8851257 20.0537797,34.4230965 22.0116062,33.474462 L22.0258752,33.467269 C22.5666706,33.2043655 23.0720312,32.925038 23.5712086,32.6488275 C25.6197622,31.3392251 28.0075614,30.6713567 30.43246,30.7296199 C32.8597368,30.6705175 35.2500331,31.338386 37.300846,32.6488275 C39.6509513,34.1325 42.3814444,34.8880029 45.1534366,34.8217076 C47.9241209,34.8872836 50.6530682,34.1317807 53.0019844,32.6488275 C55.0517271,31.3392251 57.4403587,30.6714766 59.8663275,30.7296199 C60.4267427,30.7296199 60.8809727,30.2716667 60.8809727,29.7066579 C60.8809727,29.1416491 60.4268616,28.683576 59.8664464,28.683576 Z M38.2282125,10.2695409 L41.0186355,12.3155848 L29.4259006,12.3155848 C28.8654854,12.3155848 28.4112554,11.8576316 28.4112554,11.2926228 L28.4112554,10.2696608 L38.2282125,10.2696608 L38.2282125,10.2695409 Z M16.2349181,8.22361696 C15.6745029,8.22361696 15.2202729,7.76566374 15.2202729,7.20065497 C15.2202729,6.6356462 15.6745029,6.17768692 16.2349181,6.17768692 L33.3932788,6.17768692 C34.8409883,6.17517544 36.1787076,6.95633333 36.8970331,8.22373684 L16.2349181,8.22373684 L16.2349181,8.22361696 Z M19.9060955,10.2695409 L26.381846,10.2695409 L26.381846,11.2925029 C26.381846,12.9874094 27.744655,14.3615088 29.4259006,14.3615088 L43.8090585,14.3615088 L46.5994815,16.4075526 L16.8620409,16.4075526 L19.9060955,10.2695409 Z M13.6982456,18.4535965 L34.4992456,18.4535965 L34.4992456,19.4765585 C34.4992456,20.0415673 34.0450156,20.4995205 33.4846004,20.4995205 L12.1762183,20.4995205 L13.6982456,18.4535965 Z M45.1534366,32.7756637 C42.7247329,32.8356053 40.3330097,32.167617 38.2810078,30.8564561 C35.9320916,29.3735029 33.2031442,28.6181199 30.43246,28.683576 C27.6633216,28.6181199 24.936039,29.3736228 22.5889064,30.8564561 C20.5404717,32.1662982 18.1526725,32.8342865 15.727655,32.7756637 C13.3009727,32.8346462 10.9113899,32.1667778 8.86129045,30.8564561 C7.45912281,30.0025292 5.93019883,29.3808158 4.33278363,29.0150526 L8.44832164,22.5455643 L33.4846004,22.5455643 C35.1657271,22.5455643 36.528655,21.1715848 36.528655,19.4765585 L36.528655,18.4535965 L39.5727096,18.4535965 L39.5727096,21.5226023 C39.5727096,22.0876111 40.0270585,22.5455643 40.5873548,22.5455643 C41.1476511,22.5455643 41.602,22.0876111 41.602,21.5226023 L41.602,18.4535965 L43.6314094,18.4535965 L43.6314094,21.5226023 C43.6314094,22.0876111 44.0856394,22.5455643 44.6460546,22.5455643 C45.2064698,22.5455643 45.6606998,22.0876111 45.6606998,21.5226023 L45.6606998,18.4535965 L47.6901092,18.4535965 L47.6901092,21.5226023 C47.6901092,22.0876111 48.1443392,22.5455643 48.7047544,22.5455643 C49.2651696,22.5455643 49.7193996,22.0876111 49.7193996,21.5226023 L49.7193996,18.4597105 L58.8424074,18.4597105 L47.1501462,32.6446316 C46.4883021,32.7327456 45.8212261,32.7765029 45.1534366,32.7756637 Z" id="Shape"></path>
                <path d="M59.8664464,34.8215877 C57.0957622,34.7560117 54.3668148,35.5115146 52.0178986,36.9944678 C49.9681559,38.3040702 47.5795244,38.9718187 45.1535556,38.9136754 C42.7262788,38.9727778 40.3359825,38.3049094 38.2851696,36.9944678 C35.9350643,35.5107953 33.2045712,34.7552924 30.4325789,34.8215877 C27.6634405,34.7561316 24.9361579,35.5116345 22.5890253,36.9944678 C20.5405906,38.3043099 18.1527914,38.9722982 15.7277739,38.9136754 C13.3010916,38.9726579 10.9115088,38.3047895 8.86140936,36.9944678 C6.51332554,35.5113947 3.78497271,34.7557719 1.01488304,34.8215877 C0.454467836,34.8215877 0.000237816764,35.2795409 0.000237816764,35.8445497 C0.000237816764,36.4095585 0.454467836,36.8675117 1.01488304,36.8675117 C3.44120858,36.8086491 5.8304347,37.4765175 7.8802963,38.7867193 C10.2287368,40.2700322 12.9574464,41.0255351 15.7278928,40.9595994 C18.4971501,41.0252953 21.2245517,40.2694327 23.5714464,38.7857602 C25.6201189,37.4765175 28.0077992,36.8090088 30.4326979,36.8676316 C32.8599747,36.8085292 35.250271,37.4763977 37.3010838,38.7868392 C39.6511891,40.2705117 42.3816823,41.0260146 45.1536745,40.9597193 C47.9243587,41.0252953 50.653306,40.2697924 53.0022222,38.7868392 C55.0519649,37.4772368 57.4405965,36.8094883 59.8665653,36.8676316 C60.4269805,36.8676316 60.8812105,36.4096784 60.8812105,35.8446696 C60.8812105,35.2796608 60.4268616,34.8215877 59.8664464,34.8215877 Z" id="Path"></path>
            </g>
        </g>
    </g>
</svg>