<?xml version="1.0" encoding="UTF-8"?>
<svg width="58px" height="52px" viewBox="0 0 58 52" version="1.1" xmlns="http://www.w3.org/2000/svg" xmlns:xlink="http://www.w3.org/1999/xlink">
    <title>Skate park</title>
    <g id="V2-Pages" stroke="none" stroke-width="1" fill="none" fill-rule="evenodd">
        <g id="Artboard-Copy" transform="translate(-1297.000000, -191.000000)" fill="#FCCB62" fill-rule="nonzero">
            <g id="skateboard" transform="translate(1297.000000, 191.000000)">
                <path d="M57.1503906,39.4803755 L51.7321484,39.4803755 C51.2629375,39.4803755 50.8825391,39.8616332 50.8825391,40.3319039 C50.8825391,40.8021747 51.2629375,41.1834323 51.7321484,41.1834323 L57.1503906,41.1834323 C57.6196016,41.1834323 58,40.8021747 58,40.3319039 C58,39.8616332 57.6196016,39.4803755 57.1503906,39.4803755 Z" id="Path"></path>
                <path d="M57.1503906,43.1511441 L39.2983984,43.1511441 C22.7623945,43.1511441 9.25802344,29.8947773 8.80637109,13.428262 L10.7695352,13.428262 C11.2206211,28.8095895 23.8449102,41.1835459 39.2982852,41.1835459 L47.7671914,41.1835459 C48.2364023,41.1835459 48.6168008,40.8022882 48.6168008,40.3320175 C48.6168008,39.8617467 48.2364023,39.4804891 47.7671914,39.4804891 L39.2982852,39.4804891 C25.4456875,39.4804891 14.0110781,28.9080262 12.6028789,15.3909782 C13.0123906,15.5758166 13.4535078,15.668917 13.8948516,15.668917 C14.6984687,15.668917 15.5020859,15.3623668 16.113918,14.7491528 C16.5055312,14.356655 16.7800117,13.8784367 16.9218398,13.3568472 L27.3061055,23.7645677 C26.7858047,23.9067162 26.3086641,24.1818166 25.9170508,24.5742009 C25.3243633,25.1682271 24.9978867,25.9581048 24.9978867,26.7982795 C24.9978867,27.6384541 25.3243633,28.4283319 25.9170508,29.0223581 C26.5097383,29.6163843 27.2978359,29.9435983 28.1361172,29.9435983 C28.9743984,29.9435983 29.7624961,29.6163843 30.3551836,29.0223581 C30.7773828,28.5992052 31.0536758,28.0845415 31.1845156,27.5414934 C32.0950703,28.1905852 33.1806445,28.5419825 34.3205938,28.5419825 L37.9172734,28.5419825 C39.3953672,28.5419825 40.5978477,27.336786 40.5978477,25.8553537 C40.5978477,24.3740349 39.3953672,23.1687249 37.9172734,23.1687249 L34.2931797,23.1687249 L17.5162266,6.35387773 L17.5162266,2.72159825 C17.5162266,1.24016594 16.3137461,0.0349694323 14.8356523,0.0349694323 C13.3575586,0.0349694323 12.1550781,1.24016594 12.1550781,2.72159825 L12.1550781,6.32651528 C12.1550781,7.4690393 12.5055703,8.5570655 13.1533125,9.46967686 C12.6114883,9.60081223 12.0978711,9.87784279 11.6756719,10.3008821 C11.2683125,10.7092751 10.9973438,11.203048 10.8611797,11.7250917 L0.849609375,11.7250917 C0.380398437,11.7250917 0,12.1063493 0,12.5766201 L0,17.4235197 C0,17.8937904 0.380398438,18.275048 0.849609375,18.275048 C1.31882031,18.275048 1.69921875,17.8937904 1.69921875,17.4235197 L1.69921875,13.4281485 L7.10567969,13.4281485 C7.31898828,21.7303231 10.6453789,29.5046638 16.5270547,35.3999651 C22.6095781,41.4965677 30.6966133,44.8542009 39.2983984,44.8542009 L57.1503906,44.8542009 C57.6196016,44.8542009 58,44.4729432 58,44.0026725 C58,43.5324017 57.6196016,43.1511441 57.1503906,43.1511441 L57.1503906,43.1511441 Z M29.1537227,27.8182969 C28.8819609,28.0906725 28.5204805,28.2407686 28.1361172,28.2407686 C27.7517539,28.2407686 27.3903867,28.090786 27.118625,27.8182969 C26.8468633,27.5458079 26.6971055,27.183738 26.6971055,26.7985066 C26.6971055,26.4132751 26.84675,26.0510917 27.118625,25.7787162 C27.3905,25.5063406 27.7517539,25.3562445 28.1361172,25.3562445 C28.5204805,25.3562445 28.8818477,25.5062271 29.1537227,25.7787162 C29.7148047,26.340952 29.7148047,27.2559476 29.1537227,27.8182969 Z M13.8544102,2.72159825 C13.8544102,2.17934498 14.2946211,1.7380262 14.8357656,1.7380262 C15.3767969,1.7380262 15.8171211,2.17923144 15.8171211,2.72159825 L15.8171211,6.70663755 C15.8171211,6.93246288 15.9066133,7.1490917 16.066,7.30872489 L33.3408242,24.6224541 C33.5000977,24.7822009 33.7162383,24.8718952 33.9415547,24.8718952 L37.9175,24.8718952 C38.4585313,24.8718952 38.8988555,25.3131004 38.8988555,25.8554672 C38.8988555,26.3977205 38.4586445,26.8389258 37.9175,26.8389258 L34.3208203,26.8389258 C33.3250781,26.8389258 32.3890352,26.4502882 31.6848789,25.744655 L14.9462148,8.96841048 C14.2421719,8.26277729 13.8544102,7.32450655 13.8544102,6.32651528 L13.8544102,2.72159825 Z M12.8773594,11.5051703 C13.4385547,10.9429345 14.3514883,10.942821 14.912457,11.5051703 C15.1842187,11.7775459 15.3339766,12.1398428 15.3339766,12.5250742 C15.3339766,12.9103057 15.184332,13.2724891 14.912457,13.5448646 C14.351375,14.107214 13.4384414,14.1071004 12.8773594,13.5448646 C12.3162773,12.9825153 12.3162773,12.0675197 12.8773594,11.5051703 Z" id="Shape"></path>
                <path d="M57.1503906,50.2618603 L30.9824219,50.2618603 C30.5132109,50.2618603 30.1328125,50.6431179 30.1328125,51.1133886 C30.1328125,51.5836594 30.5132109,51.964917 30.9824219,51.964917 L57.1503906,51.964917 C57.6196016,51.964917 58,51.5836594 58,51.1133886 C58,50.6431179 57.6196016,50.2618603 57.1503906,50.2618603 Z" id="Path"></path>
                <path d="M27.0175781,50.2618603 L1.69921875,50.2618603 L1.69921875,21.3973188 C1.69921875,20.927048 1.31882031,20.5457904 0.849609375,20.5457904 C0.380398438,20.5457904 0,20.927048 0,21.3973188 L0,51.1133886 C0,51.5836594 0.380398438,51.964917 0.849609375,51.964917 L27.0175781,51.964917 C27.4867891,51.964917 27.8671875,51.5836594 27.8671875,51.1133886 C27.8671875,50.6431179 27.4867891,50.2618603 27.0175781,50.2618603 Z" id="Path"></path>
                <path d="M57.1503906,32.0255284 L50.5133555,32.0255284 C50.0441445,32.0255284 49.6637461,32.406786 49.6637461,32.8770568 C49.6637461,33.3473275 50.0441445,33.7285852 50.5133555,33.7285852 L57.1503906,33.7285852 C57.6196016,33.7285852 58,33.3473275 58,32.8770568 C58,32.406786 57.6196016,32.0255284 57.1503906,32.0255284 Z" id="Path"></path>
                <path d="M47.7010352,32.8770568 C47.7010352,32.406786 47.3206367,32.0255284 46.8514258,32.0255284 L42.9607813,32.0255284 C39.7264883,32.0255284 36.5424922,31.521083 33.4973789,30.5259301 C33.0510508,30.380262 32.5716445,30.6243668 32.4261914,31.0715895 C32.2807383,31.5186987 32.5245195,31.9993013 32.9706211,32.1451965 C36.1861094,33.195869 39.5472773,33.7285852 42.960668,33.7285852 L46.8514258,33.7285852 C47.32075,33.7285852 47.7010352,33.3473275 47.7010352,32.8770568 Z" id="Path"></path>
                <path d="M42.9607813,30.0584978 L50.0555859,30.0584978 C50.5247969,30.0584978 50.9051953,29.6772402 50.9051953,29.2069694 C50.9051953,28.7366987 50.5247969,28.355441 50.0555859,28.355441 L42.9607813,28.355441 C42.4915703,28.355441 42.1111719,28.7366987 42.1111719,29.2069694 C42.1111719,29.6772402 42.4915703,30.0584978 42.9607813,30.0584978 Z" id="Path"></path>
                <path d="M53.7174023,30.0584978 L57.1503906,30.0584978 C57.6196016,30.0584978 58,29.6772402 58,29.2069694 C58,28.7366987 57.6196016,28.355441 57.1503906,28.355441 L53.7174023,28.355441 C53.2481914,28.355441 52.867793,28.7366987 52.867793,29.2069694 C52.867793,29.6772402 53.2481914,30.0584978 53.7174023,30.0584978 Z" id="Path"></path>
                <path d="M57.1503906,35.6956157 L47.7669648,35.6956157 C47.2977539,35.6956157 46.9173555,36.0768734 46.9173555,36.5471441 C46.9173555,37.0174148 47.2977539,37.3986725 47.7669648,37.3986725 L57.1503906,37.3986725 C57.6196016,37.3986725 58,37.0174148 58,36.5471441 C58,36.0768734 57.6196016,35.6956157 57.1503906,35.6956157 Z" id="Path"></path>
                <path d="M40.6721602,35.6956157 C40.2029492,35.6956157 39.8225508,36.0768734 39.8225508,36.5471441 C39.8225508,37.0174148 40.2029492,37.3986725 40.6721602,37.3986725 L44.1051484,37.3986725 C44.5743594,37.3986725 44.9547578,37.0174148 44.9547578,36.5471441 C44.9547578,36.0768734 44.5743594,35.6956157 44.1051484,35.6956157 L40.6721602,35.6956157 Z" id="Path"></path>
            </g>
        </g>
    </g>
</svg>