<?xml version="1.0" encoding="UTF-8"?>
<svg width="56px" height="55px" viewBox="0 0 56 55" version="1.1" xmlns="http://www.w3.org/2000/svg" xmlns:xlink="http://www.w3.org/1999/xlink">
    <title>Splash park</title>
    <g id="V2-Pages" stroke="none" stroke-width="1" fill="none" fill-rule="evenodd">
        <g id="Artboard-Copy" transform="translate(-1225.000000, -187.000000)" fill="#353C8C" fill-rule="nonzero">
            <g id="water-slide" transform="translate(1225.000000, 187.000000)">
                <path d="M16.5698695,47.5840506 C15.7927074,46.8655696 14.8250274,45.9711814 12.9924716,45.9711814 C11.1599158,45.9711814 10.1922358,46.8655696 9.41507368,47.5840506 C8.70770526,48.2389451 8.14746947,48.7559916 6.96805053,48.7559916 C5.78863158,48.7559916 5.22933895,48.238481 4.52102737,47.5840506 C3.74386526,46.8655696 2.77618526,45.9711814 0.944101053,45.9711814 C0.488320796,45.9711814 0.118837895,46.334832 0.118837895,46.7834177 C0.118837895,47.2320034 0.488320796,47.595654 0.944101053,47.595654 C2.12304842,47.595654 2.68281263,48.1127004 3.39112421,48.7675949 C4.16828632,49.4860759 5.13596632,50.3805454 6.96852211,50.3805454 C8.80107789,50.3805454 9.76875789,49.4865401 10.54592,48.7680591 C11.2532884,48.1131646 11.8139958,47.595654 12.9934147,47.595654 C14.1728337,47.595654 14.7325979,48.1131646 15.4409095,48.7675949 C16.0355879,49.384912 16.7660373,49.8599575 17.5762189,50.1562869 C17.6338148,50.1832926 17.6944354,50.203544 17.7568337,50.2166245 C18.1678788,50.3278342 18.5924936,50.3829624 19.0187789,50.3805454 C20.8513347,50.3805454 21.8185432,49.4860759 22.5952337,48.7675949 C23.3026021,48.1127004 23.8628379,47.595654 25.0417853,47.595654 C26.2207326,47.595654 26.7809684,48.1127004 27.4888084,48.7675949 C28.2659705,49.4860759 29.2336505,50.3805454 31.0662063,50.3805454 C32.8987621,50.3805454 33.8669137,49.4865401 34.6440758,48.7680591 C35.3514442,48.1131646 35.9126232,47.595654 37.0925137,47.595654 C38.2724042,47.595654 38.8316968,48.1127004 39.5395368,48.7675949 C40.3166989,49.4860759 41.2843789,50.3805454 43.1169347,50.3805454 C44.9494905,50.3805454 45.9185853,49.4865401 46.6962189,48.7680591 C47.4035874,48.1131646 47.9652379,47.595654 49.1460716,47.595654 C50.3269053,47.595654 50.8866695,48.1131646 51.5954526,48.7680591 C52.3730863,49.4865401 53.3402947,50.3805454 55.1747368,50.3805454 C55.6305171,50.3805454 55.9999999,50.0168135 55.9999999,49.5682278 C55.9999999,49.1196422 55.6305171,48.7559916 55.1747368,48.7559916 C53.9957895,48.7559916 53.4341389,48.238481 52.7248842,47.5835865 C51.9472505,46.8651055 50.9800421,45.9711814 49.1456,45.9711814 C47.3111579,45.9711814 46.3439495,46.8651055 45.5663158,47.5835865 C44.8589474,48.238481 44.2972968,48.7559916 43.1169347,48.7559916 C41.9365726,48.7559916 41.3777516,48.238481 40.66944,47.5835865 C39.8922779,46.8651055 38.9245979,45.9711814 37.0920421,45.9711814 C35.2594863,45.9711814 34.2913347,46.8651055 33.5137011,47.5835865 C32.8063326,48.238481 32.2451537,48.7559916 31.0652632,48.7559916 C29.8853726,48.7559916 29.32608,48.238481 28.6177684,47.5835865 C28.1667475,47.1345905 27.6530742,46.75108 27.0922105,46.4445992 L27.0922105,45.0521941 L33.7820295,46.698481 C34.2241269,46.8072329 34.6721094,46.5427278 34.78272,46.1076371 L35.6975832,42.5059494 C35.750631,42.296931 35.7171331,42.0757326 35.6044601,41.8910246 C35.4917871,41.7063166 35.3091706,41.5732325 35.0967916,41.5210549 L27.0922105,39.5521941 L27.0922105,26.5875105 L30.5903832,25.7260759 L30.7427032,25.6870886 C32.6702908,25.1417953 34.2599941,23.7955191 35.0953768,22.0009283 C35.5132318,21.0975989 35.727056,20.1158204 35.7221053,19.1232911 C35.7547059,15.9697774 33.5679671,13.2128703 30.4517389,12.4787342 L27.0922105,11.653038 L27.0922105,1.62447257 L29.8273684,1.62447257 C30.2831487,1.62447256 30.6526316,1.26082199 30.6526316,0.812236287 C30.6526316,0.363650579 30.2831487,0 29.8273684,0 L0.943157895,0 C0.487377645,0 0.117458161,0.363650579 0.117458161,0.812236287 C0.117458161,1.26082199 0.487377645,1.62447256 0.943157895,1.62447257 L17.0947368,1.62447257 L17.0947368,14.8523207 L13.44,14.8523207 L13.44,9.02371308 C13.44,8.57512737 13.0705171,8.21147679 12.6147368,8.21147679 L0.943157895,8.21147679 C0.487377638,8.21147679 0.117458161,8.57512737 0.117458161,9.02371308 L0.117458161,15.664557 C0.117458161,16.1131427 0.487377638,16.4767932 0.943157895,16.4767932 L17.0947368,16.4767932 L17.0947368,23.546962 L5.38637474,26.4245992 L5.09493895,26.5025738 C3.16814823,27.0509492 1.57968898,28.3982802 0.744151579,30.1929114 C0.326606597,31.0959967 0.112947391,32.0774396 0.117458161,33.0696203 C0.0819416623,36.2236001 2.27010127,38.9815818 5.38778947,39.7118565 L17.0947368,42.5936709 L17.0947368,48.0509705 C16.9211958,47.9080169 16.7500126,47.7511392 16.5698695,47.5840506 Z M5.65894737,9.83594937 L7.89894737,9.83594937 L7.89894737,14.8523207 L5.65894737,14.8523207 L5.65894737,9.83594937 Z M4.00842105,14.8523207 L1.76842105,14.8523207 L1.76842105,9.83594937 L4.00842105,9.83594937 L4.00842105,14.8523207 Z M9.54947368,9.83594937 L11.7894737,9.83594937 L11.7894737,14.8523207 L9.54947368,14.8523207 L9.54947368,9.83594937 Z M33.8961516,42.8986076 L33.3816589,44.9240928 L27.0922105,43.3766667 L27.0922105,41.2263291 L33.8961516,42.8986076 Z M27.0922105,17.1572152 L29.1369768,17.6603376 C29.8064011,17.8243845 30.2818812,18.4085195 30.2985062,19.0872953 C30.3151312,19.7660712 29.8688008,20.3720766 29.2081853,20.5676793 L27.0922105,21.0884388 L27.0922105,17.1572152 Z M18.7452632,1.62447257 L25.4416842,1.62447257 L25.4416842,21.4940928 L18.7452632,23.1408439 L18.7452632,1.62447257 Z M5.78816,38.1361181 C3.40997554,37.5792439 1.7408293,35.4754441 1.76842105,33.0696203 C1.76405227,32.3094629 1.92736191,31.5574282 2.24707368,30.865443 C2.87532014,29.4965917 4.08595523,28.4708676 5.55472842,28.0629958 L29.6311916,22.1383122 C31.0191331,21.7520563 31.969644,20.4954398 31.9475279,19.0760155 C31.9254118,17.6565913 30.9361984,16.4292511 29.5368758,16.0850633 L27.0917389,15.4816878 L27.0917389,13.327173 L30.0499537,14.0540084 C32.4279626,14.6139985 34.0966817,16.717814 34.0718584,19.1242194 C34.0758909,19.8838734 33.9127472,20.6354101 33.5933979,21.3270042 C32.9617797,22.6844057 31.7613069,23.7041344 30.3046063,24.1206329 L26.1141558,25.1528692 C26.0981221,25.155654 26.08256,25.1607595 26.0669979,25.1644726 L17.7672084,27.2066667 C17.7521179,27.2094515 17.7379705,27.2140928 17.7233516,27.2173418 L6.30406737,30.03 C4.8849274,30.3769045 3.88854898,31.6309104 3.88854898,33.0700844 C3.88854898,34.5092583 4.8849274,35.7632643 6.30406737,36.1101688 L17.0947368,38.764557 L17.0947368,40.9190717 L5.78816,38.1361181 Z M17.0947368,37.0899578 L6.70349474,34.5344304 C6.02325228,34.3652629 5.54667751,33.7629514 5.54667751,33.0724051 C5.54667751,32.3818587 6.02325228,31.7795472 6.70349474,31.6103797 L17.0947368,29.0492827 L17.0947368,37.0899578 Z M18.7452632,41.9591983 L18.7452632,28.6427004 L25.4416842,26.9936287 L25.4416842,45.9962447 C25.3096421,45.9860338 25.1823158,45.9716456 25.0403705,45.9716456 C23.2078147,45.9716456 22.2406063,46.8660338 21.4639158,47.5845148 C20.7565474,48.2394093 20.1963116,48.7564557 19.0173642,48.7564557 C18.9206905,48.7564557 18.83392,48.7476371 18.7452632,48.7411392 L18.7452632,41.9591983 Z" id="Shape"></path>
                <path d="M55.1747368,53.3755274 C53.9957895,53.3755274 53.4341389,52.8580169 52.7248842,52.2031224 C51.9472505,51.4846414 50.9800421,50.5907173 49.1456,50.5907173 C47.3111579,50.5907173 46.3439495,51.4846414 45.5663158,52.2031224 C44.8589474,52.8580169 44.2972968,53.3755274 43.1169347,53.3755274 C41.9365726,53.3755274 41.3777516,52.8580169 40.66944,52.2031224 C39.8922779,51.4846414 38.9245979,50.5907173 37.0920421,50.5907173 C35.2594863,50.5907173 34.2913347,51.4846414 33.5137011,52.2031224 C32.8063326,52.8580169 32.2451537,53.3755274 31.0652632,53.3755274 C29.8853726,53.3755274 29.32608,52.8580169 28.6177684,52.2031224 C27.8406063,51.4846414 26.8729263,50.5907173 25.0403705,50.5907173 C23.2078147,50.5907173 22.2406063,51.4851055 21.4639158,52.2035865 C20.7565474,52.858481 20.1963116,53.3755274 19.0173642,53.3755274 C17.8384168,53.3755274 17.2781811,52.8580169 16.5698695,52.2035865 C15.7927074,51.4851055 14.8250274,50.5907173 12.9924716,50.5907173 C11.1599158,50.5907173 10.1922358,51.4851055 9.41507368,52.2035865 C8.70770526,52.858481 8.14746947,53.3755274 6.96805053,53.3755274 C5.78863158,53.3755274 5.22933895,52.8580169 4.52102737,52.2035865 C3.74386526,51.4851055 2.77618526,50.5907173 0.944101053,50.5907173 C0.488320796,50.5907173 0.118837895,50.9543679 0.118837895,51.4029536 C0.118837895,51.8515393 0.488320796,52.2151899 0.944101053,52.2151899 C2.12304842,52.2151899 2.68281263,52.7322363 3.39112421,53.3871308 C4.16828632,54.1056118 5.13596632,55 6.96852211,55 C8.80107789,55 9.76875789,54.1060759 10.54592,53.3875949 C11.2532884,52.7327004 11.8139958,52.2151899 12.9934147,52.2151899 C14.1728337,52.2151899 14.7325979,52.7327004 15.4409095,53.3871308 C16.2180716,54.1056118 17.1857516,55 19.0183074,55 C20.8508632,55 21.8180716,54.1056118 22.5947621,53.3871308 C23.3021305,52.7322363 23.8623663,52.2151899 25.0413137,52.2151899 C26.2202611,52.2151899 26.7804968,52.7322363 27.4883368,53.3871308 C28.2654989,54.1056118 29.2331789,55 31.0657347,55 C32.8982905,55 33.8664421,54.1060759 34.6436042,53.3875949 C35.3509726,52.7327004 35.9121516,52.2151899 37.0920421,52.2151899 C38.2719326,52.2151899 38.8312253,52.7322363 39.5390653,53.3871308 C40.3162274,54.1056118 41.2839074,55 43.1164632,55 C44.9490189,55 45.9181137,54.1060759 46.6957474,53.3875949 C47.4031158,52.7327004 47.9647663,52.2151899 49.1456,52.2151899 C50.3264337,52.2151899 50.8861979,52.7327004 51.5949811,53.3875949 C52.3726147,54.1060759 53.3398232,55 55.1742653,55 C55.6300455,55 55.9995284,54.6363494 55.9995284,54.1877637 C55.9995284,53.739178 55.6300455,53.3755274 55.1742653,53.3755274 L55.1747368,53.3755274 Z" id="Path"></path>
            </g>
        </g>
    </g>
</svg>