<?xml version="1.0" encoding="UTF-8"?>
<svg width="63px" height="61px" viewBox="0 0 63 61" version="1.1" xmlns="http://www.w3.org/2000/svg" xmlns:xlink="http://www.w3.org/1999/xlink">
    <title>Children obstacle course</title>
    <g id="V2-Pages" stroke="none" stroke-width="1" fill="none" fill-rule="evenodd">
        <g id="Artboard-Copy" transform="translate(-940.000000, -687.000000)" fill="#E75D51" fill-rule="nonzero">
            <g id="Children-obstacle-course" transform="translate(940.373333, 687.000000)">
                <g id="playground-(1)" transform="translate(0.626667, 0.000000)">
                    <path d="M59.0322581,55.0967742 L59.0322581,1.96774194 C59.0322581,0.883516129 58.1487419,0 57.0645161,0 L55.0967742,0 C54.0115645,0 53.1290323,0.883516129 53.1290323,1.96774194 L53.1290323,2.9516129 L7.87096774,2.9516129 L7.87096774,1.96774194 C7.87096774,0.883516129 6.98745161,0 5.90322581,0 L3.93548387,0 C2.85027419,0 1.96774194,0.883516129 1.96774194,1.96774194 L1.96774194,55.0967742 L0,55.0967742 L0,61 L9.83870968,61 L9.83870968,55.0967742 L7.87096774,55.0967742 L7.87096774,8.85483871 L11.8064516,8.85483871 L11.8064516,34.7847581 C10.5785806,36.3048387 9.83870968,38.2361774 9.83870968,40.3387097 C9.83870968,45.2216613 13.8105968,49.1935484 18.6935484,49.1935484 C23.5765,49.1935484 27.5483871,45.2216613 27.5483871,40.3387097 C27.5483871,38.2361774 26.8085161,36.3058226 25.5806452,34.7847581 L25.5806452,8.85483871 L31.483871,8.85483871 L31.483871,34.6165161 C30.3406129,35.0238387 29.516129,36.1060968 29.516129,37.3870968 L29.516129,43.2903226 C29.516129,44.9176452 30.8404194,46.2419355 32.4677419,46.2419355 L48.2096774,46.2419355 C49.837,46.2419355 51.1612903,44.9176452 51.1612903,43.2903226 L51.1612903,37.3870968 C51.1612903,36.1060968 50.3358226,35.0238387 49.1935484,34.6165161 L49.1935484,8.85483871 L53.1290323,8.85483871 L53.1290323,55.0967742 L51.1612903,55.0967742 L51.1612903,61 L61,61 L61,55.0967742 L59.0322581,55.0967742 Z M3.93548387,1.96774194 L5.90322581,1.96774194 L5.90322581,51.1612903 L3.93548387,51.1612903 L3.93548387,1.96774194 Z M3.93548387,53.1290323 L5.90322581,53.1290323 L5.90322581,55.0967742 L3.93548387,55.0967742 L3.93548387,53.1290323 Z M7.87096774,59.0322581 L1.96774194,59.0322581 L1.96774194,57.0645161 L7.87096774,57.0645161 L7.87096774,59.0322581 Z M55.0967742,1.96774194 L57.0645161,1.96774194 L57.0645161,51.1612903 L55.0967742,51.1612903 L55.0967742,1.96774194 Z M55.0967742,53.1290323 L57.0645161,53.1290323 L57.0645161,55.0967742 L55.0967742,55.0967742 L55.0967742,53.1290323 Z M18.6935484,47.2258065 C14.8967903,47.2258065 11.8064516,44.1354677 11.8064516,40.3387097 C11.8064516,36.5419516 14.8967903,33.4516129 18.6935484,33.4516129 C22.4903065,33.4516129 25.5806452,36.5419516 25.5806452,40.3387097 C25.5806452,44.1354677 22.4903065,47.2258065 18.6935484,47.2258065 Z M13.7741935,32.9813226 L13.7741935,8.85483871 L23.6129032,8.85483871 L23.6129032,32.9813226 C22.2049839,32.0368065 20.5127258,31.483871 18.6935484,31.483871 C16.874371,31.483871 15.1821129,32.0368065 13.7741935,32.9813226 Z M49.1935484,39.3548387 L35.4193548,39.3548387 L35.4193548,41.3225806 L49.1935484,41.3225806 L49.1935484,43.2903226 C49.1935484,43.8334194 48.7527742,44.2741935 48.2096774,44.2741935 L45.1281935,44.2741935 L46.0766452,42.8525 L44.4394839,41.7613871 L42.7639516,44.2741935 L40.2098226,44.2741935 L41.1582742,42.8525 L39.5211129,41.7613871 L37.8445968,44.2741935 L35.2904677,44.2741935 L36.2389194,42.8525 L34.6017581,41.7613871 L32.9252419,44.2741935 L32.4677419,44.2741935 C31.9246452,44.2741935 31.483871,43.8334194 31.483871,43.2903226 L31.483871,41.3225806 L33.4516129,41.3225806 L33.4516129,39.3548387 L31.483871,39.3548387 L31.483871,37.3870968 C31.483871,36.844 31.9246452,36.4032258 32.4677419,36.4032258 L32.9252419,36.4032258 L34.6007742,38.9170161 L36.2379355,37.8259032 L35.2894839,36.4032258 L37.8436129,36.4032258 L39.5191452,38.9170161 L41.1563065,37.8259032 L40.2088387,36.4032258 L42.7629677,36.4032258 L44.4385,38.9170161 L46.0756613,37.8259032 L45.1281935,36.4032258 L48.2096774,36.4032258 C48.7527742,36.4032258 49.1935484,36.844 49.1935484,37.3870968 L49.1935484,39.3548387 Z M33.4516129,34.4354839 L33.4516129,8.85483871 L47.2258065,8.85483871 L47.2258065,34.4354839 L33.4516129,34.4354839 Z M7.87096774,6.88709677 L7.87096774,4.91935484 L53.1290323,4.91935484 L53.1290323,6.88709677 L7.87096774,6.88709677 Z M59.0322581,59.0322581 L53.1290323,59.0322581 L53.1290323,57.0645161 L59.0322581,57.0645161 L59.0322581,59.0322581 Z" id="Shape"></path>
                    <path d="M18.6935484,35.4193548 C15.9810161,35.4193548 13.7741935,37.6261774 13.7741935,40.3387097 C13.7741935,43.0512419 15.9810161,45.2580645 18.6935484,45.2580645 C21.4060806,45.2580645 23.6129032,43.0512419 23.6129032,40.3387097 C23.6129032,37.6261774 21.4060806,35.4193548 18.6935484,35.4193548 Z M18.6935484,43.2903226 C17.0662258,43.2903226 15.7419355,41.9660323 15.7419355,40.3387097 C15.7419355,38.7113871 17.0662258,37.3870968 18.6935484,37.3870968 C20.320871,37.3870968 21.6451613,38.7113871 21.6451613,40.3387097 C21.6451613,41.9660323 20.320871,43.2903226 18.6935484,43.2903226 Z" id="Shape"></path>
                </g>
            </g>
        </g>
    </g>
</svg>