<?xml version="1.0" encoding="UTF-8"?>
<svg width="67px" height="60px" viewBox="0 0 67 60" version="1.1" xmlns="http://www.w3.org/2000/svg" xmlns:xlink="http://www.w3.org/1999/xlink">
    <title>Adult obstacle course</title>
    <g id="V2-Pages" stroke="none" stroke-width="1" fill="none" fill-rule="evenodd">
        <g id="Artboard-Copy" transform="translate(-837.000000, -688.000000)" fill="#419E9C" fill-rule="nonzero">
            <g id="Adult-obstacle-course" transform="translate(837.373333, 688.000000)">
                <g id="obstacle" transform="translate(0.626667, 0.000000)">
                    <path d="M64.8716679,56.0135758 C64.9190239,55.7133576 64.8318994,55.4020202 64.6215447,55.1677414 L57.5597484,47.3072485 L57.5597484,17.5838384 C57.5597484,17.0126222 57.0911597,16.5494949 56.5132075,16.5494949 L55.4666667,16.5494949 L55.4666667,7.36116364 L61.1441509,4.72617374 C61.515673,4.55369697 61.7511447,4.18236768 61.7456503,3.77664646 C61.7404176,3.37092525 61.495527,3.00580202 61.1195572,2.84263434 L54.8418818,0.121018182 C54.518239,-0.0193939394 54.1446239,0.0111191919 53.8489761,0.202214141 C53.5533283,0.393309091 53.3748931,0.718868687 53.3748931,1.06821818 L53.3748931,6.19106263 C53.3748931,6.19623434 53.3733233,6.20088889 53.3733233,6.20606061 L53.3733233,16.5494949 L52.3267824,16.5494949 C51.7488302,16.5494949 51.2802415,17.0126222 51.2802415,17.5838384 L51.2802415,20.6868687 L13.6050314,20.6868687 L13.6050314,17.5838384 C13.6050314,17.0126222 13.1364428,16.5494949 12.5584906,16.5494949 L11.5119497,16.5494949 L11.5119497,7.32987475 L17.1852478,4.72824242 C17.5575547,4.55731717 17.7945962,4.18728081 17.791195,3.78130101 C17.7877937,3.3755798 17.5447346,3.00916364 17.1692881,2.84444444 L10.8900428,0.0889535354 C10.5664,-0.0532686869 10.1914767,-0.023789899 9.89504403,0.167046465 C9.59808805,0.357882828 9.41886792,0.684218182 9.41886792,1.03434343 L9.41886792,6.20606061 L9.41886792,6.66944646 L9.41886792,16.5494949 L8.37232704,16.5494949 C7.79437484,16.5494949 7.32578616,17.0126222 7.32578616,17.5838384 L7.32578616,47.3069899 L0.263989937,55.1677414 C0.0905257862,55.3609051 0.00078490566,55.606303 0.00078490566,55.8545455 L0,55.8545455 L0,58.9575758 C0,59.5287919 0.468588679,59.9919192 1.04654088,59.9919192 L19.8842767,59.9919192 C20.4622289,59.9919192 20.9308176,59.5287919 20.9308176,58.9575758 L20.9308176,55.8545455 L20.9300327,55.8545455 C20.9300327,55.6060444 20.8400302,55.3606465 20.6668277,55.1677414 L13.6743648,47.3843071 C13.6529107,47.3605172 13.6280553,47.3426747 13.6050314,47.3212121 L13.6050314,40.3393939 L51.2805031,40.3393939 L51.2805031,47.3072485 L44.2187069,55.1677414 C44.0452428,55.3609051 43.9555019,55.606303 43.9555019,55.8545455 L43.954717,55.8545455 L43.954717,58.9575758 C43.954717,59.5287919 44.4233057,59.9919192 45.0012579,59.9919192 L63.8389937,59.9919192 C64.4169459,59.9919192 64.8855346,59.5287919 64.8855346,58.9575758 L64.8855346,56.0133172 L64.8716679,56.0133172 L64.8716679,56.0135758 Z M55.4682365,2.65128081 L58.1683119,3.82189899 L55.4682365,5.07500606 L55.4682365,2.65128081 Z M11.5119497,2.62542222 L14.2130717,3.81052121 L11.5119497,5.04940606 L11.5119497,2.62542222 Z M61.5101786,54.820202 L57.5597484,54.820202 L57.5597484,50.4229495 L61.5101786,54.820202 Z M53.3735849,18.6181818 L55.4666667,18.6181818 L55.4666667,54.820202 L53.3735849,54.820202 L53.3735849,18.6181818 Z M13.6050314,35.1676768 L13.6050314,33.0989899 L51.2805031,33.0989899 L51.2805031,35.1676768 L13.6050314,35.1676768 Z M51.2805031,25.8585859 L51.2805031,27.9272727 L13.6050314,27.9272727 L13.6050314,25.8585859 L51.2805031,25.8585859 Z M37.6754717,31.030303 L37.6754717,29.9959596 L42.9081761,29.9959596 L42.9081761,31.030303 L37.6754717,31.030303 Z M29.3031447,31.030303 L29.3031447,29.9959596 L35.5823899,29.9959596 L35.5823899,31.030303 L29.3031447,31.030303 Z M21.9773585,31.030303 L21.9773585,29.9959596 L27.2100629,29.9959596 L27.2100629,31.030303 L21.9773585,31.030303 Z M13.6050314,31.030303 L13.6050314,29.9959596 L19.8842767,29.9959596 L19.8842767,31.030303 L13.6050314,31.030303 Z M45.0012579,29.9959596 L51.2805031,29.9959596 L51.2805031,31.030303 L45.0012579,31.030303 L45.0012579,29.9959596 Z M51.2805031,22.7555556 L51.2805031,23.789899 L45.0012579,23.789899 L45.0012579,22.7555556 L51.2805031,22.7555556 Z M42.9081761,22.7555556 L42.9081761,23.789899 L37.6754717,23.789899 L37.6754717,22.7555556 L42.9081761,22.7555556 Z M35.5823899,22.7555556 L35.5823899,23.789899 L29.3031447,23.789899 L29.3031447,22.7555556 L35.5823899,22.7555556 Z M27.2100629,22.7555556 L27.2100629,23.789899 L21.9773585,23.789899 L21.9773585,22.7555556 L27.2100629,22.7555556 Z M19.8842767,22.7555556 L19.8842767,23.789899 L13.6050314,23.789899 L13.6050314,22.7555556 L19.8842767,22.7555556 Z M9.41886792,18.6181818 L11.5119497,18.6181818 L11.5119497,54.820202 L9.41886792,54.820202 L9.41886792,18.6181818 Z M7.32578616,50.4229495 L7.32578616,54.820202 L3.37535597,54.820202 L7.32578616,50.4229495 Z M2.09308176,57.9232323 L2.09308176,56.8888889 L8.37232704,56.8888889 L12.5584906,56.8888889 L18.8377358,56.8888889 L18.8377358,57.9232323 L2.09308176,57.9232323 Z M17.5554616,54.820202 L13.6050314,54.820202 L13.6050314,50.4229495 L17.5554616,54.820202 Z M13.6050314,38.2707071 L13.6050314,37.2361051 L19.8842767,37.2361051 L19.8842767,38.2707071 L13.6050314,38.2707071 Z M21.9773585,38.2707071 L21.9773585,37.2361051 L27.2100629,37.2361051 L27.2100629,38.2707071 L21.9773585,38.2707071 Z M29.3031447,38.2707071 L29.3031447,37.2361051 L35.5823899,37.2361051 L35.5823899,38.2707071 L29.3031447,38.2707071 Z M37.6754717,38.2707071 L37.6754717,37.2361051 L42.9081761,37.2361051 L42.9081761,38.2707071 L37.6754717,38.2707071 Z M45.0012579,38.2707071 L45.0012579,37.2361051 L51.2805031,37.2361051 L51.2805031,38.2707071 L45.0012579,38.2707071 Z M51.2805031,50.4232081 L51.2805031,54.820202 L47.330073,54.820202 L51.2805031,50.4232081 Z M46.0477987,57.9232323 L46.0477987,56.8888889 L52.327044,56.8888889 L56.5132075,56.8888889 L62.7924528,56.8888889 L62.7924528,57.9232323 L46.0477987,57.9232323 Z" id="Shape"></path>
                </g>
            </g>
        </g>
    </g>
</svg>