<?xml version="1.0" encoding="UTF-8"?>
<svg width="35px" height="37px" viewBox="0 0 35 37" version="1.1" xmlns="http://www.w3.org/2000/svg" xmlns:xlink="http://www.w3.org/1999/xlink">
    <title>Group 15</title>
    <g id="HP" stroke="none" stroke-width="1" fill="none" fill-rule="evenodd">
        <g id="2,0-HP" transform="translate(-228.000000, -1789.000000)">
            <g id="01-Heritage-Trail" transform="translate(0.000000, 1287.000000)">
                <g id="MAP" transform="translate(0.000000, 296.229665)">
                    <g id="Pin" transform="translate(98.000000, 29.770335)">
                        <g id="Group-16-Copy-5" transform="translate(103.000000, 150.000000)">
                            <g id="Group-15" transform="translate(27.456301, 27.238523)">
                                <circle id="Oval" fill="#242655" cx="17" cy="17" r="17"></circle>
                                <g id="trumpet" transform="translate(9.543699, 9.761477)" fill-rule="nonzero">
                                    <path d="M11.853707,3.14626097 C11.6581997,2.95124634 11.3416378,2.95124634 11.1466305,3.14626097 C10.9511232,3.34177563 10.9511232,3.65834938 11.1466305,3.853364 C11.3416378,4.04887867 11.6581997,4.04887867 11.853707,3.853364 C12.0487643,3.65834938 12.0487643,3.34182564 11.853707,3.14626097 Z" id="Path" fill="#FFAB2E"></path>
                                    <g id="Group" fill="#FFFFFF">
                                        <path d="M13.7331912,4.10803711 L10.0679522,0.257607422 C9.74101594,-0.0858398437 9.21177689,-0.0859570312 8.88481275,0.257607422 C8.58255777,0.575126953 8.56047012,1.07244141 8.81439442,1.41624023 L8.90299602,2.255625 C9.06968526,3.82980469 8.28540637,4.73021484 7.16908765,5.90607422 L6.97166534,5.69868164 C6.70923506,5.42361328 6.32482072,5.37339844 6.01955378,5.52708984 L5.59152191,5.07758789 L5.78872112,4.87048828 C5.89768127,4.75614258 5.89773705,4.57060547 5.78886056,4.45614258 C5.67995618,4.34167969 5.50336653,4.34165039 5.39443426,4.45599609 C5.13080478,4.73288086 4.89913546,4.97613281 4.60535857,5.28462891 C4.49645418,5.3990332 4.49645418,5.58457031 4.60535857,5.69900391 C4.71429084,5.8134082 4.89088048,5.81337891 4.99978486,5.69900391 L5.19701195,5.4919043 L5.62507171,5.94143555 C5.4792988,6.26147461 5.52629084,6.66641602 5.78872112,6.9421582 L5.98583665,7.14922852 L5.59138247,7.56360352 L5.39437849,7.35665039 C5.13189243,7.08014648 4.74569323,7.03142578 4.44159761,7.18438477 L4.01373307,6.73505859 L4.21093227,6.52795898 C4.31989243,6.41361328 4.31994821,6.22807617 4.21107171,6.11361328 C4.10219522,5.99917969 3.92557769,5.9990918 3.81664542,6.1134668 C3.55017131,6.39331055 3.31936653,6.6356543 3.02759761,6.94207031 C2.91869323,7.05647461 2.91866534,7.24198242 3.02759761,7.35644531 C3.13652988,7.47084961 3.31311952,7.47084961 3.4220239,7.35644531 L3.619251,7.1493457 L4.04767331,7.59922852 C3.89955777,7.92591797 3.95388446,8.32942383 4.21098805,8.59959961 L4.40810359,8.80666992 L4.01367729,9.22101562 L3.81611554,9.01350586 C3.55360159,8.7384668 3.16924303,8.68836914 2.86405976,8.84197266 L2.43597211,8.39226562 L2.63333865,8.18493164 C2.74221514,8.07049805 2.74213147,7.88496094 2.6331992,7.77055664 C2.52423904,7.65624023 2.34762151,7.65629883 2.23877291,7.77073242 L1.44989243,8.59951172 C1.34093227,8.71388672 1.34087649,8.89942383 1.44975299,9.01388672 C1.55860159,9.12829102 1.73516335,9.1284668 1.84417928,9.0140625 L2.04154582,8.80672852 L2.46994024,9.25675781 C2.32193625,9.58335937 2.37623506,9.98683594 2.6331992,10.2571289 L2.83034263,10.4642285 L1.21911554,12.1568262 C0.914545817,12.0036035 0.529322709,12.0529102 0.2667251,12.3287402 C-0.06012749,12.6720703 -0.0602111554,13.2279199 0.266808765,13.5714844 L1.0555498,14.4003516 C1.38248606,14.7437988 1.91200398,14.743916 2.23896813,14.4003516 C2.50201195,14.1240234 2.54802789,13.7187598 2.40258964,13.3995996 L2.85273705,12.9266895 C2.84704781,13.460332 3.03696813,13.9957324 3.4220239,14.4003809 C4.18329482,15.1997754 5.42190438,15.2000391 6.18311952,14.4003516 L6.38026295,14.193252 L6.57740637,14.4003516 C6.90434263,14.7437988 7.43386056,14.743916 7.7608247,14.4003516 C8.08773307,14.0569336 8.08795618,13.500791 7.76076892,13.1570801 L7.56359761,12.9499512 L7.95796813,12.5358105 L8.15516733,12.7429687 C8.48115538,13.0854199 9.01195618,13.0858008 9.33819522,12.7430859 C9.66543825,12.3997266 9.66574502,11.8433203 9.33830677,11.4997559 L9.14119124,11.2926855 L9.5357012,10.8783984 L9.73287251,11.0855273 C10.0590558,11.4281543 10.5898008,11.4282129 10.9159841,11.0855273 C11.2428645,10.7421387 11.2430598,10.1862305 10.9160677,9.84269531 L10.7187849,9.63530273 L10.9159841,9.42811523 C11.6789004,8.62666992 11.6789841,7.329375 10.9159841,6.5278125 C10.5659004,6.16004883 10.115,5.96041992 9.65539841,5.9306543 C10.2655976,5.48200195 10.9328845,5.22700195 11.831255,5.33188477 L12.6302032,5.42496094 C12.9573068,5.69147461 13.4307689,5.66862305 13.7331355,5.35098633 C14.0601833,5.00745117 14.0602112,4.45160156 13.7331912,4.10803711 Z M6.38031873,7.56357422 L6.77466135,7.97783203 L6.38029084,8.39229492 L5.98586454,7.97794922 L6.38031873,7.56357422 Z M4.80255777,9.22101562 L5.19709562,9.63547852 L4.80264143,10.0497363 L4.40815936,9.63533203 L4.80255777,9.22101562 Z M5.5915498,10.0497949 L5.98589243,10.4640527 L5.59152191,10.8783398 L5.19709562,10.4640234 L5.5915498,10.0497949 Z M1.84454183,13.9859473 C1.73560956,14.1003809 1.55899203,14.1004687 1.45000398,13.9859766 L0.66123506,13.1571094 C0.5522749,13.0426172 0.552247012,12.8574609 0.66123506,12.7428809 C0.770278884,12.6283594 0.946394422,12.6283008 1.05549402,12.7428516 C1.05552191,12.7428809 1.0555498,12.7429102 1.05557769,12.7429395 L1.84443028,13.5712793 C1.84448606,13.5713379 1.84451394,13.5713672 1.84456972,13.5714258 C1.95352988,13.6859766 1.95355777,13.8714551 1.84454183,13.9859473 Z M2.04171315,12.9499805 L1.64720319,12.5356934 L3.22485259,10.8783691 L3.61913944,11.2925684 L3.4212988,11.5004297 C3.41714343,11.5047949 3.41301594,11.5092187 3.40886056,11.5137891 L2.04171315,12.9499805 Z M5.78872112,13.9859473 C5.24506375,14.5570898 4.3602749,14.5570312 3.8164502,13.9860059 C3.27778486,13.4199023 3.27374104,12.4951465 3.80716335,11.9240332 L4.01376096,11.7071484 L4.40813147,12.1214355 L4.2110996,12.328418 C3.88441434,12.6711621 3.88410757,13.2284766 4.21098805,13.5714258 C4.53747809,13.9144043 5.06763745,13.9149023 5.39412749,13.5714258 L5.59127092,13.3643262 L5.98586454,13.7788477 L5.78872112,13.9859473 Z M4.60541434,12.7429102 L4.80255777,12.5358105 L5.19687251,12.9500391 L4.99961753,13.1572559 C4.8912988,13.2711914 4.71429084,13.2714844 4.60530279,13.1569922 C4.49706773,13.0434082 4.49642629,12.8572852 4.60541434,12.7429102 Z M7.36645418,13.9859473 C7.25746614,14.1004395 7.08087649,14.1004395 6.97188845,13.9859473 C5.62111155,12.5669531 3.85998406,10.7168848 3.02782072,9.84272461 C2.91905578,9.72832031 2.919,9.54228516 3.02743028,9.42834961 C3.13742231,9.31306641 3.31300797,9.31385742 3.42207968,9.42811523 C4.13064143,10.1724609 6.272,12.4219922 6.97183267,13.157168 C7.29112749,13.4923535 7.36001195,13.5646582 7.36598008,13.5708984 C7.36174104,13.5664453 7.32980876,13.5329297 7.36648207,13.5713965 C7.47547012,13.6859766 7.47547012,13.8714551 7.36645418,13.9859473 Z M5.98594821,11.2926562 L6.38031873,10.8783691 L6.77466135,11.292627 L6.3803745,11.7069727 L5.98594821,11.2926562 Z M7.1691992,12.5356055 L6.7748008,12.1213184 L7.16905976,11.707002 L7.56359761,12.1214648 L7.1691992,12.5356055 Z M8.94393625,12.3285645 C8.83522709,12.4427344 8.65830279,12.442793 8.54962151,12.3285645 C7.95657371,11.7055664 5.12637052,8.73249023 4.60544223,8.18522461 C4.49667729,8.0709375 4.49667729,7.88496094 4.60569323,7.77043945 C4.71267331,7.65776367 4.88945817,7.65454102 4.99975697,7.77070312 C5.7631753,8.57267578 7.78815538,10.6999219 8.54959363,11.4997852 L8.94410359,11.914248 C9.05256175,12.0280664 9.05373307,12.2133691 8.94393625,12.3285645 Z M7.16908765,9.22089844 L6.77468924,8.80658203 L7.16905976,8.39211914 L7.56359761,8.80658203 L7.16908765,9.22089844 Z M7.95799602,9.22095703 L8.35239442,9.63527344 L7.9580239,10.0497363 L7.56348606,9.63527344 L7.95799602,9.22095703 Z M8.74682072,10.8783105 L8.3524502,10.4640234 L8.74682072,10.0495605 L9.14135857,10.4640234 L8.74682072,10.8783105 Z M10.5216414,10.6711523 C10.4129602,10.7853516 10.2360637,10.7853516 10.1273267,10.6711523 C9.93804781,10.4723145 6.3456255,6.6984668 6.18314741,6.5277832 C6.0738247,6.41293945 6.07457769,6.22737305 6.18289641,6.11352539 C6.18298008,6.1134375 6.18309163,6.11334961 6.1831753,6.11326172 C6.29447809,5.99695312 6.46998008,6.00067383 6.57737849,6.11320312 C6.79677689,6.34371094 10.3620359,10.0892578 10.5216414,10.2569531 C10.6306016,10.371416 10.6306574,10.5566309 10.5216414,10.6711523 Z M9.14119124,7.97777344 L9.33819522,7.77082031 C9.44707171,7.65665039 9.62419124,7.65662109 9.7329004,7.77070312 C9.84166534,7.88496094 9.84166534,8.0709375 9.7329004,8.18519531 L9.53575697,8.39229492 L9.14119124,7.97777344 Z M10.5216414,6.94212891 C11.0665538,7.51453125 11.0666375,8.44125 10.5216414,9.01374023 L10.324498,9.22083984 L9.93018327,8.80661133 L10.1273267,8.59951172 C10.4535936,8.25673828 10.4535936,7.69907227 10.1272151,7.35621094 C9.80100398,7.01393555 9.27020319,7.01390625 8.94390837,7.35632812 L8.74676494,7.56342773 L8.35256175,7.14931641 C8.36293625,7.13844727 8.37347809,7.12734375 8.3838247,7.1165332 C8.45850996,7.03839844 8.53238645,6.96164062 8.60570518,6.88631836 C9.15664143,6.36726562 9.99733865,6.39128906 10.5216414,6.94212891 Z M13.3388207,4.93655273 C13.2298606,5.05101562 13.0535498,5.05107422 12.9444781,4.93652344 L11.9005578,3.84017578 C11.7916534,3.72580078 11.615008,3.72583008 11.5061315,3.84023437 C11.3972271,3.95466797 11.397255,4.14017578 11.5061594,4.25460937 L11.9878765,4.76053711 L11.8928327,4.74946289 C11.1416574,4.66177734 10.4679283,4.78766602 9.83318725,5.13418945 C9.26925498,5.44207031 8.78115139,5.88723633 8.22196016,6.46092773 C8.19853386,6.48342773 8.17597211,6.50592773 8.155,6.52795898 L7.98962151,6.70195312 C7.98959363,6.70198242 7.98953785,6.70204102 7.98950996,6.70207031 C7.97910757,6.71291016 7.96853785,6.72407227 7.95810757,6.735 L7.56345817,6.32041992 C8.12566135,5.72827148 8.61086454,5.19881836 8.96052988,4.59328125 C9.39360956,3.84328125 9.55145817,3.07989258 9.45733466,2.1909668 L9.44679283,2.09112305 L9.92837052,2.59713867 C10.0372749,2.71154297 10.2138645,2.71160156 10.3227968,2.59719727 C10.4317291,2.48279297 10.431757,2.29728516 10.3228526,2.18282227 L9.27918327,1.08612305 C9.17022311,0.971630859 9.17019522,0.786445313 9.27918327,0.671923828 C9.38817131,0.557431641 9.56448207,0.557431641 9.67349801,0.671923828 L13.3387649,4.52232422 C13.4478088,4.6368457 13.4478088,4.82206055 13.3388207,4.93655273 Z" id="Shape"></path>
                                        <path d="M7.40142586,13.6056793 C7.40342586,13.6076793 7.40372586,13.6079793 7.40142586,13.6056793 L7.40142586,13.6056793 Z" id="Path"></path>
                                    </g>
                                </g>
                            </g>
                        </g>
                    </g>
                </g>
            </g>
        </g>
    </g>
</svg>