<?xml version="1.0" encoding="UTF-8"?>
<svg width="35px" height="37px" viewBox="0 0 35 37" version="1.1" xmlns="http://www.w3.org/2000/svg" xmlns:xlink="http://www.w3.org/1999/xlink">
    <title>Group 15</title>
    <g id="HP" stroke="none" stroke-width="1" fill="none" fill-rule="evenodd">
        <g id="2,0-HP" transform="translate(-684.000000, -1986.000000)">
            <g id="01-Heritage-Trail" transform="translate(0.000000, 1287.000000)">
                <g id="MAP" transform="translate(0.000000, 296.229665)">
                    <g id="Pin" transform="translate(98.000000, 29.770335)">
                        <g id="Group-16-Copy-6" transform="translate(529.000000, 317.000000)">
                            <g id="Group-15" transform="translate(57.456301, 57.238523)">
                                <circle id="Oval" fill="#242655" cx="17" cy="17" r="17"></circle>
                                <g id="sand-castle" transform="translate(9.543699, 9.761477)" fill="#FFFFFF" fill-rule="nonzero">
                                    <path d="M14.7064769,14.4140625 L12.3174068,14.4140625 L13.4068872,11.5202344 C13.7693931,10.5574512 13.3576117,9.48978516 12.4834552,9.00477539 L13.6953041,6.02853516 C14.2122572,6.08835937 14.7298549,5.79430664 14.9244374,5.27660156 C15.1525636,4.67080078 14.8468036,3.99524414 14.2407913,3.76731445 C13.6361559,3.53964844 12.9588963,3.84626953 12.7310924,4.45092773 C12.5399082,4.95873047 12.7256726,5.51750977 13.1481763,5.81850586 L11.9357415,8.79618164 C10.9665788,8.5772168 9.93818007,9.0927832 9.56864322,10.0747852 L9.55042125,10.1232129 L9.55042125,6.9140625 L10.1363367,6.9140625 C10.2981079,6.9140625 10.4292944,6.78290039 10.4292944,6.62109375 L10.4292944,3.984375 C10.4292944,3.82256836 10.2981079,3.69140625 10.1363367,3.69140625 L8.37859042,3.69140625 C8.21681917,3.69140625 8.08563271,3.82256836 8.08563271,3.984375 L8.08563271,4.5703125 L6.91380188,4.5703125 L6.91380188,3.984375 C6.91380188,3.82256836 6.78261542,3.69140625 6.62084418,3.69140625 L6.03492876,3.69140625 L6.03492876,2.34375 L8.37859042,2.34375 C8.54036166,2.34375 8.67154813,2.21258789 8.67154813,2.05078125 L8.67154813,0.29296875 C8.67154813,0.131162109 8.54036166,0 8.37859042,0 L5.74197106,0 C5.58019981,0 5.44901335,0.131162109 5.44901335,0.29296875 L5.44901335,3.69140625 L4.86309794,3.69140625 C4.70132669,3.69140625 4.57014023,3.82256836 4.57014023,3.984375 L4.57014023,4.5703125 L3.3983094,4.5703125 L3.3983094,3.984375 C3.3983094,3.82256836 3.26712294,3.69140625 3.10535169,3.69140625 L1.34760545,3.69140625 C1.18583421,3.69140625 1.05464775,3.82256836 1.05464775,3.984375 L1.05464775,6.62109375 C1.05464775,6.78290039 1.18583421,6.9140625 1.34760545,6.9140625 L1.93352087,6.9140625 L1.93352087,13.7255566 C1.54930683,14.1777832 0.829949184,14.4140625 0.292957707,14.4140625 C0.131186461,14.4140625 0,14.5452539 0,14.7070312 C0,14.8688086 0.131186461,15 0.292957707,15 L4.42366137,15 C4.58543262,15 4.71661908,14.8688086 4.71661908,14.7070312 C4.71661908,14.5452539 4.58543262,14.4140625 4.42366137,14.4140625 L2.05184648,14.4140625 C2.59844697,13.9972852 3.42845475,12.3632812 5.74197106,12.3632812 C8.05510652,12.3632812 8.94684048,14.0235059 9.40751648,14.4140625 L7.06028074,14.4140625 C6.89850949,14.4140625 6.76732303,14.5452539 6.76732303,14.7070312 C6.76732303,14.8688086 6.89850949,15 7.06028074,15 L14.7064769,15 C14.8682481,15 14.9994346,14.8688086 14.9994346,14.7070312 C14.9994346,14.5452539 14.8682481,14.4140625 14.7064769,14.4140625 L14.7064769,14.4140625 Z M13.279392,4.6575 C13.3931475,4.35553711 13.7316308,4.20169922 14.0344026,4.31572266 C14.337233,4.42959961 14.4901569,4.76733398 14.3760792,5.07023437 C14.3760499,5.07029297 14.3760206,5.07038086 14.3759913,5.07043945 C14.2621186,5.37339844 13.9245728,5.52650391 13.6214494,5.41233398 C13.3190292,5.29845703 13.1655779,4.95981445 13.279392,4.6575 Z M6.03492876,0.5859375 L8.08563271,0.5859375 L8.08563271,1.7578125 L6.03492876,1.7578125 L6.03492876,0.5859375 Z M1.64056316,6.328125 L1.64056316,4.27734375 L2.81239399,4.27734375 L2.81239399,4.86328125 C2.81239399,5.02508789 2.94358045,5.15625 3.10535169,5.15625 L4.86309794,5.15625 C5.02486918,5.15625 5.15605564,5.02508789 5.15605564,4.86328125 L5.15605564,4.27734375 L6.32788647,4.27734375 L6.32788647,4.86328125 C6.32788647,5.02508789 6.45907293,5.15625 6.62084418,5.15625 L8.37859042,5.15625 C8.54036166,5.15625 8.67154813,5.02508789 8.67154813,4.86328125 L8.67154813,4.27734375 L9.84337895,4.27734375 L9.84337895,6.328125 L1.64056316,6.328125 Z M7.20675959,12.0110449 C6.73606444,11.8560352 6.24515521,11.7773145 5.74197106,11.7773145 C5.23881619,11.7773145 4.74793626,11.8560059 4.27718252,12.0110449 L4.27718252,10.1367187 C4.27718252,9.32900391 4.93428666,8.671875 5.74197106,8.671875 C6.54965545,8.671875 7.20675959,9.32900391 7.20675959,10.1367187 L7.20675959,12.0110449 Z M8.96450583,11.6796387 L8.57030194,12.7267969 C8.32714705,12.5425195 8.06720567,12.3824707 7.792675,12.2487012 L7.792675,10.1367187 C7.792675,9.00591797 6.87272921,8.0859375 5.74197106,8.0859375 C4.6112129,8.0859375 3.69126711,9.00591797 3.69126711,10.1367187 L3.69126711,12.2491992 C3.26164463,12.4587012 2.86621032,12.7333008 2.51943628,13.0617187 L2.51943628,6.9140625 L8.96450583,6.9140625 L8.96450583,11.6796387 Z M11.0152098,14.4140625 L10.9979253,14.4140625 C9.88260599,14.4140625 9.51930914,13.609834 9.04213962,13.1364258 L10.1170015,10.2812109 C10.40202,9.52371094 11.2460605,9.14138672 12.0037956,9.42650391 C12.7597143,9.71124023 13.1431667,10.5578613 12.8585583,11.31375 L11.6913562,14.4140625 L11.0152098,14.4140625 Z" id="Shape"></path>
                                    <circle id="Oval" cx="5.5" cy="14.5" r="1"></circle>
                                </g>
                            </g>
                        </g>
                    </g>
                </g>
            </g>
        </g>
    </g>
</svg>