<?xml version="1.0" encoding="UTF-8"?>
<svg width="77px" height="77px" viewBox="0 0 77 77" version="1.1" xmlns="http://www.w3.org/2000/svg" xmlns:xlink="http://www.w3.org/1999/xlink">
    <title>Atoms / icons / System / Play</title>
    <defs>
        <path d="M59.6,44.7 L39.5166667,29.6375 C39.0748389,29.3061292 38.4480375,29.3956722 38.1166667,29.8375 C37.9868445,30.0105962 37.9166667,30.2211298 37.9166667,30.4375 L37.9166667,60.5625 C37.9166667,61.1147847 38.3643819,61.5625 38.9166667,61.5625 C39.1330369,61.5625 39.3435705,61.4923221 39.5166667,61.3625 L59.6,46.3 C60.0418278,45.9686292 60.1313708,45.3418278 59.8,44.9 C59.7431458,44.8241943 59.6758057,44.7568542 59.6,44.7 Z M7.58333333,45.5 C7.58333333,66.43 24.57,83.4166667 45.5,83.4166667 C66.43,83.4166667 83.4166667,66.43 83.4166667,45.5 C83.4166667,24.57 66.43,7.58333333 45.5,7.58333333 C24.57,7.58333333 7.58333333,24.57 7.58333333,45.5 Z M15.1666667,45.5 C15.1666667,28.77875 28.77875,15.1666667 45.5,15.1666667 C62.22125,15.1666667 75.8333333,28.77875 75.8333333,45.5 C75.8333333,62.22125 62.22125,75.8333333 45.5,75.8333333 C28.77875,75.8333333 15.1666667,62.22125 15.1666667,45.5 Z" id="path-1"></path>
    </defs>
    <g id="1.-Homepage" stroke="none" stroke-width="1" fill="none" fill-rule="evenodd">
        <g id="1,3-HP" transform="translate(-743.000000, -3078.000000)">
            <g id="02-MARVISTA" transform="translate(47.000000, 2525.000000)">
                <g id="5.-Video" transform="translate(82.000000, 260.000000)">
                    <g id="Atoms-/-icons-/-System-/-Play" transform="translate(607.000000, 286.000000)">
                        <mask id="mask-2" fill="white">
                            <use xlink:href="#path-1"></use>
                        </mask>
                        <use id="Mask" fill="#F2F5F7" xlink:href="#path-1"></use>
                        <g id="Group" mask="url(#mask-2)" fill="#F2F5F7">
                            <g id="↪🎨">
                                <rect id="Atoms-/-Colors-/-Black" x="0" y="0" width="91" height="91"></rect>
                            </g>
                        </g>
                    </g>
                </g>
            </g>
        </g>
    </g>
</svg>