<?xml version="1.0" encoding="UTF-8"?>
<svg width="30px" height="29px" viewBox="0 0 30 29" version="1.1" xmlns="http://www.w3.org/2000/svg" xmlns:xlink="http://www.w3.org/1999/xlink">
    <title>run</title>
    <g id="Page-1" stroke="none" stroke-width="1" fill="none" fill-rule="evenodd">
        <g id="run" fill="#DB7112" fill-rule="nonzero">
            <path d="M24.7037635,16.4998262 L25.3466678,15.7781635 L28.8827501,11.807604 C29.1475266,11.5101928 29.2785007,11.117053 29.2447781,10.7204322 C29.2112731,10.3238114 29.0158998,9.95830234 28.7047821,9.70984325 C28.0694925,9.23794494 27.1770413,9.33845995 26.6627179,9.94002689 L23.5025877,13.4880753 C23.4175198,13.5838038 23.2976415,13.6418937 23.1697134,13.6492909 C23.0415677,13.6566881 22.9160327,13.6129576 22.8203042,13.5276721 L19.9327828,10.9558374 L18.1280819,9.34890307 C18.0323534,9.26361763 17.9066009,9.2198871 17.7786727,9.22728427 C17.650527,9.23468151 17.5308663,9.29277135 17.4455809,9.38849991 L15.8384289,11.1927656 L2.3916127,26.291117 C1.85335711,26.8715802 1.8566206,27.7696881 2.39879233,28.3462351 C2.68119154,28.6268938 3.06671655,28.7794068 3.46464274,28.7674407 C3.86256898,28.7554747 4.23830358,28.5805525 4.5032976,28.2833588 L17.6822915,13.4828537 C17.7675769,13.3869076 17.8874552,13.3290354 18.0153833,13.3216382 C18.1433115,13.3142409 18.269064,13.3577539 18.3647926,13.4430393 L21.2523139,16.0148741 L21.9744118,16.6577783 C22.7717872,17.3676926 23.9936317,17.296984 24.7037635,16.4998262 L24.7037635,16.4998262 Z" id="Path"></path>
            <path d="M4.90057108,10.5102645 C5.5360782,10.9821628 6.42831184,10.8816478 6.94263527,10.2800808 L10.1027654,6.73203244 C10.1880509,6.63630389 10.3077116,6.57821404 10.4358573,6.57081687 C10.5637855,6.56341963 10.689538,6.60715022 10.7852665,6.69243566 L14.0337281,9.58561368 C14.1294566,9.67089912 14.2552092,9.71462965 14.3831373,9.70723247 C14.5110655,9.69983524 14.6309438,9.6417454 14.7162292,9.54601684 L16.0018202,8.10225622 C16.0871056,8.00652766 16.1308362,7.88077512 16.1234389,7.75284696 C16.1160417,7.6249188 16.0579519,7.50504052 15.9622233,7.41975508 L12.3532568,4.20566882 L11.6309413,3.56232942 C10.8337835,2.85241513 9.61172147,2.92312371 8.90158963,3.72028151 L8.25890294,4.44237943 L4.72282057,8.41250374 C4.45782655,8.70991497 4.32685245,9.10305476 4.36057502,9.49967553 C4.3942976,9.89629636 4.5894533,10.2618054 4.90057108,10.5102645 Z" id="Path"></path>
            <path d="M16.0120457,26.2939453 C15.4737902,26.8744085 15.4770536,27.7725164 16.0192254,28.3490634 C16.3018422,28.629287 16.6873671,28.7811473 17.0852934,28.7687461 C17.4832196,28.7561273 17.858519,28.58077 18.1230779,28.2833588 L21.661771,24.3136696 L22.3044578,23.5922244 C22.6455995,23.2093102 22.8205217,22.7065177 22.7909329,22.1945875 C22.7613441,21.6824397 22.5294199,21.2033618 22.1465057,20.8622201 L21.4248429,20.2195333 L17.8152236,17.0047943 C17.719495,16.9195089 17.5937425,16.8757784 17.4658144,16.8831756 C17.3378862,16.8907903 17.2180079,16.9486626 17.1329401,17.0443912 L15.8471315,18.4881519 C15.7618461,18.5838804 15.7181156,18.7096329 15.7255127,18.8375611 C15.7331275,18.9654892 15.7909998,19.0853675 15.8867283,19.1706529 L19.1351899,22.0633959 C19.2309184,22.1486813 19.2887907,22.2685596 19.2961879,22.3964877 C19.3035851,22.5244159 19.2598545,22.6501684 19.1743515,22.7458969 L16.0120457,26.2939453 Z" id="Path"></path>
            <path d="M19.4282498,7.48741778 C21.0227829,8.907899 23.4669071,8.76648184 24.8873883,7.17173109 C26.3076519,5.57719795 26.1664523,3.13307388 24.5717016,1.7125926 C22.9771684,0.292328932 20.5328268,0.433528595 19.1125631,2.02827929 C18.4304972,2.79410774 18.0804352,3.79947513 18.1396129,4.82333558 C18.1987905,5.84697843 18.6624213,6.8053518 19.4282498,7.48741778 Z" id="Path"></path>
            <path d="M1.21676224,13.7833109 L5.0833256,13.7833109 C5.35027774,13.7833109 5.56675483,13.5670514 5.56675483,13.3000992 C5.56675483,13.0331471 5.35027774,12.81667 5.0833256,12.81667 L1.21676224,12.81667 C0.94981009,12.81667 0.733333,13.0331471 0.733333,13.3000992 C0.733333,13.5670514 0.94981009,13.7833109 1.21676224,13.7833109 Z" id="Path"></path>
            <path d="M2.66661474,15.2333809 C2.66661474,15.500333 2.88309177,15.7168101 3.15004392,15.7168101 L7.01660733,15.7168101 C7.28355948,15.7168101 7.50003657,15.500333 7.50003657,15.2333809 C7.50003657,14.9664288 7.28355948,14.7499517 7.01660733,14.7499517 L3.15004392,14.7499517 C2.88309177,14.7499517 2.66661474,14.9664288 2.66661474,15.2333809 Z" id="Path"></path>
        </g>
    </g>
</svg>