<?xml version="1.0" encoding="UTF-8"?>
<svg width="30px" height="29px" viewBox="0 0 30 29" version="1.1" xmlns="http://www.w3.org/2000/svg" xmlns:xlink="http://www.w3.org/1999/xlink">
    <title>Icon/Football</title>
    <g id="1.-Homepage" stroke="none" stroke-width="1" fill="none" fill-rule="evenodd">
        <g id="1,4-HP" transform="translate(-1041.000000, -3443.000000)" fill="#FFFFFF" fill-rule="nonzero">
            <g id="02-Sports" transform="translate(47.000000, 2512.000000)">
                <g id="All/Sports" transform="translate(81.000000, 142.000000)">
                    <g id="Card/Play-Copy-5" transform="translate(878.000000, 516.000000)">
                        <g id="Icon/Activites" transform="translate(20.000000, 258.000000)">
                            <g id="speed" transform="translate(15.733333, 15.733333)">
                                <path d="M23.9704305,15.7664932 L24.6133348,15.0448305 L28.1494171,11.074271 C28.4141936,10.7768598 28.5451677,10.38372 28.5114451,9.9870992 C28.4779401,9.59047837 28.2825668,9.22496934 27.9714491,8.97651025 C27.3361595,8.50461194 26.4437083,8.60512695 25.9293849,9.20669389 L22.7692547,12.7547423 C22.6841868,12.8504708 22.5643085,12.9085607 22.4363804,12.9159579 C22.3082347,12.9233551 22.1826997,12.8796246 22.0869712,12.7943391 L19.1994498,10.2225044 L17.3947489,8.61557007 C17.2990204,8.53028463 17.1732679,8.4865541 17.0453397,8.49395127 C16.917194,8.50134851 16.7975333,8.55943835 16.7122479,8.65516691 L15.1050959,10.4594326 L1.6582797,25.557784 C1.12002411,26.1382472 1.1232876,27.0363551 1.66545933,27.6129021 C1.94785854,27.8935608 2.33338355,28.0460738 2.73130974,28.0341077 C3.12923598,28.0221417 3.50497058,27.8472195 3.7699646,27.5500258 L16.9489585,12.7495207 C17.0342439,12.6535746 17.1541222,12.5957024 17.2820503,12.5883052 C17.4099785,12.5809079 17.535731,12.6244209 17.6314596,12.7097063 L20.5189809,15.2815411 L21.2410788,15.9244453 C22.0384542,16.6343596 23.2602987,16.563651 23.9704305,15.7664932 L23.9704305,15.7664932 Z" id="Path"></path>
                                <path d="M4.16723808,9.77693148 C4.8027452,10.2488298 5.69497884,10.1483148 6.20930227,9.54674784 L9.36943244,5.99869944 C9.45471788,5.90297089 9.5743786,5.84488104 9.70252431,5.83748387 C9.83045247,5.83008663 9.95620496,5.87381722 10.0519335,5.95910266 L13.3003951,8.85228068 C13.3961236,8.93756612 13.5218762,8.98129665 13.6498043,8.97389947 C13.7777325,8.96650224 13.8976108,8.9084124 13.9828962,8.81268384 L15.2684872,7.36892322 C15.3537726,7.27319466 15.3975032,7.14744212 15.3901059,7.01951396 C15.3827087,6.8915858 15.3246189,6.77170752 15.2288903,6.68642208 L11.6199238,3.47233582 L10.8976083,2.82899642 C10.1004505,2.11908213 8.87838847,2.18979071 8.16825663,2.98694851 L7.52556994,3.70904643 L3.98948757,7.67917074 C3.72449355,7.97658197 3.59351945,8.36972176 3.62724202,8.76634253 C3.6609646,9.16296336 3.8561203,9.52847239 4.16723808,9.77693148 Z" id="Path"></path>
                                <path d="M15.2787127,25.5606123 C14.7404572,26.1410755 14.7437206,27.0391834 15.2858924,27.6157304 C15.5685092,27.895954 15.9540341,28.0478143 16.3519604,28.0354131 C16.7498866,28.0227943 17.125186,27.847437 17.3897449,27.5500258 L20.928438,23.5803366 L21.5711248,22.8588914 C21.9122665,22.4759772 22.0871887,21.9731847 22.0575999,21.4612545 C22.0280111,20.9491067 21.7960869,20.4700288 21.4131727,20.1288871 L20.6915099,19.4862003 L17.0818906,16.2714613 C16.986162,16.1861759 16.8604095,16.1424454 16.7324814,16.1498426 C16.6045532,16.1574573 16.4846749,16.2153296 16.3996071,16.3110582 L15.1137985,17.7548189 C15.0285131,17.8505474 14.9847826,17.9762999 14.9921797,18.1042281 C14.9997945,18.2321562 15.0576668,18.3520345 15.1533953,18.4373199 L18.4018569,21.3300629 C18.4975854,21.4153483 18.5554577,21.5352266 18.5628549,21.6631547 C18.5702521,21.7910829 18.5265215,21.9168354 18.4410185,22.0125639 L15.2787127,25.5606123 Z" id="Path"></path>
                                <path d="M18.6949168,6.75408478 C20.2894499,8.174566 22.7335741,8.03314884 24.1540553,6.43839809 C25.5743189,4.84386495 25.4331193,2.39974088 23.8383686,0.979259604 C22.2438354,-0.441004068 19.7994938,-0.299804405 18.3792301,1.29494629 C17.6971642,2.06077474 17.3471022,3.06614213 17.4062799,4.09000258 C17.4654575,5.11364543 17.9290883,6.0720188 18.6949168,6.75408478 Z" id="Path"></path>
                                <path d="M0.483429237,13.0499779 L4.3499926,13.0499779 C4.61694474,13.0499779 4.83342183,12.8337184 4.83342183,12.5667662 C4.83342183,12.2998141 4.61694474,12.083337 4.3499926,12.083337 L0.483429237,12.083337 C0.21647709,12.083337 0,12.2998141 0,12.5667662 C0,12.8337184 0.21647709,13.0499779 0.483429237,13.0499779 Z" id="Path"></path>
                                <path d="M1.93328174,14.500048 C1.93328174,14.767 2.14975877,14.9834771 2.41671092,14.9834771 L6.28327433,14.9834771 C6.55022648,14.9834771 6.76670357,14.767 6.76670357,14.500048 C6.76670357,14.2330958 6.55022648,14.0166187 6.28327433,14.0166187 L2.41671092,14.0166187 C2.14975877,14.0166187 1.93328174,14.2330958 1.93328174,14.500048 Z" id="Path"></path>
                            </g>
                        </g>
                    </g>
                </g>
            </g>
        </g>
    </g>
</svg>