<?xml version="1.0" encoding="UTF-8"?>
<svg width="60px" height="60px" viewBox="0 0 60 60" version="1.1" xmlns="http://www.w3.org/2000/svg" xmlns:xlink="http://www.w3.org/1999/xlink">
    <title>sand-castle</title>
    <g id="1.-Homepage" stroke="none" stroke-width="1" fill="none" fill-rule="evenodd">
        <g id="1,2-HP" transform="translate(-1088.000000, -4545.000000)" fill="#7DB3E1" fill-rule="nonzero">
            <g id="03-Marina" transform="translate(47.000000, 3635.000000)">
                <g id="Activities" transform="translate(81.000000, 910.000000)">
                    <g id="sand-castle" transform="translate(960.000000, 0.000000)">
                        <path d="M58.8259076,57.65625 L49.2696272,57.65625 L53.6275488,46.0809375 C55.0775723,42.2298047 53.4304469,37.9591406 49.9338209,36.0191016 L54.7812163,24.1141406 C56.8490289,24.3534375 58.9194197,23.1772266 59.6977497,21.1064062 C60.6102544,18.6832031 59.3872145,15.9809766 56.9631653,15.0692578 C54.5446236,14.1585937 51.8355851,15.3850781 50.9243695,17.8037109 C50.1596327,19.8349219 50.9026906,22.0700391 52.592705,23.2740234 L47.742966,35.1847266 C43.8663152,34.3088672 39.7527203,36.3711328 38.2745729,40.2991406 L38.201685,40.4928516 L38.201685,27.65625 L40.5453466,27.65625 C41.1924316,27.65625 41.7171775,27.1316016 41.7171775,26.484375 L41.7171775,15.9375 C41.7171775,15.2902734 41.1924316,14.765625 40.5453466,14.765625 L33.5143617,14.765625 C32.8672767,14.765625 32.3425308,15.2902734 32.3425308,15.9375 L32.3425308,18.28125 L27.6552075,18.28125 L27.6552075,15.9375 C27.6552075,15.2902734 27.1304617,14.765625 26.4833767,14.765625 L24.1397151,14.765625 L24.1397151,9.375 L33.5143617,9.375 C34.1614467,9.375 34.6861925,8.85035156 34.6861925,8.203125 L34.6861925,1.171875 C34.6861925,0.524648438 34.1614467,0 33.5143617,0 L22.9678842,0 C22.3207992,0 21.7960534,0.524648438 21.7960534,1.171875 L21.7960534,14.765625 L19.4523917,14.765625 C18.8053068,14.765625 18.2805609,15.2902734 18.2805609,15.9375 L18.2805609,18.28125 L13.5932376,18.28125 L13.5932376,15.9375 C13.5932376,15.2902734 13.0684918,14.765625 12.4214068,14.765625 L5.39042181,14.765625 C4.74333682,14.765625 4.21859098,15.2902734 4.21859098,15.9375 L4.21859098,26.484375 C4.21859098,27.1316016 4.74333682,27.65625 5.39042181,27.65625 L7.73408346,27.65625 L7.73408346,54.9022266 C6.19722733,56.7111328 3.31979674,57.65625 1.17183083,57.65625 C0.524745845,57.65625 0,58.1810156 0,58.828125 C0,59.4752344 0.524745845,60 1.17183083,60 L17.6946455,60 C18.3417305,60 18.8664763,59.4752344 18.8664763,58.828125 C18.8664763,58.1810156 18.3417305,57.65625 17.6946455,57.65625 L8.20738593,57.65625 C10.3937879,55.9891406 13.713819,49.453125 22.9678842,49.453125 C32.2204261,49.453125 35.7873619,56.0940234 37.6300659,57.65625 L28.2411229,57.65625 C27.594038,57.65625 27.0692921,58.1810156 27.0692921,58.828125 C27.0692921,59.4752344 27.594038,60 28.2411229,60 L58.8259076,60 C59.4729925,60 59.9977384,59.4752344 59.9977384,58.828125 C59.9977384,58.1810156 59.4729925,57.65625 58.8259076,57.65625 L58.8259076,57.65625 Z M53.117568,18.63 C53.57259,17.4221484 54.9265233,16.8067969 56.1376105,17.2628906 C57.348932,17.7183984 57.9606277,19.0693359 57.5043167,20.2809375 C57.5041996,20.2811719 57.5040824,20.2815234 57.5039652,20.2817578 C57.0484746,21.4935937 55.6982911,22.1060156 54.4857977,21.6493359 C53.2761168,21.1938281 52.6623118,19.8392578 53.117568,18.63 Z M24.1397151,2.34375 L32.3425308,2.34375 L32.3425308,7.03125 L24.1397151,7.03125 L24.1397151,2.34375 Z M6.56225264,25.3125 L6.56225264,17.109375 L11.2495759,17.109375 L11.2495759,19.453125 C11.2495759,20.1003516 11.7743218,20.625 12.4214068,20.625 L19.4523917,20.625 C20.0994767,20.625 20.6242226,20.1003516 20.6242226,19.453125 L20.6242226,17.109375 L25.3115459,17.109375 L25.3115459,19.453125 C25.3115459,20.1003516 25.8362917,20.625 26.4833767,20.625 L33.5143617,20.625 C34.1614467,20.625 34.6861925,20.1003516 34.6861925,19.453125 L34.6861925,17.109375 L39.3735158,17.109375 L39.3735158,25.3125 L6.56225264,25.3125 Z M28.8270384,48.0441797 C26.9442578,47.4241406 24.9806209,47.1092578 22.9678842,47.1092578 C20.9552648,47.1092578 18.991745,47.4240234 17.1087301,48.0441797 L17.1087301,40.546875 C17.1087301,37.3160156 19.7371466,34.6875 22.9678842,34.6875 C26.1986218,34.6875 28.8270384,37.3160156 28.8270384,40.546875 L28.8270384,48.0441797 Z M35.8580233,46.7185547 L34.2812078,50.9071875 C33.3085882,50.1700781 32.2688227,49.5298828 31.1707,48.9948047 L31.1707,40.546875 C31.1707,36.0236719 27.4909169,32.34375 22.9678842,32.34375 C18.4448516,32.34375 14.7650684,36.0236719 14.7650684,40.546875 L14.7650684,48.9967969 C13.0465785,49.8348047 11.4648413,50.9332031 10.0777451,52.246875 L10.0777451,27.65625 L35.8580233,27.65625 L35.8580233,46.7185547 Z M44.0608391,57.65625 L43.9917011,57.65625 C39.530424,57.65625 38.0772366,54.4393359 36.1685585,52.5457031 L40.4680058,41.1248437 C41.60808,38.0948437 44.9842418,36.5655469 48.0151823,37.7060156 C51.0388573,38.8449609 52.5726667,42.2314453 51.4342331,45.255 L46.7654247,57.65625 L44.0608391,57.65625 Z" id="Shape"></path>
                        <circle id="Oval" cx="23.129771" cy="58.8549618" r="1.14503817"></circle>
                    </g>
                </g>
            </g>
        </g>
    </g>
</svg>