<?xml version="1.0" encoding="UTF-8"?>
<svg width="24px" height="24px" viewBox="0 0 24 24" version="1.1" xmlns="http://www.w3.org/2000/svg" xmlns:xlink="http://www.w3.org/1999/xlink">
    <title>search (6)</title>
    <g id="2.-V0.8" stroke="none" stroke-width="1" fill="none" fill-rule="evenodd">
        <g id="Search" transform="translate(-1466.000000, -797.000000)" fill="#212237">
            <g id="Tab" transform="translate(0.000000, 753.000000)">
                <g id="search-(6)" transform="translate(1466.000000, 44.000000)">
                    <path d="M16.7201779,14.241564 C19.6587384,10.1734326 18.6759422,4.54026448 14.5264363,1.66001918 C10.3769304,-1.22022612 4.63108283,-0.257391548 1.6932243,3.81142816 C-1.24463423,7.87955969 -0.262540003,13.5120395 3.88766785,16.3922848 C6.8493942,18.4480298 10.7651351,18.606323 13.8890228,16.7976528 L20.6766344,23.4122376 C21.4095197,24.1686031 22.6288889,24.1988853 23.4003838,23.4803725 C24.1718788,22.7625478 24.2027667,21.5670912 23.4705837,20.8107258 C23.4474176,20.7866377 23.4249537,20.7646143 23.4003838,20.7419026 L16.7201779,14.241564 Z M9.20108514,14.8582188 C5.92205585,14.858907 3.26359215,12.2546422 3.26148597,9.03991668 C3.26078416,5.82519119 5.91714182,3.2188616 9.19687307,3.21748468 C12.4716903,3.21610868 15.1287501,5.81624423 15.1350769,9.02684026 C15.140684,12.2422539 12.4857304,14.8527128 9.20529703,14.8582188 C9.20389313,14.8582188 9.203191,14.8582188 9.20108514,14.8582188 Z" id="Shape"></path>
                </g>
            </g>
        </g>
    </g>
</svg>