<?xml version="1.0" encoding="UTF-8"?>
<svg width="24px" height="25px" viewBox="0 0 24 25" version="1.1" xmlns="http://www.w3.org/2000/svg" xmlns:xlink="http://www.w3.org/1999/xlink">
    <title>Shape</title>
    <g id="1.-Homepage" stroke="none" stroke-width="1" fill="none" fill-rule="evenodd">
        <g id="1,0-HP1" transform="translate(-1663.000000, -115.000000)" fill="#FFFFFF" fill-rule="nonzero">
            <g id="1-Header" transform="translate(-36.000000, 0.000000)">
                <g id="Menu" transform="translate(867.000000, 41.000000)">
                    <g id="Icon/Search/Header" transform="translate(832.000000, 74.268456)">
                        <g id="search-(6)">
                            <path d="M16.7201779,14.5283069 C19.6587384,10.3782669 18.6759422,4.63167921 14.5264363,1.69344239 C10.3769304,-1.24479443 4.63108283,-0.262573928 1.6932243,3.88816833 C-1.24463423,8.03820854 -0.262540003,13.784094 3.88766785,16.7223308 C6.8493942,18.8194667 10.7651351,18.9809469 13.8890228,17.1358606 L20.6766344,23.8836249 C21.4095197,24.6552193 22.6288889,24.6861112 23.4003838,23.9531317 C24.1718788,23.2208542 24.2027667,22.001328 23.4705837,21.2297338 C23.4474176,21.2051606 23.4249537,21.1826938 23.4003838,21.1595248 L16.7201779,14.5283069 Z M9.20108514,15.1573776 C5.92205585,15.1580797 3.26359215,12.5013799 3.26148597,9.22192843 C3.26078416,5.94247692 5.91714182,3.2836709 9.19687307,3.28226625 C12.4716903,3.28086255 15.1287501,5.93334982 15.1350769,9.20858872 C15.140684,12.4887423 12.4857304,15.1517607 9.20529703,15.1573776 C9.20389313,15.1573776 9.203191,15.1573776 9.20108514,15.1573776 Z" id="Shape"></path>
                        </g>
                    </g>
                </g>
            </g>
        </g>
    </g>
</svg>