<?xml version="1.0" encoding="UTF-8"?>
<svg width="29px" height="26px" viewBox="0 0 29 26" version="1.1" xmlns="http://www.w3.org/2000/svg" xmlns:xlink="http://www.w3.org/1999/xlink">
    <title>019-share-1</title>
    <g id="2.-V0.8" stroke="none" stroke-width="1" fill="none" fill-rule="evenodd">
        <g id="4,0-Event-Single" transform="translate(-131.000000, -1014.000000)" fill="#242655" fill-rule="nonzero">
            <g id="1-Header" transform="translate(-140.000000, -67.000000)">
                <g id="Group-7" transform="translate(140.000000, 1037.000000)">
                    <g id="019-share-1" transform="translate(131.000000, 44.000000)">
                        <path d="M28.5771365,7.59609388 L21.2788058,0.334059238 C20.9637764,0.0202143626 20.4907292,-0.0729960165 20.0801891,0.0978808245 C19.6695696,0.268333828 19.4019578,0.669239297 19.4020228,1.11383185 L19.4020228,4.41033835 C15.7838757,4.64945206 13.9771447,6.14955754 13.6507059,6.44844968 C9.11048071,10.2272479 9.61258563,15.3799902 9.76516456,16.4051423 C9.76736604,16.4198188 9.76956751,16.4348339 9.77210767,16.4495104 L9.91881601,17.2930693 C10.0101481,17.8204111 10.4678203,18.2054543 11.0030127,18.2052125 C11.3895211,18.2052125 11.7476731,18.0023764 11.9463151,17.6708193 L12.386045,16.9380114 C14.7898265,12.9402514 17.7602893,12.2965749 19.4019664,12.291043 L19.4019664,15.7111706 C19.4020655,16.1568356 19.6710071,16.5584203 20.0830679,16.7281942 C20.4948911,16.8979579 20.9684314,16.8028398 21.2827572,16.4872177 L28.5812008,9.15191354 C29.0095846,8.72132823 29.0077218,8.02447772 28.5771365,7.59609388 Z M21.6030431,13.0451318 L21.6030431,11.2732857 C21.6030431,10.7330219 21.2113504,10.2727449 20.6780298,10.186944 C19.4082886,9.98265869 15.4119398,9.73654543 11.9606529,13.7643922 C12.1832838,12.1205136 12.9197608,9.91113908 15.0792918,8.12309237 C15.1057094,8.10107765 15.114854,8.09373941 15.1390702,8.06952322 C15.1552143,8.05450805 16.7961576,6.57861876 20.39229,6.57861876 L20.5023072,6.57861876 C21.1100263,6.57861876 21.6025915,6.08605355 21.6025915,5.47833443 L21.6025915,3.76079126 L26.2451569,8.37953561 L21.6030431,13.0451318 L21.6030431,13.0451318 Z" id="Shape"></path>
                        <path d="M24.573506,19.1954796 C23.9657868,19.1954796 23.4732216,19.6880448 23.4732216,20.2957639 L23.4732216,23.4132739 L2.20062511,23.4132739 L2.20062511,7.27552571 L8.802444,7.27552571 C9.41016312,7.27552571 9.90272833,6.7829605 9.90272833,6.17524138 C9.90272833,5.56752226 9.41016312,5.07495705 8.802444,5.07495705 L1.10028433,5.07495705 C0.49256521,5.07495705 0,5.56746581 0,6.17518493 L0,24.5136146 C0,25.1213338 0.49256521,25.613899 1.10028433,25.613899 L24.573506,25.613899 C25.1812251,25.613899 25.6737903,25.1213338 25.6737903,24.5136146 L25.6737903,20.2957639 C25.6737903,19.6880448 25.1812251,19.1954796 24.573506,19.1954796 Z" id="Path"></path>
                    </g>
                </g>
            </g>
        </g>
    </g>
</svg>