<?xml version="1.0" encoding="UTF-8"?>
<svg width="480px" height="480px" viewBox="0 0 480 480" version="1.1" xmlns="http://www.w3.org/2000/svg" xmlns:xlink="http://www.w3.org/1999/xlink">
    <title>009-sunset</title>
    <g id="Page-1" stroke="none" stroke-width="1" fill="none" fill-rule="evenodd">
        <g id="009-sunset" fill="#185E30" fill-rule="nonzero">
            <path d="M456.456,151.952 C469.514,151.704 479.976,141.06 480,128 C480,114.745 469.255,104 456,104 L456,56 C455.976,36.999 442.611,20.627 424,16.8 L424,0 L408,0 L408,16.8 C389.389,20.627 376.024,36.999 376,56 L376,104 C362.753,104.453 352.381,115.559 352.835,128.807 C353.26,141.242 363.119,151.291 375.544,151.952 L368.432,280 L340.888,280 C351.458,223.543 314.259,169.208 257.802,158.638 C201.345,148.068 147.01,185.267 136.44,241.724 C134.072,254.373 134.072,267.351 136.44,280 L104,280 L104,211.312 L112.968,220.28 L124.28,208.968 L115.312,200 L128,200 L128,184 L115.312,184 L124.28,175.032 L112.968,163.72 L104,172.688 L104,160 L88,160 L88,172.688 L79.032,163.72 L67.72,175.032 L76.688,184 L64,184 L64,200 L76.688,200 L67.72,208.968 L79.032,220.28 L88,211.312 L88,280 L48,280 L48,123.312 L62.624,137.936 L73.936,126.624 L59.312,112 L80,112 L80,96 L59.312,96 L73.936,81.376 L62.624,70.064 L48,84.688 L48,64 L32,64 L32,84.688 L17.376,70.064 L6.064,81.376 L20.688,96 L0,96 L0,112 L20.688,112 L6.064,126.624 L17.376,137.936 L32,123.312 L32,280 L0,280 L0,480 L480,480 L480,280 L463.568,280 L456.456,151.952 Z M416,32 C429.255,32 440,42.745 440,56 L392,56 C392,42.745 402.745,32 416,32 Z M392,72 L440,72 L440,96 L424,96 L424,80 L408,80 L408,96 L392,96 L392,72 Z M368,128 C368,123.582 371.582,120 376,120 L456,120 C460.418,120 464,123.582 464,128 C464,132.418 460.418,136 456,136 L376,136 C371.582,136 368,132.418 368,128 Z M447.544,280 L384.456,280 L391.568,152 L440.432,152 L447.544,280 Z M218.168,175.361 C224.887,173.803 231.767,173.049 238.664,173.112 C286.821,172.672 326.217,211.355 326.657,259.512 C326.72,266.406 325.965,273.284 324.408,280 L152.912,280 C142.037,233.085 171.253,186.236 218.168,175.361 Z M16,360 L32,360 L32,344 L16,344 L16,328 L64,328 L64,312 L16,312 L16,296 L128,296 C136.837,296 144,303.163 144,312 C144,320.837 136.837,328 128,328 L112,328 C103.163,328 96,335.163 96,344 L48,344 L48,360 L96,360 L96,368 C96,372.418 92.418,376 88,376 L16,376 L16,360 Z M464,464 L16,464 L16,392 L88,392 C101.255,392 112,381.255 112,368 L112,344 L128,344 C145.673,344 160,329.673 160,312 C159.967,306.366 158.431,300.843 155.552,296 L324.448,296 C321.569,300.843 320.033,306.366 320,312 C320,329.673 334.327,344 352,344 L368,344 L368,368 C368,381.255 378.745,392 392,392 L464,392 L464,464 Z M464,312 L416,312 L416,328 L464,328 L464,344 L448,344 L448,360 L464,360 L464,376 L392,376 C387.582,376 384,372.418 384,368 L384,360 L432,360 L432,344 L384,344 C384,335.163 376.837,328 368,328 L352,328 C343.163,328 336,320.837 336,312 C336,303.163 343.163,296 352,296 L464,296 L464,312 Z" id="Shape"></path>
            <rect id="Rectangle" x="400" y="168" width="16" height="16"></rect>
            <rect id="Rectangle" x="416" y="192" width="16" height="16"></rect>
            <rect id="Rectangle" x="400" y="216" width="16" height="16"></rect>
            <rect id="Rectangle" x="384" y="312" width="16" height="16"></rect>
            <rect id="Rectangle" x="232" y="408" width="16" height="16"></rect>
            <rect id="Rectangle" x="80" y="312" width="16" height="16"></rect>
            <rect id="Rectangle" x="176" y="312" width="128" height="16"></rect>
            <rect id="Rectangle" x="192" y="344" width="96" height="16"></rect>
            <rect id="Rectangle" x="208" y="376" width="64" height="16"></rect>
            <path d="M112,64 L112,80 L124.688,80 L130.344,85.656 C133.468,88.779 138.532,88.779 141.656,85.656 L147.312,80 L160,80 L160,64 L144,64 C141.878,64 139.844,64.844 138.344,66.344 L136,68.688 L133.656,66.344 C132.156,64.844 130.122,64 128,64 L112,64 L112,64 Z" id="Path"></path>
            <path d="M98.344,37.656 C101.468,40.779 106.532,40.779 109.656,37.656 L115.312,32 L128,32 L128,16 L112,16 C109.878,16 107.844,16.844 106.344,18.344 L104,20.688 L101.656,18.344 C100.156,16.844 98.122,16 96,16 L80,16 L80,32 L92.688,32 L98.344,37.656 Z" id="Path"></path>
            <path d="M178.344,53.656 C181.468,56.779 186.532,56.779 189.656,53.656 L195.312,48 L208,48 L208,32 L192,32 C189.878,32 187.844,32.844 186.344,34.344 L184,36.688 L181.656,34.344 C180.156,32.844 178.122,32 176,32 L160,32 L160,48 L172.688,48 L178.344,53.656 Z" id="Path"></path>
            <rect id="Rectangle" transform="translate(341.749161, 169.114240) rotate(47.691237) translate(-341.749161, -169.114240) " x="333.749466" y="153.114849" width="15.9993909" height="31.9987817"></rect>
            <rect id="Rectangle" transform="translate(282.499147, 131.180609) rotate(17.679408) translate(-282.499147, -131.180609) " x="274.498901" y="115.180117" width="16.0004922" height="32.0009845"></rect>
            <rect id="Rectangle" transform="translate(212.181321, 127.807177) rotate(167.684351) translate(-212.181321, -127.807177) " x="204.181217" y="111.80697" width="16.0002071" height="32.0004142"></rect>
            <rect id="Rectangle" transform="translate(149.660558, 160.160219) rotate(-132.308763) translate(-149.660558, -160.160219) " x="133.661167" y="152.160523" width="31.9987817" height="15.9993909"></rect>
        </g>
    </g>
</svg>