<?xml version="1.0" encoding="UTF-8"?>
<svg width="30px" height="23px" viewBox="0 0 30 23" version="1.1" xmlns="http://www.w3.org/2000/svg" xmlns:xlink="http://www.w3.org/1999/xlink">
    <title>Icon/Football</title>
    <g id="2.-V0.8" stroke="none" stroke-width="1" fill="none" fill-rule="evenodd">
        <g id="5,0-Sport-Facility" transform="translate(-613.000000, -2693.000000)" fill="#FFFFFF" fill-rule="nonzero">
            <g id="White-area" transform="translate(0.000000, 967.000000)">
                <g id="3-Similar-activities" transform="translate(131.000000, 1363.000000)">
                    <g id="Card/Play-Copy-2" transform="translate(451.000000, 87.000000)">
                        <g id="Icon/Activites" transform="translate(16.000000, 258.000000)">
                            <g id="Group" transform="translate(15.733333, 15.733333)">
                                <g id="hot-pool" transform="translate(0.000000, 2.950000)">
                                    <path d="M20.1554909,14.6323918 L18.7854099,12.4241881 C20.2232737,14.2107684 22.8838452,14.2995488 24.4371124,12.6478657 C25.855371,11.1397685 25.7829654,8.77138135 24.2747011,7.35289997 C22.7672165,5.93508695 20.3983281,6.00699128 18.979791,7.51536699 C17.8900311,8.67419076 17.6923638,10.3218637 18.3059177,11.6513419 L14.9917464,6.30981377 L19.9098688,4.89060833 C21.4372371,4.44988102 22.1590652,2.70156429 21.3830443,1.31098691 C20.8195616,0.301318685 19.6500441,-0.180011458 18.5392308,0.140578255 L11.0934846,2.28913086 C9.16298424,2.8462641 8.29846139,5.09039209 9.35847936,6.79894144 L11.6089568,10.4260721 L7.66212757,12.8749965 C12.4104311,12.9841062 15.8412311,14.4298232 20.1554909,14.6323918 L20.1554909,14.6323918 Z" id="Path"></path>
                                    <path d="M1.06408382,17.092734 C11.8579206,14.0244076 15.9344116,20.2187622 27.8920291,17.0974683 C28.3384932,16.9809509 28.6058926,16.5245172 28.4893753,16.0781088 C28.372858,15.6317005 27.9164243,15.364301 27.4700159,15.4807626 C15.9818094,18.4796911 11.8996931,12.2754225 0.607204492,15.4854968 C0.163413867,15.6116497 -0.0941272786,16.0737088 0.0320255534,16.5175551 C0.158234082,16.9614571 0.620460286,17.2188869 1.06408382,17.092734 L1.06408382,17.092734 Z" id="Path"></path>
                                    <path d="M27.4700159,19.3795257 C15.9607004,22.3839124 11.9220831,16.1677247 0.607204492,19.3842599 C0.163413867,19.5104127 -0.0941272786,19.9724718 0.0320255534,20.4163181 C0.158178385,20.8601645 0.62040459,21.1177056 1.06408382,20.9914971 C11.8579206,17.9231706 15.9344116,24.1175253 27.8920291,20.9962313 C28.3384932,20.879714 28.6058926,20.4232802 28.4893753,19.9768718 C28.372858,19.5304078 27.9164243,19.2630083 27.4700159,19.3795257 L27.4700159,19.3795257 Z" id="Path"></path>
                                </g>
                            </g>
                        </g>
                    </g>
                </g>
            </g>
        </g>
    </g>
</svg>