<?xml version="1.0" encoding="UTF-8"?>
<svg width="512px" height="512px" viewBox="0 0 512 512" version="1.1" xmlns="http://www.w3.org/2000/svg" xmlns:xlink="http://www.w3.org/1999/xlink">
    <title>tennis</title>
    <g id="Page-1" stroke="none" stroke-width="1" fill="none" fill-rule="evenodd">
        <g id="tennis" fill="#FFFFFF" fill-rule="nonzero">
            <path d="M468.29,43.776 C405.89,-18.624 299.266,-13.504 230.69,55.104 C197.186,88.576 177.698,131.904 175.778,177.088 L169.698,319.712 L113.506,375.904 C95.746,367.936 73.506,370.656 59.33,384.832 L14.082,430.08 C-4.638,448.8 -4.638,479.232 14.082,497.952 C23.426,507.296 35.714,511.968 48.034,511.968 C60.354,511.968 72.61,507.296 81.986,497.952 L127.234,452.704 C141.954,437.984 144.674,416.224 136.258,398.432 L192.322,342.368 L334.946,336.32 L334.978,336.32 C380.098,334.4 423.426,314.912 456.962,281.408 C525.57,212.704 530.658,106.144 468.29,43.776 Z M419.426,47.424 C428.834,52.576 437.826,58.56 445.666,66.432 C453.506,74.24 459.522,83.232 464.674,92.64 L434.338,122.976 L389.09,77.728 L419.426,47.424 Z M332.514,134.272 L366.466,100.32 L411.714,145.568 L377.762,179.52 L332.514,134.272 Z M355.138,202.144 L321.186,236.096 L275.938,190.848 L309.89,156.896 L355.138,202.144 Z M359.842,32.032 C368.898,32.032 377.794,33.184 386.53,35.008 L366.466,55.072 L344.93,33.536 C349.922,33.024 354.914,32.032 359.842,32.032 Z M308.322,42.176 L343.842,77.696 L309.89,111.648 L265.73,67.488 C279.01,56.64 293.25,47.968 308.322,42.176 Z M243.01,90.016 L287.266,134.272 L253.314,168.224 L217.858,132.768 C223.746,117.472 232.226,103.136 243.01,90.016 Z M207.746,178.432 C207.874,175.296 208.706,172.288 209.058,169.184 L230.69,190.816 L210.786,210.752 C208.61,200.32 207.266,189.632 207.746,178.432 Z M202.146,309.856 L203.714,273.248 C208.514,280 213.442,286.688 219.394,292.64 C225.282,298.56 231.842,303.552 238.53,308.32 L202.146,309.856 Z M268.258,289.024 C258.754,283.808 249.73,277.76 242.018,270.016 C234.242,262.272 228.194,253.248 222.978,243.776 L253.282,213.472 L298.53,258.72 L268.258,289.024 Z M333.57,304.288 C322.498,304.832 311.746,303.488 301.282,301.28 L321.186,281.376 L342.818,303.008 C339.714,303.328 336.706,304.16 333.57,304.288 Z M379.266,294.176 L343.81,258.72 L377.762,224.768 L422.018,269.024 C408.866,279.808 394.53,288.288 379.266,294.176 Z M444.642,246.368 L400.386,202.144 L434.338,168.192 L469.73,203.584 C463.938,218.688 455.522,233.056 444.642,246.368 Z M456.962,145.568 L476.738,125.792 C479.522,139.264 480.226,153.184 478.658,167.264 L456.962,145.568 Z" id="Shape"></path>
            <circle id="Oval" cx="64.034" cy="64" r="64"></circle>
        </g>
    </g>
</svg>