<?xml version="1.0" encoding="UTF-8"?>
<svg width="25px" height="26px" viewBox="0 0 25 26" version="1.1" xmlns="http://www.w3.org/2000/svg" xmlns:xlink="http://www.w3.org/1999/xlink">
    <title>Icon/General/Clock</title>
    <g id="3.-V1" stroke="none" stroke-width="1" fill="none" fill-rule="evenodd">
        <g id="10,1-Article" transform="translate(-1333.000000, -1013.000000)" fill="#242655">
            <g id="Date" transform="translate(1269.000000, 967.000000)">
                <g id="clock-(8)" transform="translate(64.000000, 46.500000)">
                    <path d="M12.5,0 C5.59644335,0 0,5.59644335 0,12.5 C0,19.4035566 5.59644335,25 12.5,25 C19.4035566,25 25,19.4035566 25,12.5 C24.9926758,5.59952999 19.4005223,0.00737654489 12.5,0 Z M12.5,23.2143007 C6.58265078,23.2143007 1.78569934,18.4173492 1.78569934,12.5 C1.78569934,6.58265078 6.58265078,1.78569934 12.5,1.78569934 C18.4173492,1.78569934 23.2143007,6.58265078 23.2143007,12.5 C23.2079181,18.4147334 18.4147334,23.2079181 12.5,23.2143007 Z" id="Shape"></path>
                    <path d="M12.0999842,4 C11.6029109,4 11.1999684,4.40294257 11.1999684,4.90001582 L11.1999684,11.2000211 L4.90001582,11.2000211 C4.40294257,11.2000211 4,11.6029637 4,12.1000369 C4,12.5971102 4.40294257,13 4.90001582,13 L12.0999842,13 C12.5970574,13 13,12.5970574 13,12.0999842 L13,4.90001582 C13,4.40294257 12.5970574,4 12.0999842,4 Z" id="Path"></path>
                </g>
            </g>
        </g>
    </g>
</svg>