<?xml version="1.0" encoding="UTF-8"?>
<svg width="60px" height="63px" viewBox="0 0 60 63" version="1.1" xmlns="http://www.w3.org/2000/svg" xmlns:xlink="http://www.w3.org/1999/xlink">
    <title>trumpet</title>
    <g id="1.-Homepage" stroke="none" stroke-width="1" fill="none" fill-rule="evenodd">
        <g id="1,2-HP/MusicPopover" transform="translate(-165.000000, -511.000000)" fill-rule="nonzero">
            <g id="Sport/Pop-over" transform="translate(112.000000, 459.000000)">
                <g id="trumpet" transform="translate(53.000000, 52.000000)">
                    <path d="M47.9008007,12.2011715 C47.4818565,11.783283 46.8035096,11.783283 46.3856368,12.2011715 C45.9666925,12.6201315 45.9666925,13.2985038 46.3856368,13.7163922 C46.8035096,14.1353522 47.4818565,14.1353522 47.9008007,13.7163922 C48.3187807,13.2985038 48.3187807,12.6202386 47.9008007,12.2011715 Z" id="Path" fill="#FFAB2E"></path>
                    <g id="Group" transform="translate(0.000000, 0.102041)" fill="#FFFFFF">
                        <path d="M58.8565339,16.7255797 L43.1483665,1.04883022 C41.7472112,-0.349490792 39.4790438,-0.349967913 38.0777689,1.04883022 C36.7823904,2.34158831 36.6877291,4.36636858 37.7759761,5.76612095 L38.1556972,9.18361607 C38.8700797,15.5927762 35.5088845,19.2587319 30.7246614,24.0461593 L29.8785657,23.2017753 C28.7538645,22.0818541 27.1063745,21.8774079 25.7980876,22.5031515 L23.9636653,20.6730364 L24.8088048,19.8298451 C25.2757769,19.3642948 25.2760159,18.6088937 24.8094024,18.1428662 C24.3426693,17.6768387 23.5858566,17.6767194 23.119004,18.1422698 C21.9891633,19.2695864 20.9962948,20.2599693 19.737251,21.5159891 C19.2705179,21.981778 19.2705179,22.7371791 19.737251,23.2030873 C20.2041036,23.6688763 20.9609163,23.668757 21.4276494,23.2030873 L22.2729084,22.3598961 L24.1074502,24.1901304 C23.4827092,25.4931466 23.6841036,27.1418366 24.8088048,28.2645013 L25.6535857,29.1075732 L23.9630677,30.7946715 L23.1187649,29.9520766 C21.9938247,28.8263107 20.3386853,28.6279478 19.0354183,29.2507094 L17.2017131,27.42131 L18.0468526,26.5781187 C18.5138247,26.1125684 18.5140637,25.3571673 18.0474502,24.8911398 C17.5808367,24.4252316 16.8239044,24.4248737 16.3570518,24.8905434 C15.2150199,26.0299072 14.2258566,27.0165925 12.9754183,28.2641434 C12.5086853,28.7299323 12.5085657,29.4852141 12.9754183,29.9512416 C13.4422709,30.4170306 14.1990837,30.4170306 14.6658167,29.9512416 L15.5110757,29.1080504 L17.3471713,30.9397161 C16.7123904,32.2698089 16.9452191,33.9126542 18.0470916,35.0126556 L18.8918725,35.8557275 L17.2014741,37.5427065 L16.3547809,36.6978453 C15.2297211,35.5780434 13.5824701,35.3740744 12.2745418,35.9994601 L10.4398805,34.16851 L11.2857371,33.3243645 C11.7523506,32.8584563 11.751992,32.1030552 11.2851394,31.6372663 C10.8181673,31.1718352 10.0612351,31.1720738 9.59474104,31.637982 L6.2138247,35.0122977 C5.74685259,35.4779674 5.74661355,36.2333684 6.21322709,36.6993959 C6.67972112,37.1651848 7.43641434,37.1659005 7.9036255,36.7001116 L8.74948207,35.8559661 L10.5854582,37.6882282 C9.95115538,39.0179632 10.1838645,40.6606892 11.2851394,41.7611677 L12.1300398,42.604359 L5.22478088,49.4956494 C3.91948207,48.8718143 2.2685259,49.0725628 1.14310757,50.1955852 C-0.257689243,51.5934291 -0.258047809,53.8565311 1.14346614,55.2553292 L4.52378486,58.6300028 C5.92494024,60.0283238 8.19430279,60.0288009 9.59557769,58.6300028 C10.7229084,57.5049526 10.9201195,55.8549505 10.2968127,54.5555127 L12.2260159,52.6300928 C12.2016335,54.8027804 13.0155777,56.9826249 14.6658167,58.6301221 C17.9284064,61.8847998 23.2367331,61.8858733 26.4990837,58.6300028 L27.3439841,57.7868115 L28.1888845,58.6300028 C29.5900398,60.0283238 31.8594024,60.0288009 33.2606773,58.6300028 C34.6617131,57.2318011 34.6626693,54.9675063 33.2604382,53.5681117 L32.4154183,52.7248012 L34.1055777,51.0386572 L34.9507171,51.8820871 C36.3478088,53.2763525 38.6226693,53.2779032 40.0208367,51.8825642 C41.4233068,50.484601 41.4246215,48.2192327 40.0213147,46.8204346 L39.1765339,45.9773626 L40.8672908,44.2906222 L41.7123108,45.1339328 C43.110239,46.5289139 45.3848606,46.5291525 46.7827888,45.1339328 C48.1837052,43.7358503 48.1845418,41.4725098 46.7831474,40.0738309 L45.9376494,39.2294468 L46.7827888,38.3858977 C50.0524303,35.1228704 50.0527888,29.8410268 46.7827888,26.5775223 C45.2824303,25.0801988 43.35,24.267424 41.3802789,24.1462354 C43.9954183,22.3195794 46.8552191,21.2813651 50.7053785,21.708388 L54.1294422,22.087341 C55.5313147,23.1724323 57.5604382,23.0793938 58.8562948,21.7861586 C60.2579283,20.3874798 60.2580478,18.1243778 58.8565339,16.7255797 Z M27.3442231,30.7945522 L29.0342629,32.4811733 L27.3441036,34.1686293 L25.6537052,32.4816504 L27.3442231,30.7945522 Z M20.5823904,37.5427065 L22.2732669,39.2301625 L20.582749,40.9167836 L18.8921116,39.2295661 L20.5823904,37.5427065 Z M23.9637849,40.9170222 L25.6538247,42.6036433 L23.9636653,44.2903836 L22.2732669,42.603524 L23.9637849,40.9170222 Z M7.90517928,56.9427853 C7.43832669,57.4086935 6.68139442,57.4090513 6.21430279,56.9429046 L2.83386454,53.568231 C2.36689243,53.1020843 2.36677291,52.3482338 2.83386454,51.8817292 C3.30119522,51.4154632 4.0559761,51.4152246 4.52354582,51.8816099 C4.52366534,51.8817292 4.52378486,51.8818485 4.52390438,51.8819678 L7.9047012,55.2544943 C7.90494024,55.2547328 7.90505976,55.2548521 7.9052988,55.2550907 C8.37227092,55.721476 8.37239044,56.4766385 7.90517928,56.9427853 Z M8.7501992,52.7249205 L7.05944223,51.0381801 L13.8207968,44.2905029 L15.5105976,45.9768855 L14.6627092,46.823178 C14.6449004,46.8409508 14.6272112,46.8589621 14.6094024,46.8775698 L8.7501992,52.7249205 Z M24.8088048,56.9427853 C22.4788446,59.2681515 18.6868924,59.2679129 16.3562151,56.9430239 C14.0476494,54.6381738 14.0303187,50.8730964 16.3164143,48.5478495 L17.2018327,47.6648186 L18.891992,49.351559 L18.0475697,50.1942732 C16.64749,51.5897314 16.6461753,53.8587974 18.0470916,55.2550907 C19.4463347,56.6515032 21.7184462,56.653531 23.1176892,55.2550907 L23.9625896,54.4118994 L25.6537052,56.099594 L24.8088048,56.9427853 Z M19.73749,51.8818485 L20.5823904,51.0386572 L22.2723108,52.725159 L21.4269323,53.5688274 C20.9627092,54.0327079 20.2041036,54.0339007 19.737012,53.5677539 C19.2731474,53.1053048 19.2703984,52.3475181 19.73749,51.8818485 Z M31.5705179,56.9427853 C31.1034263,57.4089321 30.3466135,57.4089321 29.8795219,56.9427853 C24.0904781,51.165452 16.5427888,43.6330308 12.9763745,40.0739502 C12.510239,39.6081613 12.51,38.8507324 12.9747012,38.386852 C13.4460956,37.9174847 14.1986056,37.9207052 14.6660558,38.3858977 C17.702749,41.4164481 26.88,50.5752539 29.8792829,53.5684696 C31.2476892,54.9331536 31.5429084,55.227537 31.5684861,55.2529436 C31.5503187,55.2348131 31.4134661,55.0983566 31.5706375,55.2549714 C32.0377291,55.721476 32.0377291,56.4766385 31.5705179,56.9427853 Z M25.6540637,45.9772433 L27.3442231,44.2905029 L29.0342629,45.977124 L27.3444622,47.664103 L25.6540637,45.9772433 Z M30.7251394,51.0378223 L29.0348606,49.3510819 L30.7245418,47.6642222 L32.4154183,49.3516783 L30.7251394,51.0378223 Z M38.3311554,50.1948696 C37.865259,50.6597042 37.107012,50.6599428 36.6412351,50.1948696 C34.0996016,47.6583775 21.9701594,35.5537102 19.7376096,33.3255573 C19.2714741,32.8602455 19.2714741,32.1030552 19.7386853,31.6367892 C20.1971713,31.1780378 20.9548207,31.164917 21.4275299,31.6378627 C24.6993227,34.9030371 33.3778088,43.5639676 36.6411155,46.8205539 L38.3318725,48.5080099 C38.7966932,48.9714132 38.8017131,49.7258601 38.3311554,50.1948696 Z M30.7246614,37.5422294 L29.0343825,35.8553697 L30.7245418,34.1679136 L32.4154183,35.8553697 L30.7246614,37.5422294 Z M34.1056972,37.5424679 L35.7959761,39.2293276 L34.1058167,40.9167836 L32.4149402,39.2293276 L34.1056972,37.5424679 Z M37.4863745,44.2902644 L35.7962151,42.603524 L37.4863745,40.9160679 L39.177251,42.603524 L37.4863745,44.2902644 Z M45.092749,43.4468345 C44.6269721,43.9117885 43.8688446,43.9117885 43.4028287,43.4468345 C42.5916335,42.6372803 27.1955378,27.2723291 26.4992032,26.577403 C26.0306773,26.1098249 26.0339044,25.3543045 26.4981275,24.8907819 C26.4984861,24.8904241 26.4989641,24.8900663 26.4993227,24.8897084 C26.9763347,24.4161663 27.7284861,24.4313149 28.1887649,24.8894699 C29.1290438,25.827966 44.4087251,41.0776925 45.092749,41.760452 C45.5597211,42.2264795 45.5599602,42.9805685 45.092749,43.4468345 Z M39.1765339,32.4809347 L40.0208367,31.6383398 C40.4874502,31.1735052 41.2465339,31.1733859 41.7124303,31.6378627 C42.1785657,32.1030552 42.1785657,32.8602455 41.7124303,33.3254381 L40.8675299,34.1686293 L39.1765339,32.4809347 Z M45.092749,28.264382 C47.4280876,30.5948772 47.4284462,34.3679464 45.092749,36.6987995 L44.2478486,37.5419908 L42.5579283,35.855489 L43.4028287,35.0122977 C44.8011155,33.6167201 44.8011155,31.3462228 43.4023506,29.9502874 C42.0043028,28.5567376 39.7294422,28.5566183 38.3310359,29.9507645 L37.4861355,30.7939558 L35.7966932,29.1079311 C35.8411554,29.0636782 35.8863347,29.018471 35.9306773,28.9744566 C36.250757,28.6563365 36.5673705,28.3438225 36.8815936,28.0371533 C39.242749,25.9238672 42.8457371,26.0216769 45.092749,28.264382 Z M57.1663745,20.0988218 C56.6994024,20.5648493 55.9437849,20.5650879 55.4763347,20.0987026 L51.0023904,15.6350014 C50.5356574,15.1693318 49.7786056,15.169451 49.311992,15.63524 C48.845259,16.1011482 48.8453785,16.85643 49.3121116,17.3223382 L51.3766135,19.3821868 L50.9692829,19.3370989 C47.7499602,18.9800935 44.8625498,19.4926402 42.1422311,20.9034856 C39.7253785,22.1570006 37.633506,23.9694622 35.2369721,26.3052058 C35.1365737,26.3968129 35.0398805,26.4884201 34.95,26.5781187 L34.2412351,27.2865234 C34.2411155,27.2866427 34.2408765,27.2868813 34.240757,27.2870006 C34.1961753,27.3311342 34.1508765,27.3765799 34.1061753,27.4210714 L32.4148207,25.7331383 C34.8242629,23.3222482 36.9037052,21.1666176 38.4022709,18.7012165 C40.2583267,15.6476451 40.9348207,12.5395626 40.5314343,8.92036482 L40.486255,8.51385812 L42.5501594,10.5740646 C43.0168924,11.0398535 43.7737052,11.0400921 44.2405578,10.5743032 C44.7074104,10.1085142 44.7075299,9.35323242 44.2407968,8.88720494 L39.7679283,4.42207241 C39.3009562,3.95592564 39.3008367,3.20195592 39.7679283,2.73568987 C40.2350199,2.26954311 40.9906375,2.26954311 41.4578486,2.73568987 L57.1661355,18.41232 C57.6334661,18.8785861 57.6334661,19.6326751 57.1663745,20.0988218 Z" id="Shape"></path>
                        <path d="M31.5683665,55.2529436 C31.570757,55.2553292 31.5711155,55.2556871 31.5683665,55.2529436 L31.5683665,55.2529436 Z" id="Path"></path>
                    </g>
                </g>
            </g>
        </g>
    </g>
</svg>