<?xml version="1.0" encoding="UTF-8"?>
<svg width="22px" height="18px" viewBox="0 0 22 18" version="1.1" xmlns="http://www.w3.org/2000/svg" xmlns:xlink="http://www.w3.org/1999/xlink">
    <title>050-twitter</title>
    <g id="1.-Homepage" stroke="none" stroke-width="1" fill="none" fill-rule="evenodd">
        <g id="0-Menu" transform="translate(-209.000000, -566.000000)" fill="#FFFFFF" fill-rule="nonzero">
            <g id="Group" transform="translate(130.000000, 564.000000)">
                <g id="050-twitter" transform="translate(79.844961, 2.325581)">
                    <path d="M19.7937192,1.97038797 C19.3467782,2.16851588 18.8825442,2.32507174 18.4068956,2.43807314 C18.9340784,1.93771839 19.3266324,1.31254983 19.5482789,0.62034365 C19.6117845,0.421686565 19.3960128,0.249902865 19.216628,0.356268508 C18.5556278,0.748553476 17.8415588,1.04356215 17.0964258,1.23220355 C17.053109,1.24315225 17.0086015,1.24868686 16.9639224,1.24868066 C16.8282804,1.24868066 16.6964145,1.19831758 16.592697,1.10690884 C15.8004225,0.408642185 14.7814406,0.0240781607 13.7235218,0.0240781607 C13.2657425,0.0240781607 12.8035497,0.0954299402 12.3497425,0.236171938 C10.9436957,0.672275977 9.85880533,1.83209793 9.51842547,3.26305664 C9.39072785,3.79978875 9.35615534,4.33701126 9.41559064,4.85976725 C9.4206304,4.90405257 9.40639446,4.94836797 9.37650654,4.98143307 C9.34258396,5.01973584 9.29245362,5.03960224 9.2415021,5.03493465 C6.16371489,4.7489881 3.38830231,3.26619514 1.42649616,0.859752164 C1.32645655,0.737007488 1.13461589,0.752062468 1.05487844,0.888832305 C0.670706728,1.54791678 0.467685169,2.30174466 0.467685169,3.06881307 C0.467685169,4.24437654 0.939980007,5.35221713 1.76035384,6.15984081 C1.41471425,6.07801226 1.08192594,5.94918033 0.771285765,5.77694411 C0.621226353,5.69357777 0.436594428,5.80072804 0.43448575,5.97236462 C0.413006658,7.71874234 1.4354703,9.27269092 2.96715517,9.97242875 C2.69111096,9.97875036 2.41517547,9.955753 2.14398612,9.90382316 C1.97499764,9.87155548 1.83302967,10.031864 1.88550142,10.1957034 C2.38265905,11.7478376 3.71907052,12.891918 5.31833116,13.1516777 C3.99104095,14.0426677 2.44537996,14.5126577 0.836654784,14.5126577 L0.335132688,14.5123635 C0.180610724,14.5123635 0.0499217262,14.6130896 0.0105433901,14.7627567 C-0.0282464777,14.9101681 0.0432033799,15.0656708 0.174971237,15.1423188 C1.98774779,16.1972953 4.05547822,16.754869 6.15552538,16.754869 C7.99375318,16.754869 9.71325751,16.3900677 11.2663234,15.6706652 C12.6900734,15.0111394 13.9482186,14.0683642 15.0057941,12.8685264 C15.9909881,11.7508289 16.7613912,10.4605632 17.2955242,9.03362568 C17.8046964,7.67343028 18.0738226,6.22207133 18.0738226,4.83642468 L18.0738226,4.77041815 C18.0737736,4.5479281 18.1744016,4.33858051 18.3499613,4.19607311 C19.0162031,3.65513118 19.597423,3.01719441 20.0741734,2.30360814 C20.2003508,2.11485694 20.0013505,1.87829269 19.7937192,1.97038797 L19.7937192,1.97038797 Z" id="Path"></path>
                </g>
            </g>
        </g>
    </g>
</svg>