<?xml version="1.0" encoding="UTF-8"?>
<svg width="29px" height="29px" viewBox="0 0 29 29" version="1.1" xmlns="http://www.w3.org/2000/svg" xmlns:xlink="http://www.w3.org/1999/xlink">
    <title>Icon/Football</title>
    <g id="1.-Homepage" stroke="none" stroke-width="1" fill="none" fill-rule="evenodd">
        <g id="1,5-HP" transform="translate(-948.000000, -3686.000000)" fill="#FFFFFF" fill-rule="nonzero">
            <g id="02-Enjoy-events" transform="translate(47.000000, 2495.000000)">
                <g id="eVENT/cARD/dETAILS-Copy-2" transform="translate(81.000000, 1150.000000)">
                    <g id="Icon/Activites" transform="translate(804.000000, 25.000000)">
                        <g id="Group" transform="translate(15.733333, 15.733333)">
                            <g id="meditation" transform="translate(0.838421, 0.676042)">
                                <path d="M0.612764005,22.3321657 C0.638279864,22.4619188 0.716761628,22.5745562 0.82867976,22.6420489 C0.940597891,22.7095416 1.07542932,22.7255436 1.19962236,22.686073 L3.90458566,21.8264755 C3.61063992,22.8537396 4.06657041,23.9497015 4.99621907,24.4505347 C5.0096415,24.4577096 5.02340809,24.4643013 5.03746148,24.4701346 L9.39866056,26.2814961 L9.80511919,27.5216009 C9.86760705,27.7121437 10.0429757,27.840625 10.2404877,27.840625 L14.8293518,27.840625 C14.8888347,27.840625 14.9477501,27.8288628 15.0028108,27.8059751 L23.0345849,24.4700763 C23.0486383,24.464243 23.0624049,24.4576513 23.0758273,24.4504763 C23.9762648,23.965291 24.4359725,22.9187559 24.1904624,21.9129836 L26.6235355,22.686248 C26.7477286,22.7257186 26.88256,22.7097166 26.9944781,22.6422239 C27.1063963,22.5747312 27.184878,22.4620938 27.2103939,22.3323407 L27.6692803,19.999014 C27.7146531,19.768239 27.5839525,19.5392181 27.3644076,19.4647989 L25.9877484,18.9981336 C25.8935534,18.9661649 25.7916978,18.9661649 25.6975028,18.9981336 L24.5259084,19.3952658 L21.1951388,17.2782385 L20.0938114,12.7982512 C19.915504,12.0711913 19.4333231,11.4598624 18.7741114,11.125081 C18.753691,11.1146977 15.7472393,10.1917503 15.7472393,10.1917503 L15.7472393,8.97492047 C15.747237,8.9590821 15.7464521,8.94325386 15.7448875,8.92749561 C16.3303454,8.39728473 16.6651202,7.63793254 16.6648974,6.84068489 L16.6648974,4.97402355 C16.6648923,4.15872362 16.3147273,3.38409298 15.7062263,2.85326293 L15.5783117,2.20255646 C15.4106479,1.34998682 14.7951598,0.660467746 13.9768861,0.408511132 C13.1586124,0.156554518 12.2703928,0.383063407 11.6658462,0.997859894 C10.4554473,2.22210601 9.7769551,3.88790906 9.78160126,5.6239717 L9.78160126,5.75568799 C9.78247903,6.56929293 9.38255655,7.32925819 8.71641119,7.77984888 L8.60926121,7.85241534 C8.47315029,7.94469091 8.39563414,8.10367453 8.40579991,8.2697092 C8.41596568,8.43574388 8.51227604,8.58372077 8.6585915,8.65811304 L9.01422847,8.83894586 C9.94871332,9.31270465 11.0480346,9.31121335 11.9812733,8.83492087 C12.0121334,8.8660319 12.0437009,8.89620959 12.0759759,8.92545395 L12.0759759,10.1912837 C12.0759759,10.1912837 9.06952428,11.1141727 9.04910383,11.1246143 C8.38989213,11.4593958 7.90771124,12.0707247 7.72940388,12.7977846 L6.6280765,17.2777718 L3.2972495,19.3950908 L2.12565513,18.9979586 C2.03146012,18.9659899 1.92960449,18.9659899 1.83540948,18.9979586 L0.458750253,19.4646239 C0.239205358,19.5390431 0.108504779,19.768064 0.153877595,19.998839 L0.612764005,22.3321657 Z M9.69871491,25.3980403 L5.40680768,23.6153787 C4.93590024,23.351809 4.67318123,22.820584 4.74588594,22.2789771 C4.81859064,21.7373701 5.2117094,21.2971942 5.7348541,21.1716274 C5.82381927,21.1502515 5.91472633,21.1383265 6.00611333,21.1360441 L6.00760471,21.1360441 C6.27306485,21.1299266 6.53387623,21.2075442 6.7542129,21.3582352 C6.76040787,21.3624351 6.76671756,21.3665185 6.77319933,21.3704268 L12.6125289,24.9222167 L12.1052873,25.025408 L10.8442101,24.5979426 C10.6793173,24.5420294 10.497513,24.5856595 10.3745972,24.7106423 L9.69871491,25.3980403 Z M7.45550606,20.6979037 L8.02911407,20.5155542 C8.47498195,20.3727691 8.8450299,20.052526 9.05495464,19.6277818 L10.4007538,16.8914896 L10.6993742,17.2710051 L10.6993742,17.90147 C10.6994709,18.252591 10.6438025,18.6014233 10.5345191,18.9344921 L10.2640056,19.7597314 L9.83953567,21.0552527 L9.16715236,21.7389757 L7.45550606,20.6979037 Z M10.5712301,26.9072943 L10.3066247,26.1000216 L10.8233308,25.5745565 L11.9309105,25.9499887 C12.0066891,25.9756991 12.0877549,25.9808466 12.1660898,25.964922 L14.0105263,25.5897814 L14.2696251,26.9072943 L10.5712301,26.9072943 Z M14.2028571,24.5988176 L13.9515021,24.6499174 C13.9466264,24.6467091 13.9420949,24.6432091 13.9370471,24.6401175 L9.97915186,22.2328827 L10.5648056,21.637301 C10.6151578,21.5860518 10.6531149,21.523608 10.6756841,21.4548932 L11.0301165,20.3739796 L16.7929841,20.3739796 L17.1473017,21.4548932 C17.1698709,21.523608 17.207828,21.5860518 17.2581802,21.637301 L17.9369879,22.3275574 L14.2028571,24.5988176 Z M16.4179018,19.2296579 L16.4870789,19.440649 L11.336079,19.440649 L11.4052561,19.2295996 C11.5457146,18.8013723 11.6172655,18.3528919 11.6171469,17.90147 L11.6171469,17.5739876 L16.206011,17.5739876 L16.206011,17.90147 C16.2058973,18.3529105 16.277448,18.8014094 16.4179018,19.2296579 L16.4179018,19.2296579 Z M17.1237838,17.90147 L17.1237838,17.2710051 L17.4224041,16.8914312 L18.7677444,19.6277818 C18.977677,20.0525422 19.3477497,20.3727888 19.7936423,20.5155542 L20.5309007,20.7498202 L18.7491595,21.8335921 L17.9837369,21.0552527 L17.559267,19.7597314 L17.2887535,18.9345504 C17.1794339,18.6014674 17.1237268,18.2526162 17.1237838,17.90147 L17.1237838,17.90147 Z M23.2863415,22.8258976 C23.191427,23.1630441 22.967559,23.447418 22.6648372,23.6153787 L15.1703044,26.7282698 L14.8839592,25.272099 L21.2986176,21.3704268 C21.3050994,21.3665185 21.3114091,21.3624351 21.3176041,21.3582352 C21.7716661,21.0503782 22.3665007,21.0638522 22.8066332,21.391964 C23.2467658,21.7200758 23.4383987,22.292901 23.2863415,22.8258976 L23.2863415,22.8258976 Z M18.0415566,13.2398333 L18.0415566,11.8583289 L18.3920885,11.9743536 C18.7974333,12.1906269 19.0926363,12.5726778 19.2033997,13.0243506 L20.3496979,17.6872706 C20.3785089,17.8044981 20.4509092,17.9057909 20.5516653,17.9698365 L24.2227566,20.3031632 C24.3388355,20.3769318 24.4812367,20.3941513 24.6110892,20.3501214 L25.8426256,19.9325726 L26.689902,20.2197467 L26.4104975,21.6405093 L23.4080037,20.6863537 C22.9819407,20.3433203 22.4460448,20.1729165 21.9037167,20.2080218 L20.0674254,19.6246901 C19.8593676,19.5581005 19.6866753,19.4086996 19.5886922,19.2105246 L18.0408683,16.0624003 C18.5509509,15.1931126 18.5512152,14.1093782 18.0415566,13.2398333 L18.0415566,13.2398333 Z M15.7471246,6.84068489 C15.7471246,7.87161349 14.9253228,8.70734624 13.9115789,8.70734624 C12.8978351,8.70734624 12.0760333,7.87161349 12.0760333,6.84068489 L12.0760333,5.07966492 C13.1661993,5.83007999 14.4334467,6.2712282 15.7471246,6.35762794 L15.7471246,6.84068489 Z M15.1982391,11.0316313 L15.2882382,11.0499479 L15.2882382,12.6740016 L13.9115789,13.7239986 L12.5349197,12.6740016 L12.5349197,11.0499479 L12.6249188,11.0316313 C12.8394193,10.9880019 12.9938162,10.7964646 12.9938061,10.5740076 L12.9938061,9.48014403 C13.587554,9.6941861 14.2356038,9.6941861 14.8293518,9.48014403 L14.8293518,10.5740076 C14.8293417,10.7964646 14.9837386,10.9880019 15.1982391,11.0316313 L15.1982391,11.0316313 Z M15.7471246,4.97402355 L15.7471246,5.42272227 C14.5175841,5.33096927 13.3394214,4.88385457 12.3513652,4.13402595 C12.3326089,4.11994508 12.3128188,4.1073471 12.2921688,4.09634272 C12.6881736,3.34027911 13.5394532,2.95545119 14.356691,3.16305848 C15.1739289,3.37066577 15.7472565,4.11739424 15.7471246,4.97402355 Z M11.1582605,4.97402355 L11.1582605,6.84068489 C11.1578286,7.26460516 11.2526499,7.68302142 11.4354852,8.06398974 C10.8952871,8.2984399 10.2893111,8.3233447 9.73227098,8.13398954 C10.3523995,7.50327397 10.7003469,6.64760108 10.6993741,5.75568799 L10.6993741,5.62403003 C10.6953908,4.13563733 11.2770953,2.70748243 12.3148263,1.65789968 C12.6661234,1.30054009 13.1773638,1.15932389 13.6581663,1.28683874 C14.1389688,1.41435359 14.5172805,1.79149019 14.6522216,2.27780624 C13.8229158,2.04158457 12.9326895,2.21382899 12.2466257,2.74325022 C11.5605618,3.27267146 11.1577962,4.09820205 11.1582605,4.97402355 L11.1582605,4.97402355 Z M10.6222812,13.6328822 C10.6725471,13.5562203 10.6993718,13.4661413 10.6993741,13.3739996 L10.6993741,11.5649714 L11.6171469,11.2908055 L11.6171469,12.9073343 C11.6171469,13.0542206 11.6851512,13.1925347 11.8007015,13.2806665 L13.6362471,14.6806625 C13.7994067,14.8051066 14.0237512,14.8051066 14.1869108,14.6806625 L16.0224564,13.2806665 C16.1380067,13.1925347 16.206011,13.0542206 16.206011,12.9073343 L16.206011,11.2908055 L17.1237838,11.5649714 L17.1237838,13.3739996 C17.1237861,13.4661413 17.1506108,13.5562203 17.2008767,13.6328822 C17.6386331,14.2969769 17.6012248,15.173324 17.1085258,15.7963427 L16.4443451,16.6406569 L11.3788128,16.6406569 L10.7146321,15.7963427 C10.2219331,15.173324 10.1845248,14.2969769 10.6222812,13.6328822 L10.6222812,13.6328822 Z M1.98053231,19.9325726 L3.21206871,20.3500047 C3.34192118,20.3940346 3.48432244,20.3768151 3.60040133,20.3030465 L7.27149261,17.9697198 C7.3722487,17.9056742 7.44464897,17.8043814 7.47345999,17.687154 L8.61975824,13.0240006 C8.73052161,12.5723278 9.02572457,12.1902769 9.43106941,11.9740036 L9.78160126,11.8583289 L9.78160126,13.2398333 C9.27191478,14.109418 9.27220109,15.1932109 9.78234695,16.0625169 L8.2345231,19.2106413 C8.13655314,19.4088043 7.96388354,19.5582035 7.75584721,19.6248068 L5.92443155,20.2068551 C5.53921444,20.2246582 5.16551835,20.3459678 4.84140227,20.5584291 C4.81616351,20.5619291 1.41271774,21.640626 1.41271774,21.640626 L1.13325591,20.2198634 L1.98053231,19.9325726 Z" id="Shape"></path>
                                <path d="M27.2568289,10.1406452 L25.9287959,10.1406452 C25.8706429,9.86702007 25.7724869,9.60714084 25.638641,9.37242721 L25.0788758,8.39285712 C25.0007118,8.25609951 24.8691387,8.17395833 24.7282456,8.17395833 C24.5873525,8.17395833 24.4557795,8.25609951 24.3776154,8.39285712 L23.8178503,9.37242721 C23.6840043,9.60714084 23.5858483,9.86702007 23.5276953,10.1406452 L22.1996623,10.1406452 C22.0536034,10.140651 21.9179612,10.2288864 21.8411781,10.3738396 C21.764395,10.5187928 21.7574205,10.6997932 21.8227453,10.8521994 L22.3161352,12.0034816 C22.6000188,12.6715266 23.1847839,13.0931485 23.8239083,13.0906136 L25.6325829,13.0906136 C26.2717074,13.0931485 26.8564724,12.6715266 27.1403561,12.0034816 L27.6337459,10.8521994 C27.6990707,10.6997932 27.6920962,10.5187928 27.6153131,10.3738396 C27.5385301,10.2288864 27.4028878,10.140651 27.2568289,10.1406452 Z M23.0699691,11.5636921 L22.8815369,11.1239642 L23.4824442,11.1239642 C23.5212134,11.4728974 23.6244534,11.8078517 23.7850314,12.1056853 C23.4797877,12.090684 23.2057579,11.8829786 23.0699691,11.5636921 Z M25.149681,10.8010053 C25.1506077,11.192424 25.017252,11.5680038 24.7793441,11.8439995 L24.7282456,11.9036132 L24.6770945,11.8439381 C24.4392139,11.5679511 24.3058778,11.1923952 24.3068102,10.8010053 L24.3068102,10.7361063 C24.306589,10.4448731 24.3804754,10.1601168 24.5191107,9.91792343 L24.7282456,9.55200585 L24.9373805,9.91792343 C25.0760159,10.1601168 25.1499022,10.4448731 25.149681,10.7361063 L25.149681,10.8010053 Z M26.3865222,11.5636921 C26.2507333,11.8829786 25.9767035,12.090684 25.6714599,12.1056853 C25.8320378,11.8078517 25.9352778,11.4728974 25.974047,11.1239642 L26.5749543,11.1239642 L26.3865222,11.5636921 Z" id="Shape"></path>
                                <path d="M5.6234956,10.1406083 L4.29546257,10.1406083 C4.2373096,9.86697978 4.13915355,9.6070973 4.00530763,9.37238074 L3.4455425,8.39285986 C3.36737844,8.25610054 3.23580539,8.17395833 3.09491228,8.17395833 C2.95401917,8.17395833 2.82244613,8.25610054 2.74428206,8.39285986 L2.18451693,9.37238074 C2.05067101,9.6070973 1.95251496,9.86697978 1.89436199,10.1406083 L0.566328958,10.1406083 C0.420270062,10.1406141 0.284627833,10.2288506 0.207844767,10.3738056 C0.131061701,10.5187606 0.124087165,10.6997633 0.189412007,10.8521714 L0.682801828,12.003468 C0.966685489,12.6715214 1.55145053,13.0931485 2.19057499,13.0906136 L3.99924957,13.0906136 C4.63837404,13.0931485 5.22313907,12.6715214 5.50702273,12.003468 L6.00041255,10.8521714 C6.0657374,10.6997633 6.05876286,10.5187606 5.98197979,10.3738056 C5.90519673,10.2288506 5.7695545,10.1406141 5.6234956,10.1406083 Z M1.43663573,11.5636731 L1.24820359,11.1239396 L1.84911089,11.1239396 C1.88793583,11.4729081 1.99126801,11.8078742 2.15196142,12.105673 C1.84662177,12.0907814 1.57246958,11.8830572 1.43663573,11.5636731 L1.43663573,11.5636731 Z M3.51634768,10.8009767 C3.51727436,11.1924003 3.38391863,11.5679848 3.14601074,11.8439839 L3.09491228,11.9035984 L3.04376115,11.8439225 C2.8058806,11.5679321 2.67254448,11.1923715 2.67347682,10.8009767 L2.67347682,10.7360769 C2.6732557,10.4448401 2.74714204,10.1600801 2.88577737,9.91788377 L3.09491228,9.55196161 L3.30404719,9.91788377 C3.44268252,10.1600801 3.51656886,10.4448401 3.51634768,10.7360769 L3.51634768,10.8009767 Z M4.75318883,11.5636731 C4.61739997,11.8829635 4.3433702,12.0906715 4.03812654,12.105673 C4.19870447,11.8078356 4.30194445,11.4728771 4.34071368,11.1239396 L4.94162097,11.1239396 L4.75318883,11.5636731 Z" id="Shape"></path>
                            </g>
                        </g>
                    </g>
                </g>
            </g>
        </g>
    </g>
</svg>