<?xml version="1.0" encoding="UTF-8"?>
<svg width="22px" height="11px" viewBox="0 0 22 11" version="1.1" xmlns="http://www.w3.org/2000/svg" xmlns:xlink="http://www.w3.org/1999/xlink">
    <!-- Generator: Sketch 55.2 (78181) - https://sketchapp.com -->
    <title>Combined Shape</title>
    <desc>Created with Sketch.</desc>
    <g id="V1" stroke="none" stroke-width="1" fill="none" fill-rule="evenodd">
        <g id="Desktop-IntercativeMaop-Copy" transform="translate(-1318.000000, -817.000000)" fill="#000000">
            <g id="Tab" transform="translate(0.000000, 785.000000)">
                <g id="Arrows" transform="translate(1284.000000, 32.000000)">
                    <g id="icon/go" transform="translate(34.000000, 0.500000)">
                        <path d="M18.8423836,5.94117647 L0.970588235,5.94117647 C0.434547155,5.94117647 -1.43884904e-13,5.50662932 -1.43884904e-13,4.97058824 C-1.43884904e-13,4.43454715 0.434547155,4 0.970588235,4 L18.7849655,4 L16.2125844,1.3646533 C15.9217786,1.04492699 15.9303593,0.546689775 16.2319936,0.237672239 C16.5336279,-0.0713452974 17.0199608,-0.0801361116 17.332048,0.217787973 L20.8805364,3.85313467 L22,5 L17.332048,9.78221203 C17.0199608,10.0801361 16.5336279,10.0713453 16.2319936,9.76232776 C15.9303593,9.45331023 15.9217786,8.95507301 16.2125844,8.6353467 L18.8423836,5.94117647 Z" id="Combined-Shape"></path>
                    </g>
                </g>
            </g>
        </g>
    </g>
</svg>