<?xml version="1.0" standalone="no"?>
<!DOCTYPE svg PUBLIC "-//W3C//DTD SVG 1.1//EN" "http://www.w3.org/Graphics/SVG/1.1/DTD/svg11.dtd" >
<svg xmlns="http://www.w3.org/2000/svg" xmlns:xlink="http://www.w3.org/1999/xlink" version="1.1">
<metadata>
Created by FontForge 20190801 at Tue May  2 17:44:40 2017
 By www-data
(c)2012 Paul Barnes, Christian Schwartz, and Ross Milne, under exclusive license to Schwartzco Inc./Commercial Type. All rights reserved.
</metadata>
<defs>
<font id="PublicoBannerRoman" horiz-adv-x="459" >
  <font-face 
    font-family="PublicoBannerRoman"
    font-weight="400"
    font-stretch="normal"
    units-per-em="1000"
    panose-1="2 4 5 2 6 5 4 6 2 3"
    ascent="803"
    descent="-197"
    x-height="510"
    cap-height="693"
    bbox="-146 -220 1092 1025"
    underline-thickness="71"
    underline-position="-76"
    unicode-range="U+0020-FB04"
  />
<missing-glyph horiz-adv-x="498" 
 />
    <glyph glyph-name="f_f" unicode="ff" horiz-adv-x="564" 
d="M340 510v49q0 91 58 145t149 54q47 0 74 -17.5t27 -45.5q0 -20 -13.5 -33t-35.5 -13q-23 0 -35 12.5t-18 44.5q-3 18 -7.5 25t-16.5 7q-33 0 -55.5 -33t-22.5 -101v-94h104l-4 -35h-100v-407q0 -27 5 -35.5t26 -12.5l45 -10v-10h-243v10l27 6q25 6 30.5 14.5t5.5 37.5
v407h-161v-406q0 -29 5 -37.5t26 -12.5l42 -9v-10h-242v10l28 7q25 6 31 14.5t6 37.5v406h-66v8l66 28v38q0 90 52 144t142 54q46 0 72.5 -17.5t26.5 -43.5q0 -20 -12.5 -32t-33.5 -12q-23 0 -35 12t-17 43q-2 17 -7 24t-16 7q-31 0 -49.5 -33t-18.5 -102v-83h161z" />
    <glyph glyph-name="f_i" unicode="fi" horiz-adv-x="518" 
d="M323 510l120 14l5 -2q0 -1 -2 -39.5t-2 -77.5v-337q0 -29 6.5 -37t33.5 -14l26 -7v-10h-232v10l27 6q24 6 29.5 14t5.5 38v352q0 34 -9 44.5t-38 10.5h-114v-407q0 -28 5 -36.5t26 -12.5l42 -9v-10h-242v10l28 7q25 6 31 14t6 37v407h-66v8l66 28v28q0 97 58 158t164 61
q50 0 79 -18.5t29 -48.5q0 -19 -13.5 -32.5t-36.5 -13.5q-26 0 -39 13.5t-20 49.5q-2 11 -4 16t-7.5 9.5t-14.5 4.5q-43 0 -67 -39.5t-24 -112.5v-76h144z" />
    <glyph glyph-name="f_l" unicode="fl" horiz-adv-x="516" 
d="M10 0v10l28 7q25 6 31 14t6 37v407h-66v8l66 28v41q0 96 51 151t156 55q81 0 103 -43l57 40l6 -2q-4 -56 -4 -123v-559q0 -29 7 -38.5t32 -15.5l26 -7v-10h-232v10l27 6q24 6 30 15t6 40v578q-41 1 -50 57q-6 32 -29 32q-38 0 -60 -36t-22 -106v-86h102l-4 -35h-98v-407
q0 -28 5 -36.5t26 -12.5l42 -9v-10h-242z" />
    <glyph glyph-name="f_f_i" unicode="ffi" horiz-adv-x="783" 
d="M277 0v10l27 6q24 6 29.5 14.5t5.5 37.5v407h-160v-406q0 -29 4.5 -37.5t25.5 -12.5l42 -9v-10h-241v10l28 7q25 6 30.5 14t5.5 38v406h-65v8l65 28v38q0 90 52.5 144t141.5 54q46 0 72.5 -17t26.5 -44q0 -20 -12 -32t-33 -12q-23 0 -35 12t-17 43q-3 17 -7.5 24t-15.5 7
q-31 0 -49.5 -33t-18.5 -102v-83h160v29q0 97 58.5 158t164.5 61q49 0 78 -18.5t29 -48.5q0 -19 -13.5 -32.5t-36.5 -13.5q-26 0 -39 13.5t-20 49.5q-2 10 -4 16t-7.5 10t-14.5 4q-43 0 -67 -39.5t-24 -112.5v-76h145l120 14l4 -2q0 -1 -2 -39.5t-2 -77.5v-337
q0 -28 7 -36.5t33 -14.5l27 -7v-10h-233v10l27 6q25 6 30 14t5 38v352q0 34 -9 44.5t-38 10.5h-114v-407q0 -28 5 -36.5t26 -12.5l42 -9v-10h-239z" />
    <glyph glyph-name="f_f_l" unicode="ffl" horiz-adv-x="781" 
d="M277 0v10l27 6q25 6 30.5 14.5t5.5 37.5v407h-161v-406q0 -29 5 -37.5t26 -12.5l42 -9v-10h-242v10l28 7q25 6 31 14.5t6 37.5v406h-66v8l66 28v38q0 89 51.5 143.5t142.5 54.5q46 0 72.5 -17.5t26.5 -43.5q0 -19 -12 -31.5t-34 -12.5q-23 0 -35 12t-17 43q-2 17 -7 24
t-16 7q-68 0 -68 -135v-83h161v42q0 96 52 151t158 55q79 0 103 -41l54 38l6 -2q-4 -56 -4 -123v-559q0 -29 7 -38.5t32 -15.5l26 -7v-10h-232v10l27 6q24 6 29.5 15t5.5 40v580q-21 1 -31.5 14t-15.5 41q-6 32 -28 32q-38 0 -61.5 -36t-23.5 -106v-86h105l-4 -35h-101v-407
q0 -28 5 -36.5t26 -12.5l41 -9v-10h-239z" />
    <glyph glyph-name="f_b" unicode="fb" horiz-adv-x="834" 
d="M10 0v10l28 7q25 6 31 14t6 37v407h-66v8l66 28v41q0 95 52.5 150.5t157.5 55.5q79 0 104 -41l53 38l6 -2q-4 -59 -4 -123v-80l-1 -88h3q79 65 165 65t142.5 -58.5t56.5 -186.5q0 -140 -76 -216t-207 -76q-113 0 -187 44v617q-21 1 -31.5 14t-15.5 41q-6 32 -29 32
q-38 0 -61.5 -36t-23.5 -106v-86h102l-4 -35h-98v-407q0 -27 5.5 -35.5t26.5 -12.5l45 -10v-10h-246zM543 10q158 0 158 257q0 203 -146 203q-49 0 -111 -26v-397q39 -37 99 -37z" />
    <glyph glyph-name="f_f_b" unicode="ffb" horiz-adv-x="1099" 
d="M340 510v42q0 96 52 151t158 55q79 0 104 -41l53 38l6 -2q-4 -59 -4 -123v-80l-1 -88h2q81 65 166 65q86 0 142.5 -58.5t56.5 -186.5q0 -140 -76 -216t-207 -76q-115 0 -187 44v617q-21 1 -32 14t-16 41q-6 32 -28 32q-38 0 -61.5 -36t-23.5 -106v-86h101l-4 -35h-97
v-407q0 -27 5 -35.5t26 -12.5l45 -10v-10h-243v10l27 6q25 6 30.5 14.5t5.5 37.5v407h-161v-406q0 -29 5 -37.5t26 -12.5l42 -9v-10h-242v10l28 7q25 6 31 14.5t6 37.5v406h-66v8l66 28v38q0 89 51.5 143.5t142.5 54.5q46 0 72.5 -17.5t26.5 -43.5q0 -19 -12 -31.5
t-34 -12.5q-23 0 -35 12t-17 43q-2 17 -7 24t-16 7q-68 0 -68 -135v-83h161zM808 10q158 0 158 257q0 203 -146 203q-51 0 -111 -26v-397q39 -37 99 -37z" />
    <glyph glyph-name="f_f_h" unicode="ffh" horiz-adv-x="1095" 
d="M277 0v10l27 6q25 6 30.5 14.5t5.5 37.5v407h-161v-406q0 -29 5 -37.5t26 -12.5l42 -9v-10h-242v10l28 7q25 6 31 14.5t6 37.5v406h-66v8l66 28v38q0 89 51.5 143.5t142.5 54.5q46 0 72.5 -17.5t26.5 -43.5q0 -19 -12 -31.5t-34 -12.5q-23 0 -35 12t-17 43q-2 17 -7 24
t-16 7q-68 0 -68 -135v-83h161v42q0 96 52 151t158 55q79 0 103 -41l54 38l6 -2q-4 -56 -4 -123v-169h2q98 66 184 66q69 0 100 -32.5t31 -101.5v-325q0 -29 5.5 -36.5t31.5 -14.5l29 -7v-10h-235v10l28 6q25 7 31 14.5t6 37.5v309q0 51 -18 72t-61 21q-58 0 -134 -28v-374
q0 -30 6 -37.5t31 -14.5l28 -6v-10h-232v10l27 6q25 7 30 14.5t5 37.5v583q-21 1 -31.5 14t-15.5 41q-6 32 -28 32q-38 0 -61.5 -36t-23.5 -106v-86h101l-4 -35h-97v-407q0 -28 5 -36.5t26 -12.5l41 -9v-10h-239z" />
    <glyph glyph-name="f_f_j" unicode="ffj" horiz-adv-x="770" 
d="M340 510v29q0 97 58 158t164 61q50 0 79 -18.5t29 -48.5q0 -19 -14 -32.5t-37 -13.5q-26 0 -38.5 13.5t-19.5 49.5q-2 11 -4 16t-7.5 9.5t-14.5 4.5q-43 0 -67 -39.5t-24 -112.5v-76h144l120 14l5 -2q-4 -60 -4 -117v-396q0 -98 -46 -152.5t-123 -54.5q-47 0 -71 17.5
t-24 47.5q0 21 13 33.5t36 12.5q22 0 34.5 -12.5t16.5 -46.5q4 -32 20 -32q17 0 28.5 21t11.5 60v518q0 34 -9 44t-38 10h-114v-407q0 -27 5 -35.5t26 -12.5l45 -10v-10h-243v10l27 6q25 6 30.5 14.5t5.5 37.5v407h-161v-406q0 -29 5 -37.5t26 -12.5l42 -9v-10h-242v10l28 7
q25 6 31 14.5t6 37.5v406h-66v8l66 28v38q0 89 51.5 143.5t142.5 54.5q46 0 72.5 -17.5t26.5 -43.5q0 -19 -12 -31.5t-34 -12.5q-23 0 -35 12t-17 43q-2 17 -7 24t-16 7q-68 0 -68 -135v-83h161z" />
    <glyph glyph-name="f_f_k" unicode="ffk" horiz-adv-x="1049" 
d="M277 0v10l27 6q24 6 29.5 14t5.5 38v407h-160v-406q0 -29 5 -37.5t26 -12.5l41 -9v-10h-241v10l28 7q25 6 31 14.5t6 37.5v406h-66v8l66 28v38q0 89 51.5 143.5t141.5 54.5q47 0 73.5 -17.5t26.5 -43.5q0 -19 -12 -31.5t-34 -12.5q-23 0 -35 12t-17 43q-3 17 -7.5 24
t-15.5 7q-68 0 -68 -135v-83h160v42q0 95 52.5 150.5t157.5 55.5q80 0 104 -41l54 38l6 -2q-4 -56 -4 -123v-559q0 -32 6 -40.5t31 -14.5l27 -6v-10h-231v10l27 6q24 6 29.5 14.5t5.5 40.5v580q-21 1 -31.5 14t-15.5 41q-6 32 -29 32q-38 0 -61 -36t-23 -106v-86h101l-4 -35
h-97v-407q0 -28 5 -36.5t25 -12.5l42 -9v-10h-239zM911 0q-88 97 -186 253v4l114 127q51 57 51 82q0 19 -33 29l-16 5v10h184v-11l-19 -6q-31 -10 -49.5 -22.5t-43.5 -39.5l-109 -119q96 -158 199 -270q17 -19 39 -28l13 -4v-10h-144z" />
    <glyph glyph-name="f_h" unicode="fh" horiz-adv-x="830" 
d="M10 0v10l28 7q25 6 31 14t6 37v407h-66v8l66 28v41q0 95 52.5 150.5t157.5 55.5q79 0 104 -41l53 38l6 -2q-4 -56 -4 -123v-169h2q98 66 184 66q70 0 101 -32.5t31 -101.5v-325q0 -29 5.5 -36.5t31.5 -14.5l28 -7v-10h-234v10l28 6q25 7 30.5 14.5t5.5 37.5v309
q0 51 -18 72t-60 21q-59 0 -135 -28v-374q0 -30 6 -37.5t32 -14.5l28 -6v-10h-233v10l27 6q25 7 30.5 14.5t5.5 37.5v583q-21 1 -31.5 14t-15.5 41q-6 32 -29 32q-38 0 -61.5 -36t-23.5 -106v-86h102l-4 -35h-98v-407q0 -28 5 -36.5t26 -12.5l42 -9v-10h-242z" />
    <glyph glyph-name="f_j" unicode="fj" horiz-adv-x="505" 
d="M444 405v-396q0 -99 -46 -153t-123 -54q-47 0 -71 17.5t-24 47.5q0 21 13 33.5t36 12.5q22 0 34.5 -12.5t16.5 -46.5q4 -32 20 -32q40 0 40 81v518q0 34 -9 44t-38 10h-114v-407q0 -27 5.5 -35.5t26.5 -12.5l45 -10v-10h-246v10l28 7q25 6 31 14t6 37v407h-66v8l66 28v28
q0 97 58 158t164 61q50 0 79 -18.5t29 -48.5q0 -19 -13.5 -32.5t-36.5 -13.5q-26 0 -39 13.5t-20 49.5q-2 11 -4 16t-7.5 9.5t-14.5 4.5q-43 0 -67 -39.5t-24 -112.5v-76h144l120 14l5 -2q0 -1 -2 -39.5t-2 -77.5z" />
    <glyph glyph-name="f_k" unicode="fk" horiz-adv-x="784" 
d="M10 0v10l28 7q25 6 31 14t6 37v407h-66v8l66 28v41q0 96 52 151t158 55q79 0 103 -41l54 38l6 -2q-4 -56 -4 -123v-559q0 -32 6 -40.5t31 -14.5l27 -6v-10h-231v10l27 6q25 6 30 14.5t5 40.5v580q-21 1 -31.5 14t-15.5 41q-6 32 -28 32q-38 0 -61.5 -36t-23.5 -106v-86
h101l-4 -35h-97v-407q0 -28 5 -36.5t26 -12.5l41 -9v-10h-241zM647 0q-89 96 -187 253v4l114 127q52 58 52 82q0 18 -34 29l-15 5v10h183v-11l-19 -6q-31 -10 -49.5 -22.5t-43.5 -39.5l-109 -119q101 -164 199 -270q17 -20 40 -28l12 -4v-10h-143z" />
    <glyph glyph-name=".notdef" horiz-adv-x="498" 
 />
    <glyph glyph-name=".null" horiz-adv-x="0" 
 />
    <glyph glyph-name="nonmarkingreturn" horiz-adv-x="333" 
 />
    <glyph glyph-name="space" unicode=" " horiz-adv-x="193" 
 />
    <glyph glyph-name="exclam" unicode="!" horiz-adv-x="239" 
d="M113 193l-58 418q-8 43 9.5 67t54.5 24t55 -24t10 -67l-57 -418h-14zM58 57q0 25 18 43t43 18q26 0 44 -18t18 -43t-18.5 -43.5t-43.5 -18.5t-43 18t-18 44z" />
    <glyph glyph-name="quotedbl" unicode="&#x22;" horiz-adv-x="283" 
d="M72 479l-42 150q-11 36 3.5 56t43.5 20q28 0 42 -20t4 -56l-40 -150h-11zM201 479l-41 150q-10 36 3.5 56t42.5 20t43.5 -20t3.5 -56l-41 -150h-11z" />
    <glyph glyph-name="numbersign" unicode="#" horiz-adv-x="478" 
d="M223 0l45 203h-125l-45 -203h-26l45 203h-94l17 76h95l31 142h-94l18 76h93l45 196h26l-45 -196h126l45 196h25l-44 -196h94l-18 -76h-93l-32 -142h94l-18 -76h-93l-45 -203h-27zM192 421l-31 -142h125l32 142h-126z" />
    <glyph glyph-name="dollar" unicode="$" horiz-adv-x="485" 
d="M18 98q0 23 14 36.5t38 13.5q26 0 40 -14t18 -50q5 -43 23.5 -57t73.5 -15v289q-107 45 -150.5 93t-43.5 118q0 72 53.5 126t141.5 61v61h25v-60q93 0 140 -29t47 -70q0 -22 -14 -35t-36 -13q-27 0 -40 14t-17 48q-5 34 -20 48t-60 15v-265q113 -50 159.5 -97t46.5 -122
q0 -80 -56 -138t-151 -65v-94h-25v93q-108 1 -157.5 30t-49.5 78zM373 144q0 49 -29 82t-94 64v-278q56 4 89.5 41.5t33.5 90.5zM108 558q0 -44 29 -74.5t89 -59.5v253q-54 -5 -86 -38.5t-32 -80.5z" />
    <glyph glyph-name="percent" unicode="%" horiz-adv-x="666" 
d="M58 -50l504 764h31l-503 -764h-32zM182 357q-63 0 -109.5 43t-46.5 123q0 86 48 132.5t110 46.5q63 0 109.5 -43.5t46.5 -125.5q0 -84 -48.5 -130t-109.5 -46zM182 376q38 0 54 34t16 112q0 86 -16 123.5t-54 37.5q-36 0 -52 -35t-16 -114q0 -83 16 -120.5t52 -37.5z
M481 -12q-63 0 -109 42t-46 123q0 87 48 133.5t109 46.5q64 0 110 -44t46 -126q0 -84 -48 -129.5t-110 -45.5zM482 6q38 0 54 34t16 113q0 85 -16.5 123t-53.5 38q-36 0 -52 -35t-16 -115q0 -83 16 -120.5t52 -37.5z" />
    <glyph glyph-name="ampersand" unicode="&#x26;" horiz-adv-x="643" 
d="M460 581q0 -55 -42.5 -91t-133.5 -78q105 -161 189 -263q51 83 51 144q0 24 -10.5 35.5t-39.5 19.5l-19 5v11h184v-11l-22 -9q-16 -5 -28.5 -17.5t-18.5 -23.5t-20 -39q-33 -82 -65 -130q39 -51 77 -89q21 -23 46 -29l18 -4v-12h-170q-24 25 -46 55q-74 -66 -176 -66
q-106 0 -164 47t-58 135q0 130 165 210q-48 86 -48 148q0 74 51 124t130 50q71 0 110.5 -34t39.5 -88zM397 70q-123 149 -211 297q-33 -24 -49.5 -65.5t-16.5 -86.5q0 -91 42.5 -141.5t113.5 -50.5q68 0 121 47zM220 575q0 -64 56 -150q100 61 100 156q0 101 -71 101
q-40 0 -62.5 -29.5t-22.5 -77.5z" />
    <glyph glyph-name="quotesingle" unicode="'" horiz-adv-x="154" 
d="M72 479l-42 150q-11 36 3.5 56t43.5 20q28 0 43 -20t4 -56l-41 -150h-11z" />
    <glyph glyph-name="parenleft" unicode="(" horiz-adv-x="293" 
d="M274 -141q-46 39 -81 76t-71.5 91.5t-56.5 124.5t-20 150q0 139 67 252t162 193l9 -9q-73 -77 -118.5 -186.5t-45.5 -228.5q0 -278 164 -455z" />
    <glyph glyph-name="parenright" unicode=")" horiz-adv-x="293" 
d="M19 746q229 -192 229 -444q0 -251 -229 -443l-9 8q164 186 164 425q0 278 -164 446z" />
    <glyph glyph-name="asterisk" unicode="*" horiz-adv-x="302" 
d="M67 446q-17 11 -15.5 30t19.5 30l76 55l-86 -2q-27 -1 -37 14t-5 32q7 19 22.5 23.5t37.5 -12.5l69 -52l-30 89q-8 21 2 35.5t31 14.5t31 -14.5t1 -35.5l-30 -89l69 53q22 17 38.5 12t22.5 -23q5 -18 -5 -33t-38 -14l-86 2l76 -55q19 -11 20 -30t-16 -29
q-12 -12 -30.5 -6.5t-24.5 28.5l-29 89l-26 -89q-7 -24 -26 -29t-31 6z" />
    <glyph glyph-name="plus" unicode="+" horiz-adv-x="444" 
d="M208 136v192h-170v26h170v193h28v-193h171v-26h-171v-192h-28z" />
    <glyph glyph-name="comma" unicode="," horiz-adv-x="186" 
d="M22 -106l-4 9q88 39 94 120q-14 -17 -38 -17q-22 0 -35.5 14.5t-13.5 37.5q0 24 18.5 41t44.5 17q33 0 52.5 -21.5t19.5 -57.5q0 -51 -39.5 -91t-98.5 -52z" />
    <glyph glyph-name="hyphen" unicode="-" horiz-adv-x="250" 
d="M19 250l6 73h206l-6 -73h-206z" />
    <glyph glyph-name="period" unicode="." horiz-adv-x="182" 
d="M29 57q0 25 18 43t44 18q25 0 43.5 -18t18.5 -43t-18.5 -43.5t-43.5 -18.5t-43.5 18.5t-18.5 43.5z" />
    <glyph glyph-name="slash" unicode="/" horiz-adv-x="357" 
d="M350 734l-317 -864h-29l316 864h30z" />
    <glyph glyph-name="zero" unicode="0" horiz-adv-x="610" 
d="M303 -10q-115 0 -195 85.5t-80 259.5q0 95 24.5 168.5t65.5 115.5t89.5 63t101.5 21t100.5 -19.5t87 -59.5t62.5 -109.5t23 -160.5q0 -94 -24 -166.5t-65 -114t-89 -62.5t-101 -21zM307 12q157 0 157 323q0 346 -157 346q-160 0 -160 -327q0 -342 160 -342z" />
    <glyph glyph-name="one" unicode="1" horiz-adv-x="338" 
d="M21 0v11l49 8q27 4 34.5 15t7.5 44v511l-86 10v10q71 12 114.5 32.5t76.5 58.5l10 -2v-620q0 -34 6.5 -44.5t32.5 -14.5l49 -8v-11h-294z" />
    <glyph glyph-name="two" unicode="2" horiz-adv-x="486" 
d="M5 0v61q120 93 195 168q70 70 102 140t32 161q0 76 -33 113.5t-89 37.5q-37 0 -48.5 -11.5t-15.5 -44.5q-4 -41 -18.5 -56.5t-44.5 -15.5q-24 0 -37.5 13.5t-13.5 35.5q0 44 50.5 72.5t137.5 28.5q110 0 170.5 -51.5t60.5 -140.5q0 -55 -25 -106.5t-78.5 -104t-116 -99
t-158.5 -108.5v-4h273q43 0 58 12.5t40 72.5h11l-15 -174h-437z" />
    <glyph glyph-name="three" unicode="3" horiz-adv-x="499" 
d="M203 -10q-184 0 -184 93q0 24 14.5 37.5t40.5 13.5q27 0 40.5 -16.5t18.5 -54.5q5 -31 19 -41t51 -10q70 0 107 51t37 134q0 78 -32.5 116t-105.5 38h-55v24h47q68 0 98.5 39t30.5 119q0 76 -27 112t-84 36q-36 0 -47 -10t-15 -40q-5 -40 -18.5 -56t-41.5 -16
q-25 0 -38.5 13t-13.5 35q0 43 49 69.5t135 26.5q103 0 158.5 -45.5t55.5 -118.5q0 -63 -40.5 -109t-123.5 -61v-3q89 -6 138.5 -50.5t49.5 -121.5q0 -89 -69.5 -146.5t-194.5 -57.5z" />
    <glyph glyph-name="four" unicode="4" horiz-adv-x="528" 
d="M217 0v11l36 8q26 5 33.5 16.5t7.5 43.5v127h-287v36l337 451h57v-435h112l-5 -52h-107v-127q0 -32 7.5 -43.5t30.5 -16.5l41 -8v-11h-263zM52 258h242v322h-3l-239 -319v-3z" />
    <glyph glyph-name="five" unicode="5" horiz-adv-x="479" 
d="M182 -10q-78 0 -120 23t-42 65q0 23 14 36.5t40 13.5t40 -15t20 -52q6 -31 16.5 -40.5t41.5 -9.5q71 0 114 46.5t43 125.5q0 157 -165 157q-73 0 -121 -21l-8 6l40 368h274q20 0 29.5 8t24.5 42h11l-18 -140h-305l-20 -188q53 17 127 17q109 0 170 -53t61 -153
q0 -98 -75 -167t-192 -69z" />
    <glyph glyph-name="six" unicode="6" horiz-adv-x="545" 
d="M284 -10q-118 0 -185.5 80t-67.5 230q0 102 31 182.5t81 127t106 70t112 23.5q74 0 113.5 -22.5t39.5 -62.5q0 -23 -14.5 -37.5t-39.5 -14.5q-27 0 -41 14.5t-19 47.5q-5 32 -15 42.5t-36 10.5q-76 0 -133.5 -77.5t-65.5 -241.5q79 56 170 56q98 0 148.5 -52.5
t50.5 -152.5q0 -98 -65 -160.5t-170 -62.5zM283 12q119 0 119 190q0 95 -31.5 137t-101.5 42q-30 0 -64.5 -11.5t-55.5 -26.5q-1 -15 -1 -40q0 -40 1 -68.5t5 -66t13.5 -62t23.5 -48t37.5 -35t54.5 -11.5z" />
    <glyph glyph-name="seven" unicode="7" horiz-adv-x="475" 
d="M111 0q38 181 116 322t192 278h-325q-25 0 -35 -12.5t-30 -61.5h-11l16 167h433v-51q-98 -146 -151.5 -293.5t-80.5 -348.5h-124z" />
    <glyph glyph-name="eight" unicode="8" horiz-adv-x="521" 
d="M257 -10q-109 0 -172.5 45.5t-63.5 123.5q0 59 41.5 103t122.5 80v2q-69 39 -99 80.5t-30 96.5q0 78 62.5 130t151.5 52q82 0 143.5 -41.5t61.5 -110.5q0 -94 -148 -162v-1q88 -46 128 -90.5t40 -113.5q0 -78 -67.5 -136t-170.5 -58zM261 12q63 0 102 36t39 95
q0 32 -9.5 55t-42.5 47.5t-53.5 36.5t-84.5 45q-3 2 -4 2.5l-3 1.5l-4 2q-85 -69 -85 -165q0 -73 38.5 -114.5t106.5 -41.5zM310 397q74 63 74 155q0 63 -31 96.5t-89 33.5q-55 0 -87 -32.5t-32 -85.5t37 -86.5t128 -80.5z" />
    <glyph glyph-name="nine" unicode="9" horiz-adv-x="547" 
d="M265 704q112 0 181 -81t69 -233q0 -196 -95.5 -298t-237.5 -102q-69 0 -106.5 23t-37.5 62q0 22 14 36t39 14q28 0 41.5 -14t18.5 -46q6 -34 15 -43.5t37 -9.5q77 0 130 79t62 242q-69 -57 -164 -57q-96 0 -151 52.5t-55 150.5q0 95 65 160t175 65zM263 682
q-122 0 -122 -198q0 -169 136 -169q67 0 118 36q1 15 1 41q0 39 -1.5 68.5t-5.5 65.5t-13.5 61.5t-23.5 48.5t-36.5 34.5t-52.5 11.5z" />
    <glyph glyph-name="colon" unicode=":" horiz-adv-x="182" 
d="M29 57q0 25 18 43t44 18q25 0 43.5 -18t18.5 -43t-18.5 -43.5t-43.5 -18.5t-43.5 18.5t-18.5 43.5zM29 343q0 26 18 43.5t44 17.5q25 0 43.5 -17.5t18.5 -43.5q0 -25 -18.5 -43.5t-43.5 -18.5t-43.5 18.5t-18.5 43.5z" />
    <glyph glyph-name="semicolon" unicode=";" horiz-adv-x="186" 
d="M25 -106l-5 9q88 39 94 120q-13 -17 -38 -17q-22 0 -35 14.5t-13 37.5q0 25 18 41.5t44 16.5q33 0 53 -21t20 -57q0 -51 -40 -91.5t-98 -52.5zM29 343q0 26 18 43.5t44 17.5q25 0 43.5 -17.5t18.5 -43.5q0 -25 -18.5 -43.5t-43.5 -18.5t-43.5 18.5t-18.5 43.5z" />
    <glyph glyph-name="less" unicode="&#x3c;" horiz-adv-x="446" 
d="M393 137l-361 175v21l361 175v-30l-322 -155l322 -157v-29z" />
    <glyph glyph-name="equal" unicode="=" horiz-adv-x="482" 
d="M42 389v26h399v-26h-399zM42 242v27h399v-27h-399z" />
    <glyph glyph-name="greater" unicode="&#x3e;" horiz-adv-x="446" 
d="M414 312l-360 -175v29l321 157l-321 155v30l360 -175v-21z" />
    <glyph glyph-name="question" unicode="?" horiz-adv-x="403" 
d="M133 195v188q162 55 162 178q0 56 -32.5 88t-90.5 32q-20 0 -28 -10t-11 -33q-4 -35 -18.5 -49.5t-42.5 -14.5q-23 0 -35.5 13.5t-12.5 34.5q0 38 41.5 59.5t107.5 21.5q93 0 146.5 -48.5t53.5 -132.5q0 -163 -210 -229v-98h-30zM89 57q0 25 18 43t44 18t44 -18t18 -43
t-18.5 -43.5t-43.5 -18.5t-43.5 18.5t-18.5 43.5z" />
    <glyph glyph-name="at" unicode="@" horiz-adv-x="838" 
d="M603 63q54 0 103.5 70.5t49.5 210.5q0 79 -25.5 141t-89 103t-158.5 41q-170 0 -282.5 -115.5t-112.5 -286.5q0 -156 79 -242.5t242 -86.5q128 0 230 54v-12q-101 -67 -257 -67q-161 0 -258.5 88.5t-97.5 239.5q0 124 65 228t171.5 162.5t227.5 58.5q148 0 235.5 -85.5
t87.5 -206.5q0 -148 -73 -232.5t-173 -84.5q-105 0 -95 120h-2q-74 -120 -158 -120q-40 0 -65.5 31t-25.5 90q0 131 82 228.5t172 97.5q59 0 96 -39h4l41 37l8 -3q-14 -39 -26 -109l-34 -191q-22 -120 39 -120zM359 95q48 0 110 91l50 247q-12 34 -50 34q-55 0 -102.5 -96
t-47.5 -208q0 -68 40 -68z" />
    <glyph glyph-name="A" unicode="A" horiz-adv-x="620" 
d="M-10 0v11l17 5q26 7 37.5 25.5t36.5 88.5l205 563h54l199 -575q20 -58 33 -77.5t35 -24.5l21 -5v-11h-265v11l23 5q23 6 31.5 15.5t8.5 25.5q0 21 -13 58l-44 136h-214l-39 -114q-17 -50 -17 -76q0 -18 9.5 -28t32.5 -16l27 -6v-11h-178zM264 563l-100 -288h197l-94 288
h-3z" />
    <glyph glyph-name="B" unicode="B" horiz-adv-x="585" 
d="M12 0v11l37 7q27 5 33.5 14.5t6.5 47.5v533q0 38 -6.5 47.5t-33.5 14.5l-37 7v11h275q243 0 243 -163q0 -133 -165 -163v-2q201 -17 201 -170q0 -94 -68.5 -144.5t-188.5 -50.5h-297zM306 23q139 0 139 165q0 84 -35.5 121.5t-119.5 37.5h-87v-248q0 -49 18 -62.5
t85 -13.5zM203 371h74q139 0 139 151q0 80 -32.5 114t-106.5 34q-47 0 -74 -8v-291z" />
    <glyph glyph-name="C" unicode="C" horiz-adv-x="596" 
d="M333 -10q-142 0 -225 86t-83 265q0 96 28 168t77 113t108 61t129 20q99 0 179 -23l13 -187h-12q-41 86 -57 113q-26 45 -53 60t-80 15q-97 0 -154 -79t-57 -242q0 -180 48.5 -264t144.5 -84q69 0 101.5 16t57.5 64q6 11 54 120h12l-12 -185q-89 -37 -219 -37z" />
    <glyph glyph-name="D" unicode="D" horiz-adv-x="677" 
d="M12 0v11l37 7q27 5 33.5 14.5t6.5 47.5v533q0 38 -6.5 47.5t-33.5 14.5l-37 7v11h306q153 0 243.5 -80t90.5 -259q0 -171 -93 -262.5t-248 -91.5h-299zM304 22q124 0 175.5 81.5t51.5 230.5q0 178 -53 257t-176 79q-67 0 -98 -8v-564q0 -48 17.5 -62t82.5 -14z" />
    <glyph glyph-name="E" unicode="E" horiz-adv-x="564" 
d="M408 480v-240h-11q-11 48 -24 74q-10 22 -29 28t-82 6h-58v-245q0 -22 0.5 -32.5t5.5 -21.5t11 -15t22 -7t33.5 -3.5t50.5 -0.5q69 0 93 9.5t48 41.5q23 34 61 136h12l-14 -210h-515v11l37 7q27 6 33.5 15.5t6.5 46.5v533q0 38 -6 47t-34 15l-37 7v11h495l11 -175h-11
q-31 73 -49 102q-21 32 -47 41t-95 9q-68 0 -112 -9v-290h58q62 0 81 6t30 29q12 21 24 74h11z" />
    <glyph glyph-name="F" unicode="F" horiz-adv-x="529" 
d="M254 337h-50v-257q0 -38 6.5 -47.5t34.5 -14.5l48 -7v-11h-281v11l37 7q27 5 33.5 15t6.5 47v533q0 38 -6.5 47.5t-33.5 14.5l-37 7v11h488l10 -190h-13q-32 82 -47 109q-20 38 -44 48.5t-95 10.5q-68 0 -107 -9v-302h50q63 0 83 6t29 29q6 14 24 81h11v-256h-11
q-15 56 -23 75q-11 28 -29.5 35t-83.5 7z" />
    <glyph glyph-name="G" unicode="G" horiz-adv-x="643" 
d="M360 -10q-163 0 -249 88t-86 262q0 82 20.5 146t54 104t79.5 66t94 36.5t102 10.5q115 0 189 -24l10 -184h-11q-37 86 -62 121q-26 36 -55.5 50.5t-80.5 14.5q-221 0 -221 -317q0 -179 49.5 -265.5t162.5 -86.5q75 0 120 28v160q0 38 -6 47.5t-34 14.5l-38 7v11h252v-11
l-36 -7q-18 -3 -22.5 -12.5t-4.5 -41.5v-180q-102 -38 -227 -38z" />
    <glyph glyph-name="H" unicode="H" horiz-adv-x="707" 
d="M12 0v11l37 7q27 5 33.5 14.5t6.5 47.5v533q0 38 -6.5 47.5t-33.5 14.5l-37 7v11h268v-11l-35 -7q-29 -6 -35 -15t-6 -47v-247h300v247q0 38 -6.5 47t-34.5 15l-36 7v11h269v-11l-38 -7q-27 -5 -33 -14.5t-6 -47.5v-533q0 -38 6 -47.5t33 -14.5l38 -7v-11h-269v11l36 7
q28 6 34.5 15t6.5 47v262h-300v-262q0 -38 6 -47t35 -15l35 -7v-11h-268z" />
    <glyph glyph-name="I" unicode="I" horiz-adv-x="294" 
d="M12 0v11l38 7q27 5 33.5 14.5t6.5 47.5v533q0 38 -6.5 47.5t-33.5 14.5l-38 7v11h270v-11l-37 -7q-28 -5 -34.5 -14.5t-6.5 -47.5v-533q0 -38 6.5 -47.5t34.5 -14.5l37 -7v-11h-270z" />
    <glyph glyph-name="J" unicode="J" horiz-adv-x="397" 
d="M116 -10q-55 0 -85 20.5t-30 53.5q0 25 14.5 39t40.5 14q29 0 44 -17t19 -60q5 -27 23 -27q58 0 58 150v450q0 38 -6 48t-33 14l-38 7v11h269v-11l-37 -7q-27 -5 -33.5 -14.5t-6.5 -47.5v-397q0 -102 -49.5 -164t-149.5 -62z" />
    <glyph glyph-name="K" unicode="K" horiz-adv-x="623" 
d="M468 0q-143 163 -234 343v8l203 241q25 28 25 51q0 21 -37 30l-33 9v11h213v-11l-22 -6q-28 -8 -48.5 -22.5t-54.5 -53.5l-163 -191q51 -93 122.5 -196.5t124.5 -161.5q15 -16 25 -23.5t27 -11.5l18 -5v-11h-166zM12 0v11l37 7q27 5 33.5 14.5t6.5 47.5v533
q0 38 -6.5 47.5t-33.5 14.5l-37 7v11h268v-11l-35 -7q-28 -5 -34.5 -14.5t-6.5 -47.5v-533q0 -38 6 -47t35 -15l35 -7v-11h-268z" />
    <glyph glyph-name="L" unicode="L" horiz-adv-x="538" 
d="M12 0v11l37 7q27 5 33.5 15t6.5 47v533q0 38 -6.5 47.5t-33.5 14.5l-37 7v11h270v-11l-37 -7q-28 -5 -34.5 -14.5t-6.5 -47.5v-523q0 -44 16.5 -56t88.5 -12q71 0 96.5 10.5t46.5 47.5q28 51 59 138h13l-14 -218h-498z" />
    <glyph glyph-name="M" unicode="M" horiz-adv-x="808" 
d="M12 0v11l38 9q25 6 32 20t7 58v515q0 36 -7 46.5t-33 15.5l-35 7v11h197l195 -505h3l191 505h197v-11l-37 -7q-28 -6 -34.5 -15t-6.5 -47v-533q0 -37 6.5 -46.5t34.5 -15.5l37 -7v-11h-270v11l38 7q27 5 33 14.5t6 47.5v534h-3l-224 -594h-27l-226 594h-4v-515
q0 -45 6.5 -58.5t34.5 -20.5l38 -9v-11h-187z" />
    <glyph glyph-name="N" unicode="N" horiz-adv-x="653" 
d="M528 -4l-408 624h-3v-521q0 -45 7 -58.5t35 -20.5l39 -9v-11h-186v11l38 9q25 7 32 20.5t7 57.5v515q0 34 -7.5 45.5t-32.5 16.5l-35 7v11h192l330 -506h3v407q0 45 -7 58.5t-34 20.5l-43 9v11h187v-11l-36 -9q-25 -7 -32 -21t-7 -56v-600h-39z" />
    <glyph glyph-name="O" unicode="O" horiz-adv-x="681" 
d="M338 -10q-140 0 -226.5 89t-86.5 258q0 95 27 168t72.5 115t101 62.5t117.5 20.5q140 0 226.5 -90.5t86.5 -261.5q0 -76 -18 -138t-48 -103t-71 -68.5t-86 -39.5t-95 -12zM340 12q101 0 148 78t47 244q0 347 -194 347q-100 0 -147.5 -80t-47.5 -247q0 -342 194 -342z" />
    <glyph glyph-name="P" unicode="P" horiz-adv-x="562" 
d="M12 0v11l37 7q28 5 34 14.5t6 47.5v533q0 38 -6.5 47.5t-33.5 14.5l-37 7v11h285q248 0 248 -193q0 -96 -63 -153.5t-186 -57.5q-41 0 -63 6v13q104 -3 148.5 39t44.5 144q0 98 -32 139t-108 41q-45 0 -82 -8v-583q0 -37 7 -47t36 -15l46 -7v-11h-281z" />
    <glyph glyph-name="Q" unicode="Q" horiz-adv-x="681" 
d="M578 -163q-87 0 -173 52q-15 9 -28 17.5t-29 21.5t-23 18.5t-29 24.5t-27 24q-111 20 -177.5 108.5t-66.5 233.5q0 95 26.5 168t72.5 115t101.5 62.5t118.5 20.5q139 0 225.5 -90.5t86.5 -261.5q0 -289 -237 -346v-3q52 -42 87 -63q75 -45 148 -45q42 0 73 14v-10
q-57 -61 -149 -61zM340 11q103 0 149 79t46 244q0 347 -194 347q-101 0 -148 -81t-47 -246q0 -343 194 -343z" />
    <glyph glyph-name="R" unicode="R" horiz-adv-x="613" 
d="M12 0v11l37 7q27 6 33.5 15t6.5 47v533q0 38 -6.5 47t-33.5 15l-37 7v11h294q228 0 228 -166q0 -130 -147 -177v-2q112 -210 175 -291q18 -23 28 -31t25 -11l18 -4v-11h-168q-90 128 -187 326q-22 0 -74 2v-248q0 -38 6 -47t34 -15l36 -7v-11h-268zM267 349
q75 0 112.5 38.5t37.5 123.5q0 86 -32 122.5t-96 36.5q-47 0 -85 -8v-308q32 -5 63 -5z" />
    <glyph glyph-name="S" unicode="S" horiz-adv-x="475" 
d="M219 -10q-120 0 -190 34l-13 176h13q37 -81 61 -117q24 -37 55.5 -54t81.5 -17q61 0 95.5 35t34.5 94q0 55 -32 88.5t-122 77.5q-85 39 -128.5 85t-43.5 119q0 83 58.5 137.5t157.5 54.5t155 -27l11 -162h-12q-33 73 -56 106q-23 35 -44.5 48t-63.5 13q-58 0 -90.5 -29.5
t-32.5 -84.5q0 -54 29 -85.5t105 -67.5q114 -55 157.5 -99.5t43.5 -120.5q0 -82 -60.5 -143t-169.5 -61z" />
    <glyph glyph-name="T" unicode="T" horiz-adv-x="571" 
d="M377 671h-34v-591q0 -37 6.5 -46.5t36.5 -15.5l37 -7v-11h-274v11l38 7q29 5 35.5 14.5t6.5 47.5v591h-33q-61 0 -83 -13t-39 -50q-21 -43 -52 -121h-12l11 206h530l10 -206h-12q-25 68 -50 121q-18 38 -39.5 50.5t-82.5 12.5z" />
    <glyph glyph-name="U" unicode="U" horiz-adv-x="665" 
d="M342 -10q-128 0 -193.5 53.5t-65.5 175.5v394q0 38 -6.5 47.5t-33.5 14.5l-38 7v11h269v-11l-36 -7q-28 -6 -34.5 -15t-6.5 -47v-400q0 -94 44 -137t137 -43q89 0 129.5 46t40.5 140v375q0 45 -6.5 59t-34.5 20l-46 9v11h199v-11l-39 -9q-24 -5 -31 -20t-7 -57v-387
q0 -100 -58 -159.5t-183 -59.5z" />
    <glyph glyph-name="V" unicode="V" horiz-adv-x="614" 
d="M284 0l-211 584q-19 53 -31 70t-34 22l-23 6v11h261v-11l-28 -6q-37 -8 -37 -35q0 -11 18 -67l154 -439h3l151 439q15 43 15 65q0 28 -38 36l-32 7v11h176v-11l-19 -6q-27 -9 -37.5 -25.5t-32.5 -76.5l-203 -574h-52z" />
    <glyph glyph-name="W" unicode="W" horiz-adv-x="932" 
d="M697 146l126 427q11 41 11 62q0 17 -9 25.5t-31 14.5l-30 7v11h180v-11l-17 -6q-30 -10 -44 -30.5t-32 -82.5l-172 -563h-51l-153 458h-2l-153 -458h-51l-200 587q-17 52 -28 67.5t-35 21.5l-24 6v11h259v-11l-26 -6q-37 -8 -37 -34q0 -17 17 -68l143 -430h3l119 359
l-29 88q-15 47 -26 62.5t-35 22.5l-23 6v11h258v-11l-30 -6q-36 -8 -36 -36q0 -16 15 -66l140 -428h3z" />
    <glyph glyph-name="X" unicode="X" horiz-adv-x="618" 
d="M238 591l108 -192h2l103 190q22 40 22 59q0 21 -31 28l-26 6v11h174v-11l-14 -4q-29 -8 -44.5 -23.5t-42.5 -60.5l-126 -219l158 -281q27 -46 40 -58.5t38 -19.5l18 -5v-11h-266v11l30 5q29 3 29 24q0 18 -23 60l-117 207h-2l-120 -203q-24 -41 -24 -59q0 -22 29 -28
l29 -6v-11h-181v11l16 4q28 7 44.5 22t46.5 61l147 235l-153 271q-24 41 -35 53.5t-32 19.5l-18 5v11h265v-11l-39 -8q-27 -6 -27 -25q0 -18 22 -58z" />
    <glyph glyph-name="Y" unicode="Y" horiz-adv-x="585" 
d="M166 0v11l40 7q28 5 35 15t7 47v206l-179 318q-24 43 -34 54.5t-29 17.5l-21 6v11h272v-11l-34 -7q-24 -5 -31.5 -12t-7.5 -21q0 -18 16 -47l147 -272h3l124 262q15 33 15 54q0 27 -38 36l-32 7v11h180v-11l-19 -7q-25 -8 -38 -24.5t-42 -75.5l-137 -287v-208
q0 -38 6.5 -47.5t35.5 -14.5l38 -7v-11h-277z" />
    <glyph glyph-name="Z" unicode="Z" horiz-adv-x="560" 
d="M20 0v24l382 643v4h-83q-108 0 -141.5 -11t-51.5 -44q-26 -48 -58 -123h-11l14 200h460v-23l-384 -645v-4h80q96 0 135.5 4.5t56.5 15t38 41.5q22 34 62 126h11l-18 -208h-492z" />
    <glyph glyph-name="bracketleft" unicode="[" horiz-adv-x="280" 
d="M146 647v-690q0 -40 7.5 -52t35.5 -15l81 -9v-11h-196v864h196v-11l-81 -9q-28 -3 -35.5 -15t-7.5 -52z" />
    <glyph glyph-name="backslash" unicode="\" horiz-adv-x="357" 
d="M324 -130l-317 864h30l316 -864h-29z" />
    <glyph glyph-name="bracketright" unicode="]" horiz-adv-x="280" 
d="M134 -43v690q0 40 -7.5 52t-36.5 15l-80 9v11h196v-864h-196v11l80 9q29 3 36.5 15t7.5 52z" />
    <glyph glyph-name="asciicircum" unicode="^" horiz-adv-x="347" 
d="M27 475l-9 8l140 221h30l140 -221l-10 -8l-148 120z" />
    <glyph glyph-name="underscore" unicode="_" horiz-adv-x="349" 
d="M-8 -167v26h365v-26h-365z" />
    <glyph glyph-name="grave" unicode="`" 
d="M322 581l-4 -7l-156 40q-38 10 -38 45q0 20 13 33.5t32 13.5t39 -18z" />
    <glyph glyph-name="a" unicode="a" horiz-adv-x="478" 
d="M165 -13q-68 0 -107 32.5t-39 90.5q0 33 12 57t37 39t47 23.5t57 17.5l132 33v109q0 64 -15.5 90.5t-71.5 26.5q-32 0 -44 -10t-17 -36q-4 -38 -17 -53.5t-40 -15.5q-51 0 -51 47q0 44 55.5 66.5t131.5 22.5q173 0 173 -132v-310q0 -40 20 -52q16 -11 52 -13v-8
q-36 -24 -86 -24q-76 0 -85 63h-3q-53 -64 -141 -64zM210 33q65 0 94 41v177l-58 -10q-64 -11 -92.5 -35.5t-28.5 -77.5q0 -45 22 -70t63 -25z" />
    <glyph glyph-name="b" unicode="b" horiz-adv-x="549" 
d="M243 -10q-114 0 -188 44v622q0 31 -6 40.5t-32 20.5l-31 14v8l172 16l6 -2q-4 -59 -4 -123v-80l-1 -88h2q79 65 166 65q86 0 142 -58.5t56 -186.5q0 -140 -75.5 -216t-206.5 -76zM258 10q158 0 158 257q0 204 -146 204q-48 0 -110 -27v-397q37 -37 98 -37z" />
    <glyph glyph-name="c" unicode="c" horiz-adv-x="451" 
d="M251 -12q-106 0 -167.5 66.5t-61.5 185.5q0 71 25 128t64.5 90.5t85 51t90.5 17.5q71 0 109 -24t38 -65q0 -51 -55 -51q-26 0 -38 14t-17 47q-7 34 -15.5 44.5t-38.5 10.5q-59 0 -99.5 -58.5t-40.5 -167.5q0 -235 172 -235q70 0 129 34v-12q-24 -30 -73 -53t-107 -23z
" />
    <glyph glyph-name="d" unicode="d" horiz-adv-x="564" 
d="M229 -10q-90 0 -147.5 57.5t-57.5 186.5q0 140 81.5 216.5t194.5 76.5q46 0 88 -14v143q0 28 -5.5 37.5t-24.5 18.5l-40 19v8l173 16l6 -2q-4 -47 -4 -123v-544q0 -29 6.5 -38.5t32.5 -18.5l27 -9v-9l-163 -21l-8 4l2 56h-3q-75 -60 -158 -60zM283 41q62 0 105 30v390
q-30 44 -95 44q-76 0 -118.5 -60.5t-42.5 -184.5q0 -110 39 -164.5t112 -54.5z" />
    <glyph glyph-name="e" unicode="e" horiz-adv-x="487" 
d="M270 -12q-126 0 -187.5 69.5t-61.5 194.5q0 121 71 198t172 77q204 0 203 -237h-338v-8q0 -238 178 -238q85 0 147 36v-13q-30 -34 -78 -56.5t-106 -22.5zM260 506q-57 0 -92 -48.5t-39 -148.5l231 9q0 99 -23 143.5t-77 44.5z" />
    <glyph glyph-name="f" unicode="f" horiz-adv-x="299" 
d="M10 0v10l28 7q25 6 31 14t6 37v407h-66v8l66 28v48q0 91 58 145t149 54q47 0 74 -17.5t27 -45.5q0 -20 -13 -33t-35 -13q-24 0 -36 12.5t-18 44.5q-2 13 -4 18.5t-6.5 9.5t-13.5 4q-33 0 -55.5 -33t-22.5 -101v-94h105l-5 -35h-100v-407q0 -27 5.5 -35.5t26.5 -12.5
l45 -10v-10h-246z" />
    <glyph glyph-name="g" unicode="g" horiz-adv-x="483" 
d="M204 -195q-98 0 -151.5 28.5t-53.5 82.5q0 79 112 110v2q-71 14 -71 78q0 33 21 61.5t53 45.5v3q-39 19 -62 54t-23 80q0 84 58 130.5t136 46.5q69 0 115 -29q53 50 98 50q53 0 53 -48q0 -40 -40 -40q-27 0 -36 26q-16 38 -61 4v-2q67 -41 67 -128q0 -82 -58 -126
t-138 -44q-55 0 -92 17q-32 -23 -32 -54q0 -37 60 -37h166q148 0 148 -122q0 -73 -69 -131t-200 -58zM221 -173q79 0 129 31t50 89q0 40 -23.5 58t-76.5 18h-164q-51 -24 -51 -92q0 -104 136 -104zM223 208q47 0 70 33t23 107q0 83 -23 120.5t-70 37.5t-69.5 -34t-22.5 -109
q0 -82 22.5 -118.5t69.5 -36.5z" />
    <glyph glyph-name="h" unicode="h" horiz-adv-x="564" 
d="M364 527q69 0 100 -32.5t31 -101.5v-325q0 -29 5.5 -36.5t31.5 -14.5l29 -7v-10h-235v10l28 6q25 7 31 14.5t6 37.5v309q0 51 -18 72t-61 21q-58 0 -134 -28v-374q0 -30 6 -37.5t31 -14.5l28 -6v-10h-234v10l28 7q25 7 30.5 14.5t5.5 36.5v588q0 31 -6 40.5t-32 20.5
l-31 14v8l172 16l6 -2q-4 -56 -4 -123v-169h2q98 66 184 66z" />
    <glyph glyph-name="i" unicode="i" horiz-adv-x="253" 
d="M10 0v10l28 7q26 6 31.5 14t5.5 37v354q0 27 -6 35.5t-33 21.5l-26 15v8l168 22l5 -2q-4 -68 -4 -116v-338q0 -29 6.5 -37t33.5 -14l26 -7v-10h-235zM62 656q0 25 17.5 42t43.5 17t43.5 -17t17.5 -42q0 -26 -17.5 -42.5t-43.5 -16.5t-43.5 16.5t-17.5 42.5z" />
    <glyph glyph-name="j" unicode="j" horiz-adv-x="234" 
d="M173 407v-398q0 -98 -46.5 -152.5t-122.5 -54.5q-48 0 -72.5 17.5t-24.5 48.5q0 21 13.5 34t36.5 13t35.5 -13.5t16.5 -47.5q2 -19 6.5 -25.5t13.5 -6.5q17 0 28.5 21t11.5 60v519q0 28 -6 36.5t-33 21.5l-26 14v8l168 22l5 -2q-4 -60 -4 -115zM54 656q0 25 17.5 42
t43.5 17t43.5 -17t17.5 -42q0 -26 -17.5 -42.5t-43.5 -16.5t-43.5 16.5t-17.5 42.5z" />
    <glyph glyph-name="k" unicode="k" horiz-adv-x="518" 
d="M381 0q-89 96 -187 253v4l114 127q52 58 52 82q0 18 -34 29l-15 5v10h183v-11l-19 -6q-31 -10 -49.5 -22.5t-43.5 -39.5l-109 -119q101 -164 199 -270q17 -20 40 -28l12 -4v-10h-143zM178 630v-559q0 -32 6 -40.5t31 -14.5l27 -6v-10h-233v10l28 7q25 6 30.5 14t5.5 40
v588q0 29 -6 38t-32 20l-31 14v8l172 16l6 -2q-4 -56 -4 -123z" />
    <glyph glyph-name="l" unicode="l" horiz-adv-x="251" 
d="M178 630v-559q0 -29 7.5 -38.5t32.5 -15.5l26 -7v-10h-235v10l28 7q25 6 31 15t6 39v585q0 30 -6 40t-33 21l-31 14v8l172 16l6 -2q-4 -56 -4 -123z" />
    <glyph glyph-name="m" unicode="m" horiz-adv-x="851" 
d="M10 0v10l28 7q26 7 31.5 15t5.5 37v352q0 28 -6 36.5t-32 22.5l-25 14v8l161 22l6 -2l-1 -63h1q98 68 184 68q48 0 73 -17.5t37 -52.5h3q111 70 186 70q121 0 121 -135v-323q0 -30 5 -37.5t32 -14.5l28 -7v-10h-232v10l27 6q24 7 29.5 14.5t5.5 38.5v307q0 50 -15 71.5
t-55 21.5q-62 0 -130 -29q3 -15 3 -50v-321q0 -29 5.5 -37.5t28.5 -15.5l27 -6v-10h-228v10l27 6q24 7 30 15t6 38v307q0 51 -15 72t-55 21q-61 0 -128 -27v-373q0 -30 5.5 -38t30.5 -15l28 -6v-10h-233z" />
    <glyph glyph-name="n" unicode="n" horiz-adv-x="565" 
d="M10 0v10l28 7q26 6 31.5 14t5.5 37v355q0 27 -6 35t-32 22l-25 14v8l161 22l6 -2l-1 -63h1q104 68 186 68q70 0 101 -32.5t31 -101.5v-325q0 -29 5.5 -37t31.5 -14l28 -7v-10h-234v10l28 6q25 6 30.5 14t5.5 38v307q0 52 -17 73t-61 21q-57 0 -135 -27v-374q0 -30 6 -38
t31 -14l29 -6v-10h-235z" />
    <glyph glyph-name="o" unicode="o" horiz-adv-x="546" 
d="M273 -10q-110 0 -180.5 69t-70.5 197q0 126 74 198.5t177 72.5q110 0 180.5 -68.5t70.5 -197.5q0 -126 -74.5 -198.5t-176.5 -72.5zM277 10q69 0 102 57.5t33 180.5q0 136 -35 197t-106 61q-68 0 -102.5 -57.5t-34.5 -181.5q0 -136 35 -196.5t108 -60.5z" />
    <glyph glyph-name="p" unicode="p" horiz-adv-x="566" 
d="M7 -197v10l28 7q25 7 31 15t6 37v549q0 28 -6 37t-32 22l-25 14v8l161 22l7 -2l-3 -58h4q83 63 165 63q93 0 146 -62t53 -183q0 -140 -76.5 -216t-205.5 -76q-43 0 -85 12q1 -31 1 -65v-65q0 -29 6.5 -37.5t34.5 -14.5l38 -7v-10h-248zM275 10q158 0 158 256
q0 103 -38 154t-105 51q-55 0 -114 -27v-398q38 -36 99 -36z" />
    <glyph glyph-name="q" unicode="q" horiz-adv-x="551" 
d="M310 -197v10l38 7q27 6 33.5 14.5t6.5 37.5v106l1 70h-2q-77 -58 -161 -58q-88 0 -145 59t-57 188q0 139 81.5 214.5t194.5 75.5q83 0 149 -39h3l33 39l7 -3v-652q0 -29 5.5 -37t31.5 -15l28 -7v-10h-247zM280 40q65 0 108 30v393q-32 42 -95 42q-76 0 -118.5 -61
t-42.5 -184q0 -220 148 -220z" />
    <glyph glyph-name="r" unicode="r" horiz-adv-x="391" 
d="M10 0v10l28 7q25 6 31 14.5t6 37.5v353q0 27 -6 35.5t-32 22.5l-25 14v8l161 22l6 -4l-1 -72h2q86 79 142 79q31 0 47.5 -16t16.5 -45q0 -26 -14.5 -41t-38.5 -15q-33 0 -52 37q-6 14 -10 18t-13 4q-24 0 -79 -41v-359q0 -27 6 -37t28 -14l43 -8v-10h-246z" />
    <glyph glyph-name="s" unicode="s" horiz-adv-x="392" 
d="M179 -10q-84 0 -155 23l-3 146h11q31 -64 42 -82q20 -36 45.5 -51.5t68.5 -15.5q45 0 71 25.5t26 67.5q0 39 -25.5 63t-92.5 50q-72 29 -106.5 65t-34.5 95q0 67 50 109t132 42q71 0 131 -23l3 -126h-11q-28 55 -44 79q-17 26 -37 37.5t-53 11.5q-45 0 -71 -24t-26 -61
t27 -60t93 -49q77 -31 113.5 -66t36.5 -94q0 -70 -51 -116t-140 -46z" />
    <glyph glyph-name="t" unicode="t" horiz-adv-x="312" 
d="M178 -10q-116 0 -116 109v376h-58v9q102 39 146 146h16v-120h134l-4 -35h-130v-372q0 -36 16 -51t51 -15q30 0 74 14v-11q-55 -50 -129 -50z" />
    <glyph glyph-name="u" unicode="u" horiz-adv-x="561" 
d="M384 76v342q0 30 -5 38.5t-31 22.5l-26 15v8l161 22l5 -3v-427q0 -33 6.5 -43.5t31.5 -19.5l27 -10v-9l-162 -22l-6 2v65h-3q-99 -67 -185 -67q-61 0 -95.5 33.5t-34.5 96.5v299q0 29 -5.5 37.5t-30.5 22.5l-26 15v8l160 22l6 -3v-381q0 -93 86 -93q59 0 127 29z" />
    <glyph glyph-name="v" unicode="v" horiz-adv-x="488" 
d="M225 0l-166 425q-13 36 -23.5 49.5t-28.5 18.5l-20 7v10h234v-10l-25 -6q-30 -9 -30 -33q0 -14 12 -52l107 -291h3l103 284q15 40 15 60t-33 31l-25 7v10h154v-10l-15 -5q-24 -8 -34.5 -22t-27.5 -58l-155 -415h-45z" />
    <glyph glyph-name="w" unicode="w" horiz-adv-x="743" 
d="M681 415l-144 -415h-42l-117 336h-3l-120 -336h-41l-155 425q-14 37 -24 50t-27 18l-21 7v10h225v-10l-22 -5q-28 -7 -28 -31q0 -14 13 -55l96 -289h3l91 256l-18 49q-13 37 -23 50.5t-28 18.5l-19 6v10h220v-10l-24 -6q-30 -8 -30 -34q0 -15 11 -52l96 -286h4l94 283
q13 40 13 57q0 22 -32 31l-25 7v10h152v-10l-14 -5q-25 -8 -35.5 -22t-25.5 -58z" />
    <glyph glyph-name="x" unicode="x" horiz-adv-x="516" 
d="M429 89q27 -41 40.5 -54.5t36.5 -20.5l12 -4v-10h-236v10l24 5q27 5 27 23q0 16 -25 53l-87 132h-3l-73 -117q-27 -45 -27 -63q0 -20 32 -29l17 -4v-10h-170v10l26 8q25 8 39.5 21t38.5 49l103 156l-113 177q-27 42 -40.5 55.5t-31.5 18.5l-15 5v10h232v-10l-22 -6
q-26 -6 -26 -24q0 -16 22 -48l78 -127h3l72 125q15 30 15 45q0 20 -26 28l-25 7v10h163v-10l-24 -8q-20 -6 -36 -22t-38 -54l-87 -141z" />
    <glyph glyph-name="y" unicode="y" horiz-adv-x="481" 
d="M284 127l101 276q13 38 13 59q0 22 -32 31l-24 7v10h153v-10l-16 -6q-20 -7 -31.5 -22t-28.5 -58l-177 -468q-31 -79 -67.5 -114.5t-91.5 -35.5q-34 0 -54.5 16t-20.5 42q0 23 13.5 36t36.5 13q40 0 48 -43q6 -23 12 -26q3 -1 7 -1q19 0 43 25.5t42 74.5l20 57l-172 435
q-14 37 -24.5 50t-27.5 18l-19 7v10h232v-10l-26 -7q-29 -8 -29 -32q0 -17 13 -52l103 -282h4z" />
    <glyph glyph-name="z" unicode="z" horiz-adv-x="462" 
d="M18 0v21l303 463v4h-110q-55 0 -72 -7.5t-38 -40.5q-10 -14 -45 -84h-10l7 154h387v-18l-304 -466v-4h101q74 0 98 10t42 43q20 32 45 91h10l-11 -166h-403z" />
    <glyph glyph-name="braceleft" unicode="{" horiz-adv-x="298" 
d="M19 294v16q72 7 100.5 25t28.5 48q0 21 -28.5 119t-28.5 130q0 57 44 78t153 24v-11q-76 -9 -97 -24t-21 -53t17.5 -126.5t17.5 -115.5q0 -39 -30.5 -63.5t-101.5 -37.5v-2q72 -14 102 -38.5t30 -64.5q0 -25 -17.5 -113t-17.5 -127q0 -38 21 -53.5t97 -24.5v-11
q-109 3 -153 24t-44 78q0 32 28.5 130.5t28.5 118.5q0 31 -28.5 49t-100.5 25z" />
    <glyph glyph-name="bar" unicode="|" horiz-adv-x="177" 
d="M75 -130v864h27v-864h-27z" />
    <glyph glyph-name="braceright" unicode="}" horiz-adv-x="299" 
d="M279 310v-16q-72 -7 -100.5 -25t-28.5 -49q0 -20 28.5 -118.5t28.5 -130.5q0 -57 -43.5 -78t-153.5 -24v11q76 9 97 24.5t21 53.5q0 39 -17.5 127t-17.5 113q0 40 30 64.5t102 38.5v2q-71 13 -101.5 37.5t-30.5 63.5q0 27 17.5 115.5t17.5 126.5t-21 53t-97 24v11
q109 -3 153 -24t44 -78q0 -32 -28.5 -130t-28.5 -119q0 -30 28.5 -48t100.5 -25z" />
    <glyph glyph-name="asciitilde" unicode="~" horiz-adv-x="345" 
d="M32 218l-13 3q19 44 28.5 63t28.5 36t44 17q21 0 69 -10.5t67 -10.5q20 0 32 11t26 36l12 -5q-26 -61 -45.5 -87.5t-52.5 -26.5q-27 0 -74.5 10t-64.5 10q-19 0 -31 -11t-26 -35z" />
    <glyph glyph-name="uni00A0" unicode="&#xa0;" horiz-adv-x="193" 
 />
    <glyph glyph-name="exclamdown" unicode="&#xa1;" horiz-adv-x="239" 
d="M55 3l58 418h14l57 -418q8 -43 -10 -67t-54 -24q-38 0 -55.5 24t-9.5 67zM58 558q0 25 18 43.5t43 18.5t43.5 -18t18.5 -44t-18 -44t-44 -18q-25 0 -43 18t-18 44z" />
    <glyph glyph-name="cent" unicode="&#xa2;" horiz-adv-x="464" 
d="M246 -103v91q-110 3 -168.5 66.5t-58.5 179.5q0 125 66.5 198t160.5 89v75h25v-72q3 0 11 0.5t11 0.5q72 0 109.5 -23t37.5 -63q0 -51 -53 -51q-25 0 -37.5 13.5t-17.5 45.5q-6 33 -16.5 43.5t-40.5 10.5h-4v-458q20 -2 34 -2q73 0 132 35v-12q-21 -27 -66.5 -49
t-99.5 -26v-92h-25zM131 276q0 -196 115 -228v450q-54 -12 -84.5 -68t-30.5 -154z" />
    <glyph glyph-name="sterling" unicode="&#xa3;" horiz-adv-x="504" 
d="M40 349v23h58q-23 92 -23 131q0 97 71.5 148.5t178.5 51.5q69 0 109 -22t40 -64q0 -22 -13.5 -34.5t-36.5 -12.5q-28 0 -41.5 14t-19.5 50q-6 30 -15.5 39t-36.5 9q-47 0 -79.5 -37.5t-32.5 -116.5q0 -46 8 -156h166v-23h-164q4 -64 4 -86q0 -62 -27 -99t-93 -69v-3h278
q31 0 43.5 12t40.5 67h11l-23 -171h-427v66q60 31 86 63.5t26 87.5q0 36 -24 132h-64z" />
    <glyph glyph-name="yen" unicode="&#xa5;" horiz-adv-x="568" 
d="M68 305v23h158l-155 276q-23 42 -33.5 54t-30.5 18l-20 6v11h268v-11l-33 -7q-24 -5 -31.5 -12t-7.5 -21q0 -15 16 -47l131 -243h3l107 233q15 33 15 54q0 15 -8 23t-30 13l-32 7v11h180v-11l-17 -6q-26 -9 -39.5 -26t-43.5 -80l-116 -242h159v-23h-162v-77h162v-23h-162
v-125q0 -38 6.5 -47.5t35.5 -14.5l38 -7v-11h-277v11l40 7q28 5 35 15t7 47v125h-163v23h163v77h-163z" />
    <glyph glyph-name="brokenbar" unicode="&#xa6;" horiz-adv-x="177" 
d="M75 -130v384h27v-384h-27zM75 328v406h27v-406h-27z" />
    <glyph glyph-name="section" unicode="&#xa7;" horiz-adv-x="515" 
d="M395 39q20 -35 20 -77q0 -70 -55 -118t-138 -48q-68 0 -105.5 21.5t-37.5 57.5q0 21 13 34t36 13q26 0 38 -13.5t17 -44.5q7 -28 18 -37.5t38 -9.5q43 0 70 25t27 69q0 47 -28 79t-120 105q-7 6 -11 9q-97 78 -128.5 117t-31.5 90q0 84 104 146q-21 37 -21 79
q0 70 54.5 118t138.5 48q67 0 104.5 -21.5t37.5 -57.5q0 -20 -13 -33.5t-36 -13.5q-26 0 -38 14t-18 44q-6 28 -17 37.5t-37 9.5q-45 0 -71.5 -25.5t-26.5 -69.5q0 -48 29 -80t130 -112q98 -76 129.5 -116.5t31.5 -92.5q0 -84 -103 -146zM384 54q40 36 40 80q0 36 -30 69
t-118 103q-7 6 -29.5 24t-29.5 24.5t-24 21t-25 23t-18.5 21t-18.5 23.5q-40 -36 -40 -80q0 -36 29 -67t117 -103q4 -4 20.5 -17t21 -16.5t18 -15t18.5 -16t15.5 -14t16 -15.5t13.5 -14t13.5 -15.5t10.5 -15.5z" />
    <glyph glyph-name="dieresis" unicode="&#xa8;" 
d="M88 642q0 25 17 41.5t41 16.5q25 0 42 -16.5t17 -41.5t-17 -41t-42 -16q-24 0 -41 16.5t-17 40.5zM253 642q0 25 17 41.5t41 16.5q25 0 42 -16.5t17 -41.5t-17 -41t-42 -16q-24 0 -41 16.5t-17 40.5z" />
    <glyph glyph-name="copyright" unicode="&#xa9;" horiz-adv-x="766" 
d="M384 137q-83 0 -136 52t-53 153q0 109 59.5 161.5t146.5 52.5q66 0 110 -14l6 -119h-14q-20 52 -34 76q-19 36 -75 36q-57 0 -83 -42.5t-26 -137.5q0 -107 24.5 -152.5t78.5 -45.5q62 0 85 37q17 30 33 80h13l-7 -112q-52 -25 -128 -25zM28 343q0 149 103.5 253
t251.5 104q149 0 252 -104t103 -253q0 -148 -103 -252t-252 -104q-148 0 -251.5 104t-103.5 252zM56 343q0 -136 95.5 -233.5t231.5 -97.5q137 0 232.5 97.5t95.5 233.5q0 137 -95.5 234t-232.5 97q-136 0 -231.5 -97t-95.5 -234z" />
    <glyph glyph-name="ordfeminine" unicode="&#xaa;" horiz-adv-x="389" 
d="M124 271q-51 0 -79 26t-28 72q0 49 30 74t88 38l106 24v83q0 48 -13 70t-54 22q-24 0 -34 -9t-12 -29q-2 -30 -13.5 -43.5t-35.5 -13.5q-20 0 -31 11t-11 28q0 33 39.5 54t110.5 21q143 0 143 -106v-242q0 -33 17 -41q14 -7 40 -7v-9q-29 -22 -78 -22q-61 0 -65 49h-4
q-16 -21 -47 -35.5t-69 -14.5zM165 310q51 0 76 36v133l-48 -5q-44 -5 -65.5 -26t-21.5 -62q0 -76 59 -76z" />
    <glyph glyph-name="guillemotleft" unicode="&#xab;" horiz-adv-x="384" 
d="M201 56l-169 189v15l169 189h16l-101 -196l101 -197h-16zM348 56l-168 189v15l168 189h16l-101 -196l101 -197h-16z" />
    <glyph glyph-name="registered" unicode="&#xae;" horiz-adv-x="372" 
d="M7 520q0 75 51.5 127.5t126.5 52.5t128 -53t53 -127q0 -75 -53 -127.5t-128 -52.5t-126.5 52.5t-51.5 127.5zM28 520q0 -66 45.5 -113t111.5 -47q67 0 113 46.5t46 113.5q0 66 -46.5 113.5t-112.5 47.5t-111.5 -47.5t-45.5 -113.5zM96 428v9l14 2q8 3 8 18v132
q0 16 -8 18l-13 3v8h88q76 0 76 -50q0 -37 -40 -48v-2q17 -35 43 -69q11 -11 13 -11l10 -1v-9h-57q-21 27 -45 81h-24v-52q0 -15 9 -18l13 -2v-9h-87zM161 522h18q40 0 40 43q0 40 -37 40l-21 -1v-82z" />
    <glyph glyph-name="macron" unicode="&#xaf;" 
d="M117 605v45h226v-45h-226z" />
    <glyph glyph-name="degree" unicode="&#xb0;" horiz-adv-x="269" 
d="M15 583q0 50 34.5 84.5t84.5 34.5t84.5 -34.5t34.5 -84.5t-34.5 -84t-84.5 -34t-84.5 34t-34.5 84zM41 583q0 -40 26.5 -67t66.5 -27t67 27t27 67q0 41 -27 68.5t-67 27.5t-66.5 -27.5t-26.5 -68.5z" />
    <glyph glyph-name="twosuperior" unicode="&#xb2;" horiz-adv-x="271" 
d="M4 338v39q67 54 97 86q69 73 69 144q0 74 -50 74q-19 0 -26 -7.5t-9 -23.5q-4 -46 -41 -46q-16 0 -25 9t-9 24q0 26 32 44.5t82 18.5q61 0 95 -27.5t34 -73.5q0 -52 -46.5 -96t-150.5 -103v-3h143q17 0 25 9t20 38h10l-9 -106h-241z" />
    <glyph glyph-name="threesuperior" unicode="&#xb3;" horiz-adv-x="270" 
d="M108 332q-48 0 -76.5 16.5t-28.5 42.5q0 14 9.5 22.5t23.5 8.5q30 0 37 -38q4 -20 11 -26.5t27 -6.5q27 0 44 22t17 59q0 40 -16.5 59.5t-58.5 19.5h-18v21h21q65 0 65 80q0 69 -48 69q-17 0 -23.5 -6t-9.5 -21q-4 -24 -12.5 -34t-25.5 -10q-15 0 -23.5 8.5t-8.5 21.5
q0 26 28.5 43t77.5 17q55 0 88 -23.5t33 -63.5q0 -34 -24.5 -57t-67.5 -29v-3q104 -9 104 -88q0 -43 -37 -73.5t-108 -30.5z" />
    <glyph glyph-name="acute" unicode="&#xb4;" 
d="M133 574l-4 7l113 107q21 18 40 18t32 -13.5t13 -33.5q0 -35 -38 -45z" />
    <glyph glyph-name="paragraph" unicode="&#xb6;" horiz-adv-x="482" 
d="M248 -100v445q-18 -2 -30 -2q-102 0 -153.5 47.5t-51.5 131.5q0 79 52.5 125t147.5 46h255v-12l-34 -7q-29 -5 -35.5 -14.5t-6.5 -49.5v-710h-32v765h-80v-765h-32z" />
    <glyph glyph-name="periodcentered" unicode="&#xb7;" horiz-adv-x="182" 
d="M27 337q0 28 18.5 46t45.5 18t45.5 -18.5t18.5 -45.5q0 -26 -19 -45t-45 -19q-27 0 -45.5 19t-18.5 45z" />
    <glyph glyph-name="cedilla" unicode="&#xb8;" 
d="M146 -199v10q89 26 89 65q0 29 -50 33l-3 4l41 87h26l-26 -48q79 -9 79 -62q0 -35 -42 -58.5t-114 -30.5z" />
    <glyph glyph-name="onesuperior" unicode="&#xb9;" horiz-adv-x="193" 
d="M7 338v10l25 6q15 4 19.5 10t4.5 27v227l-49 8v9q80 14 122 62l9 -3v-303q0 -20 4.5 -27t19.5 -10l23 -6v-10h-178z" />
    <glyph glyph-name="ordmasculine" unicode="&#xba;" horiz-adv-x="420" 
d="M210 274q-87 0 -141.5 54t-54.5 158q0 102 57 157.5t139 55.5q87 0 141.5 -53t54.5 -156q0 -101 -58 -158.5t-138 -57.5zM212 294q51 0 75 44t24 143q0 109 -24.5 154.5t-79.5 45.5q-52 0 -75 -42.5t-23 -140.5q0 -110 24 -157t79 -47z" />
    <glyph glyph-name="guillemotright" unicode="&#xbb;" horiz-adv-x="384" 
d="M352 245l-169 -189h-16l101 197l-101 196h16l169 -189v-15zM204 245l-168 -189h-16l101 197l-101 196h16l168 -189v-15z" />
    <glyph glyph-name="onequarter" unicode="&#xbc;" horiz-adv-x="610" 
d="M422 0v10l25 6q16 3 20 9.5t4 27.5v49h-148v21l180 232h49v-223h55l-4 -30h-51v-49q0 -21 4 -27.5t19 -9.5l25 -6v-10h-178zM7 338v10l25 6q15 4 19.5 10t4.5 27v227l-49 8v9q80 14 122 62l9 -3v-303q0 -20 4.5 -27t19.5 -10l23 -6v-10h-178zM33 -50l504 764h31
l-504 -764h-31zM355 132h116v150h-1z" />
    <glyph glyph-name="onehalf" unicode="&#xbd;" horiz-adv-x="615" 
d="M348 0v39q67 54 97 86q69 73 69 144q0 74 -50 74q-19 0 -26 -7.5t-9 -23.5q-4 -46 -41 -46q-16 0 -25 9t-9 24q0 26 32 44.5t82 18.5q61 0 95 -27.5t34 -73.5q0 -52 -46.5 -96t-150.5 -103v-3h143q17 0 25 9t20 38h10l-9 -106h-241zM7 338v10l25 6q15 4 19.5 10t4.5 27
v227l-49 8v9q80 14 122 62l9 -3v-303q0 -20 4.5 -27t19.5 -10l23 -6v-10h-178zM12 -50l504 764h31l-504 -764h-31z" />
    <glyph glyph-name="threequarters" unicode="&#xbe;" horiz-adv-x="615" 
d="M426 0v10l25 6q16 3 20 9.5t4 27.5v49h-148v21l180 232h49v-223h55l-4 -30h-51v-49q0 -21 4 -27.5t19 -9.5l25 -6v-10h-178zM108 332q-48 0 -76.5 16.5t-28.5 42.5q0 14 9.5 22.5t23.5 8.5q30 0 37 -38q4 -20 11 -26.5t27 -6.5q27 0 44 22t17 59q0 40 -16.5 59.5
t-58.5 19.5h-18v21h21q65 0 65 80q0 69 -48 69q-17 0 -23.5 -6t-9.5 -21q-4 -24 -12.5 -34t-25.5 -10q-15 0 -23.5 8.5t-8.5 21.5q0 26 28.5 43t77.5 17q55 0 88 -23.5t33 -63.5q0 -34 -24.5 -57t-67.5 -29v-3q104 -9 104 -88q0 -43 -37 -73.5t-108 -30.5zM48 -50l504 764
h31l-504 -764h-31zM359 132h116v150h-1z" />
    <glyph glyph-name="questiondown" unicode="&#xbf;" horiz-adv-x="405" 
d="M268 421v-187q-161 -55 -161 -178q0 -56 32 -88t90 -32q21 0 28.5 9.5t10.5 33.5q5 35 19.5 49t41.5 14q48 0 48 -47q0 -39 -41.5 -60t-106.5 -21q-93 0 -146.5 48.5t-53.5 132.5q0 163 210 229v97h29zM312 560q0 -26 -18 -43.5t-44 -17.5q-25 0 -43 17.5t-18 43.5
q0 25 18 43.5t43 18.5q26 0 44 -18t18 -44z" />
    <glyph glyph-name="Agrave" unicode="&#xc0;" horiz-adv-x="620" 
d="M-10 0v11l17 5q26 7 37.5 25.5t36.5 88.5l205 563h54l199 -575q20 -58 33 -77.5t35 -24.5l21 -5v-11h-265v11l23 5q23 6 31.5 15.5t8.5 25.5q0 21 -13 58l-44 136h-214l-39 -114q-17 -50 -17 -76q0 -18 9.5 -28t32.5 -16l27 -6v-11h-178zM264 563l-100 -288h197l-94 288
h-3zM405 731l-3 -8l-166 38q-41 9 -41 45q0 19 12.5 32.5t31.5 13.5t38 -17z" />
    <glyph glyph-name="Aacute" unicode="&#xc1;" horiz-adv-x="620" 
d="M-10 0v11l17 5q26 7 37.5 25.5t36.5 88.5l205 563h54l199 -575q20 -58 33 -77.5t35 -24.5l21 -5v-11h-265v11l23 5q23 6 31.5 15.5t8.5 25.5q0 21 -13 58l-44 136h-214l-39 -114q-17 -50 -17 -76q0 -18 9.5 -28t32.5 -16l27 -6v-11h-178zM264 563l-100 -288h197l-94 288
h-3zM223 728l-3 7l128 105q17 16 38 16q20 0 32 -13.5t12 -32.5q0 -36 -41 -44z" />
    <glyph glyph-name="Acircumflex" unicode="&#xc2;" horiz-adv-x="620" 
d="M-10 0v11l17 5q26 7 37.5 25.5t36.5 88.5l205 563h54l199 -575q20 -58 33 -77.5t35 -24.5l21 -5v-11h-265v11l23 5q23 6 31.5 15.5t8.5 25.5q0 21 -13 58l-44 136h-214l-39 -114q-17 -50 -17 -76q0 -18 9.5 -28t32.5 -16l27 -6v-11h-178zM264 563l-100 -288h197l-94 288
h-3zM181 723l-6 7l118 124h37l117 -124l-5 -7l-130 53z" />
    <glyph glyph-name="Atilde" unicode="&#xc3;" horiz-adv-x="620" 
d="M-10 0v11l17 5q26 7 37.5 25.5t36.5 88.5l205 563h54l199 -575q20 -58 33 -77.5t35 -24.5l21 -5v-11h-265v11l23 5q23 6 31.5 15.5t8.5 25.5q0 21 -13 58l-44 136h-214l-39 -114q-17 -50 -17 -76q0 -18 9.5 -28t32.5 -16l27 -6v-11h-178zM264 563l-100 -288h197l-94 288
h-3zM385 747q-22 0 -73 12t-72 12q-20 0 -31 -8.5t-25 -31.5l-10 5q19 55 37.5 80.5t51.5 25.5q21 0 71.5 -12t69.5 -12q37 0 61 41l10 -5q-18 -55 -37 -81t-53 -26z" />
    <glyph glyph-name="Adieresis" unicode="&#xc4;" horiz-adv-x="620" 
d="M-10 0v11l17 5q26 7 37.5 25.5t36.5 88.5l205 563h54l199 -575q20 -58 33 -77.5t35 -24.5l21 -5v-11h-265v11l23 5q23 6 31.5 15.5t8.5 25.5q0 21 -13 58l-44 136h-214l-39 -114q-17 -50 -17 -76q0 -18 9.5 -28t32.5 -16l27 -6v-11h-178zM264 563l-100 -288h197l-94 288
h-3zM401 730q-25 0 -41.5 16.5t-16.5 41.5q0 24 16.5 40t41.5 16t41.5 -16t16.5 -40q0 -25 -16.5 -41.5t-41.5 -16.5zM224 730q-24 0 -40.5 16.5t-16.5 41.5q0 24 16.5 40t40.5 16q25 0 41.5 -16t16.5 -40q0 -26 -16 -42t-42 -16z" />
    <glyph glyph-name="Aring" unicode="&#xc5;" horiz-adv-x="620" 
d="M-10 0v11l17 5q26 7 37.5 25.5t36.5 88.5l205 563h54l199 -575q20 -58 33 -77.5t35 -24.5l21 -5v-11h-265v11l23 5q23 6 31.5 15.5t8.5 25.5q0 21 -13 58l-44 136h-214l-39 -114q-17 -50 -17 -76q0 -18 9.5 -28t32.5 -16l27 -6v-11h-178zM264 563l-100 -288h197l-94 288
h-3zM230 800q0 34 24.5 57t59.5 23t59.5 -23t24.5 -57t-24.5 -56.5t-59.5 -22.5t-59.5 22.5t-24.5 56.5zM257 800q0 -25 15.5 -41.5t41.5 -16.5q25 0 41 17t16 41q0 25 -16 42t-41 17q-26 0 -41.5 -17t-15.5 -42z" />
    <glyph glyph-name="AE" unicode="&#xc6;" horiz-adv-x="876" 
d="M853 210l-14 -210h-513v11l38 7q26 5 32.5 15t6.5 47v163h-203l-64 -121q-27 -52 -27 -70q0 -13 9.5 -20.5t33.5 -14.5l25 -6v-11h-195v11l20 6q35 12 52 30t51 80l289 531q-7 8 -36 16l-37 8v11h498l11 -175h-11q-34 78 -49 102q-21 32 -47 41t-95 9q-68 0 -111 -9v-290
h57q62 0 81.5 6t30.5 29q9 18 24 74h11v-240h-11q-11 48 -24 74q-10 22 -29.5 28t-82.5 6h-57v-245q0 -22 0.5 -32.5t5.5 -21.5t11 -15t22 -7t33 -3.5t50 -0.5q70 0 94 9.5t47 41.5q22 31 61 136h12zM401 623l-189 -356h191v347v9h-2z" />
    <glyph glyph-name="Ccedilla" unicode="&#xc7;" horiz-adv-x="596" 
d="M206 -199v10q89 26 89 65q0 29 -50 33l-3 4l38 80q-119 15 -187 101t-68 247q0 96 28 168t77 113t108 61t129 20q99 0 179 -23l13 -187h-12q-41 86 -57 113q-26 45 -53 60t-80 15q-97 0 -154 -79t-57 -242q0 -180 48.5 -264t144.5 -84q69 0 101.5 16t57.5 64q6 11 54 120
h12l-12 -185q-89 -37 -219 -37q-5 0 -15 0.5t-14 0.5l-21 -39q79 -9 79 -62q0 -35 -42 -58.5t-114 -30.5z" />
    <glyph glyph-name="Egrave" unicode="&#xc8;" horiz-adv-x="564" 
d="M383 731l-3 -8l-166 38q-41 9 -41 45q0 19 12.5 32.5t31.5 13.5t38 -17zM408 480v-240h-11q-11 48 -24 74q-10 22 -29 28t-82 6h-58v-245q0 -22 0.5 -32.5t5.5 -21.5t11 -15t22 -7t33.5 -3.5t50.5 -0.5q69 0 93 9.5t48 41.5q23 34 61 136h12l-14 -210h-515v11l37 7
q27 6 33.5 15.5t6.5 46.5v533q0 38 -6 47t-34 15l-37 7v11h495l11 -175h-11q-31 73 -49 102q-21 32 -47 41t-95 9q-68 0 -112 -9v-290h58q62 0 81 6t30 29q12 21 24 74h11z" />
    <glyph glyph-name="Eacute" unicode="&#xc9;" horiz-adv-x="564" 
d="M210 728l-3 7l128 105q17 16 38 16q20 0 32 -13.5t12 -32.5q0 -36 -41 -44zM408 480v-240h-11q-11 48 -24 74q-10 22 -29 28t-82 6h-58v-245q0 -22 0.5 -32.5t5.5 -21.5t11 -15t22 -7t33.5 -3.5t50.5 -0.5q69 0 93 9.5t48 41.5q23 34 61 136h12l-14 -210h-515v11l37 7
q27 6 33.5 15.5t6.5 46.5v533q0 38 -6 47t-34 15l-37 7v11h495l11 -175h-11q-31 73 -49 102q-21 32 -47 41t-95 9q-68 0 -112 -9v-290h58q62 0 81 6t30 29q12 21 24 74h11z" />
    <glyph glyph-name="Ecircumflex" unicode="&#xca;" horiz-adv-x="564" 
d="M167 723l-6 7l118 124h37l117 -124l-5 -7l-130 53zM408 480v-240h-11q-11 48 -24 74q-10 22 -29 28t-82 6h-58v-245q0 -22 0.5 -32.5t5.5 -21.5t11 -15t22 -7t33.5 -3.5t50.5 -0.5q69 0 93 9.5t48 41.5q23 34 61 136h12l-14 -210h-515v11l37 7q27 6 33.5 15.5t6.5 46.5
v533q0 38 -6 47t-34 15l-37 7v11h495l11 -175h-11q-31 73 -49 102q-21 32 -47 41t-95 9q-68 0 -112 -9v-290h58q62 0 81 6t30 29q12 21 24 74h11z" />
    <glyph glyph-name="Edieresis" unicode="&#xcb;" horiz-adv-x="564" 
d="M408 480v-240h-11q-11 48 -24 74q-10 22 -29 28t-82 6h-58v-245q0 -22 0.5 -32.5t5.5 -21.5t11 -15t22 -7t33.5 -3.5t50.5 -0.5q69 0 93 9.5t48 41.5q23 34 61 136h12l-14 -210h-515v11l37 7q27 6 33.5 15.5t6.5 46.5v533q0 38 -6 47t-34 15l-37 7v11h495l11 -175h-11
q-31 73 -49 102q-21 32 -47 41t-95 9q-68 0 -112 -9v-290h58q62 0 81 6t30 29q12 21 24 74h11zM205 730q-24 0 -40.5 16.5t-16.5 41.5q0 24 16.5 40t40.5 16q25 0 41.5 -16t16.5 -40q0 -26 -16.5 -42t-41.5 -16zM382 730q-25 0 -41.5 16.5t-16.5 41.5q0 24 16.5 40t41.5 16
t41.5 -16t16.5 -40q0 -25 -16.5 -41.5t-41.5 -16.5z" />
    <glyph glyph-name="Igrave" unicode="&#xcc;" horiz-adv-x="294" 
d="M12 0v11l38 7q27 5 33.5 14.5t6.5 47.5v533q0 38 -6.5 47.5t-33.5 14.5l-38 7v11h270v-11l-37 -7q-28 -5 -34.5 -14.5t-6.5 -47.5v-533q0 -38 6.5 -47.5t34.5 -14.5l37 -7v-11h-270zM241 731l-3 -8l-166 38q-41 9 -41 45q0 19 12.5 32.5t31.5 13.5t38 -17z" />
    <glyph glyph-name="Iacute" unicode="&#xcd;" horiz-adv-x="294" 
d="M12 0v11l38 7q27 5 33.5 14.5t6.5 47.5v533q0 38 -6.5 47.5t-33.5 14.5l-38 7v11h270v-11l-37 -7q-28 -5 -34.5 -14.5t-6.5 -47.5v-533q0 -38 6.5 -47.5t34.5 -14.5l37 -7v-11h-270zM58 728l-3 7l128 105q17 16 38 16q20 0 32 -13.5t12 -32.5q0 -36 -41 -44z" />
    <glyph glyph-name="Icircumflex" unicode="&#xce;" horiz-adv-x="294" 
d="M12 0v11l38 7q27 5 33.5 14.5t6.5 47.5v533q0 38 -6.5 47.5t-33.5 14.5l-38 7v11h270v-11l-37 -7q-28 -5 -34.5 -14.5t-6.5 -47.5v-533q0 -38 6.5 -47.5t34.5 -14.5l37 -7v-11h-270zM18 723l-6 7l118 124h37l117 -124l-5 -7l-130 53z" />
    <glyph glyph-name="Idieresis" unicode="&#xcf;" horiz-adv-x="294" 
d="M12 0v11l38 7q27 5 33.5 14.5t6.5 47.5v533q0 38 -6.5 47.5t-33.5 14.5l-38 7v11h270v-11l-37 -7q-28 -5 -34.5 -14.5t-6.5 -47.5v-533q0 -38 6.5 -47.5t34.5 -14.5l37 -7v-11h-270zM58 730q-24 0 -40.5 16.5t-16.5 41.5q0 24 16.5 40t40.5 16q25 0 41.5 -16t16.5 -40
q0 -26 -16 -42t-42 -16zM235 730q-25 0 -41.5 16.5t-16.5 41.5q0 24 16.5 40t41.5 16t41.5 -16t16.5 -40q0 -25 -16.5 -41.5t-41.5 -16.5z" />
    <glyph glyph-name="Eth" unicode="&#xd0;" horiz-adv-x="677" 
d="M17 340v24h72v249q0 38 -6.5 47.5t-33.5 14.5l-37 7v11h306q153 0 243.5 -80t90.5 -259q0 -171 -93 -262.5t-248 -91.5h-299v11l37 7q27 5 33.5 14.5t6.5 47.5v260h-72zM304 23q124 0 175.5 81t51.5 230q0 178 -53 257t-176 79q-64 0 -98 -9v-297h179v-24h-179v-241
q0 -48 17.5 -62t82.5 -14z" />
    <glyph glyph-name="Ntilde" unicode="&#xd1;" horiz-adv-x="653" 
d="M416 747q-22 0 -73 12t-72 12q-20 0 -31 -8.5t-25 -31.5l-10 5q19 55 37.5 80.5t51.5 25.5q21 0 71.5 -12t69.5 -12q37 0 61 41l10 -5q-18 -55 -37 -81t-53 -26zM528 -4l-408 624h-3v-521q0 -45 7 -58.5t35 -20.5l39 -9v-11h-186v11l38 9q25 7 32 20.5t7 57.5v515
q0 34 -7.5 45.5t-32.5 16.5l-35 7v11h192l330 -506h3v407q0 45 -7 58.5t-34 20.5l-43 9v11h187v-11l-36 -9q-25 -7 -32 -21t-7 -56v-600h-39z" />
    <glyph glyph-name="Ograve" unicode="&#xd2;" horiz-adv-x="681" 
d="M438 731l-3 -8l-166 38q-41 9 -41 45q0 19 12.5 32.5t31.5 13.5t38 -17zM338 -10q-140 0 -226.5 89t-86.5 258q0 95 27 168t72.5 115t101 62.5t117.5 20.5q140 0 226.5 -90.5t86.5 -261.5q0 -76 -18 -138t-48 -103t-71 -68.5t-86 -39.5t-95 -12zM340 12q101 0 148 78
t47 244q0 347 -194 347q-100 0 -147.5 -80t-47.5 -247q0 -342 194 -342z" />
    <glyph glyph-name="Oacute" unicode="&#xd3;" horiz-adv-x="681" 
d="M252 728l-3 7l128 105q17 16 38 16q20 0 32 -13.5t12 -32.5q0 -36 -41 -44zM338 -10q-140 0 -226.5 89t-86.5 258q0 95 27 168t72.5 115t101 62.5t117.5 20.5q140 0 226.5 -90.5t86.5 -261.5q0 -76 -18 -138t-48 -103t-71 -68.5t-86 -39.5t-95 -12zM340 12q101 0 148 78
t47 244q0 347 -194 347q-100 0 -147.5 -80t-47.5 -247q0 -342 194 -342z" />
    <glyph glyph-name="Ocircumflex" unicode="&#xd4;" horiz-adv-x="681" 
d="M210 723l-6 7l118 124h37l117 -124l-5 -7l-130 53zM338 -10q-140 0 -226.5 89t-86.5 258q0 95 27 168t72.5 115t101 62.5t117.5 20.5q140 0 226.5 -90.5t86.5 -261.5q0 -76 -18 -138t-48 -103t-71 -68.5t-86 -39.5t-95 -12zM340 12q101 0 148 78t47 244q0 347 -194 347
q-100 0 -147.5 -80t-47.5 -247q0 -342 194 -342z" />
    <glyph glyph-name="Otilde" unicode="&#xd5;" horiz-adv-x="681" 
d="M410 747q-22 0 -73 12t-72 12q-20 0 -31 -8.5t-25 -31.5l-10 5q19 55 37.5 80.5t51.5 25.5q21 0 71.5 -12t69.5 -12q37 0 61 41l10 -5q-18 -55 -37 -81t-53 -26zM338 -10q-140 0 -226.5 89t-86.5 258q0 95 27 168t72.5 115t101 62.5t117.5 20.5q140 0 226.5 -90.5
t86.5 -261.5q0 -76 -18 -138t-48 -103t-71 -68.5t-86 -39.5t-95 -12zM340 12q101 0 148 78t47 244q0 347 -194 347q-100 0 -147.5 -80t-47.5 -247q0 -342 194 -342z" />
    <glyph glyph-name="Odieresis" unicode="&#xd6;" horiz-adv-x="681" 
d="M251 730q-24 0 -40.5 16.5t-16.5 41.5q0 24 16.5 40t40.5 16q25 0 41.5 -16t16.5 -40q0 -26 -16.5 -42t-41.5 -16zM428 730q-25 0 -41.5 16.5t-16.5 41.5q0 24 16.5 40t41.5 16t41.5 -16t16.5 -40q0 -25 -16.5 -41.5t-41.5 -16.5zM338 -10q-140 0 -226.5 89t-86.5 258
q0 95 27 168t72.5 115t101 62.5t117.5 20.5q140 0 226.5 -90.5t86.5 -261.5q0 -76 -18 -138t-48 -103t-71 -68.5t-86 -39.5t-95 -12zM340 12q101 0 148 78t47 244q0 347 -194 347q-100 0 -147.5 -80t-47.5 -247q0 -342 194 -342z" />
    <glyph glyph-name="multiply" unicode="&#xd7;" horiz-adv-x="425" 
d="M360 509l19 -19l-148 -156l147 -155l-19 -20l-146 155l-146 -155l-20 20l146 155l-146 156l19 19l147 -155z" />
    <glyph glyph-name="Oslash" unicode="&#xd8;" horiz-adv-x="681" 
d="M338 -10q-103 0 -176 47l-60 -94h-29l69 108q-117 91 -117 286q0 95 27 168t72.5 115t101 62.5t117.5 20.5q109 0 185 -54l52 81h29l-62 -96q109 -94 109 -283q0 -76 -18 -138t-48 -103t-71 -68.5t-86 -39.5t-95 -12zM145 354q0 -154 40 -237l304 472q-49 92 -148 92
q-100 0 -148 -80t-48 -247zM340 12q101 0 148.5 78t47.5 244q0 144 -35 229l-303 -471q50 -80 142 -80z" />
    <glyph glyph-name="Ugrave" unicode="&#xd9;" horiz-adv-x="665" 
d="M451 731l-3 -8l-166 38q-41 9 -41 45q0 19 12.5 32.5t31.5 13.5t38 -17zM342 -10q-128 0 -193.5 53.5t-65.5 175.5v394q0 38 -6.5 47.5t-33.5 14.5l-38 7v11h269v-11l-36 -7q-28 -6 -34.5 -15t-6.5 -47v-400q0 -94 44 -137t137 -43q89 0 129.5 46t40.5 140v375
q0 45 -6.5 59t-34.5 20l-46 9v11h199v-11l-39 -9q-24 -5 -31 -20t-7 -57v-387q0 -100 -58 -159.5t-183 -59.5z" />
    <glyph glyph-name="Uacute" unicode="&#xda;" horiz-adv-x="665" 
d="M276 728l-3 7l128 105q17 16 38 16q20 0 32 -13.5t12 -32.5q0 -36 -41 -44zM342 -10q-128 0 -193.5 53.5t-65.5 175.5v394q0 38 -6.5 47.5t-33.5 14.5l-38 7v11h269v-11l-36 -7q-28 -6 -34.5 -15t-6.5 -47v-400q0 -94 44 -137t137 -43q89 0 129.5 46t40.5 140v375
q0 45 -6.5 59t-34.5 20l-46 9v11h199v-11l-39 -9q-24 -5 -31 -20t-7 -57v-387q0 -100 -58 -159.5t-183 -59.5z" />
    <glyph glyph-name="Ucircumflex" unicode="&#xdb;" horiz-adv-x="665" 
d="M227 723l-6 7l118 124h37l117 -124l-5 -7l-130 53zM342 -10q-128 0 -193.5 53.5t-65.5 175.5v394q0 38 -6.5 47.5t-33.5 14.5l-38 7v11h269v-11l-36 -7q-28 -6 -34.5 -15t-6.5 -47v-400q0 -94 44 -137t137 -43q89 0 129.5 46t40.5 140v375q0 45 -6.5 59t-34.5 20l-46 9
v11h199v-11l-39 -9q-24 -5 -31 -20t-7 -57v-387q0 -100 -58 -159.5t-183 -59.5z" />
    <glyph glyph-name="Udieresis" unicode="&#xdc;" horiz-adv-x="665" 
d="M342 -10q-128 0 -193.5 53.5t-65.5 175.5v394q0 38 -6.5 47.5t-33.5 14.5l-38 7v11h269v-11l-36 -7q-28 -6 -34.5 -15t-6.5 -47v-400q0 -94 44 -137t137 -43q89 0 129.5 46t40.5 140v375q0 45 -6.5 59t-34.5 20l-46 9v11h199v-11l-39 -9q-24 -5 -31 -20t-7 -57v-387
q0 -100 -58 -159.5t-183 -59.5zM267 730q-24 0 -40.5 16.5t-16.5 41.5q0 24 16.5 40t40.5 16q25 0 41.5 -16t16.5 -40q0 -26 -16.5 -42t-41.5 -16zM444 730q-25 0 -41.5 16.5t-16.5 41.5q0 24 16.5 40t41.5 16t41.5 -16t16.5 -40q0 -25 -16.5 -41.5t-41.5 -16.5z" />
    <glyph glyph-name="Yacute" unicode="&#xdd;" horiz-adv-x="585" 
d="M166 0v11l40 7q28 5 35 15t7 47v206l-179 318q-24 43 -34 54.5t-29 17.5l-21 6v11h272v-11l-34 -7q-24 -5 -31.5 -12t-7.5 -21q0 -18 16 -47l147 -272h3l124 262q15 33 15 54q0 27 -38 36l-32 7v11h180v-11l-19 -7q-25 -8 -38 -24.5t-42 -75.5l-137 -287v-208
q0 -38 6.5 -47.5t35.5 -14.5l38 -7v-11h-277zM240 728l-3 7l128 105q17 16 38 16q20 0 32 -13.5t12 -32.5q0 -36 -41 -44z" />
    <glyph glyph-name="Thorn" unicode="&#xde;" horiz-adv-x="555" 
d="M12 693h270v-11l-37 -7q-29 -5 -35 -15t-6 -47v-60h92q250 0 250 -180q0 -91 -61.5 -146.5t-178.5 -55.5q-50 0 -73 9v11q104 -2 148 36.5t44 134.5q0 92 -32 129.5t-106 37.5q-43 0 -83 -8v-441q0 -37 6.5 -47t35.5 -14l45 -8v-11h-279v11l37 7q27 5 33.5 14.5t6.5 47.5
v533q0 38 -6.5 47.5t-33.5 14.5l-37 7v11z" />
    <glyph glyph-name="germandbls" unicode="&#xdf;" horiz-adv-x="569" 
d="M384 -8q-64 0 -100 20.5t-36 53.5q0 44 45 44q23 0 34 -13t17 -45q2 -13 5.5 -20.5t13.5 -14t26 -6.5q38 0 60.5 23t22.5 63q0 34 -22.5 61t-73.5 61q-61 40 -82.5 67.5t-21.5 65.5q0 34 27.5 77.5t55 94t27.5 102.5q0 109 -91 109q-112 0 -112 -142v-527q0 -30 5 -37.5
t28 -12.5l23 -6v-10h-225v10l28 7q25 6 31 14t6 37v407h-66v8l66 28v19q0 62 20.5 108t55 71t73.5 36.5t83 11.5q79 0 123 -33.5t44 -88.5q0 -29 -16 -57.5t-38.5 -51t-45 -43.5t-38.5 -41t-16 -36q0 -20 19 -38.5t84 -59.5q72 -47 101.5 -81.5t29.5 -85.5q0 -63 -46.5 -106
t-123.5 -43z" />
    <glyph glyph-name="agrave" unicode="&#xe0;" horiz-adv-x="478" 
d="M165 -13q-68 0 -107 32.5t-39 90.5q0 33 12 57t37 39t47 23.5t57 17.5l132 33v109q0 64 -15.5 90.5t-71.5 26.5q-32 0 -44 -10t-17 -36q-4 -38 -17 -53.5t-40 -15.5q-51 0 -51 47q0 44 55.5 66.5t131.5 22.5q173 0 173 -132v-310q0 -40 20 -52q16 -11 52 -13v-8
q-36 -24 -86 -24q-76 0 -85 63h-3q-53 -64 -141 -64zM210 33q65 0 94 41v177l-58 -10q-64 -11 -92.5 -35.5t-28.5 -77.5q0 -45 22 -70t63 -25zM316 581l-4 -7l-156 40q-38 10 -38 45q0 20 13 33.5t32 13.5t39 -18z" />
    <glyph glyph-name="aacute" unicode="&#xe1;" horiz-adv-x="478" 
d="M165 -13q-68 0 -107 32.5t-39 90.5q0 33 12 57t37 39t47 23.5t57 17.5l132 33v109q0 64 -15.5 90.5t-71.5 26.5q-32 0 -44 -10t-17 -36q-4 -38 -17 -53.5t-40 -15.5q-51 0 -51 47q0 44 55.5 66.5t131.5 22.5q173 0 173 -132v-310q0 -40 20 -52q16 -11 52 -13v-8
q-36 -24 -86 -24q-76 0 -85 63h-3q-53 -64 -141 -64zM210 33q65 0 94 41v177l-58 -10q-64 -11 -92.5 -35.5t-28.5 -77.5q0 -45 22 -70t63 -25zM150 574l-4 7l113 107q21 18 40 18t32 -13.5t13 -33.5q0 -35 -38 -45z" />
    <glyph glyph-name="acircumflex" unicode="&#xe2;" horiz-adv-x="478" 
d="M165 -13q-68 0 -107 32.5t-39 90.5q0 33 12 57t37 39t47 23.5t57 17.5l132 33v109q0 64 -15.5 90.5t-71.5 26.5q-32 0 -44 -10t-17 -36q-4 -38 -17 -53.5t-40 -15.5q-51 0 -51 47q0 44 55.5 66.5t131.5 22.5q173 0 173 -132v-310q0 -40 20 -52q16 -11 52 -13v-8
q-36 -24 -86 -24q-76 0 -85 63h-3q-53 -64 -141 -64zM210 33q65 0 94 41v177l-58 -10q-64 -11 -92.5 -35.5t-28.5 -77.5q0 -45 22 -70t63 -25zM211 712h36l106 -135l-5 -7l-119 62l-118 -62l-5 7z" />
    <glyph glyph-name="atilde" unicode="&#xe3;" horiz-adv-x="478" 
d="M165 -13q-68 0 -107 32.5t-39 90.5q0 33 12 57t37 39t47 23.5t57 17.5l132 33v109q0 64 -15.5 90.5t-71.5 26.5q-32 0 -44 -10t-17 -36q-4 -38 -17 -53.5t-40 -15.5q-51 0 -51 47q0 44 55.5 66.5t131.5 22.5q173 0 173 -132v-310q0 -40 20 -52q16 -11 52 -13v-8
q-36 -24 -86 -24q-76 0 -85 63h-3q-53 -64 -141 -64zM210 33q65 0 94 41v177l-58 -10q-64 -11 -92.5 -35.5t-28.5 -77.5q0 -45 22 -70t63 -25zM115 577l-10 4q10 29 17 44.5t17 32t22.5 23t28.5 6.5q19 0 62 -9t58 -9q21 0 33 8.5t25 30.5l10 -4q-11 -31 -17 -44.5
t-16.5 -30.5t-23.5 -23.5t-31 -6.5q-19 0 -61 8.5t-59 8.5q-20 0 -31.5 -9t-23.5 -30z" />
    <glyph glyph-name="adieresis" unicode="&#xe4;" horiz-adv-x="478" 
d="M165 -13q-68 0 -107 32.5t-39 90.5q0 33 12 57t37 39t47 23.5t57 17.5l132 33v109q0 64 -15.5 90.5t-71.5 26.5q-32 0 -44 -10t-17 -36q-4 -38 -17 -53.5t-40 -15.5q-51 0 -51 47q0 44 55.5 66.5t131.5 22.5q173 0 173 -132v-310q0 -40 20 -52q16 -11 52 -13v-8
q-36 -24 -86 -24q-76 0 -85 63h-3q-53 -64 -141 -64zM210 33q65 0 94 41v177l-58 -10q-64 -11 -92.5 -35.5t-28.5 -77.5q0 -45 22 -70t63 -25zM86 642q0 25 17 41.5t41 16.5q25 0 42 -16.5t17 -41.5t-17 -41t-42 -16q-24 0 -41 16.5t-17 40.5zM251 642q0 25 17 41.5t41 16.5
q25 0 42 -16.5t17 -41.5t-17 -41t-42 -16q-24 0 -41 16.5t-17 40.5z" />
    <glyph glyph-name="aring" unicode="&#xe5;" horiz-adv-x="478" 
d="M165 -13q-68 0 -107 32.5t-39 90.5q0 33 12 57t37 39t47 23.5t57 17.5l132 33v109q0 64 -15.5 90.5t-71.5 26.5q-32 0 -44 -10t-17 -36q-4 -38 -17 -53.5t-40 -15.5q-51 0 -51 47q0 44 55.5 66.5t131.5 22.5q173 0 173 -132v-310q0 -40 20 -52q16 -11 52 -13v-8
q-36 -24 -86 -24q-76 0 -85 63h-3q-53 -64 -141 -64zM210 33q65 0 94 41v177l-58 -10q-64 -11 -92.5 -35.5t-28.5 -77.5q0 -45 22 -70t63 -25zM145 653q0 34 24.5 57.5t59.5 23.5t59.5 -23.5t24.5 -57.5t-24.5 -56.5t-59.5 -22.5t-59.5 22.5t-24.5 56.5zM172 653
q0 -25 15.5 -41.5t41.5 -16.5q25 0 41 17t16 41q0 25 -16 42.5t-41 17.5q-26 0 -41.5 -17.5t-15.5 -42.5z" />
    <glyph glyph-name="ae" unicode="&#xe6;" horiz-adv-x="756" 
d="M341 83q-63 -96 -176 -96q-68 0 -107 33t-39 91q0 34 12.5 59t36.5 41t47 25t57 18l132 32v103q0 64 -15.5 90.5t-71.5 26.5q-32 0 -44 -10t-17 -36q-4 -38 -17 -53.5t-40 -15.5q-51 0 -51 47q0 44 55 66.5t127 22.5q120 0 149 -71q62 71 155 71q204 0 203 -249h-329
q1 -122 42.5 -178t123.5 -56q89 0 151 36v-13q-71 -79 -191 -79q-136 0 -191 95h-2zM527 506q-115 0 -119 -209l219 10q0 106 -22.5 152.5t-77.5 46.5zM213 33q79 0 120 69q-29 61 -29 154l-57 -9q-66 -10 -94 -36.5t-28 -80.5q0 -47 22.5 -72t65.5 -25z" />
    <glyph glyph-name="ccedilla" unicode="&#xe7;" horiz-adv-x="451" 
d="M127 -199v10q89 26 89 65q0 29 -50 33l-3 4l37 80q-84 14 -131 78.5t-47 168.5q0 71 25 128t64.5 90.5t85 51t90.5 17.5q71 0 109 -24t38 -65q0 -51 -55 -51q-26 0 -38 14t-17 47q-7 34 -15.5 44.5t-38.5 10.5q-59 0 -99.5 -58.5t-40.5 -167.5q0 -235 172 -235
q70 0 129 34v-12q-24 -30 -73 -53t-107 -23q-18 0 -27 1l-20 -37q79 -9 79 -62q0 -35 -42 -58.5t-114 -30.5z" />
    <glyph glyph-name="egrave" unicode="&#xe8;" horiz-adv-x="487" 
d="M270 -12q-126 0 -187.5 69.5t-61.5 194.5q0 121 71 198t172 77q204 0 203 -237h-338v-8q0 -238 178 -238q85 0 147 36v-13q-30 -34 -78 -56.5t-106 -22.5zM260 506q-57 0 -92 -48.5t-39 -148.5l231 9q0 99 -23 143.5t-77 44.5zM345 581l-4 -7l-156 40q-38 10 -38 45
q0 20 13 33.5t32 13.5q20 0 39 -18z" />
    <glyph glyph-name="eacute" unicode="&#xe9;" horiz-adv-x="487" 
d="M270 -12q-126 0 -187.5 69.5t-61.5 194.5q0 121 71 198t172 77q204 0 203 -237h-338v-8q0 -238 178 -238q85 0 147 36v-13q-30 -34 -78 -56.5t-106 -22.5zM260 506q-57 0 -92 -48.5t-39 -148.5l231 9q0 99 -23 143.5t-77 44.5zM181 574l-4 7l113 107q21 18 40 18
t32 -13.5t13 -33.5q0 -35 -38 -45z" />
    <glyph glyph-name="ecircumflex" unicode="&#xea;" horiz-adv-x="487" 
d="M270 -12q-126 0 -187.5 69.5t-61.5 194.5q0 121 71 198t172 77q204 0 203 -237h-338v-8q0 -238 178 -238q85 0 147 36v-13q-30 -34 -78 -56.5t-106 -22.5zM260 506q-57 0 -92 -48.5t-39 -148.5l231 9q0 99 -23 143.5t-77 44.5zM238 712h36l106 -135l-5 -7l-119 62
l-118 -62l-5 7z" />
    <glyph glyph-name="edieresis" unicode="&#xeb;" horiz-adv-x="487" 
d="M270 -12q-126 0 -187.5 69.5t-61.5 194.5q0 121 71 198t172 77q204 0 203 -237h-338v-8q0 -238 178 -238q85 0 147 36v-13q-30 -34 -78 -56.5t-106 -22.5zM260 506q-57 0 -92 -48.5t-39 -148.5l231 9q0 99 -23 143.5t-77 44.5zM284 642q0 25 17 41.5t41 16.5
q25 0 42 -16.5t17 -41.5t-17 -41t-42 -16q-24 0 -41 16.5t-17 40.5zM119 642q0 25 17 41.5t41 16.5q25 0 42 -16.5t17 -41.5t-17 -41t-42 -16q-24 0 -41 16.5t-17 40.5z" />
    <glyph glyph-name="igrave" unicode="&#xec;" horiz-adv-x="253" 
d="M10 0v10l28 7q26 6 31.5 14t5.5 37v354q0 27 -6 35.5t-33 21.5l-26 15v8l168 22l5 -2q-4 -68 -4 -116v-338q0 -29 6.5 -37t33.5 -14l26 -7v-10h-235zM211 581l-4 -7l-156 40q-38 10 -38 45q0 20 13 33.5t32 13.5q20 0 39 -18z" />
    <glyph glyph-name="iacute" unicode="&#xed;" horiz-adv-x="253" 
d="M36 574l-4 7l113 107q21 18 40 18t32 -13.5t13 -33.5q0 -35 -38 -45zM10 0v10l28 7q26 6 31.5 14t5.5 37v354q0 27 -6 35.5t-33 21.5l-26 15v8l168 22l5 -2q-4 -68 -4 -116v-338q0 -29 6.5 -37t33.5 -14l26 -7v-10h-235z" />
    <glyph glyph-name="icircumflex" unicode="&#xee;" horiz-adv-x="253" 
d="M105 712h36l106 -135l-5 -7l-119 62l-118 -62l-5 7zM10 0v10l28 7q26 6 31.5 14t5.5 37v354q0 27 -6 35.5t-33 21.5l-26 15v8l168 22l5 -2q-4 -68 -4 -116v-338q0 -29 6.5 -37t33.5 -14l26 -7v-10h-235z" />
    <glyph glyph-name="idieresis" unicode="&#xef;" horiz-adv-x="253" 
d="M-15 642q0 25 17 41.5t41 16.5q25 0 42 -16.5t17 -41.5t-17 -41t-42 -16q-24 0 -41 16.5t-17 40.5zM150 642q0 25 17 41.5t41 16.5q25 0 42 -16.5t17 -41.5t-17 -41t-42 -16q-24 0 -41 16.5t-17 40.5zM10 0v10l28 7q26 6 31.5 14t5.5 37v354q0 27 -6 35.5t-33 21.5
l-26 15v8l168 22l5 -2q-4 -68 -4 -116v-338q0 -29 6.5 -37t33.5 -14l26 -7v-10h-235z" />
    <glyph glyph-name="eth" unicode="&#xf0;" horiz-adv-x="544" 
d="M137 591l-9 19l119 55q-62 52 -132 85l4 12q96 -33 170 -78l121 56l8 -20l-107 -49q210 -139 210 -378q0 -82 -21 -143t-57.5 -95t-78.5 -49.5t-91 -15.5q-111 0 -181 69t-70 198q0 126 74.5 198t174.5 72q61 0 102 -37q-20 77 -109 159zM276 10q67 0 99.5 58.5
t32.5 180.5q0 134 -34 195.5t-103 61.5q-135 0 -135 -240q0 -134 34.5 -195t105.5 -61z" />
    <glyph glyph-name="ntilde" unicode="&#xf1;" horiz-adv-x="565" 
d="M10 0v10l28 7q26 6 31.5 14t5.5 37v355q0 27 -6 35t-32 22l-25 14v8l161 22l6 -2l-1 -63h1q104 68 186 68q70 0 101 -32.5t31 -101.5v-325q0 -29 5.5 -37t31.5 -14l28 -7v-10h-234v10l28 6q25 6 30.5 14t5.5 38v307q0 52 -17 73t-61 21q-57 0 -135 -27v-374q0 -30 6 -38
t31 -14l29 -6v-10h-235zM172 577l-10 4q10 29 17 44.5t17 32t22.5 23t28.5 6.5q19 0 62 -9t58 -9q21 0 33 8.5t25 30.5l10 -4q-11 -31 -17 -44.5t-16.5 -30.5t-23.5 -23.5t-31 -6.5q-19 0 -61 8.5t-59 8.5q-20 0 -31.5 -9t-23.5 -30z" />
    <glyph glyph-name="ograve" unicode="&#xf2;" horiz-adv-x="546" 
d="M273 -10q-110 0 -180.5 69t-70.5 197q0 126 74 198.5t177 72.5q110 0 180.5 -68.5t70.5 -197.5q0 -126 -74.5 -198.5t-176.5 -72.5zM277 10q69 0 102 57.5t33 180.5q0 136 -35 197t-106 61q-68 0 -102.5 -57.5t-34.5 -181.5q0 -136 35 -196.5t108 -60.5zM355 581l-4 -7
l-156 40q-38 10 -38 45q0 20 13 33.5t32 13.5q20 0 39 -18z" />
    <glyph glyph-name="oacute" unicode="&#xf3;" horiz-adv-x="546" 
d="M190 574l-4 7l113 107q21 18 40 18t32 -13.5t13 -33.5q0 -35 -38 -45zM273 -10q-110 0 -180.5 69t-70.5 197q0 126 74 198.5t177 72.5q110 0 180.5 -68.5t70.5 -197.5q0 -126 -74.5 -198.5t-176.5 -72.5zM277 10q69 0 102 57.5t33 180.5q0 136 -35 197t-106 61
q-68 0 -102.5 -57.5t-34.5 -181.5q0 -136 35 -196.5t108 -60.5z" />
    <glyph glyph-name="ocircumflex" unicode="&#xf4;" horiz-adv-x="546" 
d="M253 712h36l106 -135l-5 -7l-119 62l-118 -62l-5 7zM273 -10q-110 0 -180.5 69t-70.5 197q0 126 74 198.5t177 72.5q110 0 180.5 -68.5t70.5 -197.5q0 -126 -74.5 -198.5t-176.5 -72.5zM277 10q69 0 102 57.5t33 180.5q0 136 -35 197t-106 61q-68 0 -102.5 -57.5
t-34.5 -181.5q0 -136 35 -196.5t108 -60.5z" />
    <glyph glyph-name="otilde" unicode="&#xf5;" horiz-adv-x="546" 
d="M273 -10q-110 0 -180.5 69t-70.5 197q0 126 74 198.5t177 72.5q110 0 180.5 -68.5t70.5 -197.5q0 -126 -74.5 -198.5t-176.5 -72.5zM277 10q69 0 102 57.5t33 180.5q0 136 -35 197t-106 61q-68 0 -102.5 -57.5t-34.5 -181.5q0 -136 35 -196.5t108 -60.5zM151 577l-10 4
q10 29 17 44.5t17 32t22.5 23t28.5 6.5q19 0 62 -9t58 -9q21 0 33 8.5t25 30.5l10 -4q-11 -31 -17 -44.5t-16.5 -30.5t-23.5 -23.5t-31 -6.5q-19 0 -61 8.5t-59 8.5q-20 0 -31.5 -9t-23.5 -30z" />
    <glyph glyph-name="odieresis" unicode="&#xf6;" horiz-adv-x="546" 
d="M132 642q0 25 17 41.5t41 16.5q25 0 42 -16.5t17 -41.5t-17 -41t-42 -16q-24 0 -41 16.5t-17 40.5zM297 642q0 25 17 41.5t41 16.5q25 0 42 -16.5t17 -41.5t-17 -41t-42 -16q-24 0 -41 16.5t-17 40.5zM273 -10q-110 0 -180.5 69t-70.5 197q0 126 74 198.5t177 72.5
q110 0 180.5 -68.5t70.5 -197.5q0 -126 -74.5 -198.5t-176.5 -72.5zM277 10q69 0 102 57.5t33 180.5q0 136 -35 197t-106 61q-68 0 -102.5 -57.5t-34.5 -181.5q0 -136 35 -196.5t108 -60.5z" />
    <glyph glyph-name="divide" unicode="&#xf7;" horiz-adv-x="439" 
d="M35 328v26h370v-26h-370zM218 126q-23 0 -39.5 17.5t-16.5 40.5q0 24 16 40.5t40 16.5t40.5 -16.5t16.5 -40.5q0 -23 -17 -40.5t-40 -17.5zM218 440q-23 0 -39.5 17.5t-16.5 40.5q0 24 16 40.5t40 16.5t40.5 -16.5t16.5 -40.5q0 -23 -17 -40.5t-40 -17.5z" />
    <glyph glyph-name="oslash" unicode="&#xf8;" horiz-adv-x="546" 
d="M273 -10q-75 0 -134 33l-46 -76h-28l54 89q-97 71 -97 220q0 126 74 198.5t177 72.5q73 0 128 -30l38 62h27l-45 -74q103 -70 103 -224q0 -126 -74.5 -198.5t-176.5 -72.5zM277 10q69 0 102.5 58t33.5 180q0 113 -27 180l-218 -358q34 -60 109 -60zM133 267
q0 -113 23 -171l218 356q-35 54 -103 54q-138 0 -138 -239z" />
    <glyph glyph-name="ugrave" unicode="&#xf9;" horiz-adv-x="561" 
d="M387 76v342q0 30 -5 38.5t-31 22.5l-26 15v8l161 22l5 -3v-427q0 -33 6.5 -43.5t31.5 -19.5l27 -10v-9l-162 -22l-6 2v65h-3q-99 -67 -185 -67q-61 0 -95.5 33.5t-34.5 96.5v299q0 29 -5.5 37.5t-30.5 22.5l-26 15v8l160 22l6 -3v-381q0 -93 86 -93q59 0 127 29zM364 581
l-4 -7l-156 40q-38 10 -38 45q0 20 13 33.5t32 13.5t39 -18z" />
    <glyph glyph-name="uacute" unicode="&#xfa;" horiz-adv-x="561" 
d="M194 574l-4 7l113 107q21 18 40 18t32 -13.5t13 -33.5q0 -35 -38 -45zM387 76v342q0 30 -5 38.5t-31 22.5l-26 15v8l161 22l5 -3v-427q0 -33 6.5 -43.5t31.5 -19.5l27 -10v-9l-162 -22l-6 2v65h-3q-99 -67 -185 -67q-61 0 -95.5 33.5t-34.5 96.5v299q0 29 -5.5 37.5
t-30.5 22.5l-26 15v8l160 22l6 -3v-381q0 -93 86 -93q59 0 127 29z" />
    <glyph glyph-name="ucircumflex" unicode="&#xfb;" horiz-adv-x="561" 
d="M256 712h36l106 -135l-5 -7l-119 62l-118 -62l-5 7zM387 76v342q0 30 -5 38.5t-31 22.5l-26 15v8l161 22l5 -3v-427q0 -33 6.5 -43.5t31.5 -19.5l27 -10v-9l-162 -22l-6 2v65h-3q-99 -67 -185 -67q-61 0 -95.5 33.5t-34.5 96.5v299q0 29 -5.5 37.5t-30.5 22.5l-26 15v8
l160 22l6 -3v-381q0 -93 86 -93q59 0 127 29z" />
    <glyph glyph-name="udieresis" unicode="&#xfc;" horiz-adv-x="561" 
d="M130 642q0 25 17 41.5t41 16.5q25 0 42 -16.5t17 -41.5t-17 -41t-42 -16q-24 0 -41 16.5t-17 40.5zM295 642q0 25 17 41.5t41 16.5q25 0 42 -16.5t17 -41.5t-17 -41t-42 -16q-24 0 -41 16.5t-17 40.5zM387 76v342q0 30 -5 38.5t-31 22.5l-26 15v8l161 22l5 -3v-427
q0 -33 6.5 -43.5t31.5 -19.5l27 -10v-9l-162 -22l-6 2v65h-3q-99 -67 -185 -67q-61 0 -95.5 33.5t-34.5 96.5v299q0 29 -5.5 37.5t-30.5 22.5l-26 15v8l160 22l6 -3v-381q0 -93 86 -93q59 0 127 29z" />
    <glyph glyph-name="yacute" unicode="&#xfd;" horiz-adv-x="481" 
d="M284 127l101 276q13 38 13 59q0 22 -32 31l-24 7v10h153v-10l-16 -6q-20 -7 -31.5 -22t-28.5 -58l-177 -468q-31 -79 -67.5 -114.5t-91.5 -35.5q-34 0 -54.5 16t-20.5 42q0 23 13.5 36t36.5 13q40 0 48 -43q6 -23 12 -26q3 -1 7 -1q19 0 43 25.5t42 74.5l20 57l-172 435
q-14 37 -24.5 50t-27.5 18l-19 7v10h232v-10l-26 -7q-29 -8 -29 -32q0 -17 13 -52l103 -282h4zM187 574l-4 7l113 107q21 18 40 18t32 -13.5t13 -33.5q0 -35 -38 -45z" />
    <glyph glyph-name="thorn" unicode="&#xfe;" horiz-adv-x="560" 
d="M270 10q158 0 158 256q0 103 -38 154t-105 51q-55 0 -114 -27v-398q38 -36 99 -36zM171 630v-99l-1 -67h3q83 63 165 63q93 0 146 -62t53 -183q0 -140 -76.5 -216t-205.5 -76q-43 0 -85 12q1 -31 1 -65v-65q0 -29 6.5 -37.5t34.5 -14.5l38 -7v-10h-248v10l28 7
q25 7 31 15t6 37v784q0 31 -6 41t-32 20l-32 14v8l172 16l6 -2q-4 -56 -4 -123z" />
    <glyph glyph-name="ydieresis" unicode="&#xff;" horiz-adv-x="481" 
d="M284 127l101 276q13 38 13 59q0 22 -32 31l-24 7v10h153v-10l-16 -6q-20 -7 -31.5 -22t-28.5 -58l-177 -468q-31 -79 -67.5 -114.5t-91.5 -35.5q-34 0 -54.5 16t-20.5 42q0 23 13.5 36t36.5 13q40 0 48 -43q6 -23 12 -26q3 -1 7 -1q19 0 43 25.5t42 74.5l20 57l-172 435
q-14 37 -24.5 50t-27.5 18l-19 7v10h232v-10l-26 -7q-29 -8 -29 -32q0 -17 13 -52l103 -282h4zM120 642q0 25 17 41.5t41 16.5q25 0 42 -16.5t17 -41.5t-17 -41t-42 -16q-24 0 -41 16.5t-17 40.5zM285 642q0 25 17 41.5t41 16.5q25 0 42 -16.5t17 -41.5t-17 -41t-42 -16
q-24 0 -41 16.5t-17 40.5z" />
    <glyph glyph-name="Amacron" unicode="&#x100;" horiz-adv-x="620" 
d="M-10 0v11l17 5q26 7 37.5 25.5t36.5 88.5l205 563h54l199 -575q20 -58 33 -77.5t35 -24.5l21 -5v-11h-265v11l23 5q23 6 31.5 15.5t8.5 25.5q0 21 -13 58l-44 136h-214l-39 -114q-17 -50 -17 -76q0 -18 9.5 -28t32.5 -16l27 -6v-11h-178zM264 563l-100 -288h197l-94 288
h-3zM187 754v46h243v-46h-243z" />
    <glyph glyph-name="amacron" unicode="&#x101;" horiz-adv-x="478" 
d="M165 -13q-68 0 -107 32.5t-39 90.5q0 33 12 57t37 39t47 23.5t57 17.5l132 33v109q0 64 -15.5 90.5t-71.5 26.5q-32 0 -44 -10t-17 -36q-4 -38 -17 -53.5t-40 -15.5q-51 0 -51 47q0 44 55.5 66.5t131.5 22.5q173 0 173 -132v-310q0 -40 20 -52q16 -11 52 -13v-8
q-36 -24 -86 -24q-76 0 -85 63h-3q-53 -64 -141 -64zM210 33q65 0 94 41v177l-58 -10q-64 -11 -92.5 -35.5t-28.5 -77.5q0 -45 22 -70t63 -25zM117 605v45h226v-45h-226z" />
    <glyph glyph-name="Abreve" unicode="&#x102;" horiz-adv-x="620" 
d="M-10 0v11l17 5q26 7 37.5 25.5t36.5 88.5l205 563h54l199 -575q20 -58 33 -77.5t35 -24.5l21 -5v-11h-265v11l23 5q23 6 31.5 15.5t8.5 25.5q0 21 -13 58l-44 136h-214l-39 -114q-17 -50 -17 -76q0 -18 9.5 -28t32.5 -16l27 -6v-11h-178zM264 563l-100 -288h197l-94 288
h-3zM310 730q-104 0 -116 124l8 2q28 -59 107 -59q43 0 66.5 15t38.5 44l7 -2q-3 -53 -31 -88.5t-80 -35.5z" />
    <glyph glyph-name="abreve" unicode="&#x103;" horiz-adv-x="478" 
d="M165 -13q-68 0 -107 32.5t-39 90.5q0 33 12 57t37 39t47 23.5t57 17.5l132 33v109q0 64 -15.5 90.5t-71.5 26.5q-32 0 -44 -10t-17 -36q-4 -38 -17 -53.5t-40 -15.5q-51 0 -51 47q0 44 55.5 66.5t131.5 22.5q173 0 173 -132v-310q0 -40 20 -52q16 -11 52 -13v-8
q-36 -24 -86 -24q-76 0 -85 63h-3q-53 -64 -141 -64zM210 33q65 0 94 41v177l-58 -10q-64 -11 -92.5 -35.5t-28.5 -77.5q0 -45 22 -70t63 -25zM232 579q-104 0 -111 124l8 2q23 -60 102 -60q72 0 99 60l8 -2q-2 -55 -29.5 -89.5t-76.5 -34.5z" />
    <glyph glyph-name="Aogonek" unicode="&#x104;" horiz-adv-x="620" 
d="M628 0h-87q-76 0 -111 -32.5t-35 -84.5q0 -51 55 -51q21 0 37 7v-10q-28 -32 -79 -32q-45 0 -69 19.5t-24 53.5q0 38 34 74t102 56l-82 251h-213l-40 -114q-17 -50 -17 -76q0 -18 9.5 -28t32.5 -16l27 -6v-11h-178v11l17 5q26 7 37.5 25.5t36.5 88.5l205 563h54l199 -575
q20 -58 33 -77.5t35 -24.5l21 -5v-11zM267 563h-3l-100 -288h197z" />
    <glyph glyph-name="aogonek" unicode="&#x105;" horiz-adv-x="478" 
d="M305 -131q0 71 118 123q-13 -4 -30 -4q-75 0 -84 63h-3q-53 -64 -141 -64q-68 0 -107 32.5t-39 90.5q0 33 12 57t37 39t47 23.5t57 17.5l132 33v109q0 64 -15.5 90.5t-71.5 26.5q-32 0 -44 -10t-17 -36q-4 -38 -17 -53.5t-40 -15.5q-51 0 -51 47q0 44 55.5 66.5
t131.5 22.5q173 0 173 -132v-310q0 -40 20 -52q16 -11 52 -13v-7q-95 -61 -95 -130q0 -51 55 -51q21 0 37 7v-10q-28 -32 -78 -32q-45 0 -69.5 19t-24.5 53zM210 33q65 0 94 41v177l-58 -9q-64 -9 -92.5 -34.5t-28.5 -78.5q0 -46 22 -71t63 -25z" />
    <glyph glyph-name="Cacute" unicode="&#x106;" horiz-adv-x="596" 
d="M333 -10q-142 0 -225 86t-83 265q0 96 28 168t77 113t108 61t129 20q99 0 179 -23l13 -187h-12q-41 86 -57 113q-26 45 -53 60t-80 15q-97 0 -154 -79t-57 -242q0 -180 48.5 -264t144.5 -84q69 0 101.5 16t57.5 64q6 11 54 120h12l-12 -185q-89 -37 -219 -37zM249 728
l-3 7l128 105q17 16 38 16q20 0 32 -13.5t12 -32.5q0 -36 -41 -44z" />
    <glyph glyph-name="cacute" unicode="&#x107;" horiz-adv-x="451" 
d="M183 574l-4 7l113 107q21 18 40 18t32 -13.5t13 -33.5q0 -35 -38 -45zM251 -12q-106 0 -167.5 66.5t-61.5 185.5q0 71 25 128t64.5 90.5t85 51t90.5 17.5q71 0 109 -24t38 -65q0 -51 -55 -51q-26 0 -38 14t-17 47q-7 34 -15.5 44.5t-38.5 10.5q-59 0 -99.5 -58.5
t-40.5 -167.5q0 -235 172 -235q70 0 129 34v-12q-24 -30 -73 -53t-107 -23z" />
    <glyph glyph-name="Ccircumflex" unicode="&#x108;" horiz-adv-x="596" 
d="M205 723l-6 7l118 124h37l117 -124l-5 -7l-130 53zM333 -10q-142 0 -225 86t-83 265q0 96 28 168t77 113t108 61t129 20q99 0 179 -23l13 -187h-12q-41 86 -57 113q-26 45 -53 60t-80 15q-97 0 -154 -79t-57 -242q0 -180 48.5 -264t144.5 -84q69 0 101.5 16t57.5 64
q6 11 54 120h12l-12 -185q-89 -37 -219 -37z" />
    <glyph glyph-name="ccircumflex" unicode="&#x109;" horiz-adv-x="451" 
d="M240 712h36l106 -135l-5 -7l-119 62l-118 -62l-5 7zM251 -12q-106 0 -167.5 66.5t-61.5 185.5q0 71 25 128t64.5 90.5t85 51t90.5 17.5q71 0 109 -24t38 -65q0 -51 -55 -51q-26 0 -38 14t-17 47q-7 34 -15.5 44.5t-38.5 10.5q-59 0 -99.5 -58.5t-40.5 -167.5
q0 -235 172 -235q70 0 129 34v-12q-24 -30 -73 -53t-107 -23z" />
    <glyph glyph-name="Cdotaccent" unicode="&#x10a;" horiz-adv-x="596" 
d="M333 -10q-142 0 -225 86t-83 265q0 96 28 168t77 113t108 61t129 20q99 0 179 -23l13 -187h-12q-41 86 -57 113q-26 45 -53 60t-80 15q-97 0 -154 -79t-57 -242q0 -180 48.5 -264t144.5 -84q69 0 101.5 16t57.5 64q6 11 54 120h12l-12 -185q-89 -37 -219 -37zM344 732
q-26 0 -45 17.5t-19 42.5t19 42.5t45 17.5t43.5 -17.5t17.5 -42.5t-18 -42.5t-43 -17.5z" />
    <glyph glyph-name="cdotaccent" unicode="&#x10b;" horiz-adv-x="451" 
d="M251 -12q-106 0 -167.5 66.5t-61.5 185.5q0 71 25 128t64.5 90.5t85 51t90.5 17.5q71 0 109 -24t38 -65q0 -51 -55 -51q-26 0 -38 14t-17 47q-7 34 -15.5 44.5t-38.5 10.5q-59 0 -99.5 -58.5t-40.5 -167.5q0 -235 172 -235q70 0 129 34v-12q-24 -30 -73 -53t-107 -23z
M200 639q0 26 18.5 43.5t44.5 17.5t44.5 -17.5t18.5 -43.5t-18.5 -43.5t-44.5 -17.5t-44.5 17.5t-18.5 43.5z" />
    <glyph glyph-name="Ccaron" unicode="&#x10c;" horiz-adv-x="596" 
d="M206 852l6 7l131 -53l130 53l5 -7l-117 -124h-37zM333 -10q-142 0 -225 86t-83 265q0 96 28 168t77 113t108 61t129 20q99 0 179 -23l13 -187h-12q-41 86 -57 113q-26 45 -53 60t-80 15q-97 0 -154 -79t-57 -242q0 -180 48.5 -264t144.5 -84q69 0 101.5 16t57.5 64
q6 11 54 120h12l-12 -185q-89 -37 -219 -37z" />
    <glyph glyph-name="ccaron" unicode="&#x10d;" horiz-adv-x="451" 
d="M279 576h-36l-105 135l5 7l118 -61l119 61l5 -7zM251 -12q-106 0 -167.5 66.5t-61.5 185.5q0 71 25 128t64.5 90.5t85 51t90.5 17.5q71 0 109 -24t38 -65q0 -51 -55 -51q-26 0 -38 14t-17 47q-7 34 -15.5 44.5t-38.5 10.5q-59 0 -99.5 -58.5t-40.5 -167.5
q0 -235 172 -235q70 0 129 34v-12q-24 -30 -73 -53t-107 -23z" />
    <glyph glyph-name="Dcaron" unicode="&#x10e;" horiz-adv-x="677" 
d="M187 852l6 7l131 -53l130 53l5 -7l-117 -124h-37zM12 0v11l37 7q27 5 33.5 14.5t6.5 47.5v533q0 38 -6.5 47.5t-33.5 14.5l-37 7v11h306q153 0 243.5 -80t90.5 -259q0 -171 -93 -262.5t-248 -91.5h-299zM304 22q124 0 175.5 81.5t51.5 230.5q0 178 -53 257t-176 79
q-67 0 -98 -8v-564q0 -48 17.5 -62t82.5 -14z" />
    <glyph glyph-name="dcaron" unicode="&#x10f;" horiz-adv-x="564" 
d="M229 -10q-90 0 -147.5 57.5t-57.5 186.5q0 140 81.5 216.5t194.5 76.5q46 0 88 -14v143q0 28 -5.5 37.5t-24.5 18.5l-40 19v8l173 16l6 -2q-4 -47 -4 -123v-544q0 -29 6.5 -38.5t32.5 -18.5l27 -9v-9l-163 -21l-8 4l2 56h-3q-75 -60 -158 -60zM283 41q62 0 105 30v390
q-30 44 -95 44q-76 0 -118.5 -60.5t-42.5 -184.5q0 -110 39 -164.5t112 -54.5zM542 585l-8 2l4 129q0 43 37 43q19 0 31 -10.5t13 -26.5q0 -15 -13 -36z" />
    <glyph glyph-name="Dcroat" unicode="&#x110;" horiz-adv-x="677" 
d="M19 339v25h70v249q0 38 -6.5 47.5t-33.5 14.5l-37 7v11h306q153 0 243.5 -80t90.5 -259q0 -171 -93 -262.5t-248 -91.5h-299v11l37 7q27 5 33.5 14.5t6.5 47.5v259h-70zM304 22q124 0 175.5 81.5t51.5 230.5q0 178 -53 257t-176 79q-67 0 -98 -8v-298h178v-25h-178v-241
q0 -48 17.5 -62t82.5 -14z" />
    <glyph glyph-name="dcroat" unicode="&#x111;" horiz-adv-x="564" 
d="M492 608l1 -522q0 -29 6.5 -38.5t32.5 -18.5l27 -9v-9l-163 -21l-8 4l2 56h-3q-75 -60 -158 -60q-90 0 -147.5 57.5t-57.5 186.5q0 140 81.5 216.5t194.5 76.5q46 0 88 -14v95h-166v25h166v25q0 27 -5.5 36t-24.5 18l-40 19v8l173 16l6 -2q-5 -46 -5 -120h66v-25h-66z
M283 41q62 0 105 30v390q-30 44 -95 44q-76 0 -118.5 -60.5t-42.5 -184.5q0 -110 39 -164.5t112 -54.5z" />
    <glyph glyph-name="Emacron" unicode="&#x112;" horiz-adv-x="564" 
d="M408 480v-240h-11q-11 48 -24 74q-10 22 -29 28t-82 6h-58v-245q0 -22 0.5 -32.5t5.5 -21.5t11 -15t22 -7t33.5 -3.5t50.5 -0.5q69 0 93 9.5t48 41.5q23 34 61 136h12l-14 -210h-515v11l37 7q27 6 33.5 15.5t6.5 46.5v533q0 38 -6 47t-34 15l-37 7v11h495l11 -175h-11
q-31 73 -49 102q-21 32 -47 41t-95 9q-68 0 -112 -9v-290h58q62 0 81 6t30 29q12 21 24 74h11zM178 754v46h243v-46h-243z" />
    <glyph glyph-name="emacron" unicode="&#x113;" horiz-adv-x="487" 
d="M270 -12q-126 0 -187.5 69.5t-61.5 194.5q0 121 71 198t172 77q204 0 203 -237h-338v-8q0 -238 178 -238q85 0 147 36v-13q-30 -34 -78 -56.5t-106 -22.5zM260 506q-57 0 -92 -48.5t-39 -148.5l231 9q0 99 -23 143.5t-77 44.5zM141 605v45h226v-45h-226z" />
    <glyph glyph-name="Ebreve" unicode="&#x114;" horiz-adv-x="564" 
d="M408 480v-240h-11q-11 48 -24 74q-10 22 -29 28t-82 6h-58v-245q0 -22 0.5 -32.5t5.5 -21.5t11 -15t22 -7t33.5 -3.5t50.5 -0.5q69 0 93 9.5t48 41.5q23 34 61 136h12l-14 -210h-515v11l37 7q27 6 33.5 15.5t6.5 46.5v533q0 38 -6 47t-34 15l-37 7v11h495l11 -175h-11
q-31 73 -49 102q-21 32 -47 41t-95 9q-68 0 -112 -9v-290h58q62 0 81 6t30 29q12 21 24 74h11zM301 730q-104 0 -116 124l8 2q28 -59 107 -59q43 0 66.5 15t38.5 44l7 -2q-3 -53 -31 -88.5t-80 -35.5z" />
    <glyph glyph-name="ebreve" unicode="&#x115;" horiz-adv-x="487" 
d="M270 -12q-126 0 -187.5 69.5t-61.5 194.5q0 121 71 198t172 77q204 0 203 -237h-338v-8q0 -238 178 -238q85 0 147 36v-13q-30 -34 -78 -56.5t-106 -22.5zM260 506q-57 0 -92 -48.5t-39 -148.5l231 9q0 99 -23 143.5t-77 44.5zM261 579q-104 0 -111 124l8 2
q23 -60 102 -60q72 0 99 60l8 -2q-2 -55 -29.5 -89.5t-76.5 -34.5z" />
    <glyph glyph-name="Edotaccent" unicode="&#x116;" horiz-adv-x="564" 
d="M296 732q-26 0 -45 17.5t-19 42.5t19 42.5t45 17.5t43.5 -17.5t17.5 -42.5t-18 -42.5t-43 -17.5zM408 480v-240h-11q-11 48 -24 74q-10 22 -29 28t-82 6h-58v-245q0 -22 0.5 -32.5t5.5 -21.5t11 -15t22 -7t33.5 -3.5t50.5 -0.5q69 0 93 9.5t48 41.5q23 34 61 136h12
l-14 -210h-515v11l37 7q27 6 33.5 15.5t6.5 46.5v533q0 38 -6 47t-34 15l-37 7v11h495l11 -175h-11q-31 73 -49 102q-21 32 -47 41t-95 9q-68 0 -112 -9v-290h58q62 0 81 6t30 29q12 21 24 74h11z" />
    <glyph glyph-name="edotaccent" unicode="&#x117;" horiz-adv-x="487" 
d="M270 -12q-126 0 -187.5 69.5t-61.5 194.5q0 121 71 198t172 77q204 0 203 -237h-338v-8q0 -238 178 -238q85 0 147 36v-13q-30 -34 -78 -56.5t-106 -22.5zM260 506q-57 0 -92 -48.5t-39 -148.5l231 9q0 99 -23 143.5t-77 44.5zM192 639q0 26 18.5 43.5t44.5 17.5
t44.5 -17.5t18.5 -43.5t-18.5 -43.5t-44.5 -17.5t-44.5 17.5t-18.5 43.5z" />
    <glyph glyph-name="Eogonek" unicode="&#x118;" horiz-adv-x="564" 
d="M430 0h-418v11l37 7q27 6 33.5 15.5t6.5 46.5v533q0 38 -6 47t-34 15l-37 7v11h495l11 -175h-11q-31 73 -49 102q-21 32 -47 41t-95 9q-68 0 -112 -9v-290h58q62 0 81 6t30 29q12 21 24 74h11v-240h-11q-11 48 -24 74q-10 22 -29 28t-82 6h-58v-245q0 -22 0.5 -32.5
t5.5 -21.5t11 -15t22 -7t33.5 -3.5t50.5 -0.5q69 0 93 9.5t48 41.5q23 34 61 136h12l-14 -210h-81q-54 -62 -54 -119q0 -49 53 -49q22 0 38 7v-10q-24 -32 -78 -32q-45 0 -69.5 20t-24.5 54q0 69 119 129z" />
    <glyph glyph-name="eogonek" unicode="&#x119;" horiz-adv-x="487" 
d="M213 -132q0 70 125 128q-34 -8 -67 -8q-127 0 -188.5 71t-61.5 198q0 120 71.5 195t172.5 75q203 0 202 -237h-338v-12q1 -234 178 -234q86 0 148 36v-13q-10 -10 -78 -63q-85 -63 -85 -122q0 -50 55 -50q21 0 37 7v-10q-27 -32 -79 -32q-45 0 -68.5 20.5t-23.5 50.5z
M261 506q-57 0 -92 -49.5t-39 -149.5l231 8q0 101 -23 146t-77 45z" />
    <glyph glyph-name="Ecaron" unicode="&#x11a;" horiz-adv-x="564" 
d="M163 852l6 7l131 -53l130 53l5 -7l-117 -124h-37zM408 480v-240h-11q-11 48 -24 74q-10 22 -29 28t-82 6h-58v-245q0 -22 0.5 -32.5t5.5 -21.5t11 -15t22 -7t33.5 -3.5t50.5 -0.5q69 0 93 9.5t48 41.5q23 34 61 136h12l-14 -210h-515v11l37 7q27 6 33.5 15.5t6.5 46.5
v533q0 38 -6 47t-34 15l-37 7v11h495l11 -175h-11q-31 73 -49 102q-21 32 -47 41t-95 9q-68 0 -112 -9v-290h58q62 0 81 6t30 29q12 21 24 74h11z" />
    <glyph glyph-name="ecaron" unicode="&#x11b;" horiz-adv-x="487" 
d="M270 -12q-126 0 -187.5 69.5t-61.5 194.5q0 121 71 198t172 77q204 0 203 -237h-338v-8q0 -238 178 -238q85 0 147 36v-13q-30 -34 -78 -56.5t-106 -22.5zM260 506q-57 0 -92 -48.5t-39 -148.5l231 9q0 99 -23 143.5t-77 44.5zM274 576h-36l-105 135l5 7l118 -61l119 61
l5 -7z" />
    <glyph glyph-name="Gcircumflex" unicode="&#x11c;" horiz-adv-x="643" 
d="M223 723l-6 7l118 124h37l117 -124l-5 -7l-130 53zM360 -10q-163 0 -249 88t-86 262q0 82 20.5 146t54 104t79.5 66t94 36.5t102 10.5q115 0 189 -24l10 -184h-11q-37 86 -62 121q-26 36 -55.5 50.5t-80.5 14.5q-221 0 -221 -317q0 -179 49.5 -265.5t162.5 -86.5
q75 0 120 28v160q0 38 -6 47.5t-34 14.5l-38 7v11h252v-11l-36 -7q-18 -3 -22.5 -12.5t-4.5 -41.5v-180q-102 -38 -227 -38z" />
    <glyph glyph-name="gcircumflex" unicode="&#x11d;" horiz-adv-x="483" 
d="M212 712h36l106 -135l-5 -7l-119 62l-118 -62l-5 7zM204 -195q-98 0 -151.5 28.5t-53.5 82.5q0 79 112 110v2q-71 14 -71 78q0 33 21 61.5t53 45.5v3q-39 19 -62 54t-23 80q0 84 58 130.5t136 46.5q69 0 115 -29q53 50 98 50q53 0 53 -48q0 -40 -40 -40q-27 0 -36 26
q-16 38 -61 4v-2q67 -41 67 -128q0 -82 -58 -126t-138 -44q-55 0 -92 17q-32 -23 -32 -54q0 -37 60 -37h166q148 0 148 -122q0 -73 -69 -131t-200 -58zM221 -173q79 0 129 31t50 89q0 40 -23.5 58t-76.5 18h-164q-51 -24 -51 -92q0 -104 136 -104zM223 208q47 0 70 33
t23 107q0 83 -23 120.5t-70 37.5t-69.5 -34t-22.5 -109q0 -82 22.5 -118.5t69.5 -36.5z" />
    <glyph glyph-name="Gbreve" unicode="&#x11e;" horiz-adv-x="643" 
d="M354 730q-104 0 -116 124l8 2q28 -59 107 -59q43 0 66.5 15t38.5 44l7 -2q-3 -53 -31 -88.5t-80 -35.5zM360 -10q-163 0 -249 88t-86 262q0 82 20.5 146t54 104t79.5 66t94 36.5t102 10.5q115 0 189 -24l10 -184h-11q-37 86 -62 121q-26 36 -55.5 50.5t-80.5 14.5
q-221 0 -221 -317q0 -179 49.5 -265.5t162.5 -86.5q75 0 120 28v160q0 38 -6 47.5t-34 14.5l-38 7v11h252v-11l-36 -7q-18 -3 -22.5 -12.5t-4.5 -41.5v-180q-102 -38 -227 -38z" />
    <glyph glyph-name="gbreve" unicode="&#x11f;" horiz-adv-x="483" 
d="M204 -195q-98 0 -151.5 28.5t-53.5 82.5q0 79 112 110v2q-71 14 -71 78q0 33 21 61.5t53 45.5v3q-39 19 -62 54t-23 80q0 84 58 130.5t136 46.5q69 0 115 -29q53 50 98 50q53 0 53 -48q0 -40 -40 -40q-27 0 -36 26q-16 38 -61 4v-2q67 -41 67 -128q0 -82 -58 -126
t-138 -44q-55 0 -92 17q-32 -23 -32 -54q0 -37 60 -37h166q148 0 148 -122q0 -73 -69 -131t-200 -58zM221 -173q79 0 129 31t50 89q0 40 -23.5 58t-76.5 18h-164q-51 -24 -51 -92q0 -104 136 -104zM223 208q47 0 70 33t23 107q0 83 -23 120.5t-70 37.5t-69.5 -34t-22.5 -109
q0 -82 22.5 -118.5t69.5 -36.5zM236 579q-104 0 -111 124l8 2q23 -60 102 -60q72 0 99 60l8 -2q-2 -55 -29.5 -89.5t-76.5 -34.5z" />
    <glyph glyph-name="Gdotaccent" unicode="&#x120;" horiz-adv-x="643" 
d="M355 732q-26 0 -45 17.5t-19 42.5t19 42.5t45 17.5t43.5 -17.5t17.5 -42.5t-18 -42.5t-43 -17.5zM360 -10q-163 0 -249 88t-86 262q0 82 20.5 146t54 104t79.5 66t94 36.5t102 10.5q115 0 189 -24l10 -184h-11q-37 86 -62 121q-26 36 -55.5 50.5t-80.5 14.5
q-221 0 -221 -317q0 -179 49.5 -265.5t162.5 -86.5q75 0 120 28v160q0 38 -6 47.5t-34 14.5l-38 7v11h252v-11l-36 -7q-18 -3 -22.5 -12.5t-4.5 -41.5v-180q-102 -38 -227 -38z" />
    <glyph glyph-name="gdotaccent" unicode="&#x121;" horiz-adv-x="483" 
d="M204 -195q-98 0 -151.5 28.5t-53.5 82.5q0 79 112 110v2q-71 14 -71 78q0 33 21 61.5t53 45.5v3q-39 19 -62 54t-23 80q0 84 58 130.5t136 46.5q69 0 115 -29q53 50 98 50q53 0 53 -48q0 -40 -40 -40q-27 0 -36 26q-16 38 -61 4v-2q67 -41 67 -128q0 -82 -58 -126
t-138 -44q-55 0 -92 17q-32 -23 -32 -54q0 -37 60 -37h166q148 0 148 -122q0 -73 -69 -131t-200 -58zM221 -173q79 0 129 31t50 89q0 40 -23.5 58t-76.5 18h-164q-51 -24 -51 -92q0 -104 136 -104zM223 208q47 0 70 33t23 107q0 83 -23 120.5t-70 37.5t-69.5 -34t-22.5 -109
q0 -82 22.5 -118.5t69.5 -36.5zM161 639q0 26 18.5 43.5t44.5 17.5t44.5 -17.5t18.5 -43.5t-18.5 -43.5t-44.5 -17.5t-44.5 17.5t-18.5 43.5z" />
    <glyph glyph-name="Gcommaaccent" unicode="&#x122;" horiz-adv-x="643" 
d="M272 -220l-3 7q73 31 81 87q-11 -11 -32 -11q-19 0 -30.5 12.5t-11.5 30.5q0 19 15 33.5t39 14.5q27 0 44.5 -17t17.5 -46q0 -41 -32.5 -72t-87.5 -39zM360 -10q-163 0 -249 88t-86 262q0 82 20.5 146t54 104t79.5 66t94 36.5t102 10.5q115 0 189 -24l10 -184h-11
q-37 86 -62 121q-26 36 -55.5 50.5t-80.5 14.5q-221 0 -221 -317q0 -179 49.5 -265.5t162.5 -86.5q75 0 120 28v160q0 38 -6 47.5t-34 14.5l-38 7v11h252v-11l-36 -7q-18 -3 -22.5 -12.5t-4.5 -41.5v-180q-102 -38 -227 -38z" />
    <glyph glyph-name="gcommaaccent" unicode="&#x123;" horiz-adv-x="483" 
d="M288 748l3 -7q-74 -31 -80 -87q9 11 31 11q19 0 30.5 -12.5t11.5 -30.5q0 -19 -14.5 -34t-39.5 -15q-27 0 -44.5 17.5t-17.5 46.5q0 41 33 72t87 39zM204 -195q-98 0 -151.5 28.5t-53.5 82.5q0 79 112 110v2q-71 14 -71 78q0 33 21 61.5t53 45.5v3q-39 19 -62 54t-23 80
q0 84 58 130.5t136 46.5q69 0 115 -29q53 50 98 50q53 0 53 -48q0 -40 -40 -40q-27 0 -36 26q-16 38 -61 4v-2q67 -41 67 -128q0 -82 -58 -126t-138 -44q-55 0 -92 17q-32 -23 -32 -54q0 -37 60 -37h166q148 0 148 -122q0 -73 -69 -131t-200 -58zM221 -173q79 0 129 31
t50 89q0 40 -23.5 58t-76.5 18h-164q-51 -24 -51 -92q0 -104 136 -104zM223 208q47 0 70 33t23 107q0 83 -23 120.5t-70 37.5t-69.5 -34t-22.5 -109q0 -82 22.5 -118.5t69.5 -36.5z" />
    <glyph glyph-name="Hcircumflex" unicode="&#x124;" horiz-adv-x="707" 
d="M12 0v11l37 7q27 5 33.5 14.5t6.5 47.5v533q0 38 -6.5 47.5t-33.5 14.5l-37 7v11h268v-11l-35 -7q-29 -6 -35 -15t-6 -47v-247h300v247q0 38 -6.5 47t-34.5 15l-36 7v11h269v-11l-38 -7q-27 -5 -33 -14.5t-6 -47.5v-533q0 -38 6 -47.5t33 -14.5l38 -7v-11h-269v11l36 7
q28 6 34.5 15t6.5 47v262h-300v-262q0 -38 6 -47t35 -15l35 -7v-11h-268zM224 723l-6 7l118 124h37l117 -124l-5 -7l-130 53z" />
    <glyph glyph-name="hcircumflex" unicode="&#x125;" horiz-adv-x="564" 
d="M364 527q69 0 100 -32.5t31 -101.5v-325q0 -29 5.5 -36.5t31.5 -14.5l29 -7v-10h-235v10l28 6q25 7 31 14.5t6 37.5v309q0 51 -18 72t-61 21q-58 0 -134 -28v-374q0 -30 6 -37.5t31 -14.5l28 -6v-10h-234v10l28 7q25 7 30.5 14.5t5.5 36.5v588q0 31 -6 40.5t-32 20.5
l-31 14v8l172 16l6 -2q-4 -56 -4 -123v-169h2q98 66 184 66zM74 774l-6 7l118 124h37l117 -124l-5 -7l-130 53z" />
    <glyph glyph-name="Hbar" unicode="&#x126;" horiz-adv-x="707" 
d="M13 503v21h76v89q0 38 -6.5 47.5t-33.5 14.5l-37 7v11h268v-11l-35 -7q-29 -6 -35 -15t-6 -47v-89h300v89q0 38 -6.5 47t-34.5 15l-36 7v11h269v-11l-38 -7q-27 -5 -33 -14.5t-6 -47.5v-89h78v-21h-78v-423q0 -38 6 -47.5t33 -14.5l38 -7v-11h-269v11l36 7q28 6 34.5 15
t6.5 47v262h-300v-262q0 -38 6 -47t35 -15l35 -7v-11h-268v11l37 7q27 5 33.5 14.5t6.5 47.5v423h-76zM204 366h300v137h-300v-137z" />
    <glyph glyph-name="hbar" unicode="&#x127;" horiz-adv-x="565" 
d="M3 610v24h72v22q0 31 -6 40.5t-32 20.5l-31 14v8l172 16l6 -2q-4 -54 -4 -119h152v-24h-152v-149h2q98 66 184 66q69 0 100 -32.5t31 -101.5v-325q0 -29 5.5 -36.5t31.5 -14.5l29 -7v-10h-235v10l28 6q25 7 31 14.5t6 37.5v309q0 51 -18 72t-61 21q-58 0 -134 -28v-374
q0 -30 6 -37.5t31 -14.5l28 -6v-10h-234v10l28 7q25 7 30.5 14.5t5.5 36.5v542h-72z" />
    <glyph glyph-name="Itilde" unicode="&#x128;" horiz-adv-x="294" 
d="M12 0v11l38 7q27 5 33.5 14.5t6.5 47.5v533q0 38 -6.5 47.5t-33.5 14.5l-38 7v11h270v-11l-37 -7q-28 -5 -34.5 -14.5t-6.5 -47.5v-533q0 -38 6.5 -47.5t34.5 -14.5l37 -7v-11h-270zM216 747q-22 0 -73 12t-72 12q-20 0 -31 -8.5t-25 -31.5l-10 5q19 55 37.5 80.5
t51.5 25.5q21 0 71.5 -12t69.5 -12q37 0 61 41l10 -5q-18 -55 -37 -81t-53 -26z" />
    <glyph glyph-name="itilde" unicode="&#x129;" horiz-adv-x="253" 
d="M10 0v10l28 7q26 6 31.5 14t5.5 37v354q0 27 -6 35.5t-33 21.5l-26 15v8l168 22l5 -2q-4 -68 -4 -116v-338q0 -29 6.5 -37t33.5 -14l26 -7v-10h-235zM3 577l-10 4q10 29 17 44.5t17 32t22.5 23t28.5 6.5q19 0 62 -9t58 -9q21 0 33 8.5t25 30.5l10 -4q-11 -31 -17 -44.5
t-16.5 -30.5t-23.5 -23.5t-31 -6.5q-19 0 -61 8.5t-59 8.5q-20 0 -31.5 -9t-23.5 -30z" />
    <glyph glyph-name="Imacron" unicode="&#x12a;" horiz-adv-x="294" 
d="M12 0v11l38 7q27 5 33.5 14.5t6.5 47.5v533q0 38 -6.5 47.5t-33.5 14.5l-38 7v11h270v-11l-37 -7q-28 -5 -34.5 -14.5t-6.5 -47.5v-533q0 -38 6.5 -47.5t34.5 -14.5l37 -7v-11h-270zM26 754v46h243v-46h-243z" />
    <glyph glyph-name="imacron" unicode="&#x12b;" horiz-adv-x="253" 
d="M10 0v12l28 8q26 7 31.5 16.5t5.5 43.5v336q0 30 -6.5 39.5t-32.5 22.5l-26 15v9l168 22l5 -2q0 -2 -1 -17t-2 -42t-1 -57v-326q0 -33 6 -43t32 -17l26 -8v-12h-233zM5 605v45h219v-45h-219z" />
    <glyph glyph-name="Ibreve" unicode="&#x12c;" horiz-adv-x="294" 
d="M12 0v11l38 7q27 5 33.5 14.5t6.5 47.5v533q0 38 -6.5 47.5t-33.5 14.5l-38 7v11h270v-11l-37 -7q-28 -5 -34.5 -14.5t-6.5 -47.5v-533q0 -38 6.5 -47.5t34.5 -14.5l37 -7v-11h-270zM149 730q-104 0 -116 124l8 2q28 -59 107 -59q43 0 66.5 15t38.5 44l7 -2
q-3 -53 -31 -88.5t-80 -35.5z" />
    <glyph glyph-name="ibreve" unicode="&#x12d;" horiz-adv-x="253" 
d="M10 0v10l28 7q26 6 31.5 14t5.5 37v354q0 27 -6 35.5t-33 21.5l-26 15v8l168 22l5 -2q-4 -68 -4 -116v-338q0 -29 6.5 -37t33.5 -14l26 -7v-10h-235zM131 579q-104 0 -111 124l8 2q23 -60 102 -60q72 0 99 60l8 -2q-2 -55 -29.5 -89.5t-76.5 -34.5z" />
    <glyph glyph-name="Iogonek" unicode="&#x12e;" horiz-adv-x="294" 
d="M282 0h-63q-54 -62 -54 -119q0 -49 53 -49q22 0 38 7v-11q-27 -31 -78 -31q-45 0 -69.5 19t-24.5 53q0 71 119 131h-191v11l38 7q27 5 33.5 14.5t6.5 47.5v533q0 38 -6.5 47.5t-33.5 14.5l-38 7v11h270v-11l-37 -7q-28 -5 -34.5 -14.5t-6.5 -47.5v-533q0 -38 6.5 -47.5
t34.5 -14.5l37 -7v-11z" />
    <glyph glyph-name="iogonek" unicode="&#x12f;" horiz-adv-x="253" 
d="M62 656q0 25 17.5 42t43.5 17t43.5 -17t17.5 -42q0 -26 -17.5 -42.5t-43.5 -16.5t-43.5 16.5t-17.5 42.5zM156 0h-146v10l28 7q26 6 31.5 14t5.5 37v354q0 27 -6 35.5t-33 21.5l-26 15v8l168 22l5 -2q-4 -68 -4 -116v-338q0 -29 6.5 -37t33.5 -14l26 -7v-10h-73
q-54 -62 -54 -119q0 -49 54 -49q20 0 38 7v-10q-28 -32 -78 -32q-46 0 -70.5 20t-24.5 54q0 66 119 129z" />
    <glyph glyph-name="Idotaccent" unicode="&#x130;" horiz-adv-x="294" 
d="M12 0v11l38 7q27 5 33.5 14.5t6.5 47.5v533q0 38 -6.5 47.5t-33.5 14.5l-38 7v11h270v-11l-37 -7q-28 -5 -34.5 -14.5t-6.5 -47.5v-533q0 -38 6.5 -47.5t34.5 -14.5l37 -7v-11h-270zM148 732q-26 0 -45 17.5t-19 42.5t19 42.5t45 17.5t43.5 -17.5t17.5 -42.5t-18 -42.5
t-43 -17.5z" />
    <glyph glyph-name="dotlessi" unicode="&#x131;" horiz-adv-x="253" 
d="M10 0v10l28 7q26 6 31.5 14t5.5 37v354q0 27 -6 35.5t-33 21.5l-26 15v8l168 22l5 -2q-4 -68 -4 -116v-338q0 -29 6.5 -37t33.5 -14l26 -7v-10h-235z" />
    <glyph glyph-name="IJ" unicode="&#x132;" horiz-adv-x="689" 
d="M12 0v11l38 7q27 5 33.5 14.5t6.5 47.5v533q0 38 -6.5 47.5t-33.5 14.5l-38 7v11h270v-11l-37 -7q-28 -5 -34.5 -14.5t-6.5 -47.5v-533q0 -38 6.5 -47.5t34.5 -14.5l37 -7v-11h-270zM408 -10q-55 0 -85.5 20t-30.5 54q0 25 14.5 40t42.5 15q30 0 44.5 -17.5t18.5 -61.5
q2 -27 23 -27q57 0 57 150v450q0 38 -6 48t-33 14l-38 7v11h269v-11l-37 -7q-27 -5 -33.5 -14.5t-6.5 -47.5v-397q0 -103 -49.5 -164.5t-149.5 -61.5z" />
    <glyph glyph-name="ij" unicode="&#x133;" horiz-adv-x="484" 
d="M10 0v10l28 7q26 6 31.5 14t5.5 37v354q0 27 -6 35.5t-33 21.5l-26 15v8l168 22l5 -2q-4 -68 -4 -116v-338q0 -29 6.5 -37t33.5 -14l26 -7v-10h-235zM62 656q0 25 17.5 42t43.5 17t43.5 -17t17.5 -42q0 -26 -17.5 -42.5t-43.5 -16.5t-43.5 16.5t-17.5 42.5zM423 407v-398
q0 -98 -46.5 -152.5t-122.5 -54.5q-48 0 -72.5 17.5t-24.5 48.5q0 21 13.5 34t36.5 13t35.5 -13.5t16.5 -47.5q2 -19 6.5 -25.5t13.5 -6.5q17 0 28.5 21t11.5 60v519q0 28 -6 36.5t-33 21.5l-26 14v8l168 22l5 -2q-4 -60 -4 -115zM304 656q0 25 17.5 42t43.5 17t43.5 -17
t17.5 -42q0 -26 -17.5 -42.5t-43.5 -16.5t-43.5 16.5t-17.5 42.5z" />
    <glyph glyph-name="Jcircumflex" unicode="&#x134;" horiz-adv-x="397" 
d="M124 723l-6 7l118 124h37l117 -124l-5 -7l-130 53zM116 -10q-55 0 -85 20.5t-30 53.5q0 25 14.5 39t40.5 14q29 0 44 -17t19 -60q5 -27 23 -27q58 0 58 150v450q0 38 -6 48t-33 14l-38 7v11h269v-11l-37 -7q-27 -5 -33.5 -14.5t-6.5 -47.5v-397q0 -102 -49.5 -164
t-149.5 -62z" />
    <glyph glyph-name="jcircumflex" unicode="&#x135;" horiz-adv-x="234" 
d="M100 712h36l106 -135l-5 -7l-119 62l-118 -62l-5 7zM173 407v-398q0 -98 -46.5 -152.5t-122.5 -54.5q-48 0 -72.5 17.5t-24.5 48.5q0 21 13.5 34t36.5 13t35.5 -13.5t16.5 -47.5q2 -19 6.5 -25.5t13.5 -6.5q17 0 28.5 21t11.5 60v519q0 28 -6 36.5t-33 21.5l-26 14v8
l168 22l5 -2q-4 -60 -4 -115z" />
    <glyph glyph-name="Kcommaaccent" unicode="&#x136;" horiz-adv-x="623" 
d="M468 0q-143 163 -234 343v8l203 241q25 28 25 51q0 21 -37 30l-33 9v11h213v-11l-22 -6q-28 -8 -48.5 -22.5t-54.5 -53.5l-163 -191q51 -93 122.5 -196.5t124.5 -161.5q15 -16 25 -23.5t27 -11.5l18 -5v-11h-166zM12 0v11l37 7q27 5 33.5 14.5t6.5 47.5v533
q0 38 -6.5 47.5t-33.5 14.5l-37 7v11h268v-11l-35 -7q-28 -5 -34.5 -14.5t-6.5 -47.5v-533q0 -38 6 -47t35 -15l35 -7v-11h-268zM254 -220l-3 7q73 31 81 87q-11 -11 -32 -11q-19 0 -30.5 12.5t-11.5 30.5q0 19 15 33.5t39 14.5q27 0 44.5 -17t17.5 -46q0 -41 -32.5 -72
t-87.5 -39z" />
    <glyph glyph-name="kcommaaccent" unicode="&#x137;" horiz-adv-x="518" 
d="M381 0q-89 96 -187 253v4l114 127q52 58 52 82q0 18 -34 29l-15 5v10h183v-11l-19 -6q-31 -10 -49.5 -22.5t-43.5 -39.5l-109 -119q101 -164 199 -270q17 -20 40 -28l12 -4v-10h-143zM178 630v-559q0 -32 6 -40.5t31 -14.5l27 -6v-10h-233v10l28 7q25 6 30.5 14t5.5 40
v588q0 29 -6 38t-32 20l-31 14v8l172 16l6 -2q-4 -56 -4 -123zM209 -220l-3 7q73 31 81 87q-11 -11 -32 -11q-19 0 -30.5 12.5t-11.5 30.5q0 19 15 33.5t39 14.5q27 0 44.5 -17t17.5 -46q0 -41 -32.5 -72t-87.5 -39z" />
    <glyph glyph-name="Lacute" unicode="&#x139;" horiz-adv-x="538" 
d="M60 728l-3 7l128 105q17 16 38 16q20 0 32 -13.5t12 -32.5q0 -36 -41 -44zM12 0v11l37 7q27 5 33.5 15t6.5 47v533q0 38 -6.5 47.5t-33.5 14.5l-37 7v11h270v-11l-37 -7q-28 -5 -34.5 -14.5t-6.5 -47.5v-523q0 -44 16.5 -56t88.5 -12q71 0 96.5 10.5t46.5 47.5
q28 51 59 138h13l-14 -218h-498z" />
    <glyph glyph-name="lacute" unicode="&#x13a;" horiz-adv-x="251" 
d="M33 781l-3 7l128 105q17 16 38 16q20 0 32 -13.5t12 -32.5q0 -36 -41 -44zM178 630v-559q0 -29 7.5 -38.5t32.5 -15.5l26 -7v-10h-235v10l28 7q25 6 31 15t6 39v585q0 30 -6 40t-33 21l-31 14v8l172 16l6 -2q-4 -56 -4 -123z" />
    <glyph glyph-name="Lcommaaccent" unicode="&#x13b;" horiz-adv-x="538" 
d="M228 -220l-3 7q73 31 81 87q-11 -11 -32 -11q-19 0 -30.5 12.5t-11.5 30.5q0 19 15 33.5t39 14.5q27 0 44.5 -17t17.5 -46q0 -41 -32.5 -72t-87.5 -39zM12 0v11l37 7q27 5 33.5 15t6.5 47v533q0 38 -6.5 47.5t-33.5 14.5l-37 7v11h270v-11l-37 -7q-28 -5 -34.5 -14.5
t-6.5 -47.5v-523q0 -44 16.5 -56t88.5 -12q71 0 96.5 10.5t46.5 47.5q28 51 59 138h13l-14 -218h-498z" />
    <glyph glyph-name="lcommaaccent" unicode="&#x13c;" horiz-adv-x="251" 
d="M62 -220l-3 7q73 31 81 87q-11 -11 -32 -11q-19 0 -30.5 12.5t-11.5 30.5q0 19 15 33.5t39 14.5q27 0 44.5 -17t17.5 -46q0 -41 -32.5 -72t-87.5 -39zM178 630v-559q0 -29 7.5 -38.5t32.5 -15.5l26 -7v-10h-235v10l28 7q25 6 31 15t6 39v585q0 30 -6 40t-33 21l-31 14v8
l172 16l6 -2q-4 -56 -4 -123z" />
    <glyph glyph-name="Lcaron" unicode="&#x13d;" horiz-adv-x="538" 
d="M329 533l-8 2l4 129q0 43 37 43q19 0 31 -10.5t13 -26.5q0 -15 -13 -36zM12 0v11l37 7q27 5 33.5 15t6.5 47v533q0 38 -6.5 47.5t-33.5 14.5l-37 7v11h270v-11l-37 -7q-28 -5 -34.5 -14.5t-6.5 -47.5v-523q0 -44 16.5 -56t88.5 -12q71 0 96.5 10.5t46.5 47.5
q28 51 59 138h13l-14 -218h-498z" />
    <glyph glyph-name="lcaron" unicode="&#x13e;" horiz-adv-x="251" 
d="M228 585l-8 2l4 129q0 43 37 43q19 0 31 -10.5t13 -26.5q0 -15 -13 -36zM178 630v-559q0 -29 7.5 -38.5t32.5 -15.5l26 -7v-10h-235v10l28 7q25 6 31 15t6 39v585q0 30 -6 40t-33 21l-31 14v8l172 16l6 -2q-4 -56 -4 -123z" />
    <glyph glyph-name="Ldot" unicode="&#x13f;" horiz-adv-x="538" 
d="M12 0v11l37 7q27 5 33.5 15t6.5 47v533q0 38 -6.5 47.5t-33.5 14.5l-37 7v11h270v-11l-37 -7q-28 -5 -34.5 -14.5t-6.5 -47.5v-523q0 -44 16.5 -56t88.5 -12q71 0 97.5 10.5t48.5 47.5q28 50 56 127h12l-13 -207h-498zM432 314q-26 0 -44 18t-18 44q0 27 18 44.5t44 17.5
t44.5 -17.5t18.5 -44.5q0 -26 -18.5 -44t-44.5 -18z" />
    <glyph glyph-name="ldot" unicode="&#x140;" horiz-adv-x="322" 
d="M178 630v-559q0 -29 7.5 -38.5t32.5 -15.5l26 -7v-10h-235v10l28 7q25 6 31 15t6 39v585q0 30 -6 40t-33 21l-31 14v8l172 16l6 -2q-4 -56 -4 -123zM217 380q0 26 17.5 43t42.5 17t42.5 -17t17.5 -43q0 -25 -17.5 -42.5t-42.5 -17.5t-42.5 17.5t-17.5 42.5z" />
    <glyph glyph-name="Lslash" unicode="&#x141;" horiz-adv-x="542" 
d="M12 261v24l81 33v295q0 38 -6.5 47.5t-33.5 14.5l-37 7v11h270v-11l-38 -7q-27 -5 -34 -14.5t-7 -47.5v-248l189 79v-24l-189 -79v-250q0 -45 16.5 -57t88.5 -12q71 0 97 10.5t47 47.5q28 51 59 138h13l-14 -218h-498v11l37 7q27 5 33.5 15t6.5 47v214z" />
    <glyph glyph-name="lslash" unicode="&#x142;" horiz-adv-x="251" 
d="M179 630v-170l75 42v-27l-75 -42v-362q0 -29 7 -38.5t32 -15.5l26 -7v-10h-235v10l28 7q25 6 31 15t6 39v303l-73 -41v27l73 41v255q0 30 -6 40t-33 21l-31 14v8l173 16l6 -2q-4 -56 -4 -123z" />
    <glyph glyph-name="Nacute" unicode="&#x143;" horiz-adv-x="653" 
d="M255 728l-3 7l128 105q17 16 38 16q20 0 32 -13.5t12 -32.5q0 -36 -41 -44zM528 -4l-408 624h-3v-521q0 -45 7 -58.5t35 -20.5l39 -9v-11h-186v11l38 9q25 7 32 20.5t7 57.5v515q0 34 -7.5 45.5t-32.5 16.5l-35 7v11h192l330 -506h3v407q0 45 -7 58.5t-34 20.5l-43 9v11
h187v-11l-36 -9q-25 -7 -32 -21t-7 -56v-600h-39z" />
    <glyph glyph-name="nacute" unicode="&#x144;" horiz-adv-x="565" 
d="M208 574l-4 7l113 107q21 18 40 18t32 -13.5t13 -33.5q0 -35 -38 -45zM10 0v10l28 7q26 6 31.5 14t5.5 37v355q0 27 -6 35t-32 22l-25 14v8l161 22l6 -2l-1 -63h1q104 68 186 68q70 0 101 -32.5t31 -101.5v-325q0 -29 5.5 -37t31.5 -14l28 -7v-10h-234v10l28 6
q25 6 30.5 14t5.5 38v307q0 52 -17 73t-61 21q-57 0 -135 -27v-374q0 -30 6 -38t31 -14l29 -6v-10h-235z" />
    <glyph glyph-name="Ncommaaccent" unicode="&#x145;" horiz-adv-x="653" 
d="M262 -220l-3 7q73 31 81 87q-11 -11 -32 -11q-19 0 -30.5 12.5t-11.5 30.5q0 19 15 33.5t39 14.5q27 0 44.5 -17t17.5 -46q0 -41 -32.5 -72t-87.5 -39zM528 -4l-408 624h-3v-521q0 -45 7 -58.5t35 -20.5l39 -9v-11h-186v11l38 9q25 7 32 20.5t7 57.5v515q0 34 -7.5 45.5
t-32.5 16.5l-35 7v11h192l330 -506h3v407q0 45 -7 58.5t-34 20.5l-43 9v11h187v-11l-36 -9q-25 -7 -32 -21t-7 -56v-600h-39z" />
    <glyph glyph-name="ncommaaccent" unicode="&#x146;" horiz-adv-x="565" 
d="M215 -220l-3 7q73 31 81 87q-11 -11 -32 -11q-19 0 -30.5 12.5t-11.5 30.5q0 19 15 33.5t39 14.5q27 0 44.5 -17t17.5 -46q0 -41 -32.5 -72t-87.5 -39zM10 0v10l28 7q26 6 31.5 14t5.5 37v355q0 27 -6 35t-32 22l-25 14v8l161 22l6 -2l-1 -63h1q104 68 186 68
q70 0 101 -32.5t31 -101.5v-325q0 -29 5.5 -37t31.5 -14l28 -7v-10h-234v10l28 6q25 6 30.5 14t5.5 38v307q0 52 -17 73t-61 21q-57 0 -135 -27v-374q0 -30 6 -38t31 -14l29 -6v-10h-235z" />
    <glyph glyph-name="Ncaron" unicode="&#x147;" horiz-adv-x="653" 
d="M203 852l6 7l131 -53l130 53l5 -7l-117 -124h-37zM528 -4l-408 624h-3v-521q0 -45 7 -58.5t35 -20.5l39 -9v-11h-186v11l38 9q25 7 32 20.5t7 57.5v515q0 34 -7.5 45.5t-32.5 16.5l-35 7v11h192l330 -506h3v407q0 45 -7 58.5t-34 20.5l-43 9v11h187v-11l-36 -9
q-25 -7 -32 -21t-7 -56v-600h-39z" />
    <glyph glyph-name="ncaron" unicode="&#x148;" horiz-adv-x="565" 
d="M295 576h-36l-105 135l5 7l118 -61l119 61l5 -7zM10 0v10l28 7q26 6 31.5 14t5.5 37v355q0 27 -6 35t-32 22l-25 14v8l161 22l6 -2l-1 -63h1q104 68 186 68q70 0 101 -32.5t31 -101.5v-325q0 -29 5.5 -37t31.5 -14l28 -7v-10h-234v10l28 6q25 6 30.5 14t5.5 38v307
q0 52 -17 73t-61 21q-57 0 -135 -27v-374q0 -30 6 -38t31 -14l29 -6v-10h-235z" />
    <glyph glyph-name="napostrophe" unicode="&#x149;" horiz-adv-x="579" 
d="M-43 519l-3 7q76 35 79 95q-10 -12 -32 -12q-19 0 -31 13t-12 33q0 21 15.5 36t40.5 15q28 0 45.5 -18.5t17.5 -50.5q0 -42 -32 -75t-88 -43zM24 0v10l28 7q26 6 31.5 14t5.5 37v355q0 27 -6 35t-32 22l-25 14v8l161 22l6 -2l-1 -63h1q104 68 186 68q70 0 101 -32.5
t31 -101.5v-325q0 -29 5.5 -37t31.5 -14l28 -7v-10h-234v10l28 6q25 6 30.5 14t5.5 38v307q0 52 -17 73t-61 21q-57 0 -135 -27v-374q0 -30 6 -38t31 -14l29 -6v-10h-235z" />
    <glyph glyph-name="Eng" unicode="&#x14a;" horiz-adv-x="653" 
d="M537 -17l-417 637h-3v-521q0 -45 7 -58.5t35 -20.5l39 -9v-11h-186v11l38 9q25 6 32 20t7 58v515q0 34 -7.5 45.5t-32.5 16.5l-35 7v11h192l330 -506h3v407q0 45 -7 58.5t-34 20.5l-43 9v11h187v-11l-36 -9q-25 -7 -32 -21t-7 -56v-596q0 -163 -135 -163q-48 0 -73 19
t-25 49q0 19 13.5 33t35.5 14q26 0 38.5 -13.5t19.5 -47.5q5 -28 24 -28q28 0 50 31.5t22 88.5z" />
    <glyph glyph-name="eng" unicode="&#x14b;" horiz-adv-x="563" 
d="M392 375q0 52 -17 73t-61 21q-57 0 -135 -27v-374q0 -30 6 -38t31 -14l29 -6v-10h-235v10l28 7q26 6 31.5 14t5.5 37v355q0 27 -6 35t-32 22l-25 14v8l161 22l6 -2l-1 -63h1q104 68 186 68q70 0 101 -32.5t31 -101.5v-381q0 -101 -48 -155.5t-121 -54.5q-46 0 -71.5 17
t-25.5 46q0 20 12.5 32.5t35.5 12.5q41 0 49 -58q5 -29 21 -29q19 0 31 20t12 60v472z" />
    <glyph glyph-name="Omacron" unicode="&#x14c;" horiz-adv-x="681" 
d="M219 754v46h243v-46h-243zM338 -10q-140 0 -226.5 89t-86.5 258q0 95 27 168t72.5 115t101 62.5t117.5 20.5q140 0 226.5 -90.5t86.5 -261.5q0 -76 -18 -138t-48 -103t-71 -68.5t-86 -39.5t-95 -12zM340 12q101 0 148 78t47 244q0 347 -194 347q-100 0 -147.5 -80
t-47.5 -247q0 -342 194 -342z" />
    <glyph glyph-name="omacron" unicode="&#x14d;" horiz-adv-x="546" 
d="M158 605v45h226v-45h-226zM273 -10q-110 0 -180.5 69t-70.5 197q0 126 74 198.5t177 72.5q110 0 180.5 -68.5t70.5 -197.5q0 -126 -74.5 -198.5t-176.5 -72.5zM277 10q69 0 102 57.5t33 180.5q0 136 -35 197t-106 61q-68 0 -102.5 -57.5t-34.5 -181.5q0 -136 35 -196.5
t108 -60.5z" />
    <glyph glyph-name="Obreve" unicode="&#x14e;" horiz-adv-x="681" 
d="M340 730q-104 0 -116 124l8 2q28 -59 107 -59q43 0 66.5 15t38.5 44l7 -2q-3 -53 -31 -88.5t-80 -35.5zM338 -10q-140 0 -226.5 89t-86.5 258q0 95 27 168t72.5 115t101 62.5t117.5 20.5q140 0 226.5 -90.5t86.5 -261.5q0 -76 -18 -138t-48 -103t-71 -68.5t-86 -39.5
t-95 -12zM340 12q101 0 148 78t47 244q0 347 -194 347q-100 0 -147.5 -80t-47.5 -247q0 -342 194 -342z" />
    <glyph glyph-name="obreve" unicode="&#x14f;" horiz-adv-x="546" 
d="M273 -10q-110 0 -180.5 69t-70.5 197q0 126 74 198.5t177 72.5q110 0 180.5 -68.5t70.5 -197.5q0 -126 -74.5 -198.5t-176.5 -72.5zM277 10q69 0 102 57.5t33 180.5q0 136 -35 197t-106 61q-68 0 -102.5 -57.5t-34.5 -181.5q0 -136 35 -196.5t108 -60.5zM273 579
q-104 0 -111 124l8 2q23 -60 102 -60q72 0 99 60l8 -2q-2 -55 -29.5 -89.5t-76.5 -34.5z" />
    <glyph glyph-name="Ohungarumlaut" unicode="&#x150;" horiz-adv-x="681" 
d="M241 730l-7 6l60 112q17 35 44 35q18 0 31.5 -12.5t13.5 -29.5q0 -27 -34 -47zM404 730l-7 6l60 112q17 35 44 35q18 0 31.5 -12.5t13.5 -29.5q0 -26 -33 -47zM338 -10q-140 0 -226.5 89t-86.5 258q0 95 27 168t72.5 115t101 62.5t117.5 20.5q140 0 226.5 -90.5
t86.5 -261.5q0 -76 -18 -138t-48 -103t-71 -68.5t-86 -39.5t-95 -12zM340 12q101 0 148 78t47 244q0 347 -194 347q-100 0 -147.5 -80t-47.5 -247q0 -342 194 -342z" />
    <glyph glyph-name="ohungarumlaut" unicode="&#x151;" horiz-adv-x="546" 
d="M163 569l-6 7l66 121q17 32 44 32q17 0 30 -13.5t13 -30.5q0 -28 -32 -47zM315 569l-6 7l66 121q17 32 43 32q17 0 30.5 -13.5t13.5 -30.5q0 -28 -32 -47zM273 -10q-110 0 -180.5 69t-70.5 197q0 126 74 198.5t177 72.5q110 0 180.5 -68.5t70.5 -197.5
q0 -126 -74.5 -198.5t-176.5 -72.5zM277 10q69 0 102 57.5t33 180.5q0 136 -35 197t-106 61q-68 0 -102.5 -57.5t-34.5 -181.5q0 -136 35 -196.5t108 -60.5z" />
    <glyph glyph-name="OE" unicode="&#x152;" horiz-adv-x="940" 
d="M917 210l-14 -210h-545q-333 0 -333 340q0 172 91.5 262.5t247.5 90.5h519l11 -175h-12q-28 69 -48 102q-21 32 -47 41t-95 9q-68 0 -112 -9v-290h58q62 0 81 6t30 29q12 21 24 74h11v-240h-11q-11 48 -24 74q-10 22 -29 28t-82 6h-58v-245q0 -22 0.5 -32.5t5.5 -21.5
t11 -15t22 -7t33.5 -3.5t50.5 -0.5q69 0 93 9.5t47 41.5q24 34 62 136h12zM374 23q50 0 70.5 18.5t20.5 74.5v481q0 46 -19.5 60t-71.5 14q-118 0 -174 -87.5t-56 -224.5q0 -336 230 -336z" />
    <glyph glyph-name="oe" unicode="&#x153;" horiz-adv-x="873" 
d="M273 -10q-110 0 -180.5 69t-70.5 197q0 126 74.5 198.5t177.5 72.5q137 0 194 -108q31 51 79.5 79.5t105.5 28.5q201 0 200 -237h-335v-8q0 -238 177 -238q84 0 146 36v-13q-71 -79 -182 -79q-147 0 -202 103q-63 -101 -184 -101zM273 10q131 0 131 238
q0 137 -31.5 197.5t-100.5 60.5q-136 0 -136 -239q0 -137 33 -197t104 -60zM649 506q-57 0 -92 -49.5t-39 -150.5l225 9q0 103 -20.5 147t-73.5 44z" />
    <glyph glyph-name="Racute" unicode="&#x154;" horiz-adv-x="613" 
d="M210 728l-3 7l128 105q17 16 38 16q20 0 32 -13.5t12 -32.5q0 -36 -41 -44zM12 0v11l37 7q27 6 33.5 15t6.5 47v533q0 38 -6.5 47t-33.5 15l-37 7v11h294q228 0 228 -166q0 -130 -147 -177v-2q112 -210 175 -291q18 -23 28 -31t25 -11l18 -4v-11h-168q-90 128 -187 326
q-22 0 -74 2v-248q0 -38 6 -47t34 -15l36 -7v-11h-268zM267 349q75 0 112.5 38.5t37.5 123.5q0 86 -32 122.5t-96 36.5q-47 0 -85 -8v-308q32 -5 63 -5z" />
    <glyph glyph-name="racute" unicode="&#x155;" horiz-adv-x="391" 
d="M139 574l-4 7l113 107q21 18 40 18t32 -13.5t13 -33.5q0 -35 -38 -45zM10 0v10l28 7q25 6 31 14.5t6 37.5v353q0 27 -6 35.5t-32 22.5l-25 14v8l161 22l6 -4l-1 -72h2q86 79 142 79q31 0 47.5 -16t16.5 -45q0 -26 -14.5 -41t-38.5 -15q-33 0 -52 37q-6 14 -10 18t-13 4
q-24 0 -79 -41v-359q0 -27 6 -37t28 -14l43 -8v-10h-246z" />
    <glyph glyph-name="Rcommaaccent" unicode="&#x156;" horiz-adv-x="613" 
d="M246 -220l-3 7q73 31 81 87q-11 -11 -32 -11q-19 0 -30.5 12.5t-11.5 30.5q0 19 15 33.5t39 14.5q27 0 44.5 -17t17.5 -46q0 -41 -32.5 -72t-87.5 -39zM12 0v11l37 7q27 6 33.5 15t6.5 47v533q0 38 -6.5 47t-33.5 15l-37 7v11h294q228 0 228 -166q0 -130 -147 -177v-2
q112 -210 175 -291q18 -23 28 -31t25 -11l18 -4v-11h-168q-90 128 -187 326q-22 0 -74 2v-248q0 -38 6 -47t34 -15l36 -7v-11h-268zM267 349q75 0 112.5 38.5t37.5 123.5q0 86 -32 122.5t-96 36.5q-47 0 -85 -8v-308q32 -5 63 -5z" />
    <glyph glyph-name="rcommaaccent" unicode="&#x157;" horiz-adv-x="391" 
d="M64 -220l-3 7q73 31 81 87q-11 -11 -32 -11q-19 0 -30.5 12.5t-11.5 30.5q0 19 15 33.5t39 14.5q27 0 44.5 -17t17.5 -46q0 -41 -32.5 -72t-87.5 -39zM10 0v10l28 7q25 6 31 14.5t6 37.5v353q0 27 -6 35.5t-32 22.5l-25 14v8l161 22l6 -4l-1 -72h2q86 79 142 79
q31 0 47.5 -16t16.5 -45q0 -26 -14.5 -41t-38.5 -15q-33 0 -52 37q-6 14 -10 18t-13 4q-24 0 -79 -41v-359q0 -27 6 -37t28 -14l43 -8v-10h-246z" />
    <glyph glyph-name="Rcaron" unicode="&#x158;" horiz-adv-x="613" 
d="M151 852l6 7l131 -53l130 53l5 -7l-117 -124h-37zM12 0v11l37 7q27 6 33.5 15t6.5 47v533q0 38 -6.5 47t-33.5 15l-37 7v11h294q228 0 228 -166q0 -130 -147 -177v-2q112 -210 175 -291q18 -23 28 -31t25 -11l18 -4v-11h-168q-90 128 -187 326q-22 0 -74 2v-248
q0 -38 6 -47t34 -15l36 -7v-11h-268zM267 349q75 0 112.5 38.5t37.5 123.5q0 86 -32 122.5t-96 36.5q-47 0 -85 -8v-308q32 -5 63 -5z" />
    <glyph glyph-name="rcaron" unicode="&#x159;" horiz-adv-x="391" 
d="M229 576h-36l-105 135l5 7l118 -61l119 61l5 -7zM10 0v10l28 7q25 6 31 14.5t6 37.5v353q0 27 -6 35.5t-32 22.5l-25 14v8l161 22l6 -4l-1 -72h2q86 79 142 79q31 0 47.5 -16t16.5 -45q0 -26 -14.5 -41t-38.5 -15q-33 0 -52 37q-6 14 -10 18t-13 4q-24 0 -79 -41v-359
q0 -27 6 -37t28 -14l43 -8v-10h-246z" />
    <glyph glyph-name="Sacute" unicode="&#x15a;" horiz-adv-x="475" 
d="M219 -10q-120 0 -190 34l-13 176h13q37 -81 61 -117q24 -37 55.5 -54t81.5 -17q61 0 95.5 35t34.5 94q0 55 -32 88.5t-122 77.5q-85 39 -128.5 85t-43.5 119q0 83 58.5 137.5t157.5 54.5t155 -27l11 -162h-12q-33 73 -56 106q-23 35 -44.5 48t-63.5 13q-58 0 -90.5 -29.5
t-32.5 -84.5q0 -54 29 -85.5t105 -67.5q114 -55 157.5 -99.5t43.5 -120.5q0 -82 -60.5 -143t-169.5 -61zM150 728l-3 7l128 105q17 16 38 16q20 0 32 -13.5t12 -32.5q0 -36 -41 -44z" />
    <glyph glyph-name="sacute" unicode="&#x15b;" horiz-adv-x="392" 
d="M119 574l-4 7l113 107q21 18 40 18t32 -13.5t13 -33.5q0 -35 -38 -45zM179 -10q-84 0 -155 23l-3 146h11q31 -64 42 -82q20 -36 45.5 -51.5t68.5 -15.5q45 0 71 25.5t26 67.5q0 39 -25.5 63t-92.5 50q-72 29 -106.5 65t-34.5 95q0 67 50 109t132 42q71 0 131 -23l3 -126
h-11q-28 55 -44 79q-17 26 -37 37.5t-53 11.5q-45 0 -71 -24t-26 -61t27 -60t93 -49q77 -31 113.5 -66t36.5 -94q0 -70 -51 -116t-140 -46z" />
    <glyph glyph-name="Scircumflex" unicode="&#x15c;" horiz-adv-x="475" 
d="M106 723l-6 7l118 124h37l117 -124l-5 -7l-130 53zM219 -10q-120 0 -190 34l-13 176h13q37 -81 61 -117q24 -37 55.5 -54t81.5 -17q61 0 95.5 35t34.5 94q0 55 -32 88.5t-122 77.5q-85 39 -128.5 85t-43.5 119q0 83 58.5 137.5t157.5 54.5t155 -27l11 -162h-12
q-33 73 -56 106q-23 35 -44.5 48t-63.5 13q-58 0 -90.5 -29.5t-32.5 -84.5q0 -54 29 -85.5t105 -67.5q114 -55 157.5 -99.5t43.5 -120.5q0 -82 -60.5 -143t-169.5 -61z" />
    <glyph glyph-name="scircumflex" unicode="&#x15d;" horiz-adv-x="392" 
d="M179 712h36l106 -135l-5 -7l-119 62l-118 -62l-5 7zM179 -10q-84 0 -155 23l-3 146h11q31 -64 42 -82q20 -36 45.5 -51.5t68.5 -15.5q45 0 71 25.5t26 67.5q0 39 -25.5 63t-92.5 50q-72 29 -106.5 65t-34.5 95q0 67 50 109t132 42q71 0 131 -23l3 -126h-11q-28 55 -44 79
q-17 26 -37 37.5t-53 11.5q-45 0 -71 -24t-26 -61t27 -60t93 -49q77 -31 113.5 -66t36.5 -94q0 -70 -51 -116t-140 -46z" />
    <glyph glyph-name="Scedilla" unicode="&#x15e;" horiz-adv-x="475" 
d="M131 -199v10q89 26 89 65q0 29 -50 33l-3 4l36 77q-112 3 -174 34l-13 176h13q37 -81 61 -117q24 -37 55.5 -54t81.5 -17q61 0 95.5 35t34.5 94q0 55 -32 88.5t-122 77.5q-85 39 -128.5 85t-43.5 119q0 83 58.5 137.5t157.5 54.5t155 -27l11 -162h-12q-33 73 -56 106
q-23 35 -44.5 48t-63.5 13q-58 0 -90.5 -29.5t-32.5 -84.5q0 -54 29 -85.5t105 -67.5q114 -55 157.5 -99.5t43.5 -120.5q0 -80 -58 -140.5t-163 -63.5l-20 -38q79 -9 79 -62q0 -35 -42 -58.5t-114 -30.5z" />
    <glyph glyph-name="scedilla" unicode="&#x15f;" horiz-adv-x="392" 
d="M80 -199v10q89 26 89 65q0 29 -50 33l-3 4l36 78q-68 3 -128 22l-3 146h11q31 -64 42 -82q20 -36 45.5 -51.5t68.5 -15.5q45 0 71 25.5t26 67.5q0 39 -25.5 63t-92.5 50q-72 29 -106.5 65t-34.5 95q0 67 50 109t132 42q71 0 131 -23l3 -126h-11q-28 55 -44 79
q-17 26 -37 37.5t-53 11.5q-45 0 -71 -24t-26 -61t27 -60t93 -49q77 -31 113.5 -66t36.5 -94q0 -70 -51 -116t-140 -46h-2l-20 -38q79 -9 79 -62q0 -35 -42 -58.5t-114 -30.5z" />
    <glyph glyph-name="Scaron" unicode="&#x160;" horiz-adv-x="475" 
d="M102 852l6 7l131 -53l130 53l5 -7l-117 -124h-37zM219 -10q-120 0 -190 34l-13 176h13q37 -81 61 -117q24 -37 55.5 -54t81.5 -17q61 0 95.5 35t34.5 94q0 55 -32 88.5t-122 77.5q-85 39 -128.5 85t-43.5 119q0 83 58.5 137.5t157.5 54.5t155 -27l11 -162h-12
q-33 73 -56 106q-23 35 -44.5 48t-63.5 13q-58 0 -90.5 -29.5t-32.5 -84.5q0 -54 29 -85.5t105 -67.5q114 -55 157.5 -99.5t43.5 -120.5q0 -82 -60.5 -143t-169.5 -61z" />
    <glyph glyph-name="scaron" unicode="&#x161;" horiz-adv-x="392" 
d="M217 576h-36l-105 135l5 7l118 -61l119 61l5 -7zM179 -10q-84 0 -155 23l-3 146h11q31 -64 42 -82q20 -36 45.5 -51.5t68.5 -15.5q45 0 71 25.5t26 67.5q0 39 -25.5 63t-92.5 50q-72 29 -106.5 65t-34.5 95q0 67 50 109t132 42q71 0 131 -23l3 -126h-11q-28 55 -44 79
q-17 26 -37 37.5t-53 11.5q-45 0 -71 -24t-26 -61t27 -60t93 -49q77 -31 113.5 -66t36.5 -94q0 -70 -51 -116t-140 -46z" />
    <glyph glyph-name="Tcommaaccent" unicode="&#x162;" horiz-adv-x="569" 
d="M222 -220l-3 7q73 31 81 87q-11 -11 -32 -11q-19 0 -30.5 12.5t-11.5 30.5q0 19 15 33.5t39 14.5q27 0 44.5 -17t17.5 -46q0 -41 -32.5 -72t-87.5 -39zM376 671h-34v-591q0 -37 6.5 -46.5t36.5 -15.5l37 -7v-11h-274v11l38 7q29 5 35.5 14.5t6.5 47.5v591h-33
q-61 0 -83 -13t-39 -50q-21 -43 -52 -121h-12l11 206h530l10 -206h-12q-25 68 -50 121q-18 38 -39.5 50.5t-82.5 12.5z" />
    <glyph glyph-name="tcommaaccent" unicode="&#x163;" horiz-adv-x="312" 
d="M107 -220l-3 7q73 31 81 87q-11 -11 -32 -11q-19 0 -30.5 12.5t-11.5 30.5q0 19 15 33.5t39 14.5q27 0 44.5 -17t17.5 -46q0 -41 -32.5 -72t-87.5 -39zM178 -10q-116 0 -116 109v376h-58v9q102 39 146 146h16v-120h134l-4 -35h-130v-372q0 -36 16 -51t51 -15q30 0 74 14
v-11q-55 -50 -129 -50z" />
    <glyph glyph-name="Tcaron" unicode="&#x164;" horiz-adv-x="571" 
d="M148 852l6 7l131 -53l130 53l5 -7l-117 -124h-37zM376 671h-34v-591q0 -37 6.5 -46.5t36.5 -15.5l37 -7v-11h-274v11l38 7q29 5 35.5 14.5t6.5 47.5v591h-33q-61 0 -83 -13t-39 -50q-21 -43 -52 -121h-12l11 206h530l10 -206h-12q-25 68 -50 121q-18 38 -39.5 50.5
t-82.5 12.5z" />
    <glyph glyph-name="tcaron" unicode="&#x165;" horiz-adv-x="312" 
d="M222 585l-8 2l4 129q0 43 37 43q19 0 31 -10.5t13 -26.5q0 -15 -13 -36zM178 -10q-116 0 -116 109v376h-58v9q102 39 146 146h16v-120h134l-4 -35h-130v-372q0 -36 16 -51t51 -15q30 0 74 14v-11q-55 -50 -129 -50z" />
    <glyph glyph-name="Tbar" unicode="&#x166;" horiz-adv-x="571" 
d="M84 368v25h144v278h-33q-61 0 -83 -13t-39 -50q-28 -60 -52 -121h-11l10 206h530l10 -206h-12q-25 68 -50 121q-18 38 -39.5 50.5t-82.5 12.5h-34v-278h145v-25h-145v-288q0 -37 6.5 -46.5t36.5 -15.5l37 -7v-11h-274v11l38 7q29 5 35.5 14.5t6.5 47.5v288h-144z" />
    <glyph glyph-name="tbar" unicode="&#x167;" horiz-adv-x="312" 
d="M4 332v24h60v119h-58v9q102 39 146 146h16v-120h134l-4 -35h-130v-119h129v-24h-129v-229q0 -36 16 -51t51 -15q30 0 74 14v-11q-55 -50 -129 -50q-116 0 -116 109v233h-60z" />
    <glyph glyph-name="Utilde" unicode="&#x168;" horiz-adv-x="665" 
d="M342 -10q-128 0 -193.5 53.5t-65.5 175.5v394q0 38 -6.5 47.5t-33.5 14.5l-38 7v11h269v-11l-36 -7q-28 -6 -34.5 -15t-6.5 -47v-400q0 -94 44 -137t137 -43q89 0 129.5 46t40.5 140v375q0 45 -6.5 59t-34.5 20l-46 9v11h199v-11l-39 -9q-24 -5 -31 -20t-7 -57v-387
q0 -100 -58 -159.5t-183 -59.5zM435 747q-22 0 -73 12t-72 12q-20 0 -31 -8.5t-25 -31.5l-10 5q19 55 37.5 80.5t51.5 25.5q21 0 71.5 -12t69.5 -12q37 0 61 41l10 -5q-18 -55 -37 -81t-53 -26z" />
    <glyph glyph-name="utilde" unicode="&#x169;" horiz-adv-x="561" 
d="M387 76v342q0 30 -5 38.5t-31 22.5l-26 15v8l161 22l5 -3v-427q0 -33 6.5 -43.5t31.5 -19.5l27 -10v-9l-162 -22l-6 2v65h-3q-99 -67 -185 -67q-61 0 -95.5 33.5t-34.5 96.5v299q0 29 -5.5 37.5t-30.5 22.5l-26 15v8l160 22l6 -3v-381q0 -93 86 -93q59 0 127 29zM157 577
l-10 4q10 29 17 44.5t17 32t22.5 23t28.5 6.5q19 0 62 -9t58 -9q21 0 33 8.5t25 30.5l10 -4q-11 -31 -17 -44.5t-16.5 -30.5t-23.5 -23.5t-31 -6.5q-19 0 -61 8.5t-59 8.5q-20 0 -31.5 -9t-23.5 -30z" />
    <glyph glyph-name="Umacron" unicode="&#x16a;" horiz-adv-x="665" 
d="M342 -10q-128 0 -193.5 53.5t-65.5 175.5v394q0 38 -6.5 47.5t-33.5 14.5l-38 7v11h269v-11l-36 -7q-28 -6 -34.5 -15t-6.5 -47v-400q0 -94 44 -137t137 -43q89 0 129.5 46t40.5 140v375q0 45 -6.5 59t-34.5 20l-46 9v11h199v-11l-39 -9q-24 -5 -31 -20t-7 -57v-387
q0 -100 -58 -159.5t-183 -59.5zM238 754v46h243v-46h-243z" />
    <glyph glyph-name="umacron" unicode="&#x16b;" horiz-adv-x="561" 
d="M387 76v342q0 30 -5 38.5t-31 22.5l-26 15v8l161 22l5 -3v-427q0 -33 6.5 -43.5t31.5 -19.5l27 -10v-9l-162 -22l-6 2v65h-3q-99 -67 -185 -67q-61 0 -95.5 33.5t-34.5 96.5v299q0 29 -5.5 37.5t-30.5 22.5l-26 15v8l160 22l6 -3v-381q0 -93 86 -93q59 0 127 29zM159 605
v45h226v-45h-226z" />
    <glyph glyph-name="Ubreve" unicode="&#x16c;" horiz-adv-x="665" 
d="M342 -10q-128 0 -193.5 53.5t-65.5 175.5v394q0 38 -6.5 47.5t-33.5 14.5l-38 7v11h269v-11l-36 -7q-28 -6 -34.5 -15t-6.5 -47v-400q0 -94 44 -137t137 -43q89 0 129.5 46t40.5 140v375q0 45 -6.5 59t-34.5 20l-46 9v11h199v-11l-39 -9q-24 -5 -31 -20t-7 -57v-387
q0 -100 -58 -159.5t-183 -59.5zM363 730q-104 0 -116 124l8 2q28 -59 107 -59q43 0 66.5 15t38.5 44l7 -2q-3 -53 -31 -88.5t-80 -35.5z" />
    <glyph glyph-name="ubreve" unicode="&#x16d;" horiz-adv-x="561" 
d="M387 76v342q0 30 -5 38.5t-31 22.5l-26 15v8l161 22l5 -3v-427q0 -33 6.5 -43.5t31.5 -19.5l27 -10v-9l-162 -22l-6 2v65h-3q-99 -67 -185 -67q-61 0 -95.5 33.5t-34.5 96.5v299q0 29 -5.5 37.5t-30.5 22.5l-26 15v8l160 22l6 -3v-381q0 -93 86 -93q59 0 127 29zM282 579
q-104 0 -111 124l8 2q23 -60 102 -60q72 0 99 60l8 -2q-2 -55 -29.5 -89.5t-76.5 -34.5z" />
    <glyph glyph-name="Uring" unicode="&#x16e;" horiz-adv-x="665" 
d="M342 -10q-128 0 -193.5 53.5t-65.5 175.5v394q0 38 -6.5 47.5t-33.5 14.5l-38 7v11h269v-11l-36 -7q-28 -6 -34.5 -15t-6.5 -47v-400q0 -94 44 -137t137 -43q89 0 129.5 46t40.5 140v375q0 45 -6.5 59t-34.5 20l-46 9v11h199v-11l-39 -9q-24 -5 -31 -20t-7 -57v-387
q0 -100 -58 -159.5t-183 -59.5zM283 790q0 34 24.5 57t59.5 23t59.5 -23t24.5 -57t-24.5 -56.5t-59.5 -22.5t-59.5 22.5t-24.5 56.5zM310 790q0 -25 15.5 -41.5t41.5 -16.5q25 0 41 17t16 41q0 25 -16 42t-41 17q-26 0 -41.5 -17t-15.5 -42z" />
    <glyph glyph-name="uring" unicode="&#x16f;" horiz-adv-x="561" 
d="M191 655q0 34 24.5 57.5t59.5 23.5t59.5 -23.5t24.5 -57.5t-24.5 -56.5t-59.5 -22.5t-59.5 22.5t-24.5 56.5zM218 655q0 -25 15.5 -41.5t41.5 -16.5q25 0 41 17t16 41q0 25 -16 42.5t-41 17.5q-26 0 -41.5 -17.5t-15.5 -42.5zM387 76v342q0 30 -5 38.5t-31 22.5l-26 15v8
l161 22l5 -3v-427q0 -33 6.5 -43.5t31.5 -19.5l27 -10v-9l-162 -22l-6 2v65h-3q-99 -67 -185 -67q-61 0 -95.5 33.5t-34.5 96.5v299q0 29 -5.5 37.5t-30.5 22.5l-26 15v8l160 22l6 -3v-381q0 -93 86 -93q59 0 127 29z" />
    <glyph glyph-name="Uhungarumlaut" unicode="&#x170;" horiz-adv-x="665" 
d="M254 730l-7 6l60 112q17 35 44 35q18 0 31.5 -12.5t13.5 -29.5q0 -27 -34 -47zM417 730l-7 6l60 112q17 35 44 35q18 0 31.5 -12.5t13.5 -29.5q0 -26 -33 -47zM342 -10q-128 0 -193.5 53.5t-65.5 175.5v394q0 38 -6.5 47.5t-33.5 14.5l-38 7v11h269v-11l-36 -7
q-28 -6 -34.5 -15t-6.5 -47v-400q0 -94 44 -137t137 -43q89 0 129.5 46t40.5 140v375q0 45 -6.5 59t-34.5 20l-46 9v11h199v-11l-39 -9q-24 -5 -31 -20t-7 -57v-387q0 -100 -58 -159.5t-183 -59.5z" />
    <glyph glyph-name="uhungarumlaut" unicode="&#x171;" horiz-adv-x="561" 
d="M387 76v342q0 30 -5 38.5t-31 22.5l-26 15v8l161 22l5 -3v-427q0 -33 6.5 -43.5t31.5 -19.5l27 -10v-9l-162 -22l-6 2v65h-3q-99 -67 -185 -67q-61 0 -95.5 33.5t-34.5 96.5v299q0 29 -5.5 37.5t-30.5 22.5l-26 15v8l160 22l6 -3v-381q0 -93 86 -93q59 0 127 29zM169 569
l-6 7l66 121q17 32 44 32q17 0 30 -13.5t13 -30.5q0 -28 -32 -47zM321 569l-6 7l66 121q17 32 43 32q17 0 30.5 -13.5t13.5 -30.5q0 -28 -32 -47z" />
    <glyph glyph-name="Uogonek" unicode="&#x172;" horiz-adv-x="665" 
d="M342 -10q-128 0 -193.5 53.5t-65.5 175.5v394q0 38 -6.5 47.5t-33.5 14.5l-38 7v11h269v-11l-36 -7q-28 -6 -34.5 -15t-6.5 -47v-400q0 -94 44 -137t137 -43q89 0 129.5 46t40.5 140v375q0 45 -6.5 59t-34.5 20l-46 9v11h199v-11l-39 -9q-24 -5 -31 -20t-7 -57v-387
q0 -69 -26.5 -115.5t-86.5 -84.5q-57 -34 -79 -62.5t-22 -65.5q0 -49 53 -49q22 0 38 7v-12q-28 -30 -81 -30q-43 0 -67 19.5t-24 51.5q0 74 133 128q-36 -6 -79 -6z" />
    <glyph glyph-name="uogonek" unicode="&#x173;" horiz-adv-x="561" 
d="M386 -13v70h-4q-99 -67 -185 -67q-61 0 -95.5 33.5t-34.5 96.5v298q0 30 -5.5 38.5t-30.5 22.5l-26 15v8l160 22l6 -3v-381q0 -93 86 -93q59 0 127 29v341q0 30 -5.5 39.5t-30.5 22.5l-26 15v8l161 22l5 -3v-427q0 -33 6.5 -43.5t31.5 -19.5l27 -10v-9l-48 -7
q-78 -12 -110 -42.5t-32 -79.5q0 -51 56 -51q19 0 37 7v-11q-26 -31 -78 -31q-46 0 -70.5 20t-24.5 54t24 61t79 55z" />
    <glyph glyph-name="Wcircumflex" unicode="&#x174;" horiz-adv-x="932" 
d="M347 723l-6 7l118 124h37l117 -124l-5 -7l-130 53zM697 146l126 427q11 41 11 62q0 17 -9 25.5t-31 14.5l-30 7v11h180v-11l-17 -6q-30 -10 -44 -30.5t-32 -82.5l-172 -563h-51l-153 458h-2l-153 -458h-51l-200 587q-17 52 -28 67.5t-35 21.5l-24 6v11h259v-11l-26 -6
q-37 -8 -37 -34q0 -17 17 -68l143 -430h3l119 359l-29 88q-15 47 -26 62.5t-35 22.5l-23 6v11h258v-11l-30 -6q-36 -8 -36 -36q0 -16 15 -66l140 -428h3z" />
    <glyph glyph-name="wcircumflex" unicode="&#x175;" horiz-adv-x="743" 
d="M364 712h36l106 -135l-5 -7l-119 62l-118 -62l-5 7zM685 415l-144 -415h-42l-117 336h-3l-120 -336h-41l-155 425q-14 37 -24 50t-27 18l-21 7v10h225v-10l-22 -5q-28 -7 -28 -31q0 -14 13 -55l96 -289h3l91 256l-18 49q-13 37 -23 50.5t-28 18.5l-19 6v10h220v-10
l-24 -6q-30 -8 -30 -34q0 -15 11 -52l96 -286h4l94 283q13 40 13 57q0 22 -32 31l-25 7v10h152v-10l-14 -5q-25 -8 -35.5 -22t-25.5 -58z" />
    <glyph glyph-name="Ycircumflex" unicode="&#x176;" horiz-adv-x="585" 
d="M166 0v11l40 7q28 5 35 15t7 47v206l-179 318q-24 43 -34 54.5t-29 17.5l-21 6v11h272v-11l-34 -7q-24 -5 -31.5 -12t-7.5 -21q0 -18 16 -47l147 -272h3l124 262q15 33 15 54q0 27 -38 36l-32 7v11h180v-11l-19 -7q-25 -8 -38 -24.5t-42 -75.5l-137 -287v-208
q0 -38 6.5 -47.5t35.5 -14.5l38 -7v-11h-277zM197 723l-6 7l118 124h37l117 -124l-5 -7l-130 53z" />
    <glyph glyph-name="ycircumflex" unicode="&#x177;" horiz-adv-x="481" 
d="M284 127l101 276q13 38 13 59q0 22 -32 31l-24 7v10h153v-10l-16 -6q-20 -7 -31.5 -22t-28.5 -58l-177 -468q-31 -79 -67.5 -114.5t-91.5 -35.5q-34 0 -54.5 16t-20.5 42q0 23 13.5 36t36.5 13q40 0 48 -43q6 -23 12 -26q3 -1 7 -1q19 0 43 25.5t42 74.5l20 57l-172 435
q-14 37 -24.5 50t-27.5 18l-19 7v10h232v-10l-26 -7q-29 -8 -29 -32q0 -17 13 -52l103 -282h4zM237 712h36l106 -135l-5 -7l-119 62l-118 -62l-5 7z" />
    <glyph glyph-name="Ydieresis" unicode="&#x178;" horiz-adv-x="585" 
d="M166 0v11l40 7q28 5 35 15t7 47v206l-179 318q-24 43 -34 54.5t-29 17.5l-21 6v11h272v-11l-34 -7q-24 -5 -31.5 -12t-7.5 -21q0 -18 16 -47l147 -272h3l124 262q15 33 15 54q0 27 -38 36l-32 7v11h180v-11l-19 -7q-25 -8 -38 -24.5t-42 -75.5l-137 -287v-208
q0 -38 6.5 -47.5t35.5 -14.5l38 -7v-11h-277zM239 730q-24 0 -40.5 16.5t-16.5 41.5q0 24 16.5 40t40.5 16q25 0 41.5 -16t16.5 -40q0 -26 -16.5 -42t-41.5 -16zM416 730q-25 0 -41.5 16.5t-16.5 41.5q0 24 16.5 40t41.5 16t41.5 -16t16.5 -40q0 -25 -16.5 -41.5
t-41.5 -16.5z" />
    <glyph glyph-name="Zacute" unicode="&#x179;" horiz-adv-x="560" 
d="M217 728l-3 7l128 105q17 16 38 16q20 0 32 -13.5t12 -32.5q0 -36 -41 -44zM20 0v24l382 643v4h-83q-108 0 -141.5 -11t-51.5 -44q-26 -48 -58 -123h-11l14 200h460v-23l-384 -645v-4h80q96 0 135.5 4.5t56.5 15t38 41.5q22 34 62 126h11l-18 -208h-492z" />
    <glyph glyph-name="zacute" unicode="&#x17a;" horiz-adv-x="462" 
d="M167 574l-4 7l113 107q21 18 40 18t32 -13.5t13 -33.5q0 -35 -38 -45zM18 0v21l303 463v4h-110q-55 0 -72 -7.5t-38 -40.5q-10 -14 -45 -84h-10l7 154h387v-18l-304 -466v-4h101q74 0 98 10t42 43q20 32 45 91h10l-11 -166h-403z" />
    <glyph glyph-name="Zdotaccent" unicode="&#x17b;" horiz-adv-x="560" 
d="M20 0v24l382 643v4h-83q-108 0 -141.5 -11t-51.5 -44q-26 -48 -58 -123h-11l14 200h460v-23l-384 -645v-4h80q96 0 135.5 4.5t56.5 15t38 41.5q22 34 62 126h11l-18 -208h-492zM300 732q-26 0 -45 17.5t-19 42.5t19 42.5t45 17.5t43.5 -17.5t17.5 -42.5t-18 -42.5
t-43 -17.5z" />
    <glyph glyph-name="zdotaccent" unicode="&#x17c;" horiz-adv-x="462" 
d="M18 0v21l303 463v4h-110q-55 0 -72 -7.5t-38 -40.5q-10 -14 -45 -84h-10l7 154h387v-18l-304 -466v-4h101q74 0 98 10t42 43q20 32 45 91h10l-11 -166h-403zM180 639q0 26 18.5 43.5t44.5 17.5t44.5 -17.5t18.5 -43.5t-18.5 -43.5t-44.5 -17.5t-44.5 17.5t-18.5 43.5z
" />
    <glyph glyph-name="Zcaron" unicode="&#x17d;" horiz-adv-x="560" 
d="M163 852l6 7l131 -53l130 53l5 -7l-117 -124h-37zM20 0v24l382 643v4h-83q-108 0 -141.5 -11t-51.5 -44q-26 -48 -58 -123h-11l14 200h460v-23l-384 -645v-4h80q96 0 135.5 4.5t56.5 15t38 41.5q22 34 62 126h11l-18 -208h-492z" />
    <glyph glyph-name="zcaron" unicode="&#x17e;" horiz-adv-x="462" 
d="M257 576h-36l-105 135l5 7l118 -61l119 61l5 -7zM18 0v21l303 463v4h-110q-55 0 -72 -7.5t-38 -40.5q-10 -14 -45 -84h-10l7 154h387v-18l-304 -466v-4h101q74 0 98 10t42 43q20 32 45 91h10l-11 -166h-403z" />
    <glyph glyph-name="florin" unicode="&#x192;" horiz-adv-x="399" 
d="M28 365v24h81l14 103q14 105 68 157.5t133 52.5q53 0 83 -20.5t30 -51.5q0 -21 -13.5 -33t-36.5 -12q-25 0 -38 13.5t-16 43.5q-4 40 -25 40q-26 0 -42 -25.5t-25 -95.5l-23 -172h104v-24h-107l-45 -339q-14 -109 -62 -164t-119 -55q-46 0 -72 17.5t-26 44.5q0 41 44 41
q22 0 33 -10.5t15 -36.5q6 -24 10 -30.5t13 -6.5q15 0 25 18t16 67l59 454h-78z" />
    <glyph glyph-name="Aringacute" unicode="&#x1fa;" horiz-adv-x="620" 
d="M-10 0v11l17 5q26 7 37.5 25.5t36.5 88.5l205 563h54l199 -575q20 -58 33 -77.5t35 -24.5l21 -5v-11h-265v11l23 5q23 6 31.5 15.5t8.5 25.5q0 21 -13 58l-44 136h-214l-39 -114q-17 -50 -17 -76q0 -18 9.5 -28t32.5 -16l27 -6v-11h-178zM264 563l-100 -288h197l-94 288
h-3zM227 800q0 34 24.5 57t59.5 23t59.5 -23t24.5 -57t-24.5 -56.5t-59.5 -22.5t-59.5 22.5t-24.5 56.5zM221 897l-3 7l128 105q17 16 38 16q20 0 32 -13.5t12 -32.5q0 -36 -41 -44zM254 800q0 -25 15.5 -41.5t41.5 -16.5q25 0 41 17t16 41q0 25 -16 42t-41 17
q-26 0 -41.5 -17t-15.5 -42z" />
    <glyph glyph-name="aringacute" unicode="&#x1fb;" horiz-adv-x="478" 
d="M165 -13q-68 0 -107 32.5t-39 90.5q0 33 12 57t37 39t47 23.5t57 17.5l132 33v109q0 64 -15.5 90.5t-71.5 26.5q-32 0 -44 -10t-17 -36q-4 -38 -17 -53.5t-40 -15.5q-51 0 -51 47q0 44 55.5 66.5t131.5 22.5q173 0 173 -132v-310q0 -40 20 -52q16 -11 52 -13v-8
q-36 -24 -86 -24q-76 0 -85 63h-3q-53 -64 -141 -64zM210 33q65 0 94 41v177l-58 -10q-64 -11 -92.5 -35.5t-28.5 -77.5q0 -45 22 -70t63 -25zM143 643q0 34 24.5 57.5t59.5 23.5t59.5 -23.5t24.5 -57.5t-24.5 -56.5t-59.5 -22.5t-59.5 22.5t-24.5 56.5zM170 643
q0 -25 15.5 -41.5t41.5 -16.5q25 0 41 17t16 41q0 25 -16 42.5t-41 17.5q-26 0 -41.5 -17.5t-15.5 -42.5zM126 741l-3 7l128 105q17 16 38 16q20 0 32 -13.5t12 -32.5q0 -36 -41 -44z" />
    <glyph glyph-name="AEacute" unicode="&#x1fc;" horiz-adv-x="876" 
d="M853 210l-14 -210h-513v11l38 7q26 5 32.5 15t6.5 47v163h-203l-64 -121q-27 -52 -27 -70q0 -13 9.5 -20.5t33.5 -14.5l25 -6v-11h-195v11l20 6q35 12 52 30t51 80l289 531q-7 8 -36 16l-37 8v11h498l11 -175h-11q-34 78 -49 102q-21 32 -47 41t-95 9q-68 0 -111 -9v-290
h57q62 0 81.5 6t30.5 29q9 18 24 74h11v-240h-11q-11 48 -24 74q-10 22 -29.5 28t-82.5 6h-57v-245q0 -22 0.5 -32.5t5.5 -21.5t11 -15t22 -7t33 -3.5t50 -0.5q70 0 94 9.5t47 41.5q22 31 61 136h12zM401 623l-189 -356h191v347v9h-2zM514 728l-3 7l128 105q17 16 38 16
q20 0 32 -13.5t12 -32.5q0 -36 -41 -44z" />
    <glyph glyph-name="aeacute" unicode="&#x1fd;" horiz-adv-x="756" 
d="M341 83q-63 -96 -176 -96q-68 0 -107 33t-39 91q0 34 12.5 59t36.5 41t47 25t57 18l132 32v103q0 64 -15.5 90.5t-71.5 26.5q-32 0 -44 -10t-17 -36q-4 -38 -17 -53.5t-40 -15.5q-51 0 -51 47q0 44 55 66.5t127 22.5q120 0 149 -71q62 71 155 71q204 0 203 -249h-329
q1 -122 42.5 -178t123.5 -56q89 0 151 36v-13q-71 -79 -191 -79q-136 0 -191 95h-2zM527 506q-115 0 -119 -209l219 10q0 106 -22.5 152.5t-77.5 46.5zM213 33q79 0 120 69q-29 61 -29 154l-57 -9q-66 -10 -94 -36.5t-28 -80.5q0 -47 22.5 -72t65.5 -25zM328 574l-4 7
l113 107q21 18 40 18t32 -13.5t13 -33.5q0 -35 -38 -45z" />
    <glyph glyph-name="Oslashacute" unicode="&#x1fe;" horiz-adv-x="681" 
d="M338 -10q-103 0 -176 47l-60 -94h-29l69 108q-117 91 -117 286q0 95 27 168t72.5 115t101 62.5t117.5 20.5q109 0 185 -54l52 81h29l-62 -96q109 -94 109 -283q0 -76 -18 -138t-48 -103t-71 -68.5t-86 -39.5t-95 -12zM145 354q0 -154 40 -237l304 472q-49 92 -148 92
q-100 0 -148 -80t-48 -247zM340 12q101 0 148.5 78t47.5 244q0 144 -35 229l-303 -471q50 -80 142 -80zM247 728l-3 7l128 105q17 16 38 16q20 0 32 -13.5t12 -32.5q0 -36 -41 -44z" />
    <glyph glyph-name="oslashacute" unicode="&#x1ff;" horiz-adv-x="546" 
d="M273 -10q-75 0 -134 33l-46 -76h-28l54 89q-97 71 -97 220q0 126 74 198.5t177 72.5q73 0 128 -30l38 62h27l-45 -74q103 -70 103 -224q0 -126 -74.5 -198.5t-176.5 -72.5zM277 10q69 0 102.5 58t33.5 180q0 113 -27 180l-218 -358q34 -60 109 -60zM133 267
q0 -113 23 -171l218 356q-35 54 -103 54q-138 0 -138 -239zM192 574l-4 7l113 107q21 18 40 18t32 -13.5t13 -33.5q0 -35 -38 -45z" />
    <glyph glyph-name="Scommaaccent" unicode="&#x218;" horiz-adv-x="475" 
d="M219 -10q-120 0 -190 34l-13 176h13q37 -81 61 -117q24 -37 55.5 -54t81.5 -17q61 0 95.5 35t34.5 94q0 55 -32 88.5t-122 77.5q-85 39 -128.5 85t-43.5 119q0 83 58.5 137.5t157.5 54.5t155 -27l11 -162h-12q-33 73 -56 106q-23 35 -44.5 48t-63.5 13q-58 0 -90.5 -29.5
t-32.5 -84.5q0 -54 29 -85.5t105 -67.5q114 -55 157.5 -99.5t43.5 -120.5q0 -82 -60.5 -143t-169.5 -61zM157 -220l-3 7q73 31 81 87q-11 -11 -32 -11q-19 0 -30.5 12.5t-11.5 30.5q0 19 15 33.5t39 14.5q27 0 44.5 -17t17.5 -46q0 -41 -32.5 -72t-87.5 -39z" />
    <glyph glyph-name="scommaaccent" unicode="&#x219;" horiz-adv-x="392" 
d="M179 -10q-84 0 -155 23l-3 146h11q31 -64 42 -82q20 -36 45.5 -51.5t68.5 -15.5q45 0 71 25.5t26 67.5q0 39 -25.5 63t-92.5 50q-72 29 -106.5 65t-34.5 95q0 67 50 109t132 42q71 0 131 -23l3 -126h-11q-28 55 -44 79q-17 26 -37 37.5t-53 11.5q-45 0 -71 -24t-26 -61
t27 -60t93 -49q77 -31 113.5 -66t36.5 -94q0 -70 -51 -116t-140 -46zM116 -220l-3 7q73 31 81 87q-11 -11 -32 -11q-19 0 -30.5 12.5t-11.5 30.5q0 19 15 33.5t39 14.5q27 0 44.5 -17t17.5 -46q0 -41 -32.5 -72t-87.5 -39z" />
    <glyph glyph-name="uni021A" unicode="&#x21a;" horiz-adv-x="569" 
d="M222 -220l-3 7q73 31 81 87q-11 -11 -32 -11q-19 0 -30.5 12.5t-11.5 30.5q0 19 15 33.5t39 14.5q27 0 44.5 -17t17.5 -46q0 -41 -32.5 -72t-87.5 -39zM376 671h-34v-591q0 -37 6.5 -46.5t36.5 -15.5l37 -7v-11h-274v11l38 7q29 5 35.5 14.5t6.5 47.5v591h-33
q-61 0 -83 -13t-39 -50q-21 -43 -52 -121h-12l11 206h530l10 -206h-12q-25 68 -50 121q-18 38 -39.5 50.5t-82.5 12.5z" />
    <glyph glyph-name="uni021B" unicode="&#x21b;" horiz-adv-x="312" 
d="M107 -220l-3 7q73 31 81 87q-11 -11 -32 -11q-19 0 -30.5 12.5t-11.5 30.5q0 19 15 33.5t39 14.5q27 0 44.5 -17t17.5 -46q0 -41 -32.5 -72t-87.5 -39zM178 -10q-116 0 -116 109v376h-58v9q102 39 146 146h16v-120h134l-4 -35h-130v-372q0 -36 16 -51t51 -15q30 0 74 14
v-11q-55 -50 -129 -50z" />
    <glyph glyph-name="uni0237" unicode="&#x237;" horiz-adv-x="234" 
d="M173 407v-398q0 -98 -46.5 -152.5t-122.5 -54.5q-48 0 -72.5 17.5t-24.5 48.5q0 21 13.5 34t36.5 13t35.5 -13.5t16.5 -47.5q2 -19 6.5 -25.5t13.5 -6.5q17 0 28.5 21t11.5 60v519q0 28 -6 36.5t-33 21.5l-26 14v8l168 22l5 -2q-4 -60 -4 -115z" />
    <glyph glyph-name="circumflex" unicode="&#x2c6;" 
d="M211 712h36l106 -135l-5 -7l-119 62l-118 -62l-5 7z" />
    <glyph glyph-name="caron" unicode="&#x2c7;" 
d="M247 576h-36l-105 135l5 7l118 -61l119 61l5 -7z" />
    <glyph glyph-name="breve" unicode="&#x2d8;" 
d="M232 579q-104 0 -111 124l8 2q23 -60 102 -60q72 0 99 60l8 -2q-2 -55 -29.5 -89.5t-76.5 -34.5z" />
    <glyph glyph-name="dotaccent" unicode="&#x2d9;" horiz-adv-x="415" 
d="M145 639q0 26 18.5 43.5t44.5 17.5t44.5 -17.5t18.5 -43.5t-18.5 -43.5t-44.5 -17.5t-44.5 17.5t-18.5 43.5z" />
    <glyph glyph-name="ring" unicode="&#x2da;" 
d="M146 655q0 34 24.5 57.5t59.5 23.5t59.5 -23.5t24.5 -57.5t-24.5 -56.5t-59.5 -22.5t-59.5 22.5t-24.5 56.5zM173 655q0 -25 15.5 -41.5t41.5 -16.5q25 0 41 17t16 41q0 25 -16 42.5t-41 17.5q-26 0 -41.5 -17.5t-15.5 -42.5z" />
    <glyph glyph-name="ogonek" unicode="&#x2db;" horiz-adv-x="422" 
d="M246 0h14q-51 -58 -51 -117q0 -51 53 -51q22 0 39 7v-9q-26 -33 -81 -33q-44 0 -67.5 19.5t-23.5 52.5q0 69 117 131z" />
    <glyph glyph-name="tilde" unicode="&#x2dc;" 
d="M103 577l-10 4q10 29 17 44.5t17 32t22.5 23t28.5 6.5q19 0 62 -9t58 -9q21 0 33 8.5t25 30.5l10 -4q-11 -31 -17 -44.5t-16.5 -30.5t-23.5 -23.5t-31 -6.5q-19 0 -61 8.5t-59 8.5q-20 0 -31.5 -9t-23.5 -30z" />
    <glyph glyph-name="hungarumlaut" unicode="&#x2dd;" 
d="M95 569l-6 7l66 121q17 32 44 32q17 0 30 -13.5t13 -30.5q0 -28 -32 -47zM247 569l-6 7l66 121q17 32 43 32q17 0 30.5 -13.5t13.5 -30.5q0 -28 -32 -47z" />
    <glyph glyph-name="Wgrave" unicode="&#x1e80;" horiz-adv-x="932" 
d="M576 731l-3 -8l-166 38q-41 9 -41 45q0 19 12.5 32.5t31.5 13.5t38 -17zM697 146l126 427q11 41 11 62q0 17 -9 25.5t-31 14.5l-30 7v11h180v-11l-17 -6q-30 -10 -44 -30.5t-32 -82.5l-172 -563h-51l-153 458h-2l-153 -458h-51l-200 587q-17 52 -28 67.5t-35 21.5l-24 6
v11h259v-11l-26 -6q-37 -8 -37 -34q0 -17 17 -68l143 -430h3l119 359l-29 88q-15 47 -26 62.5t-35 22.5l-23 6v11h258v-11l-30 -6q-36 -8 -36 -36q0 -16 15 -66l140 -428h3z" />
    <glyph glyph-name="wgrave" unicode="&#x1e81;" horiz-adv-x="743" 
d="M685 415l-144 -415h-42l-117 336h-3l-120 -336h-41l-155 425q-14 37 -24 50t-27 18l-21 7v10h225v-10l-22 -5q-28 -7 -28 -31q0 -14 13 -55l96 -289h3l91 256l-18 49q-13 37 -23 50.5t-28 18.5l-19 6v10h220v-10l-24 -6q-30 -8 -30 -34q0 -15 11 -52l96 -286h4l94 283
q13 40 13 57q0 22 -32 31l-25 7v10h152v-10l-14 -5q-25 -8 -35.5 -22t-25.5 -58zM450 581l-4 -7l-156 40q-38 10 -38 45q0 20 13 33.5t32 13.5t39 -18z" />
    <glyph glyph-name="Wacute" unicode="&#x1e82;" horiz-adv-x="932" 
d="M393 728l-3 7l128 105q17 16 38 16q20 0 32 -13.5t12 -32.5q0 -36 -41 -44zM697 146l126 427q11 41 11 62q0 17 -9 25.5t-31 14.5l-30 7v11h180v-11l-17 -6q-30 -10 -44 -30.5t-32 -82.5l-172 -563h-51l-153 458h-2l-153 -458h-51l-200 587q-17 52 -28 67.5t-35 21.5
l-24 6v11h259v-11l-26 -6q-37 -8 -37 -34q0 -17 17 -68l143 -430h3l119 359l-29 88q-15 47 -26 62.5t-35 22.5l-23 6v11h258v-11l-30 -6q-36 -8 -36 -36q0 -16 15 -66l140 -428h3z" />
    <glyph glyph-name="wacute" unicode="&#x1e83;" horiz-adv-x="743" 
d="M311 574l-4 7l113 107q21 18 40 18t32 -13.5t13 -33.5q0 -35 -38 -45zM685 415l-144 -415h-42l-117 336h-3l-120 -336h-41l-155 425q-14 37 -24 50t-27 18l-21 7v10h225v-10l-22 -5q-28 -7 -28 -31q0 -14 13 -55l96 -289h3l91 256l-18 49q-13 37 -23 50.5t-28 18.5l-19 6
v10h220v-10l-24 -6q-30 -8 -30 -34q0 -15 11 -52l96 -286h4l94 283q13 40 13 57q0 22 -32 31l-25 7v10h152v-10l-14 -5q-25 -8 -35.5 -22t-25.5 -58z" />
    <glyph glyph-name="Wdieresis" unicode="&#x1e84;" horiz-adv-x="932" 
d="M396 730q-24 0 -40.5 16.5t-16.5 41.5q0 24 16.5 40t40.5 16q25 0 41.5 -16t16.5 -40q0 -26 -16 -42t-42 -16zM573 730q-25 0 -41.5 16.5t-16.5 41.5q0 24 16.5 40t41.5 16t41.5 -16t16.5 -40q0 -25 -16.5 -41.5t-41.5 -16.5zM697 146l126 427q11 41 11 62q0 17 -9 25.5
t-31 14.5l-30 7v11h180v-11l-17 -6q-30 -10 -44 -30.5t-32 -82.5l-172 -563h-51l-153 458h-2l-153 -458h-51l-200 587q-17 52 -28 67.5t-35 21.5l-24 6v11h259v-11l-26 -6q-37 -8 -37 -34q0 -17 17 -68l143 -430h3l119 359l-29 88q-15 47 -26 62.5t-35 22.5l-23 6v11h258
v-11l-30 -6q-36 -8 -36 -36q0 -16 15 -66l140 -428h3z" />
    <glyph glyph-name="wdieresis" unicode="&#x1e85;" horiz-adv-x="743" 
d="M246 642q0 25 17 41.5t41 16.5q25 0 42 -16.5t17 -41.5t-17 -41t-42 -16q-24 0 -41 16.5t-17 40.5zM411 642q0 25 17 41.5t41 16.5q25 0 42 -16.5t17 -41.5t-17 -41t-42 -16q-24 0 -41 16.5t-17 40.5zM685 415l-144 -415h-42l-117 336h-3l-120 -336h-41l-155 425
q-14 37 -24 50t-27 18l-21 7v10h225v-10l-22 -5q-28 -7 -28 -31q0 -14 13 -55l96 -289h3l91 256l-18 49q-13 37 -23 50.5t-28 18.5l-19 6v10h220v-10l-24 -6q-30 -8 -30 -34q0 -15 11 -52l96 -286h4l94 283q13 40 13 57q0 22 -32 31l-25 7v10h152v-10l-14 -5
q-25 -8 -35.5 -22t-25.5 -58z" />
    <glyph glyph-name="Ygrave" unicode="&#x1ef2;" horiz-adv-x="585" 
d="M166 0v11l40 7q28 5 35 15t7 47v206l-179 318q-24 43 -34 54.5t-29 17.5l-21 6v11h272v-11l-34 -7q-24 -5 -31.5 -12t-7.5 -21q0 -18 16 -47l147 -272h3l124 262q15 33 15 54q0 27 -38 36l-32 7v11h180v-11l-19 -7q-25 -8 -38 -24.5t-42 -75.5l-137 -287v-208
q0 -38 6.5 -47.5t35.5 -14.5l38 -7v-11h-277zM408 731l-3 -8l-166 38q-41 9 -41 45q0 19 12.5 32.5t31.5 13.5t38 -17z" />
    <glyph glyph-name="ygrave" unicode="&#x1ef3;" horiz-adv-x="481" 
d="M284 127l101 276q13 38 13 59q0 22 -32 31l-24 7v10h153v-10l-16 -6q-20 -7 -31.5 -22t-28.5 -58l-177 -468q-31 -79 -67.5 -114.5t-91.5 -35.5q-34 0 -54.5 16t-20.5 42q0 23 13.5 36t36.5 13q40 0 48 -43q6 -23 12 -26q3 -1 7 -1q19 0 43 25.5t42 74.5l20 57l-172 435
q-14 37 -24.5 50t-27.5 18l-19 7v10h232v-10l-26 -7q-29 -8 -29 -32q0 -17 13 -52l103 -282h4zM343 581l-4 -7l-156 40q-38 10 -38 45q0 20 13 33.5t32 13.5q20 0 39 -18z" />
    <glyph glyph-name="uni2009" unicode="&#x2009;" horiz-adv-x="68" 
 />
    <glyph glyph-name="endash" unicode="&#x2013;" horiz-adv-x="452" 
d="M30 274v26h392v-26h-392z" />
    <glyph glyph-name="emdash" unicode="&#x2014;" horiz-adv-x="741" 
d="M30 274v26h681v-26h-681z" />
    <glyph glyph-name="quoteleft" unicode="&#x2018;" horiz-adv-x="167" 
d="M147 705l3 -7q-86 -37 -89 -110q13 13 34 13q20 0 33.5 -14t13.5 -36q0 -24 -17 -39.5t-43 -15.5q-28 0 -46.5 20t-18.5 54q0 48 34.5 84.5t95.5 50.5z" />
    <glyph glyph-name="quoteright" unicode="&#x2019;" horiz-adv-x="167" 
d="M20 498l-3 6q86 37 89 110q-12 -12 -34 -12q-21 0 -34 13.5t-13 36.5t17 38.5t43 15.5q28 0 46.5 -20t18.5 -54q0 -48 -34.5 -84.5t-95.5 -49.5z" />
    <glyph glyph-name="quotesinglbase" unicode="&#x201a;" horiz-adv-x="167" 
d="M20 -97l-3 7q86 36 89 110q-13 -13 -34 -13t-34 14t-13 36q0 24 17 39t43 15q28 0 46.5 -19.5t18.5 -53.5q0 -48 -34.5 -84.5t-95.5 -50.5z" />
    <glyph glyph-name="quotedblleft" unicode="&#x201c;" horiz-adv-x="317" 
d="M297 705l3 -7q-86 -37 -88 -110q12 13 33 13t34 -14t13 -36q0 -24 -17 -39.5t-42 -15.5q-28 0 -47 20t-19 54q0 48 34.5 84.5t95.5 50.5zM147 705l3 -7q-86 -37 -89 -110q13 13 34 13q20 0 33.5 -14t13.5 -36q0 -24 -17 -39.5t-43 -15.5q-28 0 -46.5 20t-18.5 54
q0 48 34.5 84.5t95.5 50.5z" />
    <glyph glyph-name="quotedblright" unicode="&#x201d;" horiz-adv-x="317" 
d="M20 498l-3 6q86 37 89 110q-12 -12 -34 -12q-21 0 -34 13.5t-13 36.5t17 38.5t43 15.5q28 0 46.5 -20t18.5 -54q0 -48 -34.5 -84.5t-95.5 -49.5zM170 498l-3 6q86 37 89 110q-12 -12 -34 -12q-21 0 -33.5 13.5t-12.5 36.5t17 38.5t42 15.5q28 0 47 -20t19 -54
q0 -48 -35 -84.5t-96 -49.5z" />
    <glyph glyph-name="quotedblbase" unicode="&#x201e;" horiz-adv-x="317" 
d="M20 -97l-3 7q86 36 89 110q-13 -13 -34 -13t-34 14t-13 36q0 24 17 39t43 15q28 0 46.5 -19.5t18.5 -53.5q0 -48 -34.5 -84.5t-95.5 -50.5zM170 -97l-3 7q86 36 89 110q-13 -13 -34 -13q-20 0 -33 14t-13 36q0 24 16.5 39t42.5 15q29 0 47.5 -19.5t18.5 -53.5
q0 -48 -35 -84.5t-96 -50.5z" />
    <glyph glyph-name="dagger" unicode="&#x2020;" horiz-adv-x="403" 
d="M194 494q-27 -3 -70.5 -22.5t-58.5 -19.5q-23 0 -36.5 13t-13.5 35q0 21 14 34.5t36 13.5q14 0 58 -19.5t71 -22.5q-2 31 -23.5 79.5t-21.5 63.5q0 24 14 38.5t38 14.5t38.5 -14.5t14.5 -38.5q0 -15 -21.5 -63.5t-23.5 -79.5q27 3 71 22.5t58 19.5q22 0 36 -13.5
t14 -34.5q0 -22 -13.5 -35t-36.5 -13q-15 0 -58.5 19.5t-70.5 22.5q2 -29 16 -64.5t32 -57.5l-51 -439h-9l-51 439q18 22 32.5 57.5t15.5 64.5z" />
    <glyph glyph-name="daggerdbl" unicode="&#x2021;" horiz-adv-x="402" 
d="M255 419l-51 -97h-7l-52 97q39 41 49 86q-28 -3 -71.5 -22t-57.5 -19q-22 0 -36 13t-14 34q0 22 13.5 35t36.5 13q15 0 58.5 -19.5t70.5 -22.5q-3 30 -24.5 79.5t-21.5 63.5q0 23 14.5 37t38.5 14t38 -14t14 -37q0 -14 -21.5 -63.5t-23.5 -79.5q27 3 70 22.5t58 19.5
q23 0 37 -13t14 -35q0 -21 -14 -34t-37 -13q-14 0 -57 19t-71 22q7 -43 47 -86zM204 301l51 -97q-40 -45 -47 -86q28 3 71 22t57 19q23 0 37 -13t14 -34q0 -22 -14 -35t-37 -13q-15 0 -58 19.5t-70 22.5q2 -31 23.5 -80t21.5 -63q0 -23 -14 -37t-38 -14t-38.5 14t-14.5 37
q0 14 21.5 63t24.5 80q-27 -3 -70.5 -22.5t-58.5 -19.5q-23 0 -36.5 13t-13.5 35q0 21 14 34t36 13q14 0 57.5 -19t71.5 -22q-9 43 -49 86l52 97h7z" />
    <glyph glyph-name="bullet" unicode="&#x2022;" horiz-adv-x="283" 
d="M27 319q0 48 33.5 81.5t80.5 33.5t81 -33.5t34 -81.5q0 -47 -34 -81t-81 -34t-80.5 34t-33.5 81z" />
    <glyph glyph-name="ellipsis" unicode="&#x2026;" horiz-adv-x="543" 
d="M29 57q0 25 18 43t44 18q25 0 43.5 -18t18.5 -43t-18.5 -43.5t-43.5 -18.5t-43.5 18.5t-18.5 43.5zM209 57q0 25 18 43t44 18q25 0 43.5 -18t18.5 -43t-18.5 -43.5t-43.5 -18.5t-43.5 18.5t-18.5 43.5zM390 57q0 25 18 43t44 18q25 0 43.5 -18t18.5 -43t-18.5 -43.5
t-43.5 -18.5q-26 0 -44 18.5t-18 43.5z" />
    <glyph glyph-name="perthousand" unicode="&#x2030;" horiz-adv-x="999" 
d="M57 -50l504 764h31l-503 -764h-32zM182 357q-63 0 -109.5 43t-46.5 123q0 86 48 132.5t110 46.5q63 0 109.5 -43.5t46.5 -125.5q0 -84 -48.5 -130t-109.5 -46zM182 376q38 0 54 34t16 112q0 86 -16 123.5t-54 37.5q-36 0 -52 -35t-16 -114q0 -83 16 -120.5t52 -37.5z
M478 -12q-63 0 -109 42t-46 123q0 87 48 133.5t109 46.5q64 0 110 -44t46 -126q0 -84 -48 -129.5t-110 -45.5zM479 6q38 0 54 34t16 113q0 86 -16 123.5t-54 37.5q-36 0 -52 -35t-16 -115q0 -83 16 -120.5t52 -37.5zM814 -12q-63 0 -109 42t-46 123q0 87 48 133.5t109 46.5
q64 0 110.5 -44t46.5 -126q0 -84 -48.5 -129.5t-110.5 -45.5zM815 6q38 0 54 34t16 113q0 86 -16 123.5t-54 37.5q-36 0 -52 -35t-16 -115q0 -82 16.5 -120t51.5 -38z" />
    <glyph glyph-name="uni2032" unicode="&#x2032;" horiz-adv-x="165" 
d="M59 467l-19 159q-9 76 50 76q32 0 44.5 -23t-0.5 -56l-64 -156h-11z" />
    <glyph glyph-name="uni2033" unicode="&#x2033;" horiz-adv-x="298" 
d="M59 467l-19 159q-9 76 50 76q32 0 44.5 -23t-0.5 -56l-64 -156h-11zM192 467l-19 159q-9 76 50 76q31 0 44 -23t-1 -56l-64 -156h-10z" />
    <glyph glyph-name="guilsinglleft" unicode="&#x2039;" horiz-adv-x="237" 
d="M201 56l-169 189v15l169 189h16l-101 -196l101 -197h-16z" />
    <glyph glyph-name="guilsinglright" unicode="&#x203a;" horiz-adv-x="237" 
d="M205 245l-169 -189h-16l101 197l-101 196h16l169 -189v-15z" />
    <glyph glyph-name="fraction" unicode="&#x2044;" horiz-adv-x="243" 
d="M-146 -50l504 764h31l-504 -764h-31z" />
    <glyph glyph-name="Euro" unicode="&#x20ac;" horiz-adv-x="563" 
d="M11 394v23h64q22 135 106 210.5t186 75.5q76 0 125 -26t49 -71q0 -24 -15.5 -38t-40.5 -14q-29 0 -42 15.5t-18 54.5q-4 35 -16 46t-46 11q-73 0 -119.5 -64.5t-55.5 -199.5h224l-5 -23h-220v-37q0 -37 1 -53h203l-5 -23h-196q11 -127 61 -182.5t137 -55.5q80 0 146 40
v-13q-27 -34 -78.5 -57t-112.5 -23q-119 0 -191 70.5t-82 220.5h-59v23h57v26q0 36 4 64h-61z" />
    <glyph glyph-name="trademark" unicode="&#x2122;" horiz-adv-x="641" 
d="M288 427v8l12 2q15 5 19.5 11.5t4.5 23.5v186q0 11 -3.5 15t-12.5 6l-19 5v9h104l67 -186h3l65 186h101v-9l-18 -4q-15 -2 -15 -23v-191q0 -16 2.5 -20.5t10.5 -6.5l20 -5v-7h-125v7l19 5q8 2 10.5 6.5t2.5 20.5v197h-2l-80 -230h-24l-87 230h-2v-191q0 -18 3.5 -24
t16.5 -10l16 -4v-7h-89zM109 466v213h-4q-24 0 -34.5 -4.5t-18.5 -17.5t-26 -61h-9l4 97h237l4 -97h-9q-14 42 -26 61q-7 13 -17.5 17.5t-35.5 4.5h-3v-213q0 -14 2.5 -19t11.5 -7l24 -5v-9h-139v9l23 5q16 4 16 26z" />
    <glyph glyph-name="onethird" unicode="&#x2153;" horiz-adv-x="615" 
d="M7 338v10l25 6q15 4 19.5 10t4.5 27v227l-49 8v9q80 14 122 62l9 -3v-303q0 -20 4.5 -27t19.5 -10l23 -6v-10h-178zM17 -50l504 764h31l-504 -764h-31zM453 -6q-48 0 -76.5 16.5t-28.5 42.5q0 14 9.5 22.5t23.5 8.5q30 0 37 -38q4 -20 11 -26.5t27 -6.5q27 0 44 22t17 59
q0 40 -16.5 59.5t-58.5 19.5h-18v21h21q65 0 65 80q0 69 -48 69q-17 0 -23.5 -6t-9.5 -21q-4 -24 -12.5 -34t-25.5 -10q-15 0 -23.5 8.5t-8.5 21.5q0 26 28.5 43t77.5 17q55 0 88 -23.5t33 -63.5q0 -34 -24.5 -57t-67.5 -29v-3q104 -9 104 -88q0 -43 -37 -73.5t-108 -30.5z
" />
    <glyph glyph-name="twothirds" unicode="&#x2154;" horiz-adv-x="638" 
d="M4 338v39q67 54 97 86q69 73 69 144q0 74 -50 74q-19 0 -26 -7.5t-9 -23.5q-4 -46 -41 -46q-16 0 -25 9t-9 24q0 26 32 44.5t82 18.5q61 0 95 -27.5t34 -73.5q0 -52 -46.5 -96t-150.5 -103v-3h143q17 0 25 9t20 38h10l-9 -106h-241zM48 -50l504 764h31l-504 -764h-31z
M476 -6q-48 0 -76.5 16.5t-28.5 42.5q0 14 9.5 22.5t23.5 8.5q30 0 37 -38q4 -20 11 -26.5t27 -6.5q27 0 44 22t17 59q0 40 -16.5 59.5t-58.5 19.5h-18v21h21q65 0 65 80q0 69 -48 69q-17 0 -23.5 -6t-9.5 -21q-4 -24 -12.5 -34t-25.5 -10q-15 0 -23.5 8.5t-8.5 21.5
q0 26 28.5 43t77.5 17q55 0 88 -23.5t33 -63.5q0 -34 -24.5 -57t-67.5 -29v-3q104 -9 104 -88q0 -43 -37 -73.5t-108 -30.5z" />
    <glyph glyph-name="oneeighth" unicode="&#x215b;" horiz-adv-x="615" 
d="M7 338v10l25 6q15 4 19.5 10t4.5 27v227l-49 8v9q80 14 122 62l9 -3v-303q0 -20 4.5 -27t19.5 -10l23 -6v-10h-178zM12 -50l504 764h31l-504 -764h-31zM462 -6q-57 0 -95 22.5t-38 61.5q0 61 83 89v3q-65 32 -65 90q0 47 38 74.5t86 27.5q49 0 83 -21.5t34 -60.5
q0 -48 -70 -77v-3q81 -34 81 -95q0 -45 -38 -78t-99 -33zM469 13q31 0 50.5 16.5t19.5 42.5q0 29 -24 47t-85 42q-38 -25 -38 -74q0 -74 77 -74zM501 208q28 28 28 69q0 30 -16 48t-47 18q-26 0 -44.5 -13.5t-18.5 -37.5q0 -28 21 -45.5t77 -38.5z" />
    <glyph glyph-name="threeeighths" unicode="&#x215c;" horiz-adv-x="638" 
d="M33 -50l504 764h31l-504 -764h-31zM484 -6q-57 0 -95 22.5t-38 61.5q0 61 83 89v3q-65 32 -65 90q0 47 38 74.5t86 27.5q49 0 83 -21.5t34 -60.5q0 -48 -70 -77v-3q81 -34 81 -95q0 -45 -38 -78t-99 -33zM491 13q31 0 50.5 16.5t19.5 42.5q0 29 -24 47t-85 42
q-38 -25 -38 -74q0 -74 77 -74zM523 208q28 28 28 69q0 30 -16 48t-47 18q-26 0 -44.5 -13.5t-18.5 -37.5q0 -28 21 -45.5t77 -38.5zM108 332q-48 0 -76.5 16.5t-28.5 42.5q0 14 9.5 22.5t23.5 8.5q30 0 37 -38q4 -20 11 -26.5t27 -6.5q27 0 44 22t17 59q0 40 -16.5 59.5
t-58.5 19.5h-18v21h21q65 0 65 80q0 69 -48 69q-17 0 -23.5 -6t-9.5 -21q-4 -24 -12.5 -34t-25.5 -10q-15 0 -23.5 8.5t-8.5 21.5q0 26 28.5 43t77.5 17q55 0 88 -23.5t33 -63.5q0 -34 -24.5 -57t-67.5 -29v-3q104 -9 104 -88q0 -43 -37 -73.5t-108 -30.5z" />
    <glyph glyph-name="fiveeighths" unicode="&#x215d;" horiz-adv-x="635" 
d="M29 -50l504 764h31l-504 -764h-31zM482 -6q-57 0 -95 22.5t-38 61.5q0 61 83 89v3q-65 32 -65 90q0 47 38 74.5t86 27.5q49 0 83 -21.5t34 -60.5q0 -48 -70 -77v-3q81 -34 81 -95q0 -45 -38 -78t-99 -33zM489 13q31 0 50.5 16.5t19.5 42.5q0 29 -24 47t-85 42
q-38 -25 -38 -74q0 -74 77 -74zM521 208q28 28 28 69q0 30 -16 48t-47 18q-26 0 -44.5 -13.5t-18.5 -37.5q0 -28 21 -45.5t77 -38.5zM104 332q-45 0 -70 15t-25 38q0 32 33 32q15 0 22.5 -8.5t11.5 -27.5q4 -17 11 -23.5t26 -6.5q33 0 51 22t18 59q0 35 -21.5 55t-59.5 20
q-28 0 -66 -10l-7 7l21 189h152q12 0 18 4.5t15 24.5h12l-11 -90l-172 1l-8 -74q25 9 70 9q62 0 94 -29t32 -77q0 -58 -41 -94t-106 -36z" />
    <glyph glyph-name="seveneighths" unicode="&#x215e;" horiz-adv-x="623" 
d="M55 338q8 80 52 159.5t110 133.5h-160q-16 0 -22.5 -7t-17.5 -36h-11l11 105h237v-34q-109 -137 -112 -321h-87zM5 -50l504 764h31l-504 -764h-31zM469 -6q-57 0 -95 22.5t-38 61.5q0 61 83 89v3q-65 32 -65 90q0 47 38 74.5t86 27.5q49 0 83 -21.5t34 -60.5
q0 -48 -70 -77v-3q81 -34 81 -95q0 -45 -38 -78t-99 -33zM476 13q31 0 50.5 16.5t19.5 42.5q0 29 -24 47t-85 42q-38 -25 -38 -74q0 -74 77 -74zM508 208q28 28 28 69q0 30 -16 48t-47 18q-26 0 -44.5 -13.5t-18.5 -37.5q0 -28 21 -45.5t77 -38.5z" />
    <glyph glyph-name="arrowleft" unicode="&#x2190;" horiz-adv-x="806" 
d="M691 250l-339 16l80 -66q53 -44 40 -99.5t-63.5 -68.5t-100.5 26l-286 287v4l287 288q45 45 99.5 26t63.5 -69t-40 -100l-80 -66l339 16q63 3 89.5 -47t0 -100t-89.5 -47z" />
    <glyph glyph-name="arrowright" unicode="&#x2192;" horiz-adv-x="806" 
d="M454 266l-339 -16q-63 -3 -89.5 47t0 100t89.5 47l339 -16l-80 66q-53 44 -40 99.5t63 69t100 -25.5l287 -288v-4l-286 -287q-46 -45 -100.5 -26.5t-63.5 68.5t40 100z" />
    <glyph glyph-name="minus" unicode="&#x2212;" horiz-adv-x="439" 
d="M35 328v26h369v-26h-369z" />
    <glyph glyph-name="uni24C5" unicode="&#x24c5;" horiz-adv-x="770" 
d="M398 166v-11h-165v11l14 3q18 5 21 10.5t3 30.5v12v252q0 33 -3.5 40t-23.5 12l-11 3v12h166q71 0 108.5 -28.5t37.5 -82.5q0 -57 -35 -88t-99 -31q-14 0 -36 4v9q48 2 68.5 24.5t20.5 75.5q0 51 -17.5 74t-55.5 23q-27 0 -42 -6v-292q0 -36 3.5 -43t23.5 -10zM30 343
q0 149 103.5 253t251.5 104q149 0 252 -104t103 -253q0 -148 -103 -252t-252 -104q-148 0 -251.5 104t-103.5 252zM58 343q0 -136 95.5 -233.5t231.5 -97.5q137 0 232.5 97.5t95.5 233.5q0 137 -95.5 234t-232.5 97q-136 0 -231.5 -97t-95.5 -234z" />
    <glyph glyph-name="square" unicode="&#x25a0;" horiz-adv-x="914" 
d="M110 0v693h694v-693h-694z" />
    <glyph glyph-name="squareopen" unicode="&#x25a1;" horiz-adv-x="914" 
d="M110 0v693h694v-693h-694zM156 44h602v607h-602v-607z" />
    <glyph glyph-name="triangleup" unicode="&#x25b2;" horiz-adv-x="817" 
d="M774 0h-729v14l354 710h20l355 -710v-14z" />
    <glyph glyph-name="triangleupopen" unicode="&#x25b3;" horiz-adv-x="819" 
d="M791 0h-729v14l359 710h10l360 -710v-14zM727 42l-302 597l-300 -597h602z" />
    <glyph glyph-name="triangleright" unicode="&#x25b6;" horiz-adv-x="848" 
d="M110 -18v729h14l680 -359v-10l-680 -360h-14z" />
    <glyph glyph-name="trianglerightopen" unicode="&#x25b7;" horiz-adv-x="848" 
d="M110 -18v729h14l680 -359v-10l-680 -360h-14zM156 45l569 302l-569 302v-604z" />
    <glyph glyph-name="triangledown" unicode="&#x25bc;" horiz-adv-x="817" 
d="M44 693h729v-14l-354 -710h-20l-355 710v14z" />
    <glyph glyph-name="triangledownopen" unicode="&#x25bd;" horiz-adv-x="819" 
d="M61 693h729v-14l-359 -710h-10l-360 710v14zM125 651l302 -597l300 597h-602z" />
    <glyph glyph-name="triangleleft" unicode="&#x25c0;" horiz-adv-x="848" 
d="M738 711v-729h-14l-680 360v10l680 359h14z" />
    <glyph glyph-name="triangleleftopen" unicode="&#x25c1;" horiz-adv-x="848" 
d="M738 711v-729h-14l-680 360v10l680 359h14zM123 347l569 -302v604z" />
    <glyph glyph-name="circle" unicode="&#x25cb;" horiz-adv-x="794" 
d="M396 -15q-150 0 -255.5 106t-105.5 256t105.5 255.5t255.5 105.5t256.5 -105.5t106.5 -255.5q0 -149 -107 -255.5t-256 -106.5z" />
    <glyph glyph-name="circleopen" unicode="&#x25cf;" horiz-adv-x="794" 
d="M396 -15q-150 0 -255.5 106t-105.5 256t105.5 255.5t255.5 105.5t256.5 -105.5t106.5 -255.5q0 -149 -107 -255.5t-256 -106.5zM396 27q131 0 223.5 94t92.5 226t-92.5 225.5t-223.5 93.5q-132 0 -223 -93t-91 -226q0 -132 91 -226t223 -94z" />
    <glyph glyph-name="star" unicode="&#x2605;" horiz-adv-x="820" 
d="M163 -34l-7 4l96 291l-244 174v8h304l94 291h8l95 -291h303v-8l-243 -174l95 -289l-7 -4l-247 176z" />
    <glyph glyph-name="staropen" unicode="&#x2606;" horiz-adv-x="820" 
d="M163 -34l-7 4l96 291l-244 174v8h304l94 291h8l95 -291h303v-8l-243 -174l95 -289l-7 -4l-247 176zM223 54l188 140l186 -140l-76 222l190 130h-229l-72 221l-72 -221h-228l189 -130z" />
    <glyph glyph-name="space_uni0326" 
d="M170 -220l-3 7q73 31 81 87q-11 -11 -32 -11q-19 0 -30.5 12.5t-11.5 30.5q0 19 15 33.5t39 14.5q27 0 44.5 -17t17.5 -46q0 -41 -32.5 -72t-87.5 -39z" />
    <glyph glyph-name="caron.alt" 
d="M218 585l-8 2l4 129q0 43 37 43q19 0 31 -10.5t13 -26.5q0 -15 -13 -36z" />
    <glyph glyph-name="space_uni0326.alt" 
d="M289 748l3 -7q-74 -31 -80 -87q9 11 31 11q19 0 30.5 -12.5t11.5 -30.5q0 -19 -14.5 -34t-39.5 -15q-27 0 -44.5 17.5t-17.5 46.5q0 41 33 72t87 39z" />
    <glyph glyph-name="acute.pl" 
d="M198 567l-8 4l36 133q12 41 44 41q21 0 34.5 -12.5t13.5 -29.5q0 -23 -24 -46z" />
    <glyph glyph-name="grave.uc" 
d="M333 731l-3 -8l-166 38q-41 9 -41 45q0 19 12.5 32.5t31.5 13.5t38 -17z" />
    <glyph glyph-name="dieresis.uc" 
d="M141 730q-24 0 -40.5 16.5t-16.5 41.5q0 24 16.5 40t40.5 16q25 0 41.5 -16t16.5 -40q0 -26 -16.5 -42t-41.5 -16zM318 730q-25 0 -41.5 16.5t-16.5 41.5q0 24 16.5 40t41.5 16t41.5 -16t16.5 -40q0 -25 -16.5 -41.5t-41.5 -16.5z" />
    <glyph glyph-name="macron.uc" 
d="M108 754v46h243v-46h-243z" />
    <glyph glyph-name="acute.uc" 
d="M127 728l-3 7l128 105q17 16 38 16q20 0 32 -13.5t12 -32.5q0 -36 -41 -44z" />
    <glyph glyph-name="circumflex.uc" 
d="M99 723l-6 7l118 124h37l117 -124l-5 -7l-130 53z" />
    <glyph glyph-name="caron.uc" 
d="M93 852l6 7l131 -53l130 53l5 -7l-117 -124h-37z" />
    <glyph glyph-name="breve.uc" 
d="M231 730q-104 0 -116 124l8 2q28 -59 107 -59q43 0 66.5 15t38.5 44l7 -2q-3 -53 -31 -88.5t-80 -35.5z" />
    <glyph glyph-name="dotaccent.uc" horiz-adv-x="415" 
d="M210 732q-26 0 -45 17.5t-19 42.5t19 42.5t45 17.5t43.5 -17.5t17.5 -42.5t-18 -42.5t-43 -17.5z" />
    <glyph glyph-name="ring.uc" horiz-adv-x="460" 
d="M146 800q0 34 24.5 57t59.5 23t59.5 -23t24.5 -57t-24.5 -56.5t-59.5 -22.5t-59.5 22.5t-24.5 56.5zM173 800q0 -25 15.5 -41.5t41.5 -16.5q25 0 41 17t16 41q0 25 -16 42t-41 17q-26 0 -41.5 -17t-15.5 -42z" />
    <glyph glyph-name="tilde.uc" 
d="M290 747q-22 0 -73 12t-72 12q-20 0 -31 -8.5t-25 -31.5l-10 5q19 55 37.5 80.5t51.5 25.5q21 0 71.5 -12t69.5 -12q37 0 61 41l10 -5q-18 -55 -37 -81t-53 -26z" />
    <glyph glyph-name="hungarumlaut.uc" 
d="M96 730l-7 6l60 112q17 35 44 35q18 0 31.5 -12.5t13.5 -29.5q0 -27 -34 -47zM259 730l-7 6l60 112q17 35 44 35q18 0 31.5 -12.5t13.5 -29.5q0 -26 -33 -47z" />
    <glyph glyph-name="acute.ucpl" 
d="M177 725l-7 5l42 122q14 40 45 40q19 0 32 -13t13 -29q0 -23 -24 -42z" />
    <glyph glyph-name="Cacute.pl" horiz-adv-x="596" 
d="M333 -10q-142 0 -225 86t-83 265q0 96 28 168t77 113t108 61t129 20q99 0 179 -23l13 -187h-12q-41 86 -57 113q-26 45 -53 60t-80 15q-97 0 -154 -79t-57 -242q0 -180 48.5 -264t144.5 -84q69 0 101.5 16t57.5 64q6 11 54 120h12l-12 -185q-89 -37 -219 -37zM321 725
l-7 5l42 122q14 40 45 40q19 0 32 -13t13 -29q0 -23 -24 -42z" />
    <glyph glyph-name="Nacute.pl" horiz-adv-x="653" 
d="M318 725l-7 5l42 122q14 40 45 40q19 0 32 -13t13 -29q0 -23 -24 -42zM528 -4l-408 624h-3v-521q0 -45 7 -58.5t35 -20.5l39 -9v-11h-186v11l38 9q25 7 32 20.5t7 57.5v515q0 34 -7.5 45.5t-32.5 16.5l-35 7v11h192l330 -506h3v407q0 45 -7 58.5t-34 20.5l-43 9v11h187
v-11l-36 -9q-25 -7 -32 -21t-7 -56v-600h-39z" />
    <glyph glyph-name="Oacute.pl" horiz-adv-x="681" 
d="M323 725l-7 5l42 122q14 40 45 40q19 0 32 -13t13 -29q0 -23 -24 -42zM338 -10q-140 0 -226.5 89t-86.5 258q0 95 27 168t72.5 115t101 62.5t117.5 20.5q140 0 226.5 -90.5t86.5 -261.5q0 -76 -18 -138t-48 -103t-71 -68.5t-86 -39.5t-95 -12zM340 12q101 0 148 78
t47 244q0 347 -194 347q-100 0 -147.5 -80t-47.5 -247q0 -342 194 -342z" />
    <glyph glyph-name="Sacute.pl" horiz-adv-x="475" 
d="M219 -10q-120 0 -190 34l-13 176h13q37 -81 61 -117q24 -37 55.5 -54t81.5 -17q61 0 95.5 35t34.5 94q0 55 -32 88.5t-122 77.5q-85 39 -128.5 85t-43.5 119q0 83 58.5 137.5t157.5 54.5t155 -27l11 -162h-12q-33 73 -56 106q-23 35 -44.5 48t-63.5 13q-58 0 -90.5 -29.5
t-32.5 -84.5q0 -54 29 -85.5t105 -67.5q114 -55 157.5 -99.5t43.5 -120.5q0 -82 -60.5 -143t-169.5 -61zM210 725l-7 5l42 122q14 40 45 40q19 0 32 -13t13 -29q0 -23 -24 -42z" />
    <glyph glyph-name="Zacute.pl" horiz-adv-x="560" 
d="M20 0v24l382 643v4h-83q-108 0 -141.5 -11t-51.5 -44q-26 -48 -58 -123h-11l14 200h460v-23l-384 -645v-4h80q96 0 135.5 4.5t56.5 15t38 41.5q22 34 62 126h11l-18 -208h-492zM270 725l-7 5l42 122q14 40 45 40q19 0 32 -13t13 -29q0 -23 -24 -42z" />
    <glyph glyph-name="cacute.pl" horiz-adv-x="451" 
d="M251 -12q-106 0 -167.5 66.5t-61.5 185.5q0 71 25 128t64.5 90.5t85 51t90.5 17.5q71 0 109 -24t38 -65q0 -51 -55 -51q-26 0 -38 14t-17 47q-7 34 -15.5 44.5t-38.5 10.5q-59 0 -99.5 -58.5t-40.5 -167.5q0 -235 172 -235q70 0 129 34v-12q-24 -30 -73 -53t-107 -23z
M231 567l-8 4l36 133q12 41 44 41q21 0 34.5 -12.5t13.5 -29.5q0 -23 -24 -46z" />
    <glyph glyph-name="idotaccent" horiz-adv-x="253" 
d="M10 0v10l28 7q26 6 31.5 14t5.5 37v354q0 27 -6 35.5t-33 21.5l-26 15v8l168 22l5 -2q-4 -68 -4 -116v-338q0 -29 6.5 -37t33.5 -14l26 -7v-10h-235zM62 656q0 25 17.5 42t43.5 17t43.5 -17t17.5 -42q0 -26 -17.5 -42.5t-43.5 -16.5t-43.5 16.5t-17.5 42.5z" />
    <glyph glyph-name="nacute.pl" horiz-adv-x="565" 
d="M272 567l-8 4l36 133q12 41 44 41q21 0 34.5 -12.5t13.5 -29.5q0 -23 -24 -46zM10 0v10l28 7q26 6 31.5 14t5.5 37v355q0 27 -6 35t-32 22l-25 14v8l161 22l6 -2l-1 -63h1q104 68 186 68q70 0 101 -32.5t31 -101.5v-325q0 -29 5.5 -37t31.5 -14l28 -7v-10h-234v10l28 6
q25 6 30.5 14t5.5 38v307q0 52 -17 73t-61 21q-57 0 -135 -27v-374q0 -30 6 -38t31 -14l29 -6v-10h-235z" />
    <glyph glyph-name="oacute.pl" horiz-adv-x="546" 
d="M273 -10q-110 0 -180.5 69t-70.5 197q0 126 74 198.5t177 72.5q110 0 180.5 -68.5t70.5 -197.5q0 -126 -74.5 -198.5t-176.5 -72.5zM277 10q69 0 102 57.5t33 180.5q0 136 -35 197t-106 61q-68 0 -102.5 -57.5t-34.5 -181.5q0 -136 35 -196.5t108 -60.5zM261 567l-8 4
l36 133q12 41 44 41q21 0 34.5 -12.5t13.5 -29.5q0 -23 -24 -46z" />
    <glyph glyph-name="sacute.pl" horiz-adv-x="392" 
d="M179 -10q-84 0 -155 23l-3 146h11q31 -64 42 -82q20 -36 45.5 -51.5t68.5 -15.5q45 0 71 25.5t26 67.5q0 39 -25.5 63t-92.5 50q-72 29 -106.5 65t-34.5 95q0 67 50 109t132 42q71 0 131 -23l3 -126h-11q-28 55 -44 79q-17 26 -37 37.5t-53 11.5q-45 0 -71 -24t-26 -61
t27 -60t93 -49q77 -31 113.5 -66t36.5 -94q0 -70 -51 -116t-140 -46zM183 567l-8 4l36 133q12 41 44 41q21 0 34.5 -12.5t13.5 -29.5q0 -23 -24 -46z" />
    <glyph glyph-name="zacute.pl" horiz-adv-x="462" 
d="M18 0v21l303 463v4h-110q-55 0 -72 -7.5t-38 -40.5q-10 -14 -45 -84h-10l7 154h387v-18l-304 -466v-4h101q74 0 98 10t42 43q20 32 45 91h10l-11 -166h-403zM221 567l-8 4l36 133q12 41 44 41q21 0 34.5 -12.5t13.5 -29.5q0 -23 -24 -46z" />
    <glyph glyph-name="dollar.old" horiz-adv-x="476" 
d="M22 92q0 21 13 35.5t36 14.5q24 0 38.5 -14t20.5 -49q5 -37 21.5 -51.5t68.5 -15.5v272l-1 1q-101 44 -144 91.5t-43 116.5q0 68 52.5 118.5t136.5 57.5v63h25v-62q87 0 133 -28.5t46 -68.5q0 -21 -13 -34.5t-35 -13.5q-26 0 -38.5 13.5t-16.5 48.5q-3 31 -19.5 45.5
t-56.5 15.5v-255h1q111 -48 156 -95t45 -118q0 -73 -54.5 -128t-148.5 -61v-93h-25v92q-101 1 -149.5 28.5t-48.5 73.5zM359 137q0 45 -26 75.5t-88 60.5v-261q52 5 83 38.5t31 86.5zM113 536q0 -42 25 -72.5t83 -58.5v242q-51 -4 -79.5 -35t-28.5 -76z" />
    <glyph glyph-name="Euro.old" horiz-adv-x="527" 
d="M7 371v23h61q21 124 99.5 199.5t185.5 75.5q73 0 114.5 -24.5t41.5 -62.5q0 -22 -13.5 -35.5t-36.5 -13.5q-26 0 -40 14.5t-18 50.5q-4 28 -15.5 38t-40.5 10q-65 0 -111 -67t-56 -185h211l-5 -23h-208v-36q0 -30 1 -43h192l-5 -23h-186q10 -121 58.5 -175t132.5 -54
q78 0 140 40v-13q-29 -34 -78 -56t-105 -22q-113 0 -183 69.5t-80 210.5h-56v23h54v22q0 28 3 57h-57z" />
    <glyph glyph-name="sterling.old" horiz-adv-x="487" 
d="M40 330v24h57q-21 92 -21 129q0 86 62.5 137t170.5 51q72 0 112 -21t40 -59q0 -21 -13.5 -34.5t-35.5 -13.5q-25 0 -37.5 12.5t-19.5 41.5q-8 32 -18.5 42t-38.5 10q-49 0 -75.5 -39t-26.5 -114q0 -25 9 -142h158v-24h-156q5 -55 5 -88q0 -56 -27 -92.5t-86 -61.5v-3h271
q30 0 41.5 11.5t36.5 64.5h11l-20 -161h-420v60q61 34 84.5 61.5t23.5 76.5q0 30 -24 132h-63z" />
    <glyph glyph-name="yen.old" horiz-adv-x="513" 
d="M51 285v22h150v10l-143 253q-23 42 -33 53.5t-30 17.5l-20 6v11h261v-11l-33 -7q-23 -6 -30.5 -12.5t-7.5 -19.5q0 -14 16 -47l115 -211h3l95 202q16 36 16 54q0 14 -8.5 21.5t-30.5 12.5l-31 7v11h178v-11l-18 -6q-25 -9 -39 -26.5t-43 -78.5l-105 -217v-12h150v-22
h-150v-69h150v-22h-150v-115q0 -37 6.5 -46.5t34.5 -14.5l38 -7v-11h-271v11l39 7q28 5 34.5 14.5t6.5 46.5v115h-150v22h150v69h-150z" />
    <glyph glyph-name="zero.old" horiz-adv-x="572" 
d="M283 -10q-110 0 -183 75.5t-73 219.5q0 83 22 146t59.5 99t83.5 53.5t98 17.5q107 0 180.5 -74t73.5 -225q0 -154 -75 -233t-186 -79zM287 12q73 0 108 67.5t35 207.5q0 152 -35 222.5t-108 70.5q-76 0 -111 -67.5t-35 -212.5q0 -288 146 -288z" />
    <glyph glyph-name="one.old" horiz-adv-x="306" 
d="M20 0v11l43 6q24 4 30.5 13.5t6.5 39.5v430l-75 4v12q101 17 171 80l11 -3v-523q0 -31 5.5 -40t27.5 -13l45 -6v-11h-265z" />
    <glyph glyph-name="two.old" horiz-adv-x="464" 
d="M12 0v56q114 86 165 131q80 72 108.5 129.5t28.5 125.5q0 67 -31.5 102.5t-81.5 35.5q-62 0 -65 -50q-1 -38 -14 -54.5t-39 -16.5q-24 0 -37.5 12.5t-13.5 34.5q0 39 45 67t132 28q100 0 157.5 -46.5t57.5 -121.5q0 -87 -76.5 -164.5t-264.5 -183.5v-3h346l-7 -82h-410z
" />
    <glyph glyph-name="three.old" horiz-adv-x="484" 
d="M189 -122q-176 0 -176 84q0 21 13 34.5t36 13.5q45 0 55 -58q6 -30 20.5 -41.5t49.5 -11.5q72 0 109.5 49t37.5 138q0 75 -30.5 113.5t-109.5 38.5h-54v26h45q69 0 102 38t33 119q0 159 -114 159q-35 0 -51 -15t-20 -47q-4 -33 -17.5 -47t-38.5 -14q-22 0 -34.5 12.5
t-12.5 33.5q0 42 49.5 70t130.5 28q107 0 163 -45.5t56 -122.5q0 -68 -41 -115t-117 -62v-3q89 -5 133.5 -51t44.5 -115q0 -101 -74 -155t-188 -54z" />
    <glyph glyph-name="four.old" horiz-adv-x="510" 
d="M396 -112h-107v200h-290v34l337 468h60v-453h109l-7 -49h-102v-200zM43 137h246v336h-3l-243 -335v-1z" />
    <glyph glyph-name="five.old" horiz-adv-x="476" 
d="M177 -122q-79 0 -120.5 22t-41.5 61q0 22 13 36t36 14q46 0 55 -59q6 -33 20 -43t48 -10q72 0 115 55t43 133q0 73 -43 110.5t-123 37.5q-77 0 -124 -19l-7 5l41 369h346l-12 -91h-318l-21 -189q48 16 125 16q107 0 170.5 -52.5t63.5 -150.5q0 -101 -73.5 -173
t-192.5 -72z" />
    <glyph glyph-name="six.old" horiz-adv-x="542" 
d="M273 -10q-118 0 -180 77t-62 229q0 184 92.5 296.5t238.5 112.5q71 0 108 -23.5t37 -58.5q0 -22 -12.5 -35.5t-33.5 -13.5q-47 0 -59 56q-7 31 -19 42t-36 11q-34 0 -65.5 -17t-61.5 -52t-50 -100t-24 -152q79 56 164 56q99 0 151 -51t52 -149q0 -99 -64.5 -163.5
t-175.5 -64.5zM278 12q63 0 93 52t30 139q0 89 -30.5 133t-101.5 44q-31 0 -67 -11t-57 -27l-1 -39q0 -39 1 -64t4.5 -63.5t12.5 -63.5t23 -50t37.5 -37.5t55.5 -12.5z" />
    <glyph glyph-name="seven.old" horiz-adv-x="468" 
d="M113 -112q40 192 113 331.5t189 283.5h-322q-22 0 -31 -10t-26 -48q-4 -10 -7 -16h-13l16 161h429v-52q-95 -143 -149 -293.5t-82 -356.5h-117z" />
    <glyph glyph-name="eight.old" horiz-adv-x="512" 
d="M251 -10q-61 0 -112.5 17t-87 56.5t-35.5 97.5q0 60 42 102.5t123 79.5v4q-131 80 -131 183q0 73 56 124t152 51q89 0 148 -42t59 -112q0 -54 -34.5 -91.5t-107.5 -74.5v-2q89 -50 126 -95t37 -107q0 -83 -66.5 -137t-168.5 -54zM305 393q37 33 55 68t18 85
q0 66 -32.5 101.5t-89.5 35.5t-88 -34.5t-31 -85.5q0 -30 13 -54.5t43 -47t50 -34.5t62 -34zM258 12q67 0 103 37.5t36 92.5q0 15 -3 28t-11 26t-14 22.5t-21.5 22t-23 19.5t-29 20t-29.5 17.5t-34 19.5t-33 19q-91 -74 -91 -172q0 -76 41.5 -114t108.5 -38z" />
    <glyph glyph-name="nine.old" horiz-adv-x="543" 
d="M263 597q118 0 183.5 -82t65.5 -233q0 -190 -90.5 -297t-230.5 -107q-73 0 -111 22t-38 59q0 22 13 35.5t36 13.5q21 0 33.5 -13.5t19.5 -43.5q9 -32 20.5 -42t42.5 -10q79 0 130.5 83t57.5 244q-66 -59 -161 -59q-96 0 -152 54t-56 151q0 106 67.5 165.5t169.5 59.5z
M263 575q-62 0 -93.5 -52t-31.5 -138q0 -83 32.5 -131t100.5 -48q35 0 70 11.5t55 29.5q1 9 1 35q0 41 -1 67t-4.5 65t-12.5 63.5t-23 49t-38 36.5t-55 12z" />
    <glyph glyph-name="percent.old" horiz-adv-x="645" 
d="M58 -47l481 725h31l-480 -725h-32zM171 340q-61 0 -106 40.5t-45 117.5q0 82 46 126t107 44t106 -42t45 -119q0 -80 -46.5 -123.5t-106.5 -43.5zM171 360q35 0 51.5 32.5t16.5 105.5q0 151 -68 151q-67 0 -67 -141q0 -148 67 -148zM472 -11q-61 0 -106 40.5t-45 117.5
q0 82 46.5 126t107.5 44q60 0 105.5 -42t45.5 -119q0 -80 -47 -123.5t-107 -43.5zM473 8q34 0 50.5 32t16.5 106q0 152 -67 152q-68 0 -68 -141q0 -149 68 -149z" />
    <glyph glyph-name="perthousand.old" horiz-adv-x="976" 
d="M58 -47l481 725h31l-480 -725h-32zM171 340q-62 0 -107 40.5t-45 117.5q0 82 46.5 126t107.5 44t106 -42t45 -119q0 -80 -46.5 -123.5t-106.5 -43.5zM171 360q35 0 51.5 32.5t16.5 105.5q0 151 -68 151q-67 0 -67 -141q0 -148 67 -148zM472 -11q-61 0 -106 40.5
t-45 117.5q0 82 46.5 126t107.5 44q60 0 105.5 -42t45.5 -119q0 -80 -47 -123.5t-107 -43.5zM473 8q34 0 50.5 32t16.5 106q0 152 -67 152q-68 0 -68 -141q0 -149 68 -149zM803 -11q-61 0 -106 40.5t-45 117.5q0 82 46.5 126t107.5 44t106 -42t45 -119q0 -80 -47 -123.5
t-107 -43.5zM804 8q35 0 51 32t16 106q0 152 -67 152q-68 0 -68 -141q0 -149 68 -149z" />
    <glyph glyph-name="plus.old" horiz-adv-x="444" 
d="M208 83v193h-170v25h170v194h28v-194h171v-25h-171v-193h-28z" />
    <glyph glyph-name="minus.old" horiz-adv-x="439" 
d="M35 276v26h369v-26h-369z" />
    <glyph glyph-name="multiply.old" horiz-adv-x="425" 
d="M360 463l19 -19l-148 -156l147 -155l-19 -19l-146 154l-146 -154l-20 19l146 155l-146 156l19 19l147 -155z" />
    <glyph glyph-name="divide.old" horiz-adv-x="439" 
d="M35 276v26h370v-26h-370zM218 73q-23 0 -39.5 17.5t-16.5 40.5q0 25 16 41t40 16t40.5 -16.5t16.5 -40.5q0 -23 -17 -40.5t-40 -17.5zM218 388q-23 0 -39.5 17t-16.5 40q0 25 16 41t40 16t40.5 -16t16.5 -41q0 -23 -17 -40t-40 -17z" />
    <glyph glyph-name="equal.old" horiz-adv-x="482" 
d="M42 352v26h399v-26h-399zM42 206v26h399v-26h-399z" />
    <glyph glyph-name="less.old" horiz-adv-x="446" 
d="M393 108l-361 175v22l361 174v-30l-322 -155l322 -157v-29z" />
    <glyph glyph-name="greater.old" horiz-adv-x="446" 
d="M414 283l-360 -175v29l321 157l-321 155v30l360 -174v-22z" />
    <glyph glyph-name="numbersign.old" horiz-adv-x="455" 
d="M215 0l45 200h-127l-44 -200h-27l45 200h-92l17 75h92l28 124h-92l16 75h93l42 184h25l-42 -184h127l42 184h25l-41 -184h93l-17 -75h-93l-28 -124h93l-16 -75h-94l-44 -200h-26zM178 399l-29 -124h127l29 124h-127z" />
    <glyph glyph-name="zero.num" horiz-adv-x="350" 
d="M173 332q-63 0 -110 45.5t-47 134.5q0 91 49.5 139.5t110.5 48.5q62 0 109.5 -45t47.5 -135q0 -89 -49.5 -138.5t-110.5 -49.5zM175 351q34 0 53.5 34.5t19.5 125.5q0 99 -17.5 134.5t-55.5 35.5q-74 0 -74 -160q0 -99 17.5 -134.5t56.5 -35.5z" />
    <glyph glyph-name="one.num" horiz-adv-x="193" 
d="M7 338v10l25 6q15 4 19.5 10t4.5 27v227l-49 8v9q80 14 122 62l9 -3v-303q0 -20 4.5 -27t19.5 -10l23 -6v-10h-178z" />
    <glyph glyph-name="two.num" horiz-adv-x="271" 
d="M4 338v39q67 54 97 86q69 73 69 144q0 74 -50 74q-19 0 -26 -7.5t-9 -23.5q-4 -46 -41 -46q-16 0 -25 9t-9 24q0 26 32 44.5t82 18.5q61 0 95 -27.5t34 -73.5q0 -52 -46.5 -96t-150.5 -103v-3h143q17 0 25 9t20 38h10l-9 -106h-241z" />
    <glyph glyph-name="three.num" horiz-adv-x="270" 
d="M108 332q-48 0 -76.5 16.5t-28.5 42.5q0 14 9.5 22.5t23.5 8.5q30 0 37 -38q4 -20 11 -26.5t27 -6.5q27 0 44 22t17 59q0 40 -16.5 59.5t-58.5 19.5h-18v21h21q65 0 65 80q0 69 -48 69q-17 0 -23.5 -6t-9.5 -21q-4 -24 -12.5 -34t-25.5 -10q-15 0 -23.5 8.5t-8.5 21.5
q0 26 28.5 43t77.5 17q55 0 88 -23.5t33 -63.5q0 -34 -24.5 -57t-67.5 -29v-3q104 -9 104 -88q0 -43 -37 -73.5t-108 -30.5z" />
    <glyph glyph-name="four.num" horiz-adv-x="287" 
d="M98 338v10l25 6q16 3 20 9.5t4 27.5v49h-148v21l180 232h49v-223h55l-4 -30h-51v-49q0 -21 4 -27.5t19 -9.5l25 -6v-10h-178zM31 470h116v150h-1z" />
    <glyph glyph-name="five.num" horiz-adv-x="268" 
d="M104 332q-45 0 -70 15t-25 38q0 32 33 32q15 0 22.5 -8.5t11.5 -27.5q4 -17 11 -23.5t26 -6.5q33 0 51 22t18 59q0 35 -21.5 55t-59.5 20q-28 0 -66 -10l-7 7l21 189h152q12 0 18 4.5t15 24.5h12l-11 -90l-172 1l-8 -74q25 9 70 9q62 0 94 -29t32 -77q0 -58 -41 -94
t-106 -36z" />
    <glyph glyph-name="six.num" horiz-adv-x="305" 
d="M157 332q-68 0 -105 42.5t-37 118.5q0 99 55 153t127 54q41 0 63 -15t22 -37q0 -33 -34 -33q-17 0 -25.5 9t-12.5 31q-2 15 -7 20.5t-17 5.5q-34 0 -59.5 -38t-28.5 -116q31 25 84 25q51 0 80 -25.5t29 -76.5q0 -52 -38 -85t-96 -33zM157 350q55 0 55 90q0 46 -15.5 65.5
t-46.5 19.5q-27 0 -52 -14v-16q0 -78 13 -111.5t46 -33.5z" />
    <glyph glyph-name="seven.num" horiz-adv-x="253" 
d="M55 338q8 80 52 159.5t110 133.5h-160q-16 0 -22.5 -7t-17.5 -36h-11l11 105h237v-34q-109 -137 -112 -321h-87z" />
    <glyph glyph-name="eight.num" horiz-adv-x="296" 
d="M143 332q-57 0 -95 22.5t-38 61.5q0 61 83 89v3q-65 32 -65 90q0 47 38 74.5t86 27.5q49 0 83 -21.5t34 -60.5q0 -48 -70 -77v-3q81 -34 81 -95q0 -45 -38 -78t-99 -33zM150 351q31 0 50.5 16.5t19.5 42.5q0 29 -24 47t-85 42q-38 -25 -38 -74q0 -74 77 -74zM182 546
q28 28 28 69q0 30 -16 48t-47 18q-26 0 -44.5 -13.5t-18.5 -37.5q0 -28 21 -45.5t77 -38.5z" />
    <glyph glyph-name="nine.num" horiz-adv-x="305" 
d="M145 700q67 0 105.5 -42t38.5 -120q0 -100 -52 -153t-130 -53q-38 0 -61.5 14.5t-23.5 37.5q0 15 9 24t25 9q17 0 25.5 -9.5t12.5 -31.5q2 -15 7.5 -20.5t17.5 -5.5q34 0 58 37t28 117q-31 -25 -82 -25t-80.5 26.5t-29.5 76.5q0 52 38 85t94 33zM149 681q-57 0 -57 -88
q0 -47 15.5 -66.5t45.5 -19.5q31 0 52 16v13q0 78 -12 111.5t-44 33.5z" />
    <glyph glyph-name="zero.den" horiz-adv-x="350" 
d="M173 -6q-63 0 -110 45.5t-47 134.5q0 91 49.5 139.5t110.5 48.5q62 0 109.5 -45t47.5 -135q0 -89 -49.5 -138.5t-110.5 -49.5zM175 13q34 0 53.5 34.5t19.5 125.5q0 99 -17.5 134.5t-55.5 35.5q-74 0 -74 -160q0 -99 17.5 -134.5t56.5 -35.5z" />
    <glyph glyph-name="one.den" horiz-adv-x="193" 
d="M7 0v10l25 6q15 4 19.5 10t4.5 27v227l-49 8v9q80 14 122 62l9 -3v-303q0 -20 4.5 -27t19.5 -10l23 -6v-10h-178z" />
    <glyph glyph-name="two.den" horiz-adv-x="271" 
d="M4 0v39q67 54 97 86q69 73 69 144q0 74 -50 74q-19 0 -26 -7.5t-9 -23.5q-4 -46 -41 -46q-16 0 -25 9t-9 24q0 26 32 44.5t82 18.5q61 0 95 -27.5t34 -73.5q0 -52 -46.5 -96t-150.5 -103v-3h143q17 0 25 9t20 38h10l-9 -106h-241z" />
    <glyph glyph-name="three.den" horiz-adv-x="270" 
d="M108 -6q-48 0 -76.5 16.5t-28.5 42.5q0 14 9.5 22.5t23.5 8.5q30 0 37 -38q4 -20 11 -26.5t27 -6.5q27 0 44 22t17 59q0 40 -16.5 59.5t-58.5 19.5h-18v21h21q65 0 65 80q0 69 -48 69q-17 0 -23.5 -6t-9.5 -21q-4 -24 -12.5 -34t-25.5 -10q-15 0 -23.5 8.5t-8.5 21.5
q0 26 28.5 43t77.5 17q55 0 88 -23.5t33 -63.5q0 -34 -24.5 -57t-67.5 -29v-3q104 -9 104 -88q0 -43 -37 -73.5t-108 -30.5z" />
    <glyph glyph-name="four.den" horiz-adv-x="287" 
d="M98 0v10l25 6q16 3 20 9.5t4 27.5v49h-148v21l180 232h49v-223h55l-4 -30h-51v-49q0 -21 4 -27.5t19 -9.5l25 -6v-10h-178zM31 132h116v150h-1z" />
    <glyph glyph-name="five.den" horiz-adv-x="268" 
d="M104 -6q-45 0 -70 15t-25 38q0 32 33 32q15 0 22.5 -8.5t11.5 -27.5q4 -17 11 -23.5t26 -6.5q33 0 51 22t18 59q0 35 -21.5 55t-59.5 20q-28 0 -66 -10l-7 7l21 189h152q12 0 18 4.5t15 24.5h12l-11 -90l-172 1l-8 -74q25 9 70 9q62 0 94 -29t32 -77q0 -58 -41 -94
t-106 -36z" />
    <glyph glyph-name="six.den" horiz-adv-x="305" 
d="M157 -6q-68 0 -105 42.5t-37 118.5q0 99 55 153t127 54q41 0 63 -15t22 -37q0 -33 -34 -33q-17 0 -25.5 9t-12.5 31q-2 15 -7 20.5t-17 5.5q-34 0 -59.5 -38t-28.5 -116q31 25 84 25q51 0 80 -25.5t29 -76.5q0 -52 -38 -85t-96 -33zM157 12q55 0 55 90q0 46 -15.5 65.5
t-46.5 19.5q-27 0 -52 -14v-16q0 -78 13 -111.5t46 -33.5z" />
    <glyph glyph-name="seven.den" horiz-adv-x="253" 
d="M55 0q8 80 52 159.5t110 133.5h-160q-16 0 -22.5 -7t-17.5 -36h-11l11 105h237v-34q-109 -137 -112 -321h-87z" />
    <glyph glyph-name="eight.den" horiz-adv-x="296" 
d="M143 -6q-57 0 -95 22.5t-38 61.5q0 61 83 89v3q-65 32 -65 90q0 47 38 74.5t86 27.5q49 0 83 -21.5t34 -60.5q0 -48 -70 -77v-3q81 -34 81 -95q0 -45 -38 -78t-99 -33zM150 13q31 0 50.5 16.5t19.5 42.5q0 29 -24 47t-85 42q-38 -25 -38 -74q0 -74 77 -74zM182 208
q28 28 28 69q0 30 -16 48t-47 18q-26 0 -44.5 -13.5t-18.5 -37.5q0 -28 21 -45.5t77 -38.5z" />
    <glyph glyph-name="nine.den" horiz-adv-x="305" 
d="M145 362q67 0 105.5 -42t38.5 -120q0 -100 -52 -153t-130 -53q-38 0 -61.5 14.5t-23.5 37.5q0 15 9 24t25 9q17 0 25.5 -9.5t12.5 -31.5q2 -15 7.5 -20.5t17.5 -5.5q34 0 58 37t28 117q-31 -25 -82 -25t-80.5 26.5t-29.5 76.5q0 52 38 85t94 33zM149 343q-57 0 -57 -88
q0 -47 15.5 -66.5t45.5 -19.5q31 0 52 16v13q0 78 -12 111.5t-44 33.5z" />
    <glyph glyph-name="zero.sub" horiz-adv-x="350" 
d="M173 -55q-63 0 -110 45.5t-47 134.5q0 91 49.5 139.5t110.5 48.5q62 0 109.5 -45t47.5 -135q0 -89 -49.5 -138.5t-110.5 -49.5zM175 -36q34 0 53.5 34.5t19.5 125.5q0 99 -17.5 134.5t-55.5 35.5q-74 0 -74 -160q0 -99 17.5 -134.5t56.5 -35.5z" />
    <glyph glyph-name="one.sub" horiz-adv-x="193" 
d="M7 -49v10l25 6q15 4 19.5 10t4.5 27v227l-49 8v9q80 14 122 62l9 -3v-303q0 -20 4.5 -27t19.5 -10l23 -6v-10h-178z" />
    <glyph glyph-name="two.sub" horiz-adv-x="271" 
d="M4 -49v39q67 54 97 86q69 73 69 144q0 74 -50 74q-19 0 -26 -7.5t-9 -23.5q-4 -46 -41 -46q-16 0 -25 9t-9 24q0 26 32 44.5t82 18.5q61 0 95 -27.5t34 -73.5q0 -52 -46.5 -96t-150.5 -103v-3h143q17 0 25 9t20 38h10l-9 -106h-241z" />
    <glyph glyph-name="three.sub" horiz-adv-x="270" 
d="M108 -55q-48 0 -76.5 16.5t-28.5 42.5q0 14 9.5 22.5t23.5 8.5q30 0 37 -38q4 -20 11 -26.5t27 -6.5q27 0 44 22t17 59q0 40 -16.5 59.5t-58.5 19.5h-18v21h21q65 0 65 80q0 69 -48 69q-17 0 -23.5 -6t-9.5 -21q-4 -24 -12.5 -34t-25.5 -10q-15 0 -23.5 8.5t-8.5 21.5
q0 26 28.5 43t77.5 17q55 0 88 -23.5t33 -63.5q0 -34 -24.5 -57t-67.5 -29v-3q104 -9 104 -88q0 -43 -37 -73.5t-108 -30.5z" />
    <glyph glyph-name="four.sub" horiz-adv-x="287" 
d="M98 -49v10l25 6q16 3 20 9.5t4 27.5v49h-148v21l180 232h49v-223h55l-4 -30h-51v-49q0 -21 4 -27.5t19 -9.5l25 -6v-10h-178zM31 83h116v150h-1z" />
    <glyph glyph-name="five.sub" horiz-adv-x="268" 
d="M104 -55q-45 0 -70 15t-25 38q0 32 33 32q15 0 22.5 -8.5t11.5 -27.5q4 -17 11 -23.5t26 -6.5q33 0 51 22t18 59q0 35 -21.5 55t-59.5 20q-28 0 -66 -10l-7 7l21 189h152q12 0 18 4.5t15 24.5h12l-11 -90l-172 1l-8 -74q25 9 70 9q62 0 94 -29t32 -77q0 -58 -41 -94
t-106 -36z" />
    <glyph glyph-name="six.sub" horiz-adv-x="305" 
d="M157 -55q-68 0 -105 42.5t-37 118.5q0 99 55 153t127 54q41 0 63 -15t22 -37q0 -33 -34 -33q-17 0 -25.5 9t-12.5 31q-2 15 -7 20.5t-17 5.5q-34 0 -59.5 -38t-28.5 -116q31 25 84 25q51 0 80 -25.5t29 -76.5q0 -52 -38 -85t-96 -33zM157 -37q55 0 55 90q0 46 -15.5 65.5
t-46.5 19.5q-27 0 -52 -14v-16q0 -78 13 -111.5t46 -33.5z" />
    <glyph glyph-name="seven.sub" horiz-adv-x="253" 
d="M55 -49q8 80 52 159.5t110 133.5h-160q-16 0 -22.5 -7t-17.5 -36h-11l11 105h237v-34q-109 -137 -112 -321h-87z" />
    <glyph glyph-name="eight.sub" horiz-adv-x="296" 
d="M143 -55q-57 0 -95 22.5t-38 61.5q0 61 83 89v3q-65 33 -65 90q0 47 38 74.5t86 27.5q49 0 83 -21.5t34 -60.5q0 -48 -70 -77v-3q81 -34 81 -95q0 -45 -38 -78t-99 -33zM150 -36q31 0 50.5 16.5t19.5 42.5q0 29 -24 47t-85 42q-38 -25 -38 -74q0 -74 77 -74zM182 159
q28 28 28 69q0 30 -16 48t-47 18q-26 0 -44.5 -13.5t-18.5 -37.5q0 -28 21 -45.5t77 -38.5z" />
    <glyph glyph-name="nine.sub" horiz-adv-x="305" 
d="M145 313q67 0 105.5 -42t38.5 -120q0 -100 -52 -153t-130 -53q-38 0 -61.5 14.5t-23.5 37.5q0 15 9 24t25 9q17 0 25.5 -9.5t12.5 -31.5q2 -15 7.5 -20.5t17.5 -5.5q34 0 58 37t28 117q-31 -25 -82 -25t-80.5 26.5t-29.5 76.5q0 52 38 85t94 33zM149 294q-57 0 -57 -88
q0 -47 15.5 -66.5t45.5 -19.5q31 0 52 16v13q0 78 -12 111.5t-44 33.5z" />
    <glyph glyph-name="zero.sup" horiz-adv-x="350" 
d="M173 400q-63 0 -110 45.5t-47 134.5q0 91 49.5 139.5t110.5 48.5q62 0 109.5 -45t47.5 -135q0 -89 -49.5 -138.5t-110.5 -49.5zM175 419q34 0 53.5 34.5t19.5 125.5q0 99 -17.5 134.5t-55.5 35.5q-74 0 -74 -160q0 -99 17.5 -134.5t56.5 -35.5z" />
    <glyph glyph-name="one.sup" horiz-adv-x="193" 
d="M7 406v10l25 6q15 4 19.5 10t4.5 27v227l-49 8v9q80 14 122 62l9 -3v-303q0 -20 4.5 -27t19.5 -10l23 -6v-10h-178z" />
    <glyph glyph-name="two.sup" horiz-adv-x="271" 
d="M4 406v39q67 54 97 86q69 73 69 144q0 74 -50 74q-19 0 -26 -7.5t-9 -23.5q-4 -46 -41 -46q-16 0 -25 9t-9 24q0 26 32 44.5t82 18.5q61 0 95 -27.5t34 -73.5q0 -52 -46.5 -96t-150.5 -103v-3h143q17 0 25 9t20 38h10l-9 -106h-241z" />
    <glyph glyph-name="three.sup" horiz-adv-x="270" 
d="M108 400q-48 0 -76.5 16.5t-28.5 42.5q0 14 9.5 22.5t23.5 8.5q30 0 37 -38q4 -20 11 -26.5t27 -6.5q27 0 44 22t17 59q0 40 -16.5 59.5t-58.5 19.5h-18v21h21q65 0 65 80q0 69 -48 69q-17 0 -23.5 -6t-9.5 -21q-4 -24 -12.5 -34t-25.5 -10q-15 0 -23.5 8.5t-8.5 21.5
q0 26 28.5 43t77.5 17q55 0 88 -23.5t33 -63.5q0 -34 -24.5 -57t-67.5 -29v-3q104 -9 104 -88q0 -43 -37 -73.5t-108 -30.5z" />
    <glyph glyph-name="four.sup" horiz-adv-x="287" 
d="M98 406v10l25 6q16 3 20 9.5t4 27.5v49h-148v21l180 232h49v-223h55l-4 -30h-51v-49q0 -21 4 -27.5t19 -9.5l25 -6v-10h-178zM31 538h116v150h-1z" />
    <glyph glyph-name="five.sup" horiz-adv-x="268" 
d="M104 400q-45 0 -70 15t-25 38q0 32 33 32q15 0 22.5 -8.5t11.5 -27.5q4 -17 11 -23.5t26 -6.5q33 0 51 22t18 59q0 35 -21.5 55t-59.5 20q-28 0 -66 -10l-7 7l21 189h152q12 0 18 4.5t15 24.5h12l-11 -90l-172 1l-8 -74q25 9 70 9q62 0 94 -29t32 -77q0 -58 -41 -94
t-106 -36z" />
    <glyph glyph-name="six.sup" horiz-adv-x="305" 
d="M157 400q-68 0 -105 42.5t-37 118.5q0 99 55 153t127 54q41 0 63 -15t22 -37q0 -33 -34 -33q-17 0 -25.5 9t-12.5 31q-2 15 -7 20.5t-17 5.5q-34 0 -59.5 -38t-28.5 -116q31 25 84 25q51 0 80 -25.5t29 -76.5q0 -52 -38 -85t-96 -33zM157 418q55 0 55 90q0 46 -15.5 65.5
t-46.5 19.5q-27 0 -52 -14v-16q0 -78 13 -111.5t46 -33.5z" />
    <glyph glyph-name="seven.sup" horiz-adv-x="253" 
d="M55 406q8 80 52 159.5t110 133.5h-160q-16 0 -22.5 -7t-17.5 -36h-11l11 105h237v-34q-109 -137 -112 -321h-87z" />
    <glyph glyph-name="eight.sup" horiz-adv-x="296" 
d="M143 400q-57 0 -95 22.5t-38 61.5q0 61 83 89v3q-65 32 -65 90q0 47 38 74.5t86 27.5q49 0 83 -21.5t34 -60.5q0 -48 -70 -77v-3q81 -34 81 -95q0 -45 -38 -78t-99 -33zM150 419q31 0 50.5 16.5t19.5 42.5q0 29 -24 47t-85 42q-38 -25 -38 -74q0 -74 77 -74zM182 614
q28 28 28 69q0 30 -16 48t-47 18q-26 0 -44.5 -13.5t-18.5 -37.5q0 -28 21 -45.5t77 -38.5z" />
    <glyph glyph-name="nine.sup" horiz-adv-x="305" 
d="M145 768q67 0 105.5 -42t38.5 -120q0 -100 -52 -153t-130 -53q-38 0 -61.5 14.5t-23.5 37.5q0 15 9 24t25 9q17 0 25.5 -9.5t12.5 -31.5q2 -15 7.5 -20.5t17.5 -5.5q34 0 58 37t28 117q-31 -25 -82 -25t-80.5 26.5t-29.5 76.5q0 52 38 85t94 33zM149 749q-57 0 -57 -88
q0 -47 15.5 -66.5t45.5 -19.5q31 0 52 16v13q0 78 -12 111.5t-44 33.5z" />
    <glyph glyph-name="J.alt" horiz-adv-x="293" 
d="M7 -163q-53 0 -81 19.5t-28 50.5q0 23 14 36.5t39 13.5q28 0 42 -15.5t19 -55.5q3 -26 21 -26q28 0 42 34t14 116v603q0 38 -6 48t-33 14l-38 7v11h269v-11l-37 -7q-27 -5 -33.5 -14.5t-6.5 -47.5v-550q0 -103 -48.5 -164.5t-148.5 -61.5z" />
    <glyph glyph-name="R.alt" horiz-adv-x="616" 
d="M12 0v11l37 7q27 6 33.5 15.5t6.5 46.5v533q0 38 -6.5 47.5t-33.5 14.5l-37 7v11h279q125 0 184.5 -41.5t59.5 -130.5q0 -75 -52 -121.5t-154 -59.5v-3q49 -7 81 -33t64 -80q29 -49 56 -101t37 -68q19 -31 47 -38l22 -6v-11h-173q-21 39 -56 122t-46 106q-30 60 -52 79.5
t-70 19.5h-35v-247q0 -38 6 -47t34 -15l36 -7v-11h-268zM260 350q78 0 117 37t39 117q0 91 -32.5 128t-100.5 37q-44 0 -79 -7v-308q22 -4 56 -4z" />
    <glyph glyph-name="Jcircumflex.alt" horiz-adv-x="293" 
d="M16 723l-6 7l118 124h37l117 -124l-5 -7l-130 53zM7 -163q-53 0 -81 19.5t-28 50.5q0 23 14 36.5t39 13.5q28 0 42 -15.5t19 -55.5q3 -26 21 -26q28 0 42 34t14 116v603q0 38 -6 48t-33 14l-38 7v11h269v-11l-37 -7q-27 -5 -33.5 -14.5t-6.5 -47.5v-550
q0 -103 -48.5 -164.5t-148.5 -61.5z" />
    <glyph glyph-name="IJ.alt" horiz-adv-x="587" 
d="M12 0v11l38 7q27 5 33.5 14.5t6.5 47.5v533q0 38 -6.5 47.5t-33.5 14.5l-38 7v11h270v-11l-37 -7q-28 -5 -34.5 -14.5t-6.5 -47.5v-533q0 -38 6.5 -47.5t34.5 -14.5l37 -7v-11h-270zM301 -163q-53 0 -81 19.5t-28 50.5q0 23 14 36.5t39 13.5q28 0 42 -15.5t19 -55.5
q3 -26 21 -26q28 0 42 34t14 116v603q0 38 -6 48t-33 14l-38 7v11h269v-11l-37 -7q-27 -5 -33.5 -14.5t-6.5 -47.5v-550q0 -103 -48.5 -164.5t-148.5 -61.5z" />
    <glyph glyph-name="Racute.alt" horiz-adv-x="616" 
d="M205 728l-3 7l128 105q17 16 38 16q20 0 32 -13.5t12 -32.5q0 -36 -41 -44zM12 0v11l37 7q27 6 33.5 15.5t6.5 46.5v533q0 38 -6.5 47.5t-33.5 14.5l-37 7v11h279q125 0 184.5 -41.5t59.5 -130.5q0 -75 -52 -121.5t-154 -59.5v-3q49 -7 81 -33t64 -80q29 -49 56 -101
t37 -68q19 -31 47 -38l22 -6v-11h-173q-21 39 -56 122t-46 106q-30 60 -52 79.5t-70 19.5h-35v-247q0 -38 6 -47t34 -15l36 -7v-11h-268zM260 350q78 0 117 37t39 117q0 91 -32.5 128t-100.5 37q-44 0 -79 -7v-308q22 -4 56 -4z" />
    <glyph glyph-name="Rcaron.alt" horiz-adv-x="616" 
d="M152 852l6 7l131 -53l130 53l5 -7l-117 -124h-37zM12 0v11l37 7q27 6 33.5 15.5t6.5 46.5v533q0 38 -6.5 47.5t-33.5 14.5l-37 7v11h279q125 0 184.5 -41.5t59.5 -130.5q0 -75 -52 -121.5t-154 -59.5v-3q49 -7 81 -33t64 -80q29 -49 56 -101t37 -68q19 -31 47 -38l22 -6
v-11h-173q-21 39 -56 122t-46 106q-30 60 -52 79.5t-70 19.5h-35v-247q0 -38 6 -47t34 -15l36 -7v-11h-268zM260 350q78 0 117 37t39 117q0 91 -32.5 128t-100.5 37q-44 0 -79 -7v-308q22 -4 56 -4z" />
    <glyph glyph-name="Rcommaaccent.alt" horiz-adv-x="616" 
d="M253 -220l-3 7q73 31 81 87q-11 -11 -32 -11q-19 0 -30.5 12.5t-11.5 30.5q0 19 15 33.5t39 14.5q27 0 44.5 -17t17.5 -46q0 -41 -32.5 -72t-87.5 -39zM12 0v11l37 7q27 6 33.5 15.5t6.5 46.5v533q0 38 -6.5 47.5t-33.5 14.5l-37 7v11h279q125 0 184.5 -41.5t59.5 -130.5
q0 -75 -52 -121.5t-154 -59.5v-3q49 -7 81 -33t64 -80q29 -49 56 -101t37 -68q19 -31 47 -38l22 -6v-11h-173q-21 39 -56 122t-46 106q-30 60 -52 79.5t-70 19.5h-35v-247q0 -38 6 -47t34 -15l36 -7v-11h-268zM260 350q78 0 117 37t39 117q0 91 -32.5 128t-100.5 37
q-44 0 -79 -7v-308q22 -4 56 -4z" />
    <glyph glyph-name="f.short" horiz-adv-x="293" 
d="M10 0v10l28 7q25 6 31 14.5t6 37.5v406h-66v8l66 28v46q0 93 40.5 147t124.5 54q44 0 68 -18.5t24 -44.5q0 -19 -11.5 -31.5t-32.5 -12.5q-42 0 -51 52q-3 20 -7.5 27.5t-14.5 7.5q-36 0 -36 -127v-101h100l-5 -35h-95v-406q0 -28 5 -36.5t27 -12.5l45 -10v-10h-246z" />
    <glyph glyph-name="f_f.short" horiz-adv-x="558" 
d="M269 747q45 0 71.5 -17.5t27.5 -43.5q40 72 136 72q45 0 69 -18.5t24 -44.5q0 -19 -11.5 -31.5t-32.5 -12.5q-43 0 -52 52q-2 13 -3.5 19.5t-6 11t-12.5 4.5q-35 0 -35 -127v-101h100l-5 -35h-95v-406q0 -28 5 -36.5t26 -12.5l45 -10v-10h-243v10l27 6q25 6 30.5 14.5
t5.5 38.5v406h-161v-406q0 -29 5 -37.5t26 -12.5l42 -9v-10h-242v10l28 7q25 6 31 14.5t6 37.5v406h-66v8l66 28v38q0 89 51.5 143.5t142.5 54.5zM340 510v47q0 55 13 95q-13 -10 -31 -10q-23 0 -35 12t-17 43q-2 17 -7 24t-16 7q-68 0 -68 -135v-83h161z" />
    <glyph glyph-name="g.short" horiz-adv-x="483" 
d="M204 -195q-98 0 -151.5 28.5t-53.5 82.5q0 79 112 110v2q-71 14 -71 78q0 33 21 61.5t53 45.5v3q-39 19 -62 54t-23 80q0 84 58 130.5t136 46.5q69 0 115 -29q47 49 85 49q24 0 38 -12t14 -35q0 -39 -38 -39q-25 0 -36 24q-7 15 -13 19t-14 1t-22 -15v-2q67 -41 67 -128
q0 -82 -58 -126t-138 -44q-55 0 -92 17q-32 -23 -32 -54q0 -37 60 -37h166q148 0 148 -122q0 -73 -69 -131t-200 -58zM221 -173q79 0 129 31t50 89q0 40 -23.5 58t-76.5 18h-164q-51 -24 -51 -92q0 -104 136 -104zM223 208q47 0 70 33t23 107q0 83 -23 120.5t-70 37.5
t-69.5 -34t-22.5 -109q0 -82 22.5 -118.5t69.5 -36.5z" />
    <glyph glyph-name="gbreve.short" horiz-adv-x="483" 
d="M204 -195q-98 0 -151.5 28.5t-53.5 82.5q0 79 112 110v2q-71 14 -71 78q0 33 21 61.5t53 45.5v3q-39 19 -62 54t-23 80q0 84 58 130.5t136 46.5q69 0 115 -29q47 49 85 49q24 0 38 -12t14 -35q0 -39 -38 -39q-25 0 -36 24q-7 15 -13 19t-14 1t-22 -15v-2q67 -41 67 -128
q0 -82 -58 -126t-138 -44q-55 0 -92 17q-32 -23 -32 -54q0 -37 60 -37h166q148 0 148 -122q0 -73 -69 -131t-200 -58zM221 -173q79 0 129 31t50 89q0 40 -23.5 58t-76.5 18h-164q-51 -24 -51 -92q0 -104 136 -104zM223 208q47 0 70 33t23 107q0 83 -23 120.5t-70 37.5
t-69.5 -34t-22.5 -109q0 -82 22.5 -118.5t69.5 -36.5zM236 579q-104 0 -111 124l8 2q23 -60 102 -60q72 0 99 60l8 -2q-2 -55 -29.5 -89.5t-76.5 -34.5z" />
    <glyph glyph-name="gcircumflex.short" horiz-adv-x="483" 
d="M212 712h36l106 -135l-5 -7l-119 62l-118 -62l-5 7zM204 -195q-98 0 -151.5 28.5t-53.5 82.5q0 79 112 110v2q-71 14 -71 78q0 33 21 61.5t53 45.5v3q-39 19 -62 54t-23 80q0 84 58 130.5t136 46.5q69 0 115 -29q47 49 85 49q24 0 38 -12t14 -35q0 -39 -38 -39
q-25 0 -36 24q-7 15 -13 19t-14 1t-22 -15v-2q67 -41 67 -128q0 -82 -58 -126t-138 -44q-55 0 -92 17q-32 -23 -32 -54q0 -37 60 -37h166q148 0 148 -122q0 -73 -69 -131t-200 -58zM221 -173q79 0 129 31t50 89q0 40 -23.5 58t-76.5 18h-164q-51 -24 -51 -92
q0 -104 136 -104zM223 208q47 0 70 33t23 107q0 83 -23 120.5t-70 37.5t-69.5 -34t-22.5 -109q0 -82 22.5 -118.5t69.5 -36.5z" />
    <glyph glyph-name="gcommaaccent.short" horiz-adv-x="483" 
d="M204 -195q-98 0 -151.5 28.5t-53.5 82.5q0 79 112 110v2q-71 14 -71 78q0 33 21 61.5t53 45.5v3q-39 19 -62 54t-23 80q0 84 58 130.5t136 46.5q69 0 115 -29q47 49 85 49q24 0 38 -12t14 -35q0 -39 -38 -39q-25 0 -36 24q-7 15 -13 19t-14 1t-22 -15v-2q67 -41 67 -128
q0 -82 -58 -126t-138 -44q-55 0 -92 17q-32 -23 -32 -54q0 -37 60 -37h166q148 0 148 -122q0 -73 -69 -131t-200 -58zM221 -173q79 0 129 31t50 89q0 40 -23.5 58t-76.5 18h-164q-51 -24 -51 -92q0 -104 136 -104zM223 208q47 0 70 33t23 107q0 83 -23 120.5t-70 37.5
t-69.5 -34t-22.5 -109q0 -82 22.5 -118.5t69.5 -36.5zM290 748l3 -7q-74 -31 -80 -87q9 11 31 11q19 0 30.5 -12.5t11.5 -30.5q0 -19 -14.5 -34t-39.5 -15q-27 0 -44.5 17.5t-17.5 46.5q0 41 33 72t87 39z" />
    <glyph glyph-name="gdotaccent.short" horiz-adv-x="483" 
d="M204 -195q-98 0 -151.5 28.5t-53.5 82.5q0 79 112 110v2q-71 14 -71 78q0 33 21 61.5t53 45.5v3q-39 19 -62 54t-23 80q0 84 58 130.5t136 46.5q69 0 115 -29q47 49 85 49q24 0 38 -12t14 -35q0 -39 -38 -39q-25 0 -36 24q-7 15 -13 19t-14 1t-22 -15v-2q67 -41 67 -128
q0 -82 -58 -126t-138 -44q-55 0 -92 17q-32 -23 -32 -54q0 -37 60 -37h166q148 0 148 -122q0 -73 -69 -131t-200 -58zM221 -173q79 0 129 31t50 89q0 40 -23.5 58t-76.5 18h-164q-51 -24 -51 -92q0 -104 136 -104zM223 208q47 0 70 33t23 107q0 83 -23 120.5t-70 37.5
t-69.5 -34t-22.5 -109q0 -82 22.5 -118.5t69.5 -36.5zM163 639q0 26 18.5 43.5t44.5 17.5t44.5 -17.5t18.5 -43.5t-18.5 -43.5t-44.5 -17.5t-44.5 17.5t-18.5 43.5z" />
    <glyph glyph-name="registered.alt" horiz-adv-x="766" 
d="M28 343q0 149 103.5 253t251.5 104q149 0 252 -104t103 -253q0 -148 -103 -252t-252 -104q-148 0 -251.5 104t-103.5 252zM56 343q0 -136 95.5 -233.5t231.5 -97.5q137 0 232.5 97.5t95.5 233.5q0 137 -95.5 234t-232.5 97q-136 0 -231.5 -97t-95.5 -234zM214 155v11
l24 5q12 2 15.5 8t3.5 28v281q0 20 -4 26.5t-15 9.5l-24 5v12h174q140 0 140 -100q0 -78 -86 -96v-2q50 -97 97 -157q7 -10 28 -17l9 -3v-11h-102q-50 71 -98 172h-41v-120q0 -22 3.5 -28t17.5 -8l24 -5v-11h-166zM365 347q44 0 64.5 20.5t20.5 66.5q0 50 -15 68t-53 18
q-20 0 -47 -5v-166h1q2 0 5 -0.5t6.5 -1t8 -0.5h9.5z" />
    <glyph glyph-name="questiondown.uc" horiz-adv-x="403" 
d="M270 499v-188q-162 -53 -162 -178q0 -56 32.5 -87.5t90.5 -31.5q20 0 28 9.5t11 32.5q4 35 18.5 49.5t42.5 14.5q48 0 48 -48q0 -38 -41.5 -59.5t-107.5 -21.5q-93 0 -146.5 49t-53.5 133q0 163 210 228v98h30zM314 638q0 -26 -18 -44t-44 -18q-25 0 -43.5 18t-18.5 44
q0 25 18.5 43t43.5 18q26 0 44 -18t18 -43z" />
    <glyph glyph-name="exclamdown.uc" horiz-adv-x="239" 
d="M55 83l58 418h14l57 -418q8 -43 -10 -67t-54 -24q-38 0 -55.5 24t-9.5 67zM58 638q0 25 18 43t43 18q26 0 44 -18t18 -43q0 -26 -18 -44t-44 -18q-25 0 -43 18t-18 44z" />
    <glyph glyph-name="hyphen.uc" horiz-adv-x="261" 
d="M19 310l6 73h217l-6 -73h-217z" />
    <glyph glyph-name="endash.uc" horiz-adv-x="466" 
d="M30 330v26h405v-26h-405z" />
    <glyph glyph-name="emdash.uc" horiz-adv-x="754" 
d="M30 330v26h694v-26h-694z" />
    <glyph glyph-name="guilsinglleft.uc" horiz-adv-x="237" 
d="M212 136l-54 49l-126 141l43 63l131 139l-9 -49l-62 -196z" />
    <glyph glyph-name="guilsinglright.uc" horiz-adv-x="237" 
d="M36 136h-16l101 197l-101 195h16l169 -189v-14z" />
    <glyph glyph-name="guillemotleft.uc" horiz-adv-x="384" 
d="M240 136l-168 189v14l168 189h16l-73 -141l126 141h15l-101 -195l101 -197h-15l-124 139l71 -139h-16z" />
    <glyph glyph-name="guillemotright.uc" horiz-adv-x="384" 
d="M352 326l-169 -189h-16l101 196l-101 196h16l169 -189v-14zM204 326l-168 -189h-16l101 196l-101 196h16l168 -189v-14z" />
    <glyph glyph-name="parenleft.uc" horiz-adv-x="293" 
d="M274 -98q-46 39 -81 76t-71.5 92t-56.5 125t-20 150q0 73 20.5 142t55.5 125t72.5 98.5t80.5 78.5l9 -8q-73 -78 -118.5 -187.5t-45.5 -228.5q0 -278 164 -455z" />
    <glyph glyph-name="parenright.uc" horiz-adv-x="293" 
d="M19 789q229 -192 229 -444q0 -251 -229 -443l-9 9q164 184 164 425q0 277 -164 445z" />
    <glyph glyph-name="bracketleft.uc" horiz-adv-x="280" 
d="M146 691v-690q0 -40 7.5 -52t35.5 -15l81 -9v-11h-196v864h196v-11l-81 -9q-28 -3 -35.5 -15t-7.5 -52z" />
    <glyph glyph-name="bracketright.uc" horiz-adv-x="280" 
d="M134 1v690q0 40 -7.5 52t-36.5 15l-80 9v11h196v-864h-196v11l80 9q29 3 36.5 15t7.5 52z" />
    <glyph glyph-name="braceleft.uc" horiz-adv-x="298" 
d="M19 339v15q72 7 100.5 25t28.5 48q0 21 -28.5 119t-28.5 130q0 58 44.5 79t152.5 23v-11q-77 -9 -97.5 -23.5t-20.5 -53.5t17.5 -127t17.5 -114q0 -40 -30.5 -64t-101.5 -38v-2q73 -14 102.5 -38t29.5 -65q0 -25 -17.5 -113t-17.5 -127q0 -38 21 -53.5t97 -24.5v-11
q-109 3 -153 24t-44 79q0 32 28.5 129.5t28.5 118.5q0 30 -28.5 48.5t-100.5 26.5z" />
    <glyph glyph-name="braceright.uc" horiz-adv-x="298" 
d="M279 354v-15q-72 -8 -100.5 -26.5t-28.5 -48.5q0 -21 28.5 -118.5t28.5 -129.5q0 -58 -43.5 -79t-153.5 -24v11q76 9 97 24.5t21 53.5q0 39 -17.5 127t-17.5 113q0 41 29.5 65t102.5 38v2q-71 14 -101.5 38t-30.5 64q0 26 17.5 114t17.5 127t-20.5 53.5t-97.5 23.5v11
q108 -2 152.5 -23t44.5 -79q0 -32 -28.5 -130t-28.5 -119q0 -30 28.5 -48t100.5 -25z" />
    <glyph glyph-name="slash.uc" horiz-adv-x="357" 
d="M350 777l-317 -864h-29l316 864h30z" />
    <glyph glyph-name="backslash.uc" horiz-adv-x="357" 
d="M324 -87l-317 864h30l316 -864h-29z" />
    <glyph glyph-name="bar.uc" horiz-adv-x="177" 
d="M75 -87v864h27v-864h-27z" />
    <glyph glyph-name="at.uc" horiz-adv-x="777" 
d="M367 -9q-157 0 -252.5 79.5t-95.5 223.5q0 171 122 291t299 120q150 0 235 -79t85 -194q0 -130 -67 -210.5t-161 -80.5q-53 0 -79 30.5t-20 77.5h-2q-66 -108 -138 -108q-44 0 -70 31.5t-26 89.5q0 119 73.5 208t164.5 89q60 0 99 -39h4l40 36l7 -3q-13 -33 -25 -101
l-32 -173q-19 -115 39 -115q50 0 91.5 62.5t41.5 193.5q0 119 -68 191.5t-202 72.5q-150 0 -249 -109.5t-99 -267.5q0 -138 79.5 -214.5t226.5 -76.5q118 0 217 53v-13q-36 -26 -101 -45.5t-137 -19.5zM336 194q22 0 43 18.5t49 58.5l48 236q-11 34 -45 34q-49 0 -90.5 -88
t-41.5 -192q0 -67 37 -67z" />
    </font>
</defs>
</svg>
