<?xml version="1.0" standalone="no"?>
<!DOCTYPE svg PUBLIC "-//W3C//DTD SVG 1.1//EN" "http://www.w3.org/Graphics/SVG/1.1/DTD/svg11.dtd" >
<svg xmlns="http://www.w3.org/2000/svg" xmlns:xlink="http://www.w3.org/1999/xlink" version="1.1">
<metadata>
Created by FontForge 20190801 at Tue May  2 17:44:40 2017
 By www-data
(c)2012 Paul Barnes, Christian Schwartz, and Ross Milne, under exclusive license to Schwartzco Inc./Commercial Type. All rights reserved.
</metadata>
<defs>
<font id="PublicoBannerBlack" horiz-adv-x="488" >
  <font-face 
    font-family="PublicoBannerBlack"
    font-weight="850"
    font-stretch="normal"
    units-per-em="1000"
    panose-1="2 4 10 2 6 5 4 6 2 3"
    ascent="803"
    descent="-197"
    x-height="526"
    cap-height="693"
    bbox="-149 -253 1288 1075"
    underline-thickness="71"
    underline-position="-76"
    unicode-range="U+0020-FB04"
  />
<missing-glyph horiz-adv-x="500" 
 />
    <glyph glyph-name="f_f" unicode="ff" horiz-adv-x="681" 
d="M318 750q96 0 134 -43q68 56 190 56q72 0 113.5 -24t41.5 -68q0 -33 -20.5 -51.5t-55.5 -18.5q-40 0 -57.5 21.5t-20.5 75.5q-1 22 -5 28.5t-13 6.5q-24 0 -34.5 -24.5t-10.5 -85.5v-97h93l-8 -54h-85v-390q0 -33 6 -41t33 -16l29 -8v-17h-316v17l15 4q26 7 31 15t5 46
v390h-127v-390q0 -36 5 -45t31 -16l15 -4v-17h-308v17l18 5q30 8 36 16.5t6 43.5v390h-65v12l65 42v12q0 97 67 154.5t192 57.5zM383 526v25q0 20 3 38q-30 4 -41.5 25.5t-13.5 70.5q-1 22 -6 28.5t-14 6.5q-28 0 -41.5 -25t-13.5 -85v-84h127z" />
    <glyph glyph-name="f_i" unicode="fi" horiz-adv-x="638" 
d="M376 526l198 13l8 -6q-4 -64 -4 -130v-321q0 -35 6 -44t36 -16l18 -5v-17h-308v17l15 4q26 7 31 15t5 46v324q0 45 -8 55.5t-41 10.5h-76v-390q0 -36 5 -45t31 -16l15 -4v-17h-308v17l18 5q30 8 36 16.5t6 43.5v390h-65v12l65 42v4q0 106 76.5 169.5t213.5 63.5
q82 0 132 -29t50 -82q0 -28 -22 -47t-61 -19q-49 0 -68 23.5t-30 94.5q-2 17 -7.5 23t-18.5 6q-68 0 -68 -122v-85h120z" />
    <glyph glyph-name="f_l" unicode="fl" horiz-adv-x="643" 
d="M-1 0v17l18 5q30 8 36 16.5t6 43.5v390h-65v12l65 42v25q0 97 68 154.5t197 57.5q114 0 145 -55l106 49l9 -6q-4 -54 -4 -121v-548q0 -34 7.5 -42.5t38.5 -17.5l18 -5v-17h-312v17l15 4q26 7 31 15t5 46v520q-29 4 -42.5 26.5t-15.5 69.5q-1 22 -5 28.5t-13 6.5
q-28 0 -39.5 -24t-11.5 -86v-97h81l-8 -54h-73v-390q0 -36 5.5 -45t30.5 -16l15 -4v-17h-308z" />
    <glyph glyph-name="f_f_i" unicode="ffi" horiz-adv-x="962" 
d="M332 0v17l15 4q26 7 31 15.5t5 45.5v390h-127v-390q0 -36 5 -45t31 -16l15 -4v-17h-308v17l18 5q30 8 36 16.5t6 43.5v390h-65v12l65 42v12q0 97 67 154.5t192 57.5q105 0 141 -51q78 64 214 64q82 0 132 -29t50 -82q0 -28 -22 -47t-61 -19q-49 0 -68 23.5t-30 94.5
q-2 17 -7.5 23t-18.5 6q-68 0 -68 -122v-85h120l198 13l8 -6q-4 -64 -4 -130v-321q0 -35 6 -44t36 -16l18 -5v-17h-308v17l15 4q26 7 31 15t5 46v324q0 45 -8 55.5t-41 10.5h-76v-390q0 -36 5 -45t31 -16l15 -4v-17h-299zM383 530q0 33 7 58q-32 4 -44.5 25.5t-14.5 71.5
q-1 22 -6 28.5t-14 6.5q-28 0 -41.5 -25t-13.5 -85v-84h127v4z" />
    <glyph glyph-name="f_f_l" unicode="ffl" horiz-adv-x="967" 
d="M332 0v17l15 4q26 7 31 15.5t5 45.5v390h-127v-390q0 -36 5 -45t31 -16l15 -4v-17h-308v17l18 5q30 8 36 16.5t6 43.5v390h-65v12l65 42v12q0 97 67 154.5t192 57.5q100 0 137 -45q74 58 204 58q113 0 149 -48l91 42l9 -6q-4 -54 -4 -121v-548q0 -34 7.5 -42.5
t38.5 -17.5l18 -5v-17h-312v17l15 4q26 7 31 15t5 46v533q-24 7 -34.5 26t-12.5 57q-1 22 -5 28.5t-13 6.5q-62 0 -62 -110v-97h95l-8 -54h-87v-390q0 -36 5 -45t31 -16l15 -4v-17h-299zM383 551q0 20 3 38q-30 4 -41.5 25.5t-13.5 70.5q-1 22 -6 28.5t-14 6.5
q-28 0 -41.5 -25t-13.5 -85v-84h127v25z" />
    <glyph glyph-name="f_b" unicode="fb" horiz-adv-x="959" 
d="M-1 0v17l18 5q30 8 36 16.5t6 43.5v390h-65v12l65 42v25q0 96 73 154t203 58q113 0 149 -48l89 42l9 -6q-4 -54 -4 -121v-167h3q78 76 165 76q79 0 136.5 -61.5t57.5 -184.5q0 -157 -82.5 -231t-222.5 -74q-158 0 -254 69v558q-23 7 -33 26.5t-12 56.5q-1 22 -5 28.5
t-13 6.5q-62 0 -62 -110v-97h81l-8 -54h-73v-390q0 -33 6 -41t33 -16l29 -8v-17h-325zM647 17q32 0 50.5 15.5t30 67.5t11.5 149q0 111 -26 151t-89 40q-22 0 -46 -6v-377q25 -40 69 -40z" />
    <glyph glyph-name="f_f_b" unicode="ffb" horiz-adv-x="1283" 
d="M318 750q100 0 137 -45q74 58 204 58q113 0 149 -48l89 42l9 -6q-4 -54 -4 -121v-167h3q78 76 165 76q79 0 136.5 -61.5t57.5 -184.5q0 -157 -82.5 -231t-222.5 -74q-158 0 -254 69v558q-23 7 -33 26.5t-12 56.5q-1 22 -5 28.5t-13 6.5q-62 0 -62 -110v-97h81l-8 -54h-73
v-390q0 -33 6 -41t33 -16l29 -8v-17h-316v17l15 4q26 7 31 15.5t5 45.5v390h-127v-390q0 -36 5 -45t31 -16l15 -4v-17h-308v17l18 5q30 8 36 16.5t6 43.5v390h-65v12l65 42v12q0 97 67 154.5t192 57.5zM971 17q32 0 50.5 15.5t30 67.5t11.5 149q0 111 -26 151t-89 40
q-22 0 -46 -6v-377q25 -40 69 -40zM383 526v25q0 20 3 38q-30 4 -41.5 25.5t-13.5 70.5q-1 22 -6 28.5t-14 6.5q-28 0 -41.5 -25t-13.5 -85v-84h127z" />
    <glyph glyph-name="f_f_h" unicode="ffh" horiz-adv-x="1287" 
d="M332 0v17l15 4q26 7 31 15.5t5 45.5v390h-127v-390q0 -36 5 -45t31 -16l15 -4v-17h-308v17l18 5q30 8 36 16.5t6 43.5v390h-65v12l65 42v12q0 97 67 154.5t192 57.5q100 0 137 -45q74 58 204 58q113 0 149 -48l92 42l9 -6q-4 -54 -4 -121v-165h3q99 74 190 74
q59 0 94 -34.5t35 -99.5v-323q0 -35 6.5 -43.5t36.5 -16.5l18 -5v-17h-309v17l15 4q26 7 31 15t5 46v285q0 39 -15 55.5t-44 16.5q-41 0 -66 -6v-351q0 -38 5 -46t31 -15l15 -4v-17h-300v17l15 4q26 7 31 15.5t5 45.5v533q-24 7 -34.5 26t-12.5 57q-1 22 -5 28.5t-13 6.5
q-62 0 -62 -110v-97h81l-8 -54h-73v-390q0 -36 5 -45t31 -16l15 -4v-17h-299zM383 551q0 20 3 38q-30 4 -41.5 25.5t-13.5 70.5q-1 22 -6 28.5t-14 6.5q-28 0 -41.5 -25t-13.5 -85v-84h127v25z" />
    <glyph glyph-name="f_f_j" unicode="ffj" horiz-adv-x="947" 
d="M318 750q105 0 141 -51q78 64 214 64q82 0 132 -29t50 -82q0 -28 -22 -47t-61 -19q-49 0 -68 23.5t-30 94.5q-2 17 -7.5 23t-18.5 6q-68 0 -68 -122v-85h120l198 13l8 -6q-4 -64 -4 -130v-380q0 -101 -66 -164t-172 -63q-78 0 -119 29t-41 78q0 33 20.5 51t56.5 18
q42 0 60 -23t23 -94q2 -18 4.5 -23t10.5 -5q14 0 20 14.5t6 53.5v511q0 45 -8 55.5t-41 10.5h-76v-390q0 -33 6 -41t33 -16l29 -8v-17h-316v17l15 4q26 7 31 15.5t5 45.5v390h-127v-390q0 -36 5 -45t31 -16l15 -4v-17h-308v17l18 5q30 8 36 16.5t6 43.5v390h-65v12l65 42v12
q0 97 67 154.5t192 57.5zM383 526v4q0 33 7 58q-32 4 -44.5 25.5t-14.5 71.5q-1 22 -6 28.5t-14 6.5q-28 0 -41.5 -25t-13.5 -85v-84h127z" />
    <glyph glyph-name="f_f_k" unicode="ffk" horiz-adv-x="1268" 
d="M332 0v17l15 4q26 7 31 15.5t5 45.5v390h-127v-390q0 -36 5 -45t31 -16l15 -4v-17h-308v17l18 5q30 8 36 16.5t6 43.5v390h-65v12l65 42v12q0 97 67 154.5t192 57.5q100 0 137 -45q74 58 204 58q113 0 149 -48l92 42l9 -6q-4 -54 -4 -121v-548q0 -37 4.5 -45t29.5 -16
l13 -4v-17h-296v17l15 4q26 7 31 15t5 46v533q-24 7 -34.5 26t-12.5 57q-1 22 -5 28.5t-13 6.5q-62 0 -62 -110v-97h81l-8 -54h-73v-390q0 -36 4.5 -45t31.5 -16l15 -4v-17h-299zM1044 0q-90 128 -129 242v12l107 118q51 56 51 87q0 33 -50 46l-15 4v17h239v-17l-9 -2
q-45 -10 -93 -57l-90 -86q34 -76 89 -172t88 -142q20 -27 38 -31l8 -2v-17h-234zM383 551q0 20 3 38q-30 4 -41.5 25.5t-13.5 70.5q-1 22 -6 28.5t-14 6.5q-28 0 -41.5 -25t-13.5 -85v-84h127v25z" />
    <glyph glyph-name="f_h" unicode="fh" horiz-adv-x="963" 
d="M-1 0v17l18 5q30 8 36 16.5t6 43.5v390h-65v12l65 42v25q0 96 73 154t203 58q113 0 149 -48l92 42l9 -6q-4 -54 -4 -121v-165h3q99 74 190 74q59 0 94 -34.5t35 -99.5v-323q0 -35 6.5 -43.5t36.5 -16.5l18 -5v-17h-309v17l15 4q26 7 31 15t5 46v285q0 39 -15 55.5
t-44 16.5q-40 0 -66 -6v-351q0 -38 5 -46t31 -15l15 -4v-17h-300v17l15 4q26 7 31 15.5t5 45.5v533q-24 7 -34.5 26t-12.5 57q-1 22 -5 28.5t-13 6.5q-62 0 -62 -110v-97h81l-8 -54h-73v-390q0 -36 5 -45t31 -16l15 -4v-17h-308z" />
    <glyph glyph-name="f_j" unicode="fj" horiz-adv-x="623" 
d="M578 403v-380q0 -101 -66 -164t-172 -63q-78 0 -119 29t-41 78q0 33 20.5 51t56.5 18q42 0 60 -23t23 -94q2 -18 4.5 -23t10.5 -5q14 0 20 14.5t6 53.5v511q0 45 -8 55.5t-41 10.5h-76v-390q0 -33 6 -41t33 -16l29 -8v-17h-325v17l18 5q30 8 36 16.5t6 43.5v390h-65v12
l65 42v4q0 106 76.5 169.5t213.5 63.5q82 0 132 -29t50 -82q0 -28 -22 -47t-61 -19q-49 0 -68 23.5t-30 94.5q-2 17 -7.5 23t-18.5 6q-68 0 -68 -122v-85h120l198 13l8 -6q-4 -64 -4 -130z" />
    <glyph glyph-name="f_k" unicode="fk" horiz-adv-x="944" 
d="M-1 0v17l18 5q30 8 36 16.5t6 43.5v390h-65v12l65 42v25q0 96 73 154t203 58q113 0 149 -48l92 42l9 -6q-4 -54 -4 -121v-548q0 -37 4.5 -45t29.5 -16l13 -4v-17h-296v17l15 4q26 7 31 15t5 46v533q-24 7 -34.5 26t-12.5 57q-1 22 -5 28.5t-13 6.5q-62 0 -62 -110v-97h81
l-8 -54h-73v-390q0 -36 5 -45t31 -16l15 -4v-17h-308zM720 0q-90 128 -129 242v12l107 118q51 56 51 87q0 33 -50 46l-15 4v17h239v-17l-9 -2q-45 -10 -93 -57l-90 -86q34 -76 89 -172t88 -142q20 -27 38 -31l8 -2v-17h-234z" />
    <glyph glyph-name=".notdef" horiz-adv-x="500" 
 />
    <glyph glyph-name=".null" horiz-adv-x="0" 
 />
    <glyph glyph-name="nonmarkingreturn" horiz-adv-x="333" 
 />
    <glyph glyph-name="space" unicode=" " horiz-adv-x="185" 
 />
    <glyph glyph-name="exclam" unicode="!" horiz-adv-x="286" 
d="M132 225l-95 311q-25 82 6 124.5t99 42.5q69 0 100.5 -42.5t6.5 -124.5l-95 -311h-22zM47 87q0 41 28 68t68 27q39 0 67.5 -27t28.5 -68q0 -39 -29 -67t-67 -28q-40 0 -68 27.5t-28 67.5z" />
    <glyph glyph-name="quotedbl" unicode="&#x22;" horiz-adv-x="391" 
d="M100 439l-60 154q-23 60 -1 88.5t69 28.5q46 0 67 -28t-1 -89l-55 -154h-19zM272 439l-55 154q-22 61 -0.5 89t67.5 28q47 0 68.5 -28.5t-1.5 -88.5l-60 -154h-19z" />
    <glyph glyph-name="numbersign" unicode="#" horiz-adv-x="448" 
d="M195 0l43 188h-103l-43 -188h-34l43 188h-89l30 121h88l19 84h-88l28 121h88l42 179h34l-42 -179h103l42 179h34l-42 -179h88l-29 -121h-87l-19 -84h89l-29 -121h-89l-43 -188h-34zM183 393l-19 -84h103l19 84h-103z" />
    <glyph glyph-name="dollar" unicode="$" horiz-adv-x="532" 
d="M12 115q0 37 22 55t59 18q43 0 65.5 -21t31.5 -85q5 -35 13.5 -47.5t32.5 -14.5v232q-124 43 -171 97t-47 136q0 88 67.5 148t166.5 68v66h31v-65q107 -1 159.5 -34.5t52.5 -81.5q0 -32 -21.5 -50t-55.5 -18q-46 0 -64 20.5t-25 78.5q-4 30 -13 41.5t-33 13.5v-213
q130 -47 183 -102t53 -136q0 -93 -67 -158.5t-185 -71.5v-97h-31v96q-224 3 -224 125zM367 126q0 39 -26.5 69t-73.5 47v-223q42 1 71 28.5t29 78.5zM162 579q0 -37 20 -62t70 -46v202q-41 -2 -65.5 -25.5t-24.5 -68.5z" />
    <glyph glyph-name="percent" unicode="%" horiz-adv-x="740" 
d="M72 -50l534 764h42l-534 -764h-42zM200 358q-78 0 -128.5 44t-50.5 126q0 47 18 82.5t46.5 55.5t59 29.5t59.5 9.5q74 0 128 -45.5t54 -126.5q0 -85 -55.5 -130t-130.5 -45zM203 387q31 0 39 27.5t8 112.5q0 92 -9 120.5t-38 28.5q-26 0 -37 -28t-11 -114q0 -90 9 -118.5
t39 -28.5zM533 -12q-78 0 -128.5 44t-50.5 126q0 47 18 82.5t46.5 55.5t59 29.5t59.5 9.5q74 0 128 -45.5t54 -126.5q0 -85 -55.5 -130t-130.5 -45zM536 17q31 0 39 27.5t8 112.5q0 92 -9 120.5t-38 28.5q-26 0 -37 -28t-11 -114q0 -90 9 -118.5t39 -28.5z" />
    <glyph glyph-name="ampersand" unicode="&#x26;" horiz-adv-x="750" 
d="M578 570q0 -94 -180 -161q76 -115 161 -217q32 62 32 110q0 44 -42 57l-26 8v17h223v-17l-21 -6q-28 -7 -51 -34t-59 -92q-20 -37 -38 -65q56 -65 99 -108q35 -35 59 -42l10 -3v-17h-284q-18 16 -34 34q-87 -46 -183 -46q-116 0 -175 44.5t-59 129.5q0 68 50.5 116.5
t130.5 75.5q-37 72 -37 135q0 92 69 154t168 62q89 0 138 -39t49 -96zM408 56q-110 121 -201 272q-13 -31 -13 -86q0 -82 39.5 -139t102.5 -57q42 0 72 10zM324 587q0 -75 61 -160q69 45 69 143q0 47 -15.5 77t-46.5 30q-30 0 -49 -23.5t-19 -66.5z" />
    <glyph glyph-name="quotesingle" unicode="'" horiz-adv-x="217" 
d="M99 439l-60 154q-23 60 -0.5 88.5t70.5 28.5q47 0 69.5 -28.5t-0.5 -88.5l-60 -154h-19z" />
    <glyph glyph-name="parenleft" unicode="(" horiz-adv-x="304" 
d="M284 -141q-34 23 -65.5 49.5t-67 68t-61 87t-42.5 107.5t-17 128q0 75 25 148t64.5 130t81 99t82.5 69l9 -10q-65 -61 -106.5 -173t-41.5 -240q0 -157 39 -263t110 -190z" />
    <glyph glyph-name="parenright" unicode=")" horiz-adv-x="304" 
d="M20 745q41 -27 82.5 -69t81 -99t64.5 -130t25 -148q0 -66 -17 -128t-42.5 -107.5t-61 -87t-67 -68t-65.5 -49.5l-10 10q71 84 110 190t39 263q0 128 -41.5 240t-106.5 173z" />
    <glyph glyph-name="asterisk" unicode="*" horiz-adv-x="351" 
d="M75 403q-16 11 -22.5 27.5t2.5 35.5t36 33l80 41l-87 -14q-44 -7 -60.5 15.5t-7.5 51.5q9 28 32.5 35t60.5 -24l64 -61l-41 80q-19 44 -4.5 65t47.5 21q32 0 45.5 -20.5t-4.5 -65.5l-41 -80l64 63q22 22 42.5 24t33.5 -9.5t18 -28.5q10 -29 -7.5 -51t-61.5 -15l-87 14
l80 -42q27 -14 35.5 -33t2 -35t-21.5 -26q-15 -11 -32 -11.5t-32.5 14t-20.5 43.5l-14 88l-14 -89q-5 -29 -20.5 -43.5t-32.5 -12.5t-32 10z" />
    <glyph glyph-name="plus" unicode="+" horiz-adv-x="485" 
d="M225 139v191h-181v31h181v190h35v-190h181v-31h-181v-191h-35z" />
    <glyph glyph-name="comma" unicode="," horiz-adv-x="238" 
d="M17 -110l-4 14q57 19 90.5 60t35.5 90q-14 -31 -49 -31q-31 0 -50.5 20t-19.5 53q0 39 27 62t66 23q45 0 75.5 -29.5t30.5 -84.5q0 -70 -54 -116.5t-148 -60.5z" />
    <glyph glyph-name="hyphen" unicode="-" horiz-adv-x="274" 
d="M16 220l12 116h230l-14 -116h-228z" />
    <glyph glyph-name="period" unicode="." horiz-adv-x="232" 
d="M20 87q0 41 28 68t68 27q39 0 67.5 -27t28.5 -68q0 -39 -29 -67t-67 -28q-40 0 -68 27.5t-28 67.5z" />
    <glyph glyph-name="slash" unicode="/" horiz-adv-x="380" 
d="M368 734l-333 -864h-37l333 864h37z" />
    <glyph glyph-name="zero" unicode="0" horiz-adv-x="705" 
d="M348 -12q-143 0 -234 90.5t-91 260.5q0 78 22 141.5t56.5 104.5t79.5 68.5t88.5 39.5t85.5 12q64 0 122 -23t104 -66t73.5 -112t27.5 -155q0 -91 -29.5 -162.5t-78 -113.5t-106.5 -63.5t-120 -21.5zM353 17q58 0 77 64.5t19 254.5q0 146 -10.5 220t-29.5 97t-56 23
q-25 0 -41 -11t-29.5 -44t-20 -99t-6.5 -170q0 -140 9.5 -211.5t29 -97.5t58.5 -26z" />
    <glyph glyph-name="one" unicode="1" horiz-adv-x="409" 
d="M7 0v17l33 8q36 9 43.5 20t7.5 60v425l-80 21v17q206 40 288 134l19 -7v-590q0 -49 7.5 -60t43.5 -20l33 -8v-17h-395z" />
    <glyph glyph-name="two" unicode="2" horiz-adv-x="547" 
d="M9 0v108q118 95 185 166q61 66 87 126.5t26 138.5q0 74 -14.5 105.5t-47.5 31.5q-22 0 -30 -12t-10 -44q-4 -78 -27.5 -104t-81.5 -26q-38 0 -60 20t-22 54q0 60 67 100.5t182 40.5q126 0 197 -48.5t71 -147.5q0 -50 -31.5 -97.5t-92 -90.5t-128 -78.5t-160.5 -75.5v-4
h298q36 0 49 12.5t35 66.5h20l-14 -242h-498z" />
    <glyph glyph-name="three" unicode="3" horiz-adv-x="567" 
d="M242 -12q-234 0 -234 131q0 36 24 55.5t65 19.5q48 0 68.5 -27t24.5 -101q1 -30 8.5 -39.5t28.5 -9.5q48 0 67.5 44.5t19.5 135.5q0 92 -26.5 120.5t-86.5 28.5h-46v32h42q59 0 84.5 31.5t25.5 117.5q0 81 -12.5 115t-47.5 34q-30 0 -33 -34q-8 -74 -28.5 -100.5
t-70.5 -26.5q-81 0 -81 68q0 57 60.5 89.5t168.5 32.5q115 0 186.5 -43t71.5 -123q0 -59 -44.5 -104.5t-132.5 -61.5v-3q203 -11 203 -174q0 -98 -76.5 -153t-228.5 -55z" />
    <glyph glyph-name="four" unicode="4" horiz-adv-x="608" 
d="M210 0v17l29 8q34 9 42 21t8 59v95h-279v52l351 441h143v-421h96l-8 -72h-88v-95q0 -49 8 -60.5t41 -19.5l33 -8v-17h-376zM73 272h216v272h-3l-213 -269v-3z" />
    <glyph glyph-name="five" unicode="5" horiz-adv-x="534" 
d="M218 -12q-104 0 -155.5 33.5t-51.5 89.5q0 72 84 72q50 0 70 -25t24 -100q2 -23 10 -32t33 -9q93 0 93 129q0 77 -39.5 110.5t-118.5 33.5q-60 0 -102 -20l-14 9l44 414h312q25 0 36 9t29 45h20l-21 -210h-358l-11 -105q47 21 143 21q128 0 199.5 -58.5t71.5 -168.5
q0 -98 -77.5 -168t-220.5 -70z" />
    <glyph glyph-name="six" unicode="6" horiz-adv-x="631" 
d="M321 -12q-60 0 -111.5 18.5t-94.5 56.5t-67.5 105t-24.5 156q0 100 31.5 176t85 119.5t117.5 64.5t137 21q91 0 140 -29t49 -82q0 -73 -86 -73q-48 0 -67.5 22t-23.5 83q-2 31 -9 40t-25 9q-41 0 -65 -25t-38 -90t-16 -182q67 36 148 36q100 0 158 -48t58 -148
q0 -103 -75.5 -166.5t-220.5 -63.5zM325 17q42 0 54.5 42t12.5 153q0 84 -20 114.5t-67 30.5q-29 0 -53 -9v-34q0 -125 7.5 -189t22 -86t43.5 -22z" />
    <glyph glyph-name="seven" unicode="7" horiz-adv-x="521" 
d="M87 0q31 157 121.5 283t235.5 248h-329q-34 0 -47 -16t-37 -83h-20l18 261h484v-99q-104 -140 -142.5 -277t-40.5 -317h-243z" />
    <glyph glyph-name="eight" unicode="8" horiz-adv-x="578" 
d="M279 -12q-124 0 -196.5 44.5t-72.5 116.5q0 58 39.5 91t117.5 60v2q-71 30 -100.5 73.5t-29.5 107.5q0 97 81.5 159.5t184.5 62.5q97 0 167 -40t70 -109q0 -48 -41 -82t-100 -51v-2q88 -34 129 -84t41 -122q0 -91 -86 -159t-204 -68zM289 17q53 0 88.5 25.5t35.5 79.5
q0 48 -40.5 77.5t-177.5 84.5q-30 -47 -30 -118q0 -149 124 -149zM366 440q15 21 22 43.5t7 68.5q0 124 -102 124q-47 0 -76 -23.5t-29 -68.5t37 -75.5t141 -68.5z" />
    <glyph glyph-name="nine" unicode="9" horiz-adv-x="631" 
d="M310 706q60 0 111.5 -18.5t94.5 -56.5t67.5 -105t24.5 -156q0 -101 -31 -176.5t-85 -119t-120 -64.5t-143 -21q-91 0 -141 29t-50 82q0 75 86 75q48 0 68 -22t24 -83q2 -31 10 -41t25 -10q47 0 73 25.5t38.5 89t15.5 182.5q-63 -36 -148 -36q-100 0 -158 48t-58 148
q0 103 75.5 166.5t220.5 63.5zM306 677q-42 0 -54.5 -42t-12.5 -153q0 -84 20 -114.5t67 -30.5q29 0 53 9v34q0 125 -7.5 189t-22 86t-43.5 22z" />
    <glyph glyph-name="colon" unicode=":" horiz-adv-x="232" 
d="M20 87q0 41 28 68t68 27q39 0 67.5 -27t28.5 -68q0 -39 -29 -67t-67 -28q-40 0 -68 27.5t-28 67.5zM20 358q0 41 28 68t68 27q39 0 67.5 -27t28.5 -68q0 -39 -29 -67t-67 -28q-40 0 -68 27.5t-28 67.5z" />
    <glyph glyph-name="semicolon" unicode=";" horiz-adv-x="238" 
d="M17 -109l-4 14q57 19 90.5 60t35.5 90q-14 -31 -49 -31q-31 0 -50.5 20t-19.5 53q0 39 27 62t66 23q45 0 75.5 -29.5t30.5 -84.5q0 -70 -54 -116.5t-148 -60.5zM20 358q0 41 28 68t68 27q39 0 67.5 -27t28.5 -68q0 -39 -29 -67t-67 -28q-40 0 -68 27.5t-28 67.5z" />
    <glyph glyph-name="less" unicode="&#x3c;" horiz-adv-x="476" 
d="M423 132l-377 171v32l377 171v-36l-335 -151l335 -151v-36z" />
    <glyph glyph-name="equal" unicode="=" horiz-adv-x="547" 
d="M47 388v33h453v-33h-453zM47 249v33h453v-33h-453z" />
    <glyph glyph-name="greater" unicode="&#x3e;" horiz-adv-x="476" 
d="M430 303l-377 -171v36l335 151l-335 151v36l377 -171v-32z" />
    <glyph glyph-name="question" unicode="?" horiz-adv-x="473" 
d="M143 225v190q67 20 101 53.5t34 102.5q0 102 -67 102q-14 0 -19 -9t-8 -38q-6 -57 -27.5 -79t-70.5 -22q-37 0 -56.5 19.5t-19.5 49.5q0 51 57 80.5t155 29.5q107 0 168 -48.5t61 -140.5t-69 -154.5t-203 -86.5v-49h-36zM75 87q0 41 28 68t68 27q39 0 67.5 -27t28.5 -68
q0 -39 -29 -67t-67 -28q-40 0 -68 27.5t-28 67.5z" />
    <glyph glyph-name="at" unicode="@" horiz-adv-x="908" 
d="M677 71q48 0 93 65.5t45 202.5q0 142 -75 225t-227 83q-79 0 -151 -26.5t-130 -77.5t-93 -134t-35 -186q0 -163 84 -251t248 -88q134 0 247 49v-20q-42 -24 -115.5 -43t-160.5 -19q-80 0 -149.5 22.5t-123.5 65.5t-85 111.5t-31 155.5q0 98 43.5 186.5t113.5 150
t159 97.5t178 36q171 0 273.5 -86.5t102.5 -239.5q0 -151 -87 -234.5t-213 -83.5q-96 0 -108 90h-3q-23 -35 -66.5 -63t-91.5 -28q-108 0 -108 140q0 132 92.5 231.5t204.5 99.5q76 0 134 -48h3l60 40l9 -3q-11 -27 -29 -121l-38 -198q-11 -50 -5 -75.5t35 -25.5zM416 122
q33 0 57 32l58 299q-13 25 -34 25q-44 0 -78.5 -101.5t-34.5 -200.5q0 -54 32 -54z" />
    <glyph glyph-name="A" unicode="A" horiz-adv-x="700" 
d="M-6 0v17l13 4q26 8 39 27t40 93l201 552h119l205 -551q27 -72 38.5 -93t32.5 -27l17 -5v-17h-393v17l28 7q38 10 38 45q0 32 -21 93l-18 58h-177l-20 -59q-20 -60 -20 -89q0 -18 11 -28.5t40 -19.5l24 -7v-17h-197zM247 490l-80 -236h155l-72 236h-3z" />
    <glyph glyph-name="B" unicode="B" horiz-adv-x="678" 
d="M5 0v17l27 7q29 8 36.5 20t7.5 61v483q0 49 -7.5 61t-36.5 20l-27 7v17h350q151 0 217 -39.5t66 -125.5q0 -127 -183 -153v-3q108 -15 161 -55t53 -122q0 -195 -289 -195h-375zM356 35q43 0 61.5 37t18.5 130q0 85 -22.5 116t-77.5 31h-35v-256q0 -33 14 -45.5t41 -12.5z
M301 380h32q53 0 70.5 28t17.5 115q0 80 -17.5 107.5t-58.5 27.5q-28 0 -44 -4v-274z" />
    <glyph glyph-name="C" unicode="C" horiz-adv-x="632" 
d="M376 -12q-164 0 -260.5 92.5t-96.5 260.5q0 92 30 163t83 114t121 65t147 22q108 0 187 -23l16 -234h-19q-60 119 -102 175q-21 27 -41 40t-51 13q-68 0 -100 -78t-32 -237q0 -194 30.5 -269t98.5 -75q36 0 62 12.5t50 45.5q29 38 93 174h18l-12 -222q-104 -39 -222 -39z
" />
    <glyph glyph-name="D" unicode="D" horiz-adv-x="746" 
d="M5 0v17l27 7q29 8 36.5 20t7.5 61v483q0 49 -7.5 61t-36.5 20l-27 7v17h368q170 0 262 -83t92 -248q0 -168 -95.5 -265t-262.5 -97h-364zM356 33q133 0 133 303q0 126 -17 199t-45 98.5t-73 25.5q-29 0 -50 -6v-558q0 -38 11.5 -50t40.5 -12z" />
    <glyph glyph-name="E" unicode="E" horiz-adv-x="615" 
d="M470 497v-281h-18q-12 55 -33 96q-10 18 -26 24.5t-63 6.5h-26v-242q0 -42 13 -54.5t64 -12.5q55 0 76 12.5t47 54.5q41 68 79 165h20l-14 -266h-584v17l27 7q29 8 36.5 20t7.5 61v483q0 49 -7.5 61t-36.5 20l-27 7v17h564l9 -227h-19q-35 82 -67 133q-22 35 -46 47.5
t-68 12.5q-52 0 -74 -6v-278h27q47 0 63 6.5t25 23.5q20 39 33 92h18z" />
    <glyph glyph-name="F" unicode="F" horiz-adv-x="587" 
d="M329 333h-25v-228q0 -51 7 -62t39 -18l37 -8v-17h-382v17l27 7q29 8 36.5 20t7.5 61v483q0 49 -7.5 61t-36.5 20l-27 7v17h560l10 -233h-19q-45 99 -62 128q-25 42 -46 56.5t-67 14.5q-50 0 -77 -6v-288h26q47 0 63 6.5t28 25.5q16 27 33 93h17v-287h-17q-19 71 -33 94
q-15 23 -30 29.5t-62 6.5z" />
    <glyph glyph-name="G" unicode="G" horiz-adv-x="693" 
d="M392 -12q-186 0 -279.5 92.5t-93.5 264.5q0 75 21.5 135.5t58 102t88 69.5t110 40.5t124.5 12.5q114 0 191 -25l11 -231h-19q-49 103 -84 154q-30 44 -55.5 58.5t-62.5 14.5q-77 0 -111.5 -78t-34.5 -240q0 -193 25.5 -267t98.5 -74q34 0 54 18v162q0 50 -7 61.5
t-38 19.5l-27 7v17h334v-17l-21 -6q-19 -5 -23.5 -17.5t-4.5 -64.5v-167q-43 -18 -115.5 -30t-139.5 -12z" />
    <glyph glyph-name="H" unicode="H" horiz-adv-x="785" 
d="M5 0v17l27 7q29 8 36.5 20t7.5 61v483q0 49 -7.5 61t-36.5 20l-27 7v17h367v-17l-24 -7q-22 -6 -29.5 -11.5t-11 -20t-3.5 -49.5v-215h177v215q0 35 -3.5 49.5t-11 20t-29.5 11.5l-24 7v17h367v-17l-27 -7q-29 -8 -36.5 -20t-7.5 -61v-483q0 -49 7.5 -61t36.5 -20l27 -7
v-17h-367v17l24 7q30 9 37 20.5t7 60.5v232h-177v-232q0 -49 7 -60.5t37 -20.5l24 -7v-17h-367z" />
    <glyph glyph-name="I" unicode="I" horiz-adv-x="386" 
d="M5 0v17l30 7q30 7 37 19t7 62v483q0 50 -7 62t-37 19l-30 7v17h376v-17l-30 -7q-30 -7 -37 -19t-7 -62v-483q0 -50 7 -62t37 -19l30 -7v-17h-376z" />
    <glyph glyph-name="J" unicode="J" horiz-adv-x="541" 
d="M183 -10q-91 0 -141 34t-50 87q0 42 24 64t67 22q50 0 73 -30t28 -120q1 -24 20 -24q33 0 33 69v496q0 50 -6.5 62.5t-35.5 18.5l-29 7v17h370v-17l-28 -7q-30 -8 -36.5 -19.5t-6.5 -61.5v-333q0 -119 -76 -192t-206 -73z" />
    <glyph glyph-name="K" unicode="K" horiz-adv-x="755" 
d="M492 0q-102 144 -172 320v20l174 203q39 47 39 82q0 31 -40 43l-27 8v17h253v-17l-25 -6q-28 -7 -54 -26t-67 -65l-100 -111q122 -264 239 -421q16 -22 35 -26l15 -4v-17h-270zM5 0v17l27 7q29 8 36.5 20t7.5 61v483q0 49 -7.5 61t-36.5 20l-27 7v17h367v-17l-24 -7
q-22 -6 -29.5 -11.5t-11 -20t-3.5 -49.5v-483q0 -49 7 -60.5t37 -20.5l24 -7v-17h-367z" />
    <glyph glyph-name="L" unicode="L" horiz-adv-x="600" 
d="M5 0v17l27 7q29 8 36.5 20t7.5 61v483q0 49 -7.5 61t-36.5 20l-27 7v17h376v-17l-33 -7q-30 -6 -37 -18t-7 -63v-490q0 -41 12 -53t58 -12q55 0 74.5 11t44.5 53q33 54 83 182h20l-20 -279h-571z" />
    <glyph glyph-name="M" unicode="M" horiz-adv-x="873" 
d="M5 0v17l27 7q28 8 36 25.5t8 75.5v463q0 49 -7.5 61t-36.5 20l-27 7v17h304l125 -351h4l130 351h300v-17l-27 -7q-29 -8 -36.5 -20t-7.5 -61v-483q0 -49 7.5 -61t36.5 -20l27 -7v-17h-373v17l27 7q31 8 38 19.5t7 61.5v473h-4l-205 -563h-44l-195 563h-4v-446
q0 -64 7.5 -82t40.5 -26l28 -7v-17h-186z" />
    <glyph glyph-name="N" unicode="N" horiz-adv-x="676" 
d="M536 0l-417 571h-4v-439q0 -64 8.5 -82t43.5 -26l31 -7v-17h-193v17l27 7q28 8 36 25.5t8 75.5v463q0 41 -9 57.5t-35 23.5l-27 7v17h294l257 -340h4v208q0 64 -8 81t-43 26l-33 8v17h195v-17l-28 -7q-28 -7 -36 -24.5t-8 -76.5v-568h-63z" />
    <glyph glyph-name="O" unicode="O" horiz-adv-x="744" 
d="M369 -12q-67 0 -127.5 20.5t-111.5 61.5t-81 110t-30 158q0 77 22 140t57.5 104.5t82.5 69.5t95.5 40.5t98.5 12.5q68 0 128 -18.5t111 -58t81 -109.5t30 -164q0 -96 -32.5 -169.5t-86.5 -115t-114 -62t-123 -20.5zM373 17q41 0 65 26t36.5 95.5t12.5 192.5
q0 138 -13 214t-37 103.5t-66 27.5q-59 0 -87 -68t-28 -246q0 -137 12.5 -213t37 -104t67.5 -28z" />
    <glyph glyph-name="P" unicode="P" horiz-adv-x="676" 
d="M5 0v17l27 7q29 8 36.5 20t7.5 61v483q0 49 -7.5 61t-37.5 20l-26 7v17h359q156 0 228 -46.5t72 -154.5q0 -89 -64 -147.5t-201 -58.5q-43 0 -73 9v23q69 5 88 36.5t19 131.5q0 109 -17 141.5t-68 32.5q-22 0 -44 -5v-550q0 -46 8 -58t40 -21l34 -9v-17h-381z" />
    <glyph glyph-name="Q" unicode="Q" horiz-adv-x="744" 
d="M585 -168q-61 0 -107.5 15t-98.5 50q-49 33 -137 114q-99 32 -161 114.5t-62 212.5q0 77 22 140t57.5 104.5t82.5 69.5t95.5 40.5t98.5 12.5q68 0 128 -18.5t111 -58t81 -109.5t30 -164q0 -139 -59.5 -214t-165.5 -108v-2q40 -38 84 -69q59 -40 110 -40q46 0 88 19v-16
q-27 -35 -78 -64t-119 -29zM373 13q61 0 87.5 68.5t26.5 249.5q0 138 -13 214t-37 103.5t-66 27.5q-59 0 -87 -68t-28 -246q0 -137 12.5 -213.5t37 -106t67.5 -29.5z" />
    <glyph glyph-name="R" unicode="R" horiz-adv-x="735" 
d="M5 0v17l27 7q29 8 36.5 20t7.5 61v483q0 49 -7.5 61t-36.5 20l-27 7v17h369q154 0 224.5 -44t70.5 -138q0 -67 -29.5 -105t-94.5 -59v-3q29 -68 73.5 -155t80.5 -137q16 -24 40 -30l17 -5v-17h-284q-73 110 -143 305q-12 0 -23 1v-201q0 -50 6 -62t32 -19l27 -7v-17h-366
zM341 337q52 0 75.5 33t23.5 124q0 89 -17.5 126.5t-68.5 37.5q-28 0 -48 -4v-314q12 -3 35 -3z" />
    <glyph glyph-name="S" unicode="S" horiz-adv-x="527" 
d="M238 -12q-147 0 -211 31l-13 214h21q49 -101 88 -149q29 -36 57.5 -51.5t68.5 -15.5q47 0 73 27t26 74q0 49 -30 78.5t-110 56.5q-109 37 -151.5 87t-42.5 135q0 100 75 165t193 65q116 0 182 -31l10 -190h-21q-45 98 -85 141q-27 29 -49.5 40t-52.5 11q-45 0 -71 -24.5
t-26 -67.5q0 -41 28.5 -67.5t106.5 -54.5q119 -41 166.5 -90.5t47.5 -131.5q0 -104 -76.5 -178t-203.5 -74z" />
    <glyph glyph-name="T" unicode="T" horiz-adv-x="658" 
d="M464 660h-21v-555q0 -49 8 -60.5t44 -20.5l30 -7v-17h-392v17l30 7q36 9 44 20.5t8 60.5v555h-21q-25 0 -40.5 -11t-33.5 -38q-28 -42 -88 -180h-20l8 262h618l8 -262h-20q-52 128 -87 180q-21 30 -34 39.5t-41 9.5z" />
    <glyph glyph-name="U" unicode="U" horiz-adv-x="696" 
d="M382 -12q-149 0 -228 53t-79 180v367q0 49 -7.5 61t-37.5 20l-27 7v17h371v-17l-27 -7q-30 -8 -37.5 -20t-7.5 -61v-388q0 -79 35 -115.5t112 -36.5q73 0 104 42t31 121v350q0 63 -8.5 81t-42.5 26l-33 8v17h193v-17l-28 -7q-26 -6 -34 -24.5t-8 -76.5v-365
q0 -98 -59 -156.5t-182 -58.5z" />
    <glyph glyph-name="V" unicode="V" horiz-adv-x="682" 
d="M299 0l-220 568q-15 40 -22 55.5t-19 29.5t-28 18l-22 5v17h389v-17l-28 -7q-36 -10 -36 -42q0 -19 20 -79l113 -331h3l106 330q18 57 18 78q0 19 -9 29t-31 15l-30 7v17h191v-17l-25 -8q-18 -6 -31.5 -28.5t-30.5 -70.5l-198 -569h-110z" />
    <glyph glyph-name="W" unicode="W" horiz-adv-x="1039" 
d="M816 225l100 324q15 48 15 76q0 37 -39 45l-31 6v17h193v-17l-18 -5q-24 -7 -39.5 -31t-35.5 -84l-187 -556h-110l-130 406h-2l-137 -406h-118l-208 582q-19 53 -29 69t-31 20l-24 5v17h372v-17l-22 -6q-37 -10 -37 -40q0 -22 20 -82l112 -323h3l81 240l-45 140
q-10 30 -21 44.5t-32 20.5l-19 6v17h367v-17l-35 -8q-32 -7 -32 -44q0 -20 17 -76l99 -323h3z" />
    <glyph glyph-name="X" unicode="X" horiz-adv-x="711" 
d="M372 561l75 -142h2l75 141q25 46 25 71q0 30 -42 39l-27 6v17h216v-17l-17 -5q-24 -7 -42.5 -26t-50.5 -71l-116 -188l163 -290q7 -13 13 -22.5t10.5 -16.5t9.5 -12.5t7.5 -8t7.5 -5.5t6.5 -3.5t7.5 -3t7 -2.5l13 -5v-17h-401v17l36 7q33 6 33 36q0 23 -27 71l-83 155h-2
l-83 -142q-37 -61 -37 -86q0 -26 35 -34l33 -7v-17h-223v17l13 4q29 9 52 28t52 63l138 206l-158 279q-19 35 -31.5 48.5t-35.5 23.5l-17 7v17h405v-17l-36 -8q-33 -8 -33 -33q0 -27 27 -74z" />
    <glyph glyph-name="Y" unicode="Y" horiz-adv-x="656" 
d="M149 0v17l30 7q36 9 44 20.5t8 60.5v195l-161 286q-23 41 -30 52t-15.5 19.5t-20.5 12.5l-18 6v17h400v-17l-31 -7q-46 -11 -46 -44q0 -26 17 -59l111 -216h3l87 205q17 40 17 67q0 35 -43 47l-25 7v17h188v-17l-19 -6q-16 -5 -28.5 -23t-35.5 -69l-123 -272v-201
q0 -49 8 -60.5t44 -20.5l30 -7v-17h-391z" />
    <glyph glyph-name="Z" unicode="Z" horiz-adv-x="637" 
d="M17 0v35l336 623v3h-27q-79 0 -108 -9t-51 -40q-42 -59 -91 -174h-21l15 255h537v-35l-340 -622v-4h33q68 0 101 5t51 17t39 41q35 48 97 178h22l-20 -273h-573z" />
    <glyph glyph-name="bracketleft" unicode="[" horiz-adv-x="321" 
d="M173 630v-655q0 -51 12.5 -64t62.5 -18l62 -6v-17h-238v864h238v-17l-62 -6q-50 -5 -62.5 -17.5t-12.5 -63.5z" />
    <glyph glyph-name="backslash" unicode="\" horiz-adv-x="380" 
d="M345 -130l-333 864h37l333 -864h-37z" />
    <glyph glyph-name="bracketright" unicode="]" horiz-adv-x="321" 
d="M148 -25v655q0 51 -12.5 63.5t-62.5 17.5l-62 6v17h238v-864h-238v17l62 6q50 5 62.5 18t12.5 64z" />
    <glyph glyph-name="asciicircum" unicode="^" horiz-adv-x="415" 
d="M29 426l-9 8l162 259h50l163 -259l-9 -8l-181 128z" />
    <glyph glyph-name="underscore" unicode="_" horiz-adv-x="417" 
d="M0 -158v37h417v-37h-417z" />
    <glyph glyph-name="grave" unicode="`" 
d="M360 586l-4 -10l-192 30q-28 4 -42 22t-14 42q0 31 20 53.5t48 22.5q35 0 65 -31z" />
    <glyph glyph-name="a" unicode="a" horiz-adv-x="546" 
d="M154 -12q-67 0 -106 33.5t-39 91.5q0 34 12.5 59t39 41.5t50 25t62.5 19.5l114 31v96q0 71 -10.5 97.5t-40.5 26.5q-21 0 -30 -8t-10 -33q-4 -64 -22 -86t-64 -22q-81 0 -81 65q0 53 60 83.5t184 30.5q211 0 211 -143v-274q0 -34 4 -47.5t18 -20.5q19 -10 45 -10v-15
q-54 -41 -135 -41q-95 0 -118 65h-4q-55 -65 -140 -65zM250 63q26 0 37 18v167l-23 -2q-35 -2 -49 -22t-14 -71q0 -90 49 -90z" />
    <glyph glyph-name="b" unicode="b" horiz-adv-x="622" 
d="M298 -12q-158 0 -254 69v572q0 42 -4.5 54.5t-27.5 22.5l-33 15v13l257 23l9 -6q-4 -54 -4 -121v-167h3q78 76 165 76q79 0 136.5 -61.5t57.5 -184.5q0 -157 -82.5 -231t-222.5 -74zM310 17q32 0 50.5 15.5t30 67.5t11.5 149q0 111 -26.5 152t-88.5 41q-14 0 -46 -8v-377
q25 -40 69 -40z" />
    <glyph glyph-name="c" unicode="c" horiz-adv-x="509" 
d="M275 -12q-124 0 -193 72t-69 195q0 73 28 130t74 89.5t100 48.5t112 16q83 0 129 -27.5t46 -81.5q0 -76 -83 -76q-48 0 -65.5 23.5t-22.5 85.5q-3 29 -8 37t-23 8q-17 0 -30.5 -6.5t-28 -25.5t-22.5 -61.5t-8 -106.5q0 -119 31.5 -172t122.5 -53q66 0 130 33v-18
q-25 -38 -83.5 -74t-136.5 -36z" />
    <glyph glyph-name="d" unicode="d" horiz-adv-x="638" 
d="M221 -12q-90 0 -146 62.5t-56 183.5q0 156 83 230.5t213 74.5q33 0 65 -10v100q0 36 -5.5 46.5t-27.5 22.5l-40 22v14l267 23l8 -6q-4 -54 -4 -121v-514q0 -41 5 -51.5t29 -19.5l24 -9v-13l-241 -35l-13 9v63h-3q-76 -72 -158 -72zM323 77q28 0 57 12v378q-23 43 -64 43
q-96 0 -96 -226q0 -115 23.5 -161t79.5 -46z" />
    <glyph glyph-name="e" unicode="e" horiz-adv-x="543" 
d="M284 -12q-134 0 -202.5 68.5t-68.5 199.5q0 68 24 123.5t64 89.5t88 52t99 18q237 0 244 -244h-325q2 -124 42 -168t126 -44q68 0 136 35v-19q-31 -44 -90 -77.5t-137 -33.5zM280 511q-34 0 -53 -41t-20 -148l134 10q0 106 -12.5 142.5t-48.5 36.5z" />
    <glyph glyph-name="f" unicode="f" horiz-adv-x="357" 
d="M-1 0v17l18 5q30 8 36 16.5t6 43.5v390h-65v12l65 42v25q0 97 67 154.5t192 57.5q72 0 113.5 -24t41.5 -68q0 -33 -20.5 -51.5t-55.5 -18.5q-40 0 -57.5 21.5t-20.5 75.5q-1 22 -5 28.5t-13 6.5q-24 0 -34.5 -24.5t-10.5 -85.5v-97h93l-8 -54h-85v-390q0 -33 6 -41
t33 -16l29 -8v-17h-325z" />
    <glyph glyph-name="g" unicode="g" horiz-adv-x="536" 
d="M215 -204q-231 0 -231 106q0 37 34 62t98 32v2q-100 25 -100 110q0 41 24 73.5t57 52.5v2q-82 43 -82 128q0 81 63.5 128t163.5 47q76 0 136 -30q60 58 117 58q30 0 48.5 -15.5t18.5 -45.5q0 -24 -13 -40t-40 -16q-23 0 -32.5 9t-17.5 30q-14 40 -63 6v-2q73 -49 73 -114
q0 -82 -63.5 -128.5t-163.5 -46.5q-72 0 -125 21q-15 -20 -15 -42q0 -27 43 -27h204q175 0 175 -139q0 -103 -86 -162t-223 -59zM238 -175q168 0 168 96q0 37 -22.5 53t-71.5 16h-174q-18 -20 -18 -72q0 -93 118 -93zM242 232q30 0 39.5 26t9.5 112q0 87 -10.5 114t-38.5 27
q-30 0 -39.5 -26t-9.5 -112t10 -113.5t39 -27.5z" />
    <glyph glyph-name="h" unicode="h" horiz-adv-x="639" 
d="M450 539q59 0 94 -34.5t35 -99.5v-323q0 -35 6.5 -43.5t36.5 -16.5l18 -5v-17h-309v17l15 4q26 7 31 15t5 46v285q0 39 -15 55.5t-44 16.5q-41 0 -66 -6v-351q0 -38 5 -46t31 -15l15 -4v-17h-309v17l18 5q30 8 36 16.5t6 43.5v547q0 41 -4.5 52.5t-27.5 24.5l-33 15v13
l258 23l9 -6q-4 -54 -4 -121v-165h3q99 74 190 74z" />
    <glyph glyph-name="i" unicode="i" horiz-adv-x="316" 
d="M-1 0v17l18 5q30 8 36 16.5t6 43.5v329q0 33 -5 43t-29 27l-32 23v9l259 26l8 -6q-4 -65 -4 -128v-323q0 -35 6 -43.5t36 -16.5l18 -5v-17h-317zM56 665q0 40 28 64.5t69 24.5q42 0 69.5 -24.5t27.5 -64.5t-27.5 -64.5t-69.5 -24.5t-69.5 24.5t-27.5 64.5z" />
    <glyph glyph-name="j" unicode="j" horiz-adv-x="301" 
d="M256 405v-382q0 -100 -67.5 -163.5t-170.5 -63.5q-79 0 -123 29.5t-44 79.5q0 35 21.5 54t59.5 19q43 0 62 -25t24 -98q2 -18 4 -23t10 -5q27 0 27 68v516q0 33 -5 43t-29 27l-32 23v9l259 26l8 -6q-4 -65 -4 -128zM56 665q0 40 28 64.5t69 24.5q42 0 69.5 -24.5
t27.5 -64.5t-27.5 -64.5t-69.5 -24.5t-69.5 24.5t-27.5 64.5z" />
    <glyph glyph-name="k" unicode="k" horiz-adv-x="620" 
d="M396 0q-90 128 -129 242v12l107 118q51 56 51 87q0 33 -50 46l-15 4v17h239v-17l-9 -2q-45 -10 -93 -57l-90 -86q34 -76 89 -172t88 -142q20 -27 38 -31l8 -2v-17h-234zM257 630v-548q0 -37 4.5 -45t29.5 -16l13 -4v-17h-305v17l18 5q30 8 36 16.5t6 43.5v547
q0 41 -4.5 52.5t-27.5 24.5l-33 15v13l258 23l9 -6q-4 -54 -4 -121z" />
    <glyph glyph-name="l" unicode="l" horiz-adv-x="322" 
d="M259 630v-548q0 -34 7.5 -42.5t38.5 -17.5l18 -5v-17h-324v17l18 5q32 9 38.5 17.5t6.5 42.5v547q0 40 -5.5 52t-29.5 25l-33 15v13l260 23l9 -6q-4 -54 -4 -121z" />
    <glyph glyph-name="m" unicode="m" horiz-adv-x="940" 
d="M-1 0v17l18 5q30 8 36 16.5t6 43.5v328q0 33 -4.5 43t-27.5 27l-32 23v10l249 26l8 -6v-76h3q97 82 187 82q92 0 118 -82h3q97 82 190 82q57 0 92 -34.5t35 -99.5v-323q0 -35 5.5 -43t37.5 -17l18 -5v-17h-304v17l14 4q23 7 27.5 15t4.5 46v286q0 40 -12.5 54t-43.5 14
q-40 0 -61 -4q2 -14 2 -39v-311q0 -37 4.5 -45.5t27.5 -15.5l13 -4v-17h-288v17l14 4q23 7 27.5 15t4.5 46v286q0 40 -12 54t-41 14q-38 0 -62 -6v-348q0 -38 4.5 -46t27.5 -15l14 -4v-17h-303z" />
    <glyph glyph-name="n" unicode="n" horiz-adv-x="639" 
d="M-1 0v17l18 5q30 8 36 16.5t6 43.5v328q0 33 -4.5 43.5t-27.5 26.5l-32 23v10l249 26l8 -6v-76h3q105 82 194 82q59 0 94 -34.5t35 -99.5v-323q0 -35 6.5 -43.5t36.5 -16.5l18 -5v-17h-309v17l15 4q26 7 31 15t5 46v285q0 39 -14.5 54t-44.5 15q-40 0 -66 -6v-348
q0 -38 5 -46t31 -15l15 -4v-17h-308z" />
    <glyph glyph-name="o" unicode="o" horiz-adv-x="596" 
d="M298 -12q-120 0 -202.5 70.5t-82.5 202.5q0 73 24.5 128.5t66 87t90.5 47t104 15.5q119 0 202 -70.5t83 -203.5q0 -73 -24 -128t-65.5 -86.5t-90.5 -47t-105 -15.5zM300 17q29 0 44.5 14t25 67.5t9.5 158.5q0 109 -11.5 166.5t-27.5 72t-45 14.5q-26 0 -41.5 -16t-26 -69
t-10.5 -150q0 -113 9.5 -169.5t25.5 -72.5t48 -16z" />
    <glyph glyph-name="p" unicode="p" horiz-adv-x="637" 
d="M-1 -199v17l18 5q30 8 36 16.5t6 43.5v527q0 34 -4.5 44t-27.5 26l-32 23v10l249 26l8 -6v-70h5q38 36 76.5 56t90.5 20q84 0 139 -60.5t55 -185.5q0 -156 -81 -230.5t-213 -74.5q-36 0 -68 8v-113q0 -35 5.5 -43.5t33.5 -15.5l25 -6v-17h-321zM323 17q33 0 52 16.5
t30.5 68.5t11.5 147q0 111 -25 152.5t-76 41.5q-31 0 -60 -9v-380q24 -37 67 -37z" />
    <glyph glyph-name="q" unicode="q" horiz-adv-x="628" 
d="M315 -199v17l25 6q28 7 33.5 15.5t5.5 43.5v170h-3q-72 -65 -160 -65q-85 0 -141 62.5t-56 187.5q0 153 82 227t215 74q103 0 192 -50h4l54 46l10 -5v-647q0 -35 6 -43.5t37 -16.5l18 -5v-17h-322zM319 72q27 0 60 12v390q-24 36 -65 36q-94 0 -94 -226q0 -122 23 -167
t76 -45z" />
    <glyph glyph-name="r" unicode="r" horiz-adv-x="485" 
d="M-1 0v17l18 5q30 8 36 16.5t6 43.5v329q0 33 -4.5 43t-27.5 26l-32 23v10l249 26l8 -6v-80h3q68 85 148 85q37 0 59.5 -21.5t22.5 -62.5q0 -43 -23 -67t-61 -24q-33 0 -50.5 13.5t-29.5 39.5q-9 20 -24 20q-25 0 -41 -14v-340q0 -37 6.5 -46t35.5 -14l22 -4v-18h-321z
" />
    <glyph glyph-name="s" unicode="s" horiz-adv-x="443" 
d="M191 -12q-95 0 -165 20l-6 173h19q41 -74 79 -119q20 -24 40 -34t51 -10q33 0 53.5 18t20.5 50q0 31 -23.5 49t-102.5 48q-71 26 -106 66t-35 103q0 79 58.5 133t170.5 54q91 0 142 -20l7 -147h-17q-48 73 -68 93q-24 24 -42 34t-46 10q-31 0 -50.5 -16t-19.5 -44
q0 -29 21.5 -47t85.5 -40q96 -34 134 -76.5t38 -105.5q0 -87 -62 -139.5t-177 -52.5z" />
    <glyph glyph-name="t" unicode="t" horiz-adv-x="377" 
d="M207 -12q-84 0 -121 37.5t-37 121.5v325h-55v12q65 24 121 75t81 107h50v-140h122l-8 -54h-114v-326q0 -45 12.5 -59.5t52.5 -14.5q35 0 65 8v-17q-63 -75 -169 -75z" />
    <glyph glyph-name="u" unicode="u" horiz-adv-x="638" 
d="M381 97v312q0 34 -5 44.5t-27 26.5l-32 23v10l253 26l8 -6v-417q0 -40 5.5 -51t29.5 -20l24 -9v-13l-244 -35l-8 6v74h-3q-49 -38 -93.5 -59t-100.5 -21q-60 0 -94.5 34.5t-34.5 99.5v287q0 34 -4.5 44t-27.5 27l-32 23v10l253 26l8 -6v-364q0 -43 14 -60.5t43 -17.5
q36 0 68 6z" />
    <glyph glyph-name="v" unicode="v" horiz-adv-x="562" 
d="M242 0l-178 418q-21 49 -32 64t-31 22l-15 5v17h348v-17l-23 -7q-21 -6 -30 -15t-9 -27q0 -23 14 -59l83 -221h3l71 208q18 51 18 75q0 27 -39 39l-22 7v17h176v-17l-13 -5q-22 -9 -36 -27.5t-34 -69.5l-158 -407h-93z" />
    <glyph glyph-name="w" unicode="w" horiz-adv-x="858" 
d="M790 408l-153 -408h-88l-113 313h-2l-121 -313h-88l-164 419q-20 50 -31 65t-27 20l-17 5v17h316v-17l-12 -3q-30 -7 -30 -32q0 -18 17 -72l70 -217h3l67 178l-20 56q-18 52 -27.5 66.5t-27.5 19.5l-14 4v17h322v-17l-21 -6q-22 -6 -31 -15.5t-9 -27.5q0 -22 12 -58
l69 -217h4l71 217q13 41 13 62q0 30 -34 38l-27 7v17h175v-17l-13 -5q-24 -9 -36.5 -26t-32.5 -70z" />
    <glyph glyph-name="x" unicode="x" horiz-adv-x="584" 
d="M511 91q29 -44 38.5 -54t28.5 -16l13 -4v-17h-346v17l21 4q31 7 31 31q0 20 -23 57l-68 107h-3l-55 -92q-25 -42 -25 -69t35 -34l20 -4v-17h-189v17l20 4q19 4 33 16.5t41 52.5l103 155l-122 190q-27 41 -38 53t-26 17l-13 4v17h346v-17l-19 -4q-38 -8 -38 -34
q0 -19 24 -56l63 -99h3l46 90q17 33 17 58q0 31 -41 41l-17 4v17h190v-17l-14 -4q-21 -5 -38.5 -23.5t-42.5 -59.5l-82 -136z" />
    <glyph glyph-name="y" unicode="y" horiz-adv-x="555" 
d="M367 199l73 195q18 49 18 67q0 32 -35 41l-26 7v17h172v-17l-19 -7q-15 -6 -26.5 -24.5t-34.5 -73.5l-190 -447q-37 -86 -75.5 -124t-107.5 -38q-44 0 -75 22.5t-31 60.5q0 32 20.5 50.5t57.5 18.5q65 0 73 -67q2 -15 5 -20.5t13 -5.5q18 0 41 27t46 84l4 10l-207 442
q-23 49 -35 65.5t-27 21.5l-15 5v17h342v-17l-26 -8q-35 -12 -35 -42q0 -17 16 -58l80 -202h4z" />
    <glyph glyph-name="z" unicode="z" horiz-adv-x="514" 
d="M12 0v41l271 446v4h-32q-53 0 -72 -5t-42 -28q-21 -21 -83 -127h-16l13 195h448v-39l-270 -448v-4h42q61 0 85 7.5t45 28.5q32 32 84 128h17l-20 -199h-470z" />
    <glyph glyph-name="braceleft" unicode="{" horiz-adv-x="346" 
d="M33 292v26q116 7 116 58q0 22 -25.5 117.5t-25.5 122.5q0 57 54.5 83t182.5 38v-17q-79 -12 -102 -27t-23 -57q0 -41 10 -124.5t10 -105.5q0 -41 -31 -63t-114 -37v-2q84 -16 114.5 -39t30.5 -66q0 -20 -10 -102.5t-10 -124.5q0 -41 24 -57.5t101 -28.5v-17
q-131 13 -184 39t-53 84q0 27 25.5 121.5t25.5 116.5q0 55 -116 62z" />
    <glyph glyph-name="bar" unicode="|" horiz-adv-x="184" 
d="M75 -130v864h34v-864h-34z" />
    <glyph glyph-name="braceright" unicode="}" horiz-adv-x="346" 
d="M313 318v-26q-116 -7 -116 -62q0 -22 25.5 -116.5t25.5 -121.5q0 -58 -53 -84t-184 -39v17q77 12 101 28.5t24 57.5q0 42 -10 124.5t-10 102.5q0 43 30.5 66t114.5 39v2q-83 15 -114 37t-31 63q0 22 10 105.5t10 124.5q0 42 -23 57t-102 27v17q128 -12 182.5 -38
t54.5 -83q0 -27 -25.5 -122.5t-25.5 -117.5q0 -51 116 -58z" />
    <glyph glyph-name="asciitilde" unicode="~" horiz-adv-x="381" 
d="M29 207l-15 8q31 81 53.5 112.5t61.5 31.5q24 0 85.5 -14.5t80.5 -14.5q16 0 28 11.5t29 39.5l15 -8q-29 -80 -52.5 -112t-62.5 -32q-35 0 -92.5 14.5t-73.5 14.5t-28 -11.5t-29 -39.5z" />
    <glyph glyph-name="uni00A0" unicode="&#xa0;" horiz-adv-x="185" 
 />
    <glyph glyph-name="exclamdown" unicode="&#xa1;" horiz-adv-x="286" 
d="M37 68l95 311h22l95 -311q25 -82 -6 -124.5t-99 -42.5q-69 0 -100.5 42.5t-6.5 124.5zM47 517q0 39 29 67t67 28q40 0 68 -27.5t28 -67.5q0 -41 -28 -68t-68 -27q-39 0 -67.5 27t-28.5 68z" />
    <glyph glyph-name="cent" unicode="&#xa2;" horiz-adv-x="503" 
d="M272 -12q-124 0 -193 72t-69 195q0 127 78 197.5t191 83.5v60h31v-57h16q82 0 127.5 -27.5t45.5 -78.5q0 -70 -72 -70q-44 0 -62.5 21t-23.5 76q-2 23 -8.5 34t-22.5 13v-422q19 -5 52 -5q60 0 130 36v-18q-22 -33 -70 -65.5t-112 -41.5v-97h-31v94h-7zM206 308
q0 -91 15 -141t58 -72v411q-73 -18 -73 -198z" />
    <glyph glyph-name="sterling" unicode="&#xa3;" horiz-adv-x="547" 
d="M23 351v32h56q-26 78 -26 124q0 91 74.5 144.5t206.5 53.5q114 0 166 -34.5t52 -89.5q0 -32 -21.5 -50t-59.5 -18q-52 0 -72 26t-25 94q-2 29 -8.5 36.5t-24.5 7.5q-62 0 -62 -118q0 -29 3.5 -90.5t4.5 -85.5h138v-32h-138q-3 -72 -43.5 -115.5t-121.5 -78.5v-3h311
q31 0 46.5 14.5t31.5 64.5h20l-15 -233h-505v98q38 26 56.5 41.5t33 42t14.5 60.5q0 32 -25 109h-67z" />
    <glyph glyph-name="yen" unicode="&#xa5;" horiz-adv-x="663" 
d="M59 318v32h160l-129 236q-28 52 -39 65t-29 19l-18 6v17h395v-17l-26 -7q-25 -7 -35.5 -16.5t-10.5 -27.5q0 -22 17 -59l89 -187h3l73 176q16 39 16 67q0 35 -43 47l-24 7v17h188v-17l-13 -4q-20 -6 -35 -27.5t-44 -87.5l-93 -207h165v-32h-170v-67h170v-32h-170v-114
q0 -49 8 -60.5t44 -20.5l30 -7v-17h-391v17l30 7q36 9 44 20.5t8 60.5v114h-170v32h170v67h-170z" />
    <glyph glyph-name="brokenbar" unicode="&#xa6;" horiz-adv-x="184" 
d="M75 -130v388h34v-388h-34zM75 323v411h34v-411h-34z" />
    <glyph glyph-name="section" unicode="&#xa7;" horiz-adv-x="599" 
d="M453 67q28 -37 28 -84q0 -83 -61.5 -135t-142.5 -52q-88 0 -137 29t-49 79q0 27 18 43.5t52 16.5q40 0 58.5 -21.5t22.5 -74.5q2 -25 11.5 -34t34.5 -9q29 0 49 14.5t20 40.5q0 33 -29 59.5t-143 102.5q-94 63 -129.5 107t-35.5 105q0 108 132 169q-34 51 -34 96
q0 82 58.5 132.5t146.5 50.5q86 0 133 -29t47 -77q0 -27 -18 -43.5t-53 -16.5q-39 0 -56 21t-22 73q-2 25 -11.5 34t-32.5 9q-72 0 -72 -58q0 -33 27.5 -57.5t144.5 -99.5q103 -67 136 -113t33 -110q0 -54 -36 -96.5t-90 -71.5zM430 93q29 23 29 54q0 28 -27 58t-120 90
q-107 70 -141 107q-31 -27 -31 -55q0 -26 29 -55.5t114 -86.5q108 -73 147 -112z" />
    <glyph glyph-name="dieresis" unicode="&#xa8;" 
d="M48 656q0 39 25.5 62t63.5 23q39 0 64.5 -23t25.5 -62q0 -40 -25.5 -63t-64.5 -23q-38 0 -63.5 23t-25.5 63zM261 656q0 39 25.5 62t63.5 23q39 0 64.5 -23t25.5 -62q0 -40 -25.5 -63t-64.5 -23q-38 0 -63.5 23t-25.5 63z" />
    <glyph glyph-name="copyright" unicode="&#xa9;" horiz-adv-x="770" 
d="M394 132q-100 0 -161.5 56.5t-61.5 158.5q0 110 67 166.5t165 56.5q66 0 118 -14l7 -130h-23q-31 60 -53 87q-22 29 -55 29q-45 0 -59 -39.5t-14 -142.5q0 -120 16 -160t62 -40q34 0 61 35q20 27 48 90h23l-8 -129q-61 -24 -132 -24zM28 344q0 150 103 254.5t254 104.5
t254 -104.5t103 -254.5t-103 -254t-254 -104t-254 104t-103 254zM65 344q0 -136 92 -232t228 -96t228 96t92 232t-92 232.5t-228 96.5t-228 -96.5t-92 -232.5z" />
    <glyph glyph-name="ordfeminine" unicode="&#xaa;" horiz-adv-x="460" 
d="M126 276q-52 0 -82 27t-30 75q0 49 37 74.5t122 46.5l63 16v68q0 55 -9.5 71.5t-35.5 16.5q-12 0 -16.5 -6.5t-6.5 -23.5q-6 -50 -23.5 -69t-54.5 -19q-28 0 -44 16t-16 39q0 41 46.5 66.5t146.5 25.5q85 0 128.5 -24t43.5 -85v-211q0 -44 18 -52q16 -8 37 -8v-13
q-48 -31 -111 -31q-81 0 -97 47h-3q-41 -47 -113 -47zM209 337q18 0 27 12v134l-22 -1q-44 -2 -44 -76q0 -40 9.5 -54.5t29.5 -14.5z" />
    <glyph glyph-name="guillemotleft" unicode="&#xab;" horiz-adv-x="403" 
d="M192 45l-178 205v5l178 205h20l-82 -206l82 -209h-20zM355 45l-177 205v5l177 205h20l-82 -206l82 -209h-20z" />
    <glyph glyph-name="registered" unicode="&#xae;" horiz-adv-x="376" 
d="M12 523q0 74 50.5 125.5t124.5 51.5q75 0 126 -51.5t51 -125.5t-51 -126t-126 -52q-74 0 -124.5 52t-50.5 126zM38 523q0 -64 42.5 -109.5t106.5 -45.5t107.5 45.5t43.5 109.5t-43.5 109t-107.5 45t-106.5 -45t-42.5 -109zM90 434v11l9 2q7 2 9 5t2 16v115q0 14 -2 17
t-9 5l-9 1v12h96q85 0 85 -49q0 -35 -33 -45v-1q16 -38 37 -68q6 -8 13 -9l5 -1v-11h-71q-19 25 -38 76h-14v-42q0 -13 2 -16t9 -5l9 -2v-11h-100zM170 526q5 -1 11 -1q16 0 23 8.5t7 30.5q0 23 -5 31t-21 8q-11 0 -15 -2v-75z" />
    <glyph glyph-name="macron" unicode="&#xaf;" 
d="M100 614v69h288v-69h-288z" />
    <glyph glyph-name="degree" unicode="&#xb0;" horiz-adv-x="268" 
d="M20 591q0 48 32 80.5t82 32.5t82 -32.5t32 -80.5q0 -49 -32 -81.5t-82 -32.5t-82 32.5t-32 81.5zM53 591q0 -38 22 -61.5t59 -23.5t59 23.5t22 61.5q0 37 -22.5 60.5t-58.5 23.5t-58.5 -23.5t-22.5 -60.5z" />
    <glyph glyph-name="twosuperior" unicode="&#xb2;" horiz-adv-x="348" 
d="M10 299v66q71 52 108 93q65 74 65 145q0 69 -33 69q-11 0 -14 -6t-5 -27q-5 -39 -19.5 -54.5t-49.5 -15.5q-24 0 -38.5 14.5t-14.5 36.5q0 36 43 58t118 22q77 0 122 -29.5t45 -87.5q0 -44 -51.5 -86t-181.5 -88v-3h158q19 0 27.5 9t22.5 41h19l-7 -157h-314z" />
    <glyph glyph-name="threesuperior" unicode="&#xb3;" horiz-adv-x="365" 
d="M154 291q-69 0 -107 22t-38 60q0 21 14.5 33t39.5 12q32 0 45.5 -16t16.5 -58q1 -17 5.5 -21.5t16.5 -4.5q47 0 47 83q0 49 -18.5 69t-54.5 20h-28v31h25q35 0 51 19t16 61q0 72 -31 72q-11 0 -14.5 -4.5t-6.5 -20.5q-6 -34 -19.5 -49.5t-41.5 -15.5q-50 0 -50 45
q0 31 36 51.5t105 20.5q166 0 166 -98q0 -34 -28.5 -56.5t-84.5 -29.5v-3q67 -8 98.5 -32.5t31.5 -74.5q0 -51 -49 -83t-143 -32z" />
    <glyph glyph-name="acute" unicode="&#xb4;" 
d="M132 576l-4 10l119 129q30 31 65 31q28 0 48 -22.5t20 -53.5q0 -24 -14 -42t-42 -22z" />
    <glyph glyph-name="paragraph" unicode="&#xb6;" horiz-adv-x="496" 
d="M261 -100v424q-16 -2 -37 -2q-104 0 -155.5 53t-51.5 136q0 79 50 130.5t141 51.5h283v-17l-27 -7q-29 -8 -36.5 -20t-7.5 -61v-688h-41v757h-77v-757h-41z" />
    <glyph glyph-name="periodcentered" unicode="&#xb7;" horiz-adv-x="232" 
d="M20 335q0 41 28 68t68 27q39 0 67.5 -27t28.5 -68q0 -39 -29 -67t-67 -28q-40 0 -68 27.5t-28 67.5z" />
    <glyph glyph-name="cedilla" unicode="&#xb8;" 
d="M154 -202v15q39 9 61 24.5t22 33.5q0 23 -37 24l-4 5l49 100h36l-30 -40q43 -4 64.5 -21t21.5 -43q0 -41 -54.5 -66t-128.5 -32z" />
    <glyph glyph-name="onesuperior" unicode="&#xb9;" horiz-adv-x="268" 
d="M5 299v18l16 4q21 6 25.5 13.5t4.5 38.5v201l-44 13v17q54 9 107 35.5t80 58.5l22 -6v-319q0 -31 6 -39t26 -13l16 -4v-18h-259z" />
    <glyph glyph-name="ordmasculine" unicode="&#xba;" horiz-adv-x="487" 
d="M243 278q-91 0 -159.5 55t-68.5 156q0 107 68.5 159.5t159.5 52.5t160 -54.5t69 -155.5q0 -56 -20 -98.5t-54 -66.5t-73 -36t-82 -12zM244 302q19 0 30.5 10t20.5 52.5t9 121.5q0 83 -7.5 125t-19 54t-34.5 12q-31 0 -45.5 -36.5t-14.5 -137.5q0 -87 6 -130t18 -57
t37 -14z" />
    <glyph glyph-name="guillemotright" unicode="&#xbb;" horiz-adv-x="403" 
d="M389 250l-178 -205h-20l82 206l-82 209h20l178 -205v-5zM225 250l-177 -205h-20l82 206l-82 209h20l177 -205v-5z" />
    <glyph glyph-name="onequarter" unicode="&#xbc;" horiz-adv-x="770" 
d="M5 299v18l16 4q21 6 25.5 13.5t4.5 38.5v201l-44 13v17q54 9 107 35.5t80 58.5l22 -6v-319q0 -31 6 -39t26 -13l16 -4v-18h-259zM87 -50l534 764h42l-534 -764h-42zM503 0v18l16 4q22 5 26.5 12.5t4.5 39.5v34h-158v34l205 252h110v-239h57l-4 -47h-53v-34
q0 -32 4.5 -39.5t26.5 -12.5l18 -4v-18h-253zM443 155h107v133h-2l-105 -131v-2z" />
    <glyph glyph-name="onehalf" unicode="&#xbd;" horiz-adv-x="790" 
d="M5 299v18l16 4q21 6 25.5 13.5t4.5 38.5v201l-44 13v17q54 9 107 35.5t80 58.5l22 -6v-319q0 -31 6 -39t26 -13l16 -4v-18h-259zM81 -50l534 764h42l-534 -764h-42zM452 0v66q71 52 108 93q65 74 65 145q0 69 -33 69q-11 0 -14 -6t-5 -27q-5 -39 -19.5 -54.5t-49.5 -15.5
q-24 0 -38.5 14.5t-14.5 36.5q0 36 43 58t118 22q77 0 122 -29.5t45 -87.5q0 -44 -51.5 -86t-181.5 -88v-3h158q19 0 27.5 9t22.5 41h19l-7 -157h-314z" />
    <glyph glyph-name="threequarters" unicode="&#xbe;" horiz-adv-x="790" 
d="M109 -50l534 764h42l-534 -764h-42zM523 0v18l16 4q22 5 26.5 12.5t4.5 39.5v34h-158v34l205 252h110v-239h57l-4 -47h-53v-34q0 -32 4.5 -39.5t26.5 -12.5l18 -4v-18h-253zM463 155h107v133h-2l-105 -131v-2zM154 291q-69 0 -107 22t-38 60q0 21 14.5 33t39.5 12
q32 0 45.5 -16t16.5 -58q1 -17 5.5 -21.5t16.5 -4.5q47 0 47 83q0 49 -18.5 69t-54.5 20h-28v31h25q35 0 51 19t16 61q0 72 -31 72q-11 0 -14.5 -4.5t-6.5 -20.5q-6 -34 -19.5 -49.5t-41.5 -15.5q-50 0 -50 45q0 31 36 51.5t105 20.5q166 0 166 -98q0 -34 -28.5 -56.5
t-84.5 -29.5v-3q67 -8 98.5 -32.5t31.5 -74.5q0 -51 -49 -83t-143 -32z" />
    <glyph glyph-name="questiondown" unicode="&#xbf;" horiz-adv-x="473" 
d="M330 388v-190q-67 -20 -101 -53.5t-34 -102.5q0 -102 67 -102q14 0 19 9t8 38q6 57 27.5 79t70.5 22q37 0 56.5 -19.5t19.5 -49.5q0 -51 -57 -80.5t-155 -29.5q-107 0 -168 48.5t-61 140.5t69 154.5t203 86.5v49h36zM398 526q0 -41 -28 -68t-68 -27q-39 0 -67.5 27
t-28.5 68q0 39 29 67t67 28q40 0 68 -27.5t28 -67.5z" />
    <glyph glyph-name="Agrave" unicode="&#xc0;" horiz-adv-x="700" 
d="M-6 0v17l13 4q26 8 39 27t40 93l201 552h119l205 -551q27 -72 38.5 -93t32.5 -27l17 -5v-17h-393v17l28 7q38 10 38 45q0 32 -21 93l-18 58h-177l-20 -59q-20 -60 -20 -89q0 -18 11 -28.5t40 -19.5l24 -7v-17h-197zM465 733l-4 -10l-188 26q-29 4 -45.5 21t-16.5 44
q0 31 20.5 53t50.5 22q32 0 61 -30zM247 490l-80 -236h155l-72 236h-3z" />
    <glyph glyph-name="Aacute" unicode="&#xc1;" horiz-adv-x="700" 
d="M-6 0v17l13 4q26 8 39 27t40 93l201 552h119l205 -551q27 -72 38.5 -93t32.5 -27l17 -5v-17h-393v17l28 7q38 10 38 45q0 32 -21 93l-18 58h-177l-20 -59q-20 -60 -20 -89q0 -18 11 -28.5t40 -19.5l24 -7v-17h-197zM233 723l-4 10l122 126q29 30 61 30q30 0 50.5 -22
t20.5 -53q0 -27 -16.5 -44t-45.5 -21zM247 490l-80 -236h155l-72 236h-3z" />
    <glyph glyph-name="Acircumflex" unicode="&#xc2;" horiz-adv-x="700" 
d="M-6 0v17l13 4q26 8 39 27t40 93l201 552h119l205 -551q27 -72 38.5 -93t32.5 -27l17 -5v-17h-393v17l28 7q38 10 38 45q0 32 -21 93l-18 58h-177l-20 -59q-20 -60 -20 -89q0 -18 11 -28.5t40 -19.5l24 -7v-17h-197zM185 723l-6 10l137 148h62l137 -148l-6 -10l-162 44z
M247 490l-80 -236h155l-72 236h-3z" />
    <glyph glyph-name="Atilde" unicode="&#xc3;" horiz-adv-x="700" 
d="M-6 0v17l13 4q26 8 39 27t40 93l201 552h119l205 -551q27 -72 38.5 -93t32.5 -27l17 -5v-17h-393v17l28 7q38 10 38 45q0 32 -21 93l-18 58h-177l-20 -59q-20 -60 -20 -89q0 -18 11 -28.5t40 -19.5l24 -7v-17h-197zM427 742q-20 0 -86.5 9t-88.5 9q-20 0 -32.5 -9.5
t-27.5 -33.5l-14 8q25 76 48 110.5t59 34.5q21 0 87 -9.5t88 -9.5q33 0 60 44l14 -8q-25 -78 -46.5 -111.5t-60.5 -33.5zM247 490l-80 -236h155l-72 236h-3z" />
    <glyph glyph-name="Adieresis" unicode="&#xc4;" horiz-adv-x="700" 
d="M-6 0v17l13 4q26 8 39 27t40 93l201 552h119l205 -551q27 -72 38.5 -93t32.5 -27l17 -5v-17h-393v17l28 7q38 10 38 45q0 32 -21 93l-18 58h-177l-20 -59q-20 -60 -20 -89q0 -18 11 -28.5t40 -19.5l24 -7v-17h-197zM237 719q-38 0 -63.5 23t-25.5 63q0 39 25.5 62
t63.5 23q39 0 64.5 -23t25.5 -62q0 -40 -25.5 -63t-64.5 -23zM458 719q-38 0 -63.5 23t-25.5 63q0 39 25.5 62t63.5 23q39 0 64.5 -23t25.5 -62q0 -40 -25.5 -63t-64.5 -23zM247 490l-80 -236h155l-72 236h-3z" />
    <glyph glyph-name="Aring" unicode="&#xc5;" horiz-adv-x="700" 
d="M-6 0v17l13 4q26 8 39 27t40 93l201 552h119l205 -551q27 -72 38.5 -93t32.5 -27l17 -5v-17h-393v17l28 7q38 10 38 45q0 32 -21 93l-18 58h-177l-20 -59q-20 -60 -20 -89q0 -18 11 -28.5t40 -19.5l24 -7v-17h-197zM250 810q0 39 28.5 65t66.5 26t66.5 -26t28.5 -65
t-28.5 -65t-66.5 -26t-66.5 26t-28.5 65zM247 490l-80 -236h155l-72 236h-3zM288 810q0 -28 15.5 -45.5t41.5 -17.5t41.5 17.5t15.5 45.5t-15.5 45.5t-41.5 17.5t-41.5 -17.5t-15.5 -45.5z" />
    <glyph glyph-name="AE" unicode="&#xc6;" horiz-adv-x="922" 
d="M910 266l-14 -266h-576v17l27 7q29 8 36.5 20t7.5 61v113h-192l-37 -73q-30 -60 -30 -86q0 -12 10 -19t37 -16l22 -7v-17h-209v17l24 7q28 8 44.5 27t49.5 80l271 506q-13 20 -54 32l-27 7v17h576l9 -227h-19q-35 82 -67 133q-22 35 -46 47.5t-68 12.5q-48 0 -70 -6v-278
h23q47 0 63 6.5t25 23.5q20 39 33 92h18v-281h-18q-12 55 -33 96q-10 18 -26 24.5t-63 6.5h-22v-242q0 -42 12 -54.5t61 -12.5q55 0 76 12.5t47 54.5q41 68 79 165h20zM389 590l-173 -338h175v338h-2z" />
    <glyph glyph-name="Ccedilla" unicode="&#xc7;" horiz-adv-x="632" 
d="M223 -202v15q39 9 61 24.5t22 33.5q0 23 -37 24l-4 5l45 92q-136 18 -213.5 108t-77.5 241q0 92 30 163t83 114t121 65t147 22q108 0 187 -23l16 -234h-19q-60 119 -102 175q-21 27 -41 40t-51 13q-68 0 -100 -78t-32 -237q0 -194 30.5 -269t98.5 -75q36 0 62 12.5
t50 45.5q29 38 93 174h18l-12 -222q-104 -39 -222 -39q-6 0 -17.5 0.5t-16.5 0.5l-22 -29q43 -4 64.5 -21t21.5 -43q0 -41 -54.5 -66t-128.5 -32z" />
    <glyph glyph-name="Egrave" unicode="&#xc8;" horiz-adv-x="615" 
d="M470 497v-281h-18q-12 55 -33 96q-10 18 -26 24.5t-63 6.5h-26v-242q0 -42 13 -54.5t64 -12.5q55 0 76 12.5t47 54.5q41 68 79 165h20l-14 -266h-584v17l27 7q29 8 36.5 20t7.5 61v483q0 49 -7.5 61t-36.5 20l-27 7v17h564l9 -227h-19q-35 82 -67 133q-22 35 -46 47.5
t-68 12.5q-52 0 -74 -6v-278h27q47 0 63 6.5t25 23.5q20 39 33 92h18zM426 733l-4 -10l-188 26q-29 4 -45.5 21t-16.5 44q0 31 20.5 53t50.5 22q33 0 61 -30z" />
    <glyph glyph-name="Eacute" unicode="&#xc9;" horiz-adv-x="615" 
d="M223 723l-4 10l122 126q29 30 61 30q30 0 50.5 -22t20.5 -53q0 -27 -16.5 -44t-45.5 -21zM470 497v-281h-18q-12 55 -33 96q-10 18 -26 24.5t-63 6.5h-26v-242q0 -42 13 -54.5t64 -12.5q55 0 76 12.5t47 54.5q41 68 79 165h20l-14 -266h-584v17l27 7q29 8 36.5 20t7.5 61
v483q0 49 -7.5 61t-36.5 20l-27 7v17h564l9 -227h-19q-35 82 -67 133q-22 35 -46 47.5t-68 12.5q-52 0 -74 -6v-278h27q47 0 63 6.5t25 23.5q20 39 33 92h18z" />
    <glyph glyph-name="Ecircumflex" unicode="&#xca;" horiz-adv-x="615" 
d="M164 723l-6 10l137 148h62l137 -148l-6 -10l-162 44zM470 497v-281h-18q-12 55 -33 96q-10 18 -26 24.5t-63 6.5h-26v-242q0 -42 13 -54.5t64 -12.5q55 0 76 12.5t47 54.5q41 68 79 165h20l-14 -266h-584v17l27 7q29 8 36.5 20t7.5 61v483q0 49 -7.5 61t-36.5 20l-27 7
v17h564l9 -227h-19q-35 82 -67 133q-22 35 -46 47.5t-68 12.5q-52 0 -74 -6v-278h27q47 0 63 6.5t25 23.5q20 39 33 92h18z" />
    <glyph glyph-name="Edieresis" unicode="&#xcb;" horiz-adv-x="615" 
d="M211 719q-38 0 -63.5 23t-25.5 63q0 39 25.5 62t63.5 23q39 0 64.5 -23t25.5 -62q0 -40 -25.5 -63t-64.5 -23zM432 719q-38 0 -63.5 23t-25.5 63q0 39 25.5 62t63.5 23q39 0 64.5 -23t25.5 -62q0 -40 -25.5 -63t-64.5 -23zM470 497v-281h-18q-12 55 -33 96
q-10 18 -26 24.5t-63 6.5h-26v-242q0 -42 13 -54.5t64 -12.5q55 0 76 12.5t47 54.5q41 68 79 165h20l-14 -266h-584v17l27 7q29 8 36.5 20t7.5 61v483q0 49 -7.5 61t-36.5 20l-27 7v17h564l9 -227h-19q-35 82 -67 133q-22 35 -46 47.5t-68 12.5q-52 0 -74 -6v-278h27
q47 0 63 6.5t25 23.5q20 39 33 92h18z" />
    <glyph glyph-name="Igrave" unicode="&#xcc;" horiz-adv-x="386" 
d="M5 0v17l30 7q30 7 37 19t7 62v483q0 50 -7 62t-37 19l-30 7v17h376v-17l-30 -7q-30 -7 -37 -19t-7 -62v-483q0 -50 7 -62t37 -19l30 -7v-17h-376zM310 733l-4 -10l-188 26q-29 4 -45.5 21t-16.5 44q0 31 20.5 53t50.5 22q33 0 61 -30z" />
    <glyph glyph-name="Iacute" unicode="&#xcd;" horiz-adv-x="386" 
d="M5 0v17l30 7q30 7 37 19t7 62v483q0 50 -7 62t-37 19l-30 7v17h376v-17l-30 -7q-30 -7 -37 -19t-7 -62v-483q0 -50 7 -62t37 -19l30 -7v-17h-376zM88 723l-4 10l122 126q29 30 61 30q30 0 50.5 -22t20.5 -53q0 -27 -16.5 -44t-45.5 -21z" />
    <glyph glyph-name="Icircumflex" unicode="&#xce;" horiz-adv-x="386" 
d="M5 0v17l30 7q30 7 37 19t7 62v483q0 50 -7 62t-37 19l-30 7v17h376v-17l-30 -7q-30 -7 -37 -19t-7 -62v-483q0 -50 7 -62t37 -19l30 -7v-17h-376zM34 723l-6 10l137 148h62l137 -148l-6 -10l-162 44z" />
    <glyph glyph-name="Idieresis" unicode="&#xcf;" horiz-adv-x="386" 
d="M5 0v17l30 7q30 7 37 19t7 62v483q0 50 -7 62t-37 19l-30 7v17h376v-17l-30 -7q-30 -7 -37 -19t-7 -62v-483q0 -50 7 -62t37 -19l30 -7v-17h-376zM83 719q-38 0 -63.5 23t-25.5 63q0 39 25.5 62t63.5 23q39 0 64.5 -23t25.5 -62q0 -40 -25.5 -63t-64.5 -23zM304 719
q-38 0 -63.5 23t-25.5 63q0 39 25.5 62t63.5 23q39 0 64.5 -23t25.5 -62q0 -40 -25.5 -63t-64.5 -23z" />
    <glyph glyph-name="Eth" unicode="&#xd0;" horiz-adv-x="746" 
d="M19 330v32h57v226q0 49 -7.5 61t-36.5 20l-27 7v17h368q170 0 262 -83t92 -248q0 -168 -95.5 -265t-262.5 -97h-364v17l27 7q29 8 36.5 20t7.5 61v225h-57zM356 36q133 0 133 300q0 126 -17 198t-44.5 97t-73.5 25q-29 0 -50 -6v-288h110v-32h-110v-232q0 -38 11.5 -50
t40.5 -12z" />
    <glyph glyph-name="Ntilde" unicode="&#xd1;" horiz-adv-x="676" 
d="M536 0l-417 571h-4v-439q0 -64 8.5 -82t43.5 -26l31 -7v-17h-193v17l27 7q28 8 36 25.5t8 75.5v463q0 41 -9 57.5t-35 23.5l-27 7v17h294l257 -340h4v208q0 64 -8 81t-43 26l-33 8v17h195v-17l-28 -7q-28 -7 -36 -24.5t-8 -76.5v-568h-63zM442 742q-20 0 -86.5 9t-88.5 9
q-20 0 -32.5 -9.5t-27.5 -33.5l-14 8q25 76 48 110.5t59 34.5q21 0 87 -9.5t88 -9.5q33 0 60 44l14 -8q-25 -78 -46.5 -111.5t-60.5 -33.5z" />
    <glyph glyph-name="Ograve" unicode="&#xd2;" horiz-adv-x="744" 
d="M369 -12q-67 0 -127.5 20.5t-111.5 61.5t-81 110t-30 158q0 77 22 140t57.5 104.5t82.5 69.5t95.5 40.5t98.5 12.5q68 0 128 -18.5t111 -58t81 -109.5t30 -164q0 -96 -32.5 -169.5t-86.5 -115t-114 -62t-123 -20.5zM373 17q41 0 65 26t36.5 95.5t12.5 192.5
q0 138 -13 214t-37 103.5t-66 27.5q-59 0 -87 -68t-28 -246q0 -137 12.5 -213t37 -104t67.5 -28zM498 733l-4 -10l-188 26q-29 4 -45.5 21t-16.5 44q0 31 20.5 53t50.5 22q33 0 61 -30z" />
    <glyph glyph-name="Oacute" unicode="&#xd3;" horiz-adv-x="744" 
d="M259 723l-4 10l122 126q29 30 61 30q30 0 50.5 -22t20.5 -53q0 -27 -16.5 -44t-45.5 -21zM369 -12q-67 0 -127.5 20.5t-111.5 61.5t-81 110t-30 158q0 77 22 140t57.5 104.5t82.5 69.5t95.5 40.5t98.5 12.5q68 0 128 -18.5t111 -58t81 -109.5t30 -164q0 -96 -32.5 -169.5
t-86.5 -115t-114 -62t-123 -20.5zM373 17q41 0 65 26t36.5 95.5t12.5 192.5q0 138 -13 214t-37 103.5t-66 27.5q-59 0 -87 -68t-28 -246q0 -137 12.5 -213t37 -104t67.5 -28z" />
    <glyph glyph-name="Ocircumflex" unicode="&#xd4;" horiz-adv-x="744" 
d="M209 723l-6 10l137 148h62l137 -148l-6 -10l-162 44zM369 -12q-67 0 -127.5 20.5t-111.5 61.5t-81 110t-30 158q0 77 22 140t57.5 104.5t82.5 69.5t95.5 40.5t98.5 12.5q68 0 128 -18.5t111 -58t81 -109.5t30 -164q0 -96 -32.5 -169.5t-86.5 -115t-114 -62t-123 -20.5z
M373 17q41 0 65 26t36.5 95.5t12.5 192.5q0 138 -13 214t-37 103.5t-66 27.5q-59 0 -87 -68t-28 -246q0 -137 12.5 -213t37 -104t67.5 -28z" />
    <glyph glyph-name="Otilde" unicode="&#xd5;" horiz-adv-x="744" 
d="M369 -12q-67 0 -127.5 20.5t-111.5 61.5t-81 110t-30 158q0 77 22 140t57.5 104.5t82.5 69.5t95.5 40.5t98.5 12.5q68 0 128 -18.5t111 -58t81 -109.5t30 -164q0 -96 -32.5 -169.5t-86.5 -115t-114 -62t-123 -20.5zM373 17q41 0 65 26t36.5 95.5t12.5 192.5
q0 138 -13 214t-37 103.5t-66 27.5q-59 0 -87 -68t-28 -246q0 -137 12.5 -213t37 -104t67.5 -28zM446 742q-20 0 -86.5 9t-88.5 9q-20 0 -32.5 -9.5t-27.5 -33.5l-14 8q25 76 48 110.5t59 34.5q21 0 87 -9.5t88 -9.5q33 0 60 44l14 -8q-25 -78 -46.5 -111.5t-60.5 -33.5z
" />
    <glyph glyph-name="Odieresis" unicode="&#xd6;" horiz-adv-x="744" 
d="M261 719q-38 0 -63.5 23t-25.5 63q0 39 25.5 62t63.5 23q39 0 64.5 -23t25.5 -62q0 -40 -25.5 -63t-64.5 -23zM482 719q-38 0 -63.5 23t-25.5 63q0 39 25.5 62t63.5 23q39 0 64.5 -23t25.5 -62q0 -40 -25.5 -63t-64.5 -23zM369 -12q-67 0 -127.5 20.5t-111.5 61.5
t-81 110t-30 158q0 77 22 140t57.5 104.5t82.5 69.5t95.5 40.5t98.5 12.5q68 0 128 -18.5t111 -58t81 -109.5t30 -164q0 -96 -32.5 -169.5t-86.5 -115t-114 -62t-123 -20.5zM373 17q41 0 65 26t36.5 95.5t12.5 192.5q0 138 -13 214t-37 103.5t-66 27.5q-59 0 -87 -68
t-28 -246q0 -137 12.5 -213t37 -104t67.5 -28z" />
    <glyph glyph-name="multiply" unicode="&#xd7;" horiz-adv-x="455" 
d="M377 526l24 -24l-150 -157l150 -157l-23 -24l-150 157l-150 -157l-24 24l150 157l-149 157l23 24l149 -157z" />
    <glyph glyph-name="Oslash" unicode="&#xd8;" horiz-adv-x="744" 
d="M369 -12q-113 0 -202 55l-69 -94h-39l82 112q-122 95 -122 277q0 77 22 140t57.5 104.5t82.5 69.5t95.5 40.5t98.5 12.5q117 0 202 -51l55 76h39l-68 -93q122 -91 122 -282q0 -96 -32.5 -169.5t-86.5 -115t-114 -62t-123 -20.5zM373 17q62 0 90.5 67.5t28.5 246.5
q0 87 -6 148l-225 -308q12 -86 38.5 -120t73.5 -34zM251 362q0 -95 5 -145l225 307q-12 85 -38.5 118.5t-71.5 33.5q-39 0 -64 -25.5t-40.5 -96.5t-15.5 -192z" />
    <glyph glyph-name="Ugrave" unicode="&#xd9;" horiz-adv-x="696" 
d="M382 -12q-149 0 -228 53t-79 180v367q0 49 -7.5 61t-37.5 20l-27 7v17h371v-17l-27 -7q-30 -8 -37.5 -20t-7.5 -61v-388q0 -79 35 -115.5t112 -36.5q73 0 104 42t31 121v350q0 63 -8.5 81t-42.5 26l-33 8v17h193v-17l-28 -7q-26 -6 -34 -24.5t-8 -76.5v-365
q0 -98 -59 -156.5t-182 -58.5zM537 733l-4 -10l-188 26q-29 4 -45.5 21t-16.5 44q0 31 20.5 53t50.5 22q32 0 61 -30z" />
    <glyph glyph-name="Uacute" unicode="&#xda;" horiz-adv-x="696" 
d="M315 723l-4 10l122 126q29 30 61 30q30 0 50.5 -22t20.5 -53q0 -27 -16.5 -44t-45.5 -21zM382 -12q-149 0 -228 53t-79 180v367q0 49 -7.5 61t-37.5 20l-27 7v17h371v-17l-27 -7q-30 -8 -37.5 -20t-7.5 -61v-388q0 -79 35 -115.5t112 -36.5q73 0 104 42t31 121v350
q0 63 -8.5 81t-42.5 26l-33 8v17h193v-17l-28 -7q-26 -6 -34 -24.5t-8 -76.5v-365q0 -98 -59 -156.5t-182 -58.5z" />
    <glyph glyph-name="Ucircumflex" unicode="&#xdb;" horiz-adv-x="696" 
d="M249 723l-6 10l137 148h62l137 -148l-6 -10l-162 44zM382 -12q-149 0 -228 53t-79 180v367q0 49 -7.5 61t-37.5 20l-27 7v17h371v-17l-27 -7q-30 -8 -37.5 -20t-7.5 -61v-388q0 -79 35 -115.5t112 -36.5q73 0 104 42t31 121v350q0 63 -8.5 81t-42.5 26l-33 8v17h193v-17
l-28 -7q-26 -6 -34 -24.5t-8 -76.5v-365q0 -98 -59 -156.5t-182 -58.5z" />
    <glyph glyph-name="Udieresis" unicode="&#xdc;" horiz-adv-x="696" 
d="M283 719q-38 0 -63.5 23t-25.5 63q0 39 25.5 62t63.5 23q39 0 64.5 -23t25.5 -62q0 -40 -25.5 -63t-64.5 -23zM504 719q-38 0 -63.5 23t-25.5 63q0 39 25.5 62t63.5 23q39 0 64.5 -23t25.5 -62q0 -40 -25.5 -63t-64.5 -23zM382 -12q-149 0 -228 53t-79 180v367
q0 49 -7.5 61t-37.5 20l-27 7v17h371v-17l-27 -7q-30 -8 -37.5 -20t-7.5 -61v-388q0 -79 35 -115.5t112 -36.5q73 0 104 42t31 121v350q0 63 -8.5 81t-42.5 26l-33 8v17h193v-17l-28 -7q-26 -6 -34 -24.5t-8 -76.5v-365q0 -98 -59 -156.5t-182 -58.5z" />
    <glyph glyph-name="Yacute" unicode="&#xdd;" horiz-adv-x="656" 
d="M149 0v17l30 7q36 9 44 20.5t8 60.5v195l-161 286q-23 41 -30 52t-15.5 19.5t-20.5 12.5l-18 6v17h400v-17l-31 -7q-46 -11 -46 -44q0 -26 17 -59l111 -216h3l87 205q17 40 17 67q0 35 -43 47l-25 7v17h188v-17l-19 -6q-16 -5 -28.5 -23t-35.5 -69l-123 -272v-201
q0 -49 8 -60.5t44 -20.5l30 -7v-17h-391zM297 723l-4 10l122 126q29 30 61 30q30 0 50.5 -22t20.5 -53q0 -27 -16.5 -44t-45.5 -21z" />
    <glyph glyph-name="Thorn" unicode="&#xde;" horiz-adv-x="675" 
d="M5 693h374v-17l-30 -7q-31 -6 -38 -18.5t-7 -62.5v-31h60q152 0 226 -47.5t74 -150.5q0 -86 -64.5 -147.5t-194.5 -61.5q-52 0 -79 9v23q69 4 88 36.5t19 132.5q0 104 -17.5 137.5t-64.5 33.5q-29 0 -47 -5v-412q0 -48 8 -60t40 -18l53 -10v-17h-400v17l27 7
q29 8 36.5 20t7.5 61v483q0 49 -7.5 61t-36.5 20l-27 7v17z" />
    <glyph glyph-name="germandbls" unicode="&#xdf;" horiz-adv-x="683" 
d="M461 -10q-80 0 -120.5 24.5t-40.5 66.5q0 62 71 62q34 0 48.5 -17t22.5 -67q4 -26 9 -33t21 -7q27 0 43 14.5t16 36.5q0 34 -22 58t-83 66q-62 42 -82 71.5t-20 70.5q0 34 16.5 72.5t37 68t37 69.5t16.5 75q0 58 -14.5 84.5t-60.5 26.5q-48 0 -74 -31t-26 -110v-518
q0 -31 4.5 -39t23.5 -13l16 -4v-17h-301v17l18 5q30 8 36 16.5t6 43.5v390h-65v12l65 42v3q0 109 86 171.5t224 62.5q102 0 162.5 -37.5t60.5 -97.5q0 -30 -19.5 -57.5t-46.5 -47t-54.5 -35t-47 -28.5t-19.5 -21q0 -11 12 -20t62 -35q24 -13 39 -21q78 -42 116.5 -85
t38.5 -100q0 -80 -58 -134t-154 -54z" />
    <glyph glyph-name="agrave" unicode="&#xe0;" horiz-adv-x="546" 
d="M154 -12q-67 0 -106 33.5t-39 91.5q0 34 12.5 59t39 41.5t50 25t62.5 19.5l114 31v96q0 71 -10.5 97.5t-40.5 26.5q-21 0 -30 -8t-10 -33q-4 -64 -22 -86t-64 -22q-81 0 -81 65q0 53 60 83.5t184 30.5q211 0 211 -143v-274q0 -34 4 -47.5t18 -20.5q19 -10 45 -10v-15
q-54 -41 -135 -41q-95 0 -118 65h-4q-55 -65 -140 -65zM250 63q26 0 37 18v167l-23 -2q-35 -2 -49 -22t-14 -71q0 -90 49 -90zM375 586l-4 -10l-192 30q-28 4 -42 22t-14 42q0 31 20 53.5t48 22.5q35 0 65 -31z" />
    <glyph glyph-name="aacute" unicode="&#xe1;" horiz-adv-x="546" 
d="M154 -12q-67 0 -106 33.5t-39 91.5q0 34 12.5 59t39 41.5t50 25t62.5 19.5l114 31v96q0 71 -10.5 97.5t-40.5 26.5q-21 0 -30 -8t-10 -33q-4 -64 -22 -86t-64 -22q-81 0 -81 65q0 53 60 83.5t184 30.5q211 0 211 -143v-274q0 -34 4 -47.5t18 -20.5q19 -10 45 -10v-15
q-54 -41 -135 -41q-95 0 -118 65h-4q-55 -65 -140 -65zM250 63q26 0 37 18v167l-23 -2q-35 -2 -49 -22t-14 -71q0 -90 49 -90zM154 576l-4 10l119 129q30 31 65 31q28 0 48 -22.5t20 -53.5q0 -24 -14 -42t-42 -22z" />
    <glyph glyph-name="acircumflex" unicode="&#xe2;" horiz-adv-x="546" 
d="M154 -12q-67 0 -106 33.5t-39 91.5q0 34 12.5 59t39 41.5t50 25t62.5 19.5l114 31v96q0 71 -10.5 97.5t-40.5 26.5q-21 0 -30 -8t-10 -33q-4 -64 -22 -86t-64 -22q-81 0 -81 65q0 53 60 83.5t184 30.5q211 0 211 -143v-274q0 -34 4 -47.5t18 -20.5q19 -10 45 -10v-15
q-54 -41 -135 -41q-95 0 -118 65h-4q-55 -65 -140 -65zM250 63q26 0 37 18v167l-23 -2q-35 -2 -49 -22t-14 -71q0 -90 49 -90zM232 742h58l123 -161l-5 -9l-147 56l-147 -56l-5 9z" />
    <glyph glyph-name="atilde" unicode="&#xe3;" horiz-adv-x="546" 
d="M154 -12q-67 0 -106 33.5t-39 91.5q0 34 12.5 59t39 41.5t50 25t62.5 19.5l114 31v96q0 71 -10.5 97.5t-40.5 26.5q-21 0 -30 -8t-10 -33q-4 -64 -22 -86t-64 -22q-81 0 -81 65q0 53 60 83.5t184 30.5q211 0 211 -143v-274q0 -34 4 -47.5t18 -20.5q19 -10 45 -10v-15
q-54 -41 -135 -41q-95 0 -118 65h-4q-55 -65 -140 -65zM250 63q26 0 37 18v167l-23 -2q-35 -2 -49 -22t-14 -71q0 -90 49 -90zM121 569l-14 8q25 76 48 110.5t59 34.5q21 0 77 -9.5t78 -9.5q33 0 60 44l14 -8q-25 -78 -46.5 -111.5t-60.5 -33.5q-20 0 -76.5 9t-78.5 9
q-20 0 -32.5 -9.5t-27.5 -33.5z" />
    <glyph glyph-name="adieresis" unicode="&#xe4;" horiz-adv-x="546" 
d="M154 -12q-67 0 -106 33.5t-39 91.5q0 34 12.5 59t39 41.5t50 25t62.5 19.5l114 31v96q0 71 -10.5 97.5t-40.5 26.5q-21 0 -30 -8t-10 -33q-4 -64 -22 -86t-64 -22q-81 0 -81 65q0 53 60 83.5t184 30.5q211 0 211 -143v-274q0 -34 4 -47.5t18 -20.5q19 -10 45 -10v-15
q-54 -41 -135 -41q-95 0 -118 65h-4q-55 -65 -140 -65zM250 63q26 0 37 18v167l-23 -2q-35 -2 -49 -22t-14 -71q0 -90 49 -90zM64 656q0 39 25.5 62t63.5 23q39 0 64.5 -23t25.5 -62q0 -40 -25.5 -63t-64.5 -23q-38 0 -63.5 23t-25.5 63zM277 656q0 39 25.5 62t63.5 23
q39 0 64.5 -23t25.5 -62q0 -40 -25.5 -63t-64.5 -23q-38 0 -63.5 23t-25.5 63z" />
    <glyph glyph-name="aring" unicode="&#xe5;" horiz-adv-x="546" 
d="M154 -12q-67 0 -106 33.5t-39 91.5q0 34 12.5 59t39 41.5t50 25t62.5 19.5l114 31v96q0 71 -10.5 97.5t-40.5 26.5q-21 0 -30 -8t-10 -33q-4 -64 -22 -86t-64 -22q-81 0 -81 65q0 53 60 83.5t184 30.5q211 0 211 -143v-274q0 -34 4 -47.5t18 -20.5q19 -10 45 -10v-15
q-54 -41 -135 -41q-95 0 -118 65h-4q-55 -65 -140 -65zM250 63q26 0 37 18v167l-23 -2q-35 -2 -49 -22t-14 -71q0 -90 49 -90zM163 655q0 39 28.5 65t66.5 26t66.5 -26t28.5 -65t-28.5 -65t-66.5 -26t-66.5 26t-28.5 65zM201 655q0 -28 15.5 -45.5t41.5 -17.5t41.5 17.5
t15.5 45.5t-15.5 45.5t-41.5 17.5t-41.5 -17.5t-15.5 -45.5z" />
    <glyph glyph-name="ae" unicode="&#xe6;" horiz-adv-x="815" 
d="M342 72q-69 -84 -188 -84q-67 0 -106 34t-39 94q0 28 9.5 51t23 37.5t37.5 26.5t44 19t50 15l114 31v89q0 71 -10.5 97.5t-40.5 26.5q-21 0 -30 -8t-10 -33q-4 -64 -22 -86t-64 -22q-81 0 -81 65q0 53 57 83.5t167 30.5q113 0 156 -60q63 60 153 60q237 0 244 -244h-325
q2 -124 42 -168t126 -44q68 0 136 35v-19q-31 -44 -90 -77.5t-137 -33.5q-145 0 -214 84h-2zM554 511q-34 0 -53 -41t-20 -148l134 10q0 106 -12.5 142.5t-48.5 36.5zM259 63q40 0 70 29q-41 65 -42 163l-18 -1q-37 -2 -52.5 -23.5t-15.5 -74.5q0 -93 58 -93z" />
    <glyph glyph-name="ccedilla" unicode="&#xe7;" horiz-adv-x="509" 
d="M127 -202v15q39 9 61 24.5t22 33.5q0 23 -37 24l-4 5l45 93q-97 16 -149 85t-52 177q0 73 28 130t74 89.5t100 48.5t112 16q83 0 129 -27.5t46 -81.5q0 -76 -83 -76q-48 0 -65.5 23.5t-22.5 85.5q-3 29 -8 37t-23 8q-17 0 -30.5 -6.5t-28 -25.5t-22.5 -61.5t-8 -106.5
q0 -119 31.5 -172t122.5 -53q66 0 130 33v-18q-25 -38 -83.5 -74t-136.5 -36q-11 0 -29 2l-22 -30q43 -4 64.5 -21t21.5 -43q0 -41 -54.5 -66t-128.5 -32z" />
    <glyph glyph-name="egrave" unicode="&#xe8;" horiz-adv-x="543" 
d="M284 -12q-134 0 -202.5 68.5t-68.5 199.5q0 68 24 123.5t64 89.5t88 52t99 18q237 0 244 -244h-325q2 -124 42 -168t126 -44q68 0 136 35v-19q-31 -44 -90 -77.5t-137 -33.5zM400 586l-4 -10l-192 30q-28 4 -42 22t-14 42q0 31 20 53.5t48 22.5q35 0 65 -31zM280 511
q-34 0 -53 -41t-20 -148l134 10q0 106 -12.5 142.5t-48.5 36.5z" />
    <glyph glyph-name="eacute" unicode="&#xe9;" horiz-adv-x="543" 
d="M284 -12q-134 0 -202.5 68.5t-68.5 199.5q0 68 24 123.5t64 89.5t88 52t99 18q237 0 244 -244h-325q2 -124 42 -168t126 -44q68 0 136 35v-19q-31 -44 -90 -77.5t-137 -33.5zM172 576l-4 10l119 129q30 31 65 31q28 0 48 -22.5t20 -53.5q0 -24 -14 -42t-42 -22zM280 511
q-34 0 -53 -41t-20 -148l134 10q0 106 -12.5 142.5t-48.5 36.5z" />
    <glyph glyph-name="ecircumflex" unicode="&#xea;" horiz-adv-x="543" 
d="M284 -12q-134 0 -202.5 68.5t-68.5 199.5q0 68 24 123.5t64 89.5t88 52t99 18q237 0 244 -244h-325q2 -124 42 -168t126 -44q68 0 136 35v-19q-31 -44 -90 -77.5t-137 -33.5zM247 742h58l123 -161l-5 -9l-147 56l-147 -56l-5 9zM280 511q-34 0 -53 -41t-20 -148l134 10
q0 106 -12.5 142.5t-48.5 36.5z" />
    <glyph glyph-name="edieresis" unicode="&#xeb;" horiz-adv-x="543" 
d="M284 -12q-134 0 -202.5 68.5t-68.5 199.5q0 68 24 123.5t64 89.5t88 52t99 18q237 0 244 -244h-325q2 -124 42 -168t126 -44q68 0 136 35v-19q-31 -44 -90 -77.5t-137 -33.5zM300 656q0 39 25.5 62t63.5 23q39 0 64.5 -23t25.5 -62q0 -40 -25.5 -63t-64.5 -23
q-38 0 -63.5 23t-25.5 63zM87 656q0 39 25.5 62t63.5 23q39 0 64.5 -23t25.5 -62q0 -40 -25.5 -63t-64.5 -23q-38 0 -63.5 23t-25.5 63zM280 511q-34 0 -53 -41t-20 -148l134 10q0 106 -12.5 142.5t-48.5 36.5z" />
    <glyph glyph-name="igrave" unicode="&#xec;" horiz-adv-x="316" 
d="M-1 0v17l18 5q30 8 36 16.5t6 43.5v329q0 33 -5 43t-29 27l-32 23v9l259 26l8 -6q-4 -65 -4 -128v-323q0 -35 6 -43.5t36 -16.5l18 -5v-17h-317zM271 586l-4 -10l-192 30q-28 4 -42 22t-14 42q0 31 20 53.5t48 22.5q35 0 65 -31z" />
    <glyph glyph-name="iacute" unicode="&#xed;" horiz-adv-x="316" 
d="M40 576l-4 10l119 129q30 31 65 31q28 0 48 -22.5t20 -53.5q0 -24 -14 -42t-42 -22zM-1 0v17l18 5q30 8 36 16.5t6 43.5v329q0 33 -5 43t-29 27l-32 23v9l259 26l8 -6q-4 -65 -4 -128v-323q0 -35 6 -43.5t36 -16.5l18 -5v-17h-317z" />
    <glyph glyph-name="icircumflex" unicode="&#xee;" horiz-adv-x="316" 
d="M123 742h58l123 -161l-5 -9l-147 56l-147 -56l-5 9zM-1 0v17l18 5q30 8 36 16.5t6 43.5v329q0 33 -5 43t-29 27l-32 23v9l259 26l8 -6q-4 -65 -4 -128v-323q0 -35 6 -43.5t36 -16.5l18 -5v-17h-317z" />
    <glyph glyph-name="idieresis" unicode="&#xef;" horiz-adv-x="316" 
d="M-44 656q0 39 25.5 62t63.5 23q39 0 64.5 -23t25.5 -62q0 -40 -25.5 -63t-64.5 -23q-38 0 -63.5 23t-25.5 63zM169 656q0 39 25.5 62t63.5 23q39 0 64.5 -23t25.5 -62q0 -40 -25.5 -63t-64.5 -23q-38 0 -63.5 23t-25.5 63zM-1 0v17l18 5q30 8 36 16.5t6 43.5v329
q0 33 -5 43t-29 27l-32 23v9l259 26l8 -6q-4 -65 -4 -128v-323q0 -35 6 -43.5t36 -16.5l18 -5v-17h-317z" />
    <glyph glyph-name="eth" unicode="&#xf0;" horiz-adv-x="597" 
d="M140 588l-14 26l119 56q-47 42 -122 80l7 17q104 -25 184 -64l113 54l14 -26l-95 -45q237 -133 237 -379q0 -89 -24 -153.5t-66.5 -99.5t-90.5 -50.5t-105 -15.5q-120 0 -202 70.5t-82 205.5q0 58 17.5 106t45.5 78.5t64.5 51.5t73 30t73.5 9q36 0 58 -11q-26 69 -77 121
zM298 17q30 0 45 13t25.5 66.5t10.5 158.5q0 106 -11 164t-27 74.5t-43 16.5q-30 0 -47 -20t-25.5 -73.5t-8.5 -149.5q0 -109 10.5 -165.5t25.5 -70.5t45 -14z" />
    <glyph glyph-name="ntilde" unicode="&#xf1;" horiz-adv-x="639" 
d="M-1 0v17l18 5q30 8 36 16.5t6 43.5v328q0 33 -4.5 43.5t-27.5 26.5l-32 23v10l249 26l8 -6v-76h3q105 82 194 82q59 0 94 -34.5t35 -99.5v-323q0 -35 6.5 -43.5t36.5 -16.5l18 -5v-17h-309v17l15 4q26 7 31 15t5 46v285q0 39 -14.5 54t-44.5 15q-40 0 -66 -6v-348
q0 -38 5 -46t31 -15l15 -4v-17h-308zM180 569l-14 8q25 76 48 110.5t59 34.5q21 0 77 -9.5t78 -9.5q33 0 60 44l14 -8q-25 -78 -46.5 -111.5t-60.5 -33.5q-20 0 -76.5 9t-78.5 9q-20 0 -32.5 -9.5t-27.5 -33.5z" />
    <glyph glyph-name="ograve" unicode="&#xf2;" horiz-adv-x="596" 
d="M298 -12q-120 0 -202.5 70.5t-82.5 202.5q0 73 24.5 128.5t66 87t90.5 47t104 15.5q119 0 202 -70.5t83 -203.5q0 -73 -24 -128t-65.5 -86.5t-90.5 -47t-105 -15.5zM300 17q29 0 44.5 14t25 67.5t9.5 158.5q0 109 -11.5 166.5t-27.5 72t-45 14.5q-26 0 -41.5 -16t-26 -69
t-10.5 -150q0 -113 9.5 -169.5t25.5 -72.5t48 -16zM415 586l-4 -10l-192 30q-28 4 -42 22t-14 42q0 31 20 53.5t48 22.5q35 0 65 -31z" />
    <glyph glyph-name="oacute" unicode="&#xf3;" horiz-adv-x="596" 
d="M181 576l-4 10l119 129q30 31 65 31q28 0 48 -22.5t20 -53.5q0 -24 -14 -42t-42 -22zM298 -12q-120 0 -202.5 70.5t-82.5 202.5q0 73 24.5 128.5t66 87t90.5 47t104 15.5q119 0 202 -70.5t83 -203.5q0 -73 -24 -128t-65.5 -86.5t-90.5 -47t-105 -15.5zM300 17
q29 0 44.5 14t25 67.5t9.5 158.5q0 109 -11.5 166.5t-27.5 72t-45 14.5q-26 0 -41.5 -16t-26 -69t-10.5 -150q0 -113 9.5 -169.5t25.5 -72.5t48 -16z" />
    <glyph glyph-name="ocircumflex" unicode="&#xf4;" horiz-adv-x="596" 
d="M270 742h58l123 -161l-5 -9l-147 56l-147 -56l-5 9zM298 -12q-120 0 -202.5 70.5t-82.5 202.5q0 73 24.5 128.5t66 87t90.5 47t104 15.5q119 0 202 -70.5t83 -203.5q0 -73 -24 -128t-65.5 -86.5t-90.5 -47t-105 -15.5zM300 17q29 0 44.5 14t25 67.5t9.5 158.5
q0 109 -11.5 166.5t-27.5 72t-45 14.5q-26 0 -41.5 -16t-26 -69t-10.5 -150q0 -113 9.5 -169.5t25.5 -72.5t48 -16z" />
    <glyph glyph-name="otilde" unicode="&#xf5;" horiz-adv-x="596" 
d="M298 -12q-120 0 -202.5 70.5t-82.5 202.5q0 73 24.5 128.5t66 87t90.5 47t104 15.5q119 0 202 -70.5t83 -203.5q0 -73 -24 -128t-65.5 -86.5t-90.5 -47t-105 -15.5zM300 17q29 0 44.5 14t25 67.5t9.5 158.5q0 109 -11.5 166.5t-27.5 72t-45 14.5q-26 0 -41.5 -16t-26 -69
t-10.5 -150q0 -113 9.5 -169.5t25.5 -72.5t48 -16zM147 569l-14 8q25 76 48 110.5t59 34.5q21 0 77 -9.5t78 -9.5q33 0 60 44l14 -8q-25 -78 -46.5 -111.5t-60.5 -33.5q-20 0 -76.5 9t-78.5 9q-20 0 -32.5 -9.5t-27.5 -33.5z" />
    <glyph glyph-name="odieresis" unicode="&#xf6;" horiz-adv-x="596" 
d="M103 656q0 39 25.5 62t63.5 23q39 0 64.5 -23t25.5 -62q0 -40 -25.5 -63t-64.5 -23q-38 0 -63.5 23t-25.5 63zM316 656q0 39 25.5 62t63.5 23q39 0 64.5 -23t25.5 -62q0 -40 -25.5 -63t-64.5 -23q-38 0 -63.5 23t-25.5 63zM298 -12q-120 0 -202.5 70.5t-82.5 202.5
q0 73 24.5 128.5t66 87t90.5 47t104 15.5q119 0 202 -70.5t83 -203.5q0 -73 -24 -128t-65.5 -86.5t-90.5 -47t-105 -15.5zM300 17q29 0 44.5 14t25 67.5t9.5 158.5q0 109 -11.5 166.5t-27.5 72t-45 14.5q-26 0 -41.5 -16t-26 -69t-10.5 -150q0 -113 9.5 -169.5t25.5 -72.5
t48 -16z" />
    <glyph glyph-name="divide" unicode="&#xf7;" horiz-adv-x="485" 
d="M44 329v33h397v-33h-397zM242 121q-31 0 -52.5 22t-21.5 52q0 32 21.5 53t52.5 21t52.5 -21t21.5 -53q0 -29 -22 -51.5t-52 -22.5zM242 422q-31 0 -52.5 22t-21.5 52q0 32 21.5 53t52.5 21t52.5 -21t21.5 -53q0 -29 -22 -51.5t-52 -22.5z" />
    <glyph glyph-name="oslash" unicode="&#xf8;" horiz-adv-x="596" 
d="M298 -12q-92 0 -160 40l-50 -69h-38l62 86q-99 73 -99 216q0 73 24.5 128.5t66 87t90.5 47t104 15.5q82 0 147 -34l45 63h38l-56 -78q111 -74 111 -225q0 -73 -24 -128t-65.5 -86.5t-90.5 -47t-105 -15.5zM300 17q30 0 46 13.5t27.5 68t11.5 158.5q0 68 -4 108l-165 -229
q7 -73 26 -96t58 -23zM211 275q0 -39 2 -91l163 226q-10 60 -29 80t-52 20q-26 0 -43 -15.5t-29 -69.5t-12 -150z" />
    <glyph glyph-name="ugrave" unicode="&#xf9;" horiz-adv-x="638" 
d="M381 97v312q0 34 -5 44.5t-27 26.5l-32 23v10l253 26l8 -6v-417q0 -40 5.5 -51t29.5 -20l24 -9v-13l-244 -35l-8 6v74h-3q-49 -38 -93.5 -59t-100.5 -21q-60 0 -94.5 34.5t-34.5 99.5v287q0 34 -4.5 44t-27.5 27l-32 23v10l253 26l8 -6v-364q0 -43 14 -60.5t43 -17.5
q36 0 68 6zM430 586l-4 -10l-192 30q-28 4 -42 22t-14 42q0 31 20 53.5t48 22.5q35 0 65 -31z" />
    <glyph glyph-name="uacute" unicode="&#xfa;" horiz-adv-x="638" 
d="M213 576l-4 10l119 129q30 31 65 31q28 0 48 -22.5t20 -53.5q0 -24 -14 -42t-42 -22zM381 97v312q0 34 -5 44.5t-27 26.5l-32 23v10l253 26l8 -6v-417q0 -40 5.5 -51t29.5 -20l24 -9v-13l-244 -35l-8 6v74h-3q-49 -38 -93.5 -59t-100.5 -21q-60 0 -94.5 34.5t-34.5 99.5
v287q0 34 -4.5 44t-27.5 27l-32 23v10l253 26l8 -6v-364q0 -43 14 -60.5t43 -17.5q36 0 68 6z" />
    <glyph glyph-name="ucircumflex" unicode="&#xfb;" horiz-adv-x="638" 
d="M288 742h58l123 -161l-5 -9l-147 56l-147 -56l-5 9zM381 97v312q0 34 -5 44.5t-27 26.5l-32 23v10l253 26l8 -6v-417q0 -40 5.5 -51t29.5 -20l24 -9v-13l-244 -35l-8 6v74h-3q-49 -38 -93.5 -59t-100.5 -21q-60 0 -94.5 34.5t-34.5 99.5v287q0 34 -4.5 44t-27.5 27
l-32 23v10l253 26l8 -6v-364q0 -43 14 -60.5t43 -17.5q36 0 68 6z" />
    <glyph glyph-name="udieresis" unicode="&#xfc;" horiz-adv-x="638" 
d="M115 656q0 39 25.5 62t63.5 23q39 0 64.5 -23t25.5 -62q0 -40 -25.5 -63t-64.5 -23q-38 0 -63.5 23t-25.5 63zM328 656q0 39 25.5 62t63.5 23q39 0 64.5 -23t25.5 -62q0 -40 -25.5 -63t-64.5 -23q-38 0 -63.5 23t-25.5 63zM381 97v312q0 34 -5 44.5t-27 26.5l-32 23v10
l253 26l8 -6v-417q0 -40 5.5 -51t29.5 -20l24 -9v-13l-244 -35l-8 6v74h-3q-49 -38 -93.5 -59t-100.5 -21q-60 0 -94.5 34.5t-34.5 99.5v287q0 34 -4.5 44t-27.5 27l-32 23v10l253 26l8 -6v-364q0 -43 14 -60.5t43 -17.5q36 0 68 6z" />
    <glyph glyph-name="yacute" unicode="&#xfd;" horiz-adv-x="555" 
d="M367 199l73 195q18 49 18 67q0 32 -35 41l-26 7v17h172v-17l-19 -7q-15 -6 -26.5 -24.5t-34.5 -73.5l-190 -447q-37 -86 -75.5 -124t-107.5 -38q-44 0 -75 22.5t-31 60.5q0 32 20.5 50.5t57.5 18.5q65 0 73 -67q2 -15 5 -20.5t13 -5.5q18 0 41 27t46 84l4 10l-207 442
q-23 49 -35 65.5t-27 21.5l-15 5v17h342v-17l-26 -8q-35 -12 -35 -42q0 -17 16 -58l80 -202h4zM209 576l-4 10l119 129q30 31 65 31q28 0 48 -22.5t20 -53.5q0 -24 -14 -42t-42 -22z" />
    <glyph glyph-name="thorn" unicode="&#xfe;" horiz-adv-x="622" 
d="M241 630v-167h3q80 76 165 76q84 0 139 -60.5t55 -185.5q0 -156 -81 -230.5t-213 -74.5q-36 0 -68 8v-113q0 -35 5.5 -43.5t33.5 -15.5l25 -6v-17h-321v17l18 5q30 8 36 16.5t6 43.5v746q0 42 -4.5 54.5t-27.5 22.5l-33 15v13l257 23l9 -6q-4 -54 -4 -121zM308 17
q33 0 52 16.5t30.5 68.5t11.5 147q0 111 -25 152.5t-76 41.5q-31 0 -60 -9v-380q24 -37 67 -37z" />
    <glyph glyph-name="ydieresis" unicode="&#xff;" horiz-adv-x="555" 
d="M367 199l73 195q18 49 18 67q0 32 -35 41l-26 7v17h172v-17l-19 -7q-15 -6 -26.5 -24.5t-34.5 -73.5l-190 -447q-37 -86 -75.5 -124t-107.5 -38q-44 0 -75 22.5t-31 60.5q0 32 20.5 50.5t57.5 18.5q65 0 73 -67q2 -15 5 -20.5t13 -5.5q18 0 41 27t46 84l4 10l-207 442
q-23 49 -35 65.5t-27 21.5l-15 5v17h342v-17l-26 -8q-35 -12 -35 -42q0 -17 16 -58l80 -202h4zM116 656q0 39 25.5 62t63.5 23q39 0 64.5 -23t25.5 -62q0 -40 -25.5 -63t-64.5 -23q-38 0 -63.5 23t-25.5 63zM329 656q0 39 25.5 62t63.5 23q39 0 64.5 -23t25.5 -62
q0 -40 -25.5 -63t-64.5 -23q-38 0 -63.5 23t-25.5 63z" />
    <glyph glyph-name="Amacron" unicode="&#x100;" horiz-adv-x="700" 
d="M-6 0v17l13 4q26 8 39 27t40 93l201 552h119l205 -551q27 -72 38.5 -93t32.5 -27l17 -5v-17h-393v17l28 7q38 10 38 45q0 32 -21 93l-18 58h-177l-20 -59q-20 -60 -20 -89q0 -18 11 -28.5t40 -19.5l24 -7v-17h-197zM200 755v69h288v-69h-288zM247 490l-80 -236h155
l-72 236h-3z" />
    <glyph glyph-name="amacron" unicode="&#x101;" horiz-adv-x="546" 
d="M154 -12q-67 0 -106 33.5t-39 91.5q0 34 12.5 59t39 41.5t50 25t62.5 19.5l114 31v96q0 71 -10.5 97.5t-40.5 26.5q-21 0 -30 -8t-10 -33q-4 -64 -22 -86t-64 -22q-81 0 -81 65q0 53 60 83.5t184 30.5q211 0 211 -143v-274q0 -34 4 -47.5t18 -20.5q19 -10 45 -10v-15
q-54 -41 -135 -41q-95 0 -118 65h-4q-55 -65 -140 -65zM250 63q26 0 37 18v167l-23 -2q-35 -2 -49 -22t-14 -71q0 -90 49 -90zM121 614v69h288v-69h-288z" />
    <glyph glyph-name="Abreve" unicode="&#x102;" horiz-adv-x="700" 
d="M-6 0v17l13 4q26 8 39 27t40 93l201 552h119l205 -551q27 -72 38.5 -93t32.5 -27l17 -5v-17h-393v17l28 7q38 10 38 45q0 32 -21 93l-18 58h-177l-20 -59q-20 -60 -20 -89q0 -18 11 -28.5t40 -19.5l24 -7v-17h-197zM343 725q-119 0 -145 159l11 4q23 -33 52.5 -47
t82.5 -14q51 0 80.5 14t54.5 47l11 -4q-10 -75 -47 -117t-100 -42zM247 490l-80 -236h155l-72 236h-3z" />
    <glyph glyph-name="abreve" unicode="&#x103;" horiz-adv-x="546" 
d="M154 -12q-67 0 -106 33.5t-39 91.5q0 34 12.5 59t39 41.5t50 25t62.5 19.5l114 31v96q0 71 -10.5 97.5t-40.5 26.5q-21 0 -30 -8t-10 -33q-4 -64 -22 -86t-64 -22q-81 0 -81 65q0 53 60 83.5t184 30.5q211 0 211 -143v-274q0 -34 4 -47.5t18 -20.5q19 -10 45 -10v-15
q-54 -41 -135 -41q-95 0 -118 65h-4q-55 -65 -140 -65zM250 63q26 0 37 18v167l-23 -2q-35 -2 -49 -22t-14 -71q0 -90 49 -90zM264 574q-54 0 -87 43.5t-46 115.5l11 4q18 -32 46.5 -45t76.5 -13q89 0 123 58l11 -4q-10 -71 -44.5 -115t-90.5 -44z" />
    <glyph glyph-name="Aogonek" unicode="&#x104;" horiz-adv-x="700" 
d="M699 0h-137q-88 0 -128.5 -25t-40.5 -81q0 -23 13.5 -36t34.5 -13q11 0 25 3v-15q-36 -38 -95 -38q-49 0 -75.5 20t-26.5 54q0 35 34.5 65.5t101.5 51.5l-72 234h-177l-20 -59q-20 -60 -20 -89q0 -18 11 -28.5t40 -19.5l24 -7v-17h-197v17l13 4q26 8 39 27t40 93l201 552
h119l205 -551q27 -72 38.5 -93t32.5 -27l17 -5v-17zM250 490h-3l-80 -236h155z" />
    <glyph glyph-name="aogonek" unicode="&#x105;" horiz-adv-x="546" 
d="M332 -127q0 39 33 67t107 55q-33 -7 -58 -7q-93 0 -116 65h-4q-55 -65 -140 -65q-67 0 -106 33.5t-39 91.5q0 34 12.5 59t39 41.5t50 25t62.5 19.5l114 31v96q0 71 -10.5 97.5t-40.5 26.5q-21 0 -30 -8t-10 -33q-4 -64 -22 -86t-64 -22q-81 0 -81 65q0 53 60 83.5
t184 30.5q211 0 211 -143v-274q0 -34 4 -47.5t18 -20.5q19 -10 45 -10v-13q-51 -42 -72 -73t-21 -62q0 -51 45 -51q13 0 26 3v-15q-36 -38 -91 -38q-51 0 -78.5 21t-27.5 57zM250 63q26 0 37 18v167l-23 -2q-35 -2 -49 -22t-14 -71q0 -90 49 -90z" />
    <glyph glyph-name="Cacute" unicode="&#x106;" horiz-adv-x="632" 
d="M376 -12q-164 0 -260.5 92.5t-96.5 260.5q0 92 30 163t83 114t121 65t147 22q108 0 187 -23l16 -234h-19q-60 119 -102 175q-21 27 -41 40t-51 13q-68 0 -100 -78t-32 -237q0 -194 30.5 -269t98.5 -75q36 0 62 12.5t50 45.5q29 38 93 174h18l-12 -222q-104 -39 -222 -39z
M253 723l-4 10l122 126q29 30 61 30q30 0 50.5 -22t20.5 -53q0 -27 -16.5 -44t-45.5 -21z" />
    <glyph glyph-name="cacute" unicode="&#x107;" horiz-adv-x="509" 
d="M275 -12q-124 0 -193 72t-69 195q0 73 28 130t74 89.5t100 48.5t112 16q83 0 129 -27.5t46 -81.5q0 -76 -83 -76q-48 0 -65.5 23.5t-22.5 85.5q-3 29 -8 37t-23 8q-17 0 -30.5 -6.5t-28 -25.5t-22.5 -61.5t-8 -106.5q0 -119 31.5 -172t122.5 -53q66 0 130 33v-18
q-25 -38 -83.5 -74t-136.5 -36zM181 576l-4 10l119 129q30 31 65 31q28 0 48 -22.5t20 -53.5q0 -24 -14 -42t-42 -22z" />
    <glyph glyph-name="Ccircumflex" unicode="&#x108;" horiz-adv-x="632" 
d="M376 -12q-164 0 -260.5 92.5t-96.5 260.5q0 92 30 163t83 114t121 65t147 22q108 0 187 -23l16 -234h-19q-60 119 -102 175q-21 27 -41 40t-51 13q-68 0 -100 -78t-32 -237q0 -194 30.5 -269t98.5 -75q36 0 62 12.5t50 45.5q29 38 93 174h18l-12 -222q-104 -39 -222 -39z
M202 723l-6 10l137 148h62l137 -148l-6 -10l-162 44z" />
    <glyph glyph-name="ccircumflex" unicode="&#x109;" horiz-adv-x="509" 
d="M275 -12q-124 0 -193 72t-69 195q0 73 28 130t74 89.5t100 48.5t112 16q83 0 129 -27.5t46 -81.5q0 -76 -83 -76q-48 0 -65.5 23.5t-22.5 85.5q-3 29 -8 37t-23 8q-17 0 -30.5 -6.5t-28 -25.5t-22.5 -61.5t-8 -106.5q0 -119 31.5 -172t122.5 -53q66 0 130 33v-18
q-25 -38 -83.5 -74t-136.5 -36zM252 742h58l123 -161l-5 -9l-147 56l-147 -56l-5 9z" />
    <glyph glyph-name="Cdotaccent" unicode="&#x10a;" horiz-adv-x="632" 
d="M376 -12q-164 0 -260.5 92.5t-96.5 260.5q0 92 30 163t83 114t121 65t147 22q108 0 187 -23l16 -234h-19q-60 119 -102 175q-21 27 -41 40t-51 13q-68 0 -100 -78t-32 -237q0 -194 30.5 -269t98.5 -75q36 0 62 12.5t50 45.5q29 38 93 174h18l-12 -222q-104 -39 -222 -39z
M374 723q-42 0 -69.5 24.5t-27.5 64.5t28 64.5t69 24.5q42 0 69.5 -24.5t27.5 -64.5t-27.5 -64.5t-69.5 -24.5z" />
    <glyph glyph-name="cdotaccent" unicode="&#x10b;" horiz-adv-x="509" 
d="M275 -12q-124 0 -193 72t-69 195q0 73 28 130t74 89.5t100 48.5t112 16q83 0 129 -27.5t46 -81.5q0 -76 -83 -76q-48 0 -65.5 23.5t-22.5 85.5q-3 29 -8 37t-23 8q-17 0 -30.5 -6.5t-28 -25.5t-22.5 -61.5t-8 -106.5q0 -119 31.5 -172t122.5 -53q66 0 130 33v-18
q-25 -38 -83.5 -74t-136.5 -36zM192 654q0 40 28 64.5t69 24.5q42 0 69.5 -24.5t27.5 -64.5t-27.5 -64.5t-69.5 -24.5t-69.5 24.5t-27.5 64.5z" />
    <glyph glyph-name="Ccaron" unicode="&#x10c;" horiz-adv-x="632" 
d="M376 -12q-164 0 -260.5 92.5t-96.5 260.5q0 92 30 163t83 114t121 65t147 22q108 0 187 -23l16 -234h-19q-60 119 -102 175q-21 27 -41 40t-51 13q-68 0 -100 -78t-32 -237q0 -194 30.5 -269t98.5 -75q36 0 62 12.5t50 45.5q29 38 93 174h18l-12 -222q-104 -39 -222 -39z
M210 879l6 10l162 -44l162 44l6 -10l-137 -148h-62z" />
    <glyph glyph-name="ccaron" unicode="&#x10d;" horiz-adv-x="509" 
d="M275 -12q-124 0 -193 72t-69 195q0 73 28 130t74 89.5t100 48.5t112 16q83 0 129 -27.5t46 -81.5q0 -76 -83 -76q-48 0 -65.5 23.5t-22.5 85.5q-3 29 -8 37t-23 8q-17 0 -30.5 -6.5t-28 -25.5t-22.5 -61.5t-8 -106.5q0 -119 31.5 -172t122.5 -53q66 0 130 33v-18
q-25 -38 -83.5 -74t-136.5 -36zM310 580h-58l-123 161l5 9l147 -56l147 56l5 -9z" />
    <glyph glyph-name="Dcaron" unicode="&#x10e;" horiz-adv-x="746" 
d="M5 0v17l27 7q29 8 36.5 20t7.5 61v483q0 49 -7.5 61t-36.5 20l-27 7v17h368q170 0 262 -83t92 -248q0 -168 -95.5 -265t-262.5 -97h-364zM356 33q133 0 133 303q0 126 -17 199t-45 98.5t-73 25.5q-29 0 -50 -6v-558q0 -38 11.5 -50t40.5 -12zM203 879l6 10l162 -44
l162 44l6 -10l-137 -148h-62z" />
    <glyph glyph-name="dcaron" unicode="&#x10f;" horiz-adv-x="638" 
d="M221 -12q-90 0 -146 62.5t-56 183.5q0 156 83 230.5t213 74.5q33 0 65 -10v100q0 36 -5.5 46.5t-27.5 22.5l-40 22v14l267 23l8 -6q-4 -54 -4 -121v-514q0 -41 5 -51.5t29 -19.5l24 -9v-13l-241 -35l-13 9v63h-3q-76 -72 -158 -72zM323 77q28 0 57 12v378q-23 43 -64 43
q-96 0 -96 -226q0 -115 23.5 -161t79.5 -46zM620 564l-11 4l4 143q0 50 49 50q25 0 43.5 -14.5t20.5 -34.5q0 -24 -17 -43z" />
    <glyph glyph-name="Dcroat" unicode="&#x110;" horiz-adv-x="746" 
d="M26 328v37h50v223q0 49 -7.5 61t-36.5 20l-27 7v17h368q170 0 262 -83t92 -248q0 -168 -95.5 -265t-262.5 -97h-364v17l27 7q29 8 36.5 20t7.5 61v223h-50zM356 33q133 0 133 303q0 126 -17 199t-45 98.5t-73 25.5q-29 0 -50 -6l1 -288h107v-37h-107l-1 -233
q0 -38 11.5 -50t40.5 -12z" />
    <glyph glyph-name="dcroat" unicode="&#x111;" horiz-adv-x="638" 
d="M575 594l3 -478q0 -41 5 -51.5t29 -19.5l24 -9v-13l-241 -35l-13 9v63h-3q-76 -72 -158 -72q-90 0 -146 62.5t-56 183.5q0 156 83 230.5t213 74.5q33 0 65 -10v65h-153v40h153q-1 32 -6 42t-27 22l-40 22v14l267 23l8 -6q-7 -53 -7 -117h60v-40h-60zM323 77q28 0 57 12
v378q-23 43 -64 43q-96 0 -96 -226q0 -115 23.5 -161t79.5 -46z" />
    <glyph glyph-name="Emacron" unicode="&#x112;" horiz-adv-x="615" 
d="M470 497v-281h-18q-12 55 -33 96q-10 18 -26 24.5t-63 6.5h-26v-242q0 -42 13 -54.5t64 -12.5q55 0 76 12.5t47 54.5q41 68 79 165h20l-14 -266h-584v17l27 7q29 8 36.5 20t7.5 61v483q0 49 -7.5 61t-36.5 20l-27 7v17h564l9 -227h-19q-35 82 -67 133q-22 35 -46 47.5
t-68 12.5q-52 0 -74 -6v-278h27q47 0 63 6.5t25 23.5q20 39 33 92h18zM185 755v69h288v-69h-288z" />
    <glyph glyph-name="emacron" unicode="&#x113;" horiz-adv-x="543" 
d="M284 -12q-134 0 -202.5 68.5t-68.5 199.5q0 68 24 123.5t64 89.5t88 52t99 18q237 0 244 -244h-325q2 -124 42 -168t126 -44q68 0 136 35v-19q-31 -44 -90 -77.5t-137 -33.5zM280 511q-34 0 -53 -41t-20 -148l134 10q0 106 -12.5 142.5t-48.5 36.5zM129 614v69h288v-69
h-288z" />
    <glyph glyph-name="Ebreve" unicode="&#x114;" horiz-adv-x="615" 
d="M470 497v-281h-18q-12 55 -33 96q-10 18 -26 24.5t-63 6.5h-26v-242q0 -42 13 -54.5t64 -12.5q55 0 76 12.5t47 54.5q41 68 79 165h20l-14 -266h-584v17l27 7q29 8 36.5 20t7.5 61v483q0 49 -7.5 61t-36.5 20l-27 7v17h564l9 -227h-19q-35 82 -67 133q-22 35 -46 47.5
t-68 12.5q-52 0 -74 -6v-278h27q47 0 63 6.5t25 23.5q20 39 33 92h18zM331 725q-119 0 -145 159l11 4q23 -33 52.5 -47t82.5 -14q51 0 80.5 14t54.5 47l11 -4q-10 -75 -47 -117t-100 -42z" />
    <glyph glyph-name="ebreve" unicode="&#x115;" horiz-adv-x="543" 
d="M284 -12q-134 0 -202.5 68.5t-68.5 199.5q0 68 24 123.5t64 89.5t88 52t99 18q237 0 244 -244h-325q2 -124 42 -168t126 -44q68 0 136 35v-19q-31 -44 -90 -77.5t-137 -33.5zM281 574q-54 0 -87 43.5t-46 115.5l11 4q18 -32 46.5 -45t76.5 -13q89 0 123 58l11 -4
q-10 -71 -44.5 -115t-90.5 -44zM280 511q-34 0 -53 -41t-20 -148l134 10q0 106 -12.5 142.5t-48.5 36.5z" />
    <glyph glyph-name="Edotaccent" unicode="&#x116;" horiz-adv-x="615" 
d="M470 497v-281h-18q-12 55 -33 96q-10 18 -26 24.5t-63 6.5h-26v-242q0 -42 13 -54.5t64 -12.5q55 0 76 12.5t47 54.5q41 68 79 165h20l-14 -266h-584v17l27 7q29 8 36.5 20t7.5 61v483q0 49 -7.5 61t-36.5 20l-27 7v17h564l9 -227h-19q-35 82 -67 133q-22 35 -46 47.5
t-68 12.5q-52 0 -74 -6v-278h27q47 0 63 6.5t25 23.5q20 39 33 92h18zM318 723q-42 0 -69.5 24.5t-27.5 64.5t28 64.5t69 24.5q42 0 69.5 -24.5t27.5 -64.5t-27.5 -64.5t-69.5 -24.5z" />
    <glyph glyph-name="edotaccent" unicode="&#x117;" horiz-adv-x="543" 
d="M284 -12q-134 0 -202.5 68.5t-68.5 199.5q0 68 24 123.5t64 89.5t88 52t99 18q237 0 244 -244h-325q2 -124 42 -168t126 -44q68 0 136 35v-19q-31 -44 -90 -77.5t-137 -33.5zM177 654q0 40 28 64.5t69 24.5q42 0 69.5 -24.5t27.5 -64.5t-27.5 -64.5t-69.5 -24.5
t-69.5 24.5t-27.5 64.5zM280 511q-34 0 -53 -41t-20 -148l134 10q0 106 -12.5 142.5t-48.5 36.5z" />
    <glyph glyph-name="Eogonek" unicode="&#x118;" horiz-adv-x="615" 
d="M478 0h-473v17l27 7q29 8 36.5 20t7.5 61v483q0 49 -7.5 61t-36.5 20l-27 7v17h564l9 -227h-19q-35 82 -67 133q-22 35 -46 47.5t-68 12.5q-52 0 -74 -6v-278h27q47 0 63 6.5t25 23.5q20 39 33 92h18v-281h-18q-12 55 -33 96q-10 18 -26 24.5t-63 6.5h-26v-242
q0 -42 13 -54.5t64 -12.5q55 0 76 12.5t47 54.5q41 68 79 165h20l-14 -266h-91q-41 -49 -41 -112q0 -43 40 -43q15 0 29 3v-15q-36 -38 -91 -38q-51 0 -78.5 21t-27.5 57q0 79 149 127z" />
    <glyph glyph-name="eogonek" unicode="&#x119;" horiz-adv-x="543" 
d="M236 -127q0 36 40 69.5t101 58.5q-56 -13 -93 -13q-134 0 -202.5 68.5t-68.5 199.5q0 68 24 123.5t64 89.5t88 52t99 18q237 0 244 -244h-325q2 -124 42 -168t126 -44q68 0 136 35v-19q-16 -18 -52 -52.5t-42 -40.5q-56 -56 -56 -110q0 -51 47 -51q12 0 25 3v-15
q-36 -38 -91 -38q-51 0 -78.5 21t-27.5 57zM280 511q-34 0 -53 -41t-20 -148l134 10q0 106 -12.5 142.5t-48.5 36.5z" />
    <glyph glyph-name="Ecaron" unicode="&#x11a;" horiz-adv-x="615" 
d="M470 497v-281h-18q-12 55 -33 96q-10 18 -26 24.5t-63 6.5h-26v-242q0 -42 13 -54.5t64 -12.5q55 0 76 12.5t47 54.5q41 68 79 165h20l-14 -266h-584v17l27 7q29 8 36.5 20t7.5 61v483q0 49 -7.5 61t-36.5 20l-27 7v17h564l9 -227h-19q-35 82 -67 133q-22 35 -46 47.5
t-68 12.5q-52 0 -74 -6v-278h27q47 0 63 6.5t25 23.5q20 39 33 92h18zM165 879l6 10l162 -44l162 44l6 -10l-137 -148h-62z" />
    <glyph glyph-name="ecaron" unicode="&#x11b;" horiz-adv-x="543" 
d="M284 -12q-134 0 -202.5 68.5t-68.5 199.5q0 68 24 123.5t64 89.5t88 52t99 18q237 0 244 -244h-325q2 -124 42 -168t126 -44q68 0 136 35v-19q-31 -44 -90 -77.5t-137 -33.5zM305 580h-58l-123 161l5 9l147 -56l147 56l5 -9zM280 511q-34 0 -53 -41t-20 -148l134 10
q0 106 -12.5 142.5t-48.5 36.5z" />
    <glyph glyph-name="Gcircumflex" unicode="&#x11c;" horiz-adv-x="693" 
d="M392 -12q-186 0 -279.5 92.5t-93.5 264.5q0 75 21.5 135.5t58 102t88 69.5t110 40.5t124.5 12.5q114 0 191 -25l11 -231h-19q-49 103 -84 154q-30 44 -55.5 58.5t-62.5 14.5q-77 0 -111.5 -78t-34.5 -240q0 -193 25.5 -267t98.5 -74q34 0 54 18v162q0 50 -7 61.5
t-38 19.5l-27 7v17h334v-17l-21 -6q-19 -5 -23.5 -17.5t-4.5 -64.5v-167q-43 -18 -115.5 -30t-139.5 -12zM223 723l-6 10l137 148h62l137 -148l-6 -10l-162 44z" />
    <glyph glyph-name="gcircumflex" unicode="&#x11d;" horiz-adv-x="536" 
d="M215 -204q-231 0 -231 106q0 37 34 62t98 32v2q-100 25 -100 110q0 41 24 73.5t57 52.5v2q-82 43 -82 128q0 81 63.5 128t163.5 47q76 0 136 -30q60 58 117 58q30 0 48.5 -15.5t18.5 -45.5q0 -24 -13 -40t-40 -16q-23 0 -32.5 9t-17.5 30q-14 40 -63 6v-2q73 -49 73 -114
q0 -82 -63.5 -128.5t-163.5 -46.5q-72 0 -125 21q-15 -20 -15 -42q0 -27 43 -27h204q175 0 175 -139q0 -103 -86 -162t-223 -59zM238 -175q168 0 168 96q0 37 -22.5 53t-71.5 16h-174q-18 -20 -18 -72q0 -93 118 -93zM242 232q30 0 39.5 26t9.5 112q0 87 -10.5 114t-38.5 27
q-30 0 -39.5 -26t-9.5 -112t10 -113.5t39 -27.5zM223 742h58l123 -161l-5 -9l-147 56l-147 -56l-5 9z" />
    <glyph glyph-name="Gbreve" unicode="&#x11e;" horiz-adv-x="693" 
d="M392 -12q-186 0 -279.5 92.5t-93.5 264.5q0 75 21.5 135.5t58 102t88 69.5t110 40.5t124.5 12.5q114 0 191 -25l11 -231h-19q-49 103 -84 154q-30 44 -55.5 58.5t-62.5 14.5q-77 0 -111.5 -78t-34.5 -240q0 -193 25.5 -267t98.5 -74q34 0 54 18v162q0 50 -7 61.5
t-38 19.5l-27 7v17h334v-17l-21 -6q-19 -5 -23.5 -17.5t-4.5 -64.5v-167q-43 -18 -115.5 -30t-139.5 -12zM383 725q-119 0 -145 159l11 4q23 -33 52.5 -47t82.5 -14q51 0 80.5 14t54.5 47l11 -4q-10 -75 -47 -117t-100 -42z" />
    <glyph glyph-name="gbreve" unicode="&#x11f;" horiz-adv-x="536" 
d="M215 -204q-231 0 -231 106q0 37 34 62t98 32v2q-100 25 -100 110q0 41 24 73.5t57 52.5v2q-82 43 -82 128q0 81 63.5 128t163.5 47q76 0 136 -30q60 58 117 58q30 0 48.5 -15.5t18.5 -45.5q0 -24 -13 -40t-40 -16q-23 0 -32.5 9t-17.5 30q-14 40 -63 6v-2q73 -49 73 -114
q0 -82 -63.5 -128.5t-163.5 -46.5q-72 0 -125 21q-15 -20 -15 -42q0 -27 43 -27h204q175 0 175 -139q0 -103 -86 -162t-223 -59zM238 -175q168 0 168 96q0 37 -22.5 53t-71.5 16h-174q-18 -20 -18 -72q0 -93 118 -93zM242 232q30 0 39.5 26t9.5 112q0 87 -10.5 114t-38.5 27
q-30 0 -39.5 -26t-9.5 -112t10 -113.5t39 -27.5zM253 574q-54 0 -87 43.5t-46 115.5l11 4q18 -32 46.5 -45t76.5 -13q89 0 123 58l11 -4q-10 -71 -44.5 -115t-90.5 -44z" />
    <glyph glyph-name="Gdotaccent" unicode="&#x120;" horiz-adv-x="693" 
d="M392 -12q-186 0 -279.5 92.5t-93.5 264.5q0 75 21.5 135.5t58 102t88 69.5t110 40.5t124.5 12.5q114 0 191 -25l11 -231h-19q-49 103 -84 154q-30 44 -55.5 58.5t-62.5 14.5q-77 0 -111.5 -78t-34.5 -240q0 -193 25.5 -267t98.5 -74q34 0 54 18v162q0 50 -7 61.5
t-38 19.5l-27 7v17h334v-17l-21 -6q-19 -5 -23.5 -17.5t-4.5 -64.5v-167q-43 -18 -115.5 -30t-139.5 -12zM382 723q-42 0 -69.5 24.5t-27.5 64.5t28 64.5t69 24.5q42 0 69.5 -24.5t27.5 -64.5t-27.5 -64.5t-69.5 -24.5z" />
    <glyph glyph-name="gdotaccent" unicode="&#x121;" horiz-adv-x="536" 
d="M215 -204q-231 0 -231 106q0 37 34 62t98 32v2q-100 25 -100 110q0 41 24 73.5t57 52.5v2q-82 43 -82 128q0 81 63.5 128t163.5 47q76 0 136 -30q60 58 117 58q30 0 48.5 -15.5t18.5 -45.5q0 -24 -13 -40t-40 -16q-23 0 -32.5 9t-17.5 30q-14 40 -63 6v-2q73 -49 73 -114
q0 -82 -63.5 -128.5t-163.5 -46.5q-72 0 -125 21q-15 -20 -15 -42q0 -27 43 -27h204q175 0 175 -139q0 -103 -86 -162t-223 -59zM238 -175q168 0 168 96q0 37 -22.5 53t-71.5 16h-174q-18 -20 -18 -72q0 -93 118 -93zM242 232q30 0 39.5 26t9.5 112q0 87 -10.5 114t-38.5 27
q-30 0 -39.5 -26t-9.5 -112t10 -113.5t39 -27.5zM149 654q0 40 28 64.5t69 24.5q42 0 69.5 -24.5t27.5 -64.5t-27.5 -64.5t-69.5 -24.5t-69.5 24.5t-27.5 64.5z" />
    <glyph glyph-name="Gcommaaccent" unicode="&#x122;" horiz-adv-x="693" 
d="M392 -12q-186 0 -279.5 92.5t-93.5 264.5q0 75 21.5 135.5t58 102t88 69.5t110 40.5t124.5 12.5q114 0 191 -25l11 -231h-19q-49 103 -84 154q-30 44 -55.5 58.5t-62.5 14.5q-77 0 -111.5 -78t-34.5 -240q0 -193 25.5 -267t98.5 -74q34 0 54 18v162q0 50 -7 61.5
t-38 19.5l-27 7v17h334v-17l-21 -6q-19 -5 -23.5 -17.5t-4.5 -64.5v-167q-43 -18 -115.5 -30t-139.5 -12zM272 -253l-2 11q102 26 112 95q-15 -15 -41 -15q-27 0 -44 16.5t-17 42.5t22.5 45.5t58.5 19.5q38 0 64 -24.5t26 -60.5q0 -57 -47 -91t-132 -39z" />
    <glyph glyph-name="gcommaaccent" unicode="&#x123;" horiz-adv-x="536" 
d="M215 -204q-231 0 -231 106q0 37 34 62t98 32v2q-100 25 -100 110q0 41 24 73.5t57 52.5v2q-82 43 -82 128q0 81 63.5 128t163.5 47q76 0 136 -30q60 58 117 58q30 0 48.5 -15.5t18.5 -45.5q0 -24 -13 -40t-40 -16q-23 0 -32.5 9t-17.5 30q-14 40 -63 6v-2q73 -49 73 -114
q0 -82 -63.5 -128.5t-163.5 -46.5q-72 0 -125 21q-15 -20 -15 -42q0 -27 43 -27h204q175 0 175 -139q0 -103 -86 -162t-223 -59zM238 -175q168 0 168 96q0 37 -22.5 53t-71.5 16h-174q-18 -20 -18 -72q0 -93 118 -93zM242 232q30 0 39.5 26t9.5 112q0 87 -10.5 114t-38.5 27
q-30 0 -39.5 -26t-9.5 -112t10 -113.5t39 -27.5zM346 774l2 -11q-102 -26 -112 -95q15 15 41 15q27 0 44 -16.5t17 -42.5t-22.5 -45.5t-58.5 -19.5q-38 0 -64 24.5t-26 60.5q0 57 47 91t132 39z" />
    <glyph glyph-name="Hcircumflex" unicode="&#x124;" horiz-adv-x="785" 
d="M5 0v17l27 7q29 8 36.5 20t7.5 61v483q0 49 -7.5 61t-36.5 20l-27 7v17h367v-17l-24 -7q-22 -6 -29.5 -11.5t-11 -20t-3.5 -49.5v-215h177v215q0 35 -3.5 49.5t-11 20t-29.5 11.5l-24 7v17h367v-17l-27 -7q-29 -8 -36.5 -20t-7.5 -61v-483q0 -49 7.5 -61t36.5 -20l27 -7
v-17h-367v17l24 7q30 9 37 20.5t7 60.5v232h-177v-232q0 -49 7 -60.5t37 -20.5l24 -7v-17h-367zM231 723l-6 10l137 148h62l137 -148l-6 -10l-162 44z" />
    <glyph glyph-name="hcircumflex" unicode="&#x125;" horiz-adv-x="639" 
d="M450 539q59 0 94 -34.5t35 -99.5v-323q0 -35 6.5 -43.5t36.5 -16.5l18 -5v-17h-309v17l15 4q26 7 31 15t5 46v285q0 39 -15 55.5t-44 16.5q-41 0 -66 -6v-351q0 -38 5 -46t31 -15l15 -4v-17h-309v17l18 5q30 8 36 16.5t6 43.5v547q0 41 -4.5 52.5t-27.5 24.5l-33 15v13
l258 23l9 -6q-4 -54 -4 -121v-165h3q99 74 190 74zM-7 785l-6 10l137 148h62l137 -148l-6 -10l-162 44z" />
    <glyph glyph-name="Hbar" unicode="&#x126;" horiz-adv-x="785" 
d="M9 498v31h67v59q0 49 -7.5 61t-36.5 20l-27 7v17h367v-17l-24 -7q-22 -6 -29.5 -11.5t-11 -20t-3.5 -49.5v-59h177v59q0 35 -3.5 49.5t-11 20t-29.5 11.5l-24 7v17h367v-17l-27 -7q-29 -8 -36.5 -20t-7.5 -61v-59h78v-31h-78v-393q0 -49 7.5 -61t36.5 -20l27 -7v-17h-367
v17l24 7q30 9 37 20.5t7 60.5v232h-177v-232q0 -49 7 -60.5t37 -20.5l24 -7v-17h-367v17l27 7q29 8 36.5 20t7.5 61v393h-67zM304 373h177v125h-177v-125z" />
    <glyph glyph-name="hbar" unicode="&#x127;" horiz-adv-x="639" 
d="M-8 596v36h67q0 39 -5 50t-27 24l-33 15v13l258 23l9 -6q-4 -53 -4 -119h143v-36h-143v-131h3q99 74 190 74q59 0 94 -34.5t35 -99.5v-323q0 -35 6.5 -43.5t36.5 -16.5l18 -5v-17h-309v17l15 4q26 7 31 15t5 46v285q0 39 -15 55.5t-44 16.5q-41 0 -66 -6v-351
q0 -38 5 -46t31 -15l15 -4v-17h-309v17l18 5q30 8 36 16.5t6 43.5v514h-67z" />
    <glyph glyph-name="Itilde" unicode="&#x128;" horiz-adv-x="386" 
d="M5 0v17l30 7q30 7 37 19t7 62v483q0 50 -7 62t-37 19l-30 7v17h376v-17l-30 -7q-30 -7 -37 -19t-7 -62v-483q0 -50 7 -62t37 -19l30 -7v-17h-376zM266 742q-20 0 -86.5 9t-88.5 9q-20 0 -32.5 -9.5t-27.5 -33.5l-14 8q25 76 48 110.5t59 34.5q21 0 87 -9.5t88 -9.5
q33 0 60 44l14 -8q-25 -78 -46.5 -111.5t-60.5 -33.5z" />
    <glyph glyph-name="itilde" unicode="&#x129;" horiz-adv-x="316" 
d="M-1 0v17l18 5q30 8 36 16.5t6 43.5v329q0 33 -5 43t-29 27l-32 23v9l259 26l8 -6q-4 -65 -4 -128v-323q0 -35 6 -43.5t36 -16.5l18 -5v-17h-317zM4 569l-14 8q25 76 48 110.5t59 34.5q21 0 77 -9.5t78 -9.5q33 0 60 44l14 -8q-25 -78 -46.5 -111.5t-60.5 -33.5
q-20 0 -76.5 9t-78.5 9q-20 0 -32.5 -9.5t-27.5 -33.5z" />
    <glyph glyph-name="Imacron" unicode="&#x12a;" horiz-adv-x="386" 
d="M5 0v17l30 7q30 7 37 19t7 62v483q0 50 -7 62t-37 19l-30 7v17h376v-17l-30 -7q-30 -7 -37 -19t-7 -62v-483q0 -50 7 -62t37 -19l30 -7v-17h-376zM50 755v69h288v-69h-288z" />
    <glyph glyph-name="imacron" unicode="&#x12b;" horiz-adv-x="316" 
d="M-1 0v17l18 5q30 8 36 16.5t6 43.5v329q0 33 -5 43t-29 27l-32 23v9l259 26l8 -6q-4 -65 -4 -128v-323q0 -35 6 -43.5t36 -16.5l18 -5v-17h-317zM7 614v69h288v-69h-288z" />
    <glyph glyph-name="Ibreve" unicode="&#x12c;" horiz-adv-x="386" 
d="M5 0v17l30 7q30 7 37 19t7 62v483q0 50 -7 62t-37 19l-30 7v17h376v-17l-30 -7q-30 -7 -37 -19t-7 -62v-483q0 -50 7 -62t37 -19l30 -7v-17h-376zM192 725q-118 0 -145 159l11 4q23 -33 52.5 -47t82.5 -14q51 0 80.5 14t54.5 47l11 -4q-10 -75 -47 -117t-100 -42z" />
    <glyph glyph-name="ibreve" unicode="&#x12d;" horiz-adv-x="316" 
d="M-1 0v17l18 5q30 8 36 16.5t6 43.5v329q0 33 -5 43t-29 27l-32 23v9l259 26l8 -6q-4 -65 -4 -128v-323q0 -35 6 -43.5t36 -16.5l18 -5v-17h-317zM157 574q-54 0 -87 43.5t-46 115.5l11 4q18 -32 46.5 -45t76.5 -13q89 0 123 58l11 -4q-10 -71 -44.5 -115t-90.5 -44z" />
    <glyph glyph-name="Iogonek" unicode="&#x12e;" horiz-adv-x="386" 
d="M381 0h-94q-41 -49 -41 -112q0 -43 40 -43q16 0 29 3v-15q-36 -38 -91 -38q-51 0 -78.5 21t-27.5 57q0 79 149 127h-262v17l30 7q30 7 37 19t7 62v483q0 50 -7 62t-37 19l-30 7v17h376v-17l-30 -7q-30 -7 -37 -19t-7 -62v-483q0 -50 7 -62t37 -19l30 -7v-17z" />
    <glyph glyph-name="iogonek" unicode="&#x12f;" horiz-adv-x="316" 
d="M56 665q0 40 28 64.5t69 24.5q42 0 69.5 -24.5t27.5 -64.5t-27.5 -64.5t-69.5 -24.5t-69.5 24.5t-27.5 64.5zM208 0h-209v17l18 5q30 8 36 16.5t6 43.5v329q0 33 -5 43t-29 27l-32 23v9l259 26l8 -6q-4 -65 -4 -128v-323q0 -35 6 -43.5t36 -16.5l18 -5v-17h-88
q-41 -49 -41 -112q0 -43 40 -43q15 0 29 3v-15q-36 -38 -91 -38q-51 0 -78.5 21t-27.5 57q0 79 149 127z" />
    <glyph glyph-name="Idotaccent" unicode="&#x130;" horiz-adv-x="386" 
d="M5 0v17l30 7q30 7 37 19t7 62v483q0 50 -7 62t-37 19l-30 7v17h376v-17l-30 -7q-30 -7 -37 -19t-7 -62v-483q0 -50 7 -62t37 -19l30 -7v-17h-376zM193 723q-42 0 -69.5 24.5t-27.5 64.5t28 64.5t69 24.5q42 0 69.5 -24.5t27.5 -64.5t-27.5 -64.5t-69.5 -24.5z" />
    <glyph glyph-name="dotlessi" unicode="&#x131;" horiz-adv-x="316" 
d="M-1 0v17l18 5q30 8 36 16.5t6 43.5v329q0 33 -5 43t-29 27l-32 23v9l259 26l8 -6q-4 -65 -4 -128v-323q0 -35 6 -43.5t36 -16.5l18 -5v-17h-317z" />
    <glyph glyph-name="IJ" unicode="&#x132;" horiz-adv-x="919" 
d="M5 0v17l30 7q30 7 37 19t7 62v483q0 50 -7 62t-37 19l-30 7v17h374v-17l-28 -7q-30 -7 -37 -19t-7 -62v-483q0 -50 7 -62t37 -19l30 -7v-17h-376zM561 -10q-91 0 -141 34t-50 87q0 42 24 64t67 22q50 0 73 -30t28 -120q1 -24 20 -24q33 0 33 69v496q0 50 -6.5 62.5
t-35.5 18.5l-29 7v17h370v-17l-28 -7q-30 -8 -36.5 -19.5t-6.5 -61.5v-333q0 -119 -76 -192t-206 -73z" />
    <glyph glyph-name="ij" unicode="&#x133;" horiz-adv-x="617" 
d="M-1 0v17l18 5q30 8 36 16.5t6 43.5v329q0 33 -5 43t-29 27l-32 23v9l259 26l8 -6q-4 -65 -4 -128v-323q0 -35 6 -43.5t36 -16.5l18 -5v-17h-317zM56 665q0 40 28 64.5t69 24.5q42 0 69.5 -24.5t27.5 -64.5t-27.5 -64.5t-69.5 -24.5t-69.5 24.5t-27.5 64.5zM572 405v-382
q0 -100 -67.5 -163.5t-170.5 -63.5q-79 0 -123 29.5t-44 79.5q0 35 21.5 54t59.5 19q43 0 62 -25t24 -98q2 -18 4 -23t10 -5q27 0 27 68v516q0 33 -5 43t-29 27l-32 23v9l259 26l8 -6q-4 -65 -4 -128zM372 665q0 40 28 64.5t69 24.5q42 0 69.5 -24.5t27.5 -64.5t-27.5 -64.5
t-69.5 -24.5t-69.5 24.5t-27.5 64.5z" />
    <glyph glyph-name="Jcircumflex" unicode="&#x134;" horiz-adv-x="541" 
d="M183 -10q-91 0 -141 34t-50 87q0 42 24 64t67 22q50 0 73 -30t28 -120q1 -24 20 -24q33 0 33 69v496q0 50 -6.5 62.5t-35.5 18.5l-29 7v17h370v-17l-28 -7q-30 -8 -36.5 -19.5t-6.5 -61.5v-333q0 -119 -76 -192t-206 -73zM188 723l-6 10l137 148h62l137 -148l-6 -10
l-162 44z" />
    <glyph glyph-name="jcircumflex" unicode="&#x135;" horiz-adv-x="301" 
d="M256 405v-382q0 -100 -67.5 -163.5t-170.5 -63.5q-79 0 -123 29.5t-44 79.5q0 35 21.5 54t59.5 19q43 0 62 -25t24 -98q2 -18 4 -23t10 -5q27 0 27 68v516q0 33 -5 43t-29 27l-32 23v9l259 26l8 -6q-4 -65 -4 -128zM122 742h58l123 -161l-5 -9l-147 56l-147 -56l-5 9z
" />
    <glyph glyph-name="Kcommaaccent" unicode="&#x136;" horiz-adv-x="755" 
d="M492 0q-102 144 -172 320v20l174 203q39 47 39 82q0 31 -40 43l-27 8v17h253v-17l-25 -6q-28 -7 -54 -26t-67 -65l-100 -111q122 -264 239 -421q16 -22 35 -26l15 -4v-17h-270zM5 0v17l27 7q29 8 36.5 20t7.5 61v483q0 49 -7.5 61t-36.5 20l-27 7v17h367v-17l-24 -7
q-22 -6 -29.5 -11.5t-11 -20t-3.5 -49.5v-483q0 -49 7 -60.5t37 -20.5l24 -7v-17h-367zM276 -253l-2 11q102 26 112 95q-15 -15 -41 -15q-27 0 -44 16.5t-17 42.5t22.5 45.5t58.5 19.5q38 0 64 -24.5t26 -60.5q0 -57 -47 -91t-132 -39z" />
    <glyph glyph-name="kcommaaccent" unicode="&#x137;" horiz-adv-x="620" 
d="M396 0q-90 128 -129 242v12l107 118q51 56 51 87q0 33 -50 46l-15 4v17h239v-17l-9 -2q-45 -10 -93 -57l-90 -86q34 -76 89 -172t88 -142q20 -27 38 -31l8 -2v-17h-234zM257 630v-548q0 -37 4.5 -45t29.5 -16l13 -4v-17h-305v17l18 5q30 8 36 16.5t6 43.5v547
q0 41 -4.5 52.5t-27.5 24.5l-33 15v13l258 23l9 -6q-4 -54 -4 -121zM227 -253l-2 11q102 26 112 95q-15 -15 -41 -15q-27 0 -44 16.5t-17 42.5t22.5 45.5t58.5 19.5q38 0 64 -24.5t26 -60.5q0 -57 -47 -91t-132 -39z" />
    <glyph glyph-name="Lacute" unicode="&#x139;" horiz-adv-x="600" 
d="M5 0v17l27 7q29 8 36.5 20t7.5 61v483q0 49 -7.5 61t-36.5 20l-27 7v17h376v-17l-33 -7q-30 -6 -37 -18t-7 -63v-490q0 -41 12 -53t58 -12q55 0 74.5 11t44.5 53q33 54 83 182h20l-20 -279h-571zM82 723l-4 10l122 126q28 30 61 30q30 0 50.5 -22t20.5 -53
q0 -27 -16.5 -44t-45.5 -21z" />
    <glyph glyph-name="lacute" unicode="&#x13a;" horiz-adv-x="322" 
d="M259 630v-548q0 -34 7.5 -42.5t38.5 -17.5l18 -5v-17h-324v17l18 5q32 9 38.5 17.5t6.5 42.5v547q0 40 -5.5 52t-29.5 25l-33 15v13l260 23l9 -6q-4 -54 -4 -121zM41 785l-4 10l122 126q29 30 61 30q30 0 50.5 -22t20.5 -53q0 -27 -16.5 -44t-45.5 -21z" />
    <glyph glyph-name="Lcommaaccent" unicode="&#x13b;" horiz-adv-x="600" 
d="M5 0v17l27 7q29 8 36.5 20t7.5 61v483q0 49 -7.5 61t-36.5 20l-27 7v17h376v-17l-33 -7q-30 -6 -37 -18t-7 -63v-490q0 -41 12 -53t58 -12q55 0 74.5 11t44.5 53q33 54 83 182h20l-20 -279h-571zM216 -253l-2 11q102 26 112 95q-15 -15 -41 -15q-27 0 -44 16.5t-17 42.5
t22.5 45.5t58.5 19.5q38 0 64 -24.5t26 -60.5q0 -57 -47 -91t-132 -39z" />
    <glyph glyph-name="lcommaaccent" unicode="&#x13c;" horiz-adv-x="322" 
d="M259 630v-548q0 -34 7.5 -42.5t38.5 -17.5l18 -5v-17h-324v17l18 5q32 9 38.5 17.5t6.5 42.5v547q0 40 -5.5 52t-29.5 25l-33 15v13l260 23l9 -6q-4 -54 -4 -121zM65 -253l-2 11q102 26 112 95q-15 -15 -41 -15q-27 0 -44 16.5t-17 42.5t22.5 45.5t58.5 19.5
q38 0 64 -24.5t26 -60.5q0 -57 -47 -91t-132 -39z" />
    <glyph glyph-name="Lcaron" unicode="&#x13d;" horiz-adv-x="600" 
d="M5 0v17l27 7q29 8 36.5 20t7.5 61v483q0 49 -7.5 61t-36.5 20l-27 7v17h376v-17l-33 -7q-30 -6 -37 -18t-7 -63v-490q0 -41 12 -53t58 -12q55 0 74.5 11t44.5 53q33 54 83 182h20l-20 -279h-571zM418 506l-11 4l4 143q0 50 49 50q25 0 43.5 -14.5t20.5 -34.5
q0 -24 -17 -43z" />
    <glyph glyph-name="lcaron" unicode="&#x13e;" horiz-adv-x="322" 
d="M259 630v-548q0 -34 7.5 -42.5t38.5 -17.5l18 -5v-17h-324v17l18 5q32 9 38.5 17.5t6.5 42.5v547q0 40 -5.5 52t-29.5 25l-33 15v13l260 23l9 -6q-4 -54 -4 -121zM301 564l-11 4l4 143q0 50 49 50q25 0 43.5 -14.5t20.5 -34.5q0 -24 -17 -43z" />
    <glyph glyph-name="Ldot" unicode="&#x13f;" horiz-adv-x="600" 
d="M5 0v17l27 7q29 8 36.5 20t7.5 61v483q0 49 -7.5 61t-36.5 20l-27 7v17h376v-17l-33 -7q-30 -6 -37 -18t-7 -63v-490q0 -41 12 -53t58 -12q56 0 79 11.5t51 52.5q33 48 69 134h20l-17 -231h-571zM497 288q-40 0 -68 27.5t-28 67.5q0 41 28 68t68 27q39 0 67.5 -27
t28.5 -68q0 -39 -29 -67t-67 -28z" />
    <glyph glyph-name="ldot" unicode="&#x140;" horiz-adv-x="481" 
d="M259 630v-548q0 -34 7.5 -42.5t38.5 -17.5l18 -5v-17h-324v17l18 5q32 9 38.5 17.5t6.5 42.5v547q0 40 -5.5 52t-29.5 25l-33 15v13l260 23l9 -6q-4 -54 -4 -121zM289 365q0 41 28 68t68 27q39 0 67.5 -27t28.5 -68q0 -39 -29 -67t-67 -28q-40 0 -68 27.5t-28 67.5z" />
    <glyph glyph-name="Lslash" unicode="&#x141;" horiz-adv-x="600" 
d="M5 235v33l71 23v297q0 49 -7.5 61t-36.5 20l-27 7v17h376v-17l-33 -7q-30 -6 -37 -18t-7 -63v-223l185 61v-33l-185 -61v-232q0 -41 12 -53t58 -12q56 0 75 10t44 52q33 54 83 182h20l-20 -279h-571v17l27 7q29 8 36.5 20t7.5 61v153z" />
    <glyph glyph-name="lslash" unicode="&#x142;" horiz-adv-x="322" 
d="M260 630v-136l62 33v-39l-62 -33v-373q0 -34 7.5 -42.5t38.5 -17.5l18 -5v-17h-325v17l18 5q32 9 38.5 17.5t6.5 42.5v270l-62 -32v39l62 32v238q0 40 -5.5 52t-29.5 25l-33 15v13l261 23l9 -6q-4 -54 -4 -121z" />
    <glyph glyph-name="Nacute" unicode="&#x143;" horiz-adv-x="676" 
d="M536 0l-417 571h-4v-439q0 -64 8.5 -82t43.5 -26l31 -7v-17h-193v17l27 7q28 8 36 25.5t8 75.5v463q0 41 -9 57.5t-35 23.5l-27 7v17h294l257 -340h4v208q0 64 -8 81t-43 26l-33 8v17h195v-17l-28 -7q-28 -7 -36 -24.5t-8 -76.5v-568h-63zM252 723l-4 10l122 126
q28 30 61 30q30 0 50.5 -22t20.5 -53q0 -27 -16.5 -44t-45.5 -21z" />
    <glyph glyph-name="nacute" unicode="&#x144;" horiz-adv-x="639" 
d="M-1 0v17l18 5q30 8 36 16.5t6 43.5v328q0 33 -4.5 43.5t-27.5 26.5l-32 23v10l249 26l8 -6v-76h3q105 82 194 82q59 0 94 -34.5t35 -99.5v-323q0 -35 6.5 -43.5t36.5 -16.5l18 -5v-17h-309v17l15 4q26 7 31 15t5 46v285q0 39 -14.5 54t-44.5 15q-40 0 -66 -6v-348
q0 -38 5 -46t31 -15l15 -4v-17h-308zM226 576l-4 10l119 129q30 31 65 31q28 0 48 -22.5t20 -53.5q0 -24 -14 -42t-42 -22z" />
    <glyph glyph-name="Ncommaaccent" unicode="&#x145;" horiz-adv-x="676" 
d="M536 0l-417 571h-4v-439q0 -64 8.5 -82t43.5 -26l31 -7v-17h-193v17l27 7q28 8 36 25.5t8 75.5v463q0 41 -9 57.5t-35 23.5l-27 7v17h294l257 -340h4v208q0 64 -8 81t-43 26l-33 8v17h195v-17l-28 -7q-28 -7 -36 -24.5t-8 -76.5v-568h-63zM237 -253l-2 11q102 26 112 95
q-15 -15 -41 -15q-27 0 -44 16.5t-17 42.5t22.5 45.5t58.5 19.5q38 0 64 -24.5t26 -60.5q0 -57 -47 -91t-132 -39z" />
    <glyph glyph-name="ncommaaccent" unicode="&#x146;" horiz-adv-x="639" 
d="M-1 0v17l18 5q30 8 36 16.5t6 43.5v328q0 33 -4.5 43.5t-27.5 26.5l-32 23v10l249 26l8 -6v-76h3q105 82 194 82q59 0 94 -34.5t35 -99.5v-323q0 -35 6.5 -43.5t36.5 -16.5l18 -5v-17h-309v17l15 4q26 7 31 15t5 46v285q0 39 -14.5 54t-44.5 15q-40 0 -66 -6v-348
q0 -38 5 -46t31 -15l15 -4v-17h-308zM221 -253l-2 11q102 26 112 95q-15 -15 -41 -15q-27 0 -44 16.5t-17 42.5t22.5 45.5t58.5 19.5q38 0 64 -24.5t26 -60.5q0 -57 -47 -91t-132 -39z" />
    <glyph glyph-name="Ncaron" unicode="&#x147;" horiz-adv-x="676" 
d="M536 0l-417 571h-4v-439q0 -64 8.5 -82t43.5 -26l31 -7v-17h-193v17l27 7q28 8 36 25.5t8 75.5v463q0 41 -9 57.5t-35 23.5l-27 7v17h294l257 -340h4v208q0 64 -8 81t-43 26l-33 8v17h195v-17l-28 -7q-28 -7 -36 -24.5t-8 -76.5v-568h-63zM177 879l6 10l162 -44l162 44
l6 -10l-137 -148h-62z" />
    <glyph glyph-name="ncaron" unicode="&#x148;" horiz-adv-x="639" 
d="M-1 0v17l18 5q30 8 36 16.5t6 43.5v328q0 33 -4.5 43.5t-27.5 26.5l-32 23v10l249 26l8 -6v-76h3q105 82 194 82q59 0 94 -34.5t35 -99.5v-323q0 -35 6.5 -43.5t36.5 -16.5l18 -5v-17h-309v17l15 4q26 7 31 15t5 46v285q0 39 -14.5 54t-44.5 15q-40 0 -66 -6v-348
q0 -38 5 -46t31 -15l15 -4v-17h-308zM348 580h-58l-123 161l5 9l147 -56l147 56l5 -9z" />
    <glyph glyph-name="napostrophe" unicode="&#x149;" horiz-adv-x="698" 
d="M-110 439l-3 13q114 39 109 129q-14 -22 -41 -22q-28 0 -46.5 18t-18.5 51q0 35 24.5 56t60.5 21q40 0 68.5 -27.5t28.5 -76.5q0 -132 -182 -162zM59 0v17l18 5q30 8 36 16.5t6 43.5v328q0 33 -4.5 43.5t-27.5 26.5l-32 23v10l249 26l8 -6v-76h3q105 82 194 82
q59 0 94 -34.5t35 -99.5v-323q0 -35 6.5 -43.5t36.5 -16.5l18 -5v-17h-309v17l15 4q26 7 31 15t5 46v285q0 39 -14.5 54t-44.5 15q-40 0 -66 -6v-348q0 -38 5 -46t31 -15l15 -4v-17h-308z" />
    <glyph glyph-name="Eng" unicode="&#x14a;" horiz-adv-x="676" 
d="M556 -28l-437 599h-4v-439q0 -64 8.5 -82t43.5 -26l31 -7v-17h-193v17l27 7q28 8 36 25.5t8 75.5v463q0 41 -9 57.5t-35 23.5l-27 7v17h294l257 -340h4v208q0 64 -8 81t-43 26l-33 8v17h195v-17l-28 -7q-28 -7 -36 -24.5t-8 -76.5v-577q0 -181 -155 -181
q-70 0 -104.5 29.5t-34.5 74.5q0 28 20 46.5t52 18.5q37 0 55 -20.5t30 -77.5q4 -17 9 -24t17 -7q25 0 46 30.5t22 91.5z" />
    <glyph glyph-name="eng" unicode="&#x14b;" horiz-adv-x="619" 
d="M381 367q0 39 -14.5 54t-44.5 15q-40 0 -66 -6v-348q0 -38 5 -46t31 -15l15 -4v-17h-308v17l18 5q30 8 36 16.5t6 43.5v328q0 33 -4.5 43.5t-27.5 26.5l-32 23v10l249 26l8 -6v-76h3q105 82 194 82q59 0 94 -34.5t35 -99.5v-372q0 -104 -68.5 -170.5t-169.5 -66.5
q-75 0 -115.5 26t-40.5 71q0 64 71 64q37 0 55 -23.5t22 -86.5q1 -15 3.5 -19t8.5 -4q14 0 25.5 17t11.5 54v472z" />
    <glyph glyph-name="Omacron" unicode="&#x14c;" horiz-adv-x="744" 
d="M369 -12q-67 0 -127.5 20.5t-111.5 61.5t-81 110t-30 158q0 77 22 140t57.5 104.5t82.5 69.5t95.5 40.5t98.5 12.5q68 0 128 -18.5t111 -58t81 -109.5t30 -164q0 -96 -32.5 -169.5t-86.5 -115t-114 -62t-123 -20.5zM373 17q41 0 65 26t36.5 95.5t12.5 192.5
q0 138 -13 214t-37 103.5t-66 27.5q-59 0 -87 -68t-28 -246q0 -137 12.5 -213t37 -104t67.5 -28zM228 755v69h288v-69h-288z" />
    <glyph glyph-name="omacron" unicode="&#x14d;" horiz-adv-x="596" 
d="M298 -12q-120 0 -202.5 70.5t-82.5 202.5q0 73 24.5 128.5t66 87t90.5 47t104 15.5q119 0 202 -70.5t83 -203.5q0 -73 -24 -128t-65.5 -86.5t-90.5 -47t-105 -15.5zM300 17q29 0 44.5 14t25 67.5t9.5 158.5q0 109 -11.5 166.5t-27.5 72t-45 14.5q-26 0 -41.5 -16t-26 -69
t-10.5 -150q0 -113 9.5 -169.5t25.5 -72.5t48 -16zM154 614v69h288v-69h-288z" />
    <glyph glyph-name="Obreve" unicode="&#x14e;" horiz-adv-x="744" 
d="M369 -12q-67 0 -127.5 20.5t-111.5 61.5t-81 110t-30 158q0 77 22 140t57.5 104.5t82.5 69.5t95.5 40.5t98.5 12.5q68 0 128 -18.5t111 -58t81 -109.5t30 -164q0 -96 -32.5 -169.5t-86.5 -115t-114 -62t-123 -20.5zM373 17q41 0 65 26t36.5 95.5t12.5 192.5
q0 138 -13 214t-37 103.5t-66 27.5q-59 0 -87 -68t-28 -246q0 -137 12.5 -213t37 -104t67.5 -28zM369 725q-119 0 -145 159l11 4q23 -33 52.5 -47t82.5 -14q51 0 80.5 14t54.5 47l11 -4q-10 -75 -47 -117t-100 -42z" />
    <glyph glyph-name="obreve" unicode="&#x14f;" horiz-adv-x="596" 
d="M298 -12q-120 0 -202.5 70.5t-82.5 202.5q0 73 24.5 128.5t66 87t90.5 47t104 15.5q119 0 202 -70.5t83 -203.5q0 -73 -24 -128t-65.5 -86.5t-90.5 -47t-105 -15.5zM300 17q29 0 44.5 14t25 67.5t9.5 158.5q0 109 -11.5 166.5t-27.5 72t-45 14.5q-26 0 -41.5 -16t-26 -69
t-10.5 -150q0 -113 9.5 -169.5t25.5 -72.5t48 -16zM297 574q-54 0 -87 43.5t-46 115.5l11 4q18 -32 46.5 -45t76.5 -13q89 0 123 58l11 -4q-10 -71 -44.5 -115t-90.5 -44z" />
    <glyph glyph-name="Ohungarumlaut" unicode="&#x150;" horiz-adv-x="744" 
d="M369 -12q-67 0 -127.5 20.5t-111.5 61.5t-81 110t-30 158q0 77 22 140t57.5 104.5t82.5 69.5t95.5 40.5t98.5 12.5q68 0 128 -18.5t111 -58t81 -109.5t30 -164q0 -96 -32.5 -169.5t-86.5 -115t-114 -62t-123 -20.5zM373 17q41 0 65 26t36.5 95.5t12.5 192.5
q0 138 -13 214t-37 103.5t-66 27.5q-59 0 -87 -68t-28 -246q0 -137 12.5 -213t37 -104t67.5 -28zM275 723l-10 8l47 122q19 51 56 51q24 0 44.5 -19t20.5 -44q0 -38 -53 -65zM448 723l-10 8l47 122q19 51 56 51q24 0 44.5 -19t20.5 -44q0 -38 -53 -65z" />
    <glyph glyph-name="ohungarumlaut" unicode="&#x151;" horiz-adv-x="596" 
d="M298 -12q-120 0 -202.5 70.5t-82.5 202.5q0 73 24.5 128.5t66 87t90.5 47t104 15.5q119 0 202 -70.5t83 -203.5q0 -73 -24 -128t-65.5 -86.5t-90.5 -47t-105 -15.5zM300 17q29 0 44.5 14t25 67.5t9.5 158.5q0 109 -11.5 166.5t-27.5 72t-45 14.5q-26 0 -41.5 -16t-26 -69
t-10.5 -150q0 -113 9.5 -169.5t25.5 -72.5t48 -16zM169 566l-10 8l53 132q20 49 58 49q24 0 44.5 -19t20.5 -44q0 -41 -51 -67zM342 566l-10 8l53 132q20 49 58 49q24 0 44.5 -19t20.5 -44q0 -41 -51 -67z" />
    <glyph glyph-name="OE" unicode="&#x152;" horiz-adv-x="997" 
d="M985 266l-14 -266h-592q-78 0 -141.5 18t-113.5 56.5t-77.5 105.5t-27.5 158q0 92 30 162.5t82.5 111.5t116.5 61t138 20h565l9 -227h-19q-35 82 -67 133q-22 35 -46 47.5t-68 12.5q-52 0 -74 -6v-278h27q47 0 63 6.5t25 23.5q20 39 33 92h18v-281h-18q-12 55 -33 96
q-10 18 -26 24.5t-63 6.5h-26v-242q0 -42 13 -54.5t64 -12.5q55 0 76 12.5t47 54.5q41 68 79 165h20zM387 33q43 0 57 21.5t14 67.5v455q0 45 -17 64.5t-61 19.5q-124 0 -124 -299q0 -184 27.5 -256.5t103.5 -72.5z" />
    <glyph glyph-name="oe" unicode="&#x153;" horiz-adv-x="909" 
d="M298 -12q-120 0 -202.5 70.5t-82.5 202.5q0 73 24.5 128.5t66 87t90.5 47t104 15.5q117 0 186 -75q70 75 170 75q237 0 244 -244h-325q2 -124 42 -168t126 -44q68 0 136 35v-19q-31 -44 -90 -77.5t-137 -33.5q-120 0 -180 66q-72 -66 -172 -66zM300 17q29 0 44.5 14
t25 67.5t9.5 158.5q0 109 -11.5 166.5t-27.5 72t-45 14.5q-26 0 -41.5 -16t-26 -69t-10.5 -150q0 -113 9.5 -169.5t25.5 -72.5t48 -16zM646 511q-34 0 -53 -41t-20 -148l134 10q0 106 -12.5 142.5t-48.5 36.5z" />
    <glyph glyph-name="Racute" unicode="&#x154;" horiz-adv-x="735" 
d="M5 0v17l27 7q29 8 36.5 20t7.5 61v483q0 49 -7.5 61t-36.5 20l-27 7v17h369q154 0 224.5 -44t70.5 -138q0 -67 -29.5 -105t-94.5 -59v-3q29 -68 73.5 -155t80.5 -137q16 -24 40 -30l17 -5v-17h-284q-73 110 -143 305q-12 0 -23 1v-201q0 -50 6 -62t32 -19l27 -7v-17h-366
zM341 337q52 0 75.5 33t23.5 124q0 89 -17.5 126.5t-68.5 37.5q-28 0 -48 -4v-314q12 -3 35 -3zM253 723l-4 10l122 126q29 30 61 30q30 0 50.5 -22t20.5 -53q0 -27 -16.5 -44t-45.5 -21z" />
    <glyph glyph-name="racute" unicode="&#x155;" horiz-adv-x="485" 
d="M-1 0v17l18 5q30 8 36 16.5t6 43.5v329q0 33 -4.5 43t-27.5 26l-32 23v10l249 26l8 -6v-80h3q68 85 148 85q37 0 59.5 -21.5t22.5 -62.5q0 -43 -23 -67t-61 -24q-33 0 -50.5 13.5t-29.5 39.5q-9 20 -24 20q-25 0 -41 -14v-340q0 -37 6.5 -46t35.5 -14l22 -4v-18h-321z
M146 576l-4 10l119 129q30 31 65 31q28 0 48 -22.5t20 -53.5q0 -24 -14 -42t-42 -22z" />
    <glyph glyph-name="Rcommaaccent" unicode="&#x156;" horiz-adv-x="735" 
d="M5 0v17l27 7q29 8 36.5 20t7.5 61v483q0 49 -7.5 61t-36.5 20l-27 7v17h369q154 0 224.5 -44t70.5 -138q0 -67 -29.5 -105t-94.5 -59v-3q29 -68 73.5 -155t80.5 -137q16 -24 40 -30l17 -5v-17h-284q-73 110 -143 305q-12 0 -23 1v-201q0 -50 6 -62t32 -19l27 -7v-17h-366
zM341 337q52 0 75.5 33t23.5 124q0 89 -17.5 126.5t-68.5 37.5q-28 0 -48 -4v-314q12 -3 35 -3zM256 -253l-2 11q102 26 112 95q-15 -15 -41 -15q-27 0 -44 16.5t-17 42.5t22.5 45.5t58.5 19.5q38 0 64 -24.5t26 -60.5q0 -57 -47 -91t-132 -39z" />
    <glyph glyph-name="rcommaaccent" unicode="&#x157;" horiz-adv-x="485" 
d="M-1 0v17l18 5q30 8 36 16.5t6 43.5v329q0 33 -4.5 43t-27.5 26l-32 23v10l249 26l8 -6v-80h3q68 85 148 85q37 0 59.5 -21.5t22.5 -62.5q0 -43 -23 -67t-61 -24q-33 0 -50.5 13.5t-29.5 39.5q-9 20 -24 20q-25 0 -41 -14v-340q0 -37 6.5 -46t35.5 -14l22 -4v-18h-321z
M60 -253l-2 11q102 26 112 95q-15 -15 -41 -15q-27 0 -44 16.5t-17 42.5t22.5 45.5t58.5 19.5q38 0 64 -24.5t26 -60.5q0 -57 -47 -91t-132 -39z" />
    <glyph glyph-name="Rcaron" unicode="&#x158;" horiz-adv-x="735" 
d="M5 0v17l27 7q29 8 36.5 20t7.5 61v483q0 49 -7.5 61t-36.5 20l-27 7v17h369q154 0 224.5 -44t70.5 -138q0 -67 -29.5 -105t-94.5 -59v-3q29 -68 73.5 -155t80.5 -137q16 -24 40 -30l17 -5v-17h-284q-73 110 -143 305q-12 0 -23 1v-201q0 -50 6 -62t32 -19l27 -7v-17h-366
zM341 337q52 0 75.5 33t23.5 124q0 89 -17.5 126.5t-68.5 37.5q-28 0 -48 -4v-314q12 -3 35 -3zM179 879l6 10l162 -44l162 44l6 -10l-137 -148h-62z" />
    <glyph glyph-name="rcaron" unicode="&#x159;" horiz-adv-x="485" 
d="M-1 0v17l18 5q30 8 36 16.5t6 43.5v329q0 33 -4.5 43t-27.5 26l-32 23v10l249 26l8 -6v-80h3q68 85 148 85q37 0 59.5 -21.5t22.5 -62.5q0 -43 -23 -67t-61 -24q-33 0 -50.5 13.5t-29.5 39.5q-9 20 -24 20q-25 0 -41 -14v-340q0 -37 6.5 -46t35.5 -14l22 -4v-18h-321z
M276 580h-58l-123 161l5 9l147 -56l147 56l5 -9z" />
    <glyph glyph-name="Sacute" unicode="&#x15a;" horiz-adv-x="527" 
d="M238 -12q-147 0 -211 31l-13 214h21q49 -101 88 -149q29 -36 57.5 -51.5t68.5 -15.5q47 0 73 27t26 74q0 49 -30 78.5t-110 56.5q-109 37 -151.5 87t-42.5 135q0 100 75 165t193 65q116 0 182 -31l10 -190h-21q-45 98 -85 141q-27 29 -49.5 40t-52.5 11q-45 0 -71 -24.5
t-26 -67.5q0 -41 28.5 -67.5t106.5 -54.5q119 -41 166.5 -90.5t47.5 -131.5q0 -104 -76.5 -178t-203.5 -74zM169 723l-4 10l122 126q29 30 61 30q30 0 50.5 -22t20.5 -53q0 -27 -16.5 -44t-45.5 -21z" />
    <glyph glyph-name="sacute" unicode="&#x15b;" horiz-adv-x="443" 
d="M191 -12q-95 0 -165 20l-6 173h19q41 -74 79 -119q20 -24 40 -34t51 -10q33 0 53.5 18t20.5 50q0 31 -23.5 49t-102.5 48q-71 26 -106 66t-35 103q0 79 58.5 133t170.5 54q91 0 142 -20l7 -147h-17q-48 73 -68 93q-24 24 -42 34t-46 10q-31 0 -50.5 -16t-19.5 -44
q0 -29 21.5 -47t85.5 -40q96 -34 134 -76.5t38 -105.5q0 -87 -62 -139.5t-177 -52.5zM110 576l-4 10l119 129q30 31 65 31q28 0 48 -22.5t20 -53.5q0 -24 -14 -42t-42 -22z" />
    <glyph glyph-name="Scircumflex" unicode="&#x15c;" horiz-adv-x="527" 
d="M238 -12q-147 0 -211 31l-13 214h21q49 -101 88 -149q29 -36 57.5 -51.5t68.5 -15.5q47 0 73 27t26 74q0 49 -30 78.5t-110 56.5q-109 37 -151.5 87t-42.5 135q0 100 75 165t193 65q116 0 182 -31l10 -190h-21q-45 98 -85 141q-27 29 -49.5 40t-52.5 11q-45 0 -71 -24.5
t-26 -67.5q0 -41 28.5 -67.5t106.5 -54.5q119 -41 166.5 -90.5t47.5 -131.5q0 -104 -76.5 -178t-203.5 -74zM102 723l-6 10l137 148h62l137 -148l-6 -10l-162 44z" />
    <glyph glyph-name="scircumflex" unicode="&#x15d;" horiz-adv-x="443" 
d="M191 -12q-95 0 -165 20l-6 173h19q41 -74 79 -119q20 -24 40 -34t51 -10q33 0 53.5 18t20.5 50q0 31 -23.5 49t-102.5 48q-71 26 -106 66t-35 103q0 79 58.5 133t170.5 54q91 0 142 -20l7 -147h-17q-48 73 -68 93q-24 24 -42 34t-46 10q-31 0 -50.5 -16t-19.5 -44
q0 -29 21.5 -47t85.5 -40q96 -34 134 -76.5t38 -105.5q0 -87 -62 -139.5t-177 -52.5zM193 742h58l123 -161l-5 -9l-147 56l-147 -56l-5 9z" />
    <glyph glyph-name="Scedilla" unicode="&#x15e;" horiz-adv-x="527" 
d="M152 -202v15q39 9 61 24.5t22 33.5q0 23 -37 24l-4 5l43 88q-146 0 -210 31l-13 214h21q49 -101 88 -149q29 -36 57.5 -51.5t68.5 -15.5q47 0 73 27t26 74q0 49 -30 78.5t-110 56.5q-109 37 -151.5 87t-42.5 135q0 100 75 165t193 65q116 0 182 -31l10 -190h-21
q-45 98 -85 141q-27 29 -49.5 40t-52.5 11q-45 0 -71 -24.5t-26 -67.5q0 -41 28.5 -67.5t106.5 -54.5q119 -41 166.5 -90.5t47.5 -131.5q0 -97 -67 -169t-180 -81l-22 -30q43 -4 64.5 -21t21.5 -43q0 -41 -54.5 -66t-128.5 -32z" />
    <glyph glyph-name="scedilla" unicode="&#x15f;" horiz-adv-x="443" 
d="M81 -202v15q39 9 61 24.5t22 33.5q0 23 -37 24l-4 5l43 88q-78 3 -140 20l-6 173h19q41 -74 79 -119q20 -24 40 -34t51 -10q33 0 53.5 18t20.5 50q0 31 -23.5 49t-102.5 48q-71 26 -106 66t-35 103q0 79 58.5 133t170.5 54q91 0 142 -20l7 -147h-17q-48 73 -68 93
q-24 24 -42 34t-46 10q-31 0 -50.5 -16t-19.5 -44q0 -29 21.5 -47t85.5 -40q96 -34 134 -76.5t38 -105.5q0 -85 -60 -137.5t-171 -54.5l-21 -28q43 -4 64.5 -21t21.5 -43q0 -41 -54.5 -66t-128.5 -32z" />
    <glyph glyph-name="Scaron" unicode="&#x160;" horiz-adv-x="527" 
d="M99 879l6 10l162 -44l162 44l6 -10l-137 -148h-62zM238 -12q-147 0 -211 31l-13 214h21q49 -101 88 -149q29 -36 57.5 -51.5t68.5 -15.5q47 0 73 27t26 74q0 49 -30 78.5t-110 56.5q-109 37 -151.5 87t-42.5 135q0 100 75 165t193 65q116 0 182 -31l10 -190h-21
q-45 98 -85 141q-27 29 -49.5 40t-52.5 11q-45 0 -71 -24.5t-26 -67.5q0 -41 28.5 -67.5t106.5 -54.5q119 -41 166.5 -90.5t47.5 -131.5q0 -104 -76.5 -178t-203.5 -74z" />
    <glyph glyph-name="scaron" unicode="&#x161;" horiz-adv-x="443" 
d="M254 580h-58l-123 161l5 9l147 -56l147 56l5 -9zM191 -12q-95 0 -165 20l-6 173h19q41 -74 79 -119q20 -24 40 -34t51 -10q33 0 53.5 18t20.5 50q0 31 -23.5 49t-102.5 48q-71 26 -106 66t-35 103q0 79 58.5 133t170.5 54q91 0 142 -20l7 -147h-17q-48 73 -68 93
q-24 24 -42 34t-46 10q-31 0 -50.5 -16t-19.5 -44q0 -29 21.5 -47t85.5 -40q96 -34 134 -76.5t38 -105.5q0 -87 -62 -139.5t-177 -52.5z" />
    <glyph glyph-name="Tcommaaccent" unicode="&#x162;" horiz-adv-x="650" 
d="M460 660h-21v-555q0 -49 8 -60.5t44 -20.5l30 -7v-17h-392v17l30 7q36 9 44 20.5t8 60.5v555h-21q-25 0 -40.5 -11t-33.5 -38q-28 -42 -88 -180h-20l8 262h618l8 -262h-20q-52 128 -87 180q-21 30 -34 39.5t-41 9.5zM225 -253l-2 11q102 26 112 95q-15 -15 -41 -15
q-27 0 -44 16.5t-17 42.5t22.5 45.5t58.5 19.5q38 0 64 -24.5t26 -60.5q0 -57 -47 -91t-132 -39z" />
    <glyph glyph-name="tcommaaccent" unicode="&#x163;" horiz-adv-x="377" 
d="M207 -12q-84 0 -121 37.5t-37 121.5v325h-55v12q65 24 121 75t81 107h50v-140h122l-8 -54h-114v-326q0 -45 12.5 -59.5t52.5 -14.5q35 0 65 8v-17q-63 -75 -169 -75zM110 -253l-2 11q102 26 112 95q-15 -15 -41 -15q-27 0 -44 16.5t-17 42.5t22.5 45.5t58.5 19.5
q38 0 64 -24.5t26 -60.5q0 -57 -47 -91t-132 -39z" />
    <glyph glyph-name="Tcaron" unicode="&#x164;" horiz-adv-x="658" 
d="M460 660h-21v-555q0 -49 8 -60.5t44 -20.5l30 -7v-17h-392v17l30 7q36 9 44 20.5t8 60.5v555h-21q-25 0 -40.5 -11t-33.5 -38q-28 -42 -88 -180h-20l8 262h618l8 -262h-20q-52 128 -87 180q-21 30 -34 39.5t-41 9.5zM157 879l6 10l162 -44l162 44l6 -10l-137 -148h-62z
" />
    <glyph glyph-name="tcaron" unicode="&#x165;" horiz-adv-x="377" 
d="M207 -12q-84 0 -121 37.5t-37 121.5v325h-55v12q65 24 121 75t81 107h50v-140h122l-8 -54h-114v-326q0 -45 12.5 -59.5t52.5 -14.5q35 0 65 8v-17q-63 -75 -169 -75zM293 564l-11 4l4 143q0 50 49 50q25 0 43.5 -14.5t20.5 -34.5q0 -24 -17 -43z" />
    <glyph glyph-name="Tbar" unicode="&#x166;" horiz-adv-x="658" 
d="M74 353v37h137v270h-21q-25 0 -40.5 -11t-33.5 -38q-28 -42 -88 -180h-20l8 262h618l8 -262h-20q-52 128 -87 180q-21 30 -34 39.5t-41 9.5h-21v-270h141v-37h-141v-248q0 -49 8 -60.5t44 -20.5l30 -7v-17h-392v17l30 7q36 9 44 20.5t8 60.5v248h-137z" />
    <glyph glyph-name="tbar" unicode="&#x167;" horiz-adv-x="377" 
d="M-6 327v36h55v109h-55v12q65 24 121 75t81 107h50v-140h122l-8 -54h-114v-109h120v-36h-120v-181q0 -45 12.5 -59.5t52.5 -14.5q35 0 65 8v-17q-63 -75 -169 -75q-84 0 -121 37.5t-37 121.5v180h-55z" />
    <glyph glyph-name="Utilde" unicode="&#x168;" horiz-adv-x="696" 
d="M382 -12q-149 0 -228 53t-79 180v367q0 49 -7.5 61t-37.5 20l-27 7v17h371v-17l-27 -7q-30 -8 -37.5 -20t-7.5 -61v-388q0 -79 35 -115.5t112 -36.5q73 0 104 42t31 121v350q0 63 -8.5 81t-42.5 26l-33 8v17h193v-17l-28 -7q-26 -6 -34 -24.5t-8 -76.5v-365
q0 -98 -59 -156.5t-182 -58.5zM500 742q-20 0 -86.5 9t-88.5 9q-20 0 -32.5 -9.5t-27.5 -33.5l-14 8q25 76 48 110.5t59 34.5q21 0 87 -9.5t88 -9.5q33 0 60 44l14 -8q-25 -78 -46.5 -111.5t-60.5 -33.5z" />
    <glyph glyph-name="utilde" unicode="&#x169;" horiz-adv-x="638" 
d="M381 97v312q0 34 -5 44.5t-27 26.5l-32 23v10l253 26l8 -6v-417q0 -40 5.5 -51t29.5 -20l24 -9v-13l-244 -35l-8 6v74h-3q-49 -38 -93.5 -59t-100.5 -21q-60 0 -94.5 34.5t-34.5 99.5v287q0 34 -4.5 44t-27.5 27l-32 23v10l253 26l8 -6v-364q0 -43 14 -60.5t43 -17.5
q36 0 68 6zM167 569l-14 8q25 76 48 110.5t59 34.5q21 0 77 -9.5t78 -9.5q33 0 60 44l14 -8q-25 -78 -46.5 -111.5t-60.5 -33.5q-20 0 -76.5 9t-78.5 9q-20 0 -32.5 -9.5t-27.5 -33.5z" />
    <glyph glyph-name="Umacron" unicode="&#x16a;" horiz-adv-x="696" 
d="M382 -12q-149 0 -228 53t-79 180v367q0 49 -7.5 61t-37.5 20l-27 7v17h371v-17l-27 -7q-30 -8 -37.5 -20t-7.5 -61v-388q0 -79 35 -115.5t112 -36.5q73 0 104 42t31 121v350q0 63 -8.5 81t-42.5 26l-33 8v17h193v-17l-28 -7q-26 -6 -34 -24.5t-8 -76.5v-365
q0 -98 -59 -156.5t-182 -58.5zM260 755v69h288v-69h-288z" />
    <glyph glyph-name="umacron" unicode="&#x16b;" horiz-adv-x="638" 
d="M381 97v312q0 34 -5 44.5t-27 26.5l-32 23v10l253 26l8 -6v-417q0 -40 5.5 -51t29.5 -20l24 -9v-13l-244 -35l-8 6v74h-3q-49 -38 -93.5 -59t-100.5 -21q-60 0 -94.5 34.5t-34.5 99.5v287q0 34 -4.5 44t-27.5 27l-32 23v10l253 26l8 -6v-364q0 -43 14 -60.5t43 -17.5
q36 0 68 6zM175 614v69h288v-69h-288z" />
    <glyph glyph-name="Ubreve" unicode="&#x16c;" horiz-adv-x="696" 
d="M382 -12q-149 0 -228 53t-79 180v367q0 49 -7.5 61t-37.5 20l-27 7v17h371v-17l-27 -7q-30 -8 -37.5 -20t-7.5 -61v-388q0 -79 35 -115.5t112 -36.5q73 0 104 42t31 121v350q0 63 -8.5 81t-42.5 26l-33 8v17h193v-17l-28 -7q-26 -6 -34 -24.5t-8 -76.5v-365
q0 -98 -59 -156.5t-182 -58.5zM411 725q-119 0 -145 159l11 4q23 -33 52.5 -47t82.5 -14q51 0 80.5 14t54.5 47l11 -4q-10 -75 -47 -117t-100 -42z" />
    <glyph glyph-name="ubreve" unicode="&#x16d;" horiz-adv-x="638" 
d="M381 97v312q0 34 -5 44.5t-27 26.5l-32 23v10l253 26l8 -6v-417q0 -40 5.5 -51t29.5 -20l24 -9v-13l-244 -35l-8 6v74h-3q-49 -38 -93.5 -59t-100.5 -21q-60 0 -94.5 34.5t-34.5 99.5v287q0 34 -4.5 44t-27.5 27l-32 23v10l253 26l8 -6v-364q0 -43 14 -60.5t43 -17.5
q36 0 68 6zM322 574q-54 0 -87 43.5t-46 115.5l11 4q18 -32 46.5 -45t76.5 -13q89 0 123 58l11 -4q-10 -71 -44.5 -115t-90.5 -44z" />
    <glyph glyph-name="Uring" unicode="&#x16e;" horiz-adv-x="696" 
d="M382 -12q-149 0 -228 53t-79 180v367q0 49 -7.5 61t-37.5 20l-27 7v17h371v-17l-27 -7q-30 -8 -37.5 -20t-7.5 -61v-388q0 -79 35 -115.5t112 -36.5q73 0 104 42t31 121v350q0 63 -8.5 81t-42.5 26l-33 8v17h193v-17l-28 -7q-26 -6 -34 -24.5t-8 -76.5v-365
q0 -98 -59 -156.5t-182 -58.5zM335 810q0 39 28.5 65t66.5 26t66.5 -26t28.5 -65t-28.5 -65t-66.5 -26t-66.5 26t-28.5 65zM373 810q0 -28 15.5 -45.5t41.5 -17.5t41.5 17.5t15.5 45.5t-15.5 45.5t-41.5 17.5t-41.5 -17.5t-15.5 -45.5z" />
    <glyph glyph-name="uring" unicode="&#x16f;" horiz-adv-x="638" 
d="M381 97v312q0 34 -5 44.5t-27 26.5l-32 23v10l253 26l8 -6v-417q0 -40 5.5 -51t29.5 -20l24 -9v-13l-244 -35l-8 6v74h-3q-49 -38 -93.5 -59t-100.5 -21q-60 0 -94.5 34.5t-34.5 99.5v287q0 34 -4.5 44t-27.5 27l-32 23v10l253 26l8 -6v-364q0 -43 14 -60.5t43 -17.5
q36 0 68 6zM226 660q0 39 28.5 65t66.5 26t66.5 -26t28.5 -65t-28.5 -65t-66.5 -26t-66.5 26t-28.5 65zM264 660q0 -28 15.5 -45.5t41.5 -17.5t41.5 17.5t15.5 45.5t-15.5 45.5t-41.5 17.5t-41.5 -17.5t-15.5 -45.5z" />
    <glyph glyph-name="Uhungarumlaut" unicode="&#x170;" horiz-adv-x="696" 
d="M382 -12q-149 0 -228 53t-79 180v367q0 49 -7.5 61t-37.5 20l-27 7v17h371v-17l-27 -7q-30 -8 -37.5 -20t-7.5 -61v-388q0 -79 35 -115.5t112 -36.5q73 0 104 42t31 121v350q0 63 -8.5 81t-42.5 26l-33 8v17h193v-17l-28 -7q-26 -6 -34 -24.5t-8 -76.5v-365
q0 -98 -59 -156.5t-182 -58.5zM283 723l-10 8l47 122q19 51 56 51q24 0 44.5 -19t20.5 -44q0 -38 -53 -65zM456 723l-10 8l47 122q19 51 56 51q24 0 44.5 -19t20.5 -44q0 -38 -53 -65z" />
    <glyph glyph-name="uhungarumlaut" unicode="&#x171;" horiz-adv-x="638" 
d="M381 97v312q0 34 -5 44.5t-27 26.5l-32 23v10l253 26l8 -6v-417q0 -40 5.5 -51t29.5 -20l24 -9v-13l-244 -35l-8 6v74h-3q-49 -38 -93.5 -59t-100.5 -21q-60 0 -94.5 34.5t-34.5 99.5v287q0 34 -4.5 44t-27.5 27l-32 23v10l253 26l8 -6v-364q0 -43 14 -60.5t43 -17.5
q36 0 68 6zM197 566l-10 8l53 132q20 49 58 49q24 0 44.5 -19t20.5 -44q0 -41 -51 -67zM370 566l-10 8l53 132q20 49 58 49q24 0 44.5 -19t20.5 -44q0 -41 -51 -67z" />
    <glyph glyph-name="Uogonek" unicode="&#x172;" horiz-adv-x="696" 
d="M382 -12q-149 0 -228 53t-79 180v367q0 49 -7.5 61t-37.5 20l-27 7v17h371v-17l-27 -7q-30 -8 -37.5 -20t-7.5 -61v-388q0 -79 35 -115.5t112 -36.5q73 0 104 42t31 121v350q0 63 -8.5 81t-42.5 26l-33 8v17h193v-17l-28 -7q-26 -6 -34 -24.5t-8 -76.5v-365
q0 -67 -22 -110t-79 -87q-45 -35 -62 -60t-17 -58q0 -43 40 -43q15 0 29 3v-15q-38 -38 -97 -38q-46 0 -73 21.5t-27 56.5q0 41 36.5 70t117.5 54q-48 -9 -87 -9z" />
    <glyph glyph-name="uogonek" unicode="&#x173;" horiz-adv-x="638" 
d="M387 -20v88h-3q-103 -80 -196 -80q-60 0 -94.5 34.5t-34.5 99.5v287q0 34 -4.5 44t-27.5 27l-32 23v10l253 26l8 -6v-364q0 -43 14 -60.5t43 -17.5q36 0 68 6v312q0 34 -5 44.5t-27 26.5l-32 23v10l253 26l8 -6v-417q0 -40 5.5 -51t29.5 -20l24 -9v-13l-61 -9
q-94 -14 -132.5 -42t-38.5 -78q0 -49 50 -49q9 0 23 3v-15q-36 -38 -91 -38q-51 0 -78.5 21t-27.5 57q0 35 25.5 60t80.5 47z" />
    <glyph glyph-name="Wcircumflex" unicode="&#x174;" horiz-adv-x="1039" 
d="M816 225l100 324q15 48 15 76q0 37 -39 45l-31 6v17h193v-17l-18 -5q-24 -7 -39.5 -31t-35.5 -84l-187 -556h-110l-130 406h-2l-137 -406h-118l-208 582q-19 53 -29 69t-31 20l-24 5v17h372v-17l-22 -6q-37 -10 -37 -40q0 -22 20 -82l112 -323h3l81 240l-45 140
q-10 30 -21 44.5t-32 20.5l-19 6v17h367v-17l-35 -8q-32 -7 -32 -44q0 -20 17 -76l99 -323h3zM410 723l-6 10l137 148h62l137 -148l-6 -10l-162 44z" />
    <glyph glyph-name="wcircumflex" unicode="&#x175;" horiz-adv-x="858" 
d="M790 408l-153 -408h-88l-113 313h-2l-121 -313h-88l-164 419q-20 50 -31 65t-27 20l-17 5v17h316v-17l-12 -3q-30 -7 -30 -32q0 -18 17 -72l70 -217h3l67 178l-20 56q-18 52 -27.5 66.5t-27.5 19.5l-14 4v17h322v-17l-21 -6q-22 -6 -31 -15.5t-9 -27.5q0 -22 12 -58
l69 -217h4l71 217q13 41 13 62q0 30 -34 38l-27 7v17h175v-17l-13 -5q-24 -9 -36.5 -26t-32.5 -70zM410 742h58l123 -161l-5 -9l-147 56l-147 -56l-5 9z" />
    <glyph glyph-name="Ycircumflex" unicode="&#x176;" horiz-adv-x="656" 
d="M149 0v17l30 7q36 9 44 20.5t8 60.5v195l-161 286q-23 41 -30 52t-15.5 19.5t-20.5 12.5l-18 6v17h400v-17l-31 -7q-46 -11 -46 -44q0 -26 17 -59l111 -216h3l87 205q17 40 17 67q0 35 -43 47l-25 7v17h188v-17l-19 -6q-16 -5 -28.5 -23t-35.5 -69l-123 -272v-201
q0 -49 8 -60.5t44 -20.5l30 -7v-17h-391zM232 723l-6 10l137 148h62l137 -148l-6 -10l-162 44z" />
    <glyph glyph-name="ycircumflex" unicode="&#x177;" horiz-adv-x="555" 
d="M367 199l73 195q18 49 18 67q0 32 -35 41l-26 7v17h172v-17l-19 -7q-15 -6 -26.5 -24.5t-34.5 -73.5l-190 -447q-37 -86 -75.5 -124t-107.5 -38q-44 0 -75 22.5t-31 60.5q0 32 20.5 50.5t57.5 18.5q65 0 73 -67q2 -15 5 -20.5t13 -5.5q18 0 41 27t46 84l4 10l-207 442
q-23 49 -35 65.5t-27 21.5l-15 5v17h342v-17l-26 -8q-35 -12 -35 -42q0 -17 16 -58l80 -202h4zM272 742h58l123 -161l-5 -9l-147 56l-147 -56l-5 9z" />
    <glyph glyph-name="Ydieresis" unicode="&#x178;" horiz-adv-x="656" 
d="M149 0v17l30 7q36 9 44 20.5t8 60.5v195l-161 286q-23 41 -30 52t-15.5 19.5t-20.5 12.5l-18 6v17h400v-17l-31 -7q-46 -11 -46 -44q0 -26 17 -59l111 -216h3l87 205q17 40 17 67q0 35 -43 47l-25 7v17h188v-17l-19 -6q-16 -5 -28.5 -23t-35.5 -69l-123 -272v-201
q0 -49 8 -60.5t44 -20.5l30 -7v-17h-391zM284 719q-38 0 -63.5 23t-25.5 63q0 39 25.5 62t63.5 23q39 0 64.5 -23t25.5 -62q0 -40 -25.5 -63t-64.5 -23zM505 719q-38 0 -63.5 23t-25.5 63q0 39 25.5 62t63.5 23q39 0 64.5 -23t25.5 -62q0 -40 -25.5 -63t-64.5 -23z" />
    <glyph glyph-name="Zacute" unicode="&#x179;" horiz-adv-x="637" 
d="M17 0v35l336 623v3h-27q-79 0 -108 -9t-51 -40q-42 -59 -91 -174h-21l15 255h537v-35l-340 -622v-4h33q68 0 101 5t51 17t39 41q35 48 97 178h22l-20 -273h-573zM248 723l-4 10l122 126q28 30 61 30q30 0 50.5 -22t20.5 -53q0 -27 -16.5 -44t-45.5 -21z" />
    <glyph glyph-name="zacute" unicode="&#x17a;" horiz-adv-x="514" 
d="M12 0v41l271 446v4h-32q-53 0 -72 -5t-42 -28q-21 -21 -83 -127h-16l13 195h448v-39l-270 -448v-4h42q61 0 85 7.5t45 28.5q32 32 84 128h17l-20 -199h-470zM174 576l-4 10l119 129q30 31 65 31q28 0 48 -22.5t20 -53.5q0 -24 -14 -42t-42 -22z" />
    <glyph glyph-name="Zdotaccent" unicode="&#x17b;" horiz-adv-x="637" 
d="M17 0v35l336 623v3h-27q-79 0 -108 -9t-51 -40q-42 -59 -91 -174h-21l15 255h537v-35l-340 -622v-4h33q68 0 101 5t51 17t39 41q35 48 97 178h22l-20 -273h-573zM346 723q-42 0 -69.5 24.5t-27.5 64.5t28 64.5t69 24.5q42 0 69.5 -24.5t27.5 -64.5t-27.5 -64.5
t-69.5 -24.5z" />
    <glyph glyph-name="zdotaccent" unicode="&#x17c;" horiz-adv-x="514" 
d="M12 0v41l271 446v4h-32q-53 0 -72 -5t-42 -28q-21 -21 -83 -127h-16l13 195h448v-39l-270 -448v-4h42q61 0 85 7.5t45 28.5q32 32 84 128h17l-20 -199h-470zM178 654q0 40 28 64.5t69 24.5q42 0 69.5 -24.5t27.5 -64.5t-27.5 -64.5t-69.5 -24.5t-69.5 24.5t-27.5 64.5z
" />
    <glyph glyph-name="Zcaron" unicode="&#x17d;" horiz-adv-x="637" 
d="M186 879l6 10l162 -44l162 44l6 -10l-137 -148h-62zM17 0v35l336 623v3h-27q-79 0 -108 -9t-51 -40q-42 -59 -91 -174h-21l15 255h537v-35l-340 -622v-4h33q68 0 101 5t51 17t39 41q35 48 97 178h22l-20 -273h-573z" />
    <glyph glyph-name="zcaron" unicode="&#x17e;" horiz-adv-x="514" 
d="M308 580h-58l-123 161l5 9l147 -56l147 56l5 -9zM12 0v41l271 446v4h-32q-53 0 -72 -5t-42 -28q-21 -21 -83 -127h-16l13 195h448v-39l-270 -448v-4h42q61 0 85 7.5t45 28.5q32 32 84 128h17l-20 -199h-470z" />
    <glyph glyph-name="florin" unicode="&#x192;" horiz-adv-x="540" 
d="M55 375v32h78l4 38q29 261 274 261q70 0 111 -28.5t41 -74.5q0 -28 -20.5 -43.5t-50.5 -15.5q-40 0 -57.5 19t-21.5 73q-1 24 -6 32t-16 8q-20 0 -29.5 -21.5t-16.5 -88.5l-18 -159h124v-32h-128l-34 -303q-15 -134 -82.5 -199t-176.5 -65q-69 0 -102.5 25.5t-33.5 62.5
q0 62 68 62q35 0 50.5 -17.5t19.5 -71.5q1 -15 4 -22.5t5.5 -8.5t8.5 -1q21 0 30 89l49 449h-74z" />
    <glyph glyph-name="Aringacute" unicode="&#x1fa;" horiz-adv-x="700" 
d="M-6 0v17l13 4q26 8 39 27t40 93l201 552h119l205 -551q27 -72 38.5 -93t32.5 -27l17 -5v-17h-393v17l28 7q38 10 38 45q0 32 -21 93l-18 58h-177l-20 -59q-20 -60 -20 -89q0 -18 11 -28.5t40 -19.5l24 -7v-17h-197zM252 810q0 39 28.5 65t66.5 26t66.5 -26t28.5 -65
t-28.5 -65t-66.5 -26t-66.5 26t-28.5 65zM228 909l-4 10l122 126q28 30 61 30q30 0 50.5 -22t20.5 -53q0 -27 -16.5 -44t-45.5 -21zM247 490l-80 -236h155l-72 236h-3zM290 810q0 -28 15.5 -45.5t41.5 -17.5t41.5 17.5t15.5 45.5t-15.5 45.5t-41.5 17.5t-41.5 -17.5
t-15.5 -45.5z" />
    <glyph glyph-name="aringacute" unicode="&#x1fb;" horiz-adv-x="546" 
d="M154 -12q-67 0 -106 33.5t-39 91.5q0 34 12.5 59t39 41.5t50 25t62.5 19.5l114 31v96q0 71 -10.5 97.5t-40.5 26.5q-21 0 -30 -8t-10 -33q-4 -64 -22 -86t-64 -22q-81 0 -81 65q0 53 60 83.5t184 30.5q211 0 211 -143v-274q0 -34 4 -47.5t18 -20.5q19 -10 45 -10v-15
q-54 -41 -135 -41q-95 0 -118 65h-4q-55 -65 -140 -65zM250 63q26 0 37 18v167l-23 -2q-35 -2 -49 -22t-14 -71q0 -90 49 -90zM166 660q0 39 28.5 65t66.5 26t66.5 -26t28.5 -65t-28.5 -65t-66.5 -26t-66.5 26t-28.5 65zM204 660q0 -28 15.5 -45.5t41.5 -17.5t41.5 17.5
t15.5 45.5t-15.5 45.5t-41.5 17.5t-41.5 -17.5t-15.5 -45.5zM139 763l-4 10l122 126q29 30 61 30q30 0 50.5 -22t20.5 -53q0 -27 -16.5 -44t-45.5 -21z" />
    <glyph glyph-name="AEacute" unicode="&#x1fc;" horiz-adv-x="922" 
d="M911 266l-14 -266h-576v17l27 7q29 8 36.5 20t7.5 61v113h-192l-37 -73q-30 -60 -30 -86q0 -12 10 -19t37 -16l22 -7v-17h-209v17l24 7q28 8 44.5 27t49.5 80l271 506q-13 20 -54 32l-27 7v17h576l9 -227h-19q-35 82 -67 133q-22 35 -46 47.5t-68 12.5q-48 0 -70 -6v-278
h23q47 0 63 6.5t25 23.5q20 39 33 92h18v-281h-18q-12 55 -33 96q-10 18 -26 24.5t-63 6.5h-22v-242q0 -42 12 -54.5t61 -12.5q55 0 76 12.5t47 54.5q41 68 79 165h20zM390 590l-173 -338h175v338h-2zM530 723l-4 10l122 126q28 30 61 30q30 0 50.5 -22t20.5 -53
q0 -27 -16.5 -44t-45.5 -21z" />
    <glyph glyph-name="aeacute" unicode="&#x1fd;" horiz-adv-x="815" 
d="M342 72q-69 -84 -188 -84q-67 0 -106 34t-39 94q0 28 9.5 51t23 37.5t37.5 26.5t44 19t50 15l114 31v89q0 71 -10.5 97.5t-40.5 26.5q-21 0 -30 -8t-10 -33q-4 -64 -22 -86t-64 -22q-81 0 -81 65q0 53 57 83.5t167 30.5q113 0 156 -60q63 60 153 60q237 0 244 -244h-325
q2 -124 42 -168t126 -44q68 0 136 35v-19q-31 -44 -90 -77.5t-137 -33.5q-145 0 -214 84h-2zM322 576l-4 10l119 129q30 31 65 31q28 0 48 -22.5t20 -53.5q0 -24 -14 -42t-42 -22zM554 511q-34 0 -53 -41t-20 -148l134 10q0 106 -12.5 142.5t-48.5 36.5zM259 63q40 0 70 29
q-41 65 -42 163l-18 -1q-37 -2 -52.5 -23.5t-15.5 -74.5q0 -93 58 -93z" />
    <glyph glyph-name="Oslashacute" unicode="&#x1fe;" horiz-adv-x="744" 
d="M369 -12q-113 0 -202 55l-69 -94h-39l82 112q-122 95 -122 277q0 77 22 140t57.5 104.5t82.5 69.5t95.5 40.5t98.5 12.5q117 0 202 -51l55 76h39l-68 -93q122 -91 122 -282q0 -96 -32.5 -169.5t-86.5 -115t-114 -62t-123 -20.5zM373 17q62 0 90.5 67.5t28.5 246.5
q0 87 -6 148l-225 -308q12 -86 38.5 -120t73.5 -34zM251 362q0 -95 5 -145l225 307q-12 85 -38.5 118.5t-71.5 33.5q-39 0 -64 -25.5t-40.5 -96.5t-15.5 -192zM257 723l-4 10l122 126q29 30 61 30q30 0 50.5 -22t20.5 -53q0 -27 -16.5 -44t-45.5 -21z" />
    <glyph glyph-name="oslashacute" unicode="&#x1ff;" horiz-adv-x="596" 
d="M298 -12q-92 0 -160 40l-50 -69h-38l62 86q-99 73 -99 216q0 73 24.5 128.5t66 87t90.5 47t104 15.5q82 0 147 -34l45 63h38l-56 -78q111 -74 111 -225q0 -73 -24 -128t-65.5 -86.5t-90.5 -47t-105 -15.5zM300 17q30 0 46 13.5t27.5 68t11.5 158.5q0 68 -4 108l-165 -229
q7 -73 26 -96t58 -23zM211 275q0 -39 2 -91l163 226q-10 60 -29 80t-52 20q-26 0 -43 -15.5t-29 -69.5t-12 -150zM181 576l-4 10l119 129q30 31 65 31q28 0 48 -22.5t20 -53.5q0 -24 -14 -42t-42 -22z" />
    <glyph glyph-name="Scommaaccent" unicode="&#x218;" horiz-adv-x="527" 
d="M238 -12q-147 0 -211 31l-13 214h21q49 -101 88 -149q29 -36 57.5 -51.5t68.5 -15.5q47 0 73 27t26 74q0 49 -30 78.5t-110 56.5q-109 37 -151.5 87t-42.5 135q0 100 75 165t193 65q116 0 182 -31l10 -190h-21q-45 98 -85 141q-27 29 -49.5 40t-52.5 11q-45 0 -71 -24.5
t-26 -67.5q0 -41 28.5 -67.5t106.5 -54.5q119 -41 166.5 -90.5t47.5 -131.5q0 -104 -76.5 -178t-203.5 -74zM150 -253l-2 11q102 26 112 95q-15 -15 -41 -15q-27 0 -44 16.5t-17 42.5t22.5 45.5t58.5 19.5q38 0 64 -24.5t26 -60.5q0 -57 -47 -91t-132 -39z" />
    <glyph glyph-name="scommaaccent" unicode="&#x219;" horiz-adv-x="443" 
d="M191 -12q-95 0 -165 20l-6 173h19q41 -74 79 -119q20 -24 40 -34t51 -10q33 0 53.5 18t20.5 50q0 31 -23.5 49t-102.5 48q-71 26 -106 66t-35 103q0 79 58.5 133t170.5 54q91 0 142 -20l7 -147h-17q-48 73 -68 93q-24 24 -42 34t-46 10q-31 0 -50.5 -16t-19.5 -44
q0 -29 21.5 -47t85.5 -40q96 -34 134 -76.5t38 -105.5q0 -87 -62 -139.5t-177 -52.5zM121 -253l-2 11q102 26 112 95q-15 -15 -41 -15q-27 0 -44 16.5t-17 42.5t22.5 45.5t58.5 19.5q38 0 64 -24.5t26 -60.5q0 -57 -47 -91t-132 -39z" />
    <glyph glyph-name="uni021A" unicode="&#x21a;" horiz-adv-x="650" 
d="M460 660h-21v-555q0 -49 8 -60.5t44 -20.5l30 -7v-17h-392v17l30 7q36 9 44 20.5t8 60.5v555h-21q-25 0 -40.5 -11t-33.5 -38q-28 -42 -88 -180h-20l8 262h618l8 -262h-20q-52 128 -87 180q-21 30 -34 39.5t-41 9.5zM225 -253l-2 11q102 26 112 95q-15 -15 -41 -15
q-27 0 -44 16.5t-17 42.5t22.5 45.5t58.5 19.5q38 0 64 -24.5t26 -60.5q0 -57 -47 -91t-132 -39z" />
    <glyph glyph-name="uni021B" unicode="&#x21b;" horiz-adv-x="377" 
d="M207 -12q-84 0 -121 37.5t-37 121.5v325h-55v12q65 24 121 75t81 107h50v-140h122l-8 -54h-114v-326q0 -45 12.5 -59.5t52.5 -14.5q35 0 65 8v-17q-63 -75 -169 -75zM110 -253l-2 11q102 26 112 95q-15 -15 -41 -15q-27 0 -44 16.5t-17 42.5t22.5 45.5t58.5 19.5
q38 0 64 -24.5t26 -60.5q0 -57 -47 -91t-132 -39z" />
    <glyph glyph-name="uni0237" unicode="&#x237;" horiz-adv-x="301" 
d="M256 405v-382q0 -100 -67.5 -163.5t-170.5 -63.5q-79 0 -123 29.5t-44 79.5q0 35 21.5 54t59.5 19q43 0 62 -25t24 -98q2 -18 4 -23t10 -5q27 0 27 68v516q0 33 -5 43t-29 27l-32 23v9l259 26l8 -6q-4 -65 -4 -128z" />
    <glyph glyph-name="circumflex" unicode="&#x2c6;" 
d="M215 742h58l123 -161l-5 -9l-147 56l-147 -56l-5 9z" />
    <glyph glyph-name="caron" unicode="&#x2c7;" 
d="M273 580h-58l-123 161l5 9l147 -56l147 56l5 -9z" />
    <glyph glyph-name="breve" unicode="&#x2d8;" 
d="M243 574q-54 0 -87 43.5t-46 115.5l11 4q18 -32 46.5 -45t76.5 -13q89 0 123 58l11 -4q-10 -71 -44.5 -115t-90.5 -44z" />
    <glyph glyph-name="dotaccent" unicode="&#x2d9;" horiz-adv-x="306" 
d="M56 654q0 40 28 64.5t69 24.5q42 0 69.5 -24.5t27.5 -64.5t-27.5 -64.5t-69.5 -24.5t-69.5 24.5t-27.5 64.5z" />
    <glyph glyph-name="ring" unicode="&#x2da;" 
d="M149 660q0 39 28.5 65t66.5 26t66.5 -26t28.5 -65t-28.5 -65t-66.5 -26t-66.5 26t-28.5 65zM187 660q0 -28 15.5 -45.5t41.5 -17.5t41.5 17.5t15.5 45.5t-15.5 45.5t-41.5 17.5t-41.5 -17.5t-15.5 -45.5z" />
    <glyph glyph-name="ogonek" unicode="&#x2db;" horiz-adv-x="335" 
d="M197 0h20q-41 -49 -41 -112q0 -43 40 -43q16 0 29 3v-15q-36 -38 -91 -38q-51 0 -78.5 21t-27.5 57q0 79 149 127z" />
    <glyph glyph-name="tilde" unicode="&#x2dc;" 
d="M90 569l-14 8q25 76 48 110.5t59 34.5q21 0 77 -9.5t78 -9.5q33 0 60 44l14 -8q-25 -78 -46.5 -111.5t-60.5 -33.5q-20 0 -76.5 9t-78.5 9q-20 0 -32.5 -9.5t-27.5 -33.5z" />
    <glyph glyph-name="hungarumlaut" unicode="&#x2dd;" 
d="M112 566l-10 8l53 132q20 49 58 49q24 0 44.5 -19t20.5 -44q0 -41 -51 -67zM285 566l-10 8l53 132q20 49 58 49q24 0 44.5 -19t20.5 -44q0 -41 -51 -67z" />
    <glyph glyph-name="Wgrave" unicode="&#x1e80;" horiz-adv-x="1039" 
d="M816 225l100 324q15 48 15 76q0 37 -39 45l-31 6v17h193v-17l-18 -5q-24 -7 -39.5 -31t-35.5 -84l-187 -556h-110l-130 406h-2l-137 -406h-118l-208 582q-19 53 -29 69t-31 20l-24 5v17h372v-17l-22 -6q-37 -10 -37 -40q0 -22 20 -82l112 -323h3l81 240l-45 140
q-10 30 -21 44.5t-32 20.5l-19 6v17h367v-17l-35 -8q-32 -7 -32 -44q0 -20 17 -76l99 -323h3zM673 733l-4 -10l-188 26q-29 4 -45.5 21t-16.5 44q0 31 20.5 53t50.5 22q32 0 61 -30z" />
    <glyph glyph-name="wgrave" unicode="&#x1e81;" horiz-adv-x="858" 
d="M790 408l-153 -408h-88l-113 313h-2l-121 -313h-88l-164 419q-20 50 -31 65t-27 20l-17 5v17h316v-17l-12 -3q-30 -7 -30 -32q0 -18 17 -72l70 -217h3l67 178l-20 56q-18 52 -27.5 66.5t-27.5 19.5l-14 4v17h322v-17l-21 -6q-22 -6 -31 -15.5t-9 -27.5q0 -22 12 -58
l69 -217h4l71 217q13 41 13 62q0 30 -34 38l-27 7v17h175v-17l-13 -5q-24 -9 -36.5 -26t-32.5 -70zM561 586l-4 -10l-192 30q-28 4 -42 22t-14 42q0 31 20 53.5t48 22.5q35 0 65 -31z" />
    <glyph glyph-name="Wacute" unicode="&#x1e82;" horiz-adv-x="1039" 
d="M816 225l100 324q15 48 15 76q0 37 -39 45l-31 6v17h193v-17l-18 -5q-24 -7 -39.5 -31t-35.5 -84l-187 -556h-110l-130 406h-2l-137 -406h-118l-208 582q-19 53 -29 69t-31 20l-24 5v17h372v-17l-22 -6q-37 -10 -37 -40q0 -22 20 -82l112 -323h3l81 240l-45 140
q-10 30 -21 44.5t-32 20.5l-19 6v17h367v-17l-35 -8q-32 -7 -32 -44q0 -20 17 -76l99 -323h3zM471 723l-4 10l122 126q29 30 61 30q30 0 50.5 -22t20.5 -53q0 -27 -16.5 -44t-45.5 -21z" />
    <glyph glyph-name="wacute" unicode="&#x1e83;" horiz-adv-x="858" 
d="M790 408l-153 -408h-88l-113 313h-2l-121 -313h-88l-164 419q-20 50 -31 65t-27 20l-17 5v17h316v-17l-12 -3q-30 -7 -30 -32q0 -18 17 -72l70 -217h3l67 178l-20 56q-18 52 -27.5 66.5t-27.5 19.5l-14 4v17h322v-17l-21 -6q-22 -6 -31 -15.5t-9 -27.5q0 -22 12 -58
l69 -217h4l71 217q13 41 13 62q0 30 -34 38l-27 7v17h175v-17l-13 -5q-24 -9 -36.5 -26t-32.5 -70zM368 576l-4 10l119 129q30 31 65 31q28 0 48 -22.5t20 -53.5q0 -24 -14 -42t-42 -22z" />
    <glyph glyph-name="Wdieresis" unicode="&#x1e84;" horiz-adv-x="1039" 
d="M816 225l100 324q15 48 15 76q0 37 -39 45l-31 6v17h193v-17l-18 -5q-24 -7 -39.5 -31t-35.5 -84l-187 -556h-110l-130 406h-2l-137 -406h-118l-208 582q-19 53 -29 69t-31 20l-24 5v17h372v-17l-22 -6q-37 -10 -37 -40q0 -22 20 -82l112 -323h3l81 240l-45 140
q-10 30 -21 44.5t-32 20.5l-19 6v17h367v-17l-35 -8q-32 -7 -32 -44q0 -20 17 -76l99 -323h3zM459 719q-38 0 -63.5 23t-25.5 63q0 39 25.5 62t63.5 23q39 0 64.5 -23t25.5 -62q0 -40 -25.5 -63t-64.5 -23zM680 719q-38 0 -63.5 23t-25.5 63q0 39 25.5 62t63.5 23
q39 0 64.5 -23t25.5 -62q0 -40 -25.5 -63t-64.5 -23z" />
    <glyph glyph-name="wdieresis" unicode="&#x1e85;" horiz-adv-x="858" 
d="M790 408l-153 -408h-88l-113 313h-2l-121 -313h-88l-164 419q-20 50 -31 65t-27 20l-17 5v17h316v-17l-12 -3q-30 -7 -30 -32q0 -18 17 -72l70 -217h3l67 178l-20 56q-18 52 -27.5 66.5t-27.5 19.5l-14 4v17h322v-17l-21 -6q-22 -6 -31 -15.5t-9 -27.5q0 -22 12 -58
l69 -217h4l71 217q13 41 13 62q0 30 -34 38l-27 7v17h175v-17l-13 -5q-24 -9 -36.5 -26t-32.5 -70zM249 656q0 39 25.5 62t63.5 23q39 0 64.5 -23t25.5 -62q0 -40 -25.5 -63t-64.5 -23q-38 0 -63.5 23t-25.5 63zM462 656q0 39 25.5 62t63.5 23q39 0 64.5 -23t25.5 -62
q0 -40 -25.5 -63t-64.5 -23q-38 0 -63.5 23t-25.5 63z" />
    <glyph glyph-name="Ygrave" unicode="&#x1ef2;" horiz-adv-x="656" 
d="M149 0v17l30 7q36 9 44 20.5t8 60.5v195l-161 286q-23 41 -30 52t-15.5 19.5t-20.5 12.5l-18 6v17h400v-17l-31 -7q-46 -11 -46 -44q0 -26 17 -59l111 -216h3l87 205q17 40 17 67q0 35 -43 47l-25 7v17h188v-17l-19 -6q-16 -5 -28.5 -23t-35.5 -69l-123 -272v-201
q0 -49 8 -60.5t44 -20.5l30 -7v-17h-391zM498 733l-4 -10l-188 26q-29 4 -45.5 21t-16.5 44q0 31 20.5 53t50.5 22q33 0 61 -30z" />
    <glyph glyph-name="ygrave" unicode="&#x1ef3;" horiz-adv-x="555" 
d="M367 199l73 195q18 49 18 67q0 32 -35 41l-26 7v17h172v-17l-19 -7q-15 -6 -26.5 -24.5t-34.5 -73.5l-190 -447q-37 -86 -75.5 -124t-107.5 -38q-44 0 -75 22.5t-31 60.5q0 32 20.5 50.5t57.5 18.5q65 0 73 -67q2 -15 5 -20.5t13 -5.5q18 0 41 27t46 84l4 10l-207 442
q-23 49 -35 65.5t-27 21.5l-15 5v17h342v-17l-26 -8q-35 -12 -35 -42q0 -17 16 -58l80 -202h4zM400 586l-4 -10l-192 30q-28 4 -42 22t-14 42q0 31 20 53.5t48 22.5q35 0 65 -31z" />
    <glyph glyph-name="uni2009" unicode="&#x2009;" horiz-adv-x="68" 
 />
    <glyph glyph-name="endash" unicode="&#x2013;" horiz-adv-x="381" 
d="M31 274v37h319v-37h-319z" />
    <glyph glyph-name="emdash" unicode="&#x2014;" horiz-adv-x="625" 
d="M31 274v37h563v-37h-563z" />
    <glyph glyph-name="quoteleft" unicode="&#x2018;" horiz-adv-x="211" 
d="M194 700l3 -13q-114 -39 -109 -129q14 22 41 22q28 0 46.5 -18t18.5 -51q0 -35 -24.5 -56t-60.5 -21q-40 0 -68.5 27.5t-28.5 76.5q0 132 182 162z" />
    <glyph glyph-name="quoteright" unicode="&#x2019;" horiz-adv-x="211" 
d="M17 439l-3 13q114 39 109 129q-14 -22 -41 -22q-28 0 -46.5 18t-18.5 51q0 35 24.5 56t60.5 21q40 0 68.5 -27.5t28.5 -76.5q0 -132 -182 -162z" />
    <glyph glyph-name="quotesinglbase" unicode="&#x201a;" horiz-adv-x="211" 
d="M17 -109l-3 13q114 39 109 129q-14 -22 -41 -22q-28 0 -46.5 18t-18.5 51q0 35 24.5 56t60.5 21q40 0 68.5 -27.5t28.5 -76.5q0 -132 -182 -162z" />
    <glyph glyph-name="quotedblleft" unicode="&#x201c;" horiz-adv-x="422" 
d="M405 700l3 -13q-114 -39 -109 -129q14 22 41 22q28 0 46.5 -18t18.5 -51q0 -35 -24.5 -56t-60.5 -21q-40 0 -68.5 27.5t-28.5 76.5q0 132 182 162zM194 700l3 -13q-114 -39 -109 -129q14 22 41 22q28 0 46.5 -18t18.5 -51q0 -35 -24.5 -56t-60.5 -21q-40 0 -68.5 27.5
t-28.5 76.5q0 132 182 162z" />
    <glyph glyph-name="quotedblright" unicode="&#x201d;" horiz-adv-x="422" 
d="M17 439l-3 13q114 39 109 129q-14 -22 -41 -22q-28 0 -46.5 18t-18.5 51q0 35 24.5 56t60.5 21q40 0 68.5 -27.5t28.5 -76.5q0 -132 -182 -162zM228 439l-3 13q114 39 109 129q-14 -22 -41 -22q-28 0 -46.5 18t-18.5 51q0 35 24.5 56t60.5 21q40 0 68.5 -27.5t28.5 -76.5
q0 -132 -182 -162z" />
    <glyph glyph-name="quotedblbase" unicode="&#x201e;" horiz-adv-x="422" 
d="M17 -109l-3 13q114 39 109 129q-14 -22 -41 -22q-28 0 -46.5 18t-18.5 51q0 35 24.5 56t60.5 21q40 0 68.5 -27.5t28.5 -76.5q0 -132 -182 -162zM228 -109l-3 13q114 39 109 129q-14 -22 -41 -22q-28 0 -46.5 18t-18.5 51q0 35 24.5 56t60.5 21q40 0 68.5 -27.5
t28.5 -76.5q0 -132 -182 -162z" />
    <glyph glyph-name="dagger" unicode="&#x2020;" horiz-adv-x="419" 
d="M199 481q-15 -4 -56 -32t-64 -28q-30 0 -48.5 20.5t-18.5 48.5t18.5 48.5t48.5 20.5q23 0 63.5 -28t56.5 -32q-3 22 -34.5 67t-31.5 68q0 28 21 48t55 20t55 -20t21 -48q0 -23 -31 -68t-34 -67q15 4 55.5 32t64.5 28q30 0 48.5 -20.5t18.5 -48.5t-18.5 -48.5t-48.5 -20.5
q-24 0 -65 28t-55 32q2 -28 22 -60t47 -55l-72 -433h-15l-72 433q28 23 48 55t21 60z" />
    <glyph glyph-name="daggerdbl" unicode="&#x2021;" horiz-adv-x="413" 
d="M282 433l-70 -104h-11l-71 104q27 13 44.5 34.5t21.5 45.5q-16 -4 -55 -31t-62 -27q-30 0 -48.5 19.5t-18.5 47.5q0 29 18 48.5t49 19.5q23 0 62 -27.5t55 -31.5q-3 21 -34.5 66.5t-31.5 66.5q0 26 21 43t55 17t55 -17t21 -43q0 -21 -31 -66.5t-34 -66.5q14 4 53.5 31.5
t63.5 27.5q30 0 48.5 -19.5t18.5 -48.5q0 -27 -18.5 -47t-48.5 -20q-24 0 -62.5 27t-54.5 31q8 -53 65 -80zM212 319l70 -104q-57 -27 -65 -80q16 4 54.5 31t62.5 27q30 0 48.5 -20t18.5 -47q0 -29 -18.5 -48.5t-48.5 -19.5q-24 0 -63.5 27.5t-53.5 31.5q3 -21 34 -66.5
t31 -66.5q0 -26 -21 -43t-55 -17t-55 17t-21 43q0 21 31.5 66.5t34.5 66.5q-16 -4 -55 -31.5t-62 -27.5q-31 0 -49 19.5t-18 48.5q0 28 18.5 47.5t48.5 19.5q23 0 62 -27t55 -31q-4 24 -21.5 45.5t-44.5 34.5l71 104h11z" />
    <glyph glyph-name="bullet" unicode="&#x2022;" horiz-adv-x="292" 
d="M16 334q0 56 38 93t92 37q53 0 91.5 -37.5t38.5 -92.5q0 -51 -39 -90t-91 -39q-53 0 -91.5 39t-38.5 90z" />
    <glyph glyph-name="ellipsis" unicode="&#x2026;" horiz-adv-x="708" 
d="M20 87q0 41 28 68t68 27q39 0 67.5 -27t28.5 -68q0 -39 -29 -67t-67 -28q-40 0 -68 27.5t-28 67.5zM258 87q0 41 28 68t68 27q39 0 67.5 -27t28.5 -68q0 -39 -29 -67t-67 -28q-40 0 -68 27.5t-28 67.5zM496 87q0 41 28 68t68 27q39 0 67.5 -27t28.5 -68q0 -39 -29 -67
t-67 -28q-40 0 -68 27.5t-28 67.5z" />
    <glyph glyph-name="perthousand" unicode="&#x2030;" horiz-adv-x="1116" 
d="M68 -50l534 764h42l-534 -764h-42zM200 358q-78 0 -128.5 44t-50.5 126q0 47 18 82.5t46.5 55.5t59 29.5t59.5 9.5q74 0 128 -45.5t54 -126.5q0 -85 -55.5 -130t-130.5 -45zM203 387q31 0 39 27.5t8 112.5q0 92 -9 120.5t-38 28.5q-26 0 -37 -28t-11 -114q0 -90 9 -118.5
t39 -28.5zM521 -12q-78 0 -128.5 44t-50.5 126q0 47 18 82.5t46.5 55.5t59 29.5t59.5 9.5q74 0 128 -45.5t54 -126.5q0 -85 -55.5 -130t-130.5 -45zM524 17q31 0 39 27.5t8 112.5q0 92 -9 120.5t-38 28.5q-26 0 -37 -28t-11 -114q0 -90 9 -118.5t39 -28.5zM909 -12
q-78 0 -128.5 44t-50.5 126q0 47 18 82.5t46.5 55.5t59 29.5t59.5 9.5q74 0 128 -45.5t54 -126.5q0 -85 -55.5 -130t-130.5 -45zM912 17q31 0 39 27.5t8 112.5q0 92 -9 120.5t-38 28.5q-26 0 -37 -28t-11 -114q0 -90 9 -118.5t39 -28.5z" />
    <glyph glyph-name="uni2032" unicode="&#x2032;" horiz-adv-x="208" 
d="M63 419l-31 177q-20 114 72 114q45 0 66 -32.5t-1 -81.5l-87 -177h-19z" />
    <glyph glyph-name="uni2033" unicode="&#x2033;" horiz-adv-x="386" 
d="M63 419l-31 177q-20 114 72 114q45 0 66 -32.5t-1 -81.5l-87 -177h-19zM242 419l-31 177q-20 114 72 114q45 0 65.5 -32.5t-1.5 -81.5l-86 -177h-19z" />
    <glyph glyph-name="guilsinglleft" unicode="&#x2039;" horiz-adv-x="240" 
d="M192 45l-178 205v5l178 205h20l-82 -206l82 -209h-20z" />
    <glyph glyph-name="guilsinglright" unicode="&#x203a;" horiz-adv-x="240" 
d="M226 250l-178 -205h-20l82 206l-82 209h20l178 -205v-5z" />
    <glyph glyph-name="fraction" unicode="&#x2044;" horiz-adv-x="372" 
d="M-102 -50l534 764h42l-534 -764h-42z" />
    <glyph glyph-name="Euro" unicode="&#x20ac;" horiz-adv-x="615" 
d="M-1 379v32h59q10 75 44 133t82.5 92.5t105 51.5t118.5 17q86 0 144.5 -32.5t58.5 -93.5q0 -36 -25 -54.5t-61 -18.5q-54 0 -73.5 25.5t-24.5 96.5q-2 30 -8 38.5t-23 8.5q-37 0 -59.5 -19.5t-37.5 -79t-17 -165.5h198l-7 -32h-191v-13q0 -37 1 -54h176l-7 -32h-167
q9 -120 52 -163.5t131 -43.5q64 0 131 36v-20q-27 -38 -86.5 -69.5t-142.5 -31.5q-138 0 -218.5 72t-94.5 220h-58v32h55v30q0 25 1 37h-56z" />
    <glyph glyph-name="trademark" unicode="&#x2122;" horiz-adv-x="710" 
d="M299 419v14l22 4q12 2 15.5 9t3.5 29v169q0 16 -3.5 21t-15.5 9l-16 5v14h149l45 -135h4l47 135h153v-12l-17 -4q-12 -3 -14.5 -8.5t-2.5 -22.5v-181q0 -18 3 -22.5t14 -6.5l19 -4v-13h-180v13l18 4q11 2 14 7t3 22v188h-1l-79 -232h-35l-83 232h-1v-176q0 -25 3 -32
t15 -9l22 -4v-13h-102zM98 468v205h-4q-24 0 -35 -15q-9 -13 -32 -77h-12l3 112h264l4 -112h-12q-21 58 -34 77q-11 15 -35 15h-3v-205q0 -18 3 -23t16 -7l22 -4v-14h-185v14l21 4q13 2 16 7t3 23z" />
    <glyph glyph-name="onethird" unicode="&#x2153;" horiz-adv-x="790" 
d="M5 299v18l16 4q21 6 25.5 13.5t4.5 38.5v201l-44 13v17q54 9 107 35.5t80 58.5l22 -6v-319q0 -31 6 -39t26 -13l16 -4v-18h-259zM83 -50l534 764h42l-534 -764h-42zM579 -8q-69 0 -107 22t-38 60q0 21 14.5 33t39.5 12q32 0 45.5 -16t16.5 -58q1 -17 5.5 -21.5t16.5 -4.5
q47 0 47 83q0 49 -18.5 69t-54.5 20h-28v31h25q35 0 51 19t16 61q0 72 -31 72q-11 0 -14.5 -4.5t-6.5 -20.5q-6 -34 -19.5 -49.5t-41.5 -15.5q-50 0 -50 45q0 31 36 51.5t105 20.5q166 0 166 -98q0 -34 -28.5 -56.5t-84.5 -29.5v-3q67 -8 98.5 -32.5t31.5 -74.5
q0 -51 -49 -83t-143 -32z" />
    <glyph glyph-name="twothirds" unicode="&#x2154;" horiz-adv-x="820" 
d="M117 -50l534 764h42l-534 -764h-42zM609 -8q-69 0 -107 22t-38 60q0 21 14.5 33t39.5 12q32 0 45.5 -16t16.5 -58q1 -17 5.5 -21.5t16.5 -4.5q47 0 47 83q0 49 -18.5 69t-54.5 20h-28v31h25q35 0 51 19t16 61q0 72 -31 72q-11 0 -14.5 -4.5t-6.5 -20.5
q-6 -34 -19.5 -49.5t-41.5 -15.5q-50 0 -50 45q0 31 36 51.5t105 20.5q166 0 166 -98q0 -34 -28.5 -56.5t-84.5 -29.5v-3q67 -8 98.5 -32.5t31.5 -74.5q0 -51 -49 -83t-143 -32zM10 299v66q71 52 108 93q65 74 65 145q0 69 -33 69q-11 0 -14 -6t-5 -27q-5 -39 -19.5 -54.5
t-49.5 -15.5q-24 0 -38.5 14.5t-14.5 36.5q0 36 43 58t118 22q77 0 122 -29.5t45 -87.5q0 -44 -51.5 -86t-181.5 -88v-3h158q19 0 27.5 9t22.5 41h19l-7 -157h-314z" />
    <glyph glyph-name="oneeighth" unicode="&#x215b;" horiz-adv-x="790" 
d="M5 299v18l16 4q21 6 25.5 13.5t4.5 38.5v201l-44 13v17q54 9 107 35.5t80 58.5l22 -6v-319q0 -31 6 -39t26 -13l16 -4v-18h-259zM81 -50l534 764h42l-534 -764h-42zM588 -7q-85 0 -129 24.5t-44 64.5q0 29 25.5 50.5t70.5 30.5v3q-45 20 -62.5 45t-17.5 63q0 60 53 93.5
t118 33.5q63 0 107 -21t44 -64q0 -24 -25 -43t-57 -26v-3q100 -43 100 -114q0 -58 -51.5 -97.5t-131.5 -39.5zM593 20q25 0 44 12t19 37q0 26 -22.5 43t-94.5 44q-17 -22 -17 -60q0 -76 71 -76zM638 256q13 16 13 54q0 64 -55 64q-25 0 -40.5 -12t-15.5 -31
q0 -24 20.5 -40.5t77.5 -34.5z" />
    <glyph glyph-name="threeeighths" unicode="&#x215c;" horiz-adv-x="820" 
d="M108 -50l534 764h42l-534 -764h-42zM618 -7q-85 0 -129 24.5t-44 64.5q0 29 25.5 50.5t70.5 30.5v3q-45 20 -62.5 45t-17.5 63q0 60 53 93.5t118 33.5q63 0 107 -21t44 -64q0 -24 -25 -43t-57 -26v-3q100 -43 100 -114q0 -58 -51.5 -97.5t-131.5 -39.5zM623 20
q25 0 44 12t19 37q0 26 -22.5 43t-94.5 44q-17 -22 -17 -60q0 -76 71 -76zM668 256q13 16 13 54q0 64 -55 64q-25 0 -40.5 -12t-15.5 -31q0 -24 20.5 -40.5t77.5 -34.5zM154 291q-69 0 -107 22t-38 60q0 21 14.5 33t39.5 12q32 0 45.5 -16t16.5 -58q1 -17 5.5 -21.5
t16.5 -4.5q47 0 47 83q0 49 -18.5 69t-54.5 20h-28v31h25q35 0 51 19t16 61q0 72 -31 72q-11 0 -14.5 -4.5t-6.5 -20.5q-6 -34 -19.5 -49.5t-41.5 -15.5q-50 0 -50 45q0 31 36 51.5t105 20.5q166 0 166 -98q0 -34 -28.5 -56.5t-84.5 -29.5v-3q67 -8 98.5 -32.5t31.5 -74.5
q0 -51 -49 -83t-143 -32z" />
    <glyph glyph-name="fiveeighths" unicode="&#x215d;" horiz-adv-x="810" 
d="M91 -50l534 764h42l-534 -764h-42zM608 -7q-85 0 -129 24.5t-44 64.5q0 29 25.5 50.5t70.5 30.5v3q-45 20 -62.5 45t-17.5 63q0 60 53 93.5t118 33.5q63 0 107 -21t44 -64q0 -24 -25 -43t-57 -26v-3q100 -43 100 -114q0 -58 -51.5 -97.5t-131.5 -39.5zM613 20q25 0 44 12
t19 37q0 26 -22.5 43t-94.5 44q-17 -22 -17 -60q0 -76 71 -76zM658 256q13 16 13 54q0 64 -55 64q-25 0 -40.5 -12t-15.5 -31q0 -24 20.5 -40.5t77.5 -34.5zM139 291q-67 0 -97.5 19.5t-30.5 50.5q0 45 53 45q26 0 38.5 -13.5t17.5 -44.5q3 -19 8.5 -24t21.5 -5q52 0 52 59
q0 33 -24 50.5t-63 17.5q-46 0 -72 -12l-9 5l29 254l195 -1q17 0 24.5 7t19.5 31h20l-13 -134l-226 1l-5 -45q30 10 88 10q82 0 124.5 -33t42.5 -93q0 -62 -51 -103.5t-143 -41.5z" />
    <glyph glyph-name="seveneighths" unicode="&#x215e;" horiz-adv-x="790" 
d="M70 -50l534 764h42l-534 -764h-42zM588 -7q-85 0 -129 24.5t-44 64.5q0 29 25.5 50.5t70.5 30.5v3q-45 20 -62.5 45t-17.5 63q0 60 53 93.5t118 33.5q63 0 107 -21t44 -64q0 -24 -25 -43t-57 -26v-3q100 -43 100 -114q0 -58 -51.5 -97.5t-131.5 -39.5zM593 20q25 0 44 12
t19 37q0 26 -22.5 43t-94.5 44q-17 -22 -17 -60q0 -76 71 -76zM638 256q13 16 13 54q0 64 -55 64q-25 0 -40.5 -12t-15.5 -31q0 -24 20.5 -40.5t77.5 -34.5zM57 299q31 169 215 293h-181q-25 0 -35 -9t-25 -45h-20l10 155h304v-67q-58 -67 -78 -145t-21 -182h-169z" />
    <glyph glyph-name="arrowleft" unicode="&#x2190;" horiz-adv-x="818" 
d="M697 250l-339 16l80 -66q53 -44 40 -99.5t-63.5 -68.5t-100.5 26l-286 287v4l287 288q45 45 99.5 26t63.5 -69t-40 -100l-80 -66l339 16q63 3 89.5 -47t0 -100t-89.5 -47z" />
    <glyph glyph-name="arrowright" unicode="&#x2192;" horiz-adv-x="818" 
d="M460 266l-339 -16q-63 -3 -89.5 47t0 100t89.5 47l339 -16l-80 66q-53 44 -40 99.5t63 69t100 -25.5l287 -288v-4l-286 -287q-46 -45 -100.5 -26.5t-63.5 68.5t40 100z" />
    <glyph glyph-name="minus" unicode="&#x2212;" horiz-adv-x="486" 
d="M45 329v33h396v-33h-396z" />
    <glyph glyph-name="uni24C5" unicode="&#x24c5;" horiz-adv-x="786" 
d="M428 167v-17h-219v17l11 4q12 5 16.5 8.5t7.5 14.5t3 34v245q0 31 -5.5 41t-21.5 15l-11 3v18h202q92 0 138 -31.5t46 -87.5q0 -59 -34.5 -94t-99.5 -35q-32 0 -58 8v14q29 4 41 23t12 73q0 56 -13 79.5t-41 23.5q-11 0 -23 -3v-290q0 -39 4.5 -47t24.5 -12zM36 344
q0 150 103 254.5t254 104.5t254 -104.5t103 -254.5t-103 -254t-254 -104t-254 104t-103 254zM73 344q0 -136 92 -232t228 -96t228 96t92 232t-92 232.5t-228 96.5t-228 -96.5t-92 -232.5z" />
    <glyph glyph-name="square" unicode="&#x25a0;" horiz-adv-x="926" 
d="M116 0v693h694v-693h-694z" />
    <glyph glyph-name="squareopen" unicode="&#x25a1;" horiz-adv-x="926" 
d="M116 0v693h694v-693h-694zM162 44h602v607h-602v-607z" />
    <glyph glyph-name="triangleup" unicode="&#x25b2;" horiz-adv-x="829" 
d="M780 0h-729v14l354 710h20l355 -710v-14z" />
    <glyph glyph-name="triangleupopen" unicode="&#x25b3;" horiz-adv-x="799" 
d="M764 0h-729v14l359 710h10l360 -710v-14zM700 42l-302 597l-300 -597h602z" />
    <glyph glyph-name="triangleright" unicode="&#x25b6;" horiz-adv-x="860" 
d="M116 -18v729h14l680 -359v-10l-680 -360h-14z" />
    <glyph glyph-name="trianglerightopen" unicode="&#x25b7;" horiz-adv-x="860" 
d="M116 -18v729h14l680 -359v-10l-680 -360h-14zM162 45l569 302l-569 302v-604z" />
    <glyph glyph-name="triangledown" unicode="&#x25bc;" horiz-adv-x="829" 
d="M50 693h729v-14l-354 -710h-20l-355 710v14z" />
    <glyph glyph-name="triangledownopen" unicode="&#x25bd;" horiz-adv-x="799" 
d="M35 693h729v-14l-359 -710h-10l-360 710v14zM99 651l302 -597l300 597h-602z" />
    <glyph glyph-name="triangleleft" unicode="&#x25c0;" horiz-adv-x="860" 
d="M744 711v-729h-14l-680 360v10l680 359h14z" />
    <glyph glyph-name="triangleleftopen" unicode="&#x25c1;" horiz-adv-x="860" 
d="M744 711v-729h-14l-680 360v10l680 359h14zM129 347l569 -302v604z" />
    <glyph glyph-name="circle" unicode="&#x25cb;" horiz-adv-x="806" 
d="M402 -15q-150 0 -255.5 106t-105.5 256t105.5 255.5t255.5 105.5t256.5 -105.5t106.5 -255.5q0 -149 -107 -255.5t-256 -106.5z" />
    <glyph glyph-name="circleopen" unicode="&#x25cf;" horiz-adv-x="806" 
d="M402 -15q-150 0 -255.5 106t-105.5 256t105.5 255.5t255.5 105.5t256.5 -105.5t106.5 -255.5q0 -149 -107 -255.5t-256 -106.5zM402 27q131 0 223.5 94t92.5 226t-92.5 225.5t-223.5 93.5q-132 0 -223 -93t-91 -226q0 -132 91 -226t223 -94z" />
    <glyph glyph-name="star" unicode="&#x2605;" horiz-adv-x="832" 
d="M169 -34l-7 4l96 291l-244 174v8h304l94 291h8l95 -291h303v-8l-243 -174l95 -289l-7 -4l-247 176z" />
    <glyph glyph-name="staropen" unicode="&#x2606;" horiz-adv-x="832" 
d="M169 -34l-7 4l96 291l-244 174v8h304l94 291h8l95 -291h303v-8l-243 -174l95 -289l-7 -4l-247 176zM229 54l188 140l186 -140l-76 222l190 130h-229l-72 221l-72 -221h-228l189 -130z" />
    <glyph glyph-name="space_uni0326" 
d="M152 -253l-2 11q102 26 112 95q-15 -15 -41 -15q-27 0 -44 16.5t-17 42.5t22.5 45.5t58.5 19.5q38 0 64 -24.5t26 -60.5q0 -57 -47 -91t-132 -39z" />
    <glyph glyph-name="caron.alt" 
d="M220 564l-11 4l4 143q0 50 49 50q25 0 43.5 -14.5t20.5 -34.5q0 -24 -17 -43z" />
    <glyph glyph-name="space_uni0326.alt" 
d="M336 774l2 -11q-102 -26 -112 -95q15 15 41 15q27 0 44 -16.5t17 -42.5t-22.5 -45.5t-58.5 -19.5q-38 0 -64 24.5t-26 60.5q0 57 47 91t132 39z" />
    <glyph glyph-name="acute.pl" 
d="M234 559l-8 6l27 144q13 65 66 65q31 0 52 -20.5t21 -48.5q0 -34 -43 -65z" />
    <glyph glyph-name="grave.uc" 
d="M360 733l-4 -10l-188 26q-29 4 -45.5 21t-16.5 44q0 31 20.5 53t50.5 22q33 0 61 -30z" />
    <glyph glyph-name="dieresis.uc" 
d="M133 719q-38 0 -63.5 23t-25.5 63q0 39 25.5 62t63.5 23q39 0 64.5 -23t25.5 -62q0 -40 -25.5 -63t-64.5 -23zM354 719q-38 0 -63.5 23t-25.5 63q0 39 25.5 62t63.5 23q39 0 64.5 -23t25.5 -62q0 -40 -25.5 -63t-64.5 -23z" />
    <glyph glyph-name="macron.uc" 
d="M100 755v69h288v-69h-288z" />
    <glyph glyph-name="acute.uc" 
d="M132 723l-4 10l122 126q28 30 61 30q30 0 50.5 -22t20.5 -53q0 -27 -16.5 -44t-45.5 -21z" />
    <glyph glyph-name="circumflex.uc" 
d="M82 723l-6 10l137 148h62l137 -148l-6 -10l-162 44z" />
    <glyph glyph-name="caron.uc" 
d="M76 879l6 10l162 -44l162 44l6 -10l-137 -148h-62z" />
    <glyph glyph-name="breve.uc" 
d="M243 725q-119 0 -145 159l11 4q23 -33 52.5 -47t82.5 -14q51 0 80.5 14t54.5 47l11 -4q-10 -75 -47 -117t-100 -42z" />
    <glyph glyph-name="dotaccent.uc" horiz-adv-x="306" 
d="M153 723q-42 0 -69.5 24.5t-27.5 64.5t28 64.5t69 24.5q42 0 69.5 -24.5t27.5 -64.5t-27.5 -64.5t-69.5 -24.5z" />
    <glyph glyph-name="ring.uc" 
d="M149 810q0 39 28.5 65t66.5 26t66.5 -26t28.5 -65t-28.5 -65t-66.5 -26t-66.5 26t-28.5 65zM187 810q0 -28 15.5 -45.5t41.5 -17.5t41.5 17.5t15.5 45.5t-15.5 45.5t-41.5 17.5t-41.5 -17.5t-15.5 -45.5z" />
    <glyph glyph-name="tilde.uc" 
d="M315 742q-20 0 -86.5 9t-88.5 9q-20 0 -32.5 -9.5t-27.5 -33.5l-14 8q25 76 48 110.5t59 34.5q21 0 87 -9.5t88 -9.5q33 0 60 44l14 -8q-25 -78 -46.5 -111.5t-60.5 -33.5z" />
    <glyph glyph-name="hungarumlaut.uc" 
d="M120 723l-10 8l47 122q19 51 56 51q24 0 44.5 -19t20.5 -44q0 -38 -53 -65zM293 723l-10 8l47 122q19 51 56 51q24 0 44.5 -19t20.5 -44q0 -38 -53 -65z" />
    <glyph glyph-name="acute.ucpl" 
d="M183 723l-8 6l29 125q16 64 65 64q28 0 50 -20t22 -46q0 -37 -43 -62z" />
    <glyph glyph-name="Cacute.pl" horiz-adv-x="632" 
d="M376 -12q-164 0 -260.5 92.5t-96.5 260.5q0 92 30 163t83 114t121 65t147 22q108 0 187 -23l16 -234h-19q-60 119 -102 175q-21 27 -41 40t-51 13q-68 0 -100 -78t-32 -237q0 -194 30.5 -269t98.5 -75q36 0 62 12.5t50 45.5q29 38 93 174h18l-12 -222q-104 -39 -222 -39z
M344 723l-8 6l29 125q16 64 65 64q28 0 50 -20t22 -46q0 -37 -43 -62z" />
    <glyph glyph-name="Nacute.pl" horiz-adv-x="676" 
d="M536 0l-417 571h-4v-439q0 -64 8.5 -82t43.5 -26l31 -7v-17h-193v17l27 7q28 8 36 25.5t8 75.5v463q0 41 -9 57.5t-35 23.5l-27 7v17h294l257 -340h4v208q0 64 -8 81t-43 26l-33 8v17h195v-17l-28 -7q-28 -7 -36 -24.5t-8 -76.5v-568h-63zM326 723l-8 6l29 125
q16 64 65 64q28 0 50 -20t22 -46q0 -37 -43 -62z" />
    <glyph glyph-name="Oacute.pl" horiz-adv-x="744" 
d="M369 -12q-67 0 -127.5 20.5t-111.5 61.5t-81 110t-30 158q0 77 22 140t57.5 104.5t82.5 69.5t95.5 40.5t98.5 12.5q68 0 128 -18.5t111 -58t81 -109.5t30 -164q0 -96 -32.5 -169.5t-86.5 -115t-114 -62t-123 -20.5zM373 17q41 0 65 26t36.5 95.5t12.5 192.5
q0 138 -13 214t-37 103.5t-66 27.5q-59 0 -87 -68t-28 -246q0 -137 12.5 -213t37 -104t67.5 -28zM348 723l-8 6l29 125q16 64 65 64q28 0 50 -20t22 -46q0 -37 -43 -62z" />
    <glyph glyph-name="Sacute.pl" horiz-adv-x="527" 
d="M238 -12q-147 0 -211 31l-13 214h21q49 -101 88 -149q29 -36 57.5 -51.5t68.5 -15.5q47 0 73 27t26 74q0 49 -30 78.5t-110 56.5q-109 37 -151.5 87t-42.5 135q0 100 75 165t193 65q116 0 182 -31l10 -190h-21q-45 98 -85 141q-27 29 -49.5 40t-52.5 11q-45 0 -71 -24.5
t-26 -67.5q0 -41 28.5 -67.5t106.5 -54.5q119 -41 166.5 -90.5t47.5 -131.5q0 -104 -76.5 -178t-203.5 -74zM239 723l-8 6l29 125q16 64 65 64q28 0 50 -20t22 -46q0 -37 -43 -62z" />
    <glyph glyph-name="Zacute.pl" horiz-adv-x="637" 
d="M17 0v35l336 623v3h-27q-79 0 -108 -9t-51 -40q-42 -59 -91 -174h-21l15 255h537v-35l-340 -622v-4h33q68 0 101 5t51 17t39 41q35 48 97 178h22l-20 -273h-573zM305 723l-8 6l29 125q16 64 65 64q28 0 50 -20t22 -46q0 -37 -43 -62z" />
    <glyph glyph-name="cacute.pl" horiz-adv-x="509" 
d="M275 -12q-124 0 -193 72t-69 195q0 73 28 130t74 89.5t100 48.5t112 16q83 0 129 -27.5t46 -81.5q0 -76 -83 -76q-48 0 -65.5 23.5t-22.5 85.5q-3 29 -8 37t-23 8q-17 0 -30.5 -6.5t-28 -25.5t-22.5 -61.5t-8 -106.5q0 -119 31.5 -172t122.5 -53q66 0 130 33v-18
q-25 -38 -83.5 -74t-136.5 -36zM246 559l-8 6l27 144q13 65 66 65q31 0 52 -20.5t21 -48.5q0 -34 -43 -65z" />
    <glyph glyph-name="idotaccent" horiz-adv-x="316" 
d="M-1 0v17l18 5q30 8 36 16.5t6 43.5v329q0 33 -5 43t-29 27l-32 23v9l259 26l8 -6q-4 -65 -4 -128v-323q0 -35 6 -43.5t36 -16.5l18 -5v-17h-317zM56 665q0 40 28 64.5t69 24.5q42 0 69.5 -24.5t27.5 -64.5t-27.5 -64.5t-69.5 -24.5t-69.5 24.5t-27.5 64.5z" />
    <glyph glyph-name="nacute.pl" horiz-adv-x="639" 
d="M-1 0v17l18 5q30 8 36 16.5t6 43.5v328q0 33 -4.5 43.5t-27.5 26.5l-32 23v10l249 26l8 -6v-76h3q105 82 194 82q59 0 94 -34.5t35 -99.5v-323q0 -35 6.5 -43.5t36.5 -16.5l18 -5v-17h-309v17l15 4q26 7 31 15t5 46v285q0 39 -14.5 54t-44.5 15q-40 0 -66 -6v-348
q0 -38 5 -46t31 -15l15 -4v-17h-308zM314 559l-8 6l27 144q13 65 66 65q31 0 52 -20.5t21 -48.5q0 -34 -43 -65z" />
    <glyph glyph-name="oacute.pl" horiz-adv-x="596" 
d="M298 -12q-120 0 -202.5 70.5t-82.5 202.5q0 73 24.5 128.5t66 87t90.5 47t104 15.5q119 0 202 -70.5t83 -203.5q0 -73 -24 -128t-65.5 -86.5t-90.5 -47t-105 -15.5zM300 17q29 0 44.5 14t25 67.5t9.5 158.5q0 109 -11.5 166.5t-27.5 72t-45 14.5q-26 0 -41.5 -16t-26 -69
t-10.5 -150q0 -113 9.5 -169.5t25.5 -72.5t48 -16zM284 559l-8 6l27 144q13 65 66 65q31 0 52 -20.5t21 -48.5q0 -34 -43 -65z" />
    <glyph glyph-name="sacute.pl" horiz-adv-x="443" 
d="M191 -12q-95 0 -165 20l-6 173h19q41 -74 79 -119q20 -24 40 -34t51 -10q33 0 53.5 18t20.5 50q0 31 -23.5 49t-102.5 48q-71 26 -106 66t-35 103q0 79 58.5 133t170.5 54q91 0 142 -20l7 -147h-17q-48 73 -68 93q-24 24 -42 34t-46 10q-31 0 -50.5 -16t-19.5 -44
q0 -29 21.5 -47t85.5 -40q96 -34 134 -76.5t38 -105.5q0 -87 -62 -139.5t-177 -52.5zM198 559l-8 6l27 144q13 65 66 65q31 0 52 -20.5t21 -48.5q0 -34 -43 -65z" />
    <glyph glyph-name="zacute.pl" horiz-adv-x="514" 
d="M12 0v41l271 446v4h-32q-53 0 -72 -5t-42 -28q-21 -21 -83 -127h-16l13 195h448v-39l-270 -448v-4h42q61 0 85 7.5t45 28.5q32 32 84 128h17l-20 -199h-470zM240 559l-8 6l27 144q13 65 66 65q31 0 52 -20.5t21 -48.5q0 -34 -43 -65z" />
    <glyph glyph-name="dollar.old" horiz-adv-x="522" 
d="M14 109q0 70 78 70q39 0 61.5 -22t31.5 -80q4 -32 12 -43.5t32 -13.5v219q-120 42 -165.5 93.5t-45.5 130.5q0 87 63 144t164 64v69h31v-68q105 -1 156.5 -34t51.5 -79q0 -32 -21 -49.5t-55 -17.5q-42 0 -61 20.5t-26 75.5q-4 31 -12 41.5t-33 12.5v-201l7 -2
q120 -43 170.5 -98t50.5 -132q0 -89 -64.5 -150.5t-179.5 -67.5v-82h-31v81q-215 3 -215 119zM356 117q0 77 -96 112v-210q41 1 68.5 25.5t27.5 72.5zM159 554q0 -62 86 -100v189q-86 -5 -86 -89z" />
    <glyph glyph-name="Euro.old" horiz-adv-x="582" 
d="M-4 358v32h56q13 95 65.5 160.5t121.5 94t148 28.5t133 -31t54 -84q0 -33 -22 -51.5t-57 -18.5q-43 0 -64.5 24.5t-26.5 88.5q-2 23 -9 31.5t-23 8.5q-35 0 -56.5 -20.5t-34.5 -76t-15 -154.5h188l-6 -32h-182v-6q0 -39 1 -56h167l-6 -32h-159q10 -114 49.5 -157
t124.5 -43q70 0 131 39v-20q-32 -43 -88.5 -69.5t-131.5 -26.5q-126 0 -207 70t-96 207h-55v32h52v29q0 5 0.5 16t0.5 17h-53z" />
    <glyph glyph-name="sterling.old" horiz-adv-x="541" 
d="M17 334v32h50q-22 66 -22 107q0 89 71.5 144.5t205.5 55.5q107 0 160 -32t53 -83q0 -29 -20.5 -48.5t-54.5 -19.5q-46 0 -66.5 24t-28.5 78q-4 33 -12 42.5t-27 9.5q-31 0 -42 -28t-11 -93q0 -26 7 -87t8 -70h126v-32h-124v-16q0 -69 -38.5 -108t-132.5 -67v-3h316
q30 0 45 15.5t28 64.5h19l-13 -220h-506v95q50 33 72.5 60.5t22.5 71.5q0 32 -25 107h-61z" />
    <glyph glyph-name="yen.old" horiz-adv-x="571" 
d="M21 302v30h148l-125 223q-27 49 -37 61t-28 19l-17 6v17h380v-17l-25 -7q-26 -8 -36 -16.5t-10 -23.5q0 -19 19 -57l83 -170h3l69 160q17 41 17 65q0 16 -9.5 25.5t-32.5 16.5l-23 7v17h180v-17l-13 -4q-19 -5 -33 -26.5t-42 -82.5l-91 -196h152v-30h-152v-63h152v-31
h-152v-107q0 -45 8.5 -57.5t40.5 -19.5l29 -7v-17h-381v17l29 7q35 8 42 19t7 58v107h-152v31h152v63h-152z" />
    <glyph glyph-name="zero.old" horiz-adv-x="646" 
d="M318 -12q-83 0 -149 30.5t-108.5 99.5t-42.5 169q0 67 18 121t48 89.5t70.5 59.5t83.5 34.5t88 10.5q80 0 146.5 -30.5t111 -100.5t44.5 -170q0 -81 -27.5 -144t-73.5 -98.5t-98.5 -53t-110.5 -17.5zM323 17q55 0 75.5 59.5t20.5 212.5q0 116 -11.5 179.5t-31 84
t-53.5 20.5q-56 0 -76 -57t-20 -217q0 -111 11.5 -174t31.5 -85.5t53 -22.5z" />
    <glyph glyph-name="one.old" horiz-adv-x="345" 
d="M-2 0v17l30 5q28 4 35 16t7 51v378l-65 6v19q121 18 235 107l33 -7v-503q0 -39 7 -51t34 -16l29 -5v-17h-345z" />
    <glyph glyph-name="two.old" horiz-adv-x="525" 
d="M12 0v87q93 56 145 103q73 67 105.5 129.5t32.5 137.5q0 115 -73 115q-38 0 -40 -47q-1 -60 -23.5 -86t-66.5 -26q-34 0 -55.5 20.5t-21.5 55.5q0 47 57 80t167 33q120 0 188 -47.5t68 -128.5q0 -91 -88 -164t-258 -122v-4h342l-10 -136h-469z" />
    <glyph glyph-name="three.old" horiz-adv-x="561" 
d="M226 -124q-218 0 -218 118q0 32 20.5 52t57.5 20q44 0 64.5 -24.5t24.5 -81.5q2 -32 11.5 -44t36.5 -12q81 0 81 180q0 88 -24.5 120.5t-88.5 32.5h-46v32h39q63 0 88 32t25 121q0 90 -12.5 120.5t-47.5 30.5q-22 0 -29.5 -11t-10.5 -36q-5 -61 -27.5 -86t-68.5 -25
q-35 0 -55 19.5t-20 54.5q0 50 58 81.5t169 31.5q258 0 258 -167q0 -64 -45.5 -109.5t-131.5 -61.5v-3q105 -3 153 -53.5t48 -125.5q0 -98 -80 -152t-229 -54z" />
    <glyph glyph-name="four.old" horiz-adv-x="591" 
d="M490 -112h-202v160h-280v52l347 490h135v-470h99l-10 -72h-89v-160zM69 120h219v307h-3l-216 -304v-3z" />
    <glyph glyph-name="five.old" horiz-adv-x="529" 
d="M213 -124q-205 0 -205 112q0 32 20 54t59 22q42 0 63 -25.5t28 -84.5q3 -29 11 -39t34 -10q48 0 79.5 41t31.5 104q0 135 -161 135q-64 0 -110 -17l-12 8l45 414h400l-16 -156h-366l-12 -108q54 21 140 21q130 0 199.5 -59t69.5 -168q0 -107 -84 -175.5t-214 -68.5z" />
    <glyph glyph-name="six.old" horiz-adv-x="616" 
d="M310 -12q-129 0 -208.5 82.5t-79.5 252.5q0 184 95.5 283t265.5 99q94 0 141.5 -30t47.5 -78q0 -34 -20 -53t-57 -19q-44 0 -66 22.5t-26 74.5q-2 33 -10 43t-32 10q-40 0 -65 -23t-42 -90.5t-19 -185.5q66 38 143 38q103 0 160.5 -48t57.5 -148q0 -105 -74.5 -167.5
t-211.5 -62.5zM314 17q43 0 58.5 45.5t15.5 149.5q0 83 -19 114t-67 31q-41 0 -68 -11v-32q0 -170 16 -233.5t64 -63.5z" />
    <glyph glyph-name="seven.old" horiz-adv-x="516" 
d="M97 -112q34 165 120 297.5t218 251.5h-318q-33 0 -46 -12.5t-35 -64.5h-22l16 230h480v-99q-98 -130 -136.5 -269t-47.5 -334h-229z" />
    <glyph glyph-name="eight.old" horiz-adv-x="580" 
d="M281 -12q-125 0 -196 42t-71 120q0 57 37 93.5t121 59.5v4q-133 80 -133 193q0 90 71.5 147.5t187.5 57.5q96 0 168 -40.5t72 -112.5q0 -50 -35.5 -82.5t-104.5 -54.5v-4q90 -44 128 -89.5t38 -116.5q0 -92 -80.5 -154.5t-202.5 -62.5zM367 426q32 41 32 117
q0 63 -30.5 96.5t-79.5 33.5q-48 0 -75.5 -26t-27.5 -70q0 -47 39 -76.5t142 -74.5zM288 19q62 0 96 27.5t34 74.5q0 50 -38.5 78.5t-176.5 91.5q-43 -60 -43 -122q0 -80 31.5 -115t96.5 -35z" />
    <glyph glyph-name="nine.old" horiz-adv-x="617" 
d="M306 602q61 0 111.5 -17.5t92 -55.5t64.5 -105.5t23 -159.5q0 -196 -99 -292t-263 -96q-94 0 -144 31t-50 79q0 34 21.5 54.5t61.5 20.5q41 0 61 -23t27 -82q3 -22 5.5 -30t11 -14t25.5 -6q66 0 96 68t34 238q-62 -41 -148 -41q-102 0 -159 54.5t-57 154.5
q0 102 73.5 162t212.5 60zM302 573q-44 0 -58 -45.5t-14 -149.5q0 -82 20.5 -116t63.5 -34t71 17v26q0 178 -17 240t-66 62z" />
    <glyph glyph-name="percent.old" horiz-adv-x="714" 
d="M72 -46l505 723h42l-505 -723h-42zM189 341q-77 0 -125.5 41.5t-48.5 120.5q0 59 30.5 99.5t69 55.5t78.5 15q73 0 124.5 -43.5t51.5 -121.5q0 -81 -53.5 -124t-126.5 -43zM192 371q26 0 34.5 27t8.5 104q0 85 -9.5 113.5t-33.5 28.5q-23 0 -33.5 -27t-10.5 -108
q0 -82 9.5 -110t34.5 -28zM520 -13q-77 0 -125.5 41.5t-48.5 120.5q0 59 30.5 99.5t69 55.5t78.5 15q73 0 124.5 -43.5t51.5 -121.5q0 -81 -53.5 -124t-126.5 -43zM523 17q26 0 34.5 27t8.5 104q0 85 -9.5 113.5t-33.5 28.5q-23 0 -33.5 -27t-10.5 -108q0 -82 9.5 -110
t34.5 -28z" />
    <glyph glyph-name="perthousand.old" horiz-adv-x="1087" 
d="M72 -46l505 723h42l-505 -723h-42zM188 341q-77 0 -125.5 41.5t-48.5 120.5q0 59 30.5 99.5t69 55.5t78.5 15q73 0 124.5 -43.5t51.5 -121.5q0 -81 -53.5 -124t-126.5 -43zM191 371q26 0 34.5 27t8.5 104q0 85 -9.5 113.5t-33.5 28.5q-23 0 -33.5 -27t-10.5 -108
q0 -82 9.5 -110t34.5 -28zM520 -13q-77 0 -125.5 41.5t-48.5 120.5q0 59 30.5 99.5t69 55.5t78.5 15q73 0 124.5 -43.5t51.5 -121.5q0 -81 -53.5 -124t-126.5 -43zM523 17q26 0 34.5 27t8.5 104q0 85 -9.5 113.5t-33.5 28.5q-23 0 -33.5 -27t-10.5 -108q0 -82 9.5 -110
t34.5 -28zM893 -13q-77 0 -125.5 41.5t-48.5 120.5q0 59 30.5 99.5t69 55.5t78.5 15q73 0 124.5 -43.5t51.5 -121.5q0 -81 -53.5 -124t-126.5 -43zM896 17q26 0 34.5 27t8.5 104q0 85 -9.5 113.5t-33.5 28.5q-23 0 -33.5 -27t-10.5 -108q0 -82 9.5 -110t34.5 -28z" />
    <glyph glyph-name="plus.old" horiz-adv-x="485" 
d="M225 81v191h-181v31h181v190h35v-190h181v-31h-181v-191h-35z" />
    <glyph glyph-name="minus.old" horiz-adv-x="486" 
d="M45 271v33h396v-33h-396z" />
    <glyph glyph-name="multiply.old" horiz-adv-x="455" 
d="M377 468l24 -24l-150 -157l150 -157l-23 -24l-150 157l-150 -157l-24 24l150 157l-149 157l23 24l149 -157z" />
    <glyph glyph-name="divide.old" horiz-adv-x="485" 
d="M44 271v33h397v-33h-397zM242 63q-31 0 -52.5 22t-21.5 52q0 32 21.5 53t52.5 21t52.5 -21t21.5 -53q0 -29 -22 -51.5t-52 -22.5zM242 364q-31 0 -52.5 22t-21.5 52q0 32 21.5 53t52.5 21t52.5 -21t21.5 -53q0 -29 -22 -51.5t-52 -22.5z" />
    <glyph glyph-name="equal.old" horiz-adv-x="547" 
d="M47 340v33h453v-33h-453zM47 201v33h453v-33h-453z" />
    <glyph glyph-name="less.old" horiz-adv-x="476" 
d="M423 100l-377 171v32l377 171v-36l-335 -151l335 -151v-36z" />
    <glyph glyph-name="greater.old" horiz-adv-x="476" 
d="M430 271l-377 -171v36l335 151l-335 151v36l377 -171v-32z" />
    <glyph glyph-name="numbersign.old" horiz-adv-x="440" 
d="M196 0l40 174h-105l-40 -174h-34l40 174h-85l29 119h84l18 80h-83l27 119h84l39 166h34l-39 -166h105l39 166h34l-39 -166h84l-29 -119h-83l-18 -80h85l-29 -119h-84l-40 -174h-34zM177 373l-18 -80h105l18 80h-105z" />
    <glyph glyph-name="zero.num" horiz-adv-x="451" 
d="M221 291q-84 0 -143.5 57t-59.5 144q0 101 61.5 154.5t146.5 53.5q83 0 145 -54.5t62 -148.5q0 -91 -63 -148.5t-149 -57.5zM225 318q19 0 29 12.5t15 49.5t5 111q0 81 -5.5 120.5t-15 50.5t-28.5 11q-18 0 -27.5 -10t-16 -49.5t-6.5 -113.5q0 -79 6 -120t15.5 -51.5
t28.5 -10.5z" />
    <glyph glyph-name="one.num" horiz-adv-x="268" 
d="M5 299v18l16 4q21 6 25.5 13.5t4.5 38.5v201l-44 13v17q54 9 107 35.5t80 58.5l22 -6v-319q0 -31 6 -39t26 -13l16 -4v-18h-259z" />
    <glyph glyph-name="two.num" horiz-adv-x="348" 
d="M10 299v66q71 52 108 93q65 74 65 145q0 69 -33 69q-11 0 -14 -6t-5 -27q-5 -39 -19.5 -54.5t-49.5 -15.5q-24 0 -38.5 14.5t-14.5 36.5q0 36 43 58t118 22q77 0 122 -29.5t45 -87.5q0 -44 -51.5 -86t-181.5 -88v-3h158q19 0 27.5 9t22.5 41h19l-7 -157h-314z" />
    <glyph glyph-name="three.num" horiz-adv-x="365" 
d="M154 291q-69 0 -107 22t-38 60q0 21 14.5 33t39.5 12q32 0 45.5 -16t16.5 -58q1 -17 5.5 -21.5t16.5 -4.5q47 0 47 83q0 49 -18.5 69t-54.5 20h-28v31h25q35 0 51 19t16 61q0 72 -31 72q-11 0 -14.5 -4.5t-6.5 -20.5q-6 -34 -19.5 -49.5t-41.5 -15.5q-50 0 -50 45
q0 31 36 51.5t105 20.5q166 0 166 -98q0 -34 -28.5 -56.5t-84.5 -29.5v-3q67 -8 98.5 -32.5t31.5 -74.5q0 -51 -49 -83t-143 -32z" />
    <glyph glyph-name="four.num" horiz-adv-x="384" 
d="M117 299v18l16 4q22 5 26.5 12.5t4.5 39.5v34h-158v34l205 252h110v-239h57l-4 -47h-53v-34q0 -32 4.5 -39.5t26.5 -12.5l18 -4v-18h-253zM57 454h107v133h-2l-105 -131v-2z" />
    <glyph glyph-name="five.num" horiz-adv-x="353" 
d="M139 291q-67 0 -97.5 19.5t-30.5 50.5q0 45 53 45q26 0 38.5 -13.5t17.5 -44.5q3 -19 8.5 -24t21.5 -5q52 0 52 59q0 33 -24 50.5t-63 17.5q-46 0 -72 -12l-9 5l29 254l195 -1q17 0 24.5 7t19.5 31h20l-13 -134l-226 1l-5 -45q30 10 88 10q82 0 124.5 -33t42.5 -93
q0 -62 -51 -103.5t-143 -41.5z" />
    <glyph glyph-name="six.num" horiz-adv-x="407" 
d="M213 291q-91 0 -143 48t-52 146q0 107 68 161t167 54q60 0 91 -20t31 -52q0 -47 -58 -47q-31 0 -42 14t-15 49q-2 17 -7 23t-17 6q-29 0 -44 -31.5t-17 -123.5q40 20 87 20q59 0 94 -29t35 -87q0 -57 -45.5 -94t-132.5 -37zM209 317q20 0 26.5 18.5t6.5 77.5q0 35 -7 54
t-15 23.5t-21 4.5q-14 0 -24 -4v-10q0 -74 3.5 -109.5t10 -45t20.5 -9.5z" />
    <glyph glyph-name="seven.num" horiz-adv-x="340" 
d="M57 299q31 169 215 293h-181q-25 0 -35 -9t-25 -45h-20l10 155h304v-67q-58 -67 -78 -145t-21 -182h-169z" />
    <glyph glyph-name="eight.num" horiz-adv-x="393" 
d="M191 292q-85 0 -129 24.5t-44 64.5q0 29 25.5 50.5t70.5 30.5v3q-45 20 -62.5 45t-17.5 63q0 60 53 93.5t118 33.5q63 0 107 -21t44 -64q0 -24 -25 -43t-57 -26v-3q100 -43 100 -114q0 -58 -51.5 -97.5t-131.5 -39.5zM196 319q25 0 44 12t19 37q0 26 -22.5 43t-94.5 44
q-17 -22 -17 -60q0 -76 71 -76zM241 555q13 16 13 54q0 64 -55 64q-25 0 -40.5 -12t-15.5 -31q0 -24 20.5 -40.5t77.5 -34.5z" />
    <glyph glyph-name="nine.num" horiz-adv-x="407" 
d="M194 699q91 0 143 -48t52 -146q0 -109 -64.5 -162t-168.5 -53q-61 0 -92 20t-31 52q0 47 59 47q30 0 41.5 -14.5t15.5 -48.5q2 -18 6 -23.5t16 -5.5q34 0 46 29t14 126q-38 -20 -86 -20q-59 0 -94 29t-35 87q0 57 45.5 94t132.5 37zM198 673q-20 0 -26.5 -18.5
t-6.5 -77.5q0 -35 7 -54t15 -23.5t21 -4.5t23 4v10q0 74 -3.5 109.5t-10 45t-19.5 9.5z" />
    <glyph glyph-name="zero.den" horiz-adv-x="451" 
d="M221 -8q-84 0 -143.5 57t-59.5 144q0 101 61.5 154.5t146.5 53.5q83 0 145 -54.5t62 -148.5q0 -91 -63 -148.5t-149 -57.5zM225 19q19 0 29 12.5t15 49.5t5 111q0 81 -5.5 120.5t-15 50.5t-28.5 11q-18 0 -27.5 -10t-16 -49.5t-6.5 -113.5q0 -79 6 -120t15.5 -51.5
t28.5 -10.5z" />
    <glyph glyph-name="one.den" horiz-adv-x="268" 
d="M5 0v18l16 4q21 6 25.5 13.5t4.5 38.5v201l-44 13v17q54 9 107 35.5t80 58.5l22 -6v-319q0 -31 6 -39t26 -13l16 -4v-18h-259z" />
    <glyph glyph-name="two.den" horiz-adv-x="348" 
d="M10 0v66q71 52 108 93q65 74 65 145q0 69 -33 69q-11 0 -14 -6t-5 -27q-5 -39 -19.5 -54.5t-49.5 -15.5q-24 0 -38.5 14.5t-14.5 36.5q0 36 43 58t118 22q77 0 122 -29.5t45 -87.5q0 -44 -51.5 -86t-181.5 -88v-3h158q19 0 27.5 9t22.5 41h19l-7 -157h-314z" />
    <glyph glyph-name="three.den" horiz-adv-x="365" 
d="M154 -8q-69 0 -107 22t-38 60q0 21 14.5 33t39.5 12q32 0 45.5 -16t16.5 -58q1 -17 5.5 -21.5t16.5 -4.5q47 0 47 83q0 49 -18.5 69t-54.5 20h-28v31h25q35 0 51 19t16 61q0 72 -31 72q-11 0 -14.5 -4.5t-6.5 -20.5q-6 -34 -19.5 -49.5t-41.5 -15.5q-50 0 -50 45
q0 31 36 51.5t105 20.5q166 0 166 -98q0 -34 -28.5 -56.5t-84.5 -29.5v-3q67 -8 98.5 -32.5t31.5 -74.5q0 -51 -49 -83t-143 -32z" />
    <glyph glyph-name="four.den" horiz-adv-x="384" 
d="M117 0v18l16 4q22 5 26.5 12.5t4.5 39.5v34h-158v34l205 252h110v-239h57l-4 -47h-53v-34q0 -32 4.5 -39.5t26.5 -12.5l18 -4v-18h-253zM57 155h107v133h-2l-105 -131v-2z" />
    <glyph glyph-name="five.den" horiz-adv-x="353" 
d="M139 -8q-67 0 -97.5 19.5t-30.5 50.5q0 45 53 45q26 0 38.5 -13.5t17.5 -44.5q3 -19 8.5 -24t21.5 -5q52 0 52 59q0 33 -24 50.5t-63 17.5q-46 0 -72 -12l-9 5l29 254l195 -1q17 0 24.5 7t19.5 31h20l-13 -134l-226 1l-5 -45q30 10 88 10q82 0 124.5 -33t42.5 -93
q0 -62 -51 -103.5t-143 -41.5z" />
    <glyph glyph-name="six.den" horiz-adv-x="407" 
d="M213 -8q-91 0 -143 48t-52 146q0 107 68 161t167 54q60 0 91 -20t31 -52q0 -47 -58 -47q-31 0 -42 14t-15 49q-2 17 -7 23t-17 6q-29 0 -44 -31.5t-17 -123.5q40 20 87 20q59 0 94 -29t35 -87q0 -57 -45.5 -94t-132.5 -37zM209 18q20 0 26.5 18.5t6.5 77.5q0 35 -7 54
t-15 23.5t-21 4.5q-14 0 -24 -4v-10q0 -74 3.5 -109.5t10 -45t20.5 -9.5z" />
    <glyph glyph-name="seven.den" horiz-adv-x="340" 
d="M57 0q31 169 215 293h-181q-25 0 -35 -9t-25 -45h-20l10 155h304v-67q-58 -67 -78 -145t-21 -182h-169z" />
    <glyph glyph-name="eight.den" horiz-adv-x="393" 
d="M191 -7q-85 0 -129 24.5t-44 64.5q0 29 25.5 50.5t70.5 30.5v3q-45 20 -62.5 45t-17.5 63q0 60 53 93.5t118 33.5q63 0 107 -21t44 -64q0 -24 -25 -43t-57 -26v-3q100 -43 100 -114q0 -58 -51.5 -97.5t-131.5 -39.5zM196 20q25 0 44 12t19 37q0 26 -22.5 43t-94.5 44
q-17 -22 -17 -60q0 -76 71 -76zM241 256q13 16 13 54q0 64 -55 64q-25 0 -40.5 -12t-15.5 -31q0 -24 20.5 -40.5t77.5 -34.5z" />
    <glyph glyph-name="nine.den" horiz-adv-x="407" 
d="M194 400q91 0 143 -48t52 -146q0 -109 -64.5 -162t-168.5 -53q-61 0 -92 20t-31 52q0 47 59 47q30 0 41.5 -14.5t15.5 -48.5q2 -18 6 -23.5t16 -5.5q34 0 46 29t14 126q-37 -20 -86 -20q-59 0 -94 29t-35 87q0 57 45.5 94t132.5 37zM198 374q-20 0 -26.5 -18.5
t-6.5 -77.5q0 -35 7 -54t15 -23.5t21 -4.5t23 4v10q0 74 -3.5 109.5t-10 45t-19.5 9.5z" />
    <glyph glyph-name="zero.sub" horiz-adv-x="451" 
d="M221 -57q-84 0 -143.5 57t-59.5 144q0 101 61.5 154.5t146.5 53.5q83 0 145 -54.5t62 -148.5q0 -91 -63 -148.5t-149 -57.5zM225 -30q19 0 29 12.5t15 49.5t5 111q0 81 -5.5 120.5t-15 50.5t-28.5 11q-18 0 -27.5 -10t-16 -49.5t-6.5 -113.5q0 -79 6 -120t15.5 -51.5
t28.5 -10.5z" />
    <glyph glyph-name="one.sub" horiz-adv-x="268" 
d="M5 -49v18l16 4q21 6 25.5 13.5t4.5 38.5v201l-44 13v17q54 9 107 35.5t80 58.5l22 -6v-319q0 -31 6 -39t26 -13l16 -4v-18h-259z" />
    <glyph glyph-name="two.sub" horiz-adv-x="348" 
d="M10 -49v66q71 52 108 93q65 74 65 145q0 69 -33 69q-11 0 -14 -6t-5 -27q-5 -39 -19.5 -54.5t-49.5 -15.5q-24 0 -38.5 14.5t-14.5 36.5q0 36 43 58t118 22q77 0 122 -29.5t45 -87.5q0 -44 -51.5 -86t-181.5 -88v-3h158q19 0 27.5 9t22.5 41h19l-7 -157h-314z" />
    <glyph glyph-name="three.sub" horiz-adv-x="365" 
d="M154 -57q-69 0 -107 22t-38 60q0 21 14.5 33t39.5 12q32 0 45.5 -16t16.5 -58q1 -17 5.5 -21.5t16.5 -4.5q47 0 47 83q0 49 -18.5 69t-54.5 20h-28v31h25q35 0 51 19t16 61q0 72 -31 72q-11 0 -14.5 -4.5t-6.5 -20.5q-6 -34 -19.5 -49.5t-41.5 -15.5q-50 0 -50 45
q0 31 36 51.5t105 20.5q166 0 166 -98q0 -34 -28.5 -56.5t-84.5 -29.5v-3q67 -8 98.5 -32.5t31.5 -74.5q0 -51 -49 -83t-143 -32z" />
    <glyph glyph-name="four.sub" horiz-adv-x="384" 
d="M117 -49v18l16 4q22 5 26.5 12.5t4.5 39.5v34h-158v34l205 252h110v-239h57l-4 -47h-53v-34q0 -32 4.5 -39.5t26.5 -12.5l18 -4v-18h-253zM57 106h107v133h-2l-105 -131v-2z" />
    <glyph glyph-name="five.sub" horiz-adv-x="353" 
d="M139 -57q-67 0 -97.5 19.5t-30.5 50.5q0 45 53 45q26 0 38.5 -13.5t17.5 -44.5q3 -19 8.5 -24t21.5 -5q52 0 52 59q0 33 -24 50.5t-63 17.5q-46 0 -72 -12l-9 5l29 254l195 -1q17 0 24.5 7t19.5 31h20l-13 -134l-226 1l-5 -45q30 10 88 10q82 0 124.5 -33t42.5 -93
q0 -62 -51 -103.5t-143 -41.5z" />
    <glyph glyph-name="six.sub" horiz-adv-x="407" 
d="M213 -57q-91 0 -143 48t-52 146q0 107 68 161t167 54q60 0 91 -20t31 -52q0 -47 -58 -47q-31 0 -42 14t-15 49q-2 17 -7 23t-17 6q-29 0 -44 -31.5t-17 -123.5q40 20 87 20q59 0 94 -29t35 -87q0 -57 -45.5 -94t-132.5 -37zM209 -31q20 0 26.5 18.5t6.5 77.5q0 35 -7 54
t-15 23.5t-21 4.5q-14 0 -24 -4v-10q0 -74 3.5 -109.5t10 -45t20.5 -9.5z" />
    <glyph glyph-name="seven.sub" horiz-adv-x="340" 
d="M57 -49q31 169 215 293h-181q-25 0 -35 -9t-25 -45h-20l10 155h304v-67q-58 -67 -78 -145t-21 -182h-169z" />
    <glyph glyph-name="eight.sub" horiz-adv-x="393" 
d="M191 -56q-85 0 -129 24.5t-44 64.5q0 29 25.5 50.5t70.5 30.5v3q-45 20 -62.5 45t-17.5 63q0 60 53 93.5t118 33.5q63 0 107 -21t44 -64q0 -24 -25 -43t-57 -26v-3q100 -43 100 -114q0 -58 -51.5 -97.5t-131.5 -39.5zM196 -29q25 0 44 12t19 37q0 26 -22.5 43t-94.5 44
q-17 -22 -17 -60q0 -76 71 -76zM241 207q13 16 13 54q0 64 -55 64q-25 0 -40.5 -12t-15.5 -31q0 -24 20.5 -40.5t77.5 -34.5z" />
    <glyph glyph-name="nine.sub" horiz-adv-x="407" 
d="M194 351q91 0 143 -48t52 -146q0 -109 -64.5 -162t-168.5 -53q-61 0 -92 20t-31 52q0 47 59 47q30 0 41.5 -14.5t15.5 -48.5q2 -18 6 -23.5t16 -5.5q34 0 46 29t14 126q-37 -20 -86 -20q-59 0 -94 29t-35 87q0 57 45.5 94t132.5 37zM198 325q-20 0 -26.5 -18.5
t-6.5 -77.5q0 -35 7 -54t15 -23.5t21 -4.5t23 4v10q0 74 -3.5 109.5t-10 45t-19.5 9.5z" />
    <glyph glyph-name="zero.sup" horiz-adv-x="451" 
d="M221 398q-84 0 -143.5 57t-59.5 144q0 101 61.5 154.5t146.5 53.5q83 0 145 -54.5t62 -148.5q0 -91 -63 -148.5t-149 -57.5zM225 425q19 0 29 12.5t15 49.5t5 111q0 81 -5.5 120.5t-15 50.5t-28.5 11q-18 0 -27.5 -10t-16 -49.5t-6.5 -113.5q0 -79 6 -120t15.5 -51.5
t28.5 -10.5z" />
    <glyph glyph-name="one.sup" horiz-adv-x="268" 
d="M5 406v18l16 4q21 6 25.5 13.5t4.5 38.5v201l-44 13v17q54 9 107 35.5t80 58.5l22 -6v-319q0 -31 6 -39t26 -13l16 -4v-18h-259z" />
    <glyph glyph-name="two.sup" horiz-adv-x="348" 
d="M10 406v66q71 52 108 93q65 74 65 145q0 69 -33 69q-11 0 -14 -6t-5 -27q-5 -39 -19.5 -54.5t-49.5 -15.5q-24 0 -38.5 14.5t-14.5 36.5q0 36 43 58t118 22q77 0 122 -29.5t45 -87.5q0 -44 -51.5 -86t-181.5 -88v-3h158q19 0 27.5 9t22.5 41h19l-7 -157h-314z" />
    <glyph glyph-name="three.sup" horiz-adv-x="365" 
d="M154 398q-69 0 -107 22t-38 60q0 21 14.5 33t39.5 12q32 0 45.5 -16t16.5 -58q1 -17 5.5 -21.5t16.5 -4.5q47 0 47 83q0 49 -18.5 69t-54.5 20h-28v31h25q35 0 51 19t16 61q0 72 -31 72q-11 0 -14.5 -4.5t-6.5 -20.5q-6 -34 -19.5 -49.5t-41.5 -15.5q-50 0 -50 45
q0 31 36 51.5t105 20.5q166 0 166 -98q0 -34 -28.5 -56.5t-84.5 -29.5v-3q67 -8 98.5 -32.5t31.5 -74.5q0 -51 -49 -83t-143 -32z" />
    <glyph glyph-name="four.sup" horiz-adv-x="384" 
d="M117 406v18l16 4q22 5 26.5 12.5t4.5 39.5v34h-158v34l205 252h110v-239h57l-4 -47h-53v-34q0 -32 4.5 -39.5t26.5 -12.5l18 -4v-18h-253zM57 561h107v133h-2l-105 -131v-2z" />
    <glyph glyph-name="five.sup" horiz-adv-x="353" 
d="M139 398q-67 0 -97.5 19.5t-30.5 50.5q0 45 53 45q26 0 38.5 -13.5t17.5 -44.5q3 -19 8.5 -24t21.5 -5q52 0 52 59q0 33 -24 50.5t-63 17.5q-46 0 -72 -12l-9 5l29 254l195 -1q17 0 24.5 7t19.5 31h20l-13 -134l-226 1l-5 -45q30 10 88 10q82 0 124.5 -33t42.5 -93
q0 -62 -51 -103.5t-143 -41.5z" />
    <glyph glyph-name="six.sup" horiz-adv-x="407" 
d="M213 398q-91 0 -143 48t-52 146q0 107 68 161t167 54q60 0 91 -20t31 -52q0 -47 -58 -47q-31 0 -42 14t-15 49q-2 17 -7 23t-17 6q-29 0 -44 -31.5t-17 -123.5q40 20 87 20q59 0 94 -29t35 -87q0 -57 -45.5 -94t-132.5 -37zM209 424q20 0 26.5 18.5t6.5 77.5q0 35 -7 54
t-15 23.5t-21 4.5q-14 0 -24 -4v-10q0 -74 3.5 -109.5t10 -45t20.5 -9.5z" />
    <glyph glyph-name="seven.sup" horiz-adv-x="340" 
d="M57 406q31 169 215 293h-181q-25 0 -35 -9t-25 -45h-20l10 155h304v-67q-58 -67 -78 -145t-21 -182h-169z" />
    <glyph glyph-name="eight.sup" horiz-adv-x="393" 
d="M191 399q-85 0 -129 24.5t-44 64.5q0 29 25.5 50.5t70.5 30.5v3q-45 20 -62.5 45t-17.5 63q0 60 53 93.5t118 33.5q63 0 107 -21t44 -64q0 -24 -25 -43t-57 -26v-3q100 -43 100 -114q0 -58 -51.5 -97.5t-131.5 -39.5zM196 426q25 0 44 12t19 37q0 26 -22.5 43t-94.5 44
q-17 -22 -17 -60q0 -76 71 -76zM241 662q13 16 13 54q0 64 -55 64q-25 0 -40.5 -12t-15.5 -31q0 -24 20.5 -40.5t77.5 -34.5z" />
    <glyph glyph-name="nine.sup" horiz-adv-x="407" 
d="M194 806q91 0 143 -48t52 -146q0 -109 -64.5 -162t-168.5 -53q-61 0 -92 20t-31 52q0 47 59 47q30 0 41.5 -14.5t15.5 -48.5q2 -18 6 -23.5t16 -5.5q34 0 46 29t14 126q-38 -20 -86 -20q-59 0 -94 29t-35 87q0 57 45.5 94t132.5 37zM198 780q-20 0 -26.5 -18.5
t-6.5 -77.5q0 -35 7 -54t15 -23.5t21 -4.5t23 4v10q0 74 -3.5 109.5t-10 45t-19.5 9.5z" />
    <glyph glyph-name="J.alt" horiz-adv-x="380" 
d="M28 -190q-85 0 -125.5 30t-40.5 77q0 35 22 53.5t60 18.5q45 0 66 -25t26 -101q1 -20 14 -20q26 0 26 69v676q0 50 -6.5 62.5t-35.5 18.5l-29 7v17h370v-17l-28 -7q-30 -8 -36.5 -19.5t-6.5 -61.5v-513q0 -120 -73.5 -192.5t-202.5 -72.5z" />
    <glyph glyph-name="R.alt" horiz-adv-x="738" 
d="M5 0v17l27 7q29 8 36.5 20t7.5 61v483q0 49 -7.5 61t-36.5 20l-27 7v17h353q166 0 237 -43.5t71 -140.5q0 -78 -49 -117.5t-160 -56.5v-3q50 -8 80.5 -20.5t53.5 -37.5q33 -36 68.5 -120.5t46.5 -101.5q16 -24 34 -30l15 -5v-17h-283q-14 35 -38 124t-40 131
q-20 55 -68 55h-20v-205q0 -50 6 -62t32 -19l27 -7v-17h-366zM344 341q51 0 71.5 33t20.5 121q0 92 -18 126.5t-68 34.5q-26 0 -44 -4v-308q21 -3 38 -3z" />
    <glyph glyph-name="Jcircumflex.alt" horiz-adv-x="380" 
d="M28 -190q-85 0 -125.5 30t-40.5 77q0 35 22 53.5t60 18.5q45 0 66 -25t26 -101q1 -20 14 -20q26 0 26 69v676q0 50 -6.5 62.5t-35.5 18.5l-29 7v17h370v-17l-28 -7q-30 -8 -36.5 -19.5t-6.5 -61.5v-513q0 -120 -73.5 -192.5t-202.5 -72.5zM27 723l-6 10l137 148h62
l137 -148l-6 -10l-162 44z" />
    <glyph glyph-name="IJ.alt" horiz-adv-x="766" 
d="M5 0v17l30 7q30 7 37 19t7 62v483q0 50 -7 62t-37 19l-30 7v17h376v-17l-30 -7q-30 -7 -37 -19t-7 -62v-483q0 -50 7 -62t37 -19l30 -7v-17h-376zM414 -190q-85 0 -125.5 30t-40.5 77q0 35 22 53.5t60 18.5q45 0 66 -25t26 -101q1 -20 14 -20q26 0 26 69v676
q0 50 -6.5 62.5t-35.5 18.5l-29 7v17h370v-17l-28 -7q-30 -8 -36.5 -19.5t-6.5 -61.5v-513q0 -120 -73.5 -192.5t-202.5 -72.5z" />
    <glyph glyph-name="Racute.alt" horiz-adv-x="738" 
d="M5 0v17l27 7q29 8 36.5 20t7.5 61v483q0 49 -7.5 61t-36.5 20l-27 7v17h353q166 0 237 -43.5t71 -140.5q0 -78 -49 -117.5t-160 -56.5v-3q50 -8 80.5 -20.5t53.5 -37.5q33 -36 68.5 -120.5t46.5 -101.5q16 -24 34 -30l15 -5v-17h-283q-14 35 -38 124t-40 131
q-20 55 -68 55h-20v-205q0 -50 6 -62t32 -19l27 -7v-17h-366zM344 341q51 0 71.5 33t20.5 121q0 92 -18 126.5t-68 34.5q-26 0 -44 -4v-308q21 -3 38 -3zM244 723l-4 10l122 126q28 30 61 30q30 0 50.5 -22t20.5 -53q0 -27 -16.5 -44t-45.5 -21z" />
    <glyph glyph-name="Rcaron.alt" horiz-adv-x="738" 
d="M5 0v17l27 7q29 8 36.5 20t7.5 61v483q0 49 -7.5 61t-36.5 20l-27 7v17h353q166 0 237 -43.5t71 -140.5q0 -78 -49 -117.5t-160 -56.5v-3q50 -8 80.5 -20.5t53.5 -37.5q33 -36 68.5 -120.5t46.5 -101.5q16 -24 34 -30l15 -5v-17h-283q-14 35 -38 124t-40 131
q-20 55 -68 55h-20v-205q0 -50 6 -62t32 -19l27 -7v-17h-366zM344 341q51 0 71.5 33t20.5 121q0 92 -18 126.5t-68 34.5q-26 0 -44 -4v-308q21 -3 38 -3zM184 879l6 10l162 -44l162 44l6 -10l-137 -148h-62z" />
    <glyph glyph-name="Rcommaaccent.alt" horiz-adv-x="738" 
d="M5 0v17l27 7q29 8 36.5 20t7.5 61v483q0 49 -7.5 61t-36.5 20l-27 7v17h353q166 0 237 -43.5t71 -140.5q0 -78 -49 -117.5t-160 -56.5v-3q50 -8 80.5 -20.5t53.5 -37.5q33 -36 68.5 -120.5t46.5 -101.5q16 -24 34 -30l15 -5v-17h-283q-14 35 -38 124t-40 131
q-20 55 -68 55h-20v-205q0 -50 6 -62t32 -19l27 -7v-17h-366zM344 341q51 0 71.5 33t20.5 121q0 92 -18 126.5t-68 34.5q-26 0 -44 -4v-308q21 -3 38 -3zM272 -253l-2 11q102 26 112 95q-15 -15 -41 -15q-27 0 -44 16.5t-17 42.5t22.5 45.5t58.5 19.5q38 0 64 -24.5
t26 -60.5q0 -57 -47 -91t-132 -39z" />
    <glyph glyph-name="f.short" horiz-adv-x="357" 
d="M-1 0v17l18 5q30 8 36 16.5t6 43.5v390h-65v12l65 42v15q0 102 54 162t173 60q67 0 101 -25.5t34 -65.5q0 -31 -17 -47.5t-45 -16.5q-34 0 -50.5 17t-19.5 63q-1 26 -5 35.5t-13 9.5q-6 0 -9 -4.5t-4.5 -22t-1.5 -53.5v-127h93l-8 -54h-85v-390q0 -33 6 -41t33 -16l29 -8
v-17h-325z" />
    <glyph glyph-name="f_f.short" horiz-adv-x="681" 
d="M318 750q89 0 129 -38q57 51 163 51q67 0 101 -25.5t34 -65.5q0 -31 -17 -47.5t-45 -16.5q-34 0 -50.5 17t-19.5 63q-1 26 -5 35.5t-13 9.5q-6 0 -9 -4.5t-4.5 -22t-1.5 -53.5v-127h93l-8 -54h-85v-390q0 -33 6 -41t33 -16l29 -8v-17h-316v17l15 4q26 7 31 15t5 46v390
h-127v-390q0 -36 5 -45t31 -16l15 -4v-17h-308v17l18 5q30 8 36 16.5t6 43.5v390h-65v12l65 42v12q0 97 67 154.5t192 57.5zM383 526v15q0 24 3 48q-30 4 -41.5 25.5t-13.5 70.5q-1 22 -6 28.5t-14 6.5q-28 0 -41.5 -25t-13.5 -85v-84h127z" />
    <glyph glyph-name="g.short" horiz-adv-x="536" 
d="M215 -204q-231 0 -231 106q0 37 34 62t98 32v2q-100 25 -100 110q0 41 24 73.5t57 52.5v2q-82 43 -82 128q0 81 63.5 128t163.5 47q76 0 136 -30q48 54 95 54q29 0 45 -15.5t16 -41.5q0 -25 -12.5 -38t-30.5 -13q-32 0 -50 32q-10 17 -19 18.5t-26 -10.5v-2
q73 -49 73 -114q0 -82 -63.5 -128.5t-163.5 -46.5q-72 0 -125 21q-15 -20 -15 -42q0 -27 43 -27h204q175 0 175 -139q0 -103 -86 -162t-223 -59zM238 -175q168 0 168 96q0 37 -22.5 53t-71.5 16h-174q-18 -20 -18 -72q0 -93 118 -93zM242 232q30 0 39.5 26t9.5 112
q0 87 -10.5 114t-38.5 27q-30 0 -39.5 -26t-9.5 -112t10 -113.5t39 -27.5z" />
    <glyph glyph-name="gbreve.short" horiz-adv-x="536" 
d="M215 -204q-231 0 -231 106q0 37 34 62t98 32v2q-100 25 -100 110q0 41 24 73.5t57 52.5v2q-82 43 -82 128q0 81 63.5 128t163.5 47q76 0 136 -30q48 54 95 54q29 0 45 -15.5t16 -41.5q0 -25 -12.5 -38t-30.5 -13q-32 0 -50 32q-10 17 -19 18.5t-26 -10.5v-2
q73 -49 73 -114q0 -82 -63.5 -128.5t-163.5 -46.5q-72 0 -125 21q-15 -20 -15 -42q0 -27 43 -27h204q175 0 175 -139q0 -103 -86 -162t-223 -59zM238 -175q168 0 168 96q0 37 -22.5 53t-71.5 16h-174q-18 -20 -18 -72q0 -93 118 -93zM242 232q30 0 39.5 26t9.5 112
q0 87 -10.5 114t-38.5 27q-30 0 -39.5 -26t-9.5 -112t10 -113.5t39 -27.5zM253 574q-54 0 -87 43.5t-46 115.5l11 4q18 -32 46.5 -45t76.5 -13q89 0 123 58l11 -4q-10 -71 -44.5 -115t-90.5 -44z" />
    <glyph glyph-name="gcircumflex.short" horiz-adv-x="536" 
d="M215 -204q-231 0 -231 106q0 37 34 62t98 32v2q-100 25 -100 110q0 41 24 73.5t57 52.5v2q-82 43 -82 128q0 81 63.5 128t163.5 47q76 0 136 -30q48 54 95 54q29 0 45 -15.5t16 -41.5q0 -25 -12.5 -38t-30.5 -13q-32 0 -50 32q-10 17 -19 18.5t-26 -10.5v-2
q73 -49 73 -114q0 -82 -63.5 -128.5t-163.5 -46.5q-72 0 -125 21q-15 -20 -15 -42q0 -27 43 -27h204q175 0 175 -139q0 -103 -86 -162t-223 -59zM238 -175q168 0 168 96q0 37 -22.5 53t-71.5 16h-174q-18 -20 -18 -72q0 -93 118 -93zM242 232q30 0 39.5 26t9.5 112
q0 87 -10.5 114t-38.5 27q-30 0 -39.5 -26t-9.5 -112t10 -113.5t39 -27.5zM223 742h58l123 -161l-5 -9l-147 56l-147 -56l-5 9z" />
    <glyph glyph-name="gcommaaccent.short" horiz-adv-x="536" 
d="M215 -204q-231 0 -231 106q0 37 34 62t98 32v2q-100 25 -100 110q0 41 24 73.5t57 52.5v2q-82 43 -82 128q0 81 63.5 128t163.5 47q76 0 136 -30q48 54 95 54q29 0 45 -15.5t16 -41.5q0 -25 -12.5 -38t-30.5 -13q-32 0 -50 32q-10 17 -19 18.5t-26 -10.5v-2
q73 -49 73 -114q0 -82 -63.5 -128.5t-163.5 -46.5q-72 0 -125 21q-15 -20 -15 -42q0 -27 43 -27h204q175 0 175 -139q0 -103 -86 -162t-223 -59zM238 -175q168 0 168 96q0 37 -22.5 53t-71.5 16h-174q-18 -20 -18 -72q0 -93 118 -93zM242 232q30 0 39.5 26t9.5 112
q0 87 -10.5 114t-38.5 27q-30 0 -39.5 -26t-9.5 -112t10 -113.5t39 -27.5zM346 774l2 -11q-102 -26 -112 -95q15 15 41 15q27 0 44 -16.5t17 -42.5t-22.5 -45.5t-58.5 -19.5q-38 0 -64 24.5t-26 60.5q0 57 47 91t132 39z" />
    <glyph glyph-name="gdotaccent.short" horiz-adv-x="536" 
d="M215 -204q-231 0 -231 106q0 37 34 62t98 32v2q-100 25 -100 110q0 41 24 73.5t57 52.5v2q-82 43 -82 128q0 81 63.5 128t163.5 47q76 0 136 -30q48 54 95 54q29 0 45 -15.5t16 -41.5q0 -25 -12.5 -38t-30.5 -13q-32 0 -50 32q-10 17 -19 18.5t-26 -10.5v-2
q73 -49 73 -114q0 -82 -63.5 -128.5t-163.5 -46.5q-72 0 -125 21q-15 -20 -15 -42q0 -27 43 -27h204q175 0 175 -139q0 -103 -86 -162t-223 -59zM238 -175q168 0 168 96q0 37 -22.5 53t-71.5 16h-174q-18 -20 -18 -72q0 -93 118 -93zM242 232q30 0 39.5 26t9.5 112
q0 87 -10.5 114t-38.5 27q-30 0 -39.5 -26t-9.5 -112t10 -113.5t39 -27.5zM149 654q0 40 28 64.5t69 24.5q42 0 69.5 -24.5t27.5 -64.5t-27.5 -64.5t-69.5 -24.5t-69.5 24.5t-27.5 64.5z" />
    <glyph glyph-name="registered.alt" horiz-adv-x="770" 
d="M182 150v17l16 4q16 4 20.5 11t4.5 35v266q0 27 -4.5 34t-20.5 12l-16 3v18h206q175 0 175 -108q0 -40 -16.5 -62t-53.5 -33v-3q35 -88 85 -161q6 -8 22 -13l8 -3v-17h-153q-19 27 -42.5 79t-36.5 90q-13 0 -23 1v-103q0 -28 4 -35t20 -11l15 -4v-17h-210zM376 344
q30 0 43.5 19t13.5 69t-10.5 70.5t-40.5 20.5q-17 0 -29 -3v-174q10 -2 23 -2zM28 344q0 150 103 254.5t254 104.5t254 -104.5t103 -254.5t-103 -254t-254 -104t-254 104t-103 254zM65 344q0 -136 92 -232t228 -96t228 96t92 232t-92 232.5t-228 96.5t-228 -96.5t-92 -232.5
z" />
    <glyph glyph-name="questiondown.uc" horiz-adv-x="473" 
d="M330 471v-190q-67 -20 -101 -53.5t-34 -102.5q0 -102 67 -102q14 0 19 9t8 38q6 57 27.5 79t70.5 22q37 0 56.5 -19.5t19.5 -49.5q0 -51 -57 -80.5t-155 -29.5q-107 0 -168 48.5t-61 140.5t69 154.5t203 86.5v49h36zM398 609q0 -41 -28 -68t-68 -27q-39 0 -67.5 27
t-28.5 68q0 39 29 67t67 28q40 0 68 -27.5t28 -67.5z" />
    <glyph glyph-name="exclamdown.uc" horiz-adv-x="286" 
d="M37 159l95 311h22l95 -311q25 -82 -6 -124.5t-99 -42.5q-69 0 -100.5 42.5t-6.5 124.5zM47 608q0 39 29 67t67 28q40 0 68 -27.5t28 -67.5q0 -41 -28 -68t-68 -27q-39 0 -67.5 27t-28.5 68z" />
    <glyph glyph-name="hyphen.uc" horiz-adv-x="294" 
d="M16 288l12 114h250l-14 -114h-248z" />
    <glyph glyph-name="endash.uc" horiz-adv-x="401" 
d="M31 329v37h339v-37h-339z" />
    <glyph glyph-name="emdash.uc" horiz-adv-x="645" 
d="M31 329v37h583v-37h-583z" />
    <glyph glyph-name="guilsinglleft.uc" horiz-adv-x="240" 
d="M192 124l-178 205v5l178 205h20l-82 -206l82 -209h-20z" />
    <glyph glyph-name="guilsinglright.uc" horiz-adv-x="240" 
d="M48 124h-20l82 209l-82 206h20l178 -205v-5z" />
    <glyph glyph-name="guillemotleft.uc" horiz-adv-x="403" 
d="M192 124l-178 205v5l178 205h20l-82 -206l82 -209h-20zM355 124l-177 205v5l177 205h20l-82 -206l82 -209h-20z" />
    <glyph glyph-name="guillemotright.uc" horiz-adv-x="403" 
d="M389 332l-178 -205h-20l82 206l-82 209h20l178 -205v-5zM225 332l-177 -205h-20l82 206l-82 209h20l177 -205v-5z" />
    <glyph glyph-name="parenleft.uc" horiz-adv-x="304" 
d="M284 -97q-34 23 -65.5 49.5t-67 68t-61 87t-42.5 107.5t-17 128q0 75 25 148t64.5 130t81 99t82.5 69l9 -10q-65 -61 -106.5 -173t-41.5 -240q0 -157 39 -263t110 -190z" />
    <glyph glyph-name="parenright.uc" horiz-adv-x="304" 
d="M20 789q41 -27 82.5 -69t81 -99t64.5 -130t25 -148q0 -66 -17 -128t-42.5 -107.5t-61 -87t-67 -68t-65.5 -49.5l-10 10q71 84 110 190t39 263q0 128 -41.5 240t-106.5 173z" />
    <glyph glyph-name="bracketleft.uc" horiz-adv-x="321" 
d="M173 674v-655q0 -51 12.5 -64t62.5 -18l62 -6v-17h-238v864h238v-17l-62 -6q-50 -5 -62.5 -17.5t-12.5 -63.5z" />
    <glyph glyph-name="bracketright.uc" horiz-adv-x="321" 
d="M148 19v655q0 51 -12.5 63.5t-62.5 17.5l-62 6v17h238v-864h-238v17l62 6q50 5 62.5 18t12.5 64z" />
    <glyph glyph-name="braceleft.uc" horiz-adv-x="346" 
d="M33 337v26q116 7 116 58q0 22 -25.5 117.5t-25.5 122.5q0 57 54.5 83t182.5 38v-17q-79 -12 -102 -27t-23 -57q0 -41 10 -124.5t10 -105.5q0 -41 -31 -63t-114 -37v-2q84 -16 114.5 -39t30.5 -66q0 -20 -10 -102.5t-10 -124.5q0 -41 24 -57.5t101 -28.5v-17
q-131 13 -184 39t-53 84q0 27 25.5 122t25.5 116q0 55 -116 62z" />
    <glyph glyph-name="braceright.uc" horiz-adv-x="346" 
d="M313 363v-26q-116 -7 -116 -62q0 -21 25.5 -116t25.5 -122q0 -58 -53 -84t-184 -39v17q77 12 101 28.5t24 57.5q0 42 -10 124.5t-10 102.5q0 43 30.5 66t114.5 39v2q-83 15 -114 37t-31 63q0 22 10 105.5t10 124.5q0 42 -23 57t-102 27v17q128 -12 182.5 -38t54.5 -83
q0 -27 -25.5 -122.5t-25.5 -117.5q0 -51 116 -58z" />
    <glyph glyph-name="slash.uc" horiz-adv-x="380" 
d="M368 779l-333 -864h-37l333 864h37z" />
    <glyph glyph-name="backslash.uc" horiz-adv-x="380" 
d="M345 -85l-333 864h37l333 -864h-37z" />
    <glyph glyph-name="bar.uc" horiz-adv-x="184" 
d="M75 -85v864h34v-864h-34z" />
    <glyph glyph-name="at.uc" horiz-adv-x="851" 
d="M413 -12q-176 0 -282.5 80t-106.5 239q0 108 61 202t161 148t212 54q171 0 272 -78.5t101 -205.5q0 -140 -78.5 -219t-184.5 -79q-115 0 -126 82h-3q-19 -35 -52.5 -58t-70.5 -23q-56 0 -89 37.5t-33 109.5q0 121 76.5 205.5t189.5 84.5q83 0 147 -49h2l56 40l9 -3
q-10 -22 -27 -109l-35 -178q-19 -100 33 -100q42 0 73 56.5t31 178.5q0 130 -74 205.5t-220 75.5q-62 0 -120.5 -21t-108.5 -62.5t-80.5 -112.5t-30.5 -162q0 -144 78.5 -225t235.5 -81q130 0 228 49v-22q-35 -22 -103 -40.5t-141 -18.5zM399 216q17 0 37 20l55 279
q-6 29 -33 29q-35 0 -63 -87t-28 -175q0 -66 32 -66z" />
    </font>
</defs>
</svg>
