<svg xmlns="http://www.w3.org/2000/svg" width="9.731" height="20.111" viewBox="0 0 9.731 20.111"><path d="M.886,10.928H2.418v9.307a.38.38,0,0,0,.375.377H6.8a.38.38,0,0,0,.375-.377V10.928H9.5a.382.382,0,0,0,.375-.334l.354-3.421A.373.373,0,0,0,9.9,6.764H7.175V5.128a.766.766,0,0,1,.054-.312.356.356,0,0,1,.225-.2.6.6,0,0,1,.193-.032H9.8a.38.38,0,0,0,.375-.377V.889A.38.38,0,0,0,9.8.513L6.833.5A4.953,4.953,0,0,0,4.647.954a3.57,3.57,0,0,0-1.1.807,4.121,4.121,0,0,0-.9,1.592,5.288,5.288,0,0,0-.236,1.582v1.84H.875A.38.38,0,0,0,.5,7.151v3.421a.387.387,0,0,0,.386.355" transform="translate(-0.5 -0.5)" fill="#fff" fill-rule="evenodd"/></svg>