<svg xmlns="http://www.w3.org/2000/svg" width="41.03" height="48.793" viewBox="0 0 41.03 48.793"><path d="M20.515,0C9.581,0,0,9.326,0,19.961a21.657,21.657,0,0,0,2.706,9.248l.155.277c.122.188,2.961,4.591,6.277,9.071,6.332,8.561,8.971,10.235,11.378,10.235S25.572,47.118,31.9,38.557c3.327-4.436,6.143-8.871,6.265-9.071l.155-.277a21.656,21.656,0,0,0,2.706-9.248C41.03,9.326,31.449,0,20.515,0Zm14.86,27.723S23.942,45.466,20.515,45.466,5.655,27.723,5.655,27.723a18.463,18.463,0,0,1-2.329-7.762c0-8.871,8.006-16.634,17.188-16.634S37.7,11.089,37.7,19.961a18.463,18.463,0,0,1-2.329,7.762Z" fill="#fff" fill-rule="evenodd"/></svg>