<svg xmlns="http://www.w3.org/2000/svg" width="237.629" height="101.988" viewBox="0 0 237.629 101.988"><g transform="translate(0 0)"><g transform="translate(0 0)"><g transform="translate(0 0)"><g transform="translate(0 50.658)"><path d="M0,29.3,1.163,29c1.594-.429,1.9-.515,1.9-3.479V4.775c0-2.963-.3-3.049-1.9-3.479L0,1V.266H15.816V1l-1.034.3c-1.681.472-1.9.558-1.9,3.479v9.234h7.629V4.775c0-2.92-.216-3.006-1.9-3.479L17.584,1V.266H33.4V1l-1.164.3c-1.595.429-1.9.515-1.9,3.479V25.52c0,2.964.3,3.05,1.9,3.479l1.164.3v.73H17.584V29.3l1.034-.3c1.638-.472,1.9-.558,1.9-3.479V15.556H12.886V25.52c0,2.921.259,3.007,1.9,3.479l1.034.3v.73H0Z" transform="translate(0 -0.266)" fill="#fff" fill-rule="evenodd"/></g><path d="M42.854,51.253c0-1.933-.086-2.148-1.379-3.05L40.1,47.215v-.43L51,45.669l.345.258v17.91c0,2.276.086,2.534,1.508,3.049l1.035.387v.558l-10.516,1.5-.345-.258V65.9H42.9c-2.328,1.8-4.827,3.436-8.361,3.436-3.362,0-5.559-1.933-5.559-5.756V51.253c0-1.933-.044-2.062-1.379-3.05l-1.379-.988v-.43l10.9-1.116.345.258V61.56c0,2.577.905,3.35,2.456,3.35a14.833,14.833,0,0,0,2.931-.258Z" transform="translate(6.661 11.603)" fill="#fff" fill-rule="evenodd"/><path d="M64.25,66.893V50.658a2.873,2.873,0,0,0-2.758-1.847c-2.414,0-4.137,2.19-4.137,9.706,0,6.7,1.293,8.89,4.439,8.89a7.472,7.472,0,0,0,2.457-.515M48.692,60.665c0-9.449,5.861-13.1,12.757-13.1a8.148,8.148,0,0,1,2.8.429V43.7c0-2.1-.172-2.276-1.422-2.963L61.1,39.792v-.6L72.611,38.2l.345.258s-.172,2.319-.172,5.2V65.734c0,2.276.043,2.534,1.465,3.049l1.035.387v.558L64.9,71.231l-.561-.387V68.138h-.129A9.664,9.664,0,0,1,57.4,71.231c-4.956,0-8.706-3.393-8.706-10.566" transform="translate(12.371 9.706)" fill="#fff" fill-rule="evenodd"/><path d="M82.94,65.34V58.167l-.991.086c-1.939.129-2.715.988-2.715,3.994,0,2.963.948,3.865,2.112,3.865a1.721,1.721,0,0,0,1.595-.773M70.959,63.965c0-4.123,3.405-5.24,7.068-6.228l4.913-1.332V52.283c0-3.951-.431-5.326-2.2-5.326-1.078,0-1.638.215-1.724,1.761-.215,3.693-1.12,4.638-3.706,4.638-2.327,0-3.491-.988-3.491-2.792,0-2.921,3.146-4.9,10.516-4.9,5.516,0,9.093,1.589,9.093,6.142V63.579c0,1.89.13,2.491.948,2.921a5.146,5.146,0,0,0,1.94.43v.644A9.26,9.26,0,0,1,88.5,69.334c-2.715,0-4.439-.988-5.085-2.792h-.173a7.226,7.226,0,0,1-6.034,2.792c-3.835,0-6.249-2.019-6.249-5.369" transform="translate(18.028 11.603)" fill="#fff" fill-rule="evenodd"/><path d="M107.535,51.784a9.285,9.285,0,0,0,.776-2.878,1.738,1.738,0,0,0-1.509-1.761l-1.121-.3v-.73h7.413v.73l-.819.3c-.905.344-1.336,1.117-2.629,4.209l-8.188,19.2c-1.94,4.553-3.706,6.958-7.887,6.958C91.158,77.51,89,76.178,89,73.945c0-1.847,1.207-2.964,3.362-2.964a2.867,2.867,0,0,1,3.146,2.877c.086.859.215,1.117.775,1.117.905,0,2.328-1.246,3.75-4.767l.172-.43L91.288,50.8c-1.379-3.006-1.9-3.479-2.672-3.736l-.646-.215v-.73h14.739v.73l-1.121.344a1.82,1.82,0,0,0-1.508,1.8,7.828,7.828,0,0,0,.689,2.491l3.448,8.676h.172Z" transform="translate(22.35 11.716)" fill="#fff" fill-rule="evenodd"/><path d="M109.378,68.089l.776-.215c1.723-.473,1.81-.6,1.81-2.577V51.167c0-1.847-.043-2.019-1.379-2.964l-1.378-.988v-.429l10.731-1.116.345.257v3.436h.129c1.249-1.546,3.577-3.651,6.378-3.651a3.28,3.28,0,0,1,3.534,3.608c0,2.491-1.509,3.908-3.621,3.908a3.307,3.307,0,0,1-3.447-2.276c-.3-.644-.517-.859-1.035-.859a2.837,2.837,0,0,0-1.767.6V65.3c0,2.148.216,2.277,1.81,2.577l.949.171v.773H109.378Z" transform="translate(27.746 11.603)" fill="#fff" fill-rule="evenodd"/><path d="M133.969,38.306c2.371,0,4.181,1.5,4.181,3.823,0,2.362-1.81,3.823-4.181,3.823-2.326,0-4.18-1.461-4.18-3.823a3.874,3.874,0,0,1,4.18-3.823Zm-6.637,31.654.776-.215c1.723-.473,1.81-.6,1.81-2.577V53.038c0-1.89-.129-2.062-1.465-3.007l-1.379-.988v-.387l11.162-1.117.345.258c-.129,2.1-.173,3.607-.173,5.5V67.167c0,1.976.087,2.1,1.811,2.577l.775.215v.73H127.332Z" transform="translate(32.285 9.732)" fill="#fff" fill-rule="evenodd"/><path d="M157.43,51.784a9.285,9.285,0,0,0,.776-2.878,1.738,1.738,0,0,0-1.509-1.761l-1.121-.3v-.73h7.413v.73l-.819.3c-.905.344-1.336,1.117-2.629,4.209l-8.189,19.2c-1.939,4.553-3.706,6.958-7.886,6.958-2.414,0-4.569-1.331-4.569-3.564,0-1.847,1.206-2.964,3.361-2.964a2.867,2.867,0,0,1,3.146,2.877c.087.859.216,1.117.776,1.117.9,0,2.326-1.246,3.748-4.767l.173-.43L141.182,50.8c-1.378-3.006-1.9-3.479-2.671-3.736l-.647-.215v-.73H152.6v.73l-1.12.344a1.819,1.819,0,0,0-1.509,1.8,7.8,7.8,0,0,0,.69,2.491l3.447,8.676h.172Z" transform="translate(35.027 11.716)" fill="#fff" fill-rule="evenodd"/><path d="M169.6,65.34V58.167l-.992.086c-1.939.129-2.715.988-2.715,3.994,0,2.963.948,3.865,2.112,3.865a1.724,1.724,0,0,0,1.6-.773m-11.981-1.374c0-4.123,3.4-5.24,7.068-6.228l4.913-1.332V52.283c0-3.951-.431-5.326-2.2-5.326-1.077,0-1.638.215-1.724,1.761-.216,3.693-1.12,4.638-3.706,4.638-2.328,0-3.49-.988-3.49-2.792,0-2.921,3.145-4.9,10.515-4.9,5.515,0,9.093,1.589,9.093,6.142V63.579c0,1.89.129,2.491.948,2.921a5.142,5.142,0,0,0,1.939.43v.644a9.258,9.258,0,0,1-5.818,1.761c-2.715,0-4.439-.988-5.085-2.792h-.173a7.225,7.225,0,0,1-6.033,2.792c-3.835,0-6.249-2.019-6.249-5.369" transform="translate(40.047 11.603)" fill="#fff" fill-rule="evenodd"/><path d="M178.206,63.61V49.652h-2.371v-.515a16.276,16.276,0,0,0,8.706-7.817H186.7v6.013h5.257l-.345,2.319H186.7v14c0,2.534.474,3.178,2.8,3.178a12.417,12.417,0,0,0,2.8-.344v.73a8.869,8.869,0,0,1-7.282,3.221c-4.828,0-6.81-2.019-6.81-6.829" transform="translate(44.674 10.498)" fill="#fff" fill-rule="evenodd"/><path d="M97.9,32.05A15.257,15.257,0,0,1,82.664,17.657h30.478A15.258,15.258,0,0,1,97.9,32.05ZM86.646,6.583l6.13,6.108a6.535,6.535,0,0,0-1.422,3.333h-8.69a15.124,15.124,0,0,1,3.982-9.442Zm11.256,5.3a4.965,4.965,0,0,1,4.894,4.142H93.008A4.965,4.965,0,0,1,97.9,11.883Zm-.819-1.576a6.57,6.57,0,0,0-3.123,1.257L87.816,5.441a15.222,15.222,0,0,1,9.267-3.787Zm4.761,1.257a6.568,6.568,0,0,0-3.123-1.257V1.655a15.224,15.224,0,0,1,9.268,3.787Zm11.3,4.461h-8.69a6.543,6.543,0,0,0-1.423-3.333l6.13-6.108a15.119,15.119,0,0,1,3.983,9.442ZM97.9,0a16.841,16.841,0,1,0,16.9,16.841A16.87,16.87,0,0,0,97.9,0Z" transform="translate(20.58 0)" fill="#fff" fill-rule="evenodd"/><path d="M89.485,17.548H102.01V15.916H89.485Z" transform="translate(22.735 4.043)" fill="#fff" fill-rule="evenodd"/><path d="M91.737,20.674h6.878V19.041H91.737Z" transform="translate(23.307 4.837)" fill="#fff" fill-rule="evenodd"/><path d="M8.282,83.645,8.511,80.1H8.3a15.168,15.168,0,0,1-.963,2.244c-.444.774-.764.934-2.2.943H5c-1.595,0-1.709-.186-1.713-1.045V73.676c0-.829.065-.911.669-1.008l.6-.114v-.179H.156v.179l.6.114c.566.11.647.174.652.922v8.753c0,.829-.082.894-.653,1.008l-.6.114v.179Zm5.352.2a4.081,4.081,0,0,0,3-1.285v-.211a4.748,4.748,0,0,1-2.4.585c-1.844,0-2.9-1.106-2.9-3.87v-.13h5.515c.016-2.7-1.24-3.854-3.312-3.854-2.154,0-3.965,1.789-3.965,4.472C9.571,82.181,10.828,83.84,13.634,83.84Zm-2.3-5.22c.1-2.244.946-3.2,2.138-3.2s1.632.927,1.632,3.057Zm7.849-4.683a.951.951,0,0,0,1-.959,1,1,0,0,0-1.991,0A.941.941,0,0,0,19.182,73.937Zm1.991,9.708v-.163l-.424-.114c-.571-.13-.653-.2-.653-.829v-5.5c0-1.041.049-1.61.065-1.886l-.082-.033-2.741.358v.13l.424.244c.555.276.636.325.636.927v5.756c0,.634-.049.7-.6.829l-.457.114v.163Zm3.378.163c2.007,0,3.117-1.171,3.117-2.634,0-1.382-.963-2-2.448-2.6-1.354-.537-1.958-.943-1.958-1.773a1.4,1.4,0,0,1,1.583-1.382,1.535,1.535,0,0,1,1.469.8c.212.325.441.748.718,1.285h.179l-.049-2.049a6.066,6.066,0,0,0-2.138-.374c-1.795,0-2.97,1.008-2.97,2.455,0,1.333.816,2.016,2.3,2.6,1.4.553,1.925.959,1.925,1.838A1.446,1.446,0,0,1,24.7,83.482a1.828,1.828,0,0,1-1.86-1.09c-.228-.374-.424-.8-.685-1.333h-.179l.049,2.374A8.14,8.14,0,0,0,24.551,83.807Zm9.693,0,2.643-.358V83.3l-.441-.163c-.522-.2-.62-.293-.62-1.024V75.172l-.082-.049-2.627.358v.13l.424.244c.532.28.584.337.587.914v5.64a5.478,5.478,0,0,1-2.072.472c-.881,0-1.4-.488-1.4-1.512v-6.2l-.1-.049-2.611.358v.13l.424.244c.522.293.587.325.587.976v4.862a1.922,1.922,0,0,0,2.121,2.114A5.447,5.447,0,0,0,34.1,82.718h.049v1.057Zm6.951-.163v-.163l-.7-.13c-.49-.1-.555-.26-.555-.829V76.685a3.138,3.138,0,0,1,1.289-.667c.212,0,.261.081.375.358a.877.877,0,0,0,.848.6.835.835,0,0,0,.865-.911.931.931,0,0,0-1.044-.992,3.965,3.965,0,0,0-2.317,1.285h-.033l.016-1.171-.1-.065-2.627.358v.13l.408.228c.555.293.62.341.62.943v5.74c0,.634-.049.715-.6.845l-.457.114v.163Zm6.119.2a4.081,4.081,0,0,0,3-1.285v-.211a4.748,4.748,0,0,1-2.4.585c-1.844,0-2.9-1.106-2.9-3.87v-.13h5.515c.016-2.7-1.24-3.854-3.312-3.854-2.154,0-3.965,1.789-3.965,4.472C43.25,82.181,44.507,83.84,47.313,83.84Zm-2.3-5.22c.1-2.244.946-3.2,2.138-3.2s1.632.927,1.632,3.057ZM56.7,83.856A2.968,2.968,0,0,0,59,82.815h.049c.1.683.538,1.025,1.387,1.025a2.727,2.727,0,0,0,1.4-.39v-.13a1.6,1.6,0,0,1-.848-.211c-.212-.13-.326-.342-.326-.846V77.221c0-1.415-.865-2.147-2.823-2.147-1.469,0-3.051.423-3.051,1.447a.73.73,0,0,0,.832.764c.587,0,.849-.276.93-1.122.1-.537.261-.748,1-.748,1.288,0,1.414.664,1.419,1.811v1.864l-2.154.537c-1.24.325-2.5.732-2.5,2.228C54.313,83.108,55.227,83.856,56.7,83.856Zm.734-.748c-.9,0-1.387-.569-1.387-1.545,0-1.2.669-1.61,1.974-1.837l.946-.163v2.878A1.806,1.806,0,0,1,57.43,83.108Zm8.371.537v-.163l-.473-.1c-.5-.125-.6-.175-.6-.768V76.457a6.318,6.318,0,0,1,2.2-.439c.946,0,1.273.39,1.273,1.529v4.992c0,.667-.065.716-.587.846l-.457.1v.163h3.818v-.163l-.457-.114c-.555-.13-.6-.2-.6-.829V77.254c0-1.464-.6-2.179-2.154-2.179a6.122,6.122,0,0,0-3.035,1.106h-.016l.016-1.024-.1-.033L62,75.481v.13l.408.228c.522.276.62.309.62.927v5.773c0,.634-.049.7-.6.829l-.457.114v.163Zm11.683.163,2.66-.341v-.146l-.441-.146c-.571-.2-.636-.293-.636-.927V73.4c0-1.236.065-2,.065-2l-.1-.032-2.823.26v.13l.653.309c.408.2.49.276.49.911V75.3a4.018,4.018,0,0,0-1.436-.228,4.415,4.415,0,0,0-4.5,4.765c0,2.992,1.583,3.968,3.345,3.968a4.009,4.009,0,0,0,2.578-.976h.049l-.033.911Zm-1.844-.829c-1.55,0-2.464-1.138-2.464-3.561,0-2.764,1.028-3.984,2.627-3.984a1.822,1.822,0,0,1,1.55.716V82.49A3.064,3.064,0,0,1,75.64,82.978Zm16.334.667L92.2,80.23h-.2a11.308,11.308,0,0,1-1,2.212c-.489.65-.718.829-2.3.829-1.887,0-2-.062-2.007-1.228V77.986h.946c1.354,0,1.6.065,1.811.553a6.53,6.53,0,0,1,.392,1.2h.179v-3.9h-.179a4.958,4.958,0,0,1-.392,1.2c-.228.488-.441.569-1.811.569H86.7V72.9a8.848,8.848,0,0,1,1.828-.146c1.468,0,1.86.1,2.317.813a14.769,14.769,0,0,1,.8,1.659h.179l-.179-2.846H83.57v.179l.6.114c.566.126.647.175.652.922v8.753c0,.829-.082.878-.653,1.008l-.6.114v.179Zm4.765,0v-.163l-.473-.1c-.522-.13-.6-.179-.6-.846V76.457a6.319,6.319,0,0,1,2.2-.439c.946,0,1.273.39,1.273,1.529v4.992c0,.667-.065.716-.587.846l-.457.1v.163h3.818v-.163l-.457-.114c-.533-.125-.6-.19-.6-.756V77.254c0-1.464-.6-2.179-2.154-2.179a6.122,6.122,0,0,0-3.035,1.106h-.016l.016-1.024-.1-.033-2.627.358v.13l.408.228c.522.276.62.309.62.927v5.773c0,.634-.049.7-.6.829l-.457.114v.163Zm8.126.163a3.2,3.2,0,0,0,2.1-.813v-.179a3.881,3.881,0,0,1-1.208.228c-.751,0-1.093-.277-1.093-1.073V75.92h2.121l.065-.569h-2.186V73.4h-.261a4.169,4.169,0,0,1-2.382,2.374v.146h.946v6.114C102.972,83.254,103.69,83.807,104.864,83.807Zm6.266.033a4.081,4.081,0,0,0,3-1.285v-.211a4.748,4.748,0,0,1-2.4.585c-1.844,0-2.9-1.106-2.9-3.87v-.13h5.515c.016-2.7-1.24-3.854-3.312-3.854-2.154,0-3.965,1.789-3.965,4.472C107.067,82.181,108.324,83.84,111.13,83.84Zm-2.3-5.22c.1-2.244.946-3.2,2.138-3.2s1.632.927,1.632,3.057Zm10.019,5.025v-.163l-.7-.13c-.468-.093-.548-.246-.554-.757v-5.91a3.138,3.138,0,0,1,1.289-.667c.212,0,.261.081.375.358a.877.877,0,0,0,.849.6.835.835,0,0,0,.865-.911.931.931,0,0,0-1.044-.992,3.965,3.965,0,0,0-2.317,1.285h-.033l.016-1.171-.1-.065-2.627.358v.13l.408.228c.555.293.62.341.62.943v5.74c0,.634-.049.715-.6.845l-.457.114v.163Zm5.434.163a3.2,3.2,0,0,0,2.1-.813v-.179a3.876,3.876,0,0,1-1.207.228c-.751,0-1.093-.277-1.093-1.073V75.92h2.121l.065-.569h-2.186V73.4h-.261a4.169,4.169,0,0,1-2.382,2.374v.146h.946v6.114C122.389,83.254,123.107,83.807,124.282,83.807Zm5.206.049a2.967,2.967,0,0,0,2.3-1.041h.049c.1.683.539,1.025,1.387,1.025a2.724,2.724,0,0,0,1.4-.39v-.13a1.6,1.6,0,0,1-.848-.211c-.213-.13-.327-.342-.327-.846V77.221c0-1.415-.864-2.147-2.823-2.147-1.469,0-3.051.423-3.051,1.447a.731.731,0,0,0,.833.764c.587,0,.848-.276.929-1.122.1-.537.262-.748,1-.748,1.322,0,1.42.7,1.42,1.9v1.773l-2.153.537c-1.24.325-2.5.732-2.5,2.228C127.105,83.108,128.019,83.856,129.488,83.856Zm.734-.748c-.9,0-1.387-.569-1.387-1.545,0-1.2.67-1.61,1.975-1.837l.946-.163v2.878A1.8,1.8,0,0,1,130.221,83.108Zm6.381-9.171a.95.95,0,0,0,.994-.959,1,1,0,0,0-1.99,0A.941.941,0,0,0,136.6,73.937Zm1.99,9.708v-.163l-.424-.114c-.572-.13-.653-.2-.653-.829v-5.5c0-1.041.049-1.61.065-1.886l-.082-.033-2.741.358v.13l.425.244c.554.276.636.325.636.927v5.756c0,.634-.049.7-.6.829l-.458.114v.163Zm4.128,0v-.163l-.473-.1c-.523-.13-.6-.179-.6-.846V76.457a6.318,6.318,0,0,1,2.2-.439c.946,0,1.273.39,1.273,1.529v4.992c0,.667-.065.716-.588.846l-.456.1v.163h3.819v-.163l-.458-.114c-.554-.13-.6-.2-.6-.829V77.254c0-1.464-.6-2.179-2.154-2.179a6.126,6.126,0,0,0-3.035,1.106h-.016l.016-1.024-.1-.033-2.627.358v.13l.409.228c.522.276.62.309.62.927v5.773c0,.634-.049.7-.6.829l-.458.114v.163Zm9.186,0v-.163l-.456-.1c-.5-.14-.582-.191-.587-.785V76.457a6.4,6.4,0,0,1,2.088-.439c.882,0,1.142.439,1.142,1.512v4.992c0,.683-.082.715-.587.862l-.441.1v.163h3.721v-.163l-.44-.1c-.485-.156-.551-.237-.556-.787V77.3a4.981,4.981,0,0,0-.049-.813,6.1,6.1,0,0,1,2.122-.472c.9,0,1.141.455,1.141,1.512v4.992c0,.7-.081.715-.571.862l-.44.1v.163h3.785v-.163l-.456-.114c-.564-.156-.6-.207-.6-.775V77.27c0-1.464-.6-2.2-1.975-2.2a6.141,6.141,0,0,0-3.035,1.138h-.049a1.609,1.609,0,0,0-1.795-1.138,5.924,5.924,0,0,0-3,1.106h-.016l.016-1.024-.1-.033-2.627.358v.13l.408.228c.554.293.62.341.62.959v5.724c0,.634-.049.7-.6.845l-.456.114v.163Zm14.328.2a4.084,4.084,0,0,0,3-1.285v-.211a4.751,4.751,0,0,1-2.4.585c-1.843,0-2.9-1.106-2.9-3.87v-.13h5.515c.016-2.7-1.24-3.854-3.313-3.854-2.153,0-3.964,1.789-3.964,4.472C162.171,82.181,163.428,83.84,166.234,83.84Zm-2.3-5.22c.1-2.244.947-3.2,2.137-3.2s1.633.927,1.633,3.057Zm9.839,5.025v-.163l-.473-.1c-.523-.13-.6-.179-.6-.846V76.457a6.318,6.318,0,0,1,2.2-.439c.946,0,1.273.39,1.273,1.529v4.992c0,.667-.066.716-.588.846l-.456.1v.163h3.817v-.163l-.456-.114c-.533-.125-.6-.19-.6-.756V77.254c0-1.464-.6-2.179-2.155-2.179a6.122,6.122,0,0,0-3.035,1.106h-.016l.016-1.024-.1-.033-2.627.358v.13l.408.228c.523.276.621.309.621.927v5.773c0,.634-.049.7-.6.829l-.456.114v.163Zm8.126.163a3.2,3.2,0,0,0,2.1-.813v-.179a3.877,3.877,0,0,1-1.208.228c-.75,0-1.094-.277-1.094-1.073V75.92h2.122l.065-.569H181.7V73.4h-.261a4.169,4.169,0,0,1-2.381,2.374v.146h.946v6.114C180.005,83.254,180.724,83.807,181.9,83.807Zm10.41-.163c3.279,0,5.564-1.951,5.564-5.757,0-4.114-2.383-5.512-5.45-5.512h-4.994v.179l.6.114c.587.114.652.179.652,1.008v8.667c0,.829-.065.894-.652,1.008l-.6.114v.179Zm-.114-.358c-1.452,0-1.632-.211-1.632-1.236V72.879a6.89,6.89,0,0,1,1.6-.13c2.692,0,3.736,1.642,3.736,5.464C195.9,81.189,195.067,83.287,192.195,83.287Zm8.094-9.35a.95.95,0,0,0,.994-.959,1,1,0,0,0-1.99,0A.941.941,0,0,0,200.289,73.937Zm1.99,9.708v-.163l-.424-.114c-.572-.13-.653-.2-.653-.829v-5.5c0-1.041.049-1.61.065-1.886l-.082-.033-2.741.358v.13l.425.244c.554.276.636.325.636.927v5.756c0,.634-.049.7-.6.829l-.458.114v.163Zm3.377.163c2.008,0,3.118-1.171,3.118-2.634,0-1.382-.963-2-2.448-2.6-1.354-.537-1.959-.943-1.959-1.773a1.4,1.4,0,0,1,1.584-1.382,1.536,1.536,0,0,1,1.469.8c.212.325.44.748.717,1.285h.179l-.049-2.049a6.063,6.063,0,0,0-2.137-.374c-1.8,0-2.97,1.008-2.97,2.455,0,1.333.815,2.016,2.3,2.6,1.4.553,1.926.959,1.926,1.838a1.447,1.447,0,0,1-1.584,1.512,1.828,1.828,0,0,1-1.86-1.09c-.228-.374-.424-.8-.685-1.333h-.179l.049,2.374A8.134,8.134,0,0,0,205.656,83.807Zm6.381,0a3.2,3.2,0,0,0,2.1-.813v-.179a3.877,3.877,0,0,1-1.208.228c-.75,0-1.092-.277-1.092-1.073V75.92h2.121l.065-.569h-2.186V73.4h-.261a4.171,4.171,0,0,1-2.383,2.374v.146h.947v6.114C210.144,83.254,210.862,83.807,212.037,83.807Zm6.363-.163v-.163l-.7-.13c-.49-.1-.556-.26-.556-.829V76.685a3.145,3.145,0,0,1,1.289-.667c.213,0,.262.081.376.358a.877.877,0,0,0,.848.6.834.834,0,0,0,.865-.911.931.931,0,0,0-1.045-.992,3.971,3.971,0,0,0-2.318,1.285h-.033l.016-1.171-.1-.065-2.626.358v.13l.408.228c.554.293.62.341.62.943v5.74c0,.634-.049.715-.6.845l-.458.114v.163Zm4.21-9.708a.95.95,0,0,0,1-.959.96.96,0,0,0-1-.959.96.96,0,1,0,0,1.919Zm1.991,9.708v-.163l-.425-.114c-.571-.13-.652-.2-.652-.829v-5.5c0-1.041.049-1.61.065-1.886l-.082-.033-2.741.358v.13l.424.244c.556.276.637.325.637.927v5.756c0,.634-.049.7-.6.829l-.456.114v.163Zm4.226.2a3.941,3.941,0,0,0,2.937-1.236v-.2a4.283,4.283,0,0,1-2.106.553c-1.876,0-2.807-1.3-2.807-3.821,0-2.488,1.094-3.675,2.285-3.675.685,0,.75.228.882.894.114.7.31.992.9.992.6,0,.9-.309.9-.829,0-.878-.833-1.447-2.4-1.447a4.391,4.391,0,0,0-4.324,4.667C225.09,82.327,226.526,83.84,228.827,83.84Zm6.657-.033a3.2,3.2,0,0,0,2.106-.813v-.179a3.884,3.884,0,0,1-1.208.228c-.751,0-1.094-.277-1.094-1.073V75.92h2.122l.065-.569h-2.187V73.4h-.261a4.168,4.168,0,0,1-2.383,2.374v.146h.947v6.114C233.592,83.254,234.31,83.807,235.484,83.807Z" transform="translate(0.04 18.132)" fill="#fff"/></g></g></g></svg>