<svg xmlns="http://www.w3.org/2000/svg" width="56.909" height="37.939" viewBox="0 0 56.909 37.939"><path d="M50.981,0H5.928A5.936,5.936,0,0,0,0,5.928V32.011a5.936,5.936,0,0,0,5.928,5.928H50.981a5.936,5.936,0,0,0,5.928-5.928V5.928A5.936,5.936,0,0,0,50.981,0Zm3.557,32.011a3.561,3.561,0,0,1-3.557,3.557H5.928a3.561,3.561,0,0,1-3.557-3.557V5.928A3.561,3.561,0,0,1,5.928,2.371H50.981a3.561,3.561,0,0,1,3.557,3.557V32.011Z" fill="#fff"/><path d="M51.456,4.475a1.152,1.152,0,0,0-1.631-.314L30.584,17.732a4.1,4.1,0,0,1-4.77,0L6.571,4.16a1.148,1.148,0,0,0-1.631.314,1.235,1.235,0,0,0,.307,1.681L24.49,19.728a6.366,6.366,0,0,0,7.419,0L51.151,6.156A1.232,1.232,0,0,0,51.456,4.475Z" transform="translate(1.254 1.045)" fill="#fff"/></svg>