<svg xmlns="http://www.w3.org/2000/svg" width="24.652" height="20.111" viewBox="0 0 24.652 20.111"><path d="M.953,18.36a14.323,14.323,0,0,0,7.712,2.251A14.524,14.524,0,0,0,14.8,19.3a13.913,13.913,0,0,0,6.094-5.532,14.684,14.684,0,0,0,2.086-7.406V5.95a10.46,10.46,0,0,0,2.351-2.477.445.445,0,0,0-.126-.616.439.439,0,0,0-.43-.038,7.867,7.867,0,0,1-1.037.377,5.025,5.025,0,0,0,.973-1.76.438.438,0,0,0-.291-.553.466.466,0,0,0-.367.038A9.281,9.281,0,0,1,21.32,1.989a5.336,5.336,0,0,0-7.522.126,5.287,5.287,0,0,0-1.454,4.313A13.375,13.375,0,0,1,3.179,1.562.442.442,0,0,0,2.559,1.5a.492.492,0,0,0-.1.126A5.237,5.237,0,0,0,2.9,7.572a4.255,4.255,0,0,1-.544-.251A.456.456,0,0,0,1.75,7.5a.367.367,0,0,0-.051.2v.075a5.29,5.29,0,0,0,2.427,4.439l-.19-.038a.443.443,0,0,0-.518.352.4.4,0,0,0,.013.214,5.3,5.3,0,0,0,3.78,3.521,9.377,9.377,0,0,1-5.967,1.282.442.442,0,0,0-.493.39.485.485,0,0,0,.2.428" transform="translate(-0.75 -0.5)" fill="#fff" fill-rule="evenodd"/></svg>