<?xml version="1.0" encoding="UTF-8"?>
<svg width="512px" height="505px" viewBox="0 0 512 505" version="1.1" xmlns="http://www.w3.org/2000/svg" xmlns:xlink="http://www.w3.org/1999/xlink">
    <title>003-coronavirus</title>
    <g id="Page-1" stroke="none" stroke-width="1" fill="none" fill-rule="evenodd">
        <g id="003-coronavirus" transform="translate(0.000000, 0.008032)" fill="#FFFFFF" fill-rule="nonzero">
            <path d="M493.349626,247.620208 C487.294492,246.43383 481.143166,247.674316 476.022905,251.114209 C471.782408,253.96392 468.670171,258.04109 467.051928,262.79662 L440.740202,251.306595 C440.79431,249.505987 440.821365,247.731431 440.821365,246.002967 C440.821365,230.532966 438.884483,215.172185 435.062825,200.291365 L446.865477,192.285322 C454.346468,198.837452 465.219256,200.796377 474.738331,196.66109 C487.546998,191.094936 493.682293,176.272233 488.704318,162.915467 L483.148184,148.004587 C478.11109,134.484494 463.621053,127.36122 450.163085,131.778071 C443.352437,134.014553 437.871453,138.786114 434.73116,145.212993 C432.94458,148.868318 432.043775,152.789175 432.041771,156.72907 L418.651939,158.598817 C416.817263,155.236079 414.813247,151.82825 412.672958,148.433447 C410.459522,144.922411 405.81722,143.871305 402.308188,146.083738 C398.79615,148.297174 397.744042,152.937472 399.957477,156.448508 C402.483539,160.455538 404.798178,164.470584 406.837264,168.384427 C408.884366,172.30829 413.201016,174.533749 417.569771,173.924528 L441.716158,170.553774 C443.956648,170.241147 445.937617,168.935531 447.107962,166.999652 C448.278308,165.063772 448.514782,162.703042 447.751252,160.573775 C446.714173,157.683984 446.886519,154.572749 448.234219,151.813219 C449.578914,149.061706 451.928623,147.018612 454.85148,146.058688 C460.520841,144.198961 466.892609,147.426429 469.06396,153.254107 L474.620094,168.164987 C476.770403,173.935551 474.136124,180.535777 468.747326,182.878471 C463.588989,185.118961 457.514817,183.198112 454.612,178.41152 C453.544861,176.650992 451.800366,175.405496 449.789336,174.966617 C447.778306,174.526735 445.673087,174.934552 443.968672,176.089868 L423.941539,189.674089 C420.226094,192.193137 418.534704,196.799367 419.733106,201.136058 C423.753162,215.692227 425.791246,230.788478 425.791246,246.003969 C425.791246,248.496965 425.728119,251.102185 425.605874,253.748488 C425.406475,258.059126 427.924521,262.11325 431.870428,263.835702 L469.417669,280.23256 C471.505854,281.145389 473.895642,281.060218 475.912684,280.0031 C477.93173,278.945982 479.360594,277.030142 479.799473,274.793661 L480.989859,268.731513 C481.40469,266.618278 482.618121,264.79262 484.405704,263.591212 C486.192284,262.389805 488.340589,261.955935 490.454825,262.371768 C494.81857,263.227483 497.672289,267.473993 496.816574,271.836735 L490.659235,303.216618 C490.230376,305.400995 488.960832,307.263728 487.083069,308.462129 C485.20731,309.659529 482.97684,310.022256 480.803485,309.491191 C476.695253,308.482169 474.054962,304.082353 474.917691,299.681534 L475.08202,298.842853 C475.524907,296.579317 474.904664,294.237625 473.398647,292.491125 C471.892629,290.742621 469.651137,289.776685 467.364555,289.889912 L426.749165,291.742625 C422.449549,291.938016 418.646929,294.821795 417.288206,298.922012 C413.525667,310.282778 408.531659,321.259774 402.443459,331.546388 C400.175915,335.376062 400.573712,340.231793 403.432441,343.628599 L421.400447,364.974374 C422.735122,366.560553 424.665991,367.523483 426.734135,367.638714 C428.803282,367.750938 430.829342,367.007449 432.329347,365.579587 C436.357419,361.748911 442.479688,361.421254 446.888523,364.795015 C449.275306,366.620673 450.806374,369.265974 451.203169,372.243942 C451.599964,375.22191 450.811384,378.175829 448.986727,380.56161 L443.780294,387.366246 C440.039799,392.253038 433.053799,393.509556 428.207087,390.169864 C424.087832,387.331175 422.326302,382.040573 423.923503,377.304082 C425.167997,373.615691 423.389433,369.587619 419.824289,368.022483 L393.94042,356.653701 C389.824171,354.843072 385.019543,355.866122 381.981455,359.199803 C370.440328,371.873199 357.11262,382.670836 342.368074,391.293115 C338.64361,393.467472 336.610536,397.782118 337.305929,402.027626 L343.932208,442.432593 C344.300947,444.681099 345.66969,446.641027 347.654667,447.761272 C349.639645,448.881516 352.023422,449.039834 354.140665,448.194139 L359.874154,445.899541 C361.941296,445.072884 364.195814,445.126993 366.221874,446.052848 C368.246932,446.976699 369.763972,448.651055 370.497442,450.767295 C371.882217,454.764305 369.620685,459.37254 365.45634,461.037877 L336.175665,472.751349 C334.108522,473.579008 331.855006,473.523897 329.827944,472.599044 C327.803888,471.675193 326.285846,470.000838 325.552376,467.885599 C324.167601,463.888589 326.428131,459.280355 330.58947,457.615018 L331.382059,457.298383 C333.524352,456.441666 335.153616,454.649074 335.802918,452.435639 C336.451217,450.222203 336.04841,447.833416 334.707723,445.955653 L311.085386,412.857327 C308.586378,409.353306 304.098385,407.727047 299.926024,408.809215 C286.153425,412.37937 271.915894,414.189998 257.607221,414.189998 C246.277517,414.189998 234.919757,413.045705 223.851578,410.789183 C219.62611,409.928458 215.235311,411.785179 212.917667,415.41345 L189.273286,452.496761 C188.04783,454.41761 187.761256,456.791367 188.493724,458.949692 C189.224188,461.108017 190.895537,462.817443 193.036828,463.598007 L193.873504,463.903619 C196.744257,464.949716 199.035849,467.051928 200.325433,469.82248 C201.615018,472.59203 201.748285,475.699257 200.702188,478.570009 C200.400584,479.394662 200.247277,480.266409 200.247277,481.144168 C200.247277,483.986864 199.408596,486.140179 197.885544,487.205314 C196.363494,488.27145 194.054868,488.323555 191.382513,487.347599 L162.336307,476.756375 C156.519651,474.636126 153.423446,468.150129 155.432472,462.298403 C156.391394,459.508813 158.45553,457.240267 161.24512,455.9096 C164.192025,454.503783 167.617891,454.329434 170.640948,455.431642 L171.306282,455.674128 C173.471621,456.465714 175.882452,456.216215 177.842379,454.999777 C179.803309,453.783339 181.095899,451.734233 181.349407,449.441639 L186.163053,405.981549 C186.637003,401.704979 184.380481,397.50356 180.548803,395.525596 C162.978594,386.451412 147.258091,374.449361 133.828179,359.85712 C130.872256,356.642678 126.178851,355.593576 122.148775,357.247891 L86.7027442,371.78402 C84.7358026,372.590637 83.2027305,374.191845 82.4832888,376.191853 C81.7628451,378.191861 81.9241684,380.403293 82.9251743,382.278049 C85.1746821,386.486483 83.8570416,391.641813 79.861034,394.269078 C75.7417794,396.97951 69.9742218,395.71197 67.0082783,391.443416 L57.9290845,378.374226 C55.0172494,374.182827 55.7106389,368.556553 59.5072469,365.564557 C61.4701805,364.017457 63.9060618,363.340099 66.3609812,363.655732 C68.8349388,363.974371 71.0233241,365.242913 72.525334,367.228892 C73.8840567,369.026494 75.9782533,370.119685 78.2307671,370.20686 C80.4752649,370.293033 82.6546321,369.365173 84.1476239,367.67679 L109.113654,339.458242 C112.043525,336.146606 112.568577,331.316928 110.41927,327.435149 C107.734891,322.593447 105.237887,317.495231 102.999401,312.280781 C101.360116,308.468141 96.9422632,306.703605 93.127619,308.341888 C89.3139768,309.980171 87.5504429,314.399026 89.1877238,318.212668 C91.1947457,322.883027 93.3921491,327.472224 95.7388517,331.892081 L77.8570182,352.105587 C74.9812554,350.342053 71.7367537,349.191748 68.2808284,348.746856 C61.7808029,347.912183 55.3659482,349.691749 50.2046053,353.757898 C40.175508,361.661736 38.1474439,376.240952 45.5873528,386.948408 L54.6665466,400.016596 C62.2427286,410.92245 77.2487994,413.975568 88.1215874,406.82524 C96.2528818,401.477523 100.171735,392.149831 98.8039939,383.063624 L124.936361,372.346147 C138.357255,386.438386 153.788177,398.21699 170.882432,407.416424 L167.307268,439.698114 C163.01667,439.575869 158.70002,440.467656 154.774153,442.340409 C148.313206,445.422585 143.498558,450.774309 141.217988,457.412612 C136.566667,470.956753 143.731023,485.967834 157.18799,490.874667 L186.234196,501.465891 C189.149037,502.529021 192.077906,503.054073 194.898558,503.054073 C199.147072,503.054073 203.152098,501.861684 206.503814,499.516985 C211.762352,495.83661 214.906653,489.670253 215.247335,482.458802 C217.196241,476.174208 216.749345,469.481798 213.951739,463.47476 C212.159147,459.623041 209.528876,456.330443 206.274354,453.789351 L223.920716,426.111888 C249.261497,430.826336 275.685448,430.132946 300.657489,424.114886 L317.805853,448.142035 C311.056328,454.250275 308.25271,463.862537 311.349916,472.804456 C313.442109,478.83955 317.786815,483.621131 323.584433,486.269438 C329.30189,488.879669 335.923159,489.037986 341.757851,486.705312 L371.039528,474.991839 C382.738973,470.31146 388.739999,457.508805 384.699903,445.846434 C382.608712,439.811341 378.264006,435.028757 372.466388,432.38045 C367.709856,430.208097 362.323061,429.732143 357.28697,430.980645 L352.642663,402.664903 C366.70885,394.114769 379.545574,383.723947 390.869265,371.720894 L408.356308,379.401285 C407.867328,388.384286 412.032675,397.277106 419.678997,402.546666 C431.212109,410.493591 447.04183,407.836266 455.717215,396.50055 L460.923648,389.695914 C465.189196,384.121744 467.028882,377.219913 466.103027,370.26197 C465.177171,363.304027 461.597999,357.12264 456.022827,352.857093 C447.889529,346.633621 437.272253,345.795943 428.529733,350.103575 L416.998626,336.404122 C422.388427,326.915107 426.933535,316.920078 430.545773,306.614427 L460.021841,305.269732 C461.48377,314.254737 468.03089,321.829917 477.221307,324.086439 C483.423736,325.610493 489.799512,324.558385 495.171277,321.129513 C500.467891,317.747737 504.199368,312.273767 505.408792,306.108413 L511.566131,274.72853 C514.017042,262.232489 505.845667,250.072121 493.349626,247.620208 L493.349626,247.620208 Z" id="Path"></path>
            <path d="M48.4190272,267.919886 L76.5874741,274.425924 C77.200703,278.342773 77.959223,282.319742 78.85101,286.286692 C79.6355822,289.781695 82.7377988,292.156454 86.17669,292.156454 C86.7217823,292.156454 87.2758927,292.096334 87.8300031,291.972085 C91.8791171,291.062261 94.4252193,287.043208 93.5153961,282.993092 C92.4803219,278.379847 91.6396372,273.759589 91.0183923,269.260573 C90.4262056,264.978993 87.2057522,261.449921 83.0063369,260.480979 L43.1113912,251.267517 C40.8939476,250.75549 38.5572651,251.277537 36.768681,252.687362 C34.9790948,254.098189 33.9259845,256.24449 33.9059443,258.523056 L33.864862,263.193415 C33.8177676,268.421892 29.5261677,272.676418 24.2966883,272.676418 C21.8066986,272.676418 19.4690141,271.702466 17.7165022,269.933922 C15.9629883,268.164376 15.0100788,265.819678 15.032123,263.329688 L15.292645,234.347611 C15.3156912,231.690286 16.4449541,229.090075 18.3898515,227.214316 C20.217514,225.450782 22.5271423,224.504887 24.9670316,224.577031 C30.0432038,224.7113 34.1514363,228.955806 34.1233801,234.038992 C34.110354,236.340604 35.1534442,238.521976 36.9540525,239.956851 C38.7546607,241.392728 41.1153914,241.923793 43.3538771,241.396736 L82.9682606,232.108123 C87.1646698,231.124151 90.3710952,227.586061 90.9492538,223.303479 C93.8721109,201.627042 100.905205,181.020749 111.852141,162.054743 C114.060567,158.225068 113.625695,153.393386 110.764963,150.030647 L91.8741071,127.844188 C90.3971474,126.110714 88.2257962,125.136762 85.9352061,125.203897 C83.6576421,125.270029 81.5323833,126.365224 80.1576284,128.181864 L78.5203474,130.346202 C77.2968957,131.963442 75.5133216,132.98048 73.4972817,133.211944 C71.4882558,133.442406 69.5132981,132.851221 67.9471597,131.546607 C64.9872283,129.080666 64.5884292,124.417321 67.0583787,121.151777 L79.6415943,104.514437 C82.0844896,101.284966 86.6997381,100.643681 89.9292097,103.087578 C92.9532696,105.37416 93.7278218,109.669768 91.6937457,112.867175 C90.5133803,114.723896 90.2057639,117.003464 90.852059,119.106679 C91.4983541,121.209893 93.0334303,122.924329 95.0514742,123.797078 L121.467409,135.221972 C125.562616,136.994524 130.343196,135.966464 133.363247,132.659838 C145.389347,119.48644 159.329281,108.360144 174.800283,99.5905702 C178.547793,97.4643093 180.63698,93.1797234 179.999703,88.9251978 L173.914508,48.4360613 C173.57583,46.1825455 172.232137,44.2045818 170.263191,43.0582848 C168.292242,41.9109857 165.907463,41.7206042 163.784208,42.5382427 L158.019657,44.7556862 C155.941492,45.5532845 153.688978,45.4701179 151.675944,44.5182103 C149.663912,43.5673048 148.168917,41.8729094 147.464505,39.7476506 C146.132837,35.7316028 148.454489,31.1554326 152.64188,29.5452058 L182.076865,18.2235182 C184.155029,17.4239159 186.407543,17.5090866 188.420577,18.4609941 C190.432609,19.4118996 191.928607,21.106295 192.633019,23.2315539 C193.963685,27.2476016 191.642033,31.8237719 187.454642,33.4350006 L186.659047,33.741615 C184.506734,34.5702756 182.853421,36.3408236 182.175062,38.545241 C181.497704,40.7496585 181.868447,43.1434554 183.184084,45.0382524 L206.356519,78.4431928 C208.807431,81.9762728 213.267368,83.6626521 217.454759,82.637598 C230.51493,79.4391887 244.024001,77.8169378 257.623253,77.8169378 L257.627261,77.8169378 C262.061146,77.8169378 266.036111,75.0223377 267.518081,70.8670108 L275.190456,49.3979889 C275.878835,47.4721297 275.752582,45.3478729 274.839753,43.5182064 C273.927926,41.6875379 272.309683,40.306771 270.35677,39.6965482 C264.769573,37.9490463 261.215451,32.4620509 261.904833,26.6504049 C262.27257,23.5582084 263.896824,20.7435682 266.477997,18.7245222 C269.188428,16.6042734 272.656378,15.6293197 275.998074,16.051165 L286.53519,17.3778235 C293.364876,18.2375463 298.339845,24.2786521 297.625413,30.8438081 C297.073307,35.9119642 293.525197,40.0222007 288.5863,41.314791 C284.969051,42.2616885 282.597298,45.7246279 283.023152,49.4400733 L285.689495,72.7046934 C286.197513,77.1445905 289.478087,80.7738632 293.85586,81.7367929 C310.641496,85.4241821 326.72673,91.6737055 341.659654,100.30901 C345.40015,102.473347 350.159687,102.1006 353.505392,99.3851585 L385.298101,73.5784443 C387.067647,72.1425669 388.088693,69.9812358 388.076669,67.7026698 C388.063643,65.4251058 387.018549,63.2747968 385.234975,61.8579575 L380.398282,58.0172612 C378.654789,56.6334882 377.58264,54.6495125 377.380235,52.4300649 C377.178831,50.2146254 377.878233,48.0663204 379.352186,46.3799411 C382.134762,43.1925538 387.256025,42.8699073 390.771069,45.6584953 L415.470564,65.2687925 C417.214058,66.6525655 418.286206,68.6365412 418.488612,70.8549868 C418.690016,73.0704263 417.990614,75.2187313 416.51666,76.9061126 C413.733082,80.0914958 408.608814,80.4141424 405.099782,77.6285604 L404.433447,77.0995002 C402.625824,75.6636228 400.259082,75.1385707 398.01759,75.6736429 C395.773092,76.2087151 393.899337,77.7447933 392.934404,79.8399919 L375.905279,116.806068 C374.104671,120.715903 374.921307,125.417325 377.934345,128.504511 C379.002485,129.598704 380.0576,130.730973 381.313116,132.094705 C384.123748,135.148826 388.878276,135.345219 391.932396,132.533585 C394.985514,129.721951 395.181907,124.968425 392.371275,121.914305 C391.840211,121.336146 391.340209,120.795062 390.855237,120.277024 L403.223021,93.4292234 C411.87536,96.2588938 421.610869,93.9232133 427.836344,86.7959309 C432.038765,81.9852908 434.034765,75.8399762 433.455604,69.492256 C432.885462,63.2337144 429.736151,57.4050343 424.81529,53.4992074 L400.115795,33.8899122 C390.247018,26.0552122 376.154779,27.1964992 368.032503,36.4941308 C363.830081,41.3047709 361.834082,47.4500855 362.413242,53.7978058 C362.888194,59.006243 365.147722,63.9180859 368.730902,67.6706055 L346.460274,85.7518386 C331.911119,77.6666367 316.396028,71.6335469 300.259692,67.7848345 L298.608383,53.3689464 C306.24669,49.1444809 311.604426,41.3648914 312.573368,32.472071 C314.169566,17.8046789 303.332851,4.34470638 288.417963,2.46594152 L277.880847,1.13928302 C270.600258,0.223447768 263.068164,2.31764434 257.225456,6.88579849 C251.465914,11.3898241 247.828625,17.7796287 246.985937,24.8788549 C245.759479,35.1995366 250.521021,45.0612986 258.790592,50.6384748 L254.438872,62.8138731 C241.775495,63.0303068 229.189274,64.5423368 216.935719,67.3189008 L200.118018,43.0743169 C206.946702,37.0582613 209.879579,27.4840755 206.902613,18.5020764 C204.891584,12.4389264 200.611006,7.59922814 194.84946,4.87376657 C189.168075,2.18738331 182.548811,1.93988735 176.684058,4.1954072 L147.250075,15.5160928 C135.487504,20.0391566 129.316137,32.7606493 133.200922,44.477128 C135.21095,50.540278 139.490526,55.3799763 145.253074,58.1054379 C149.980547,60.3409175 155.356319,60.8890159 160.412452,59.7076485 L164.676997,88.0825091 C149.838262,96.8310403 136.339211,107.598618 124.477441,120.145761 L107.510441,112.808057 C108.889204,104.774959 105.820053,96.2588938 98.9983835,91.098553 C94.2318318,87.4933284 88.3490432,85.9572503 82.4271763,86.7819028 C76.5073135,87.6025473 71.261802,90.6807157 67.6575794,95.4472674 L55.0733619,112.084607 C47.7096056,121.818112 49.1394709,135.439408 58.3278836,143.093746 C63.0824112,147.054684 69.0774247,148.84928 75.2137212,148.143866 C79.0824739,147.699977 82.757839,146.238047 85.8660675,143.970503 L97.2498796,157.342299 C86.7308004,176.317323 79.7598312,196.758285 76.4992974,218.187227 L47.4200253,225.005891 C43.8899513,216.196237 35.3488358,209.81545 25.3648287,209.551922 C18.8648033,209.388595 12.7054606,211.812452 7.95193493,216.398643 C3.12626474,221.055975 0.322646553,227.547985 0.26152407,234.211338 L1.10963936e-05,263.195419 C-0.057114452,269.725505 2.44289533,275.876831 7.03910571,280.515126 C11.6353161,285.153421 17.7645986,287.707539 24.2956863,287.707539 C36.1694802,287.708541 46.1645093,279.176443 48.4190272,267.919886 Z" id="Path"></path>
            <path d="M220.403668,226.89668 C224.070015,224.953786 225.467816,220.40467 223.523921,216.737321 C221.581028,213.071976 217.033916,211.671169 213.363561,213.617069 C195.404572,223.136144 174.934552,220.620102 164.697037,207.630071 C158.952526,200.34347 156.976566,190.687119 159.132887,180.441588 C161.393417,169.698059 167.858372,159.666958 177.336365,152.196988 C186.812354,144.726017 198.076928,140.788126 209.049916,141.092737 C219.515889,141.388329 228.442778,145.564698 234.188291,152.852302 C242.813576,163.79523 242.704357,180.128962 233.908731,194.464689 C231.738382,198.002779 232.845601,202.630052 236.384693,204.800401 C239.921781,206.97075 244.549053,205.862529 246.719403,202.325441 C258.845703,182.561837 258.559128,159.490604 245.990943,143.547656 C237.440809,132.699918 224.47182,126.492479 209.474768,126.069632 C194.981725,125.648788 180.268241,130.747005 168.03172,140.393335 C155.793195,150.039665 147.410397,163.163965 144.424413,177.346386 C141.334221,192.027806 144.342248,206.087981 152.892382,216.934717 C161.895423,228.355603 175.992673,234.362641 191.159065,234.362641 C200.821427,234.362641 210.916657,231.925757 220.403668,226.89668 L220.403668,226.89668 Z" id="Path"></path>
            <path d="M366.223878,159.500624 C366.223878,143.920403 351.724824,131.245003 333.903111,131.245003 C316.081397,131.245003 301.581341,143.920403 301.581341,159.500624 C301.581341,175.080846 316.081397,187.756246 333.903111,187.756246 C351.724824,187.756246 366.223878,175.080846 366.223878,159.500624 Z M316.612462,159.500624 C316.612462,152.208011 324.369005,146.275122 333.904113,146.275122 C343.438218,146.275122 351.194761,152.208011 351.194761,159.500624 C351.194761,166.793238 343.438218,172.726127 333.904113,172.726127 C324.369005,172.726127 316.612462,166.793238 316.612462,159.500624 Z" id="Shape"></path>
            <path d="M279.014118,288.660448 C279.014118,269.566185 263.479989,254.032056 244.385726,254.032056 C225.290461,254.032056 209.756332,269.566185 209.756332,288.660448 C209.756332,307.754712 225.290461,323.288841 244.385726,323.288841 C263.479989,323.288841 279.014118,307.754712 279.014118,288.660448 Z M224.787453,288.660448 C224.787453,277.853793 233.579071,269.062175 244.386728,269.062175 C255.192382,269.062175 263.985001,277.853793 263.985001,288.660448 C263.985001,299.467104 255.193384,308.258722 244.386728,308.258722 C233.579071,308.258722 224.787453,299.467104 224.787453,288.660448 L224.787453,288.660448 Z" id="Shape"></path>
            <path d="M376.984441,274.535143 C376.984441,259.686387 364.904234,247.60618 350.055478,247.60618 C335.207725,247.60618 323.127517,259.686387 323.127517,274.535143 C323.127517,289.383898 335.207725,301.464106 350.055478,301.464106 C364.904234,301.463104 376.984441,289.383898 376.984441,274.535143 Z M338.156634,274.535143 C338.156634,267.973995 343.49433,262.636299 350.054476,262.636299 C356.615624,262.636299 361.953321,267.973995 361.953321,274.535143 C361.953321,281.096291 356.615624,286.433987 350.054476,286.433987 C343.495332,286.432985 338.156634,281.096291 338.156634,274.535143 Z" id="Shape"></path>
            <path d="M278.359807,395.661869 C292.909964,395.661869 304.748688,383.824148 304.748688,369.272988 C304.748688,354.722831 292.910966,342.884108 278.359807,342.884108 C263.808648,342.884108 251.969924,354.721829 251.969924,369.272988 C251.969924,383.824148 263.807646,395.661869 278.359807,395.661869 Z M278.359807,357.914227 C284.623359,357.914227 289.718569,363.009437 289.718569,369.272988 C289.718569,375.53654 284.623359,380.63175 278.359807,380.63175 C272.096255,380.63175 267.000043,375.53654 267.000043,369.272988 C267.000043,363.009437 272.096255,357.914227 278.359807,357.914227 Z" id="Shape"></path>
            <path d="M160.261148,351.301976 C175.246177,351.301976 187.437607,339.110546 187.437607,324.125517 C187.437607,309.140489 175.246177,296.949058 160.261148,296.949058 C145.27612,296.949058 133.084689,309.140489 133.084689,324.125517 C133.084689,339.110546 145.27612,351.301976 160.261148,351.301976 Z M160.261148,311.979177 C166.959571,311.979177 172.407488,317.428096 172.407488,324.125517 C172.407488,330.822938 166.958569,336.271857 160.261148,336.271857 C153.563727,336.271857 148.114808,330.822938 148.114808,324.125517 C148.114808,317.428096 153.563727,311.979177 160.261148,311.979177 Z" id="Shape"></path>
            <path d="M313.290805,230.074047 C313.290805,225.92373 309.927065,222.558987 305.775746,222.558987 L299.132433,222.558987 C294.981114,222.558987 291.617374,225.92373 291.617374,230.074047 C291.617374,234.224364 294.981114,237.589106 299.132433,237.589106 L305.775746,237.589106 C309.927065,237.589106 313.290805,234.224364 313.290805,230.074047 Z" id="Path"></path>
            <path d="M210.446715,368.952346 L217.272394,368.952346 C221.423712,368.952346 224.787453,365.587603 224.787453,361.437286 C224.787453,357.28697 221.423712,353.922227 217.272394,353.922227 L210.446715,353.922227 C206.295397,353.922227 202.931656,357.28697 202.931656,361.437286 C202.931656,365.587603 206.296399,368.952346 210.446715,368.952346 Z" id="Path"></path>
            <path d="M147.174925,259.511036 C151.326244,259.511036 154.689984,256.146293 154.689984,251.995976 C154.689984,247.845659 151.326244,244.480917 147.174925,244.480917 L140.599749,244.480917 C136.44843,244.480917 133.084689,247.845659 133.084689,251.995976 C133.084689,256.146293 136.44843,259.511036 140.599749,259.511036 L147.174925,259.511036 Z" id="Path"></path>
            <path d="M280.649395,128.030561 C284.800714,128.030561 288.164455,124.665819 288.164455,120.515502 C288.164455,116.365185 284.800714,113.000442 280.649395,113.000442 L271.499059,113.000442 C267.34774,113.000442 263.983999,116.365185 263.983999,120.515502 C263.983999,124.665819 267.34774,128.030561 271.499059,128.030561 L280.649395,128.030561 Z" id="Path"></path>
            <path d="M330.641575,329.457201 C326.490256,329.457201 323.126515,332.821944 323.126515,336.972261 C323.126515,341.122578 326.490256,344.48732 330.641575,344.48732 L340.745823,344.48732 C344.897142,344.48732 348.260882,341.122578 348.260882,336.972261 C348.260882,332.821944 344.897142,329.457201 340.745823,329.457201 L330.641575,329.457201 Z" id="Path"></path>
        </g>
    </g>
</svg>