<?xml version="1.0" encoding="UTF-8"?>
<svg width="28px" height="28px" viewBox="0 0 28 28" version="1.1" xmlns="http://www.w3.org/2000/svg" xmlns:xlink="http://www.w3.org/1999/xlink">
    <title>external 2</title>
    <g id="2.-V0.8" stroke="none" stroke-width="1" fill="none" fill-rule="evenodd">
        <g id="4,0-Event-Single" transform="translate(-1467.000000, -1011.000000)" fill="#FFFFFF" fill-rule="nonzero">
            <g id="1-Header" transform="translate(-140.000000, -67.000000)">
                <g id="Group-7" transform="translate(140.000000, 1037.000000)">
                    <g id="Button/Outline" transform="translate(1034.000000, 0.000000)">
                        <g id="external-2" transform="translate(433.000000, 41.000000)">
                            <g id="external" transform="translate(0.000000, 0.500000)">
                                <path d="M26.681559,0.0227591623 L18.4912,0.0227591623 C17.7774154,0.0227591623 17.1988923,0.592303665 17.1988923,1.29501047 C17.1988923,1.99771728 17.7774154,2.56726178 18.4912,2.56726178 L23.561641,2.56726178 L11.1698462,14.7667382 C10.6651282,15.263623 10.6651282,16.0690995 11.1698462,16.5659843 C11.4222769,16.814356 11.7529641,16.9386126 12.0836513,16.9386126 C12.4143385,16.9386126 12.7450256,16.814356 12.9974564,16.5659843 L25.3892513,4.36650785 L25.3892513,9.35839791 C25.3892513,10.0611047 25.9677744,10.6306492 26.681559,10.6306492 C27.3953436,10.6306492 27.9738667,10.0611047 27.9738667,9.35839791 L27.9738667,1.29515183 C27.9738667,0.592303665 27.3953436,0.0227591623 26.681559,0.0227591623 Z" id="Path"></path>
                                <path d="M21.3948718,10.6305079 C20.6810872,10.6305079 20.1025641,11.2000524 20.1025641,11.9027592 L20.1025641,24.4070105 L2.58461538,24.4070105 L2.58461538,7.16093717 L16.0501744,7.16093717 C16.763959,7.16093717 17.3424821,6.59139267 17.3424821,5.88868586 C17.3424821,5.18597906 16.763959,4.61643455 16.0501744,4.61643455 L1.29230769,4.61643455 C0.578523077,4.61643455 0,5.18597906 0,5.88868586 L0,25.6792618 C0,26.3819686 0.578523077,26.9515131 1.29230769,26.9515131 L21.3948718,26.9515131 C22.1086564,26.9515131 22.6871795,26.3819686 22.6871795,25.6792618 L22.6871795,11.9027592 C22.6871795,11.2000524 22.1086564,10.6305079 21.3948718,10.6305079 Z" id="Path"></path>
                            </g>
                        </g>
                    </g>
                </g>
            </g>
        </g>
    </g>
</svg>