<svg width="189px" height="84px" xmlns="http://www.w3.org/2000/svg" viewBox="0 0 155.55 84"><defs><style>.cls-1{fill:#fff;}</style></defs><g id="Layer_2" data-name="Layer 2"><g id="Graphic"><path class="cls-1" d="M0,52.49l.76-.2C1.81,52,2,52,2,50V36.34c0-2-.2-2-1.25-2.3L0,33.85v-.48H10.38v.48L9.7,34c-1.1.32-1.24.37-1.24,2.3v6.08h5V36.34c0-1.93-.15-2-1.25-2.3l-.68-.19v-.48H21.92v.48l-.76.19c-1.05.29-1.25.34-1.25,2.3V50c0,2,.2,2,1.25,2.29l.76.2V53H11.54v-.48l.68-.2c1.08-.31,1.25-.37,1.25-2.29V43.44h-5V50c0,1.92.17,2,1.24,2.29l.68.2V53H0Z"/><path class="cls-1" d="M32.5,41.4c0-1.27-.06-1.41-.9-2l-.91-.65v-.28l7.16-.74.22.17v11.8c0,1.5.06,1.67,1,2l.68.25v.37l-6.9,1-.23-.17V51.05h-.08A8.69,8.69,0,0,1,27,53.31c-2.2,0-3.65-1.27-3.65-3.79V41.4c0-1.27,0-1.36-.9-2l-.91-.65v-.28l7.16-.74.23.17v10.3c0,1.7.59,2.21,1.61,2.21a10.09,10.09,0,0,0,1.92-.17Z"/><path class="cls-1" d="M40.08,46.35c0-6.22,3.85-8.63,8.37-8.63a5.28,5.28,0,0,1,1.84.29V35.18c0-1.39-.11-1.5-.93-2l-1.13-.62v-.39l7.55-.65.23.17s-.12,1.52-.12,3.42V49.69c0,1.5,0,1.67,1,2l.68.25v.37l-6.82,1-.37-.26V51.27h-.09a6.3,6.3,0,0,1-4.46,2C42.54,53.31,40.08,51.07,40.08,46.35Zm10.21,4.1V39.76a1.88,1.88,0,0,0-1.81-1.22c-1.58,0-2.71,1.45-2.71,6.4,0,4.41.85,5.85,2.91,5.85A4.89,4.89,0,0,0,50.29,50.45Z"/><path class="cls-1" d="M58.41,49.77c0-2.71,2.24-3.45,4.64-4.1l3.22-.88V42.08c0-2.6-.28-3.51-1.44-3.51-.71,0-1.07.14-1.13,1.16-.14,2.43-.74,3.06-2.43,3.06C59.74,42.79,59,42.14,59,41c0-1.93,2.06-3.23,6.9-3.23,3.62,0,6,1.05,6,4.05v7.75c0,1.24.08,1.64.62,1.92a3.33,3.33,0,0,0,1.27.28v.43a6.07,6.07,0,0,1-3.82,1.16c-1.78,0-2.91-.65-3.33-1.84h-.12a4.72,4.72,0,0,1-4,1.84C60,53.31,58.41,52,58.41,49.77Zm7.86.91V46l-.65.06c-1.27.09-1.78.65-1.78,2.63s.62,2.55,1.39,2.55A1.11,1.11,0,0,0,66.27,50.68Z"/><path class="cls-1" d="M85.25,41.82a5.82,5.82,0,0,0,.51-1.89,1.14,1.14,0,0,0-1-1.16l-.73-.2v-.48H88.9v.48l-.53.2c-.6.23-.88.73-1.73,2.77L81.27,54.19c-1.28,3-2.44,4.58-5.18,4.58-1.58,0-3-.88-3-2.35,0-1.22.79-2,2.21-2a1.88,1.88,0,0,1,2.06,1.89c.06.57.14.74.51.74.6,0,1.53-.82,2.46-3.14l.12-.28L74.59,41.17c-.9-2-1.24-2.29-1.75-2.46l-.43-.14v-.48h9.68v.48l-.74.23a1.2,1.2,0,0,0-1,1.19,5.3,5.3,0,0,0,.45,1.64l2.27,5.71h.11Z"/><path class="cls-1" d="M90,52.49l.51-.14c1.13-.31,1.18-.4,1.18-1.7V41.34c0-1.21,0-1.33-.9-2l-.91-.65v-.28l7-.74.22.17v2.27h.09a5.83,5.83,0,0,1,4.18-2.41,2.16,2.16,0,0,1,2.32,2.38,2.31,2.31,0,0,1-2.37,2.57,2.16,2.16,0,0,1-2.26-1.5c-.2-.42-.34-.56-.68-.56a1.86,1.86,0,0,0-1.16.39v9.62c0,1.41.14,1.5,1.18,1.7l.63.11V53H90Z"/><path class="cls-1" d="M104.77,52.49l.51-.14c1.13-.31,1.19-.4,1.19-1.7V41.34c0-1.24-.09-1.35-1-2l-.91-.65v-.25l7.33-.74.22.17c-.08,1.39-.11,2.38-.11,3.62v9.14c0,1.3.06,1.39,1.19,1.7l.51.14V53h-9Zm4.36-20.85a2.53,2.53,0,1,1-2.75,2.52A2.53,2.53,0,0,1,109.13,31.64Z"/><path class="cls-1" d="M126.33,41.82a6.09,6.09,0,0,0,.51-1.89,1.15,1.15,0,0,0-1-1.16l-.74-.2v-.48H130v.48l-.54.2c-.6.23-.88.73-1.73,2.77l-5.37,12.65c-1.28,3-2.44,4.58-5.18,4.58-1.58,0-3-.88-3-2.35,0-1.22.79-2,2.21-2a1.88,1.88,0,0,1,2.06,1.89c.06.57.15.74.51.74.6,0,1.53-.82,2.46-3.14l.12-.28-5.86-12.51c-.9-2-1.24-2.29-1.75-2.46l-.43-.14v-.48h9.68v.48l-.74.23a1.2,1.2,0,0,0-1,1.19,5.3,5.3,0,0,0,.45,1.64l2.27,5.71h.11Z"/><path class="cls-1" d="M129.75,49.77c0-2.71,2.23-3.45,4.64-4.1l3.22-.88V42.08c0-2.6-.28-3.51-1.44-3.51-.71,0-1.08.14-1.13,1.16-.14,2.43-.74,3.06-2.43,3.06-1.53,0-2.3-.65-2.3-1.84,0-1.93,2.07-3.23,6.91-3.23,3.62,0,6,1.05,6,4.05v7.75c0,1.24.09,1.64.63,1.92a3.33,3.33,0,0,0,1.27.28v.43a6.07,6.07,0,0,1-3.82,1.16c-1.78,0-2.91-.65-3.34-1.84h-.11a4.72,4.72,0,0,1-4,1.84C131.33,53.31,129.75,52,129.75,49.77Zm7.86.91V46L137,46c-1.27.09-1.78.65-1.78,2.63s.62,2.55,1.39,2.55A1.12,1.12,0,0,0,137.61,50.68Z"/><path class="cls-1" d="M146.3,48.81V39.62h-1.56v-.34a10.71,10.71,0,0,0,5.71-5.15h1.42v4h3.45l-.23,1.53h-3.22v9.22c0,1.67.31,2.09,1.84,2.09a8.42,8.42,0,0,0,1.84-.22v.48a5.85,5.85,0,0,1-4.78,2.12C147.6,53.31,146.3,52,146.3,48.81Z"/><path class="cls-1" d="M15.25,83.18,16,83c1-.28,1.24-.62,1.24-2.86V67c0-2-.19-2-1.24-2.29l-.76-.2v-.48h8.6L27.38,74h.11l3.68-9.93h8.49v.48l-.76.2c-1,.28-1.25.34-1.25,2.29V80.69c0,2,.2,2,1.25,2.29l.76.2v.48H29.11v-.48l.76-.2c1.1-.28,1.27-.34,1.27-2.29V67.31H31l-5.8,15.93H24L18.47,67.31h-.11V79.93c0,2.37.08,2.74,1.36,3l.79.2v.48H15.25Z"/><path class="cls-1" d="M40.51,80.46c0-2.71,2.23-3.45,4.63-4.1l3.23-.87V72.77c0-2.6-.28-3.51-1.44-3.51-.71,0-1.08.14-1.13,1.16-.15,2.43-.74,3.06-2.44,3.06-1.52,0-2.29-.65-2.29-1.84,0-1.93,2.07-3.23,6.9-3.23,3.62,0,6,1,6,4v7.75c0,1.24.09,1.64.62,1.92a3.37,3.37,0,0,0,1.28.29v.42A6.09,6.09,0,0,1,52,84c-1.78,0-2.91-.65-3.34-1.84h-.11a4.74,4.74,0,0,1-4,1.84C42.09,84,40.51,82.67,40.51,80.46Zm7.86.91V76.64l-.65.06c-1.27.09-1.78.65-1.78,2.63s.62,2.55,1.38,2.55A1.14,1.14,0,0,0,48.37,81.37Z"/><path class="cls-1" d="M56.83,83.18l.51-.14c1.13-.31,1.18-.4,1.18-1.7V72c0-1.21,0-1.33-.9-2l-.91-.65v-.28l7-.74.22.17v2.27h.09a5.84,5.84,0,0,1,4.19-2.41,2.15,2.15,0,0,1,2.31,2.38,2.31,2.31,0,0,1-2.37,2.57,2.16,2.16,0,0,1-2.26-1.5c-.2-.42-.34-.56-.68-.56a1.86,1.86,0,0,0-1.16.39v9.62c0,1.42.14,1.5,1.18,1.7l.63.11v.51H56.83Z"/><path class="cls-1" d="M74.9,67.59c-.71-1.84-1-2.68-2-2.91l-.62-.14v-.48h11v.48l-.79.2c-.74.19-1,.53-1,1.18a8.47,8.47,0,0,0,.57,2.24l3.19,9.36h.09l3-9.33A7.94,7.94,0,0,0,88.88,66c0-.74-.34-1-1.14-1.24l-.84-.2v-.48h5.4v.48l-.71.22c-.73.23-1.16,1.11-1.75,2.8l-5.6,16.1H81.12Z"/><path class="cls-1" d="M91.7,83.18l.51-.14c1.13-.31,1.19-.4,1.19-1.7V72c0-1.24-.08-1.35-1-2l-.91-.65v-.25l7.33-.74.23.17C99,70,99,71,99,72.2v9.14c0,1.3.06,1.39,1.19,1.7l.51.14v.48h-9Zm4.36-20.85a2.53,2.53,0,1,1-2.74,2.52A2.53,2.53,0,0,1,96.06,62.33Z"/><path class="cls-1" d="M102,83.43l-.17-4.89h.54a20.51,20.51,0,0,0,2.23,3.37,2.93,2.93,0,0,0,2.57,1.24,1.89,1.89,0,0,0,2.1-1.92c0-1.16-.6-1.61-3.57-2.75-2.6-1-4-2.34-4-4.78,0-2.74,2-5.29,6.48-5.29a12.71,12.71,0,0,1,4,.57l.2,4.16H112A17.47,17.47,0,0,0,110,70.51a3.1,3.1,0,0,0-2.49-1.25c-1.16,0-2,.62-2,1.7s.6,1.61,3,2.46c3.71,1.33,4.87,2.83,4.87,5.15,0,3.17-2.32,5.43-6.76,5.43A17.92,17.92,0,0,1,102,83.43Z"/><path class="cls-1" d="M115.35,79.5V70.31h-1.56V70a10.7,10.7,0,0,0,5.72-5.15h1.41v4h3.45l-.22,1.53h-3.23v9.22c0,1.67.31,2.09,1.84,2.09a8.35,8.35,0,0,0,1.84-.22v.48A5.82,5.82,0,0,1,119.82,84C116.65,84,115.35,82.67,115.35,79.5Z"/><path class="cls-1" d="M125.14,80.46c0-2.71,2.23-3.45,4.64-4.1l3.22-.87V72.77c0-2.6-.28-3.51-1.44-3.51-.71,0-1.08.14-1.13,1.16-.14,2.43-.74,3.06-2.44,3.06-1.52,0-2.29-.65-2.29-1.84,0-1.93,2.07-3.23,6.91-3.23,3.62,0,6,1,6,4v7.75c0,1.24.09,1.64.63,1.92a3.32,3.32,0,0,0,1.27.29v.42A6.07,6.07,0,0,1,136.65,84c-1.78,0-2.91-.65-3.34-1.84h-.11a4.72,4.72,0,0,1-4,1.84C126.72,84,125.14,82.67,125.14,80.46Zm7.86.91V76.64l-.65.06c-1.27.09-1.78.65-1.78,2.63s.62,2.55,1.39,2.55A1.12,1.12,0,0,0,133,81.37Z"/><path class="cls-1" d="M77.77,0A11.09,11.09,0,1,0,88.86,11.09,11.09,11.09,0,0,0,77.77,0Zm10,10.55h-5.7a4.27,4.27,0,0,0-.93-2.19l4-4A9.88,9.88,0,0,1,87.77,10.55ZM80.36,7.62a4.27,4.27,0,0,0-2-.83V1.09a9.94,9.94,0,0,1,6.08,2.49Zm-3.13-.83a4.27,4.27,0,0,0-2,.83l-4-4a10,10,0,0,1,6.08-2.49Zm.54,1A3.25,3.25,0,0,1,81,10.55H74.56A3.25,3.25,0,0,1,77.77,7.83ZM70.38,4.34l4,4a4.29,4.29,0,0,0-.94,2.19h-5.7A9.94,9.94,0,0,1,70.38,4.34Zm7.39,16.77a10,10,0,0,1-10-9.48h20A10,10,0,0,1,77.77,21.11Z"/><rect class="cls-1" x="73.66" y="13.15" width="8.22" height="1.08"/><rect class="cls-1" x="75.51" y="15.73" width="4.51" height="1.08"/></g></g></svg>