<svg version="1.2" xmlns="http://www.w3.org/2000/svg" viewBox="0 0 159 84" width="159" height="84">
	<title>logo-white-svg</title>
	<style>
		.s0 { fill: #ffffff } 
	</style>
	<path class="s0" d="m30.3 32.5c0 0.2-0.1 0.8-1.3 2.4v0.1h-0.1l-0.1-0.1q-0.9-1.1-2.4-1.7-0.4-0.1-0.6-0.2-0.3 0.6-1.2 1.9l-0.1 0.1h-0.1v-0.1q-0.9-1.1-2.5-1.7-1.1-0.4-1.1-1.2c0-0.3 0.3-0.8 2.9-2.8l0.1-0.1h0.1v0.2q0.1 0.8 1 1.6 0.3 0.3 0.6 0.5c0.3-0.4 1.1-1 2.6-2.2l0.1-0.1h0.1v0.2q0.1 0.8 1 1.6 0.5 0.4 0.8 0.8 0.2 0.4 0.2 0.8z"/>
	<path class="s0" d="m48.1 52.2q-0.3-0.4-0.8-0.9-0.9-0.7-1-1.5v-0.2h-0.1l-0.1 0.1c-1.5 1.1-2.3 1.8-2.6 2.2q-0.3-0.3-0.6-0.6-0.9-0.7-1-1.5v-0.2h-0.1l-0.1 0.1c-2.6 1.9-2.9 2.5-2.9 2.8q0 0.8 1.1 1.2 1.6 0.6 2.5 1.7v0.1h0.1l0.1-0.1q0.9-1.3 1.2-2 0.2 0.2 0.6 0.3 1.5 0.6 2.4 1.7l0.1 0.1h0.1v-0.1c1.2-1.7 1.3-2.2 1.3-2.5q0-0.4-0.2-0.7z"/>
	<path class="s0" d="m83.8 52.2q-0.3-0.4-0.8-0.9-0.9-0.7-0.9-1.5l-0.1-0.2h-0.1l-0.1 0.1c-1.5 1.1-2.3 1.8-2.6 2.2q-0.2-0.3-0.6-0.6-0.9-0.7-1-1.5v-0.2h-0.1l-0.1 0.1c-2.6 1.9-2.9 2.5-2.9 2.8q0 0.8 1.2 1.2 1.5 0.6 2.4 1.7l0.1 0.1h0.1v-0.1q0.9-1.3 1.2-2 0.2 0.2 0.6 0.3 1.5 0.6 2.4 1.7l0.1 0.1h0.1v-0.1c1.2-1.7 1.3-2.2 1.3-2.5q0-0.4-0.2-0.7z"/>
	<path class="s0" d="m68 46.5c0 0.9-0.4 1.5-0.6 1.9-0.4 0.7-0.9 1-1.6 1.7-0.6 0.5-2.7 2.3-3.6 3.1h-0.5c-0.2-0.8-0.9-1.9-1.8-2.9-0.8-0.8-1.9-1.6-3.2-1.6h-14.7c-1.4 0-1.9-0.4-2.4-0.8-0.3-0.3-1-1.1-1-2.1v-21.5h-1.6v-0.3c2-0.8 4-2.1 5.1-3.8 0.4-0.5 0.8-1.1 1.1-1.8h1.4v26.5h11.6c1.5 0 2.2 0.3 4.2 1.9q1.3 1.1 2.4 2.3 0.2-0.3 0.2-0.7c0-0.1-0.1-0.5-0.8-1.8l-1.1-2q-1.3-2.4-1.2-3.3 0-1.4 1.2-2.7 1.6-1.4 3.1-2.8l0.2-0.1 0.2 0.2v0.2q-0.4 1-0.4 1.7 0 0.7 1.1 2.6 0.8 1.5 1.6 3c0.8 1.6 1.1 2.2 1.1 3.1z"/>
	<path class="s0" d="m158.6 45.7v0.8q-0.8 1-1.8 1.5c-1.3 0.7-2.5 0.7-3.1 0.7-1.2 0-2.6 0-3.7-1-1.1-1.1-1.1-2.6-1.1-3.2v-20.2h-1.6v-0.3c2-0.8 3.9-2.1 5.1-3.8 0.3-0.5 0.7-1.1 1-1.8h1.4v25.8c0 0.3 0 1.2 0.5 1.6 0.2 0.1 0.4 0.2 1 0.2 0.7 0.1 1.8-0.2 2.3-0.3z"/>
	<path class="s0" d="m36.5 46.5q0 1.2-0.5 2-0.4 0.5-1.6 1.6l-3.7 3.2h-0.5v-0.1q-0.3-1.3-1.8-2.9-1.6-1.6-2.7-1.6h-24.8v-0.4l13.9-12.6h0.5l0.9 2.2c0.2 0.3 0.5 0.7 0.9 1 0.3 0.1 0.8 0.3 1.2 0.3h7.2v0.5l-2.3 2.2q-0.4 0.3-0.8 0.6c-0.5 0.3-1.1 0.5-1.7 0.5h-5.6c-0.1 0-0.5 0-1-0.1-0.1 0-0.4-0.1-0.6-0.3-0.3-0.1-0.5-0.3-0.8-0.7q-0.2-0.2-0.4-0.5c0 0-1.8 1.6-2.1 2-0.4 0.4-0.5 0.8-0.3 1.2 0.1 0.2 0.2 0.3 0.6 0.3h15.2c1 0 1.5 0.4 2.3 1.2q0.4 0.4 0.9 0.9 0.8 0.7 2.4 2.2 0.3-0.3 0.3-0.7c0-0.1-0.1-0.6-0.8-1.9l-1.1-2q-1.3-2.4-1.3-3.2 0-1.5 1.3-2.8 1.5-1.4 3-2.7l0.3-0.2 0.2 0.2-0.1 0.2q-0.3 1-0.3 1.7 0 0.8 1 2.7l1.6 3q1.1 2 1.1 3z"/>
	<path class="s0" d="m92.5 46.5q0 1.2-0.6 2-0.3 0.5-1.5 1.6l-3.7 3.2h-0.5v-0.1q-0.3-1.3-1.9-2.9-1.6-1.6-2.6-1.6h-5.4c0 0-8 6.8-9.1 7.7-1.7 1.4-3.6 2.1-6 2.1q-0.8 0-1.5-0.2v-0.5c0.4-0.1 0.7-0.1 1.5-0.4 1-0.4 2.5-1.4 4.1-2.7 1.6-1.2 5.4-4.4 6.7-5.6 1.4-1.3 1.7-3.1 0.8-4.7q0-0.1-0.1-0.3l-1.1-2c-0.9-1.6-1.3-2.7-1.3-3.2q0-1.5 1.3-2.8 1.5-1.4 3.1-2.7l0.2-0.2 0.2 0.2-0.1 0.2q-0.3 1-0.3 1.7 0 0.8 1 2.7l1.7 2.9c0.9 1.7 1.3 2.9 1.3 3.8 0 0 0 0.1 0 0.2h3.1c0.9 0 1.4 0.4 2.2 1.2q0.4 0.4 0.9 0.9 0.7 0.7 2.4 2.2 0.2-0.3 0.2-0.7c0-0.1-0.1-0.6-0.8-1.9l-1.1-2q-1.3-2.4-1.3-3.2 0-1.5 1.3-2.8 1.6-1.4 3.1-2.7l0.2-0.2 0.2 0.2v0.2q-0.4 1-0.4 1.7 0 0.8 1.1 2.7l1.6 3q1.1 2 1.1 3z"/>
	<path class="s0" d="m144.2 48.7c-2.3 0-6.6 0-7.6 0q0.5 0.6 1.1 1 0.6 0.5 1.1 0.8 0.5 0.3 0.8 0.4 0.7 0.4 1.6 0.6l0.2 0.1v0.3l-0.2 0.1q-0.6 0.1-1.3 0.2-0.5 0.1-0.9 0.1c-1.9 0-3.4-0.7-4.4-1.1l-0.1-0.1q-1.9-0.8-3.6-2.4h-35.7v-5.8h0.5c2.1 1.3 4.2 2 6.3 2h10.8c0.1 0 0.1-0.1 0.1-0.1l-0.8-1.8h-7.8c-1 0-1.7 0-2.1-0.1-1.2-0.2-2.4-1.1-3.4-2.8l-2-3.6q-0.5-0.8-1.5-1.2l-0.1-0.1v-0.3l3.4-3.1q0.1 0 0.2 0.1l3.2 5.8q0.8 1.5 2.1 1.5h10.4c0.6 0 1.1 0.6 1.7 1.8l1.8 3.9h9.9c0 0 0-0.1 0-0.1l-1.8-2.6q-1.6-2-3.1-2-1 0-2 0.5l-0.4 0.2-0.2-0.2 4.9-4.5q1.6-1.6 2.5-1.6c0.5 0 1 0.6 1.7 1.9l4.6 8.4h5.8v-20.6h-1.6v-0.3c2-0.8 4-2.1 5.1-3.8 0.4-0.5 0.8-1.1 1.1-1.8h1.4v27.2c0 0.6 0.3 0.9 0.6 1.1 0.4 0.2 1.1 0.2 1.4 0.2v0.6c-0.3 0.2-1.4 1.2-3.7 1.2z"/>
	<g>
		<path fill-rule="evenodd" class="s0" d="m75.2 8.7c-1.4 0-2.5-1.1-2.5-2.6 0-1.4 1.1-2.5 2.5-2.5 1.5 0 2.6 1.1 2.6 2.5 0 1.5-1.1 2.6-2.6 2.6zm1.6-2.6c0-0.8-0.7-1.5-1.6-1.5-0.8 0-1.5 0.7-1.5 1.5 0 0.9 0.7 1.6 1.5 1.6 0.9 0 1.6-0.7 1.6-1.6z"/>
		<path fill-rule="evenodd" class="s0" d="m79.5 22.7c-6.3 0-11.4-5.1-11.4-11.3 0-6.3 5.1-11.4 11.4-11.4 6.3 0 11.3 5.1 11.3 11.4 0 6.2-5 11.3-11.3 11.3zm3.3-11.9v-3.6c-1.7 1.5-4.3 2.8-6.5 3.6zm1 0h5.9q0-0.1 0-0.3c-2.4-0.9-4.5-2.1-5.9-3.3zm-13.9-3.2c1.5 1 3.4 1.9 5.2 2.5 2.5-0.9 5.8-2.5 7.5-4.1l0.2-0.2h1l0.2 0.2c1.2 1.1 3.2 2.3 5.5 3.3-0.9-4.7-5.1-8.2-10.1-8.2-4.3 0-8 2.7-9.5 6.5zm-0.4 1q-0.3 1.1-0.3 2.2h4.8c-1.5-0.6-3.1-1.3-4.5-2.2zm9.9 13.1c1.8 0 3.4-0.5 4.8-1.2-4-1-11.1-3.3-11.3-6.7q0-1.1 0.7-1.9 0 0 0 0h-4.4c0.2 5.4 4.7 9.8 10.2 9.8zm6.1-2c2.4-1.8 4-4.6 4.2-7.8h-5.9v1.4h-1v-1.4h-5.7c-1.3 0-2.3 0.3-2.8 0.8q-0.3 0.4-0.3 1c0.1 1.2 1.6 2.6 4.4 3.8 2.4 1 5.2 1.8 7.1 2.2z"/>
	</g>
	<g>
		<path class="s0" d="m0 77.5l0.8-0.2c1.1-0.4 1.3-0.4 1.3-2.4v-14c0-2-0.2-2-1.3-2.3l-0.8-0.2v-0.5h10.6v0.5l-0.7 0.2c-1.1 0.3-1.3 0.4-1.3 2.3v6.3h5.2v-6.3c0-1.9-0.2-2-1.3-2.3l-0.7-0.2v-0.5h10.6v0.5l-0.8 0.2c-1 0.3-1.2 0.3-1.2 2.3v14c0 2 0.2 2 1.2 2.4l0.8 0.2v0.5h-10.6v-0.5l0.7-0.2c1.1-0.4 1.3-0.4 1.3-2.4v-6.7h-5.2v6.7c0 2 0.2 2 1.3 2.4l0.7 0.2v0.5h-10.6z"/>
		<path class="s0" d="m33.2 66.1c0-1.3-0.1-1.4-0.9-2l-0.9-0.7v-0.3l7.3-0.8 0.2 0.2v12.1c0 1.5 0.1 1.7 1 2.1l0.7 0.2v0.4l-7 1-0.3-0.2v-2.1h-0.1c-1.5 1.2-3.2 2.3-5.6 2.3-2.3 0-3.7-1.3-3.7-3.9v-8.3c0-1.3 0-1.4-0.9-2l-0.9-0.7v-0.3l7.3-0.8 0.2 0.2v10.6c0 1.7 0.6 2.2 1.7 2.2 0.9 0 1.5-0.1 1.9-0.2z"/>
		<path fill-rule="evenodd" class="s0" d="m41 71.2c0-6.4 3.9-8.9 8.5-8.9 0.9 0 1.4 0.1 1.9 0.3v-2.9c0-1.4-0.1-1.5-1-2l-1.1-0.6v-0.4l7.7-0.7 0.2 0.2v1c0 0.7-0.1 1.6-0.1 2.5v14.9c0 1.5 0.1 1.7 1 2.1l0.7 0.2v0.4l-7 1-0.3-0.3v-1.8h-0.1c-1.2 1.1-2.6 2.1-4.6 2.1-3.3 0-5.8-2.3-5.8-7.1zm10.4 4.2v-11c-0.4-0.8-0.8-1.2-1.8-1.2-1.7 0-2.8 1.4-2.8 6.5 0 4.5 0.9 6 3 6 0.5 0 1.3-0.2 1.6-0.3z"/>
		<path fill-rule="evenodd" class="s0" d="m59.7 74.7c0-2.8 2.3-3.5 4.7-4.2l3.3-0.9v-2.8c0-2.7-0.3-3.6-1.4-3.6-0.8 0-1.1 0.2-1.2 1.2-0.1 2.5-0.7 3.1-2.5 3.1q-2.3 0-2.3-1.9c0-1.9 2.1-3.3 7-3.3 3.7 0 6.1 1.1 6.1 4.2v7.9c0 1.3 0.1 1.7 0.7 2 0.3 0.2 1 0.3 1.3 0.3v0.4c-0.6 0.5-1.9 1.2-3.9 1.2-1.9 0-3-0.6-3.4-1.9h-0.2c-0.7 0.9-1.8 1.9-4 1.9-2.6 0-4.2-1.3-4.2-3.6zm8 0.9v-4.8h-0.6c-1.3 0.1-1.9 0.7-1.9 2.7 0 2 0.7 2.6 1.5 2.6q0.7 0 1-0.5z"/>
		<path class="s0" d="m87.1 66.5c0.3-0.9 0.6-1.4 0.6-1.9q-0.1-0.9-1.1-1.2l-0.7-0.2v-0.5h5v0.5l-0.6 0.2c-0.6 0.2-0.9 0.8-1.8 2.9l-5.4 12.9c-1.3 3.1-2.5 4.7-5.3 4.7-1.7 0-3.1-0.9-3.1-2.4 0-1.3 0.8-2 2.3-2 1 0 1.9 0.5 2.1 1.9 0.1 0.6 0.1 0.8 0.5 0.8 0.6 0 1.5-0.8 2.5-3.2l0.1-0.3-6-12.8c-0.9-2-1.2-2.4-1.8-2.5l-0.4-0.2v-0.5h9.9v0.5l-0.8 0.2c-0.5 0.2-1 0.5-1 1.3 0 0.4 0.2 1 0.5 1.6l2.3 5.9h0.1z"/>
		<path class="s0" d="m92 77.5l0.5-0.2c1.2-0.3 1.2-0.4 1.2-1.7v-9.5c0-1.3 0-1.4-0.9-2l-0.9-0.7v-0.3l7.2-0.8 0.2 0.2v2.3h0.1c0.9-1 2.4-2.4 4.3-2.4 1.4 0 2.3 0.8 2.3 2.4 0 1.7-1 2.6-2.4 2.6-1.4 0-1.9-0.6-2.3-1.5-0.2-0.4-0.4-0.6-0.7-0.6-0.4 0-0.9 0.2-1.2 0.4v9.9c0 1.4 0.2 1.5 1.2 1.7l0.7 0.1v0.6h-9.3z"/>
		<path class="s0" d="m107.1 77.5l0.5-0.2c1.2-0.3 1.2-0.4 1.2-1.7v-9.5c0-1.3-0.1-1.5-1-2.1l-0.9-0.6v-0.3l7.5-0.8 0.2 0.2c-0.1 1.4-0.1 2.4-0.1 3.7v9.4c0 1.3 0.1 1.4 1.2 1.7l0.5 0.2v0.5h-9.1zm4.4-21.4c1.6 0 2.8 1 2.8 2.6 0 1.6-1.2 2.6-2.8 2.6-1.6 0-2.8-1-2.8-2.6 0-1.6 1.2-2.6 2.8-2.6z"/>
		<path class="s0" d="m129.1 66.5c0.3-0.9 0.5-1.4 0.5-1.9q0-0.9-1-1.2l-0.7-0.2v-0.5h4.9v0.5l-0.5 0.2c-0.6 0.2-0.9 0.8-1.8 2.9l-5.5 12.9c-1.3 3.1-2.5 4.7-5.3 4.7-1.6 0-3-0.9-3-2.4 0-1.3 0.8-2 2.2-2 1.1 0 1.9 0.5 2.1 1.9 0.1 0.6 0.2 0.8 0.6 0.8 0.6 0 1.5-0.8 2.5-3.2l0.1-0.3-6-12.8c-0.9-2-1.2-2.4-1.8-2.5l-0.4-0.2v-0.5h9.9v0.5l-0.8 0.2c-0.5 0.2-1 0.5-1 1.3 0 0.4 0.2 1 0.5 1.6l2.3 5.9h0.1z"/>
		<path fill-rule="evenodd" class="s0" d="m132.6 74.7c0-2.8 2.3-3.5 4.7-4.2l3.3-0.9v-2.8c0-2.7-0.2-3.6-1.4-3.6-0.8 0-1.1 0.2-1.2 1.2-0.1 2.5-0.7 3.1-2.5 3.1q-2.3 0-2.3-1.9c0-1.9 2.1-3.3 7-3.3 3.7 0 6.1 1.1 6.1 4.2v7.9c0 1.3 0.1 1.7 0.7 2 0.3 0.2 1 0.3 1.3 0.3v0.4c-0.6 0.5-1.8 1.2-3.9 1.2-1.9 0-3-0.6-3.4-1.9h-0.2c-0.7 0.9-1.8 1.9-4 1.9-2.6 0-4.2-1.3-4.2-3.6zm8 0.9v-4.8h-0.6c-1.3 0.1-1.8 0.7-1.8 2.7 0 2 0.6 2.6 1.4 2.6q0.7 0 1-0.5z"/>
		<path class="s0" d="m149.5 73.7v-9.4h-1.6v-0.4c2.5-0.9 4.9-3.1 5.9-5.2h1.4v4h3.5l-0.2 1.6h-3.3v9.4c0 1.7 0.3 2.2 1.9 2.2 0.7 0 1.4-0.1 1.9-0.3v0.5c-0.8 1-2.2 2.2-4.9 2.2-3.3 0-4.6-1.3-4.6-4.6z"/>
	</g>
</svg>
