<?xml version="1.0" encoding="UTF-8"?>
<svg width="15px" height="22px" viewBox="0 0 15 22" version="1.1" xmlns="http://www.w3.org/2000/svg" xmlns:xlink="http://www.w3.org/1999/xlink">
    <title>pin (4) copy 12</title>
    <g id="Page-1" stroke="none" stroke-width="1" fill="none" fill-rule="evenodd">
        <g id="2,6-InteractiveMap" transform="translate(-416.000000, -709.000000)" fill="#C13422" fill-rule="nonzero">
            <g id="pins" transform="translate(343.000000, 438.000000)">
                <g id="pin-(4)-copy-12" transform="translate(73.000000, 271.000000)">
                    <path d="M13.9581325,3.63895519 C12.6342438,1.41335189 10.2827468,0.0536437464 7.66781833,0.00168090656 C7.55619125,-0.000560302187 7.44383986,-0.000560302187 7.33217017,0.00168090656 C4.71728436,0.0536437464 2.36578734,1.41335189 1.04185601,3.63895519 C-0.311388089,5.91386507 -0.348412493,8.64647959 0.942797619,10.9487405 L6.35215252,20.5936994 C6.35458104,20.5979743 6.35700957,20.6022492 6.35952331,20.6064826 C6.59751908,21.0094436 7.0238749,21.25 7.50007946,21.25 C7.97624142,21.25 8.40259724,21.0094021 8.6405504,20.6064826 C8.64306414,20.6022492 8.64549267,20.5979743 8.6479212,20.5936994 L14.0572761,10.9487405 C15.348401,8.64647959 15.3113766,5.91386507 13.9581325,3.63895519 Z M7.49999425,9.6289176 C5.80850304,9.6289176 4.43237965,8.28838424 4.43237965,6.64063927 C4.43237965,4.99289429 5.80850304,3.65236094 7.49999425,3.65236094 C9.19148546,3.65236094 10.5676089,4.99289429 10.5676089,6.64063927 C10.5676089,8.28838424 9.19152807,9.6289176 7.49999425,9.6289176 Z" id="Shape"></path>
                </g>
            </g>
        </g>
    </g>
</svg>