<?xml version="1.0" encoding="UTF-8"?>
<svg width="15px" height="22px" viewBox="0 0 15 22" version="1.1" xmlns="http://www.w3.org/2000/svg" xmlns:xlink="http://www.w3.org/1999/xlink">
    <title>pin (4) copy 6</title>
    <g id="Page-1" stroke="none" stroke-width="1" fill="none" fill-rule="evenodd">
        <g id="2,6-InteractiveMap" transform="translate(-749.000000, -783.000000)" fill="#304697" fill-rule="nonzero">
            <g id="pins" transform="translate(343.000000, 438.000000)">
                <g id="pin-(4)-copy-6" transform="translate(406.000000, 345.000000)">
                    <path d="M13.9581325,3.66953464 C12.6342438,1.4252288 10.2827468,0.0540945342 7.66781833,0.00169503183 C7.55619125,-0.000565010609 7.44383986,-0.000565010609 7.33217017,0.00169503183 C4.71728436,0.0540945342 2.36578734,1.4252288 1.04185601,3.66953464 C-0.311388089,5.96356142 -0.348412493,8.71913909 0.942797619,11.0407468 L6.35215252,20.7667557 C6.35458104,20.7710665 6.35700957,20.7753773 6.35952331,20.7796463 C6.59751908,21.1859935 7.0238749,21.4285714 7.50007946,21.4285714 C7.97624142,21.4285714 8.40259724,21.1859517 8.6405504,20.7796463 C8.64306414,20.7753773 8.64549267,20.7710665 8.6479212,20.7667557 L14.0572761,11.0407468 C15.348401,8.71913909 15.3113766,5.96356142 13.9581325,3.66953464 Z M7.49999425,9.70983287 C5.80850304,9.70983287 4.43237965,8.35803453 4.43237965,6.69644296 C4.43237965,5.03485139 5.80850304,3.68305304 7.49999425,3.68305304 C9.19148546,3.68305304 10.5676089,5.03485139 10.5676089,6.69644296 C10.5676089,8.35803453 9.19152807,9.70983287 7.49999425,9.70983287 Z" id="Shape"></path>
                </g>
            </g>
        </g>
    </g>
</svg>