<?xml version="1.0" encoding="UTF-8"?>
<svg width="45px" height="45px" viewBox="0 0 45 45" version="1.1" xmlns="http://www.w3.org/2000/svg" xmlns:xlink="http://www.w3.org/1999/xlink">
    <title>zoom-reset</title>
    <g id="Page-1" stroke="none" stroke-width="1" fill="none" fill-rule="evenodd">
        <g id="zoom-reset">
            <path d="M37.996375,22.0606875 L36.3385,22.0606875 C36.022375,15.059625 29.9365625,8.974 22.9356875,8.6578125 L22.9356875,7 L21.0606875,7 L21.0606875,8.6578125 C14.059625,8.9739375 7.974,15.0598125 7.6578125,22.0606875 L6,22.0606875 L6,23.9356875 L7.6578125,23.9356875 C7.974,30.93675 14.0598125,37.022375 21.0606875,37.3385625 L21.0606875,38.996375 L22.9356875,38.996375 L22.9356875,37.3385625 C29.93675,37.0224375 36.022375,30.9365625 36.3385625,23.9356875 L37.996375,23.9356875 L37.996375,22.0606875 L37.996375,22.0606875 Z M22.9356875,35.4585625 L22.9356875,33.8655 L21.0606875,33.8655 L21.0606875,35.4585625 C14.9165,35.0006875 9.9956875,30.079875 9.53775,23.935625 L11.1308125,23.935625 L11.1308125,22.060625 L9.53775,22.060625 C9.995625,15.9164375 14.9164375,10.995625 21.0606875,10.5376875 L21.0606875,12.13075 L22.9356875,12.13075 L22.9356875,10.5376875 C29.079875,10.995625 34.0006875,15.9164375 34.4585625,22.0606875 L32.8655625,22.0606875 L32.8655625,23.9356875 L34.4585625,23.9356875 C34.000625,30.079875 29.079875,35.0006875 22.9356875,35.4585625 Z" id="Shape" fill="#242655" fill-rule="nonzero"></path>
            <circle id="Oval" fill="#242655" fill-rule="nonzero" cx="21.96875" cy="22.96875" r="3.65625"></circle>
            <rect id="Rectangle" x="0" y="0" width="45" height="45"></rect>
        </g>
    </g>
</svg>