<?xml version="1.0" encoding="UTF-8"?>
<svg width="60px" height="60px" viewBox="0 0 60 60" version="1.1" xmlns="http://www.w3.org/2000/svg" xmlns:xlink="http://www.w3.org/1999/xlink">
    <title>football (1)</title>
    <g id="V2-Pages" stroke="none" stroke-width="1" fill="none" fill-rule="evenodd">
        <g id="5,1-Sport-Facility" transform="translate(-596.000000, -1564.000000)" fill="#7D9831">
            <g id="key-features" transform="translate(112.000000, 1506.000000)">
                <g id="Yoga-Session" transform="translate(480.000000, 58.000000)">
                    <g id="football-(1)" transform="translate(4.000000, 0.000000)">
                        <path d="M56.9361204,34.7800733 C58.4587757,32.106961 59.4728225,29.0965285 59.8423902,25.887128 C59.843749,25.8769483 59.8446547,25.8667686 59.8460134,25.8565888 C59.9465575,24.9728005 60,24.0742054 60,23.163117 C60,17.1468792 57.7427382,11.6595263 54.0488724,7.53718634 C53.9899951,7.45297203 53.9207012,7.37616106 53.8418963,7.30999271 C51.4424234,4.70258614 48.4605189,2.66061898 45.1094996,1.40573228 C45.0492637,1.37796918 44.9867633,1.35483343 44.9229042,1.33817564 C42.547435,0.472896153 39.9912581,0 37.3281964,0 C34.3580675,0 31.5197328,0.587649804 28.9178129,1.65328543 C28.8471603,1.67503313 28.7792249,1.70372148 28.7135542,1.73888804 C25.514257,3.08631801 22.6809043,5.16113794 20.4109612,7.76021568 C20.3366854,7.82730951 20.2705618,7.90273231 20.2148549,7.98602125 C16.7542333,12.0542233 14.6563929,17.3629677 14.6563929,23.163117 C14.6563929,24.0325609 14.7053064,24.8908998 14.7972453,25.7358198 C14.7981512,25.7464622 14.7995099,25.756642 14.8008685,25.7668219 C14.9693479,27.3002637 15.2850205,28.7883595 15.7329402,30.2167648 L3.55396195,42.6596697 C3.1010603,43.122386 3.1010603,43.8724493 3.55396195,44.3351656 C3.78041277,44.5665238 4.07706338,44.6822028 4.37371387,44.6822028 C4.67036448,44.6822028 4.96701509,44.5665238 5.19346591,44.3351656 L16.6419137,32.6390847 C16.9607564,33.3623104 17.3149256,34.0665647 17.7021565,34.7481459 C17.7374828,34.8295839 17.7823201,34.9059321 17.8344038,34.9767278 C20.7085176,39.9078957 25.3226796,43.6614506 30.805507,45.347589 L22.6378786,53.6917526 C22.1854298,54.1544689 22.1854298,54.9045321 22.6378786,55.3672484 C22.8643294,55.5986066 23.1614329,55.7142857 23.4580835,55.7142857 C23.7547341,55.7142857 24.0513846,55.5986066 24.2778356,55.3672484 L33.4586048,45.9870629 C34.7167656,46.2091667 36.0093468,46.326234 37.3281964,46.326234 C45.586858,46.326234 52.8273966,41.7902258 56.7911919,35.0294774 C56.8491633,34.9526664 56.8980766,34.8693776 56.9361204,34.7800733 L56.9361204,34.7800733 Z M46.9043489,34.8268076 L42.7793207,28.3413754 L44.9727234,21.4445885 L50.1860742,20.2484668 L51.5425147,19.9375214 L57.4696385,26.1559663 C57.1095816,28.6972044 56.2979819,31.0912986 55.1204376,33.2503331 L46.9043489,34.8268076 Z M31.8775251,28.3413754 L27.7543085,34.8235686 L19.5128573,33.2077632 C18.3321427,31.0306829 17.5232603,28.6153035 17.1727145,26.0518551 L23.1075377,19.9356706 L29.6841225,21.4445885 L31.145636,26.0407499 L31.8775251,28.3413754 Z M20.4521753,11.5512506 L21.4979252,18.2296354 L16.9788725,22.8868754 C17.0327678,18.6951281 18.3049685,14.7981311 20.4521753,11.5512506 Z M33.9934816,27.3284894 L31.9454604,20.8888662 L37.3069101,16.9095057 L42.6683598,20.8893289 L40.6203385,27.3284894 L33.9934816,27.3284894 Z M57.6788791,22.9798813 L53.1362755,18.2139031 L53.9392701,11.1602553 C56.2626556,14.5070825 57.6412882,18.582688 57.6788791,22.9798813 Z M51.890796,8.65186996 L50.8645209,17.6651215 L48.3699386,18.2370389 L44.3314146,19.163397 L38.5089111,14.8416265 L38.5089111,8.42884075 L44.8015265,3.82111143 C47.4922152,4.91034574 49.9021049,6.56964658 51.890796,8.65186996 Z M42.0356562,2.9317707 L37.2792831,6.41463657 L31.9767106,3.10019944 C33.6827911,2.62452705 35.4767345,2.36910763 37.3281964,2.36910763 C38.9482257,2.36910763 40.5243234,2.56437398 42.0356562,2.9317707 Z M29.1628327,4.11817538 L36.1474819,8.48436671 L36.1474819,14.8416265 L32.0405697,17.8900017 L30.3254312,19.163397 L23.7565457,17.6567926 L22.4068988,9.03777544 C24.2932342,6.95925367 26.5889926,5.27450353 29.1628327,4.11817538 Z M21.3058949,35.9715678 L27.5618253,37.1986916 L30.7479884,42.8410545 C26.9839228,41.5237012 23.7139729,39.1087846 21.3058949,35.9715678 L21.3058949,35.9715678 Z M33.8865969,43.6582116 L29.6605716,36.1742375 L33.780165,29.697597 L40.876228,29.697597 L44.9958214,36.1742375 L40.7707019,43.6577489 C39.6511291,43.8534779 38.5012118,43.9566651 37.3281964,43.9566651 C36.1551812,43.9571264 35.0057168,43.8539406 33.8865969,43.6582116 L33.8865969,43.6582116 Z M43.9088574,42.8410545 L47.0932089,37.2010051 L53.3251356,36.0048834 C50.9197749,39.1259051 47.6597888,41.5283283 43.9088574,42.8410545 L43.9088574,42.8410545 Z" id="Shape"></path>
                        <path d="M16.2055422,42.1300998 L0.344730314,57.9913714 C-0.114910105,58.4510119 -0.114910105,59.1960889 0.344730314,59.6557294 C0.574550406,59.88509 0.875614909,60 1.17667941,60 C1.47774392,60 1.77880842,59.88509 2.00862851,59.6552696 L17.8699002,43.7944578 C18.3290809,43.3348174 18.3290809,42.5897402 17.8699002,42.1300998 C17.4102598,41.6709191 16.6651826,41.6709191 16.2055422,42.1300998 L16.2055422,42.1300998 Z" id="Path"></path>
                        <path d="M19.8214286,55.7142857 C19.3989257,55.7142857 18.9845841,55.886233 18.685756,56.1849444 C18.3869279,56.4836559 18.2142857,56.8978356 18.2142857,57.3220561 C18.2142857,57.744394 18.3863001,58.1573186 18.685756,58.4566575 C18.9845841,58.7572517 19.3989257,58.9285714 19.8214286,58.9285714 C20.2445591,58.9285714 20.6589006,58.7572517 20.9577287,58.4566575 C21.2565568,58.1579461 21.4285714,57.744394 21.4285714,57.3220561 C21.4285714,56.8978356 21.2571846,56.4836559 20.9577287,56.1849444 C20.6589006,55.886233 20.2445591,55.7142857 19.8214286,55.7142857 Z" id="Path"></path>
                    </g>
                </g>
            </g>
        </g>
    </g>
</svg>