<?xml version="1.0" encoding="UTF-8"?>
<svg width="60px" height="41px" viewBox="0 0 60 41" version="1.1" xmlns="http://www.w3.org/2000/svg" xmlns:xlink="http://www.w3.org/1999/xlink">
    <title>fitness</title>
    <g id="V2-Pages" stroke="none" stroke-width="1" fill="none" fill-rule="evenodd">
        <g id="5,1-Sport-Facility" transform="translate(-112.000000, -1582.000000)" fill="#DB7112">
            <g id="key-features" transform="translate(112.000000, 1506.000000)">
                <g id="fitness" transform="translate(0.000000, 76.000000)">
                    <path d="M3.00071713,41 L56.9992829,41 C58.6354416,40.9982997 59.969244,39.6873039 59.9996074,38.0513751 C60.0270774,36.3733751 58.6093651,35 56.9310347,35 L44.156374,35 L51.8605444,25.8947501 C52.4648081,25.1793255 53.019938,24.4238059 53.5221252,23.6333751 C53.5751238,23.5687501 54.6753446,21.6291251 55.0795839,20.6863751 L55.9880597,18.5661251 C56.6749191,16.9551948 56.8184023,15.1643717 56.3967989,13.4646251 L55.411825,9.52500008 L56.6835413,9.94887508 C57.0428641,10.0686895 57.4390395,9.97519599 57.7068891,9.70737508 L58.7068625,8.70737508 C58.8942696,8.51968815 58.9994383,8.26523513 58.9992297,8 L58.9992297,5 C58.9992642,4.6212099 58.7852788,4.27491399 58.4464944,4.10550008 L56.5916687,3.17812508 L54.3011045,0.887500081 C53.7328597,0.319241785 52.9621548,0 52.1585364,0 L52.0302898,0 C51.1696859,0 50.34977,0.36632972 49.7759747,1.00775008 C48.9045645,1.0508552 48.0679791,1.36320736 47.3815383,1.90175008 C46.7612631,2.40107074 46.2971109,3.06773235 46.0440738,3.82275008 L45.0508502,6.68375008 C44.9761006,6.90810242 44.9832751,7.15168642 45.0710997,7.37125008 L45.999575,9.69262508 L45.999575,12 C45.999575,12.5522848 46.4472784,13 46.9995485,13 L48.9994954,13 L48.9994954,14.1327501 L48.0238963,14.2721251 L48.0238963,14.2721251 L44.3842429,14.7920001 C42.4422131,15.0694399 40.9997102,16.7327016 40.9997078,18.6945001 L40.9997078,22.7230001 L38.8012662,26.3875001 L28.9685274,16.5545001 C27.8655986,15.4514996 26.3332386,14.8896557 24.7787459,15.0183053 C23.2242532,15.1469549 21.805099,15.9530657 20.8984917,17.2223751 L12.2932203,29.2698751 L9.59004211,31.0718751 L5.75814389,32.0298751 C5.3129809,32.1411514 5.00067613,32.5411286 5.00066401,33 L5.00066401,35 L3.06896532,35 C1.3906349,35 -0.027077444,36.3733751 0.000392637134,38.0513751 C0.0307559905,39.6873039 1.36455837,40.9982997 3.00071713,41 L3.00071713,41 Z M48.9994954,3.23500008 L48.9994954,4.58575008 L48.2526402,3.83887508 C48.4544499,3.58540035 48.7093896,3.37926708 48.9994954,3.23500008 L48.9994954,3.23500008 Z M47.9995219,11.0000001 L47.9995219,9.50000008 C47.9995273,9.37278743 47.9752607,9.24674202 47.9280238,9.12862508 L47.0641718,6.96875008 L47.4365369,5.85125008 L48.9989954,7.41375008 L48.9989954,11.0000001 L47.9995219,11.0000001 Z M48.3653872,18.6596251 L48.9696211,16.2425001 L48.975246,16.2192501 L48.9897456,16.1543751 L50.140965,15.9898751 C50.6335414,15.9194652 50.9994108,15.4975963 50.9994422,14.9999959 L50.9994422,3.03087508 C51.0000622,2.46179556 51.4612254,2.00062011 52.0302898,1.99999595 L52.1585364,1.99999595 C52.4318614,1.99922357 52.6941359,2.1078361 52.8868921,2.30162508 L55.2922032,4.70712508 C55.3681637,4.78321202 55.4559169,4.84652765 55.5520713,4.89462508 L56.9992829,5.61800008 L56.9992829,7.58575008 L56.72929,7.85587508 L56.1550553,7.66450008 L54.2628555,5.80725008 C53.937677,5.48818873 53.4379553,5.42924727 53.0474708,5.66389718 C52.6569863,5.89854709 52.4744519,6.36746986 52.6035246,6.80437508 L54.4559754,13.9498751 C54.7723153,15.2254912 54.6645937,16.569436 54.1491086,17.7783751 L53.2406327,19.8985001 C52.9308258,20.6205562 52.5759699,21.3224382 52.1781609,21.9999959 L50.9731929,21.9999959 C50.1453544,21.9999959 49.363663,21.6186678 48.8541964,20.9661473 C48.3447297,20.3136269 48.1643173,19.4627578 48.3651372,18.6596251 L48.3653872,18.6596251 Z M42.8571585,23.5145001 C42.9503512,23.3590603 42.9996012,23.1812371 42.9996547,23.0000001 L42.9996547,18.6945001 C42.9999081,17.7281245 43.7103925,16.9088539 44.6669854,16.7718751 L46.8544273,16.4593751 L46.4256887,18.1743751 C46.0815184,19.5492563 46.3781776,21.0060414 47.2326013,22.1368284 C48.087025,23.2676155 49.4073733,23.9508591 50.8239469,23.9952501 C50.6640761,24.2011251 50.5014555,24.4045001 50.3337099,24.6026251 L42.6316645,33.7055001 L42.4510443,32.6250001 C42.1617007,30.8690754 41.3979043,29.2256441 40.242228,27.8723751 L42.8571585,23.5145001 Z M22.5258235,18.3846251 C23.0907283,17.5936964 23.9750182,17.0913952 24.9436398,17.0112384 C25.9122613,16.9310816 26.8670873,17.2811896 27.554315,17.9685001 L38.2926547,28.7071251 C39.4484466,29.8587096 40.2130055,31.3444902 40.4782217,32.9543751 L40.8193376,35.0000001 L35.4998539,35.0000001 L25.8321107,21.4452501 C25.6419559,21.1600517 25.3189782,20.9921257 24.9763034,21.0002896 C24.6336287,21.0084536 24.3190138,21.1915698 24.1426556,21.4855001 L21.2059836,26.3800001 L16.0003718,31.5857501 L14.3065418,29.8918751 L22.5258235,18.3846251 Z M32.9999203,35.0000001 L16.3878616,35.0000001 L16.8744736,33.5401251 L22.7073187,27.7071251 C22.76495,27.6492428 22.8153193,27.5845585 22.8573147,27.5145001 L25.0441316,23.8695001 L32.9999203,35.0000001 Z M7.00061089,33.7807501 L10.2430248,32.9701251 C10.3543546,32.9423913 10.4600677,32.8956649 10.5555165,32.8320001 L12.8732049,31.2867501 L14.8565272,33.2701251 L14.2796676,35.0000001 L7.00061089,35.0000001 L7.00061089,33.7807501 Z M3.00071713,37.0000001 L56.9992829,37.0000001 C57.5515529,37.0000001 57.9992563,37.4477153 57.9992563,38.0000001 C57.9992563,38.5522848 57.5515529,39.0000001 56.9992829,39.0000001 L3.00071713,39.0000001 C2.44844705,39.0000001 2.00074369,38.5522848 2.00074369,38.0000001 C2.00074369,37.4477153 2.44844705,37.0000001 3.00071713,37.0000001 Z" id="Shape"></path>
                    <path d="M52.2437944,29.3301984 L51.2455387,30.4334002 C51.0100409,30.6894807 50.9376221,31.0455166 51.0558164,31.3661407 C51.1740107,31.6867649 51.4646613,31.9227236 51.817261,31.9843038 C52.1698606,32.045884 52.5302436,31.9236258 52.7613899,31.6640126 L53.7596456,30.560929 C53.991753,30.3044493 54.0617692,29.9501642 53.9433198,29.6315296 C53.8248705,29.312895 53.5359509,29.0783191 53.1853942,29.0161643 C52.8348375,28.9540094 52.4759017,29.0737186 52.2437944,29.3301984 L52.2437944,29.3301984 Z" id="Path"></path>
                    <path d="M56.592584,25.3809279 L54.1926488,29.199016 C53.9050819,29.6564472 53.9438978,30.3451588 54.2793465,30.7372964 C54.6147952,31.1294341 55.1198491,31.0765032 55.407416,30.6190721 L57.8073512,26.800984 C58.0949181,26.3435528 58.0561022,25.6548412 57.7206535,25.2627036 C57.3852048,24.8705659 56.8801509,24.9234968 56.592584,25.3809279 L56.592584,25.3809279 Z" id="Path"></path>
                </g>
            </g>
        </g>
    </g>
</svg>