<?xml version="1.0" encoding="UTF-8"?>
<svg width="60px" height="40px" viewBox="0 0 60 40" version="1.1" xmlns="http://www.w3.org/2000/svg" xmlns:xlink="http://www.w3.org/1999/xlink">
    <title>race-track</title>
    <g id="V2-Pages" stroke="none" stroke-width="1" fill="none" fill-rule="evenodd">
        <g id="5,1-Sport-Facility" transform="translate(-113.000000, -1778.000000)" fill="#185E30">
            <g id="key-features" transform="translate(112.000000, 1506.000000)">
                <g id="Marathon" transform="translate(0.000000, 272.000000)">
                    <g id="race-track" transform="translate(1.000000, 0.737705)">
                        <path d="M31.6795767,31.5590037 L28.3204233,31.5590037 C27.8487614,31.5590037 27.4576271,32.0166396 27.4576271,32.5684946 C27.4576271,33.1203497 27.8487614,33.5779855 28.3204233,33.5779855 L31.6795767,33.5779855 C32.1512386,33.5779855 32.5423729,33.1203497 32.5423729,32.5684946 C32.5423729,32.0166396 32.1512386,31.5590037 31.6795767,31.5590037 Z" id="Path"></path>
                        <path d="M42.8660173,31.5590037 L39.506864,31.5590037 C39.0352021,31.5590037 38.6440678,32.0166396 38.6440678,32.5684946 C38.6440678,33.1203497 39.0352021,33.5779855 39.506864,33.5779855 L42.8660173,33.5779855 C43.3491832,33.5779855 43.7288136,33.1203497 43.7288136,32.5684946 C43.7288136,32.0166396 43.3376793,31.5590037 42.8660173,31.5590037 Z" id="Path"></path>
                        <path d="M20.493136,31.5590037 L17.1339827,31.5590037 C16.6623207,31.5590037 16.2711864,32.0166396 16.2711864,32.5684946 C16.2711864,33.1203497 16.6623207,33.5779855 17.1339827,33.5779855 L20.493136,33.5779855 C20.9647979,33.5779855 21.3559322,33.1203497 21.3559322,32.5684946 C21.3559322,32.0166396 20.9647979,31.5590037 20.493136,31.5590037 Z" id="Path"></path>
                        <path d="M7.11864407,21.3919878 L7.11864407,16.4887461 C7.11864407,15.8974728 6.65762712,15.4071486 6.10169492,15.4071486 C5.54576271,15.4071486 5.08474576,15.8974728 5.08474576,16.4887461 L5.08474576,21.3919878 C5.08474576,21.983261 5.54576271,22.4735852 6.10169492,22.4735852 C6.65762712,22.4735852 7.11864407,21.983261 7.11864407,21.3919878 Z" id="Path"></path>
                        <path d="M52.8813559,16.4887461 L52.8813559,21.3919878 C52.8813559,21.983261 53.3423729,22.4735852 53.8983051,22.4735852 C54.4677966,22.4735852 54.9152542,21.983261 54.9152542,21.3919878 L54.9152542,16.4887461 C54.9152542,15.8974728 54.4542373,15.4071486 53.8983051,15.4071486 C53.3423729,15.4071486 52.8813559,15.8974728 52.8813559,16.4887461 Z" id="Path"></path>
                        <path d="M42.8660173,5.31223921 L39.506864,5.31223921 C39.0352021,5.31223921 38.6440678,5.7698751 38.6440678,6.32173015 C38.6440678,6.8735852 39.0352021,7.33122109 39.506864,7.33122109 L42.8660173,7.33122109 C43.3491832,7.33122109 43.7288136,6.8735852 43.7288136,6.32173015 C43.7288136,5.7698751 43.3376793,5.31223921 42.8660173,5.31223921 Z" id="Path"></path>
                        <path d="M17.1339827,7.33122109 L20.493136,7.33122109 C20.9647979,7.33122109 21.3559322,6.8735852 21.3559322,6.32173015 C21.3559322,5.7698751 20.9647979,5.31223921 20.493136,5.31223921 L17.1339827,5.31223921 C16.6623207,5.31223921 16.2711864,5.7698751 16.2711864,6.32173015 C16.2711864,6.8735852 16.6623207,7.33122109 17.1339827,7.33122109 Z" id="Path"></path>
                        <path d="M11.7654186,29.8542007 C10.3369263,28.9647383 9.43937799,28.0629223 8.92107546,27.0375698 C8.69352801,26.5681313 8.12465938,26.3828267 7.65692294,26.6051923 C7.17654499,26.8275579 6.98692211,27.3834719 7.21446956,27.8405567 C7.8844704,29.1871039 9.00956614,30.3236392 10.7414551,31.4107599 C10.8931534,31.5095891 11.0701347,31.5590037 11.2471161,31.5590037 C11.5631542,31.5590037 11.8665508,31.4107599 12.0561737,31.1389798 C12.3342873,30.7066022 12.207872,30.1259809 11.7654186,29.8542007 Z" id="Path"></path>
                        <path d="M52.325087,26.6028868 C51.8397618,26.3809711 51.2495016,26.5782295 51.0133975,27.0343895 C50.3837865,28.2795831 49.1770322,29.2042317 48.1932651,29.8823074 C47.7604075,30.1905236 47.6685893,30.7699701 47.9833948,31.1768155 C48.1801482,31.4233885 48.4818368,31.5590037 48.7835253,31.5590037 C48.9802788,31.5590037 49.1901491,31.4973604 49.3475518,31.3617453 C50.5149555,30.5603831 51.9578139,29.4384761 52.7841783,27.8357517 C53.0202824,27.3795917 52.8104121,26.8248025 52.325087,26.6028868 Z" id="Path"></path>
                        <path d="M7.60463644,12.2634582 C7.74388814,12.3402699 7.90845833,12.3786758 8.06036928,12.3786758 L8.06036928,12.3786758 C8.38950965,12.3786758 8.70599079,12.1994485 8.89587947,11.8922017 C9.51618249,10.76563 10.5922183,9.71587008 11.6935727,9.13978231 C12.1493055,8.89654525 12.3391942,8.32045748 12.0986685,7.84678531 C11.8581429,7.38591509 11.2884768,7.19388583 10.8200848,7.43712289 C9.37693079,8.17963602 8.03505079,9.49823693 7.23751833,10.9576593 C6.98433342,11.4185295 7.14890361,12.0074192 7.60463644,12.2634582 Z" id="Path"></path>
                        <path d="M51.0422959,11.8800284 C51.2256906,12.1996742 51.5662808,12.3786758 51.906871,12.3786758 C52.0771661,12.3786758 52.2343615,12.3403183 52.3784574,12.2636033 C52.8500437,12.0078867 53.0203388,11.4197385 52.7583464,10.9594487 C52.0247676,9.66807984 51.0291963,8.23606688 49.1821496,7.41777376 C48.6974636,7.20041465 48.1079806,7.40498793 47.885287,7.89084947 C47.6625935,8.36392518 47.8721874,8.93928753 48.369973,9.15664664 C49.6930349,9.74479482 50.4266137,10.8060187 51.0422959,11.8800284 Z" id="Path"></path>
                        <path d="M44.4328962,0.264784509 L15.5800295,0.264784509 C6.98638596,0.264784509 0,7.44619968 0,16.2798607 L0,21.7700006 C0,26.0372183 1.62021938,30.03123 4.54957602,33.0104765 C7.47893265,35.9767132 11.3933827,37.6159493 15.5670678,37.6159493 L44.4328962,37.6159493 C48.6065814,37.6159493 52.5210314,35.9767132 55.450388,33.0104765 C58.3927064,30.03123 59.999982,26.0502281 59.999982,21.7700006 L59.999982,16.2798607 C60.0129258,7.44619968 53.0265398,0.264784509 44.4328962,0.264784509 Z M30.9785945,2.21625602 L34.3616126,2.21625602 L34.3616126,5.22152216 L30.9785945,5.22152216 L30.9785945,2.21625602 Z M41.6850042,12.1297313 C44.6921313,12.1297313 47.2455971,14.6796541 47.2455971,17.69793 L47.2455971,20.3519313 C47.2455971,23.3311778 44.7569401,25.7510025 41.6850042,25.7510025 L18.3279216,25.7510025 C15.2689474,25.7510025 12.7673287,23.3311778 12.7673287,20.3519313 L12.7673287,17.69793 C12.7673287,14.6796541 15.3078327,12.1297313 18.3279216,12.1297313 L41.6850042,12.1297313 Z M30.9785945,7.17299367 L34.3616126,7.17299367 L34.3616126,10.1782598 L30.9785945,10.1782598 L30.9785945,7.17299367 Z M25.6513132,2.21625602 L29.0343313,2.21625602 L29.0343313,5.22152216 L25.6513132,5.22152216 L25.6513132,2.21625602 Z M25.6513132,7.17299367 L29.0343313,7.17299367 L29.0343313,10.1782598 L25.6513132,10.1782598 L25.6513132,7.17299367 Z M58.1075478,21.7700006 L58.0686625,21.7700006 C58.0686625,29.5628769 52.0803317,35.651468 44.4328962,35.651468 L15.5800295,35.651468 C7.93259408,35.651468 1.94426325,29.549867 1.94426325,21.7700006 L1.94426325,16.2798607 C1.94426325,8.52601392 8.06221163,2.21625602 15.5800295,2.21625602 L23.70705,2.21625602 L23.70705,10.1782598 L18.3279216,10.1782598 C16.3318113,10.1782598 14.4523569,10.9718582 13.0265638,12.4159471 C11.6137325,13.8470263 10.8360272,15.7204389 10.8360272,17.69793 L10.8360272,20.3519313 C10.8360272,24.3979822 14.2060835,27.702474 18.3408834,27.702474 L41.7109277,27.702474 C45.8457275,27.702474 49.2157839,24.4109921 49.2157839,20.3519313 L49.2157839,17.69793 C49.2157839,15.7204389 48.4380785,13.8470263 47.0252473,12.4159471 C45.5994542,10.9718582 43.7199997,10.1782598 41.7238894,10.1782598 L36.3447611,10.1782598 L36.3447611,2.21625602 L44.4717815,2.21625602 C51.9895994,2.21625602 58.1075478,8.52601392 58.1075478,16.2798607 L58.1075478,21.7700006 Z" id="Shape"></path>
                    </g>
                </g>
            </g>
        </g>
    </g>
</svg>