<?xml version="1.0" encoding="UTF-8"?>
<svg width="60px" height="41px" viewBox="0 0 60 41" version="1.1" xmlns="http://www.w3.org/2000/svg" xmlns:xlink="http://www.w3.org/1999/xlink">
    <title>running-track</title>
    <g id="V2-Pages" stroke="none" stroke-width="1" fill="none" fill-rule="evenodd">
        <g id="5,1-Sport-Facility" transform="translate(-1075.000000, -1578.000000)" fill="#E75D51">
            <g id="key-features" transform="translate(112.000000, 1506.000000)">
                <g id="Kid's-Playground" transform="translate(960.000000, 72.000000)">
                    <g id="running-track" transform="translate(3.000000, 0.000000)">
                        <path d="M39.6946818,0 L20.3053182,0 C9.07526606,0.0541713621 0,9.21644857 0,20.5 C0,31.7835514 9.07526606,40.9458286 20.3053182,41 L39.6946818,41 C50.9247339,40.9458286 60,31.7835514 60,20.5 C60,9.21644857 50.9247339,0.0541713621 39.6946818,0 Z M37.4068027,1.65377834 L37.4068027,4.72508096 L35.1339724,4.72508096 L35.1339724,1.65377834 L37.4068027,1.65377834 Z M39.6946818,15.8290212 C42.2439499,15.8547833 44.2970446,17.9384873 44.2970446,20.5 C44.2970446,23.0615127 42.2439499,25.1452167 39.6946818,25.1709788 L20.3053182,25.1709788 C17.7560501,25.1452167 15.7029554,23.0615127 15.7029554,20.5 C15.7029554,17.9384873 17.7560501,15.8547833 20.3053182,15.8290212 L39.6946818,15.8290212 Z M35.1330319,14.1752429 L35.1330319,11.1039403 L37.4068027,11.1039403 L37.4068027,14.1752429 L35.1330319,14.1752429 Z M33.4870757,14.1752429 L20.3053182,14.1752429 C16.8500017,14.2052506 14.0646504,17.0281329 14.0646504,20.5 C14.0646504,23.9718671 16.8500017,26.7947494 20.3053182,26.8247571 L39.6946818,26.8247571 C43.1499983,26.7947494 45.9353496,23.9718671 45.9353496,20.5 C45.9353496,17.0281329 43.1499983,14.2052506 39.6946818,14.1752429 L39.0527589,14.1752429 L39.0527589,11.1039403 L39.6946818,11.1039403 C44.8335587,11.1405555 48.980218,15.3365714 48.980218,20.5 C48.980218,25.6634286 44.8335587,29.8594445 39.6946818,29.8960597 L20.3053182,29.8960597 C15.1664413,29.8594445 11.019782,25.6634286 11.019782,20.5 C11.019782,15.3365714 15.1664413,11.1405555 20.3053182,11.1039403 L33.4880162,11.1039403 L33.4870757,14.1752429 Z M20.3048479,9.45016192 C14.2591213,9.48988442 9.3789552,14.425412 9.3789552,20.5 C9.3789552,26.574588 14.2591213,31.5101156 20.3048479,31.5498381 L39.6946818,31.5498381 C45.7404084,31.5101156 50.6205745,26.574588 50.6205745,20.5 C50.6205745,14.425412 45.7404084,9.48988442 39.6946818,9.45016192 L39.0527589,9.45016192 L39.0527589,6.3788593 L39.6946818,6.3788593 C47.4249549,6.42378816 53.6679679,12.7328599 53.6679679,20.5 C53.6679679,28.2671401 47.4249549,34.5762118 39.6946818,34.6211407 L20.3053182,34.6211407 C12.5750451,34.5762118 6.33203215,28.2671401 6.33203215,20.5 C6.33203215,12.7328599 12.5750451,6.42378816 20.3053182,6.3788593 L33.4880162,6.3788593 L33.4880162,9.45016192 L20.3048479,9.45016192 Z M37.4063325,9.45016192 L35.1339724,9.45016192 L35.1339724,6.3788593 L37.4068027,6.3788593 L37.4063325,9.45016192 Z M39.6942115,39.3462217 L20.3053182,39.3462217 C9.9827271,39.2942889 1.64192202,30.8717778 1.64192202,20.5 C1.64192202,10.1282222 9.9827271,1.70571112 20.3053182,1.65377834 L33.4880162,1.65377834 L33.4880162,4.72508096 L20.3053182,4.72508096 C11.6678162,4.77257836 4.69070475,11.8213195 4.69070475,20.5 C4.69070475,29.1786805 11.6678162,36.2274216 20.3053182,36.274919 L39.6946818,36.274919 C48.3321838,36.2274216 55.3092952,29.1786805 55.3092952,20.5 C55.3092952,11.8213195 48.3321838,4.77257836 39.6946818,4.72508096 L39.0527589,4.72508096 L39.0527589,1.65377834 L39.6946818,1.65377834 C50.0172729,1.70571112 58.358078,10.1282222 58.358078,20.5 C58.358078,30.8717778 50.0172729,39.2942889 39.6946818,39.3462217 L39.6942115,39.3462217 Z" id="Shape"></path>
                    </g>
                </g>
            </g>
        </g>
    </g>
</svg>