<?xml version="1.0" encoding="UTF-8"?>
<svg width="24px" height="24px" viewBox="0 0 24 24" version="1.1" xmlns="http://www.w3.org/2000/svg" xmlns:xlink="http://www.w3.org/1999/xlink">
    <title>icon/24x24/all_amenities</title>
    <g id="Page-1" stroke="none" stroke-width="1" fill="none" fill-rule="evenodd">
        <g id="Search" transform="translate(-128.000000, -586.000000)">
            <g id="icon/24x24/all_amenities" transform="translate(128.000000, 586.000000)">
                <circle id="Oval" fill="#FBBC43" cx="12" cy="12" r="12"></circle>
                <g id="Group-13" transform="translate(2.000000, 2.000000)">
                    <path d="M10.0428,18.9861013 C5.3203,18.9861013 1.45005,15.2223038 1.2023,10.5015443 L18.8833,10.5015443 C18.63555,15.2223038 14.7653,18.9861013 10.0428,18.9861013 L10.0428,18.9861013 Z M3.51255,3.97344304 L7.06855,7.57420253 C6.6268,8.12508861 6.33305,8.80053165 6.2433,9.53951899 L1.2023,9.53951899 C1.31455,7.40053165 2.17055,5.45825316 3.51255,3.97344304 L3.51255,3.97344304 Z M10.04255,7.09774684 C11.4708,7.09774684 12.65655,8.15673418 12.8818,9.53951899 L7.2033,9.53951899 C7.42855,8.15673418 8.6143,7.09774684 10.04255,7.09774684 L10.04255,7.09774684 Z M9.56755,6.16863291 C8.89355,6.2536962 8.2748,6.51673418 7.7558,6.90989873 L4.1913,3.30053165 C5.6418,2.00382278 7.51205,1.17875949 9.56755,1.06812658 L9.56755,6.16863291 Z M12.3293,6.90964557 C11.8103,6.51673418 11.1918,6.2536962 10.5178,6.16863291 L10.5178,1.06812658 C12.5733,1.17875949 14.44355,2.00356962 15.89405,3.30027848 L12.3293,6.90964557 Z M18.8833,9.53951899 L13.84205,9.53951899 C13.75205,8.80053165 13.45855,8.12508861 13.0168,7.5744557 L16.57305,3.97344304 C17.91505,5.45825316 18.77105,7.40027848 18.8833,9.53951899 L18.8833,9.53951899 Z M10.0428,0.0929367089 C4.62855,0.0929367089 0.2393,4.53774684 0.2393,10.0205316 C0.2393,15.5033165 4.62855,19.9481266 10.0428,19.9481266 C15.4573,19.9481266 19.8463,15.5033165 19.8463,10.0205316 C19.8463,4.53774684 15.4573,0.0929367089 10.0428,0.0929367089 L10.0428,0.0929367089 Z" id="Fill-37" fill="#212237"></path>
                    <polygon id="Fill-39" fill="#000000" points="6.4095 12.8210127 13.6755 12.8210127 13.6755 11.8587342 6.4095 11.8587342"></polygon>
                    <polygon id="Fill-41" fill="#000000" points="8.0475 15.1316456 12.03775 15.1316456 12.03775 14.1693671 8.0475 14.1693671"></polygon>
                </g>
            </g>
        </g>
    </g>
</svg>