<?xml version="1.0" encoding="UTF-8"?>
<svg width="43px" height="43px" viewBox="0 0 43 43" version="1.1" xmlns="http://www.w3.org/2000/svg" xmlns:xlink="http://www.w3.org/1999/xlink">
    <title>Button</title>
    <defs>
        <path d="M19.4896981,13.4821987 L19.4595136,13.5113685 C19.072166,13.8856953 19.0616106,14.5031544 19.4359374,14.890502 C19.4434591,14.8982853 19.4511098,14.9059429 19.4588864,14.9134715 L24.4735151,19.7682169 L24.4735151,19.7682169 L12.9504498,19.7682169 C12.4015122,19.7682169 11.9565104,20.2132188 11.9565104,20.7621563 C11.9565104,21.3110939 12.4015122,21.7560957 12.9504498,21.7560957 L24.4735151,21.7560957 L24.4735151,21.7560957 L19.4588864,26.6108412 C19.0718738,26.9855144 19.0618709,27.6029827 19.4365441,27.9899953 C19.4440728,27.9977718 19.4517303,28.0054226 19.4595136,28.0129442 L19.4896981,28.042114 C19.8772736,28.4166611 20.4919571,28.4166611 20.8795327,28.042114 L28.4127204,20.7621563 L28.4127204,20.7621563 L20.8795327,13.4821987 C20.4919571,13.1076516 19.8772736,13.1076516 19.4896981,13.4821987 Z" id="path-1"></path>
    </defs>
    <g id="Symbols" stroke="none" stroke-width="1" fill="none" fill-rule="evenodd">
        <g id="NAV/Next/Arrow" transform="translate(-2.000000, 0.000000)">
            <g id="Button" transform="translate(23.500000, 21.500000) rotate(-90.000000) translate(-23.500000, -21.500000) translate(2.500000, 0.000000)">
                <g id="Icon/Arrow/White" transform="translate(0.913043, 0.500000)">
                    <g id="Atoms-/-icons-/-System-/-Arrow_bottom" transform="translate(0.000000, -0.000000)">
                        <path d="M20.5,41.6769231 C31.6476553,41.6769231 40.6846154,32.4195493 40.6846154,21 C40.6846154,9.58045071 31.6476553,0.323076923 20.5,0.323076923 C9.35234474,0.323076923 0.315384615,9.58045071 0.315384615,21 C0.315384615,32.4195493 9.35234474,41.6769231 20.5,41.6769231 Z" id="Oval" stroke="#FFFFFF" stroke-width="0.5" stroke-dasharray="2"></path>
                        <mask id="mask-2" fill="white">
                            <use xlink:href="#path-1"></use>
                        </mask>
                        <use id="Mask" fill="#FFFFFF" transform="translate(20.184615, 20.762156) rotate(-270.000000) translate(-20.184615, -20.762156) " xlink:href="#path-1"></use>
                    </g>
                </g>
            </g>
        </g>
    </g>
</svg>