<?xml version="1.0" encoding="UTF-8"?>
<svg width="50px" height="50px" viewBox="0 0 50 50" version="1.1" xmlns="http://www.w3.org/2000/svg" xmlns:xlink="http://www.w3.org/1999/xlink">
    <title>Combined Shape</title>
    <g id="Symbols" stroke="none" stroke-width="1" fill="none" fill-rule="evenodd">
        <g id="Menu/White/InteractiveMap" transform="translate(-66.000000, -27.000000)" fill="#FFFFFF">
            <g id="Group-8" transform="translate(91.000000, 52.000000) scale(-1, 1) translate(-91.000000, -52.000000) translate(66.000000, 27.000000)">
                <path d="M25,0 C38.8071187,0 50,11.1928813 50,25 C50,38.8071187 38.8071187,50 25,50 C11.1928813,50 0,38.8071187 0,25 C0,11.1928813 11.1928813,0 25,0 Z M24.1586941,14.8326479 L23.7417388,15.2496032 C23.352095,15.6405136 23.3518118,16.2731904 23.7411055,16.6644495 L30.2813853,23.2164502 L15.4761905,23.2164502 C14.9239057,23.2164502 14.4761905,23.6641655 14.4761905,24.2164502 L14.4761905,24.8138528 C14.4761905,25.3661376 14.9239057,25.8138528 15.4761905,25.8138528 L30.2813853,25.8138528 L23.7411055,32.3658535 C23.3518118,32.7571126 23.352095,33.3897894 23.7417388,33.7806999 L24.1586941,34.1976551 C24.5492184,34.5881794 25.1823834,34.5881794 25.5729076,34.1976551 L35.2554113,24.5151515 L25.5729076,14.8326479 C25.1823834,14.4421236 24.5492184,14.4421236 24.1586941,14.8326479 Z" id="Combined-Shape"></path>
            </g>
        </g>
    </g>
</svg>