<?xml version="1.0" encoding="UTF-8"?>
<svg width="61px" height="46px" viewBox="0 0 61 46" version="1.1" xmlns="http://www.w3.org/2000/svg" xmlns:xlink="http://www.w3.org/1999/xlink">
    <title>Camper vans</title>
    <g id="V2-Pages" stroke="none" stroke-width="1" fill="none" fill-rule="evenodd">
        <g id="Artboard-Copy" transform="translate(-941.000000, -378.000000)" fill="#353C8C" fill-rule="nonzero">
            <g id="Camper-vans" transform="translate(941.000000, 378.091840)">
                <g id="camper" transform="translate(0.000000, 0.908160)">
                    <path d="M59.1504609,34.5212283 L59.0889844,34.5212283 L59.0889844,23.9919565 C59.0889844,22.5669783 58.8468906,21.164 58.3692559,19.8221196 L54.9407461,10.1883913 C54.4079492,8.69107609 52.9854102,7.68493478 51.4010781,7.68493478 L49.5386719,7.68493478 L49.5386719,5.64467391 L59.5415996,5.64467391 C60.2116465,5.64467391 60.7773262,5.20802174 60.9493652,4.55818478 C61.1212852,3.90822826 60.8459512,3.2473913 60.2643066,2.91380435 C56.9601797,1.01893478 53.2022461,0.0174565217 49.3967754,0.0174565217 L29.995082,0.0174565217 C26.1897305,0.0174565217 22.4316777,1.01893478 19.1274316,2.91380435 C18.545668,3.2473913 18.270334,3.90822826 18.442373,4.55818478 C18.6144121,5.2081413 19.1800918,5.64467391 19.8501387,5.64467391 L29.6059688,5.64467391 L29.6059688,7.68493478 L9.59784961,7.68493478 C8.01351758,7.68493478 6.59097852,8.69095652 6.05818164,10.1883913 L2.62967188,19.8221196 C2.15203711,21.1641196 1.90994336,22.5670978 1.90994336,23.9920761 L1.90994336,34.5213478 L1.8484668,34.5213478 C0.82921875,34.5212283 0,35.3534022 0,36.3764022 L0,38.2932717 C0,39.3162717 0.82921875,40.1484457 1.84858594,40.1484457 L5.66871094,40.1484457 C6.68807813,40.1484457 7.51729688,39.3162717 7.51729688,38.2932717 L7.51729688,38.2315761 L9.55198047,38.2315761 C9.55174219,38.2522609 9.55043164,38.272587 9.55043164,38.2932717 C9.55043164,41.4301848 12.0934883,43.9821848 15.2191426,43.9821848 C18.3447969,43.9821848 20.8878535,41.4300652 20.8878535,38.2932717 C20.8878535,38.272587 20.886543,38.2521413 20.8863047,38.2315761 L40.1129805,38.2315761 C40.1127422,38.2522609 40.1114316,38.272587 40.1114316,38.2932717 C40.1114316,41.4301848 42.6544883,43.9821848 45.7801426,43.9821848 C48.905916,43.9821848 51.4488535,41.4300652 51.4488535,38.2932717 C51.4488535,38.272587 51.447543,38.2521413 51.4473047,38.2315761 L53.4819883,38.2315761 L53.4819883,38.2932717 C53.4819883,39.3162717 54.311207,40.1484457 55.3305742,40.1484457 L59.1505801,40.1484457 C60.1699473,40.1484457 60.999166,39.3162717 60.999166,38.2932717 L60.999166,36.3764022 C60.9990469,35.3534022 60.1698281,34.5212283 59.1504609,34.5212283 Z M49.5385527,1.81308696 C52.5437559,1.83448913 55.5132168,2.53406522 58.2088926,3.85131522 L49.5385527,3.85131522 L49.5385527,1.81308696 Z M31.3930781,1.81105435 L47.7515625,1.81105435 L47.7515625,3.85131522 L31.3930781,3.85131522 L31.3930781,1.81105435 Z M31.3930781,5.64467391 L47.7515625,5.64467391 L47.7515625,7.68493478 L31.3930781,7.68493478 L31.3930781,5.64467391 Z M21.1827266,3.85119565 C23.8045352,2.57005435 26.6852363,1.87346739 29.6060879,1.81643478 L29.6060879,3.85119565 L21.1827266,3.85119565 Z M4.31265234,20.425087 L6.84415234,13.3121522 L46.7346973,13.3121522 C47.2281777,13.3121522 47.628252,12.9106522 47.628252,12.415413 C47.628252,11.9201739 47.2281777,11.5186739 46.7346973,11.5186739 L7.48238867,11.5186739 L7.74116211,10.7914783 C8.02066602,10.0060543 8.76672461,9.47841304 9.59784961,9.47841304 L51.4013164,9.47841304 C52.2324414,9.47841304 52.9785,10.0061739 53.2580039,10.7914783 L53.5167773,11.5186739 L50.5552988,11.5186739 C50.0618184,11.5186739 49.6617441,11.9201739 49.6617441,12.415413 C49.6617441,12.9106522 50.0618184,13.3121522 50.5552988,13.3121522 L54.1550137,13.3121522 L56.6865137,20.4252065 C56.8769004,20.9602609 57.0216562,21.5070326 57.123998,22.0614565 L54.2640273,22.0614565 C54.4986152,21.4657826 54.5229199,20.8076957 54.3202617,20.1779457 C54.2818984,20.0587391 54.241748,19.9401304 54.1996914,19.822 L53.2736113,17.2195435 C52.8761582,16.1026848 51.8150918,15.3521739 50.6333359,15.3521739 L43.8699609,15.3521739 C42.3239922,15.3521739 41.0663438,16.6144239 41.0663438,18.1657826 L41.0663438,21.041087 C41.0663438,21.4008587 41.1347305,21.7447283 41.2579219,22.0612174 L38.84175,22.0612174 C38.9649414,21.7447283 39.0333281,21.4008587 39.0333281,21.041087 L39.0333281,18.1657826 C39.0333281,16.6143043 37.7755605,15.3521739 36.2297109,15.3521739 L24.7694551,15.3521739 C23.2234863,15.3521739 21.9658379,16.6144239 21.9658379,18.1657826 L21.9658379,21.041087 C21.9658379,21.4008587 22.0342246,21.7447283 22.157416,22.0612174 L19.7412441,22.0612174 C19.8644355,21.7447283 19.9328223,21.4008587 19.9328223,21.041087 L19.9328223,18.1657826 C19.9328223,16.6143043 18.6750547,15.3521739 17.1292051,15.3521739 L10.3655918,15.3521739 C9.18383594,15.3521739 8.12276953,16.1025652 7.72531641,17.2195435 L6.79923633,19.8218804 C6.75717969,19.9400109 6.7170293,20.0586196 6.67878516,20.177587 C6.47612695,20.8075761 6.5003125,21.465663 6.73490039,22.0614565 L3.87516797,22.0614565 C3.97750977,21.506913 4.12226562,20.9601413 4.31265234,20.425087 Z M52.4728672,21.6380761 C52.2775957,21.9072174 51.9760508,22.0616957 51.6455547,22.0616957 L43.8698418,22.0616957 C43.3094043,22.0615761 42.853334,21.6038804 42.853334,21.0413261 L42.853334,18.1660217 C42.853334,17.6034674 43.3094043,17.1458913 43.8698418,17.1458913 L50.6330977,17.1458913 C51.0615273,17.1458913 51.4463516,17.4179022 51.5903926,17.8229891 L52.5164727,20.4254457 C52.552334,20.526 52.5865273,20.6271522 52.619291,20.7290217 C52.7194883,21.0403696 52.6661133,21.3716848 52.4728672,21.6380761 Z M37.2460996,18.1660217 L37.2460996,21.0413261 C37.2460996,21.6038804 36.7900293,22.0614565 36.2295918,22.0614565 L24.7693359,22.0614565 C24.2088984,22.0615761 23.7528281,21.6038804 23.7528281,21.0413261 L23.7528281,18.1660217 C23.7528281,17.6034674 24.2088984,17.1458913 24.7693359,17.1458913 L36.2295918,17.1458913 C36.7901484,17.1460109 37.2460996,17.603587 37.2460996,18.1660217 Z M18.1454746,18.1660217 L18.1454746,21.0413261 C18.1454746,21.6038804 17.6894043,22.0614566 17.1289668,22.0614566 L9.35337305,22.0614566 C9.02287695,22.0615761 8.72133203,21.9070978 8.52606055,21.6379565 C8.33281445,21.3715652 8.27943945,21.04025 8.37963672,20.7287826 C8.41228125,20.6271522 8.44659375,20.5261196 8.48233594,20.4254457 L9.40841602,17.8229891 C9.55245703,17.4180217 9.93728125,17.1458913 10.3657109,17.1458913 L17.1289668,17.1458913 C17.6895234,17.1460109 18.1454746,17.603587 18.1454746,18.1660217 Z M5.66871094,38.3549674 L1.84858594,38.3549674 C1.81463086,38.3549674 1.78710937,38.3273478 1.78710937,38.2932717 L1.78710937,36.3764022 C1.78710937,36.3423261 1.81463086,36.3147065 1.84858594,36.3147065 L5.66871094,36.3147065 C5.70266602,36.3147065 5.7301875,36.3423261 5.7301875,36.3764022 L5.7301875,38.2932717 L5.73030664,38.2932717 C5.7301875,38.3273478 5.70266602,38.3549674 5.66871094,38.3549674 Z M15.2190234,42.188587 C13.0786621,42.188587 11.3373027,40.4410217 11.3373027,38.2930326 C11.3373027,36.1450435 13.0786621,34.3974783 15.2190234,34.3974783 C17.3593848,34.3974783 19.1007441,36.1450435 19.1007441,38.2930326 C19.1007441,40.4410217 17.3593848,42.188587 15.2190234,42.188587 Z M45.7800234,42.188587 C43.6396621,42.188587 41.8983027,40.4410217 41.8983027,38.2930326 C41.8983027,36.1450435 43.6396621,34.3974783 45.7800234,34.3974783 C47.9203848,34.3974783 49.661625,36.1450435 49.661625,38.2930326 C49.661625,40.4410217 47.9203848,42.188587 45.7800234,42.188587 Z M53.48175,36.3762826 L53.48175,36.4380978 L51.1375391,36.4380978 L51.1375391,36.4380978 C50.369082,34.2096413 48.2583867,32.6044783 45.7800234,32.6044783 C43.3014219,32.6044783 41.1908457,34.2097609 40.4225078,36.4380978 L20.5765391,36.4380978 C19.808082,34.2096413 17.6973867,32.6044783 15.2190234,32.6044783 C12.7406602,32.6044783 10.6299648,34.2097609 9.86150781,36.4380978 L7.51729687,36.4380978 L7.51729687,36.3764022 C7.51729687,35.3534022 6.68807812,34.5212283 5.66871094,34.5212283 L3.69705273,34.5212283 L3.69705273,23.9919565 C3.69705273,23.946163 3.69943555,23.9006087 3.69991211,23.8549348 L57.2988965,23.8549348 C57.2994922,23.9006087 57.3017559,23.946163 57.3017559,23.9919565 L57.3017559,25.8951957 L57.2402793,25.8951957 C55.6943105,25.8951957 54.4366621,27.1574457 54.4366621,28.7088043 C54.4366621,30.260163 55.6944297,31.522413 57.2402793,31.522413 L57.3017559,31.522413 L57.3017559,34.5212283 L55.3302168,34.5212283 C54.3109688,34.5211087 53.48175,35.3532826 53.48175,36.3762826 Z M57.301875,27.6887935 L57.301875,29.7290543 L57.2403984,29.7290543 C56.6798418,29.7290543 56.2238906,29.2713587 56.2238906,28.7089239 C56.2238906,28.1464891 56.6799609,27.6887935 57.2403984,27.6887935 L57.301875,27.6887935 L57.301875,27.6887935 Z M59.2119375,38.2932717 C59.2119375,38.3273478 59.184416,38.3549674 59.1504609,38.3549674 L55.3304551,38.3549674 C55.2965,38.3549674 55.2689785,38.3273478 55.2689785,38.2932717 L55.2689785,36.3764022 C55.2689785,36.3423261 55.2965,36.3147065 55.3304551,36.3147065 L59.1504609,36.3147065 C59.184416,36.3147065 59.2119375,36.3423261 59.2119375,36.3764022 L59.2119375,38.2932717 Z" id="Shape"></path>
                    <path d="M15.2285547,37.3965326 L15.2189043,37.3965326 C14.7254238,37.3965326 14.3302344,37.7980326 14.3302344,38.2932717 C14.3302344,38.7885109 14.7350742,39.1900109 15.2285547,39.1900109 C15.7220352,39.1900109 16.1221094,38.7885109 16.1221094,38.2932717 C16.1221094,37.7980326 15.7220352,37.3965326 15.2285547,37.3965326 Z" id="Path"></path>
                    <path d="M45.7895547,37.3965326 L45.7800234,37.3965326 C45.286543,37.3965326 44.8912344,37.7980326 44.8912344,38.2932717 C44.8912344,38.7885109 45.2960742,39.1900109 45.7895547,39.1900109 C46.2830352,39.1900109 46.6831094,38.7885109 46.6831094,38.2932717 C46.6831094,37.7980326 46.2830352,37.3965326 45.7895547,37.3965326 Z" id="Path"></path>
                    <path d="M44.8249922,26.85375 L42.9149297,26.85375 C42.4214492,26.85375 42.021375,27.25525 42.021375,27.7504891 C42.021375,28.2457283 42.4214492,28.6472283 42.9149297,28.6472283 L44.8249922,28.6472283 C45.3184727,28.6472283 45.7185469,28.2457283 45.7185469,27.7504891 C45.7185469,27.25525 45.3184727,26.85375 44.8249922,26.85375 Z" id="Path"></path>
                </g>
            </g>
        </g>
    </g>
</svg>