<?xml version="1.0" encoding="UTF-8"?>
<svg width="61px" height="58px" viewBox="0 0 61 58" version="1.1" xmlns="http://www.w3.org/2000/svg" xmlns:xlink="http://www.w3.org/1999/xlink">
    <title>Private camping enclosures </title>
    <g id="V2-Pages" stroke="none" stroke-width="1" fill="none" fill-rule="evenodd">
        <g id="Artboard-Copy" transform="translate(-1037.000000, -367.000000)" fill="#419E9C" fill-rule="nonzero">
            <g id="Private-camping-enclosures-" transform="translate(1037.000000, 367.091840)">
                <g id="camping-tent" transform="translate(0.000000, 0.908160)">
                    <path d="M58.9287402,46.8230588 L55.8026094,34.9223529 C55.7716328,34.8044706 55.7162324,34.6942353 55.6401016,34.5985882 L41.6869473,17.0731765 C41.5174102,16.8603529 41.2585176,16.7361176 40.984375,16.7361176 C40.7102324,16.7361176 40.4513398,16.8603529 40.2818027,17.0731765 L31.8054238,27.7197647 C31.5004238,28.1028235 31.5676191,28.6576471 31.955541,28.9588235 C32.3437012,29.26 32.9052109,29.1935294 33.2103301,28.8105882 L40.0908203,20.1685882 L40.0908203,25.3327059 C39.6103262,25.3474118 39.2251445,25.7356471 39.2251445,26.2136471 C39.2251445,26.6916471 39.610207,27.0798824 40.0908203,27.0945882 L40.0908203,28.7955294 C39.6103262,28.8102353 39.2251445,29.1984706 39.2251445,29.6764706 C39.2251445,30.1544706 39.610207,30.5427059 40.0908203,30.5574118 L40.0908203,34.4983529 L39.4675957,36.5938824 C38.3431465,40.3743529 36.236502,43.8242353 33.375459,46.5705882 C33.3450781,46.5997647 33.3180332,46.6311765 33.2927754,46.6632941 L24.9285078,46.6632941 L27.8491211,35.5442353 L30.7898691,31.8507059 C31.0948691,31.4676471 31.0275547,30.9129412 30.6396328,30.6117647 C30.2512344,30.3104706 29.6898437,30.3770588 29.3848437,30.76 L26.3286484,34.5985882 C26.2525176,34.6943529 26.1971172,34.8045882 26.1662598,34.9223529 L23.0823047,46.6631765 L18.1648945,46.6631765 C18.1656094,46.6490588 18.1670391,46.6351765 18.1670391,46.6208235 L18.1670391,44.3885882 C18.953248,44.3168235 19.994418,44.0743529 20.8261387,43.2545882 C21.7136172,42.3797647 22.1637305,41.0504706 22.1637305,39.3036471 C22.1637305,37.1230588 21.6720371,34.6325882 20.848418,32.6415294 C19.8798047,30.3002353 18.6102422,29.0108235 17.2734844,29.0108235 C15.9366074,29.0108235 14.6670449,30.3002353 13.6984316,32.6415294 C12.8748125,34.6325882 12.3831191,37.1230588 12.3831191,39.3036471 C12.3831191,41.0504706 12.8331133,42.3797647 13.7207109,43.2545882 C14.5520742,44.074 15.593959,44.3170588 16.3799297,44.3890588 L16.3799297,46.6208235 C16.3799297,46.6351765 16.3813594,46.6490588 16.3820742,46.6631765 L6.37843164,46.6631765 C6.37914648,46.6490588 6.38057617,46.6351765 6.38057617,46.6208235 L6.38057617,44.3885882 C7.16678516,44.3168235 8.20795508,44.0743529 9.03967578,43.2545882 C9.9271543,42.3798824 10.3772676,41.0504706 10.3772676,39.3036471 C10.3772676,37.1230588 9.88557422,34.6324706 9.06195508,32.6415294 C8.09346094,30.3002353 6.82389844,29.0108235 5.48702148,29.0108235 C4.15026367,29.0108235 2.88070117,30.3002353 1.91208789,32.6415294 C1.08846875,34.6325882 0.596775391,37.1230588 0.596775391,39.3036471 C0.596775391,41.0505882 1.04676953,42.3798824 1.93436719,43.2545882 C2.76596875,44.0743529 3.80725781,44.3169412 4.5934668,44.3888235 L4.5934668,46.6208235 C4.5934668,46.6351765 4.59489648,46.6490588 4.59561133,46.6631765 L3.04976172,46.6631765 C1.3680918,46.6631765 -6.77236045e-15,48.0141176 -6.77236045e-15,49.6747059 L-6.77236045e-15,55.0182353 C-6.77236045e-15,55.5055294 0.399955078,55.9005882 0.893554687,55.9005882 L60.1064453,55.9005882 C60.6000449,55.9005882 61,55.5055294 61,55.0182353 L61,49.6747059 C61,48.3521176 60.1317031,47.2267059 58.9287402,46.8230588 Z M16.3798105,42.6157647 C15.9033672,42.5556471 15.3851055,42.4018824 14.9830059,42.0055294 C14.4436562,41.4738824 14.1701094,40.5648235 14.1701094,39.3036471 C14.1701094,37.34 14.6122402,35.0989412 15.3528184,33.3088235 C16.1216328,31.4501176 16.9226152,30.7754118 17.2733652,30.7754118 C17.6239961,30.7754118 18.4249785,31.4501176 19.193793,33.3088235 C19.9343711,35.0989412 20.376502,37.34 20.376502,39.3036471 C20.376502,40.5648235 20.1029551,41.4738824 19.5636055,42.0055294 C19.161625,42.4017647 18.6433633,42.5557647 18.1669199,42.6157647 L18.1669199,39.3289412 C18.1669199,38.8416471 17.7669648,38.4465882 17.2733652,38.4465882 C16.7797656,38.4465882 16.3798105,38.8416471 16.3798105,39.3289412 L16.3798105,42.6157647 Z M4.5934668,42.6157647 C4.11702344,42.5556471 3.59888086,42.4017647 3.19678125,42.0056471 C2.65743164,41.474 2.38388477,40.5649412 2.38388477,39.3036471 C2.38388477,37.34 2.82601563,35.0989412 3.56659375,33.3088235 C4.3354082,31.4501176 5.13639063,30.7754118 5.48702148,30.7754118 C5.83777148,30.7754118 6.63863477,31.4501176 7.40756836,33.3088235 C8.14802734,35.0989412 8.5901582,37.34 8.5901582,39.3036471 C8.5901582,40.5648235 8.31661133,41.474 7.77726172,42.0056471 C7.37551953,42.4016471 6.85690039,42.5554118 6.38057617,42.6155294 L6.38057617,39.3290588 C6.38057617,38.8417647 5.98062109,38.4467059 5.48702148,38.4467059 C4.99342188,38.4467059 4.5934668,38.8417647 4.5934668,39.3290588 L4.5934668,42.6157647 Z M41.8779297,30.5588235 L41.9178418,30.5588235 C42.4114414,30.5588235 42.8113965,30.1637647 42.8113965,29.6764706 C42.8113965,29.1891765 42.4114414,28.7941176 41.9178418,28.7941176 L41.8779297,28.7941176 L41.8779297,27.096 L41.9178418,27.096 C42.4114414,27.096 42.8113965,26.7009412 42.8113965,26.2136471 C42.8113965,25.7263529 42.4114414,25.3312941 41.9178418,25.3312941 L41.8779297,25.3312941 L41.8779297,20.1685882 L54.1196289,35.5442353 L57.0404805,46.6632941 L48.6920586,46.6632941 C45.7801426,43.9005882 43.6396621,40.4205882 42.5012734,36.5938824 L41.8779297,34.4983529 L41.8779297,30.5588235 Z M40.984375,37.7245882 C42.0680781,41.0344706 43.8547109,44.084 46.208334,46.6631765 L35.7622031,46.6631765 C38.114873,44.0844706 39.9015059,41.0316471 40.984375,37.7245882 Z M59.2130098,54.1358824 L1.78710938,54.1358824 L1.78710938,49.6747059 C1.78710938,48.9871765 2.35350391,48.4278824 3.04976172,48.4278824 L57.9503574,48.4278824 C58.6466152,48.4278824 59.2130098,48.9871765 59.2130098,49.6747059 L59.2130098,54.1358824 L59.2130098,54.1358824 Z" id="Shape"></path>
                    <path d="M5.82502344,15.1812941 L17.3956035,15.1812941 C17.8892031,15.1812941 18.2891582,14.7862353 18.2891582,14.2989412 C18.2891582,13.8116471 17.8892031,13.4165882 17.3956035,13.4165882 L5.82502344,13.4165882 C5.57375586,13.4165882 5.33976367,13.3177647 5.16617578,13.1382353 C4.99842578,12.9647059 4.91204883,12.7390588 4.92324805,12.5011765 L4.92503516,12.4658824 C5.01689258,10.8847059 6.28776563,9.57964706 7.88127148,9.43023529 C8.44992969,9.37694118 9.0007168,9.46294118 9.51731055,9.68647059 C9.96718555,9.88129412 10.4925957,9.68023529 10.6922754,9.23670588 C11.4627578,7.52517647 13.1848164,6.41929412 15.0795098,6.41929412 C16.9417969,6.41929412 18.6517031,7.49870588 19.4358867,9.16929412 C19.6328262,9.58894118 20.1245195,9.78717647 20.5624805,9.62364706 C21.0090195,9.45705882 21.4781953,9.38976471 21.9551152,9.42352941 C22.9432676,9.49352941 23.8376563,9.99552941 24.4086973,10.8009412 C24.5937227,11.0618824 24.9027734,11.1976471 25.2143262,11.1717647 L27.442375,11.1717647 C28.0691738,11.1717647 28.5790957,11.6752941 28.5790957,12.2942353 C28.5790957,12.9131765 28.0691738,13.4168235 27.442375,13.4168235 L20.9698223,13.4168235 C20.4762227,13.4168235 20.0762676,13.8118824 20.0762676,14.2991765 C20.0762676,14.7864706 20.4762227,15.1815294 20.9698223,15.1815294 L27.442375,15.1815294 C29.0545859,15.1815294 30.3662051,13.8863529 30.3662051,12.2942353 C30.3662051,11.7764706 30.2268105,11.2905882 29.9841211,10.87 C30.6368926,9.77470588 30.9808516,8.528 30.9808516,7.24823529 C30.9808516,3.30647059 27.7331973,0.0995294118 23.7413906,0.0995294118 C20.6107324,0.0995294118 17.8945645,2.04470588 16.898668,4.91035294 C16.314998,4.74352941 15.7035684,4.65458824 15.0795098,4.65458824 C12.754957,4.65458824 10.619957,5.86717647 9.43820117,7.80188235 C8.87800195,7.66329412 8.29302148,7.61882353 7.71233008,7.67352941 C5.24802539,7.90458824 3.2825625,9.92152941 3.1409043,12.3636471 L3.13792578,12.4215294 C3.10408984,13.144 3.36536523,13.8312941 3.87361914,14.3569412 C4.38020508,14.8807059 5.09135547,15.1812941 5.82502344,15.1812941 Z M23.7415098,1.86411765 C26.7479043,1.86411765 29.1938613,4.27929412 29.1938613,7.24811765 C29.1938613,8.08870588 28.9969219,8.90988235 28.6210332,9.65270588 C28.2602754,9.49505882 27.86175,9.40694118 27.4424941,9.40694118 L25.5738926,9.40694118 C24.6949922,8.38823529 23.4472324,7.75988235 22.0829531,7.66329412 C21.6119902,7.63 21.1459121,7.66047059 20.6907949,7.754 C20.1462031,6.88152941 19.4044336,6.15858824 18.5399492,5.63058824 C19.2472871,3.394 21.3311758,1.86411765 23.7415098,1.86411765 L23.7415098,1.86411765 Z" id="Shape"></path>
                </g>
            </g>
        </g>
    </g>
</svg>