<?xml version="1.0" encoding="UTF-8"?>
<svg width="56px" height="59px" viewBox="0 0 56 59" version="1.1" xmlns="http://www.w3.org/2000/svg" xmlns:xlink="http://www.w3.org/1999/xlink">
    <title>Bon fires and BBQ stations</title>
    <g id="V2-Pages" stroke="none" stroke-width="1" fill="none" fill-rule="evenodd">
        <g id="Artboard-Copy" transform="translate(-1119.000000, -366.000000)" fill="#DB7112" fill-rule="nonzero">
            <g id="Bon-fires-and-BBQ-stations" transform="translate(1119.000000, 366.091840)">
                <g id="bbq-(1)" transform="translate(0.000000, 0.908160)">
                    <path d="M55.9309032,23.455834 C55.9314677,23.4277793 55.937,23.4007266 55.937,23.3725605 C55.937,17.227248 41.5433065,13.9114512 28,13.9114512 C14.4566935,13.9114512 0.0631129032,17.2271367 0.0631129032,23.3724492 C0.0631129032,23.3830254 0.0653709677,23.3931562 0.0653709677,23.4037324 C0.0552096774,28.6949355 2.03429032,33.8021133 5.62032258,37.7384531 C6.54262903,38.7262676 7.56101613,39.6225703 8.66091935,40.4143359 L3.94608065,49.3258184 C3.59382258,49.9955684 3.52608065,50.7759785 3.75775806,51.4950469 C3.98943548,52.2141152 4.50167742,52.8128379 5.18135484,53.1591797 C5.59051613,53.3701465 6.04529032,53.4803613 6.50706452,53.4801387 C7.58483871,53.4813633 8.57364516,52.8908789 9.0718871,51.9484863 L13.7187581,43.177166 C17.357629,44.5714395 21.2059355,45.3603105 25.1069677,45.5117168 L25.1069677,54.15 C25.1069677,55.723957 26.4009516,57 27.9972903,57 C29.5935161,57 30.8876129,55.7240684 30.8876129,54.15 L30.8876129,45.5114941 C34.6229032,45.3603105 38.3111129,44.6323359 41.8175484,43.3539551 C41.9642097,43.2991816 42.1066935,43.2281543 42.2526774,43.170375 L46.9249516,51.9912363 C47.4227419,52.9301777 48.4071452,53.5199941 49.4817581,53.5228887 C49.9481613,53.5185469 50.4068871,53.4057715 50.8205645,53.1935801 C52.2253065,52.4573672 52.7690484,50.744584 52.0408226,49.3499766 L47.3110806,40.4256914 C52.7564032,36.4414805 55.9563065,30.1418672 55.9309032,23.455834 Z M28,15.811377 C43.3209677,15.811377 53.9996935,19.7921367 54.009629,23.3674395 C54.009629,23.3846953 54.0011613,23.3996133 54.0020645,23.4169805 L54.0030806,23.4474844 C53.8555161,27.004418 43.2211613,30.9335215 27.9998871,30.9335215 C12.6718065,30.9335215 1.98980645,26.9488652 1.98980645,23.3724492 C1.98980645,19.7960332 12.6720323,15.811377 28,15.811377 Z M7.36320968,51.0699961 C7.12091935,51.5313398 6.54635484,51.7133613 6.07701613,51.4772344 C5.84658065,51.3635684 5.67248387,51.1628437 5.59424194,50.9207051 C5.516,50.6785664 5.5403871,50.4156094 5.66164516,50.1913945 L10.2728387,41.4761836 C10.8159032,41.8011504 11.3782742,42.1070801 11.9599516,42.3939727 L7.36320968,51.0699961 Z M28.9606935,54.1501113 C28.9606935,54.6748008 28.5294032,55.1000742 27.9972903,55.1000742 C27.4651774,55.1000742 27.0338871,54.6748008 27.0338871,54.1501113 L27.0338871,41.8000371 C27.0338871,41.2753477 27.4651774,40.8500742 27.9972903,40.8500742 C28.5294032,40.8500742 28.9606935,41.2753477 28.9606935,41.8000371 L28.9606935,54.1501113 Z M50.3327097,50.2285781 C50.5797419,50.6880293 50.4039516,51.2580293 49.9394677,51.5041758 C49.7142258,51.6312012 49.445629,51.6604805 49.1975806,51.585334 C48.9495323,51.5100762 48.7441613,51.3369609 48.6302419,51.1070684 L44.0135161,42.3913008 C44.4909839,42.1566211 44.9673226,41.9178223 45.4294355,41.6525273 C45.4675968,41.630373 45.5040645,41.6055469 45.5386129,41.5782715 C45.5930323,41.546543 45.6427097,41.5125879 45.6964516,41.4806367 L50.3327097,50.2285781 Z M44.4571129,40.0011973 C44.4213226,40.0222383 44.3868871,40.0455059 44.3541452,40.0707773 C43.320629,40.6576992 42.2413871,41.1623496 41.1265806,41.5801641 C37.840871,42.7758281 34.3867097,43.4604961 30.8876129,43.6095645 L30.8876129,41.8000371 C30.8876129,40.2260801 29.5935161,38.9500371 27.9972903,38.9500371 C26.4010645,38.9500371 25.1069677,40.2259687 25.1069677,41.8000371 L25.1069677,43.5933105 C17.1332903,43.1329687 11.0513065,40.754666 7.06029032,36.4757695 C4.70851613,33.9050918 3.10540323,30.7552852 2.42064516,27.359666 C7.04662903,30.9379746 17.7638548,32.8334473 28,32.8334473 C38.2354677,32.8334473 48.9519032,30.9383086 53.5784516,27.3604453 C52.5260806,32.6728008 49.201871,37.2795586 44.4571129,40.0011973 Z" id="Shape"></path>
                    <path d="M6.54985484,25.6223906 C6.88382258,25.7098945 7.23980645,25.6142637 7.48266129,25.371791 L12.2999032,20.6217539 C12.4806613,20.4436289 12.5821613,20.2020469 12.5821613,19.9501113 C12.5821613,19.6981758 12.4806613,19.4565937 12.2999032,19.2784688 C12.1192581,19.1002324 11.8742581,19.0001484 11.6187581,19.0001484 C11.3632581,19.0001484 11.1181452,19.1002324 10.9376129,19.2784688 L6.12037097,24.0285059 C5.87446774,24.2679727 5.77748387,24.6189902 5.86622581,24.9482988 C5.95496774,25.2776074 6.21577419,25.5347754 6.54985484,25.6223906 Z" id="Path"></path>
                    <path d="M9.71995161,26.8482246 C9.80869355,27.1775332 10.0696129,27.4348125 10.4035806,27.5223164 C10.7375484,27.6098203 11.0935323,27.5141895 11.3363871,27.2717168 L19.0439516,19.6716797 C19.2247097,19.4935547 19.3262097,19.2519727 19.3262097,19.0000371 C19.3262097,18.7481016 19.2247097,18.5065195 19.0439516,18.3283945 C18.8633065,18.1501582 18.6183065,18.0500742 18.3628065,18.0500742 C18.1073065,18.0500742 17.8623065,18.1501582 17.6816613,18.3283945 L9.97409677,25.9284316 C9.72819355,26.1678984 9.63120968,26.518916 9.71995161,26.8482246 Z" id="Path"></path>
                    <path d="M14.5370806,27.7981875 C14.6258226,28.1274961 14.8867419,28.3847754 15.2207097,28.4722793 C15.5546774,28.5597832 15.9106613,28.4641523 16.1535161,28.2216797 L25.7878871,18.7217168 C25.9686452,18.5435918 26.0701452,18.3020098 26.0701452,18.0500742 C26.0701452,17.7981387 25.9686452,17.5565566 25.7878871,17.3784316 C25.6072419,17.2001953 25.3622419,17.1001113 25.1067419,17.1001113 C24.8512419,17.1001113 24.6062419,17.2001953 24.4255968,17.3784316 L14.7912258,26.8783945 C14.5453226,27.1178613 14.4483387,27.4688789 14.5370806,27.7981875 Z" id="Path"></path>
                    <path d="M19.3543226,28.7482617 C19.4430645,29.0775703 19.7039839,29.3348496 20.0379516,29.4223535 C20.3719194,29.5098574 20.7279032,29.4142266 20.9707581,29.1717539 L31.5686452,18.7217168 C31.7494032,18.5435918 31.8509032,18.3020098 31.8509032,18.0500742 C31.8509032,17.7981387 31.7494032,17.5565566 31.5686452,17.3784316 C31.388,17.2001953 31.143,17.1001113 30.8875,17.1001113 C30.632,17.1001113 30.387,17.2001953 30.2063548,17.3784316 L19.6084677,27.8284688 C19.3625645,28.0678242 19.2655806,28.4188418 19.3543226,28.7482617 Z" id="Path"></path>
                    <path d="M25.1349677,28.7482617 C25.2237097,29.0775703 25.484629,29.3348496 25.8185968,29.4223535 C26.1525645,29.5098574 26.5085484,29.4142266 26.7514032,29.1717539 L36.3857742,19.671791 C36.5665323,19.493666 36.6680323,19.252084 36.6680323,19.0001484 C36.6680323,18.7482129 36.5665323,18.5066309 36.3857742,18.3285059 C36.205129,18.1502695 35.960129,18.0501855 35.704629,18.0501855 C35.449129,18.0501855 35.204129,18.1502695 35.0234839,18.3285059 L25.3891129,27.8284688 C25.1432097,28.0678242 25.0462258,28.4188418 25.1349677,28.7482617 Z" id="Path"></path>
                    <path d="M30.9156129,28.7482617 C31.0043548,29.0775703 31.2652742,29.3348496 31.5992419,29.4223535 C31.9332097,29.5098574 32.2891935,29.4142266 32.5320484,29.1717539 L41.2030161,20.6217539 C41.3837742,20.4436289 41.4852742,20.2020469 41.4852742,19.9501113 C41.4852742,19.6981758 41.3837742,19.4565938 41.2030161,19.2784688 C41.022371,19.1002324 40.777371,19.0001484 40.521871,19.0001484 C40.266371,19.0001484 40.0212581,19.1002324 39.8407258,19.2784688 L31.1697581,27.8284688 C30.9238548,28.0678242 30.826871,28.4188418 30.9156129,28.7482617 Z" id="Path"></path>
                    <path d="M37.6596613,27.7981875 C37.7484032,28.1274961 38.0093226,28.3847754 38.3432903,28.4722793 C38.6772581,28.5597832 39.0332419,28.4641523 39.2760968,28.2216797 L46.9836613,20.6216426 C47.1644194,20.4435176 47.2659194,20.2019355 47.2659194,19.95 C47.2659194,19.6980645 47.1644194,19.4564824 46.9836613,19.2783574 C46.8030161,19.1001211 46.5580161,19.0000371 46.3025161,19.0000371 C46.0470161,19.0000371 45.8020161,19.1001211 45.621371,19.2783574 L37.9138065,26.8783945 C37.6679032,27.1178613 37.5709194,27.4688789 37.6596613,27.7981875 Z" id="Path"></path>
                    <path d="M44.4016774,26.8492266 C44.4903065,27.1793145 44.7516774,27.4370391 45.0864355,27.5244316 C45.4211935,27.6118242 45.777629,27.5153027 46.0202581,27.2717168 L49.8739839,23.4717539 C50.1210161,23.2325098 50.2189032,22.8809355 50.1302742,22.550959 C50.0416452,22.2208711 49.7802742,21.9631465 49.4455161,21.8757539 C49.1107581,21.7883613 48.7543226,21.8848828 48.5116935,22.1284687 L44.6579677,25.9284316 C44.4109355,26.1676758 44.3131613,26.5191387 44.4016774,26.8492266 Z" id="Path"></path>
                    <path d="M21.1848226,7.92199805 C21.7774516,8.62013672 21.7776774,9.63667383 21.1852742,10.3350352 L20.7985806,10.7905898 C20.5777419,11.0507637 20.5144032,11.4073477 20.6325,11.7260801 C20.7505968,12.0448125 21.0321774,12.2771543 21.3711129,12.3356016 C21.7100484,12.3940488 22.0548548,12.2698066 22.2756935,12.0096328 L22.6628387,11.5540781 C23.8485484,10.1583574 23.8556613,8.12717578 22.6797742,6.72332813 L22.6609194,6.70017188 C22.0677258,6.00214453 22.0677258,4.98516211 22.6609194,4.28713477 L24.9740806,1.5595957 C25.1949194,1.29919922 25.2581452,0.942503906 25.1399355,0.623771484 C25.0217258,0.305039062 24.7400323,0.0726972656 24.400871,0.01425 C24.0617097,-0.0441972656 23.7169032,0.0802675781 23.4960645,0.340552734 L21.1830161,3.0680918 C19.9967419,4.46403516 19.9898548,6.49599609 21.1665323,7.89973242 L21.1848226,7.92199805 Z" id="Path"></path>
                    <path d="M26.9654677,7.92199805 C27.5580968,8.62013672 27.5583226,9.63667383 26.9659194,10.3350352 L26.5792258,10.7905898 C26.3583871,11.0507637 26.2950484,11.4073477 26.4131452,11.7260801 C26.5312419,12.0448125 26.8128226,12.2771543 27.1517581,12.3356016 C27.4906935,12.3940488 27.8355,12.2698066 28.0563387,12.0096328 L28.4434839,11.5540781 C29.6291935,10.1583574 29.6363065,8.12717578 28.4604194,6.72332813 L28.4415645,6.70017188 C27.848371,6.00214453 27.848371,4.98516211 28.4415645,4.28713477 L30.7547258,1.5595957 C31.0961452,1.15714453 31.0419516,0.557976562 30.6338065,0.221320312 C30.2256613,-0.115335938 29.6180161,-0.0618984375 29.2765968,0.340552734 L26.9635484,3.0680918 C25.7772742,4.46403516 25.7703871,6.49599609 26.9470645,7.89973242 L26.9654677,7.92199805 Z" id="Path"></path>
                    <path d="M32.7461129,7.92199805 C33.3387419,8.62013672 33.3389677,9.63667383 32.7465645,10.3350352 L32.359871,10.7905898 C32.0184516,11.1928184 32.0724194,11.7917637 32.4803387,12.1284199 C32.8882581,12.4650762 33.4956774,12.4118613 33.8370968,12.0096328 L34.2242419,11.5540781 C35.4099516,10.1583574 35.4170645,8.12717578 34.2411774,6.72332813 L34.2223226,6.70017188 C33.629129,6.00214453 33.629129,4.98516211 34.2223226,4.28713477 L36.5354839,1.5595957 C36.8769032,1.15714453 36.8227097,0.557976562 36.4145645,0.221320312 C36.0064194,-0.115335938 35.3987742,-0.0618984375 35.0573548,0.340552734 L32.7443065,3.0680918 C31.5580323,4.46403516 31.5511452,6.49599609 32.7278226,7.89973242 L32.7461129,7.92199805 Z" id="Path"></path>
                </g>
            </g>
        </g>
    </g>
</svg>