<?xml version="1.0" encoding="UTF-8"?>
<svg width="58px" height="58px" viewBox="0 0 58 58" version="1.1" xmlns="http://www.w3.org/2000/svg" xmlns:xlink="http://www.w3.org/1999/xlink">
    <title>Kids play area</title>
    <g id="V2-Pages" stroke="none" stroke-width="1" fill="none" fill-rule="evenodd">
        <g id="Artboard-Copy" transform="translate(-1275.000000, -365.000000)" fill="#E75D51" fill-rule="nonzero">
            <g id="slider" transform="translate(1275.000000, 365.000000)">
                <path d="M24.4184531,27.8372813 C24.4184531,25.3281016 22.3770117,23.2866602 19.867832,23.2866602 C17.3586523,23.2866602 15.3172109,25.3281016 15.3172109,27.8372813 C15.3172109,30.3464609 17.3586523,32.3879023 19.867832,32.3879023 C22.3770117,32.3879023 24.4184531,30.3465742 24.4184531,27.8372813 Z M17.0164297,27.8372813 C17.0164297,26.2650508 18.2956016,24.9858789 19.867832,24.9858789 C21.4400625,24.9858789 22.7192344,26.2650508 22.7192344,27.8372813 C22.7192344,29.4095117 21.4400625,30.6886836 19.867832,30.6886836 C18.2956016,30.6886836 17.0164297,29.4095117 17.0164297,27.8372813 Z" id="Shape"></path>
                <path d="M21.0933086,12.2776484 C21.5626328,12.2776484 21.942918,11.8973633 21.942918,11.4280391 C21.942918,10.9587148 21.5626328,10.5784297 21.0933086,10.5784297 L18.6421289,10.5784297 C18.1728047,10.5784297 17.7925195,10.9587148 17.7925195,11.4280391 C17.7925195,11.8973633 18.1728047,12.2776484 18.6421289,12.2776484 L21.0933086,12.2776484 Z" id="Path"></path>
                <path d="M57.1503906,56.3007812 L50.6607344,56.3007812 C50.8513867,56.0995937 51.024707,55.8783555 51.1762773,55.6377461 C51.7814258,54.6778008 51.9763828,53.5397773 51.7256914,52.4331328 C51.2825352,50.4775586 49.7447422,49.7329609 49.6774531,49.6709961 L45.8248711,47.2420195 L49.8483945,44.7053125 C50.8082266,44.1001641 51.4748867,43.1574375 51.7256914,42.0506797 C51.9764961,40.9440352 51.7813125,39.8060117 51.1761641,38.8461797 C50.3437734,37.5258867 49.3592461,37.323 45.8255508,34.9823828 L49.8482812,32.4464687 C51.8296836,31.1973164 52.4254297,28.5689648 51.1763906,26.5873359 C50.4184258,25.3851953 49.1085547,24.6043477 47.4760586,24.6043477 L40.5271602,24.6043477 C40.0578359,24.6043477 39.6775508,24.9846328 39.6775508,25.453957 C39.6775508,25.9232812 40.0578359,26.3035664 40.5271602,26.3035664 L43.6607461,26.3035664 L38.0064258,29.8681875 L32.9083164,29.8681875 L32.9083164,26.3035664 L37.1303086,26.3035664 C37.5996328,26.3035664 37.979918,25.9232812 37.979918,25.453957 C37.979918,24.9846328 37.5996328,24.6043477 37.1303086,24.6043477 L32.8260742,24.6043477 C32.5254258,23.3959766 31.431582,22.4977695 30.1315664,22.4977695 L29.5317422,22.4977695 L29.5317422,19.0228672 L29.5317422,15.8457813 L32.7172109,15.8457813 C33.0760859,15.8457813 33.3962187,15.6203516 33.5172031,15.2824336 C33.6380742,14.9445156 33.5337422,14.5671758 33.2563164,14.3394805 L20.7174414,4.0473125 L20.7174414,0.849609375 C20.7174414,0.380285156 20.3371563,0 19.867832,0 C19.3985078,0 19.0182227,0.380285156 19.0182227,0.849609375 L19.0182227,4.0473125 L13.8436484,8.29467969 C13.4810352,8.59238281 13.4283594,9.12775 13.7260625,9.49047656 C14.0236523,9.85320312 14.5591328,9.90587891 14.9218594,9.6080625 L19.867832,5.54828906 L30.3430625,14.1465625 L9.39260156,14.1465625 L12.2834258,11.7736602 C12.6460391,11.475957 12.6987148,10.9405898 12.4010117,10.5778633 C12.1033086,10.2151367 11.5679414,10.1624609 11.2052148,10.4602773 L6.47934766,14.3394805 C6.20203516,14.5671758 6.09758984,14.9446289 6.21846094,15.2824336 C6.33933203,15.6202383 6.65957813,15.8457813 7.01845313,15.8457813 L10.2038086,15.8457813 L10.2038086,19.0230938 C10.2038086,19.0238867 10.2039219,19.0245664 10.2039219,19.0252461 L10.2039219,30.4316484 C10.2039219,30.9009727 10.584207,31.2812578 11.0535313,31.2812578 C11.5228555,31.2812578 11.9031406,30.9009727 11.9031406,30.4316484 L11.9031406,19.8727031 L27.8324102,19.8727031 L27.8324102,35.8019727 C25.8917891,35.8019727 13.5488906,35.8019727 11.9031406,35.8019727 L11.9031406,33.8285 C11.9031406,33.3591758 11.5228555,32.9788906 11.0535313,32.9788906 C10.584207,32.9788906 10.2039219,33.3591758 10.2039219,33.8285 L10.2039219,36.6494297 C10.2039219,36.6502227 10.2038086,36.6509023 10.2038086,36.651582 L10.2038086,56.3007812 L0.849609375,56.3007812 C0.380285156,56.3007812 0,56.6810664 0,57.1503906 C0,57.6197148 0.380285156,58 0.849609375,58 L57.1503906,58 C57.6197148,58 58,57.6197148 58,57.1503906 C58,56.6810664 57.6197148,56.3007812 57.1503906,56.3007812 Z M22.0131523,48.0374805 L17.7223984,48.0374805 L17.7223984,45.594457 L22.0131523,45.594457 L22.0131523,48.0374805 Z M22.0131523,43.895125 L17.7223984,43.895125 L17.7223984,41.4521016 L22.0131523,41.4521016 L22.0131523,43.895125 Z M17.7223984,49.7366992 L22.0131523,49.7366992 L22.0131523,52.1797227 L17.7223984,52.1797227 L17.7223984,49.7366992 Z M22.0131523,37.5013047 L22.0131523,39.7528828 L17.7223984,39.7528828 L17.7223984,37.5013047 L22.0131523,37.5013047 Z M17.7223984,53.8789414 L22.0131523,53.8789414 L22.0131523,56.3007812 L17.7223984,56.3007812 L17.7223984,53.8789414 Z M23.7123711,37.5013047 L27.8324102,37.5013047 L27.8324102,56.3007813 L23.7123711,56.3007813 L23.7123711,37.5013047 Z M29.5316289,36.6516953 L29.5316289,33.6740977 L30.1314531,33.6740977 C31.431582,33.6740977 32.5253125,32.7758906 32.8259609,31.5675195 L35.3350273,31.5675195 C33.5636484,32.8753516 33.0733672,35.3560977 34.2659922,37.2481211 C35.0779922,38.5361289 35.881043,38.6487305 39.6170586,41.1121445 L35.5939883,43.648625 C34.6341563,44.2537734 33.9674961,45.1965 33.7166914,46.3032578 C33.4658867,47.4099023 33.6610703,48.5479258 34.2662188,49.5077578 C35.1289688,50.876082 35.7010391,50.7743555 44.2623828,56.3008945 L29.5316289,56.3008945 L29.5316289,36.6516953 Z M45.0542188,51.7782539 C45.5383828,51.0104336 46.3676016,50.5894805 47.2146055,50.5894805 C47.6787188,50.5894805 48.1483828,50.7161289 48.5692227,50.981207 L48.9421445,51.2162656 C48.9422578,51.2162656 48.9423711,51.2163789 48.9423711,51.2163789 C50.1309238,51.9659609 50.4883203,53.5427227 49.7389648,54.7314961 C49.2691875,55.4766602 48.4619453,55.9215156 47.5794844,55.9215156 C47.100418,55.9215156 46.6316602,55.7855781 46.2237344,55.528543 C46.2236211,55.5284297 46.2235078,55.5283164 46.2233945,55.5283164 L45.8493398,55.2924648 C44.6619258,54.542543 44.3050898,52.9665742 45.0542188,51.7782539 L45.0542188,51.7782539 Z M45.6970898,49.170293 C44.865832,49.4862344 44.1265586,50.0636289 43.6169063,50.8720039 C43.1200547,51.6602148 42.9002891,52.5685039 42.9761875,53.4808711 L39.3740703,51.2098086 C40.0796992,50.9399727 40.1917344,50.7631406 44.2319102,48.2465977 L45.6970898,49.170293 Z M50.0685,41.6753789 C49.9180625,42.339207 49.5180664,42.9049336 48.9421445,43.268 C38.915168,49.4386563 39.1460352,49.7914141 37.8628984,49.7914141 C36.9812305,49.7914141 36.1704766,49.3419141 35.7035313,48.6015078 C35.3404648,48.0255859 35.2234453,47.3427266 35.3738828,46.6786719 C35.5243203,46.0146172 35.9243164,45.4491172 36.5002383,45.0860508 L46.223168,38.9559492 C46.6443477,38.690418 47.114125,38.5638828 47.5786914,38.5638828 C48.425582,38.5638828 49.2548008,38.9848359 49.738625,39.752543 C50.101918,40.3284648 50.2190508,41.0113242 50.0685,41.6753789 L50.0685,41.6753789 Z M46.0671797,37.1435625 C45.8100313,37.2417773 45.5587734,37.3661602 45.3171445,37.5184102 L41.2103594,40.1076797 L39.3742969,38.9501719 C40.0795859,38.6804492 40.2028359,38.496707 44.2323633,35.9868477 L46.0671797,37.1435625 Z M49.7388516,27.4936992 C50.4883203,28.6825859 50.1308781,30.2595742 48.9420312,31.009043 L39.2189883,37.1385781 C38.8110625,37.3958398 38.3421914,37.5317773 37.8628984,37.5317773 C37.3888164,37.5317773 36.9369375,37.4022969 36.5469102,37.1678047 L36.5005781,37.1385781 C36.493668,37.1342734 36.4865312,37.130875 36.4795078,37.1267969 C36.1721758,36.928668 35.9063047,36.6633633 35.7036445,36.3417578 C34.9541758,35.1528711 35.311618,33.5758828 36.5004648,32.8264141 L46.2233945,26.6968789 C46.6445742,26.4314609 47.114125,26.3049258 47.5785781,26.3049258 C48.4254688,26.3049258 49.2549141,26.7259922 49.7388516,27.4936992 L49.7388516,27.4936992 Z M30.1314531,24.1972148 C30.7256133,24.1972148 31.2090977,24.6806992 31.2090977,25.2748594 L31.2090977,30.8973477 C31.2090977,31.4915078 30.7256133,31.9749922 30.1314531,31.9749922 L29.5316289,31.9749922 L29.5316289,24.1973281 L30.1314531,24.1973281 L30.1314531,24.1972148 Z M11.9030273,18.1734844 L11.9030273,15.8457813 L27.8324102,15.8457813 L27.8324102,18.1734844 L11.9030273,18.1734844 Z M11.9030273,37.5013047 L16.0231797,37.5013047 L16.0231797,56.3007813 L11.9030273,56.3007813 L11.9030273,37.5013047 Z" id="Shape"></path>
            </g>
        </g>
    </g>
</svg>