<?xml version="1.0" encoding="UTF-8"?>
<svg width="512px" height="512px" viewBox="0 0 512 512" version="1.1" xmlns="http://www.w3.org/2000/svg" xmlns:xlink="http://www.w3.org/1999/xlink">
    <title>badminton</title>
    <g id="Page-1" stroke="none" stroke-width="1" fill="none" fill-rule="evenodd">
        <g id="badminton" fill="#FFFFFF" fill-rule="nonzero">
            <path d="M499.455,230.673 L423.839,213.745 L200.863,385.105 L178.047,362.289 L406.719,186.577 L399.871,126.193 C399.039,118.769 393.183,112.913 385.791,112.113 L321.247,104.785 L149.407,333.681 L126.591,310.833 L300.223,79.505 L292.863,14.193 C292.415,9.809 290.079,5.809 286.559,3.185 C283.039,0.561 278.559,-0.527 274.207,0.241 L183.711,16.241 C177.919,17.265 173.183,21.329 171.295,26.897 L81.983,294.193 L55.391,320.785 L191.135,456.529 L217.695,429.969 L484.991,340.657 C490.431,338.833 494.495,334.257 495.615,328.625 L511.615,249.457 C513.375,240.945 507.967,232.593 499.455,230.673 Z" id="Path"></path>
            <path d="M32.767,343.441 L28.095,348.113 C-9.313,385.553 -9.313,446.417 28.095,483.857 C46.207,502.001 70.335,511.985 95.967,511.985 C121.599,511.985 145.727,501.969 163.839,483.857 L168.511,479.185 L32.767,343.441 Z" id="Path"></path>
        </g>
    </g>
</svg>