<?xml version="1.0" encoding="UTF-8"?>
<svg width="29px" height="29px" viewBox="0 0 29 29" version="1.1" xmlns="http://www.w3.org/2000/svg" xmlns:xlink="http://www.w3.org/1999/xlink">
    <title>Icon/Football</title>
    <g id="Extras" stroke="none" stroke-width="1" fill="none" fill-rule="evenodd">
        <g id="Sports" transform="translate(-603.000000, -1048.000000)" fill="#FFFFFF" fill-rule="nonzero">
            <g id="02-Sports" transform="translate(47.000000, 117.000000)">
                <g id="All/Sports" transform="translate(81.000000, 142.000000)">
                    <g id="Card/Play-Copy-4" transform="translate(439.000000, 516.000000)">
                        <g id="Icon/Activites" transform="translate(20.000000, 258.000000)">
                            <g id="Group" transform="translate(15.733333, 15.733333)">
                                <g id="volleyball-(1)" transform="translate(0.983333, 0.000000)">
                                    <path d="M17.7037492,0.983333333 C11.9365484,2.7141215 7.86666667,8.05303803 7.86666667,13.9578024 C7.86666667,14.2254561 7.89513916,14.4861639 7.91095117,14.75 C9.46949402,14.7423118 11.0954689,14.3113513 12.8606003,13.4356445 C13.2956752,8.64051874 16.3997744,4.9323914 21.6333333,2.89020664 C20.4458566,2.06577184 19.1267761,1.41169585 17.7037492,0.983333333 Z" id="Path"></path>
                                    <path d="M23.2955643,3.93333333 C20.9346982,4.76175727 18.3853524,6.20078678 16.7166667,8.4991696 C21.5680346,9.45136352 25.4813194,12.9514757 26.9293664,17.7 C27.3218002,16.4434485 27.5333333,15.107972 27.5333333,13.7240797 C27.5333333,9.88600253 25.8973855,6.37712094 23.2955643,3.93333333 Z" id="Path"></path>
                                    <path d="M25.2502197,18.7694148 C24.0234064,14.0242655 20.2591659,10.5474692 15.6331467,9.83333333 C15.1750118,10.8315807 14.8740815,11.9739356 14.75,13.2552003 C19.2124928,15.115083 21.5147138,19.9728265 22.3310394,24.5833333 C23.6411309,23.4595254 24.7417729,22.0793988 25.5666667,20.5174146 C25.4977035,19.932669 25.4002146,19.349127 25.2502197,18.7694148 Z" id="Path"></path>
                                    <path d="M14.3644424,14.920302 C12.2682189,15.8513695 10.3265008,16.3048575 8.41946428,16.3048575 C5.57903813,16.3048575 2.4753225,15.4656657 0.0213553299,13.7666667 C0.0171734768,13.8891997 0,14.0088842 0,14.1322863 C0,15.7242499 0.362259996,17.2417668 1.00035502,18.6395508 C1.67385641,18.5891472 3.8994944,20.65 8.41946428,20.65 C12.0455212,20.65 15.4620395,19.230104 17.7,16.7551108 C16.7659413,15.9597566 15.6572484,15.3273936 14.3644424,14.920302 Z" id="Path"></path>
                                    <path d="M14.75,0.0582949712 C14.3765905,0.0270616015 14.0018885,0 13.6206704,0 C6.85837115,0 1.12825257,5.06721627 0,11.6356104 C1.72127043,13.33352 3.97099022,14.4118672 6.3340684,14.75 C6.32394423,14.5168201 6.29680284,14.2881413 6.29680284,14.0522718 C6.29680284,8.12841584 9.69771613,2.69232744 14.75,0.0582949712 Z" id="Path"></path>
                                    <path d="M18.7540697,18.6833333 C16.305576,21.4433944 12.6679757,23.0302217 8.79959818,23.0302217 C6.76028235,23.0302217 4.73571745,22.5884219 2.95,21.7481214 C5.38518585,25.1964163 9.69229657,27.5333333 14.4648098,27.5333333 C17.0965143,27.5333333 19.5477338,26.7779982 21.6333333,25.577053 C21.2546193,23.1838718 20.3469562,20.6540632 18.7540697,18.6833333 Z" id="Path"></path>
                                </g>
                            </g>
                        </g>
                    </g>
                </g>
            </g>
        </g>
    </g>
</svg>