<?xml version="1.0" encoding="UTF-8"?>
<svg width="65px" height="39px" viewBox="0 0 65 39" version="1.1" xmlns="http://www.w3.org/2000/svg" xmlns:xlink="http://www.w3.org/1999/xlink">
    <title>Cycling tracks</title>
    <g id="V2-Pages" stroke="none" stroke-width="1" fill="none" fill-rule="evenodd">
        <g id="Artboard-Copy" transform="translate(-838.000000, -473.000000)" fill="#419E9C" fill-rule="nonzero">
            <g id="bicycle-(3)" transform="translate(838.000000, 473.000000)">
                <path d="M63.4438012,19.4905377 C61.1845127,15.0561738 56.6532651,12.2734918 51.7125049,12.2864066 C50.3160819,12.2875574 48.9287817,12.514141 47.6031871,12.9574623 L42.2024854,2.05689836 L50.6988596,2.05689836 C51.2586452,2.05689836 51.7125049,2.51492459 51.7125049,3.07984918 C51.7125049,3.64477377 51.2586452,4.1028 50.6988596,4.1028 L46.6442788,4.1028 C46.0844932,4.1028 45.6306335,4.56082623 45.6306335,5.12575082 C45.6306335,5.69067541 46.0844932,6.14870164 46.6442788,6.14870164 L50.6988596,6.14870164 C52.3783431,6.14870164 53.7397953,4.77475082 53.7397953,3.07984918 C53.7397953,1.38494754 52.3783431,0.010981304 50.6988596,0.010981304 L40.5624074,0.010981304 C40.0026218,0.00792786885 39.5463548,0.463396721 39.5431871,1.02832131 C39.5423002,1.18892459 39.5789181,1.34748197 39.6501267,1.49120656 L40.9496199,4.1028 L22.9430994,4.1028 L21.9294542,2.05689836 L27.3848928,2.05689836 C27.9446784,2.05689836 28.398538,1.59887213 28.398538,1.03394754 C28.398538,0.469022951 27.9446784,0.010981304 27.3848928,0.010981304 L17.2484405,0.010981304 C16.688655,0.010981304 16.2347953,0.469022951 16.2347953,1.03394754 C16.2347953,1.59887213 16.688655,2.05689836 17.2484405,2.05689836 L19.6629435,2.05689836 L21.1834113,5.12575082 L17.3031774,12.9574623 C10.3907505,10.6599148 2.94159844,14.452377 0.664951267,21.4282623 C-1.61169591,28.4041475 2.14626706,35.9216852 9.05869396,38.2192328 C15.9711209,40.5167803 23.4202729,36.724318 25.6969201,29.7484328 C26.0291423,28.7305967 26.2380799,27.6760623 26.3195517,26.607718 L32.4531189,26.607718 C32.5352242,26.6072066 32.6169493,26.5965934 32.6963938,26.5760066 L32.7176803,26.5708918 C32.7409942,26.5647541 32.7612671,26.5514557 32.7845809,26.5442951 C32.8256335,26.5320197 32.8659259,26.5174426 32.9052047,26.5003082 C32.9112865,26.5003082 32.9143275,26.4921246 32.9193957,26.4890557 C32.9244639,26.4859869 32.9477778,26.4747344 32.9609552,26.4665508 C32.9903509,26.4472426 33.0188596,26.4264 33.0461014,26.4041508 C33.0898148,26.3732066 33.1311209,26.3389377 33.1697661,26.3018557 L33.2092982,26.2609377 C33.2245029,26.2435475 33.2336257,26.2241115 33.2478168,26.2056984 C33.2620078,26.1872852 33.2954581,26.1535279 33.3147173,26.1228393 C33.3228265,26.108518 33.3268811,26.0921508 33.3339766,26.0778295 C33.3410721,26.0635082 33.3522222,26.0553246 33.3593177,26.0420262 L42.5895712,7.41306885 L45.7318713,13.7553639 C39.2715302,17.1075738 36.727154,25.1102459 40.0488694,31.6297672 C43.3705848,38.1494164 51.3004581,40.7171508 57.7606725,37.364941 C64.2210136,34.0127311 66.7653899,26.010059 63.4438012,19.4905377 Z M13.1938596,36.8372375 C7.03583821,36.8459213 2.03679337,31.8150492 2.02816624,25.6004951 C2.0195614,19.385941 7.00466862,14.3410033 13.1626901,14.3322973 C14.254386,14.3307738 15.3403801,14.4909934 16.3859552,14.8079803 L11.2730019,25.1275082 C11.0227583,25.6328459 11.2258674,26.2472557 11.7266082,26.4997967 C11.8675049,26.5707639 12.0227193,26.607718 12.1802144,26.607718 L24.2922612,26.607718 C23.7637719,32.3973639 18.9551657,36.8294262 13.1938596,36.8372375 Z M13.8202924,24.5618164 L18.2712086,15.5792852 C21.6689474,17.3365869 23.9403996,20.7252393 24.2922612,24.5618164 L13.8202924,24.5618164 Z M26.3195517,24.5618164 C25.9633821,19.9493311 23.2573294,15.8550984 19.1743665,13.7512721 L22.3166667,7.40897705 L30.8130409,24.5618164 L26.3195517,24.5618164 Z M32.4531189,23.2974492 L23.9567446,6.14870164 L40.9494932,6.14870164 L32.4531189,23.2974492 Z M54.9356433,36.3615541 C53.8900682,36.678541 52.8040741,36.8387607 51.7123782,36.8372371 C45.5587914,36.842341 40.5663353,31.8122361 40.5612633,25.6021574 C40.557846,21.3745574 42.9044347,17.5023049 46.6350292,15.5792852 L51.8188109,26.0420262 C52.0690546,26.5476197 52.6781287,26.7528492 53.1791228,26.5003082 C53.680117,26.2477672 53.8834795,25.6331016 53.6332359,25.1275082 L48.5204094,14.8079803 C54.4181774,13.0202459 60.6352437,16.3958557 62.4067154,22.3477672 C64.1783138,28.2995508 60.8334113,34.5738197 54.9356433,36.3615541 Z" id="Shape"></path>
                <path d="M13.1938596,27.6306689 L12.1802144,27.6306689 C11.6204288,27.6306689 11.1665692,28.0886951 11.1665692,28.6536197 C11.1665692,29.2185443 11.6204288,29.6765705 12.1802144,29.6765705 L13.1938596,29.6765705 C13.7536452,29.6765705 14.2075049,29.2185443 14.2075049,28.6536197 C14.2075049,28.0886951 13.7536452,27.6306689 13.1938596,27.6306689 Z" id="Path"></path>
                <path d="M17.2484405,27.6306689 L16.2347953,27.6306689 C15.6750097,27.6306689 15.2211501,28.0886951 15.2211501,28.6536197 C15.2211501,29.2185443 15.6750097,29.6765705 16.2347953,29.6765705 L17.2484405,29.6765705 C17.8082261,29.6765705 18.2620858,29.2185443 18.2620858,28.6536197 C18.2620858,28.0886951 17.8082261,27.6306689 17.2484405,27.6306689 Z" id="Path"></path>
                <path d="M21.3030214,27.6306689 L20.2893762,27.6306689 C19.7295906,27.6306689 19.275731,28.0886951 19.275731,28.6536197 C19.275731,29.2185443 19.7295906,29.6765705 20.2893762,29.6765705 L21.3030214,29.6765705 C21.862807,29.6765705 22.3166667,29.2185443 22.3166667,28.6536197 C22.3166667,28.0886951 21.862807,27.6306689 21.3030214,27.6306689 Z" id="Path"></path>
            </g>
        </g>
    </g>
</svg>