<?xml version="1.0" encoding="UTF-8"?>
<svg width="69px" height="49px" viewBox="0 0 69 49" version="1.1" xmlns="http://www.w3.org/2000/svg" xmlns:xlink="http://www.w3.org/1999/xlink">
    <title>Children's bike park </title>
    <g id="V2-Pages" stroke="none" stroke-width="1" fill="none" fill-rule="evenodd">
        <g id="Artboard-Copy" transform="translate(-1023.000000, -463.000000)" fill="#E75D51" fill-rule="nonzero">
            <g id="bike-(3)" transform="translate(1023.000000, 463.000000)">
                <path d="M58.983871,28.9545455 C58.3139032,28.9545455 57.660629,29.0235909 57.0273871,29.1494318 L52.5679839,15.1265227 L57.1720645,13.2845682 C57.7340806,13.0596136 58.0134194,12.4259545 57.8008548,11.8591136 L54.4621452,2.95002273 C54.2985484,2.51570455 53.8834355,2.22727273 53.4193548,2.22727273 L50.0806452,2.22727273 L50.0806452,1.11363636 C50.0806452,0.498909091 49.5820645,0 48.9677419,0 L42.2903226,0 C40.4495806,0 38.9516129,1.49895455 38.9516129,3.34090909 C38.9516129,5.18286364 40.4495806,6.68181818 42.2903226,6.68181818 L48.9677419,6.68181818 C49.5820645,6.68181818 50.0806452,6.18290909 50.0806452,5.56818182 L50.0806452,4.45454545 L52.6481129,4.45454545 L55.3335484,11.6207955 L50.7795484,13.4427045 C50.2386774,13.6598636 49.956,14.2578864 50.1318387,14.8147045 L51.899129,20.37175 L35.0208387,24.3452045 L33.7276452,20.7860227 C34.4109677,20.56775 35.0664677,20.2615 35.673,19.85725 C36.5833548,19.2525455 37.6406129,18.9318182 38.732371,18.9318182 C40.0800968,18.9318182 41.1774194,17.8337727 41.1774194,16.4851591 L41.1774194,15.8114091 C41.1774194,14.4616818 40.0800968,13.3636364 38.732371,13.3636364 L28.9354839,13.3636364 C26.4804194,13.3636364 24.483871,15.3615 24.483871,17.8181818 C24.483871,18.1901364 24.6697258,18.5375909 24.9791129,18.7447273 L26.6484677,19.8583636 C27.9249677,20.7091818 29.4095806,21.1590909 30.9420484,21.1590909 L31.3816452,21.1590909 C31.4194839,21.1590909 31.4550968,21.1512955 31.4918226,21.1512955 L32.1384194,22.932 L24.0709839,28.9868409 C23.8383871,28.9701364 23.6057903,28.9545455 23.3709677,28.9545455 C17.8487419,28.9545455 13.3548387,33.4514091 13.3548387,38.9772727 C13.3548387,40.1499318 13.5674032,41.2713636 13.9391129,42.3181818 L11.016629,42.3181818 C10.499129,39.7802045 8.25106452,37.8636364 5.56451613,37.8636364 C2.49624194,37.8636364 0,40.3615227 0,43.4318182 C0,46.5021136 2.49624194,49 5.56451613,49 C8.25106452,49 10.499129,47.0834318 11.016629,44.5454545 L15.0486774,44.5454545 C16.8482419,47.2293182 19.9065,49 23.3709677,49 C28.8931935,49 33.3870968,44.5031364 33.3870968,38.9772727 C33.3870968,38.6042045 33.3581613,38.23225 33.3169839,37.8636364 L33.4983871,37.8636364 C34.0147742,40.4016136 36.2639516,42.3181818 38.9505,42.3181818 C40.0823226,42.3181818 41.1340161,41.9740682 42.0143226,41.3905227 L42.9424839,42.3181818 L40.3905968,44.87175 L41.9642419,46.4464318 L45.3029516,43.1055227 C45.7380968,42.6700909 45.7380968,41.9662727 45.3029516,41.5308409 L43.5890806,39.8158409 C44.1722419,38.9349545 44.516129,37.8825682 44.516129,36.75 C44.516129,33.6797045 42.0198871,31.1818182 38.9516129,31.1818182 L37.5059516,31.1818182 L36.9940161,29.7741818 L53.6430484,25.8541818 L54.9073065,29.8320909 C51.4127903,31.3978636 48.9677419,34.9035909 48.9677419,38.9772727 C48.9677419,44.5031364 53.4616452,49 58.983871,49 C64.5060968,49 69,44.5031364 69,38.9772727 C69,33.4514091 64.5060968,28.9545455 58.983871,28.9545455 L58.983871,28.9545455 Z M47.8548387,4.45454545 L42.2903226,4.45454545 C41.6771129,4.45454545 41.1774194,3.95452273 41.1774194,3.34090909 C41.1774194,2.72729545 41.6771129,2.22727273 42.2903226,2.22727273 L47.8548387,2.22727273 L47.8548387,4.45454545 Z M27.8837903,18.0052727 L26.7786774,17.2680455 C27.0235161,16.30475 27.8982581,15.5909091 28.9354839,15.5909091 L38.732371,15.5909091 C38.8536774,15.5909091 38.9516129,15.6889091 38.9516129,15.8102955 L38.9516129,16.4840455 C38.9516129,16.6065455 38.8536774,16.7045455 38.732371,16.7045455 C37.1999032,16.7045455 35.7152903,17.1544545 34.4399032,18.0052727 C33.5295484,18.6110909 32.4722903,18.9318182 31.3805323,18.9318182 L30.9409355,18.9318182 C29.8502903,18.9318182 28.7930323,18.6110909 27.8837903,18.0052727 Z M5.56451613,46.7727273 C3.72377419,46.7727273 2.22580645,45.2737727 2.22580645,43.4318182 C2.22580645,41.5898636 3.72377419,40.0909091 5.56451613,40.0909091 C7.01351613,40.0909091 8.23770968,41.02525 8.69845161,42.3181818 L5.56451613,42.3181818 L5.56451613,44.5454545 L8.69845161,44.5454545 C8.23770968,45.8383864 7.01351613,46.7727273 5.56451613,46.7727273 Z M15.5806452,38.9772727 C15.5806452,34.6786364 19.0751613,31.1818182 23.3709677,31.1818182 C24.311371,31.1818182 25.2339677,31.3522045 26.0986935,31.6762727 C25.7280968,31.9023409 25.4053548,32.1952273 25.1471613,32.5437955 C24.5717903,32.3834318 23.9786129,32.2954545 23.3709677,32.2954545 C19.688371,32.2954545 16.6935484,35.29225 16.6935484,38.9772727 C16.6935484,40.1944773 17.0263065,41.3337273 17.5972258,42.3181818 L16.3429839,42.3181818 C15.858871,41.3036591 15.5806452,40.1744318 15.5806452,38.9772727 L15.5806452,38.9772727 Z M27.6600968,37.8469318 C27.7569194,38.2144318 27.8225806,38.5897273 27.8225806,38.9772727 C27.8225806,41.4339545 25.8260323,43.4318182 23.3709677,43.4318182 C22.8423387,43.4318182 22.3415323,43.3226818 21.8707742,43.1534091 C23.4566613,41.9306364 24.483871,40.0174091 24.483871,37.8636364 L22.2580645,37.8636364 C22.2580645,39.5496818 21.3065323,41.0018636 19.9220806,41.7580227 C19.3044194,40.9940682 18.9193548,40.0341136 18.9193548,38.9772727 C18.9193548,36.5205909 20.9159032,34.5227273 23.3709677,34.5227273 C23.7582581,34.5227273 24.1333065,34.5884318 24.5005645,34.6853182 C24.5840323,36.3958636 25.9506774,37.7634091 27.6600968,37.8469318 Z M31.1612903,38.9772727 C31.1612903,43.2759091 27.6667742,46.7727273 23.3709677,46.7727273 C21.2508871,46.7727273 19.3289032,45.9185682 17.9233065,44.5398864 C18.4352419,44.5309773 18.9315968,44.4619318 19.4090323,44.3427727 C20.5185968,45.16575 21.8863548,45.6590909 23.3709677,45.6590909 C27.0535645,45.6590909 30.0483871,42.6622955 30.0483871,38.9772727 C30.0483871,38.59975 30.0094355,38.2289091 29.9482258,37.8636364 L31.0755968,37.8636364 C31.1279032,38.2311364 31.1612903,38.6030909 31.1612903,38.9772727 L31.1612903,38.9772727 Z M42.2903226,36.75 C42.2903226,37.2645 42.1645645,37.7455909 41.9553387,38.1810227 L39.7384355,35.9626591 L38.1647903,37.5373409 L40.3816935,39.7557045 C39.9465484,39.9650682 39.4657742,40.0909091 38.9516129,40.0909091 C37.110871,40.0909091 35.6129032,38.5919545 35.6129032,36.75 C35.6129032,36.1352727 35.1143226,35.6363636 34.5,35.6363636 L27.8225806,35.6363636 C27.209371,35.6363636 26.7096774,35.1363409 26.7096774,34.5227273 C26.7096774,33.9091136 27.209371,33.4090909 27.8225806,33.4090909 L38.9516129,33.4090909 C40.7923548,33.4090909 42.2903226,34.9080455 42.2903226,36.75 Z M29.6499677,31.1818182 C28.8275323,30.5180909 27.9171774,29.9868864 26.9433871,29.6138182 L32.9330323,25.1180682 L35.1365806,31.1818182 L29.6499677,31.1818182 Z M36.2272258,27.6660682 L35.787629,26.4555455 L52.5768871,22.5021364 L52.9652903,23.7249091 L36.2272258,27.6660682 Z M58.983871,46.7727273 C54.6880645,46.7727273 51.1935484,43.2759091 51.1935484,38.9772727 C51.1935484,35.8980682 52.992,33.2375909 55.5884032,31.9725 L55.9289516,33.0427045 C53.7810484,34.1541136 52.3064516,36.39475 52.3064516,38.9772727 C52.3064516,42.6622955 55.3012742,45.6590909 58.983871,45.6590909 C62.6664677,45.6590909 65.6612903,42.6622955 65.6612903,38.9772727 C65.6612903,35.29225 62.6664677,32.2954545 58.983871,32.2954545 C58.6666935,32.2954545 58.3561935,32.3255227 58.0501452,32.3689545 L57.7084839,31.2954091 C58.1247097,31.2263636 58.5487258,31.1818182 58.983871,31.1818182 C63.2796774,31.1818182 66.7741935,34.6786364 66.7741935,38.9772727 C66.7741935,43.2759091 63.2796774,46.7727273 58.983871,46.7727273 L58.983871,46.7727273 Z M57.9232742,39.3147045 L60.0444677,38.6398409 L58.7434839,34.5472273 C58.8247258,34.5427727 58.9015161,34.5227273 58.983871,34.5227273 C61.4389355,34.5227273 63.4354839,36.5205909 63.4354839,38.9772727 C63.4354839,41.4339545 61.4389355,43.4318182 58.983871,43.4318182 C56.5288065,43.4318182 54.5322581,41.4339545 54.5322581,38.9772727 C54.5322581,37.3914545 55.3702742,36.0072045 56.6200645,35.2176364 L57.9232742,39.3147045 Z" id="Shape"></path>
            </g>
        </g>
    </g>
</svg>