<?xml version="1.0" encoding="UTF-8"?>
<svg width="48px" height="57px" viewBox="0 0 48 57" version="1.1" xmlns="http://www.w3.org/2000/svg" xmlns:xlink="http://www.w3.org/1999/xlink">
    <title>Sunset overwater cycle track</title>
    <g id="V2-Pages" stroke="none" stroke-width="1" fill="none" fill-rule="evenodd">
        <g id="Artboard-Copy" transform="translate(-944.000000, -455.000000)" fill="#DB7112" fill-rule="nonzero">
            <g id="Sunset-overwater-cycle-track" transform="translate(944.000000, 455.000000)">
                <g id="bicycle-(3)" transform="translate(0.000000, 28.000000)">
                    <path d="M46.850807,14.4929639 C45.1824094,11.1956164 41.8362573,9.12644262 38.1876959,9.1360459 C37.1564912,9.13690164 36.1320234,9.30538689 35.1531228,9.63503607 L31.1649123,1.52948852 L37.4391579,1.52948852 C37.852538,1.52948852 38.1876959,1.87007213 38.1876959,2.29014426 C38.1876959,2.71021639 37.852538,3.0508 37.4391579,3.0508 L34.4450058,3.0508 C34.0316257,3.0508 33.6964678,3.39138361 33.6964678,3.81145574 C33.6964678,4.23152787 34.0316257,4.57211148 34.4450058,4.57211148 L37.4391579,4.57211148 C38.6793918,4.57211148 39.6847719,3.55045574 39.6847719,2.29014426 C39.6847719,1.02983279 38.6793918,0.00816558505 37.4391579,0.00816558505 L29.9537778,0.00816558505 C29.5403977,0.00589508197 29.203462,0.344577049 29.2011228,0.76464918 C29.2004678,0.884072131 29.2275088,1.00197377 29.2800936,1.1088459 L30.2397193,3.0508 L16.9425965,3.0508 L16.1940585,1.52948852 L20.2226901,1.52948852 C20.6360702,1.52948852 20.9712281,1.18890492 20.9712281,0.768832787 C20.9712281,0.348760656 20.6360702,0.00816558505 20.2226901,0.00816558505 L12.7373099,0.00816558505 C12.3239298,0.00816558505 11.9887719,0.348760656 11.9887719,0.768832787 C11.9887719,1.18890492 12.3239298,1.52948852 12.7373099,1.52948852 L14.5203275,1.52948852 L15.6431345,3.81145574 L12.777731,9.63503607 C7.67316959,7.92660328 2.17225731,10.7466393 0.491040936,15.9338361 C-1.19017544,21.1210328 1.58493567,26.7109967 6.68949708,28.4194295 C11.7940585,30.1278623 17.2949708,27.3078262 18.9761871,22.1206295 C19.2215205,21.363777 19.3758129,20.5796361 19.4359766,19.7852262 L23.9653801,19.7852262 C24.0260117,19.7848459 24.0863626,19.7769541 24.1450292,19.7616459 L24.1607485,19.7578426 C24.1779649,19.7532787 24.1929357,19.7433902 24.210152,19.7380656 C24.2404678,19.7289377 24.2702222,19.7180984 24.2992281,19.7053574 C24.3037193,19.7053574 24.3059649,19.6992721 24.3097076,19.6969902 C24.3134503,19.6947082 24.3306667,19.686341 24.3403977,19.6802557 C24.3621053,19.6658984 24.3831579,19.6504 24.4032749,19.6338557 C24.4355556,19.6108459 24.4660585,19.5853639 24.4945965,19.5577902 L24.5237895,19.5273639 C24.5350175,19.5144328 24.5417544,19.4999803 24.5522339,19.4862885 C24.5627135,19.4725967 24.5874152,19.4474951 24.6016374,19.4246754 C24.6076257,19.4140262 24.6106199,19.4018557 24.6158596,19.3912066 C24.6210994,19.3805574 24.6293333,19.3744721 24.6345731,19.3645836 L31.4507602,5.51228197 L33.7712281,10.2283475 C29.0005146,12.7210164 27.1215906,18.6717213 29.5745497,23.5195705 C32.0275088,28.3675148 37.8834152,30.2768557 42.6540351,27.7841869 C47.4247485,25.291518 49.3036725,19.3408131 46.850807,14.4929639 Z M9.74315789,27.391792 C5.19569591,27.3982492 1.50409357,23.6573493 1.49772276,19.0362656 C1.49136842,14.4151869 5.17267836,10.663823 9.72014035,10.6573493 C10.5263158,10.6562164 11.3282807,10.7753541 12.1003977,11.0110623 L8.32467836,18.6845574 C8.13988304,19.0603213 8.28987135,19.5171902 8.65964912,19.704977 C8.76369591,19.7577475 8.87831579,19.7852262 8.99461988,19.7852262 L17.9389006,19.7852262 C17.5486316,24.0903475 13.9976608,27.3859836 9.74315789,27.391792 Z M10.2057544,18.2639148 L13.4925848,11.5845967 C16.0016842,12.8913082 17.6790643,15.4110754 17.9389006,18.2639148 L10.2057544,18.2639148 Z M19.4359766,18.2639148 C19.1729591,14.834118 17.1746433,11.7896885 14.1595322,10.2253049 L16.48,5.50923934 L22.7542456,18.2639148 L19.4359766,18.2639148 Z M23.9653801,17.3237443 L17.6911345,4.57211148 L30.2396257,4.57211148 L23.9653801,17.3237443 Z M40.5678596,27.0380787 C39.7957427,27.2737869 38.9937778,27.3929246 38.1876023,27.3917917 C33.6434152,27.3955869 29.9566784,23.6552525 29.9529329,19.0375016 C29.9504094,15.8939016 31.6832749,13.0145344 34.4381754,11.5845967 L38.2661988,19.3645836 C38.4509942,19.7405377 38.9007719,19.8931443 39.2707368,19.7053574 C39.6407018,19.5175705 39.7908772,19.0605115 39.6060819,18.6845574 L35.8304561,11.0110623 C40.185731,9.68172131 44.7767953,12.1917902 46.0849591,16.6175705 C47.3932164,21.0432557 44.9231345,25.7087377 40.5678596,27.0380787 Z" id="Shape"></path>
                </g>
                <g transform="translate(1.000000, 0.000000)" id="sunset">
                    <path d="M46.3115234,22.2038423 C44.2811602,22.2038423 43.2534023,22.6035208 42.2594258,22.990006 C41.3431094,23.3463214 40.4774648,23.6829851 38.7042246,23.6829851 C36.9308926,23.6829851 36.0653398,23.3464137 35.1489316,22.990006 C34.1550469,22.6035208 33.1272891,22.2038423 31.096834,22.2038423 C29.0676641,22.2038423 28.0405488,22.6036131 27.0472148,22.9900982 C26.131541,23.3464137 25.2666309,23.6829851 23.4947676,23.6829851 C21.7221699,23.6829851 20.8569844,23.3464137 19.9410352,22.9900982 C18.9474258,22.6035208 17.9200352,22.2038423 15.8903145,22.2038423 C13.8612363,22.2038423 12.8341211,22.6036131 11.8407871,22.9900982 C10.9251133,23.3464137 10.0602949,23.6829851 8.28843164,23.6829851 C6.51711914,23.6829851 5.65248437,23.3464137 4.73708594,22.9900982 C3.74402734,22.6035208 2.7171875,22.2038423 0.688476562,22.2038423 C0.308253906,22.2038423 -2.60902411e-15,22.5136577 -2.60902411e-15,22.8958065 C-2.60902411e-15,23.2779554 0.308253906,23.5877708 0.688476562,23.5877708 C2.45978906,23.5877708 3.32433203,23.9243423 4.23982227,24.2806577 C5.23288086,24.6672351 6.2597207,25.0669137 8.28843164,25.0669137 C10.3175098,25.0669137 11.344625,24.6671429 12.337959,24.2806577 C13.2536328,23.9243423 14.1184512,23.5877708 15.8903145,23.5877708 C17.6628203,23.5877708 18.5280059,23.9243423 19.4439551,24.2806577 C20.4375645,24.6672351 21.4650469,25.0669137 23.4947676,25.0669137 C25.5239375,25.0669137 26.5510527,24.6671429 27.5443867,24.2806577 C28.4600605,23.9243423 29.3249707,23.5877708 31.096834,23.5877708 C32.8700742,23.5877708 33.7357188,23.9243423 34.6520352,24.28075 C35.6460117,24.6672351 36.6737695,25.0669137 38.7042246,25.0669137 C40.7346797,25.0669137 41.7623457,24.6672351 42.7563223,24.28075 C43.6726387,23.9244345 44.5382832,23.5877708 46.3115234,23.5877708 C46.6917461,23.5877708 47,23.2779554 47,22.8958065 C47,22.5136577 46.6917461,22.2038423 46.3115234,22.2038423 Z" id="Path"></path>
                    <path d="M32.5219805,12.8877887 C30.4650879,9.92221429 27.0924707,8.15170833 23.5000918,8.15170833 C17.4399375,8.15170833 12.5096185,13.1069107 12.5096185,19.1978571 C12.5096185,19.4607113 12.5187988,19.7259643 12.5371582,19.9862351 C12.5627695,20.3508542 12.8650566,20.6294851 13.223248,20.6294851 C13.2395879,20.6294851 13.2559277,20.6289315 13.2724512,20.6277321 C13.6517559,20.6007917 13.9375195,20.2699405 13.9107148,19.8887143 C13.8946504,19.6606429 13.8865723,19.4282351 13.8865723,19.1978571 C13.8865723,13.8701012 18.1990977,9.5356369 23.5000918,9.5356369 C26.6423906,9.5356369 29.592834,11.084622 31.3923281,13.6792113 C31.6097949,13.992625 32.0388535,14.0695714 32.3508711,13.8511875 C32.6627969,13.632619 32.7393555,13.2012946 32.5219805,12.8877887 Z" id="Path"></path>
                    <path d="M9.51878516,18.5059851 L5.10363086,18.5059851 C4.7234082,18.5059851 4.4151543,18.8158006 4.4151543,19.1979494 C4.4151543,19.5800982 4.7234082,19.8899137 5.10363086,19.8899137 L9.51878516,19.8899137 C9.89900781,19.8899137 10.2072617,19.5800982 10.2072617,19.1979494 C10.2072617,18.8158006 9.89900781,18.5059851 9.51878516,18.5059851 Z" id="Path"></path>
                    <path d="M23.5,0.0163303571 C23.1197773,0.0163303571 22.8115234,0.326145833 22.8115234,0.708294643 L22.8115234,5.14581548 C22.8115234,5.52805655 23.1197773,5.83777976 23.5,5.83777976 C23.8802227,5.83777976 24.1884766,5.52796429 24.1884766,5.14581548 L24.1884766,0.708294643 C24.1884766,0.326145833 23.8802227,0.0163303571 23.5,0.0163303571 Z" id="Path"></path>
                    <path d="M36.9950586,5.63452679 C36.7261855,5.36429167 36.2902422,5.36429167 36.0214609,5.63452679 L32.8994492,8.77235417 C32.6305762,9.04258929 32.6305762,9.48074107 32.8994492,9.75088393 C33.0338398,9.88595536 33.209998,9.95358333 33.386248,9.95358333 C33.5624062,9.95358333 33.7386562,9.88604762 33.8730469,9.75088393 L36.9950586,6.61305655 C37.2639316,6.34282143 37.2639316,5.90466964 36.9950586,5.63452679 Z" id="Path"></path>
                    <path d="M18.7856797,5.95070833 L18.2225059,4.584125 C18.0770078,4.23103869 17.6742949,4.06349107 17.3229883,4.20963393 C16.9716816,4.35586905 16.8048867,4.76071429 16.9503848,5.11370833 L17.5135586,6.48029167 C17.6233477,6.74674405 17.8797363,6.90764881 18.1498945,6.90764881 C18.2377441,6.90764881 18.3269707,6.89067262 18.4130762,6.85478274 C18.7643828,6.70854762 18.9311777,6.30370238 18.7856797,5.95070833 Z" id="Path"></path>
                    <path d="M38.4127695,12.9896458 C38.2672715,12.6366518 37.8645586,12.4689196 37.513252,12.6151548 L36.1535566,13.1811815 C35.80225,13.3273244 35.6354551,13.7321696 35.7809531,14.085256 C35.8907422,14.3517083 36.1471309,14.5126131 36.4172891,14.5126131 C36.5051387,14.5126131 36.5943652,14.4956369 36.6804707,14.459747 L38.040166,13.8937202 C38.3914727,13.7474851 38.5582676,13.3426399 38.4127695,12.9896458 Z" id="Path"></path>
                    <path d="M29.6770117,4.20963393 C29.3257969,4.06339881 28.9229922,4.23103869 28.7774941,4.584125 L28.2143203,5.95070833 C28.0688223,6.30370238 28.2356172,6.70845536 28.5869238,6.85478274 C28.6730293,6.89067262 28.7623477,6.90764881 28.8501055,6.90764881 C29.1202637,6.90764881 29.3766523,6.74674405 29.4864414,6.48029167 L30.0496152,5.11370833 C30.1951133,4.76062202 30.0283184,4.35586905 29.6770117,4.20963393 Z" id="Path"></path>
                    <path d="M10.8464434,13.1810893 L9.48674805,12.6150625 C9.13534961,12.4688274 8.73272852,12.6364673 8.58723047,12.9895536 C8.44173242,13.3426399 8.60852734,13.7473929 8.95983398,13.893628 L10.3195293,14.4596548 C10.4057266,14.4955446 10.4949531,14.5125208 10.5827109,14.5125208 C10.8528691,14.5125208 11.1092578,14.3516161 11.2190469,14.0851637 C11.3645449,13.7320774 11.19775,13.3273244 10.8464434,13.1810893 Z" id="Path"></path>
                    <path d="M10.7275664,4.45394345 C9.71064062,4.45394345 8.72868945,4.7945744 7.9195918,5.42094048 C7.55102734,5.30496726 7.17117187,5.24628869 6.7855332,5.24628869 C4.66695312,5.24628869 2.943375,6.97859821 2.943375,9.10791071 C2.943375,9.49005952 3.25162891,9.799875 3.63185156,9.799875 L14.6696914,9.799875 C15.0499141,9.799875 15.358168,9.49005952 15.358168,9.10791071 C15.358168,6.5417381 13.2808965,4.45394345 10.7275664,4.45394345 Z M4.41818359,8.41585417 C4.71679883,7.38538095 5.66506055,6.63021726 6.7855332,6.63021726 C7.12472266,6.63021726 7.45849609,6.70199702 7.77758203,6.84361905 C8.02901367,6.95516369 8.32230469,6.90580357 8.52379883,6.71795833 C9.1327793,6.1503631 9.91553125,5.83777976 10.7276582,5.83777976 C12.285543,5.83777976 13.5911699,6.944 13.9080527,8.41585417 L4.41818359,8.41585417 Z" id="Shape"></path>
                    <path d="M35.0634688,16.0758988 C34.6778301,16.0758988 34.2979746,16.1344851 33.9294102,16.2505506 C33.1203125,15.6241845 32.1382695,15.2835536 31.1214355,15.2835536 C28.5681055,15.2835536 26.490834,17.3713482 26.490834,19.9375208 C26.490834,20.3196696 26.7990879,20.6294851 27.1793105,20.6294851 L38.2171504,20.6294851 C38.597373,20.6294851 38.905627,20.3196696 38.905627,19.9375208 C38.905627,17.8082083 37.1820488,16.0758988 35.0634688,16.0758988 Z M27.941041,19.2455565 C28.257832,17.7737024 29.5635508,16.6674821 31.1214355,16.6674821 C31.9335625,16.6674821 32.7162227,16.9800655 33.3252949,17.5476607 C33.5268809,17.7354137 33.8199883,17.7846815 34.0714199,17.6732292 C34.3905059,17.5316071 34.7242793,17.4598274 35.0634688,17.4598274 C36.1839414,17.4598274 37.1322031,18.2149911 37.4309102,19.2455565 L27.941041,19.2455565 L27.941041,19.2455565 Z" id="Shape"></path>
                </g>
            </g>
        </g>
    </g>
</svg>