<?xml version="1.0" encoding="UTF-8"?>
<svg width="16px" height="16px" viewBox="0 0 16 16" version="1.1" xmlns="http://www.w3.org/2000/svg" xmlns:xlink="http://www.w3.org/1999/xlink">
    <title>114-calendar</title>
    <defs>
        <filter id="filter-1">
            <feColorMatrix in="SourceGraphic" type="matrix" values="0 0 0 0 0.984314 0 0 0 0 0.737255 0 0 0 0 0.262745 0 0 0 1.000000 0"></feColorMatrix>
        </filter>
    </defs>
    <g id="2.-V0.8" stroke="none" stroke-width="1" fill="none" fill-rule="evenodd">
        <g id="4,0-Event-Single" transform="translate(-1088.000000, -1302.000000)">
            <g id="Group-2-Copy-2" transform="translate(1034.000000, 1080.000000)">
                <g id="Newsletter" transform="translate(32.000000, 128.000000)">
                    <g id="114-calendar" transform="translate(0.000000, 82.000000)" filter="url(#filter-1)">
                        <g transform="translate(22.000000, 12.000000)">
                            <path d="M14.2929678,1.50396955 L0.945127633,1.50396955 C0.426819054,1.50396955 0.00515047627,1.92563812 0.00515047627,2.4439467 L0.00515047627,14.6638021 C0.00515047627,15.1821412 0.426819054,15.6038098 0.945127633,15.6038098 L14.2929678,15.6038098 C14.8112764,15.6038098 15.232945,15.1821412 15.232945,14.6638326 L15.232945,2.44397718 C15.232945,1.9256686 14.8112764,1.50396955 14.2929678,1.50396955 Z M14.1049907,14.475825 L1.13313525,14.475825 L1.13313525,2.63195432 L14.1049907,2.63195432 L14.1049907,14.475825 L14.1049907,14.475825 Z" id="Shape" fill="#242655" fill-rule="nonzero"></path>
                            <polygon id="Path" fill="#242655" fill-rule="nonzero" points="0.569142866 5.26393913 14.6689831 5.26393913 14.6689831 6.3919239 0.569142866 6.3919239"></polygon>
                            <path d="M3.9530972,0 C3.64160005,0 3.38910481,0.252495242 3.38910481,0.563992389 L3.38910481,3.57196196 C3.38910481,3.88345911 3.64160005,4.13595435 3.9530972,4.13595435 C4.26459435,4.13595435 4.51708959,3.88345911 4.51708959,3.57196196 L4.51708959,0.563992389 C4.51708959,0.252495242 4.26459435,0 3.9530972,0 Z" id="Path" fill="#242655" fill-rule="nonzero"></path>
                            <path d="M11.4730059,0 C11.1615087,0 10.9090135,0.252495242 10.9090135,0.563992389 L10.9090135,3.57196196 C10.9090135,3.88345911 11.1615087,4.13595435 11.4730059,4.13595435 C11.784503,4.13595435 12.0369983,3.88345911 12.0369983,3.57196196 L12.0369983,0.563992389 C12.0369983,0.252495242 11.784503,0 11.4730059,0 Z" id="Path" fill="#242655" fill-rule="nonzero"></path>
                            <path d="M9.78102872,11.2798478 L5.64507437,11.2798478 C5.33357722,11.2798478 5.08108198,11.532343 5.08108198,11.8438402 C5.08108198,12.1553373 5.33357722,12.4078326 5.64507437,12.4078326 L9.78102872,12.4078326 C10.0925259,12.4078326 10.3450211,12.1553373 10.3450211,11.8438402 C10.3450211,11.532343 10.0925259,11.2798478 9.78102872,11.2798478 L9.78102872,11.2798478 Z" id="Path" fill="#242655" fill-rule="nonzero"></path>
                            <path d="M9.78102872,8.64789346 L5.64507437,8.64789346 C5.33357722,8.64789346 5.08108198,8.9003887 5.08108198,9.21188585 C5.08108198,9.523383 5.33357722,9.77587824 5.64507437,9.77587824 L9.78102872,9.77587824 C10.0925259,9.77587824 10.3450211,9.52341348 10.3450211,9.21188585 C10.3450211,8.90035823 10.0925259,8.64789346 9.78102872,8.64789346 L9.78102872,8.64789346 Z" id="Path" fill="#242655" fill-rule="nonzero"></path>
                        </g>
                    </g>
                </g>
            </g>
        </g>
    </g>
</svg>