<?xml version="1.0" encoding="UTF-8"?>
<svg width="60px" height="60px" viewBox="0 0 60 60" version="1.1" xmlns="http://www.w3.org/2000/svg" xmlns:xlink="http://www.w3.org/1999/xlink">
    <title>carnival-mask</title>
    <g id="Page-1" stroke="none" stroke-width="1" fill="none" fill-rule="evenodd">
        <g id="carnival-mask" fill="#FFFFFF" fill-rule="nonzero">
            <path d="M59.1321094,28.3794141 C58.6202344,28.2418359 58.0795312,28.4651953 57.8139844,28.9239844 C56.4325781,31.3100391 53.8616016,32.7923437 51.1044141,32.7923437 L39.3922266,32.7923437 C41.0605078,31.9023047 42.6120703,30.7533984 43.989375,29.3759766 C47.6845312,25.6808203 49.7047266,20.7588281 49.5321094,15.871875 C49.5104297,15.2572266 49.0169531,14.7638672 48.4023047,14.7421875 C44.5314844,14.6048438 40.6433203,15.8435156 37.3577344,18.1980469 C37.4129297,17.5420312 37.4412891,16.8796875 37.4412891,16.2125391 C37.4412891,10.0420312 35.0201953,4.24734375 30.7986328,0.314414062 C30.3486328,-0.104882813 29.6510156,-0.104882813 29.2010156,0.314414062 C24.9796875,4.24746094 22.5585937,10.0421484 22.5585937,16.2126563 C22.5585937,16.8796875 22.5869531,17.5421484 22.6421484,18.1983984 C19.3560937,15.8438672 15.4669922,14.6051953 11.5975781,14.7423047 C10.9829297,14.7641016 10.4895703,15.2573437 10.4677734,15.8719922 C10.2950391,20.7589453 12.3153516,25.6809375 16.0105078,29.3760937 C17.3889844,30.7544531 18.9406641,31.9027734 20.6085937,32.7924609 L8.89558594,32.7924609 C6.13839844,32.7924609 3.56742187,31.3101563 2.18601562,28.9241016 C1.92035156,28.4653125 1.3790625,28.2418359 0.867890625,28.3795313 C0.355898437,28.5169922 -6.66133815e-15,28.9810547 -6.66133815e-15,29.5112109 L-6.66133815e-15,41.8490625 C-6.66133815e-15,51.8575781 8.14242187,60 18.1509375,60 C20.9459766,60 23.6384766,59.2417969 26.0034375,57.7975781 L26.3508984,58.231875 C27.2425781,59.3465625 28.5726562,59.9858203 30.0001172,59.9858203 C31.4275781,59.9858203 32.7575391,59.3464453 33.6493359,58.231875 L33.9967969,57.7975781 C36.3615234,59.2417969 39.0541406,60 41.8490625,60 C44.4114844,60 46.8890625,59.4764063 49.2127734,58.44375 C49.8042187,58.1808984 50.0705859,57.4884375 49.8078516,56.8969922 C49.5452344,56.3056641 48.8525391,56.0391797 48.2610937,56.3020313 C46.2389062,57.200625 44.0816016,57.65625 41.8490625,57.65625 C39.1730859,57.65625 36.6082031,56.8333594 34.4316797,55.2767578 C33.9253125,54.9146484 33.2239453,55.0116797 32.8348828,55.4978906 L31.8189844,56.7677344 C31.3744922,57.3234375 30.7114453,57.6420703 30,57.6420703 C29.2885547,57.6420703 28.6253906,57.3234375 28.1808984,56.7677344 L27.165,55.4978906 C26.7759375,55.0116797 26.0746875,54.9144141 25.5682031,55.2767578 C23.3916797,56.8333594 20.8269141,57.65625 18.1509375,57.65625 C9.43488281,57.65625 2.34375,50.5652344 2.34375,41.8490625 L2.34375,32.7173437 C4.14667969,34.2521484 6.46558594,35.1362109 8.89558594,35.1362109 L21.7196484,35.1362109 C24.8014453,35.1362109 27.6349219,36.9406641 28.9381641,39.7333594 C29.1307031,40.1459766 29.5448437,40.4096484 30,40.4096484 C30.4551562,40.4096484 30.8694141,40.1458594 31.0618359,39.7333594 C32.3650781,36.9406641 35.1985547,35.1362109 38.2803516,35.1362109 L51.1044141,35.1362109 C53.5344141,35.1362109 55.8533203,34.2521484 57.65625,32.7173437 L57.65625,41.8490625 C57.65625,44.6615625 56.9087109,47.4227344 55.494375,49.8341016 C55.1669531,50.3923828 55.3541016,51.1103906 55.9122656,51.4378125 C56.4705469,51.765 57.1885547,51.5780859 57.5160937,51.0198047 C59.1410156,48.2492578 60,45.0780469 60,41.8490625 L60,29.5112109 C60,28.9810547 59.6441016,28.5169922 59.1321094,28.3794141 Z M25.1029687,13.3130859 L28.828125,17.0382422 L28.828125,25.9037109 C28.4098828,26.0330859 28.0191797,26.2325391 27.6684375,26.4941016 C25.8569531,23.4571875 24.9023438,19.9178906 24.9023438,16.2127734 C24.9023438,15.2325 24.9706641,14.2635938 25.1029687,13.3130859 L25.1029687,13.3130859 Z M33.3908203,32.3878125 C33.6021094,32.8550391 33.5762109,33.3778125 33.3198047,33.8218359 C33.0633984,34.2658594 32.6237109,34.5496875 32.1134766,34.6003125 C31.7784375,34.6335937 31.4738672,34.8094922 31.2774609,35.0830078 C30.9783984,35.4996094 30.5128125,35.7384375 30,35.7384375 C29.4871875,35.7384375 29.0214844,35.4994922 28.7225391,35.0830078 C28.5261328,34.8094922 28.2216797,34.6335937 27.8865234,34.6003125 C27.3762891,34.5495703 26.9366016,34.2658594 26.6801953,33.8218359 C26.4237891,33.3776953 26.3978906,32.8550391 26.6091797,32.3876953 C26.7479297,32.0807812 26.7479297,31.7291016 26.6091797,31.4223047 C26.3978906,30.9550781 26.4237891,30.4323047 26.6801953,29.9882813 C26.9366016,29.5441406 27.3761719,29.2604297 27.8864062,29.2098047 C28.2215625,29.1765234 28.5261328,29.000625 28.7225391,28.7269922 C29.0217187,28.3103906 29.4871875,28.0715625 30,28.0715625 C30.5128125,28.0715625 30.9783984,28.3105078 31.2774609,28.7269922 C31.4738672,29.000625 31.7783203,29.1764063 32.1135937,29.2098047 C32.6237109,29.2605469 33.0633984,29.5442578 33.3198047,29.9882813 C33.5763281,30.4324219 33.6021094,30.9550781 33.3908203,31.4224219 C33.2521875,31.7292188 33.2521875,32.0808984 33.3908203,32.3878125 L33.3908203,32.3878125 Z M32.330625,26.4931641 C31.9801172,26.2319531 31.5897656,26.0328516 31.171875,25.9035937 L31.171875,20.7588281 L35.0866406,16.8439453 C34.9845703,20.3224219 34.0391016,23.6299219 32.330625,26.4931641 L32.330625,26.4931641 Z M47.184375,17.0900391 C47.0119922,20.9508984 45.2803125,24.7707422 42.3321094,27.7188281 C40.4371875,29.6138672 38.1738281,31.0167187 35.7326953,31.8193359 C36.0160547,30.8119922 35.8859766,29.7452344 35.3496094,28.8162891 C35.0886328,28.3642969 34.7507812,27.9800391 34.3564453,27.6738281 C35.4536719,25.8304688 36.2685937,23.8259766 36.7844531,21.7182422 C39.7000781,18.9065625 43.4221875,17.2577344 47.184375,17.0900391 L47.184375,17.0900391 Z M30,2.82445312 C32.7077344,5.70234375 34.4390625,9.52148437 34.9433203,13.6728516 L31.171875,17.4441797 L31.171875,10.6054687 C31.171875,9.95824219 30.6471094,9.43359375 30,9.43359375 C29.3527734,9.43359375 28.828125,9.95824219 28.828125,10.6054687 L28.828125,13.7235937 L25.6770703,10.5726562 C26.5072266,7.63535156 27.9826172,4.96863281 30,2.82445312 Z M12.815625,17.0900391 C16.5778125,17.2579687 20.300625,18.9071484 23.21625,21.7190625 C23.7321094,23.8262109 24.5463281,25.8314063 25.6428516,27.6745313 C25.2488672,27.9807422 24.9111328,28.3647656 24.6503906,28.8165234 C24.1142578,29.7451172 23.9840625,30.8114063 24.2670703,31.8183984 C21.8262891,31.0160156 19.5643359,29.6152734 17.6680078,27.7189453 C14.7196875,24.7707422 12.9880078,20.9508984 12.815625,17.0900391 L12.815625,17.0900391 Z" id="XMLID_1132_"></path>
            <path d="M22.3648828,42.1146094 C20.1869531,40.6071094 17.6309766,39.8103516 14.9730469,39.8103516 C12.2724609,39.8103516 9.68226563,40.6311328 7.48230469,42.1839844 C7.04039063,42.4960547 6.86941406,43.0700391 7.06863281,43.5730078 C8.01773438,45.9690234 9.64335938,48.0134766 11.7698438,49.4853516 C13.9477734,50.9928516 16.50375,51.7896094 19.1616797,51.7896094 C21.8623828,51.7896094 24.4525781,50.9688281 26.6524219,49.4158594 C27.0943359,49.1039063 27.2653125,48.5299219 27.0660938,48.0269531 C26.1169922,45.6309375 24.4913672,43.5864844 22.3648828,42.1146094 L22.3648828,42.1146094 Z M19.1616797,49.4458594 C15.0815625,49.4458594 11.4397266,47.1738281 9.63832031,43.5828516 C11.2544531,42.6454687 13.0804688,42.1541016 14.9729297,42.1541016 C19.0530469,42.1541016 22.695,44.4261328 24.4962891,48.0171094 C22.8802734,48.954375 21.0541406,49.4458594 19.1616797,49.4458594 L19.1616797,49.4458594 Z" id="XMLID_1369_"></path>
            <path d="M52.5176953,42.1839844 C50.3178516,40.6311328 47.7275391,39.8103516 45.0269531,39.8103516 C42.3690234,39.8103516 39.8130469,40.6071094 37.6351172,42.1146094 C35.5086328,43.5864844 33.8830078,45.6309375 32.9339062,48.0269531 C32.7346875,48.5299219 32.9056641,49.1039063 33.3475781,49.4158594 C35.5473047,50.9687109 38.1376172,51.7896094 40.8383203,51.7896094 C43.49625,51.7896094 46.0522266,50.9928516 48.2301562,49.4853516 C50.3566406,48.0134766 51.9822656,45.9690234 52.9313672,43.5730078 C53.1307031,43.0699219 52.9597266,42.4959375 52.5176953,42.1839844 L52.5176953,42.1839844 Z M40.8383203,49.4458594 C38.9458594,49.4458594 37.1197266,48.954375 35.5037109,48.0171094 C37.305,44.4261328 40.9468359,42.1541016 45.0270703,42.1541016 C46.9195313,42.1541016 48.7455469,42.6454687 50.3616797,43.5828516 C48.5603906,47.1738281 44.9185547,49.4458594 40.8383203,49.4458594 Z" id="XMLID_1386_"></path>
            <path d="M53.1644531,53.3355469 C52.85625,53.3355469 52.5539063,53.4597656 52.3359375,53.6789062 C52.1180859,53.896875 51.9925781,54.1992188 51.9925781,54.5074219 C51.9925781,54.815625 52.1179688,55.1179687 52.3359375,55.3359375 C52.5539063,55.5539062 52.85625,55.6792969 53.1644531,55.6792969 C53.4726562,55.6792969 53.775,55.5539062 53.9929688,55.3359375 C54.2108203,55.1179687 54.3363281,54.815625 54.3363281,54.5074219 C54.3363281,54.1992188 54.2109375,53.896875 53.9929688,53.6789062 C53.775,53.4597656 53.4726562,53.3355469 53.1644531,53.3355469 Z" id="XMLID_1387_"></path>
        </g>
    </g>
</svg>