<?xml version="1.0" encoding="UTF-8"?>
<svg width="418px" height="512px" viewBox="0 0 418 512" version="1.1" xmlns="http://www.w3.org/2000/svg" xmlns:xlink="http://www.w3.org/1999/xlink">
    <title>rope</title>
    <g id="Page-1" stroke="none" stroke-width="1" fill="none" fill-rule="evenodd">
        <g id="rope" transform="translate(0.186534, 0.000000)" fill="#FFFFFF" fill-rule="nonzero">
            <path d="M114.972501,333.31865 C116.830847,402.071439 173.648454,443.985129 214.244937,399.219163 C229.093636,382.804273 237.707688,358.939934 238.400427,333.31865 L191.745996,333.31865 L191.745996,360.425808 C191.745996,368.73867 184.999325,375.48534 176.686464,375.48534 C168.373602,375.48534 161.626931,368.73867 161.626931,360.425808 L161.626931,333.31865 L114.972501,333.31865 Z" id="Path"></path>
            <path d="M330.7003,333.374873 L268.529531,333.317646 C267.170157,390.699484 231.299355,447.770091 176.686464,447.770091 C121.842659,447.770091 86.1947386,390.359138 84.8433966,333.317646 L22.6927071,333.220261 C16.1458265,382.361523 30.8318823,426.097416 59.5433824,458.884026 C121.459143,529.609613 231.747125,529.800367 293.829545,458.884026 C322.450688,426.201829 337.238145,382.443848 330.7003,333.374873 Z" id="Path"></path>
            <path d="M238.390387,178.707453 C236.35233,109.654478 179.549783,68.2327325 139.12799,112.80694 C124.279292,129.22183 115.665239,153.086169 114.972501,178.707453 L161.626931,178.707453 L161.626931,143.568544 C161.626931,135.255683 168.373602,128.509012 176.686464,128.509012 C184.999325,128.509012 191.745996,135.255683 191.745996,143.568544 L191.745996,178.707453 L238.390387,178.707453 Z" id="Path"></path>
            <path d="M22.6856793,178.746608 L84.8433966,178.706449 C86.2027703,121.324611 122.073572,64.2540041 176.686464,64.2540041 C232.16578,64.2540041 267.235415,122.28541 268.519491,178.706449 L330.68524,178.762671 C337.786312,125.465983 320.202802,79.3024927 287.203351,46.0319701 C222.774656,-18.9920781 118.127975,-13.7804759 59.5433824,53.1400693 C31.3047516,85.3865437 16.0564732,128.991921 22.6856793,178.746608 Z" id="Path"></path>
            <path d="M401.575478,273.080521 L352.381006,273.080521 C352.381006,266.29068 352.381006,229.536386 352.381006,223.88605 C352.381006,215.569172 345.638352,208.826517 337.321474,208.826517 C335.951057,208.826517 22.2559807,208.826517 16.0514534,208.826517 C7.73457574,208.826517 0.991921188,215.569172 0.991921188,223.88605 L0.991921188,288.140054 C0.991921188,296.456931 7.73457574,303.199586 16.0514534,303.199586 L386.515946,303.199586 L386.515946,488.933816 C386.515946,497.250694 393.2586,503.993349 401.575478,503.993349 C409.892356,503.993349 416.63501,497.250694 416.63501,488.933816 C416.63501,463.450076 416.63501,311.600797 416.63501,288.140054 C416.63501,279.822172 409.892356,273.080521 401.575478,273.080521 Z" id="Path"></path>
        </g>
    </g>
</svg>