<?xml version="1.0" encoding="UTF-8"?>
<svg width="30px" height="22px" viewBox="0 0 30 22" version="1.1" xmlns="http://www.w3.org/2000/svg" xmlns:xlink="http://www.w3.org/1999/xlink">
    <title>Icon/Football</title>
    <g id="1.-Homepage" stroke="none" stroke-width="1" fill="none" fill-rule="evenodd">
        <g id="1,4-HP" transform="translate(-602.000000, -2931.000000)" fill="#FFFFFF" fill-rule="nonzero">
            <g id="02-Sports" transform="translate(47.000000, 2512.000000)">
                <g id="All/Sports" transform="translate(81.000000, 142.000000)">
                    <g id="Card/Play-Copy" transform="translate(439.000000, 0.000000)">
                        <g id="Icon/Activites" transform="translate(20.000000, 258.000000)">
                            <g id="Group" transform="translate(15.733333, 15.733333)">
                                <g id="bicycle" transform="translate(0.000000, 3.933333)">
                                    <path d="M22.51764,8.45368786 C21.8316805,8.45368786 21.1724554,8.5697596 20.5580103,8.78268776 C19.6718772,6.4753998 18.9765606,3.67502972 19.2806642,0.973521126 C19.3072871,0.737200391 19.2318739,0.500712565 19.0733614,0.323374544 C18.9148488,0.146036523 18.688275,0.0446686849 18.4504504,0.0446686849 L15.6628349,0.0446686849 C15.2014441,0.0446686849 14.8273856,0.418727148 14.8273856,0.880117904 C14.8273856,1.34150866 15.2014441,1.71556712 15.6628349,1.71556712 L16.0847924,1.71556712 L17.2176616,1.71556712 L16.7676886,3.06776953 L14.5572571,9.71048197 L9.66865381,9.71048197 C9.64314476,9.69070967 9.61758001,9.67088167 9.59173678,9.65149925 L8.1337665,6.51021019 C8.45496888,6.39380426 8.6849402,6.08686022 8.6849402,5.72544489 C8.6849402,5.26405413 8.31088174,4.88999567 7.84949098,4.88999567 L4.68614606,4.88999567 C4.22475531,4.88999567 3.85069684,5.26405413 3.85069684,5.72544489 C3.85069684,6.18683564 4.22475531,6.56089411 4.68614606,6.56089411 L6.31527204,6.56089411 L7.25543089,8.58652428 C6.85012663,8.49980465 6.42989567,8.45374355 5.99902666,8.45374355 C2.69114902,8.45368786 0,11.1448369 0,14.4527145 C0,17.7605922 2.69114902,20.4516855 5.99902666,20.4516855 C9.02340853,20.4516855 11.5317613,18.2019321 11.9395719,15.2881637 L13.8597684,15.2881637 C14.2195128,15.2881637 14.5388772,15.0578582 14.6524983,14.7164937 L17.8069317,5.23687419 C18.0548374,6.61776035 18.4724506,8.05902165 19.0589916,9.55375169 C17.5231575,10.6412281 16.5186133,12.4318186 16.5186133,14.4527145 C16.5186133,17.7605922 19.2097624,20.4516855 22.5175843,20.4516855 C25.8255176,20.4516855 28.5166667,17.7605922 28.5166667,14.4527145 C28.5166667,11.1448369 25.8255176,8.45368786 22.51764,8.45368786 Z M5.99902666,15.2881637 L10.2454479,15.2881637 C9.85501468,17.2761987 8.09973587,18.780787 5.99902666,18.780787 C3.61248242,18.780787 1.67089844,16.8392588 1.67089844,14.4527145 C1.67089844,12.0661703 3.61248242,10.1245863 5.99902666,10.1245863 C8.09973587,10.1245863 9.85495898,11.6292303 10.2454479,13.6172653 L5.99902666,13.6172653 C5.5376359,13.6172653 5.16357744,13.9913238 5.16357744,14.4527145 C5.16357744,14.9141053 5.5376359,15.2881637 5.99902666,15.2881637 Z M13.2572981,13.6172653 L11.9395719,13.6172653 C11.8265634,12.8096644 11.5522576,12.0531373 11.1501838,11.3813247 L14.0012935,11.3813247 L13.2572981,13.6172653 Z M22.51764,18.7808427 C20.1310958,18.7808427 18.1895675,16.8392588 18.1895675,14.4527145 C18.1895675,13.1245174 18.7914251,11.9347263 19.7361511,11.1401584 C20.7709942,13.3832281 21.7835586,14.8599125 21.8300653,14.9273054 C21.9921424,15.1621223 22.2528583,15.288108 22.5180856,15.288108 C22.6816665,15.288108 22.8468627,15.240209 22.9916739,15.1403449 C23.3714134,14.8785151 23.4669888,14.3583645 23.2054375,13.9785135 C23.18405,13.9474348 22.1958807,12.4940317 21.2075442,10.3278232 C21.6210359,10.1962121 22.0610949,10.124642 22.51764,10.124642 C24.9041842,10.124642 26.8457682,12.066226 26.8457682,14.4527702 C26.8457682,16.8393145 24.9041842,18.7808427 22.51764,18.7808427 Z" id="Shape"></path>
                                </g>
                            </g>
                        </g>
                    </g>
                </g>
            </g>
        </g>
    </g>
</svg>