<?xml version="1.0" encoding="UTF-8"?>
<svg width="24px" height="24px" viewBox="0 0 24 24" version="1.1" xmlns="http://www.w3.org/2000/svg" xmlns:xlink="http://www.w3.org/1999/xlink">
    <title>Group 5</title>
    <g id="Symbols" stroke="none" stroke-width="1" fill="none" fill-rule="evenodd">
        <g id="Group-5">
            <circle id="Oval" fill="#212237" cx="12" cy="12" r="12"></circle>
            <g id="telescope" transform="translate(4.000000, 4.000000)" fill="#FFFFFF" fill-rule="nonzero">
                <path d="M15.1554306,5.54952022 L13.7577905,0.333510013 C13.7269205,0.218220009 13.6515005,0.119940005 13.5481205,0.0602700024 C13.4448005,0.000600000024 13.3219505,-0.0155700006 13.2066605,0.0153000006 L10.8884404,0.636480025 C10.6483804,0.700800028 10.5059404,0.947550038 10.5702604,1.18761005 L10.6090804,1.33248005 L4.08906016,3.07950012 C3.68535015,3.18768013 3.39987014,3.51849014 3.32853013,3.90447016 L2.5057201,4.12494016 C2.23482009,4.19751017 2.00838008,4.37127017 1.86816007,4.61418018 C1.80705007,4.72002019 1.76553007,4.83345019 1.74411007,4.9502102 L0.342810014,5.32569021 C0.102750004,5.39001021 -0.0396900016,5.63676022 0.024630001,5.87682023 L0.490500019,7.6155003 C0.521370021,7.73079031 0.596790024,7.82907031 0.700170028,7.88874031 C0.769170031,7.92858032 0.846870034,7.94904032 0.925170037,7.94904032 C0.964140038,7.94904032 1.00332004,7.94397032 1.04163004,7.93371032 L2.4438001,7.5579903 C2.6413801,7.78956031 2.93391012,7.92798032 3.24366013,7.92798032 C3.33336013,7.92798032 3.42450014,7.91637031 3.51516014,7.89210031 L4.33761017,7.6717203 C4.41447018,7.76202031 4.50660018,7.83984031 4.61235018,7.90089031 C4.77414019,7.99431032 4.9536602,8.04201032 5.1356402,8.04201032 C5.22684021,8.04201032 5.31867021,8.03001032 5.40912021,8.00577032 L6.28917025,7.76997031 C6.35199025,7.99674032 6.47235026,8.19981033 6.63387026,8.36202033 L3.58437014,14.7151806 C3.47682014,14.9392206 3.57126014,15.2080506 3.79533015,15.3156006 C3.85812015,15.3457506 3.92442016,15.3600306 3.98973016,15.3600306 C4.15737017,15.3600306 4.31835017,15.2658606 4.39575017,15.1046106 L7.14000028,9.38727037 L7.14000028,14.9100006 C7.14000028,15.1585206 7.34148029,15.3600306 7.5900003,15.3600306 C7.83852031,15.3600306 8.04000032,15.1585206 8.04000032,14.9100006 L8.04000032,9.38730037 L10.7843104,15.1046406 C10.8617104,15.2658906 11.0226604,15.3600306 11.1903304,15.3600306 C11.2556104,15.3600306 11.3219404,15.3457506 11.3847305,15.3156306 C11.6088005,15.2080806 11.7032405,14.9392806 11.5956905,14.7152106 L8.54619034,8.36205033 C8.78940035,8.11773032 8.94000036,7.78113031 8.94000036,7.41000029 C8.94000036,7.29303029 8.92500035,7.17951029 8.89692035,7.07121028 L11.9290505,6.25875025 L11.9678705,6.40365025 C11.9987405,6.51894026 12.0741605,6.61722026 12.1775405,6.67689027 C12.2465405,6.71673027 12.3242405,6.73719027 12.4025405,6.73719027 C12.4415105,6.73719027 12.4806905,6.73212027 12.5190005,6.72186027 L14.8372206,6.10068024 C15.0772806,6.03633024 15.2197506,5.78958023 15.1554306,5.54952022 Z M1.24329005,6.94788028 L1.01037004,6.07854024 L1.87971007,5.84559023 L1.99617008,6.28026025 L2.11263008,6.71493027 L1.24329005,6.94788028 Z M3.28218013,7.02276028 C3.20229013,7.04415028 3.11985012,6.99657028 3.09843012,6.91668027 L2.6325601,5.17803021 C2.6185801,5.1258002 2.6359501,5.0842802 2.64756011,5.0642102 C2.65917011,5.0441402 2.68641011,5.0083202 2.73864011,4.9943102 L3.46308014,4.80021019 L4.00659016,6.82866027 L3.28218013,7.02276028 Z M8.04000032,7.41000029 C8.04000032,7.6581303 7.83813031,7.86000031 7.5900003,7.86000031 C7.34187029,7.86000031 7.14000028,7.6581303 7.14000028,7.41000029 C7.14000028,7.16187028 7.34187029,6.96000028 7.5900003,6.96000028 C7.83813031,6.96000028 8.04000032,7.16187028 8.04000032,7.41000029 Z M11.6961305,5.38941021 L8.34063033,6.28851025 C8.12583032,6.14430024 7.86759031,6.06000024 7.5900003,6.06000024 C7.05942028,6.06000024 6.59955026,6.36780025 6.37902025,6.81411027 L5.17611021,7.13643028 C5.1238802,7.15038028 5.0823902,7.13307028 5.0622902,7.12143028 C5.0421902,7.10982028 5.0064002,7.08258028 4.9923902,7.03035028 L4.21593017,4.13259016 C4.19454017,4.05270016 4.24212017,3.97029016 4.32201017,3.94887016 L10.8420004,2.20185009 L11.6961305,5.38941021 Z M12.7207205,5.73603023 L11.5560605,1.38936006 L13.0049405,1.00113004 L14.1696306,5.34780021 L12.7207205,5.73603023 Z" id="Shape"></path>
            </g>
        </g>
    </g>
</svg>