<?xml version="1.0" encoding="UTF-8"?>
<svg width="24px" height="24px" viewBox="0 0 24 24" version="1.1" xmlns="http://www.w3.org/2000/svg" xmlns:xlink="http://www.w3.org/1999/xlink">
    <title>Group 5</title>
    <g id="Symbols" stroke="none" stroke-width="1" fill="none" fill-rule="evenodd">
        <g id="Group-5">
            <circle id="Oval" fill="#DA7112" cx="12" cy="12" r="12"></circle>
            <g id="cutlery" transform="translate(6.000000, 4.000000)" fill="#FFFFFF" fill-rule="nonzero">
                <path d="M5.4783,0.04755 C5.35158,-0.01584 5.20242,-0.01584 5.0757,0.04755 C4.77006,0.20043 4.51167,0.41643 4.31301,0.67542 C4.11435,0.41643 3.85599,0.20043 3.55032,0.04755 C3.42357,-0.01584 3.27444,-0.01584 3.14769,0.04755 C2.84205,0.20043 2.58366,0.41643 2.385,0.67542 C2.18634,0.41643 1.92798,0.20043 1.62231,0.04755 C1.49556,-0.01584 1.34643,-0.01584 1.21968,0.04755 C0.47169,0.42171 0.00699,1.17357 0.00699,2.00973 L0.00699,5.27001 C0.00699,6.42741 0.8382,7.39437 1.935,7.6053 L1.935,13.94598 C1.935,14.72565 2.56932,15.36 3.34899,15.36 C4.12866,15.36 4.76298,14.72565 4.76298,13.94598 L4.76298,7.6053 C5.85978,7.39437 6.69099,6.42741 6.69099,5.27001 L6.69099,2.00973 C6.69099,1.17354 6.22632,0.42171 5.4783,0.04755 Z M5.79099,5.27001 C5.79099,6.08499 5.12796,6.74802 4.31298,6.74802 C4.06446,6.74802 3.86298,6.9495 3.86298,7.19802 L3.86298,13.94601 C3.86298,14.22942 3.6324,14.46003 3.34899,14.46003 C3.06558,14.46003 2.835,14.22942 2.835,13.94601 L2.835,7.19802 C2.835,6.9495 2.63352,6.74802 2.385,6.74802 C1.57002,6.74802 0.90699,6.08499 0.90699,5.27001 L0.90699,2.00973 C0.90699,1.59666 1.09926,1.21851 1.42098,0.97686 C1.7427,1.21851 1.93497,1.59666 1.93497,2.00973 L1.93497,3.82401 C1.93497,4.07253 2.13645,4.27401 2.38497,4.27401 C2.63349,4.27401 2.83497,4.07253 2.83497,3.82401 L2.83497,2.00973 C2.83497,1.59666 3.02724,1.21851 3.34896,0.97686 C3.67068,1.21851 3.86295,1.59666 3.86295,2.00973 L3.86295,3.82401 C3.86295,4.07253 4.06443,4.27401 4.31295,4.27401 C4.56147,4.27401 4.76295,4.07253 4.76295,3.82401 L4.76295,2.00973 C4.76295,1.59666 4.95522,1.21851 5.27694,0.97686 C5.59866,1.21851 5.79093,1.59666 5.79093,2.00973 L5.79093,5.27001 L5.79099,5.27001 Z" id="Shape"></path>
                <path d="M8.169,0 C7.92048,0 7.719,0.20148 7.719,0.45 L7.719,13.94598 C7.719,14.72175 8.34603,15.36 9.13299,15.36 C9.92355,15.36 10.54698,14.71788 10.54698,13.94598 L10.54698,11.022 L11.54298,11.022 C11.7915,11.022 11.99298,10.82052 11.99298,10.572 L11.99298,3.8235 C11.99298,1.71192 10.28463,0 8.169,0 L8.169,0 Z M11.09301,10.122 L10.09701,10.122 C9.84849,10.122 9.64701,10.32348 9.64701,10.572 L9.64701,13.94598 C9.64701,14.22675 9.42,14.46 9.13302,14.46 C8.85288,14.46 8.61903,14.23344 8.61903,13.94598 L8.61903,0.93414 C10.0026,1.14639 11.09304,2.3436 11.09304,3.82353 L11.09304,10.122 L11.09301,10.122 Z" id="Shape"></path>
            </g>
        </g>
    </g>
</svg>