<?xml version="1.0" encoding="UTF-8"?>
<svg width="60px" height="61px" viewBox="0 0 60 61" version="1.1" xmlns="http://www.w3.org/2000/svg" xmlns:xlink="http://www.w3.org/1999/xlink">
    <title>electric-guitar</title>
    <g id="1.-Homepage" stroke="none" stroke-width="1" fill="none" fill-rule="evenodd">
        <g id="1,2-HP" transform="translate(-386.000000, -3209.000000)" fill="#904346" fill-rule="nonzero">
            <g id="02-Amphitheatre" transform="translate(47.000000, 2473.000000)">
                <g id="Activities" transform="translate(81.000000, 503.000000)">
                    <g id="electric-guitar" transform="translate(258.000000, 233.000000)">
                        <path d="M27.9039589,42.2788301 C29.0320543,41.1505223 29.0320543,39.314677 27.9037152,38.1861256 L23.0595192,33.3448299 C22.5146568,32.8000456 21.7887826,32.5 21.0155238,32.5 C20.2421432,32.5 19.5161472,32.8000456 18.9711629,33.3450736 C17.8429457,34.4733814 17.8429457,36.3092266 18.9711629,37.4375344 L23.8118265,42.2788301 C24.3759351,42.842984 25.1169139,43.125 25.8578927,43.125 C26.5988715,43.125 27.3398502,42.842984 27.9039589,42.2788301 Z M20.2630947,36.1456207 C20.0632022,35.9457122 19.9532065,35.6778274 19.9532065,35.3914258 C19.9532065,35.1049024 20.0632022,34.8370176 20.2630947,34.637109 C20.4629872,34.4372005 20.7301197,34.3271959 21.0155238,34.3271959 C21.3008061,34.3271959 21.5680603,34.4372005 21.767831,34.637109 C21.767831,34.637109 21.7679529,34.6372308 21.7680747,34.6373527 L26.6120271,39.4784047 C27.0278912,39.8943022 27.0277694,40.5710189 26.6120271,40.9869164 C26.1961629,41.4028139 25.5196224,41.4026921 25.1037582,40.9869164 L20.2630947,36.1456207 Z" id="Shape"></path>
                        <path d="M21.653708,44.436769 L16.8097139,39.5952729 C16.2648468,39.0501949 15.5388446,38.75 14.7654573,38.75 C13.99207,38.75 13.2660678,39.0501949 12.7210789,39.5952729 C11.5929737,40.7236842 11.5929737,42.5596979 12.7210789,43.6881092 L17.561784,48.5298489 C18.1066511,49.0749269 18.8333842,49.375 19.6078678,49.375 C20.3823514,49.375 21.1089627,49.0748051 21.6539516,48.5298489 C22.7820567,47.4014376 22.7820567,45.565424 21.653708,44.436769 L21.653708,44.436769 Z M20.3620087,47.2376949 C20.1622363,47.4376218 19.8943707,47.5476365 19.6079896,47.5476365 C19.3214867,47.5476365 19.0537429,47.4376218 18.8538487,47.2376949 L14.0131436,42.3959552 C13.5972758,41.9800195 13.5973977,41.3032407 14.0131436,40.8873051 C14.2205902,40.6798246 14.4930846,40.5761452 14.7654573,40.5761452 C15.0379517,40.5761452 15.3104462,40.6798246 15.5178928,40.8873051 C15.5178928,40.8873051 15.5180146,40.8874269 15.5180146,40.8875487 L20.3620087,45.7290448 C20.7778764,46.1451023 20.7777546,46.8217593 20.3620087,47.2376949 L20.3620087,47.2376949 Z" id="Shape"></path>
                        <path d="M20.3097526,51.875 C19.7924853,51.875 19.375,52.29475 19.375,52.8125 C19.375,53.33025 19.796107,53.75 20.3133742,53.75 C20.8306414,53.75 21.25,53.33025 21.25,52.8125 C21.25,52.29475 20.8306414,51.875 20.3133742,51.875 L20.3097526,51.875 Z" id="Path"></path>
                        <path d="M24.0597526,50 C23.5424853,50 23.125,50.41975 23.125,50.9375 C23.125,51.45525 23.546107,51.875 24.0633742,51.875 C24.5806414,51.875 25,51.45525 25,50.9375 C25,50.41975 24.5806414,50 24.0633742,50 L24.0597526,50 Z" id="Path"></path>
                        <path d="M59.7904075,0.966535144 C59.5836129,0.705682255 59.2808997,0.578748847 58.8871351,0.584077208 L56.0903027,0.584077208 C55.4908119,0.584077208 55.0182232,0.774122096 54.5991732,1.18665567 L54.3489303,1.4362598 L53.1697734,0.260112839 C52.82195,-0.0867042797 52.2584286,-0.0867042797 51.9106053,0.260112839 C51.5629006,0.606929958 51.5629006,1.16913128 51.9106053,1.5159484 L53.0899996,2.69233218 L51.2235057,4.55489048 L50.0437552,3.37815148 C49.6959319,3.03133437 49.1324105,3.03133437 48.7845871,3.37815148 C48.4368824,3.7249686 48.4368824,4.28716993 48.7845871,4.63398705 L49.9646937,5.81108127 L48.0992682,7.6724555 L46.917381,6.4957165 C46.5692014,6.1491362 46.0055614,6.14972824 45.6582128,6.49690058 C45.3108643,6.84395451 45.3113391,7.40627425 45.6593999,7.75273614 L46.8404562,8.92864628 L45.9951148,9.77218509 L31.9946894,23.7374649 C31.3085395,21.9239275 30.9315132,19.2249349 32.4434171,15.1296748 C32.7764016,14.2252743 33.1206637,13.2899692 32.5141689,12.6699848 C31.9213259,12.0639725 31.0415583,12.3622423 30.1900439,12.6505659 C25.3818902,14.2845967 23.2853343,16.1704814 21.6167317,18.4993305 C21.3308755,18.8983656 21.4233514,19.4529888 21.8234077,19.7381153 C22.2234639,20.0231234 22.7793878,19.9308836 23.0653627,19.5319669 C24.5761983,17.4233567 26.3910528,15.8178623 30.763537,14.3319599 C30.7932148,14.3218952 30.8218242,14.3123042 30.8496025,14.3030683 C30.8264539,14.3686664 30.8008123,14.4397112 30.7724404,14.5166764 C29.2650474,18.5997405 29.2178004,21.9805266 30.6356852,25.0931185 L25.934965,29.781958 C25.634626,30.0778597 25.4685492,30.4733425 25.4672434,30.8955855 C25.4659376,31.3199599 25.6307085,31.7186398 25.9308101,32.0179753 L29.3767545,35.4585574 C29.6857594,35.7667735 30.0916325,35.9208223 30.4973869,35.9208223 C30.9033787,35.9208223 31.309133,35.7667735 31.6182566,35.4585574 L35.2260042,31.8599005 C35.6049299,32.8310832 35.6896896,34.0094799 35.4932228,35.4827126 C35.2965186,36.9655364 35.3903003,38.4736994 37.3910564,39.4594463 C37.9986196,39.7593738 38.8205749,39.8082763 39.6909643,39.8600207 C40.1618911,39.8880834 40.9920375,39.9374595 41.3265652,40.0659322 C41.2580689,40.2563323 41.0196971,40.7164659 40.1912127,41.5973033 C38.8054986,43.0727857 37.2838603,43.5738885 34.3975198,44.1389316 C30.986239,44.8061609 29.8417457,46.865987 29.1133347,48.9920031 C28.7220631,50.1322725 28.1143812,51.8050227 27.4404585,53.3001609 C26.1249026,56.2315885 23.7752548,58.2061608 20.9940922,58.7174466 C20.5226906,58.8041213 20.0504581,58.846985 19.5791752,58.846985 C17.2817602,58.8468666 15.0158036,57.8276103 13.0779644,55.8945992 L5.03600284,47.8729288 C2.56930588,45.4125284 1.4943773,42.8161955 1.84125099,40.1561591 C2.27822638,36.8050935 4.90280904,34.1834213 7.01729031,32.9568325 C8.25805824,32.2376221 9.54678542,31.9796111 10.9110128,31.7064437 C12.5682191,31.3746644 14.2816945,31.031518 15.8840563,29.8218615 C17.9559203,28.2518895 19.32454,25.8313925 20.5319501,23.6960221 C20.6281061,23.5259882 20.7229562,23.3580856 20.8169753,23.1929064 C21.0597394,22.7665191 20.9099261,22.2244471 20.4823289,21.9823027 C20.0547317,21.7401583 19.5112725,21.8895892 19.2686271,22.3160949 C19.173777,22.482695 19.0779771,22.6521369 18.9809902,22.8235918 C17.8583398,24.809176 16.585876,27.0597574 14.808178,28.4067672 C13.5319155,29.3702533 12.0886265,29.6592873 10.5605778,29.9652537 C9.11420235,30.2548797 7.61856179,30.554452 6.1224464,31.421554 C3.54000616,32.9196524 0.595378493,35.9408333 0.0755427933,39.9272764 C-0.214468309,42.1514528 0.192235758,45.5534339 3.77695342,49.1288828 L11.818915,57.1505532 C14.1001853,59.4262371 16.7982501,60.625 19.5633866,60.625 C20.1459018,60.625 20.7316221,60.5717164 21.3167489,60.4642019 C24.6828008,59.8454015 27.5071741,57.4987912 29.0650193,54.0271862 C29.7663642,52.4713047 30.3945831,50.7430211 30.7980819,49.5668741 C31.4759221,47.5887496 32.3382391,46.3516225 34.7403573,45.8817794 C37.9505416,45.253388 39.7795228,44.6336404 41.4902678,42.8120512 C42.4993117,41.7392745 43.470843,40.4918459 43.0249642,39.374903 C42.5771862,38.2527501 41.1638124,38.1686804 39.7969733,38.087334 C39.203418,38.0520484 38.4647979,38.0080007 38.1800101,37.8675687 C37.2693776,37.4188023 37.0883432,36.9965593 37.2583374,35.7165685 C37.5377833,33.6215752 37.3102142,31.9147235 36.5651836,30.5243764 L51.4221093,15.7050194 L54.7671493,15.7050194 L54.7856682,15.7050194 C55.3231919,15.7050194 56.2972161,15.6910473 56.6278264,14.4474077 L57.6473169,10.6144214 C57.773388,10.1403157 57.4903809,9.65413228 57.0150618,9.52838295 C56.5398615,9.40251522 56.0523152,9.68503678 55.9263627,10.1589057 L54.9237292,13.9281885 C54.8719712,13.928899 54.8160583,13.9286622 54.7677429,13.928899 L51.4221093,13.928899 L47.8840451,10.3998661 L51.8353424,6.45699707 C51.8416341,6.45107667 51.848282,6.44586672 51.8544549,6.43982791 C51.8606279,6.43367069 51.8659699,6.42692143 51.8719054,6.4205274 L54.9483024,3.35068082 C54.9589864,3.34097136 54.9701452,3.33209076 54.9804731,3.32178926 C54.9909196,3.31136936 55.0000604,3.300239 55.0097947,3.28934546 L55.8544238,2.44651711 C55.9218517,2.3800902 55.94227,2.36007925 56.0905401,2.36007925 L57.9968022,2.36007925 L56.9630664,6.24871735 C56.8369952,6.7228231 57.1201211,7.20888806 57.5953214,7.33463739 C58.0707592,7.4601499 58.5580681,7.17798356 58.6840205,6.70387781 L59.9328608,2.00674968 C59.9880614,1.79740429 60.103686,1.36166274 59.7904075,0.966535144 L59.7904075,0.966535144 Z M30.4973869,34.0647765 L27.3298198,30.902098 L29.4946346,28.7428092 L32.6637449,31.9039483 L30.4973869,34.0647765 Z M33.9227943,30.6481128 L30.753684,27.4869736 L32.921704,25.3243693 L36.0908142,28.4855085 L33.9227943,30.6481128 Z M37.3498637,27.2296729 L34.1807534,24.0685338 L36.3473488,21.9074688 L39.5176462,25.0673055 L37.3498637,27.2296729 Z M40.7768143,23.8114699 L37.6063982,20.6515149 L39.7741808,18.4891474 L42.943291,21.6502866 L40.7768143,23.8114699 Z M44.2023405,20.3945694 L41.0332302,17.2334303 L43.1995882,15.0726021 L46.3686985,18.2337413 L44.2023405,20.3945694 Z M49.7941059,14.8168408 L47.6277479,16.9777873 L44.4586376,13.8166482 L46.6249956,11.65582 L49.7941059,14.8168408 Z" id="Shape"></path>
                        <path d="M52.182135,8.75 C51.6653497,8.75 51.25,9.16975 51.25,9.6875 C51.25,10.20525 51.6724614,10.625 52.1892467,10.625 C52.7060321,10.625 53.125,10.20525 53.125,9.6875 C53.125,9.16975 52.7061568,8.75 52.1892467,8.75 L52.182135,8.75 Z" id="Path"></path>
                        <path d="M54.0642467,5.625 L54.057135,5.625 C53.5403497,5.625 53.125,6.04475 53.125,6.5625 C53.125,7.08025 53.5474614,7.5 54.0642467,7.5 C54.5810321,7.5 55,7.08025 55,6.5625 C55,6.04475 54.5810321,5.625 54.0642467,5.625 Z" id="Path"></path>
                    </g>
                </g>
            </g>
        </g>
    </g>
</svg>