<?xml version="1.0" encoding="UTF-8"?>
<svg width="24px" height="24px" viewBox="0 0 24 24" version="1.1" xmlns="http://www.w3.org/2000/svg" xmlns:xlink="http://www.w3.org/1999/xlink">
    <title>Group 5</title>
    <g id="Symbols" stroke="none" stroke-width="1" fill="none" fill-rule="evenodd">
        <g id="Group-5">
            <circle id="Oval" fill="#7DB2E1" cx="12" cy="12" r="12"></circle>
            <g id="sun-umbrella" transform="translate(4.000000, 4.000000)" fill="#FFFFFF" fill-rule="nonzero">
                <path d="M15.18654,13.97676 C12.61368,11.97228 9.58845,13.14648 6.60654,13.92399 L5.26293,8.90919 C5.52597,8.91213 5.7921,8.97774 6.03948,9.11202 C6.25503,9.23688 6.52611,9.16116 6.65055,8.95536 C7.07304,8.25675 7.98069,7.89978 8.88633,8.36301 C9.23271,8.54019 9.62487,8.22231 9.52596,7.84779 C8.87478,5.38221 6.45525,3.89298 4.03077,4.31031 L3.81729,3.51348 C3.753,3.27345 3.50631,3.13089 3.26619,3.19527 C3.02613,3.25959 2.88369,3.50634 2.94801,3.74643 L3.16149,4.5432 C0.84276,5.39787 -0.49704,7.90578 0.17235,10.3593 C0.27582,10.73841 0.78687,10.81308 0.99177,10.47327 C1.43289,9.74184 2.37702,9.42501 3.22488,9.87735 C3.43794,9.99042 3.69921,9.91584 3.82167,9.71343 C3.96837,9.47082 4.16667,9.27894 4.39395,9.14337 L5.73213,14.13786 C4.01175,14.52465 2.28294,14.67672 0.63807,13.9227 C0.4122,13.81914 0.14508,13.91835 0.04152,14.14425 C-0.06204,14.37018 0.03714,14.6373 0.26307,14.74086 C5.41968,17.10465 10.83339,11.72604 14.63343,14.68677 C14.82945,14.83947 15.1122,14.8044 15.26496,14.60835 C15.41769,14.41227 15.38259,14.12949 15.18654,13.97676 Z M8.34291,7.26471 C7.69731,7.19595 7.047,7.3764 6.52857,7.76901 C6.23256,6.76338 5.67702,5.85228 4.8846,5.14029 C6.31569,5.15304 7.66875,5.9625 8.34291,7.26471 Z M0.90411,9.25974 C0.83775,7.82688 1.57626,6.42987 2.84094,5.68662 C2.51361,6.68946 2.48187,7.75584 2.73084,8.78583 C2.08392,8.70489 1.42929,8.87505 0.90411,9.25974 L0.90411,9.25974 Z M3.61125,8.59716 C3.35511,7.55997 3.42837,6.48012 3.8814,5.48685 C4.76997,6.12006 5.37396,7.01625 5.67138,8.04456 C4.93779,7.91967 4.18395,8.12184 3.61125,8.59716 Z" id="Shape"></path>
                <path d="M8.55879,4.07865 L9.03729,4.07865 C9.28581,4.07865 9.48726,3.87717 9.48726,3.62865 C9.48726,3.38013 9.28578,3.17865 9.03729,3.17865 L8.55879,3.17865 C8.31027,3.17865 8.10882,3.38013 8.10882,3.62865 C8.10882,3.87717 8.31027,4.07865 8.55879,4.07865 Z" id="Path"></path>
                <path d="M11.73162,5.14077 C12.56535,5.14077 13.24365,4.46241 13.24365,3.62865 C13.24365,2.79486 12.56535,2.1165 11.73162,2.1165 C10.89789,2.1165 10.21959,2.79486 10.21959,3.62865 C10.21959,4.46241 10.89789,5.14077 11.73162,5.14077 Z M11.73162,3.0165 C12.06912,3.0165 12.34368,3.29109 12.34368,3.62862 C12.34368,3.96612 12.06912,4.24074 11.73162,4.24074 C11.39412,4.24074 11.11956,3.96615 11.11956,3.62862 C11.11956,3.29109 11.39412,3.0165 11.73162,3.0165 Z" id="Shape"></path>
                <path d="M11.73162,1.37856 C11.98014,1.37856 12.18159,1.17708 12.18159,0.92856 L12.18159,0.45 C12.18159,0.20148 11.98011,0 11.73162,0 C11.48313,0 11.28165,0.20148 11.28165,0.45 L11.28165,0.92853 C11.28165,1.17708 11.4831,1.37856 11.73162,1.37856 Z" id="Path"></path>
                <path d="M9.50433,2.03757 C9.68001,2.21331 9.96498,2.21334 10.14069,2.03757 C10.31643,1.86183 10.31643,1.57692 10.14069,1.40115 L9.80235,1.06278 C9.62664,0.88701 9.3417,0.88701 9.16599,1.06278 C8.99025,1.23852 8.99025,1.52343 9.16599,1.6992 L9.50433,2.03757 Z" id="Path"></path>
                <path d="M9.50433,5.21967 L9.16599,5.55804 C8.99025,5.73378 8.99025,6.01869 9.16599,6.19446 C9.34167,6.3702 9.62664,6.37023 9.80235,6.19446 L10.14069,5.85609 C10.31643,5.68035 10.31643,5.39544 10.14069,5.21967 C9.96498,5.0439 9.68004,5.0439 9.50433,5.21967 Z" id="Path"></path>
                <path d="M11.28165,6.32871 L11.28165,6.80721 C11.28165,7.05573 11.48313,7.25721 11.73162,7.25721 C11.98011,7.25721 12.18159,7.05573 12.18159,6.80721 L12.18159,6.32871 C12.18159,6.08019 11.98011,5.87871 11.73162,5.87871 C11.48313,5.87871 11.28165,6.08019 11.28165,6.32871 Z" id="Path"></path>
                <path d="M13.32255,5.21967 C13.14681,5.39541 13.14681,5.68032 13.32255,5.85609 L13.66089,6.19446 C13.83657,6.3702 14.12154,6.37023 14.29725,6.19446 C14.47299,6.01872 14.47299,5.73381 14.29725,5.55804 L13.95891,5.21967 C13.7832,5.0439 13.49826,5.0439 13.32255,5.21967 Z" id="Path"></path>
                <path d="M13.98153,3.62862 C13.98153,3.87714 14.18301,4.07862 14.4315,4.07862 L14.91,4.07862 C15.15852,4.07862 15.35997,3.87714 15.35997,3.62862 C15.35997,3.3801 15.15849,3.17862 14.91,3.17862 L14.4315,3.17862 C14.18298,3.17862 13.98153,3.3801 13.98153,3.62862 L13.98153,3.62862 Z" id="Path"></path>
                <path d="M13.95891,2.03757 L14.29725,1.6992 C14.47299,1.52346 14.47299,1.23855 14.29725,1.06278 C14.12154,0.88701 13.8366,0.88701 13.66089,1.06278 L13.32255,1.40115 C13.14681,1.57689 13.14681,1.8618 13.32255,2.03757 C13.49823,2.21331 13.7832,2.21334 13.95891,2.03757 Z" id="Path"></path>
            </g>
        </g>
    </g>
</svg>