<?xml version="1.0" encoding="UTF-8"?>
<svg width="28px" height="28px" viewBox="0 0 28 28" version="1.1" xmlns="http://www.w3.org/2000/svg" xmlns:xlink="http://www.w3.org/1999/xlink">
    <title>external</title>
    <g id="Page-1" stroke="none" stroke-width="1" fill="none" fill-rule="evenodd">
        <g id="external" fill="#FBBC43" fill-rule="nonzero">
            <path d="M26.681559,0.522759162 L18.4912,0.522759162 C17.7774154,0.522759162 17.1988923,1.09230366 17.1988923,1.79501047 C17.1988923,2.49771728 17.7774154,3.06726178 18.4912,3.06726178 L23.561641,3.06726178 L11.1698462,15.2667382 C10.6651282,15.763623 10.6651282,16.5690995 11.1698462,17.0659843 C11.4222769,17.314356 11.7529641,17.4386126 12.0836513,17.4386126 C12.4143385,17.4386126 12.7450256,17.314356 12.9974564,17.0659843 L25.3892513,4.86650785 L25.3892513,9.85839791 C25.3892513,10.5611047 25.9677744,11.1306492 26.681559,11.1306492 C27.3953436,11.1306492 27.9738667,10.5611047 27.9738667,9.85839791 L27.9738667,1.79515183 C27.9738667,1.09230366 27.3953436,0.522759162 26.681559,0.522759162 Z" id="Path"></path>
            <path d="M21.3948718,11.1305079 C20.6810872,11.1305079 20.1025641,11.7000524 20.1025641,12.4027592 L20.1025641,24.9070105 L2.58461538,24.9070105 L2.58461538,7.66093717 L16.0501744,7.66093717 C16.763959,7.66093717 17.3424821,7.09139267 17.3424821,6.38868586 C17.3424821,5.68597906 16.763959,5.11643455 16.0501744,5.11643455 L1.29230769,5.11643455 C0.578523077,5.11643455 0,5.68597906 0,6.38868586 L0,26.1792618 C0,26.8819686 0.578523077,27.4515131 1.29230769,27.4515131 L21.3948718,27.4515131 C22.1086564,27.4515131 22.6871795,26.8819686 22.6871795,26.1792618 L22.6871795,12.4027592 C22.6871795,11.7000524 22.1086564,11.1305079 21.3948718,11.1305079 Z" id="Path"></path>
        </g>
    </g>
</svg>