<?xml version="1.0" encoding="UTF-8"?>
<svg width="416px" height="480px" viewBox="0 0 416 480" version="1.1" xmlns="http://www.w3.org/2000/svg" xmlns:xlink="http://www.w3.org/1999/xlink">
    <title>019-dinner</title>
    <g id="Page-1" stroke="none" stroke-width="1" fill="none" fill-rule="evenodd">
        <g id="019-dinner" fill="#904346" fill-rule="nonzero">
            <path d="M408.001,248 L392.001,248 L392.001,224 C391.878,137.842 332.075,63.267 248.001,44.432 L248.001,40 C248.001,17.909 230.092,0 208.001,0 C185.91,0 168.001,17.909 168.001,40 L168.001,44.432 C83.927,63.267 24.124,137.842 24.001,224 L24.001,248 L8.001,248 C3.583,248 0.001,251.582 0.001,256 L0.001,288 C0.001,292.418 3.583,296 8.001,296 L100.145,296 C97.464,300.634 96.036,305.886 96.001,311.24 L96.001,312 C96,312.859 96.138,313.713 96.409,314.528 L112.409,362.528 C112.955,364.15 114.01,365.553 115.417,366.528 L192.001,420.168 L192.001,472 C192.001,476.418 195.583,480 200.001,480 L288.001,480 C292.419,480 296.001,476.418 296.001,472 L296.001,410.56 L334.513,356.648 C335.481,355.291 336.001,353.666 336.001,352 L336.001,320 C335.972,310.775 331.938,302.017 324.945,296 L408.001,296 C412.419,296 416.001,292.418 416.001,288 L416.001,256 C416.001,251.582 412.419,248 408.001,248 Z M208.001,16 C221.256,16 232.001,26.745 232.001,40 L184.001,40 C184.001,26.745 194.746,16 208.001,16 Z M40.001,224 C40.001,131.216 115.217,56 208.001,56 C300.785,56 376.001,131.216 376.001,224 L376.001,248 L40.001,248 L40.001,224 Z M320.001,349.44 L281.489,403.352 C280.521,404.709 280.001,406.334 280.001,408 L280.001,464 L208.001,464 L208.001,416 C208,413.389 206.725,410.944 204.585,409.448 L126.753,354.96 L112.001,310.728 C112.29,302.514 119.03,296.004 127.249,296 C134.076,296.082 140.051,300.604 141.985,307.152 L152.689,331.248 C153.442,332.946 154.763,334.329 156.425,335.16 L204.425,359.16 C205.536,359.714 206.76,360.001 208.001,360 L248.001,360 C249.239,360.014 250.463,359.74 251.577,359.2 L283.577,343.2 C286.302,341.838 288.018,339.047 288.001,336 L288.001,320 C288.001,311.163 295.164,304 304.001,304 C312.838,304 320.001,311.163 320.001,320 L320.001,349.44 Z M154.489,296 L283.057,296 C276.064,302.017 272.03,310.775 272.001,320 L272.001,331.056 L246.113,344 L209.889,344 L166.145,322.128 L156.889,301.368 C156.26,299.507 155.457,297.709 154.489,296 Z M400.001,280 L16.001,280 L16.001,264 L400.001,264 L400.001,280 Z" id="Shape"></path>
            <path d="M76.545,189.096 L91.457,194.904 C109.516,148.47 147.293,112.475 194.545,96.68 L189.457,81.48 C137.7,98.795 96.324,138.23 76.545,189.096 Z" id="Path"></path>
            <path d="M67.033,222.552 L82.769,225.448 C83.713,220.32 84.905,215.176 86.329,210.176 L70.929,205.824 C69.377,211.304 68.065,216.936 67.033,222.552 Z" id="Path"></path>
            <path d="M48.409,82.528 C49.805,86.725 54.34,88.996 58.537,87.6 C62.734,86.204 65.005,81.669 63.609,77.472 L57.209,58.168 L69.713,45.656 C71.836,43.503 72.564,40.336 71.593,37.472 L63.593,13.472 C62.196,9.275 57.662,7.004 53.465,8.4 C49.268,9.796 46.997,14.331 48.393,18.528 L54.793,37.832 L42.345,50.344 C40.202,52.485 39.453,55.654 40.409,58.528 L48.409,82.528 Z" id="Path"></path>
            <path d="M8.409,82.528 C9.805,86.725 14.34,88.996 18.537,87.6 C22.734,86.204 25.005,81.669 23.609,77.472 L17.209,58.168 L29.657,45.656 C31.8,43.515 32.549,40.346 31.593,37.472 L23.593,13.472 C22.196,9.275 17.662,7.004 13.465,8.4 C9.268,9.796 6.997,14.331 8.393,18.528 L14.793,37.832 L2.345,50.344 C0.202,52.485 -0.547,55.654 0.409,58.528 L8.409,82.528 Z" id="Path"></path>
        </g>
    </g>
</svg>