<?xml version="1.0" encoding="UTF-8"?>
<svg width="513px" height="513px" viewBox="0 0 513 513" version="1.1" xmlns="http://www.w3.org/2000/svg" xmlns:xlink="http://www.w3.org/1999/xlink">
    <title>fitness</title>
    <g id="Page-1" stroke="none" stroke-width="1" fill="none" fill-rule="evenodd">
        <g id="fitness" fill="#FFFFFF" fill-rule="nonzero">
            <path d="M507.336,230.992 L462.088,185.744 L496.008,151.792 C502.248,145.552 502.248,135.408 496.008,129.168 L382.888,16.016 C376.648,9.776 366.504,9.776 360.264,16.016 L326.312,49.968 L281.032,4.688 C274.792,-1.552 264.648,-1.552 258.408,4.688 L201.864,61.264 C195.624,67.504 195.624,77.648 201.864,83.888 L303.848,185.872 L185.864,303.856 L83.88,201.872 C77.64,195.632 67.496,195.632 61.256,201.872 L4.68,258.416 C-1.56,264.656 -1.56,274.8 4.68,281.04 L49.928,326.288 L16.008,360.272 C9.768,366.512 9.768,376.656 16.008,382.896 L129.16,496.016 C132.296,499.152 136.392,500.688 140.488,500.688 C144.584,500.688 148.68,499.12 151.816,496.016 L185.768,462.064 L231.016,507.312 C234.088,510.448 238.184,512.016 242.28,512.016 C246.376,512.016 250.472,510.448 253.608,507.344 L310.184,450.768 C316.424,444.528 316.424,434.384 310.184,428.144 L208.52,326.48 L326.504,208.496 L428.168,310.16 C431.304,313.296 435.4,314.832 439.496,314.832 C443.592,314.832 447.688,313.264 450.824,310.16 L507.4,253.584 C513.576,247.344 513.576,237.232 507.336,230.992 Z" id="Path"></path>
        </g>
    </g>
</svg>