<?xml version="1.0" encoding="UTF-8"?>
<svg width="513px" height="513px" viewBox="0 0 513 513" version="1.1" xmlns="http://www.w3.org/2000/svg" xmlns:xlink="http://www.w3.org/1999/xlink">
    <title>Shape</title>
    <g id="Page-1" stroke="none" stroke-width="1" fill="none" fill-rule="evenodd">
        <g id="spider-web" fill="#FFFFFF" fill-rule="nonzero">
            <path d="M512.02,241.009 L500.504,241.009 C458.041,240.977 431.517,213.48 420.855,187.744 C410.186,161.991 409.497,123.76 439.559,93.698 L439.547,93.686 C439.552,93.681 439.556,93.677 439.561,93.672 L439.56,93.671 L447.642,85.589 L426.429,64.376 L418.297,72.508 C388.245,102.523 350.043,101.835 324.302,91.174 C298.548,80.507 271.028,53.962 271.028,11.447 L271.011,11.447 C271.011,11.44 271.011,11.434 271.011,11.427 L271.01,11.427 L271.01,0 L241.01,0 L241.01,11.505 C240.983,53.977 213.484,80.501 187.745,91.164 C161.991,101.835 123.761,102.522 93.699,72.46 L93.687,72.472 C93.682,72.467 93.678,72.462 93.673,72.458 L93.672,72.459 L85.59,64.377 L64.377,85.59 L72.509,93.722 C102.525,123.774 101.836,161.977 91.175,187.717 C80.508,213.471 53.963,240.991 11.448,240.991 L11.448,241.008 C11.446,241.008 11.443,241.008 11.441,241.008 C11.438,241.008 11.431,241.008 11.428,241.008 L11.428,241.009 L5.68434189e-14,241.009 L5.68434189e-14,271.009 L11.515,271.009 C53.978,271.041 80.502,298.538 91.164,324.274 C101.833,350.027 102.522,388.258 72.46,418.32 L72.472,418.332 C72.467,418.337 72.462,418.341 72.458,418.346 L72.459,418.347 L64.377,426.429 L85.59,447.642 L93.722,439.51 C123.774,409.495 161.975,410.184 187.717,420.844 C213.471,431.511 240.991,458.056 240.991,500.571 L241.008,500.571 L241.008,500.591 L241.009,500.591 L241.009,512.02 L271.009,512.02 L271.009,500.515 C271.036,458.043 298.535,431.519 324.274,420.856 C350.027,410.186 388.257,409.498 418.32,439.56 L418.332,439.548 C418.337,439.553 418.341,439.558 418.346,439.562 L418.347,439.561 L426.429,447.643 L447.642,426.43 L439.51,418.298 C409.494,388.246 410.183,350.043 420.844,324.303 C431.511,298.549 458.056,271.029 500.571,271.029 L500.571,271.012 L500.578,271.012 L500.591,271.012 L500.591,271.011 L512.02,271.011 L512.02,241.009 L512.02,241.009 Z M422.144,241.009 L398.955,241.009 C377.2,240.988 363.61,226.899 358.147,213.712 C352.679,200.513 352.326,180.92 367.732,165.514 L367.725,165.507 C367.728,165.504 367.731,165.501 367.734,165.498 L367.733,165.497 L384.099,149.131 C383.387,165.774 386.33,182.795 393.138,199.227 C399.941,215.645 409.886,229.75 422.144,241.009 L422.144,241.009 Z M181.587,286.825 C179.211,281.09 176.227,275.805 172.737,271.009 L219.797,271.009 L186.518,304.288 C185.594,298.422 183.966,292.567 181.587,286.825 Z M330.432,225.193 C332.808,230.928 335.792,236.213 339.282,241.009 L292.222,241.009 L325.501,207.73 C326.425,213.596 328.053,219.451 330.432,225.193 Z M271.009,219.796 L271.009,172.733 C275.81,176.228 281.101,179.216 286.843,181.595 C292.578,183.97 298.425,185.598 304.284,186.521 L271.009,219.796 Z M241.009,219.796 L207.731,186.518 C213.597,185.594 219.452,183.965 225.193,181.586 C230.928,179.21 236.213,176.226 241.009,172.736 L241.009,219.796 Z M186.52,207.733 L219.796,241.009 L172.733,241.009 C176.228,236.208 179.216,230.917 181.595,225.175 C183.97,219.44 185.597,213.592 186.52,207.733 Z M241.009,292.222 L241.009,339.285 C236.208,335.79 230.917,332.802 225.175,330.423 C219.44,328.048 213.592,326.421 207.733,325.498 L241.009,292.222 Z M271.009,292.222 L304.288,325.501 C298.422,326.425 292.567,328.053 286.825,330.432 C281.09,332.808 275.805,335.792 271.009,339.282 L271.009,292.222 Z M325.498,304.286 L292.222,271.01 L339.285,271.01 C335.79,275.811 332.802,281.102 330.423,286.844 C328.049,292.579 326.422,298.427 325.498,304.286 L325.498,304.286 Z M312.823,118.892 C327.659,125.037 342.976,128.038 358.06,128.038 C359.669,128.038 361.274,127.997 362.877,127.929 L346.507,144.299 C331.105,159.694 311.519,159.343 298.323,153.878 C285.124,148.412 271.02,134.807 271.02,113.019 L271.01,113.019 C271.01,113.015 271.01,113.011 271.01,113.007 L271.009,113.007 L271.009,89.861 C282.274,102.132 296.39,112.086 312.823,118.892 L312.823,118.892 Z M199.227,118.879 C215.646,112.077 229.751,102.132 241.01,89.873 L241.01,113.057 C240.991,134.817 226.901,148.407 213.713,153.87 C200.512,159.337 180.921,159.69 165.515,144.285 L165.508,144.292 C165.505,144.289 165.502,144.286 165.499,144.283 L165.498,144.284 L149.134,127.92 C150.746,127.989 152.362,128.03 153.98,128.03 C169.066,128.03 184.388,125.027 199.227,118.879 L199.227,118.879 Z M118.892,199.196 C125.692,182.776 128.634,165.77 127.926,149.14 L144.298,165.512 C159.694,180.915 159.342,200.5 153.877,213.696 C148.411,226.895 134.806,240.999 113.018,240.999 L113.018,241.009 C113.017,241.009 113.015,241.009 113.014,241.009 C113.012,241.009 113.008,241.009 113.006,241.009 L113.006,241.01 L89.861,241.01 C102.132,229.745 112.086,215.628 118.892,199.196 L118.892,199.196 Z M89.874,271.009 L113.063,271.009 C134.818,271.03 148.408,285.119 153.871,298.306 C159.339,311.505 159.692,331.098 144.286,346.504 L144.293,346.511 C144.29,346.514 144.287,346.517 144.284,346.52 L144.285,346.521 L127.919,362.887 C128.631,346.244 125.688,329.223 118.88,312.791 C112.078,296.373 102.132,282.268 89.874,271.009 L89.874,271.009 Z M199.196,393.126 C182.776,386.326 165.769,383.385 149.139,384.092 L165.512,367.719 C180.915,352.324 200.5,352.676 213.696,358.14 C226.895,363.606 240.999,377.211 240.999,398.999 L241.009,398.999 L241.009,399.011 L241.01,399.011 L241.01,422.157 C229.745,409.886 215.628,399.932 199.196,393.126 L199.196,393.126 Z M312.792,393.139 C296.373,399.941 282.268,409.886 271.009,422.145 L271.009,398.961 C271.028,377.201 285.118,363.611 298.306,358.148 C311.505,352.679 331.097,352.327 346.504,367.733 L346.511,367.726 L346.52,367.735 L346.521,367.734 L362.887,384.1 C346.244,383.388 329.224,386.331 312.792,393.139 L312.792,393.139 Z M393.126,312.823 C386.326,329.243 383.384,346.249 384.092,362.879 L367.72,346.507 C352.324,331.104 352.676,311.519 358.141,298.323 C363.607,285.124 377.212,271.02 399,271.02 L399,271.01 L399.004,271.01 L399.012,271.01 L399.012,271.009 L422.158,271.009 C409.886,282.274 399.932,296.39 393.126,312.823 L393.126,312.823 Z" id="Shape"></path>
        </g>
    </g>
</svg>