<?xml version="1.0" encoding="UTF-8"?>
<svg width="58px" height="58px" viewBox="0 0 58 58" version="1.1" xmlns="http://www.w3.org/2000/svg" xmlns:xlink="http://www.w3.org/1999/xlink">
    <title>Walking trail</title>
    <g id="V2-Pages" stroke="none" stroke-width="1" fill="none" fill-rule="evenodd">
        <g id="Artboard-Copy" transform="translate(-729.000000, -93.000000)" fill="#DB7112" fill-rule="nonzero">
            <g id="sign" transform="translate(729.000000, 93.000000)">
                <path d="M56.9443472,45.4333333 C57.4771818,45.4271937 57.9041621,44.9894252 57.8980997,44.45555 C57.8919069,43.9216748 57.4549918,43.4938604 56.9221572,43.5 C56.4018749,43.5295255 55.8959963,43.6822481 55.4460403,43.9456333 C55.6867693,42.5766722 56.3985065,41.3354544 57.4576114,40.4376 C57.9009298,40.1412993 58.0205793,39.5410175 57.7248561,39.0968333 C57.429133,38.6526491 56.8300214,38.5327659 56.3867031,38.8290667 C54.7330661,39.9339667 53.9033533,42.0190667 53.4856026,43.8557333 C52.8949128,43.2976568 52.1988573,42.8634979 51.4383345,42.5787667 C51.1108852,42.4685979 50.7496497,42.541831 50.4907021,42.77088 C50.2317544,42.9999289 50.1144348,43.3499956 50.1829365,43.6892133 C50.2514382,44.028431 50.495354,44.3052646 50.8228034,44.4154333 C51.7511192,44.7673017 52.4953619,45.4843578 52.8826136,46.4 L38.591293,46.4 L38.591293,44.4666667 C38.591293,42.8650409 37.2954497,41.5666667 35.6969461,41.5666667 L31.8378168,41.5666667 L31.8378168,34.8 L33.7673814,34.8 C35.3658851,34.8 36.6617284,33.5016257 36.6617284,31.9 L36.6617284,24.1666667 C36.6617284,22.5650409 35.3658851,21.2666667 33.7673814,21.2666667 L31.8378168,21.2666667 L31.8378168,18.3666667 L42.7716949,18.3666667 C43.4627875,18.3668731 44.131145,18.119307 44.6559147,17.6687333 L49.1585539,13.8020667 C49.8002293,13.2511164 50.169544,12.4467016 50.169544,11.6 C50.169544,10.7532984 49.8002293,9.94888365 49.1585539,9.39793333 L44.6559147,5.53126667 C44.131145,5.080693 43.4627875,4.83312691 42.7716949,4.83333333 L31.8378168,4.83333333 L31.8378168,2.9 C31.8378168,1.29837422 30.5419734,0 28.9434698,0 C27.3449661,0 26.0491228,1.29837422 26.0491228,2.9 L26.0491228,4.83333333 L24.1195582,4.83333333 C22.5210545,4.83333333 21.2252112,6.13170756 21.2252112,7.73333333 L21.2252112,15.4666667 C21.2252112,17.0682924 22.5210545,18.3666667 24.1195582,18.3666667 L26.0491228,18.3666667 L26.0491228,21.2666667 L15.1152447,21.2666667 C14.424152,21.2664603 13.7557945,21.5140263 13.2310248,21.9646 L8.72838571,25.8312667 C8.08671021,26.382217 7.71739564,27.1866317 7.71739564,28.0333333 C7.71739564,28.8800349 8.08671021,29.6844497 8.72838571,30.2354 L13.2310248,34.1020667 C13.7557945,34.5526403 14.424152,34.8002064 15.1152447,34.8 L26.0491228,34.8 L26.0491228,41.5666667 L22.1899935,41.5666667 C20.5914899,41.5666667 19.2956465,42.8650409 19.2956465,44.4666667 L19.2956465,46.4 L5.00432593,46.4 C5.39157768,45.4843578 6.13582046,44.7673017 7.06413619,44.4154333 C7.57032903,44.2451272 7.84288807,43.6959148 7.67291384,43.1887333 C7.50293961,42.6815519 6.9547979,42.4084605 6.44860507,42.5787667 C5.68808231,42.8634979 4.9920268,43.2976568 4.40133697,43.8557333 C3.98358622,42.0190667 3.15387342,39.9301 1.50023652,38.8290667 C1.21345982,38.6373937 0.84641024,38.6135729 0.537351783,38.7665774 C0.228293335,38.9195819 0.0241793554,39.2261666 0.00189759176,39.570844 C-0.0203841622,39.9155215 0.142551442,40.245927 0.429328135,40.4376 C1.48616834,41.3359426 2.19636314,42.5761672 2.43704016,43.9437 C1.98812015,43.6814396 1.48360909,43.5293931 0.964782326,43.5 C0.445971315,43.5015118 0.0238446724,43.9188751 0.0154365172,44.4386333 C0.00734127956,44.9645692 0.414614346,45.4033388 0.938733203,45.4333333 C1.51571219,45.5405806 2.0179384,45.8932134 2.31547758,46.4 L1.92956465,46.4 C0.863895521,46.4 -0.000126349929,47.2655828 -0.000126349929,48.3333333 L-0.000126349929,56.0666667 C-0.000126349929,57.1344172 0.863895521,58 1.92956465,58 L55.9573749,58 C57.0230441,58 57.8869396,57.1344172 57.8869396,56.0666667 L57.8869396,48.3333333 C57.8869396,47.2655828 57.0230441,46.4 55.9573749,46.4 L55.571462,46.4 C55.8704107,45.8962126 56.3699915,45.5444511 56.9443472,45.4333333 Z M27.9786875,2.9 C27.9786875,2.36612474 28.4106353,1.93333333 28.9434698,1.93333333 C29.4763043,1.93333333 29.9082521,2.36612474 29.9082521,2.9 L29.9082521,4.83333333 L27.9786875,4.83333333 L27.9786875,2.9 Z M23.1547758,15.4666667 L23.1547758,7.73333333 C23.1547758,7.19945808 23.5867236,6.76666667 24.1195582,6.76666667 L42.7716949,6.76666667 C43.0021,6.76666667 43.2248907,6.84932569 43.3997682,6.99963333 L47.9024073,10.8663 C48.1160742,11.0499472 48.2390289,11.317939 48.2390289,11.6 C48.2390289,11.882061 48.1160742,12.1500528 47.9024073,12.3337 L43.3997682,16.2003667 C43.2248907,16.3506743 43.0021,16.4333333 42.7716949,16.4333333 L24.1195582,16.4333333 C23.5867236,16.4333333 23.1547758,16.0005419 23.1547758,15.4666667 Z M27.9786875,18.3666667 L29.9082521,18.3666667 L29.9082521,21.2666667 L27.9786875,21.2666667 L27.9786875,18.3666667 Z M14.4871714,32.6337 L9.98453229,28.7670333 C9.77086533,28.5833861 9.64791067,28.3153943 9.64791067,28.0333333 C9.64791067,27.7512724 9.77086533,27.4832806 9.98453229,27.2996333 L14.4871714,23.4329667 C14.6620489,23.282659 14.8848395,23.2 15.1152447,23.2 L33.7673814,23.2 C34.3002159,23.2 34.7321637,23.6327915 34.7321637,24.1666667 L34.7321637,31.9 C34.7321637,32.4338752 34.3002159,32.8666667 33.7673814,32.8666667 L15.1152447,32.8666667 C14.8848395,32.8666667 14.6620489,32.7840077 14.4871714,32.6337 Z M27.9786875,34.8 L29.9082521,34.8 L29.9082521,41.5666667 L27.9786875,41.5666667 L27.9786875,34.8 Z M21.2252112,44.4666667 C21.2252112,43.9327915 21.657159,43.5 22.1899935,43.5 L35.6969461,43.5 C36.2297806,43.5 36.6617284,43.9327915 36.6617284,44.4666667 L36.6617284,46.4 L21.2252112,46.4 L21.2252112,44.4666667 Z M1.92956465,56.0666667 L1.92956465,52.5025667 L6.41676725,53.7466667 C7.42446509,54.0252753 8.4886546,54.0252753 9.49635244,53.7466667 L13.921809,52.5228667 C14.5937559,52.3382288 15.3029188,52.3382288 15.9748658,52.5228667 L20.4012871,53.7466667 C21.4086814,54.0250974 22.4725131,54.0250974 23.4799075,53.7466667 L27.9082583,52.5228667 C28.5797534,52.3373054 29.2888553,52.3373054 29.9603504,52.5228667 L34.3906308,53.7466667 C35.3983287,54.0252753 36.4625181,54.0252753 37.470216,53.7466667 L41.8985669,52.5228667 C42.5700619,52.3373054 43.2791638,52.3373054 43.9506589,52.5228667 L48.3886576,53.7476333 C49.3955742,54.0247506 50.4584318,54.0247506 51.4653484,53.7476333 L55.9573749,52.5025667 L55.9573749,56.0666667 L1.92956465,56.0666667 Z M55.9573749,50.4977 L50.9491899,51.881 C50.2779593,52.0660956 49.5692932,52.0660956 48.8980626,51.881 L44.4600639,50.6562333 C43.4526696,50.3778026 42.3888379,50.3778026 41.3814435,50.6562333 L36.9530927,51.8800333 C36.2815976,52.0655946 35.5724957,52.0655946 34.9010006,51.8800333 L30.4736146,50.6533333 C29.4662202,50.3749026 28.4023885,50.3749026 27.3949942,50.6533333 L22.9676081,51.8771333 C22.2958095,52.0628723 21.5863498,52.0628723 20.9145513,51.8771333 L16.48813,50.6533333 C15.4804321,50.3747247 14.4162426,50.3747247 13.4085448,50.6533333 L8.98308824,51.8800333 C8.31114127,52.0646712 7.60197842,52.0646712 6.93003145,51.8800333 L1.92956465,50.4977 L1.92956465,48.3333333 L55.9573749,48.3333333 L55.9573749,50.4977 Z" id="Shape"></path>
                <path d="M40.5208577,8.7 L27.0139051,8.7 C26.4810706,8.7 26.0491228,9.13279141 26.0491228,9.66666667 C26.0491228,10.2005419 26.4810706,10.6333333 27.0139051,10.6333333 L40.5208577,10.6333333 C41.0536922,10.6333333 41.48564,10.2005419 41.48564,9.66666667 C41.48564,9.13279141 41.0536922,8.7 40.5208577,8.7 Z" id="Shape"></path>
                <path d="M33.7673814,12.5666667 L27.0139051,12.5666667 C26.4810706,12.5666667 26.0491228,12.9994581 26.0491228,13.5333333 C26.0491228,14.0672085 26.4810706,14.5 27.0139051,14.5 L33.7673814,14.5 C34.3002159,14.5 34.7321637,14.0672085 34.7321637,13.5333333 C34.7321637,12.9994581 34.3002159,12.5666667 33.7673814,12.5666667 Z" id="Shape"></path>
                <path d="M30.8730344,25.1333333 L17.3660819,25.1333333 C16.8332474,25.1333333 16.4012995,25.5661248 16.4012995,26.1 C16.4012995,26.6338752 16.8332474,27.0666667 17.3660819,27.0666667 L30.8730344,27.0666667 C31.405869,27.0666667 31.8378168,26.6338752 31.8378168,26.1 C31.8378168,25.5661248 31.405869,25.1333333 30.8730344,25.1333333 Z" id="Shape"></path>
                <path d="M24.1195582,29 L17.3660819,29 C16.8332474,29 16.4012995,29.4327915 16.4012995,29.9666667 C16.4012995,30.5005419 16.8332474,30.9333333 17.3660819,30.9333333 L24.1195582,30.9333333 C24.6523927,30.9333333 25.0843405,30.5005419 25.0843405,29.9666667 C25.0843405,29.4327915 24.6523927,29 24.1195582,29 Z" id="Shape"></path>
            </g>
        </g>
    </g>
</svg>