<?xml version="1.0" encoding="UTF-8"?>
<svg width="20px" height="20px" viewBox="0 0 20 20" version="1.1" xmlns="http://www.w3.org/2000/svg" xmlns:xlink="http://www.w3.org/1999/xlink">
    <title>hour</title>
    <g id="Page-1" stroke="none" stroke-width="1" fill="none" fill-rule="evenodd">
        <g id="hour" fill="#FFFFFF" fill-rule="nonzero">
            <path d="M10,0 C4.47332031,0 0,4.47253906 0,10 C0,15.5266797 4.47253906,20 10,20 C15.5266797,20 20,15.5274609 20,10 C20,4.47332031 15.5274609,0 10,0 Z M10,18.828125 C5.13214844,18.828125 1.171875,14.8678516 1.171875,10 C1.171875,5.13214844 5.13214844,1.171875 10,1.171875 C14.8678516,1.171875 18.828125,5.13214844 18.828125,10 C18.828125,14.8678516 14.8678516,18.828125 10,18.828125 Z" id="Shape"></path>
            <circle id="Oval" cx="10" cy="2.96875" r="1"></circle>
            <circle id="Oval" cx="2.96875" cy="10" r="1"></circle>
            <circle id="Oval" cx="17.03125" cy="10" r="1"></circle>
            <circle id="Oval" cx="10" cy="17.03125" r="1"></circle>
            <path d="M13.3514844,5.76765625 L10.7329688,8.39523438 C10.2047266,8.16 9.58378906,8.19808594 9.08570313,8.50894531 L7.39546875,7.09566406 C7.14722656,6.88816406 6.77773437,6.92109375 6.57007813,7.16933594 C6.36253906,7.41757812 6.39546875,7.78710938 6.64375,7.99472656 L8.35441406,9.42507812 C8.14398438,10.0350391 8.27609375,10.7473828 8.77539062,11.245 C9.4628125,11.9300391 10.5754687,11.9289062 11.2613281,11.2407422 C11.8175391,10.6825391 11.9158984,9.85457031 11.5830859,9.20234375 L14.1816016,6.59484375 C14.4100391,6.36566406 14.409375,5.99464844 14.1801563,5.76621094 C13.9509766,5.53785156 13.5799219,5.5384375 13.3514844,5.76765625 Z M10.4312109,10.4135156 C10.2031641,10.6422656 9.83140625,10.6430078 9.60257813,10.4149219 C9.37324219,10.1863672 9.37246094,9.81570313 9.60113281,9.58632813 C9.82921875,9.35742188 10.2009375,9.356875 10.4298047,9.58488281 C10.6591797,9.8134375 10.6598438,10.1840234 10.4312109,10.4135156 Z" id="Shape"></path>
        </g>
    </g>
</svg>