<?xml version="1.0" encoding="UTF-8"?>
<svg width="28px" height="23px" viewBox="0 0 28 23" version="1.1" xmlns="http://www.w3.org/2000/svg" xmlns:xlink="http://www.w3.org/1999/xlink">
    <!-- Generator: Sketch 55.2 (78181) - https://sketchapp.com -->
    <title>Shape</title>
    <desc>Created with Sketch.</desc>
    <g id="design" stroke="none" stroke-width="1" fill="none" fill-rule="evenodd">
        <g id="18-marsana-fand-b-info-a2" transform="translate(-681.000000, -1668.000000)" fill="#FFFFFF">
            <path d="M701.681879,1679.48788 C703.271212,1679.48788 705.018217,1678.62641 706.594937,1677.06577 C709.269052,1674.41894 709.748375,1671.3601 707.856312,1669.46237 C707.108828,1668.71521 706.086772,1668.30064 705.024524,1668.31374 L705.024524,1668.31374 C703.428884,1668.31374 701.694493,1669.16272 700.136695,1670.71087 C697.853605,1672.97067 697.153542,1675.52387 698.175256,1677.40911 L695.324548,1680.23074 L691.773776,1676.71619 L693.312654,1675.19301 C693.681547,1674.82743 693.681547,1674.23518 693.312654,1673.8696 L687.636465,1668.25131 C687.263716,1667.90753 686.682853,1667.91767 686.322589,1668.27426 C685.962325,1668.63085 685.952076,1669.20579 686.299407,1669.57473 L691.307067,1674.5313 L690.436718,1675.39277 L685.113714,1670.12408 C684.740965,1669.78029 684.160102,1669.79043 683.799838,1670.14702 C683.439574,1670.50361 683.429325,1671.07855 683.776656,1671.44749 L689.09966,1676.71619 L688.229311,1677.57766 L682.590963,1671.99684 C682.218214,1671.65305 681.637351,1671.66319 681.277087,1672.01978 C680.916823,1672.37637 680.906574,1672.95131 681.253905,1673.32025 L687.560782,1679.56279 C687.930135,1679.92792 688.528487,1679.92792 688.89784,1679.56279 L690.436718,1678.03961 L693.98749,1681.55415 L686.419237,1689.0452 C686.166138,1689.27863 686.061954,1689.63019 686.147555,1689.96196 C686.233157,1690.29373 686.494892,1690.55279 686.830081,1690.63752 C687.165271,1690.72225 687.520455,1690.61913 687.756295,1690.36861 L695.324548,1682.87757 L702.735128,1690.21255 C702.970968,1690.46307 703.326152,1690.56619 703.661342,1690.48146 C703.996531,1690.39673 704.258266,1690.13767 704.343868,1689.8059 C704.429469,1689.47413 704.325285,1689.12257 704.072186,1688.88913 L696.661605,1681.55415 L699.430324,1678.81368 C700.092962,1679.2622 700.879181,1679.49762 701.681879,1679.48788 L701.681879,1679.48788 Z M701.473753,1672.03429 C702.615297,1670.90439 703.920821,1670.16153 705.024524,1670.16153 C705.58845,1670.15655 706.129386,1670.38246 706.519254,1670.78578 C707.780629,1672.03429 706.979656,1674.0319 705.257879,1675.74236 C704.110027,1676.8785 702.79189,1677.61512 701.681879,1677.61512 C701.131435,1677.62746 700.60007,1677.41528 700.212377,1677.02832 C698.982536,1675.77981 699.751975,1673.7385 701.473753,1672.03429 Z" id="Shape" transform="translate(695.000000, 1679.333333) rotate(-360.000000) translate(-695.000000, -1679.333333) "></path>
        </g>
    </g>
</svg>