<?xml version="1.0" encoding="UTF-8"?>
<svg width="22px" height="22px" viewBox="0 0 22 22" version="1.1" xmlns="http://www.w3.org/2000/svg" xmlns:xlink="http://www.w3.org/1999/xlink">
    <title>icon</title>
    <g id="components" stroke="none" stroke-width="1" fill="none" fill-rule="evenodd">
        <g id="component/button-sec/icon-off" transform="translate(-29.000000, -19.000000)" fill="#FFFFFF">
            <g id="icon" transform="translate(26.000000, 16.000000)">
                <path d="M6.41666667,18.6666667 C8.02749719,18.6666667 9.33333333,19.9725028 9.33333333,21.5833333 C9.33333333,23.1941639 8.02749719,24.5 6.41666667,24.5 C4.80583615,24.5 3.5,23.1941639 3.5,21.5833333 C3.5,19.9725028 4.80583615,18.6666667 6.41666667,18.6666667 Z M6.41666667,20.125 C5.61125141,20.125 4.95833333,20.7779181 4.95833333,21.5833333 C4.95833333,22.3887486 5.61125141,23.0416667 6.41666667,23.0416667 C7.22208193,23.0416667 7.875,22.3887486 7.875,21.5833333 C7.875,20.7779181 7.22208193,20.125 6.41666667,20.125 Z M23.6116934,19.9791667 C24.014401,19.9791667 24.34086,20.3056257 24.34086,20.7083333 C24.34086,21.077482 24.0665438,21.3825607 23.710637,21.4308436 L23.6116934,21.4375 L12.5416667,21.4375 C12.138959,21.4375 11.8125,21.111041 11.8125,20.7083333 C11.8125,20.3391847 12.0868163,20.034106 12.4427231,19.9858231 L12.5416667,19.9791667 L23.6116934,19.9791667 Z M7.875,11.0833333 C8.68041526,11.0833333 9.33333333,11.7362514 9.33333333,12.5416667 L9.33333333,12.5416667 L9.33333333,15.4583333 C9.33333333,16.2637486 8.68041526,16.9166667 7.875,16.9166667 L7.875,16.9166667 L4.95833333,16.9166667 C4.15291807,16.9166667 3.5,16.2637486 3.5,15.4583333 L3.5,15.4583333 L3.5,12.5416667 C3.5,11.7362514 4.15291807,11.0833333 4.95833333,11.0833333 L4.95833333,11.0833333 Z M7.875,12.5416667 L4.95833333,12.5416667 L4.95833333,15.4583333 L7.875,15.4583333 L7.875,12.5416667 Z M23.6116934,12.9791667 C24.014401,12.9791667 24.34086,13.3056257 24.34086,13.7083333 C24.34086,14.077482 24.0665438,14.3825607 23.710637,14.4308436 L23.6116934,14.4375 L12.5416667,14.4375 C12.138959,14.4375 11.8125,14.111041 11.8125,13.7083333 C11.8125,13.3391847 12.0868163,13.034106 12.4427231,12.9858231 L12.5416667,12.9791667 L23.6116934,12.9791667 Z M6.93841586,3.89858092 C7.16419783,4.0114719 7.34727407,4.19454814 7.46016506,4.42033011 L9.07245874,7.64491747 C9.36061286,8.22122572 9.12701779,8.92201093 8.55070954,9.21016506 C8.38871153,9.29116406 8.21007962,9.33333333 8.02896035,9.33333333 L4.80437299,9.33333333 C4.16004078,9.33333333 3.63770632,8.81099887 3.63770632,8.16666667 C3.63770632,7.98554739 3.67987559,7.80691548 3.7608746,7.64491747 L5.37316828,4.42033011 C5.6613224,3.84402187 6.36210761,3.61042679 6.93841586,3.89858092 Z M6.41666667,5.5942658 L5.27629957,7.875 L7.55703377,7.875 L6.41666667,5.5942658 Z M23.6116934,5.97916667 C24.014401,5.97916667 24.34086,6.3056257 24.34086,6.70833333 C24.34086,7.07748199 24.0665438,7.38256066 23.710637,7.43084357 L23.6116934,7.4375 L12.5416667,7.4375 C12.138959,7.4375 11.8125,7.11104096 11.8125,6.70833333 C11.8125,6.33918467 12.0868163,6.03410601 12.4427231,5.9858231 L12.5416667,5.97916667 L23.6116934,5.97916667 Z" id="Combined-Shape"></path>
            </g>
        </g>
    </g>
</svg>