<?xml version="1.0" encoding="UTF-8"?>
<svg width="21px" height="22px" viewBox="0 0 21 22" version="1.1" xmlns="http://www.w3.org/2000/svg" xmlns:xlink="http://www.w3.org/1999/xlink">
    <!-- Generator: Sketch 55.2 (78181) - https://sketchapp.com -->
    <title>Shape</title>
    <desc>Created with Sketch.</desc>
    <g id="--V2" stroke="none" stroke-width="1" fill="none" fill-rule="evenodd">
        <g id="5,0-Sport-Facility" transform="translate(-1066.000000, -1316.000000)" fill="#212237">
            <g id="Info" transform="translate(1034.000000, 1080.000000)">
                <g id="Date" transform="translate(32.000000, 236.000000)">
                    <g id="ic_access_time_48px">
                        <path d="M10.49475,0 C4.6935,0 0,4.90758333 0,10.9666667 C0,17.02575 4.6935,21.9333333 10.49475,21.9333333 C16.296,21.9333333 21,17.02575 21,10.9666667 C21,4.90758333 16.296,0 10.49475,0 Z M10.5,19.74 C5.859,19.74 2.1,15.8139333 2.1,10.9666667 C2.1,6.1194 5.859,2.19333333 10.5,2.19333333 C15.141,2.19333333 18.9,6.1194 18.9,10.9666667 C18.9,15.8139333 15.141,19.74 10.5,19.74 Z M11.025,5.48333333 L9.45,5.48333333 L9.45,12.0633333 L14.95725,15.5178333 L15.75,14.1689333 L11.025,11.2408333 L11.025,5.48333333 Z" id="Shape"></path>
                    </g>
                </g>
            </g>
        </g>
    </g>
</svg>