<?xml version="1.0" encoding="UTF-8"?>
<svg width="28px" height="33px" viewBox="0 0 28 33" version="1.1" xmlns="http://www.w3.org/2000/svg" xmlns:xlink="http://www.w3.org/1999/xlink">
    <title>Combined Shape</title>
    <g id="Symbols" stroke="none" stroke-width="1" fill="none" fill-rule="evenodd">
        <g id="icons/navigation/link" transform="translate(-10.000000, -8.000000)" fill="#FFFFFF">
            <path d="M23.5310065,20.2609891 C23.9758434,20.1927807 24.4232783,20.3670712 24.7047669,20.7182071 C24.9862554,21.0693429 25.0590328,21.5439782 24.8956845,21.9633223 C24.7323362,22.3826664 24.3576787,22.6830111 23.9128418,22.7512194 C22.2953902,23.0001302 20.9553468,24.13745 20.4467947,25.6929181 C19.9382425,27.2483862 20.3476054,28.9576653 21.5056193,30.114 L21.5056193,30.114 L28.0964286,36.7048093 C29.1936927,37.8020734 30.7929899,38.2306038 32.2918805,37.8289773 C33.7907711,37.4273508 34.9615379,36.2565839 35.3631644,34.7576933 C35.7647909,33.2588028 35.3362605,31.6595055 34.2389965,30.5622415 L34.2389965,30.5622415 L30.7443734,27.0676184 C30.2872354,26.5770268 30.3007242,25.8125262 30.774884,25.3383663 C31.2490439,24.8642065 32.0135445,24.8507177 32.5041361,25.3078557 L32.5041361,25.3078557 L35.9987592,28.8024788 C37.724726,30.5367462 38.3987928,33.0523976 37.7670452,35.4101121 C37.1352975,37.7678265 35.2937129,39.6094111 32.9359984,40.2411588 C30.578284,40.8729064 28.0626326,40.1988396 26.3366659,38.4728728 L26.3366659,38.4728728 L19.7458566,31.8820635 C17.9028242,30.0650025 17.2448785,27.362453 18.0464268,24.901559 C18.8479752,22.440665 20.9713673,20.6440371 23.5310065,20.2609891 Z M15.0640015,8.23295485 C17.4217159,7.60120719 19.9373672,8.27527392 21.6633339,10.0012406 L21.6633339,10.0012406 L28.2541432,16.59205 C30.0971756,18.4091109 30.7551213,21.1116604 29.953573,23.5725544 C29.1520246,26.0334484 27.0286326,27.8300764 24.4689933,28.2131243 L24.4689933,28.2131243 L24.2780756,28.2131243 C23.5904176,28.2658446 22.9902223,27.751126 22.9375019,27.063468 C22.8847815,26.37581 23.3995,25.7756146 24.087158,25.7228941 C25.7046096,25.4739832 27.044653,24.3366634 27.5532052,22.7811953 C28.0617573,21.2257272 27.6523944,19.5164482 26.4943805,18.3601134 L26.4943805,18.3601134 L19.9035712,11.7693041 C18.8063071,10.67204 17.2070099,10.2435096 15.7081193,10.6451362 C14.2092287,11.0467627 13.0384619,12.2175295 12.6368354,13.7164201 C12.2352089,15.2153107 12.6637393,16.8146079 13.7610033,17.911872 L13.7610033,17.911872 L17.2556264,21.3981943 C17.5887415,21.7085941 17.7258635,22.1760684 17.6131995,22.6172266 C17.5005354,23.0583847 17.1560542,23.402866 16.714896,23.51553 C16.2737378,23.6281941 15.8062636,23.491072 15.4958637,23.157957 L15.4958637,23.157957 L12.0012406,19.6633339 C10.2752739,17.9373672 9.60120719,15.4217159 10.2329549,13.0640015 C10.8647025,10.7062871 12.7062871,8.86470252 15.0640015,8.23295485 Z" id="Combined-Shape"></path>
        </g>
    </g>
</svg>