<?xml version="1.0" encoding="UTF-8"?>
<svg width="21px" height="22px" viewBox="0 0 21 22" version="1.1" xmlns="http://www.w3.org/2000/svg" xmlns:xlink="http://www.w3.org/1999/xlink">
    <title>050-instagram</title>
    <g id="1.-Homepage" stroke="none" stroke-width="1" fill="none" fill-rule="evenodd">
        <g id="0-Menu" transform="translate(-130.000000, -564.000000)" fill="#FFFFFF" fill-rule="nonzero">
            <g id="Group" transform="translate(130.000000, 564.000000)">
                <g id="050-instagram" transform="translate(0.000000, 0.775194)">
                    <path d="M14.1259802,0 L5.99378721,0 C2.68879901,0 0,2.68879901 0,5.99378721 L0,14.1259802 C0,17.4309684 2.68879901,20.1197674 5.99378721,20.1197674 L14.1259802,20.1197674 C17.4309684,20.1197674 20.1197674,17.4309684 20.1197674,14.1259802 L20.1197674,5.99378721 C20.1197674,2.68879901 17.4309319,0 14.1259802,0 Z M18.0957196,14.1259802 C18.0957196,16.3183884 16.3183884,18.0957196 14.1259802,18.0957196 L5.99378721,18.0957196 C3.80137906,18.0957196 2.02404786,16.3183884 2.02404786,14.1259802 L2.02404786,5.99378721 C2.02404786,3.80134255 3.80137906,2.02404786 5.99378721,2.02404786 L14.1259802,2.02404786 C16.3183884,2.02404786 18.0957196,3.80134255 18.0957196,5.99378721 L18.0957196,14.1259802 Z" id="XMLID_17_"></path>
                    <path d="M10.0598837,4.85619593 C7.19056567,4.85619593 4.85619593,7.19056567 4.85619593,10.0598472 C4.85619593,12.9291287 7.19056567,15.263535 10.0598837,15.263535 C12.9292018,15.263535 15.2635715,12.9291653 15.2635715,10.0598472 C15.2635715,7.19052915 12.9292018,4.85619593 10.0598837,4.85619593 Z M10.0598837,13.2395236 C8.30380294,13.2395236 6.88024379,11.8159645 6.88024379,10.0598837 C6.88024379,8.30380294 8.30383946,6.88024379 10.0598837,6.88024379 C11.8159645,6.88024379 13.2395236,8.30380294 13.2395236,10.0598837 C13.2395236,11.815928 11.815928,13.2395236 10.0598837,13.2395236 L10.0598837,13.2395236 Z" id="XMLID_81_"></path>
                    <circle id="XMLID_83_" cx="15.273503" cy="4.8953376" r="1.24687395"></circle>
                </g>
            </g>
        </g>
    </g>
</svg>