<?xml version="1.0" encoding="UTF-8"?>
<svg width="27px" height="25px" viewBox="0 0 27 25" version="1.1" xmlns="http://www.w3.org/2000/svg" xmlns:xlink="http://www.w3.org/1999/xlink">
    <title>073-like</title>
    <g id="2.-V0.8" stroke="none" stroke-width="1" fill="none" fill-rule="evenodd">
        <g id="4,0-Event-Single" transform="translate(-207.000000, -1014.000000)" fill="#242655" fill-rule="nonzero">
            <g id="1-Header" transform="translate(-140.000000, -67.000000)">
                <g id="Group-7" transform="translate(140.000000, 1037.000000)">
                    <g id="073-like" transform="translate(207.000000, 44.000000)">
                        <path d="M24.5883115,2.43261519 C23.0283673,0.872670999 20.941259,0.0136453628 18.7107954,0.0136453628 C16.7905399,0.0136453628 14.9767076,0.650499205 13.5138088,1.82294671 C12.0298888,0.650499205 10.2137911,0.0136453628 8.31229137,0.0136453628 C6.07150153,0.0136453628 3.97886134,0.873039793 2.41896983,2.43261519 C0.859025637,3.99224328 0,6.07972036 0,8.30981518 C0,10.5402261 0.859025637,12.6273871 2.41896983,14.1869625 L12.8012996,24.5692923 C12.9829665,24.7516588 13.2298977,24.853989 13.4873084,24.8535807 C13.735085,24.8535807 13.9828089,24.7591156 14.1723688,24.5705567 L24.5630755,14.2115136 C26.1184888,12.621223 26.9746167,10.5311643 26.9746167,8.32598942 C26.9746167,6.10042548 26.129816,4.01036685 24.5883115,2.43261519 Z M23.1842616,12.8456602 L13.4882567,22.5118982 L3.79098735,12.814945 C2.59783472,11.6214762 1.94059186,10.0214389 1.94059186,8.30981518 C1.94059186,6.59819146 2.59783472,4.99815413 3.79098735,3.8046854 C4.98445608,2.61153277 6.59002531,1.95428991 8.31229137,1.95428991 C10.0071086,1.95428991 11.6158916,2.61443043 12.8413927,3.81243006 C13.2210921,4.18406863 13.8301284,4.18080217 14.2056656,3.8046854 C15.3991343,2.61153277 16.9988555,1.95428991 18.7107954,1.95428991 C20.4227352,1.95428991 22.0224564,2.61153277 23.2078644,3.79688805 C24.385475,5.00168401 25.0339722,6.61015091 25.0339722,8.32598942 C25.0339722,10.0211228 24.3742005,11.629537 23.1842616,12.8456602 L23.1842616,12.8456602 Z" id="Shape"></path>
                    </g>
                </g>
            </g>
        </g>
    </g>
</svg>