<?xml version="1.0" encoding="UTF-8"?>
<svg width="188px" height="92px" viewBox="0 0 188 92" version="1.1" xmlns="http://www.w3.org/2000/svg" xmlns:xlink="http://www.w3.org/1999/xlink">
    <title>Logo-AR-B</title>
    <defs>
        <polygon id="path-1" points="0 0.0602651685 42.4858308 0.0602651685 42.4858308 20.9549468 0 20.9549468"></polygon>
        <polygon id="path-3" points="0 91.9183371 187.872601 91.9183371 187.872601 -1.95864964e-14 0 -1.95864964e-14"></polygon>
    </defs>
    <g id="Page-1" stroke="none" stroke-width="1" fill="none" fill-rule="evenodd">
        <g id="Artboard" transform="translate(-718.000000, -324.000000)">
            <g id="Group-41" transform="translate(718.000000, 324.000000)">
                <path d="M97.8495238,66.1530307 C97.143663,65.5500345 96.758022,64.9370457 96.7029304,64.3233678 L96.6822711,64.1066337 L96.5548718,64.1066337 L96.4309158,64.1993228 C94.5991209,65.5538247 93.707326,66.3463341 93.2803663,66.8421693 C93.1013187,66.6185438 92.8740659,66.3907835 92.5951648,66.1530307 C91.889304,65.5500345 91.503663,64.9370457 91.4485714,64.3233678 L91.4279121,64.1066337 L91.3005128,64.1066337 L91.1731136,64.1993228 C88.0569963,66.504836 87.6575824,67.1905288 87.6575824,67.5313079 C87.6575824,68.1446412 88.1361905,68.6339296 89.0761905,68.9822891 C90.270989,69.4336749 91.2454212,70.1121318 91.9753846,70.9945738 L92.0511355,71.0872629 L92.1785348,71.0872629 L92.2508425,70.9842367 C92.9532601,69.9608659 93.4112088,69.185585 93.6281319,68.6442667 C93.8243956,68.7686562 94.0585348,68.882364 94.3305495,68.9822891 C95.525348,69.4336749 96.5032234,70.1121318 97.2297436,70.9945738 L97.3054945,71.0872629 L97.4328938,71.0872629 L97.5052015,70.9842367 C98.8721612,68.9957273 99.0305495,68.3517273 99.0305495,68.0412704 C99.0305495,67.7449408 98.9341392,67.4417199 98.7378755,67.1281618 C98.5416117,66.8149483 98.2489377,66.4907086 97.8495238,66.1530307" id="Fill-1" fill="#16150B"></path>
                <path d="M25.0976557,44.6248584 C26.2924542,45.0758996 27.2668864,45.7547011 27.9968498,46.6367985 L28.0726007,46.7298322 L28.2,46.7298322 L28.2723077,46.6264614 C28.9747253,45.6030906 29.432674,44.8281543 29.6495971,44.2871805 C29.8458608,44.4112255 30.08,44.5249333 30.3520147,44.6248584 C31.5468132,45.0758996 32.5246886,45.7547011 33.2512088,46.6367985 L33.3269597,46.7298322 L33.454359,46.7298322 L33.5266667,46.6264614 C34.8936264,44.6382966 35.0520147,43.9942966 35.0520147,43.6841843 C35.0520147,43.3875101 34.9556044,43.0842891 34.7593407,42.7707311 C34.5630769,42.4575176 34.2704029,42.1336225 33.870989,41.7956 C33.1651282,41.1926037 32.7794872,40.579615 32.7243956,39.9659371 L32.7037363,39.749203 L32.576337,39.749203 L32.452381,39.8418921 C30.6205861,41.196394 29.7287912,41.9889034 29.3018315,42.4847386 C29.1227839,42.2611131 28.8955311,42.0333528 28.61663,41.7956 C27.9107692,41.1926037 27.5251282,40.579615 27.4700366,39.9659371 L27.4493773,39.749203 L27.321978,39.749203 L27.1945788,39.8418921 C24.0784615,42.1474052 23.6790476,42.8330981 23.6790476,43.1738772 C23.6790476,43.7872105 24.1576557,44.2764989 25.0976557,44.6248584" id="Fill-3" fill="#16150B"></path>
                <path d="M55.3119414,66.1530307 C54.6060806,65.5500345 54.2204396,64.9370457 54.165348,64.3233678 L54.1446886,64.1066337 L54.0172894,64.1066337 L53.8933333,64.1993228 C52.0615385,65.5538247 51.1697436,66.3463341 50.7427839,66.8421693 C50.5637363,66.6185438 50.3364835,66.3907835 50.0575824,66.1530307 C49.3517216,65.5500345 48.9660806,64.9370457 48.910989,64.3233678 L48.8903297,64.1066337 L48.7629304,64.1066337 L48.6355311,64.1993228 C45.5194139,66.504836 45.12,67.1905288 45.12,67.5313079 C45.12,68.1446412 45.5986081,68.6339296 46.5386081,68.9822891 C47.7334066,69.4336749 48.7078388,70.1121318 49.4378022,70.9945738 L49.5135531,71.0872629 L49.6409524,71.0872629 L49.7132601,70.9842367 C50.4156777,69.9608659 50.8736264,69.185585 51.0905495,68.6442667 C51.2868132,68.7686562 51.5209524,68.882364 51.792967,68.9822891 C52.9877656,69.4336749 53.965641,70.1121318 54.6921612,70.9945738 L54.7679121,71.0872629 L54.8953114,71.0872629 L54.967619,70.9842367 C56.3345788,68.9957273 56.492967,68.3517273 56.492967,68.0412704 C56.492967,67.7449408 56.3965568,67.4417199 56.200293,67.1281618 C56.0040293,66.8149483 55.7113553,66.4907086 55.3119414,66.1530307" id="Fill-5" fill="#16150B"></path>
                <path d="M70.3106227,64.9369423 C71.4158974,66.0977963 72.1837363,67.4278337 72.4591941,68.317167 L73.0445421,68.317167 C74.1222711,67.3937213 76.6599267,65.2229348 77.341685,64.6406127 C78.2128205,63.8959985 78.8188278,63.5100809 79.2939927,62.617991 C79.5212454,62.1941708 79.9344322,61.4499011 79.9482051,60.3365978 C79.961978,59.3101258 79.6210989,58.5761933 78.6466667,56.7358487 C78.0027839,55.5298562 77.3451282,54.3310996 76.6874725,53.1802382 C75.8645421,51.6810172 75.4479121,50.6162981 75.4479121,50.0167476 C75.4479121,49.4550996 75.5821978,48.7766427 75.847326,47.9979161 L75.9368498,47.7394891 L75.692381,47.4948449 L75.4341392,47.7184704 C74.2117949,48.7831895 72.9825641,49.862036 71.7671062,50.9405378 C70.761685,51.9742457 70.2520879,53.0837588 70.2520879,54.2449573 C70.2520879,54.9234142 70.7582418,56.1814367 71.794652,58.0865603 L73.0961905,60.4851071 C73.9191209,62.0043131 74.0430769,62.528403 74.0430769,62.7041333 C74.0430769,62.9901258 73.9466667,63.2654367 73.7504029,63.5376464 C72.90337,62.5387401 71.9454652,61.6239086 70.91663,60.8021109 C68.4919121,58.8652869 67.7240733,58.5000434 65.9525348,58.5000434 L52.0994139,58.5000434 L52.0994139,27.0243281 L50.3778022,27.0243281 C50.0472527,27.7410322 49.5996337,28.5228599 49.1451282,29.1534217 C47.7575092,31.0833543 45.4539927,32.6545903 43.0747253,33.5914742 L43.0747253,34.0049573 L44.9719414,34.0049573 L44.9719414,59.544433 C44.9753846,60.6949498 45.7394359,61.6907551 46.1371282,62.0587551 C46.6742711,62.5549348 47.3608498,63.0590397 49.0091209,63.0590397 L66.5265201,63.0590397 C68.0759707,63.0590397 69.3258608,63.9066801 70.3106227,64.9369423" id="Fill-7" fill="#16150B"></path>
                <path d="M105.868791,53.2421228 C105.045861,51.7466921 104.629231,50.681973 104.629231,50.0858682 C104.629231,49.5207745 104.763516,48.8454187 105.028645,48.0701378 L105.128498,47.7738082 L104.887473,47.529164 L104.598242,47.7806996 C103.379341,48.841973 102.16044,49.9101378 100.931209,51.0024225 C99.9223443,52.0361303 99.4127473,53.1490891 99.4127473,54.3137333 C99.4127473,54.9925348 99.9189011,56.2536584 100.955311,58.1594712 L102.25685,60.5573288 C103.07978,62.0768794 103.203736,62.597179 103.203736,62.7729094 C103.203736,63.0657933 103.103883,63.3448944 102.900733,63.6205498 C101.606081,62.4111116 100.662637,61.5221228 100.060073,60.9570292 C99.6434432,60.5814487 99.2956777,60.2368794 98.9857875,59.9302127 C98.0457875,58.9998757 97.4810989,58.5002502 96.3689377,58.5002502 L92.6915751,58.5002502 C92.6915751,58.4209993 92.6950183,58.2935086 92.6950183,58.1935835 C92.6950183,57.1874412 92.1750916,55.7436959 91.1008059,53.7830966 L89.1588278,50.2236959 C88.3427839,48.7282652 87.9261538,47.6669918 87.9261538,47.0674412 C87.9261538,46.509239 88.0604396,45.8304375 88.329011,45.0551566 L88.4254212,44.769164 L88.4254212,44.7657184 L88.1775092,44.5210742 L87.8986081,44.7626172 C86.6659341,45.8235461 85.4332601,46.8917109 84.1902564,47.9839955 C83.1710623,49.0177034 82.6511355,50.1341079 82.6511355,51.2953064 C82.6511355,51.9809993 83.1607326,53.2386772 84.2074725,55.1444899 L85.5193407,57.5423476 C85.5882051,57.6663925 85.6501832,57.7835461 85.7121612,57.8972539 C86.7210256,59.7544824 86.3767033,61.9414637 84.7480586,63.472385 C83.1975751,64.9299131 78.5826227,68.7577333 76.725348,70.170812 C74.7902564,71.642812 73.0831062,72.8994562 71.825641,73.3753064 C70.9548498,73.7050592 70.4896703,73.7512315 70.0764835,73.8542577 L70.0764835,74.4365798 C70.6032967,74.601973 71.209304,74.681224 71.8704029,74.681224 C74.7489377,74.681224 76.9312527,73.8504674 79.0047619,72.1934337 C80.3613919,71.1094187 89.833011,63.0657933 89.833011,63.0657933 L96.2690842,63.0657933 C97.0954579,63.0657933 98.1421978,63.6825723 99.3748718,64.9402502 C100.624762,66.2186022 101.371941,67.3866921 101.595751,68.4066172 L101.599194,68.4272914 L102.181099,68.4272914 L106.633187,64.6201453 C107.58696,63.8066172 108.186081,63.2174037 108.458095,62.8177034 C108.905714,62.1630217 109.129524,61.3532839 109.129524,60.4022727 C109.129524,59.5753064 108.702564,58.3968794 107.821099,56.7980779 L105.868791,53.2421228 Z" id="Fill-9" fill="#16150B"></path>
                <path d="M185.069679,59.8131625 C184.367262,59.7683685 184.126236,59.6508704 183.985064,59.5443985 C183.365284,59.0754397 183.396273,58.0555146 183.396273,57.642376 L183.396273,27.0242936 L181.674661,27.0242936 C181.344111,27.7409978 180.896492,28.5228255 180.441987,29.1537318 C179.054368,31.0833199 176.750851,32.6545558 174.371584,33.5914397 L174.371584,34.0052674 L176.265357,34.0052674 L176.2688,58.0179566 C176.265357,58.7243236 176.341108,60.5023011 177.621987,61.7703161 C178.920082,63.0555596 180.624478,63.0624509 181.994881,63.0655521 L182.084404,63.0655521 C182.75239,63.0655521 184.160668,63.0314397 185.6688,62.2148105 C186.50206,61.7634247 187.232023,61.1566382 187.834588,60.4058217 L187.872463,60.3610277 L187.872463,59.4699715 C187.288492,59.6098667 185.920155,59.8645034 185.069679,59.8131625" id="Fill-11" fill="#16150B"></path>
                <g id="Group-15" transform="translate(0.000000, 47.468899)">
                    <mask id="mask-2" fill="white">
                        <use xlink:href="#path-1"></use>
                    </mask>
                    <g id="Clip-14"></g>
                    <path d="M39.2250982,5.77322397 C38.4021678,4.27779326 37.9855377,3.21307416 37.9855377,2.61696929 C37.9855377,2.05187566 38.1198234,1.37651985 38.3849516,0.601238951 L38.4882484,0.304909363 L38.2437795,0.0602651685 L37.9545487,0.311800749 C36.7356476,1.37307416 35.5167465,2.44123895 34.2875158,3.5335236 C33.2786513,4.56723146 32.7690542,5.68019026 32.7690542,6.84483446 C32.7690542,7.52363596 33.2752081,8.78475955 34.3116183,10.6905723 L35.6131568,13.08843 C36.4360872,14.6079805 36.5600432,15.1282801 36.5600432,15.3040105 C36.5600432,15.5968944 36.4601897,15.8759955 36.2570396,16.1516509 C34.9623875,14.9422127 34.0189443,14.053224 33.4163802,13.4881303 C32.9997502,13.1125498 32.6519846,12.7679805 32.3420945,12.4613139 C31.4020945,11.5309768 30.7065634,11.0313513 29.5978454,11.0313513 L11.5281531,11.0313513 C11.052644,11.0313513 10.8494938,10.8728494 10.7396549,10.6557708 C10.529274,10.2457333 10.6911055,9.67719401 11.0977502,9.23269963 C11.4864901,8.80198801 13.6591641,6.86206292 13.6591641,6.86206292 C13.8072227,7.07914157 13.9621678,7.28932884 14.1274425,7.48573333 C14.4511055,7.87509663 14.6508125,8.11284944 14.9951348,8.3264824 C15.3084681,8.5194412 15.5873692,8.60213783 15.7733033,8.65382322 C16.3311055,8.81232509 16.7890542,8.80198801 16.9681018,8.80198801 L23.5722044,8.80198801 C24.38997,8.80198801 25.0390176,8.51599551 25.6174791,8.1817633 C25.9824608,7.97157603 26.320241,7.70625768 26.6091275,7.4064824 L29.360263,4.80842996 L29.360263,4.22266217 L20.7522044,4.22266217 C20.2505267,4.22266217 19.6768857,4.02143371 19.3404828,3.83329888 C18.8040286,3.53317903 18.4762337,3.03045243 18.3006293,2.64798052 L17.1299333,0.0637108614 L16.5376989,0.0637108614 L-0.000103296703,15.0318007 L-0.000103296703,15.5968944 L29.6253912,15.5968944 C30.4521092,15.5968944 31.4988491,16.2136734 32.7311788,17.4713513 C33.9810689,18.7497034 34.7282484,19.9177933 34.9520579,20.9377184 L34.9555011,20.9549468 L35.5408491,20.9549468 L39.9894938,17.1512464 C40.9432667,16.3377184 41.5423875,15.7485049 41.8144022,15.3488045 C42.2620212,14.6941228 42.4858308,13.884385 42.4858308,12.9333738 C42.4858308,12.1064075 42.0588711,10.9279805 41.1774059,9.32917903 L39.2250982,5.77322397 Z" id="Fill-13" fill="#16150B" mask="url(#mask-2)"></path>
                </g>
                <path d="M172.732747,59.3652914 L172.732747,27.0243625 L171.011136,27.0243625 C170.680586,27.7410667 170.232967,28.5228944 169.778462,29.1534562 C168.390842,31.0833888 166.087326,32.6542801 163.708059,33.5915086 L163.708059,34.0049918 L165.601832,34.0049918 L165.601832,58.5000779 L158.691282,58.5000779 L153.20967,48.5351341 C152.359194,46.9845723 151.718755,46.2923326 151.140293,46.2923326 C150.472308,46.2923326 149.501319,46.8815461 148.175678,48.0940854 L142.318755,53.4421453 L142.549451,53.6971266 L142.552894,53.6971266 L143.076264,53.4590292 C143.909524,53.0803476 144.729011,52.8908345 145.514066,52.8908345 C146.701978,52.8908345 147.944982,53.7174562 149.201758,55.3372764 L151.357216,58.3450217 C151.322784,58.4177258 151.315897,58.431164 151.278022,58.5000779 L139.509084,58.5000779 L137.415604,53.8590742 C136.658095,52.383973 136.007326,51.6948345 135.373773,51.6948345 L122.974725,51.6948345 C121.886667,51.6948345 121.043077,51.1228494 120.399194,49.9482127 L116.594432,42.9706846 C116.532454,42.9603476 116.504908,42.9534562 116.44293,42.9431191 L112.390256,46.5886622 L112.390256,47.005591 L112.459121,47.0366022 C113.288938,47.4049468 113.888059,47.9118082 114.232381,48.5385798 L116.611648,52.8357034 C117.861538,54.7721828 119.242271,55.9158082 120.719414,56.1676884 C121.204908,56.250385 122.041612,56.2569318 123.198535,56.2710592 L132.498681,56.2710592 L133.431795,58.3625948 C133.393919,58.4246172 133.380147,58.4415011 133.342271,58.5000779 L120.450842,58.5000779 C117.930403,58.5000779 115.420293,57.6631191 112.982491,56.0677633 L112.390256,56.0677633 L112.390256,63.065621 L154.869304,63.065621 C156.191502,64.2888419 157.634212,65.2401978 159.193993,65.9189993 L159.269744,65.9531116 C160.505861,66.4940854 162.279121,67.2662652 164.46178,67.2662652 C164.837436,67.2662652 165.22652,67.2452464 165.625934,67.1939056 C166.121758,67.1280929 166.613795,67.0281678 167.085861,66.8868944 L167.364762,66.8045423 L167.364762,66.459973 L167.092747,66.3738307 C166.441634,66.1705348 165.811868,65.9155536 165.195531,65.6188794 C164.971722,65.5086172 164.665275,65.3604524 164.29685,65.1468195 C163.911209,64.923194 163.460147,64.6334112 162.978095,64.2578307 C162.509817,63.8929318 162.082857,63.5035685 161.673114,63.065621 C162.836923,63.0694112 167.929451,63.065621 170.704689,63.065621 C173.474418,63.065621 174.816242,61.8113888 175.074139,61.6084375 L175.074139,60.8366022 C174.738425,60.8169618 173.95096,60.8124824 173.474418,60.5736959 C173.065018,60.3683326 172.732747,59.9899955 172.732747,59.3652914" id="Fill-16" fill="#16150B"></path>
                <path d="M99.0598513,25.7145858 C92.5556022,25.7145858 87.225148,20.5922187 86.8839245,14.1666906 L111.235778,14.1666906 C110.894555,20.5922187 105.5641,25.7145858 99.0598513,25.7145858 L99.0598513,25.7145858 Z M90.0658073,5.28162697 L94.9634484,10.1827805 C94.3550308,10.9325633 93.950452,11.8515296 93.8268403,12.8573273 L86.8839245,12.8573273 C87.0385253,9.94606142 88.217485,7.30252584 90.0658073,5.28162697 L90.0658073,5.28162697 Z M99.059507,9.53395655 C101.026621,9.53395655 102.659397,10.9756345 102.969976,12.8573273 L95.1490381,12.8573273 C95.4592725,10.9756345 97.0923934,9.53395655 99.059507,9.53395655 L99.059507,9.53395655 Z M98.4052945,8.26938727 C97.4770015,8.38516255 96.6248037,8.74317004 95.9099905,9.27828614 L91.0006425,4.3657618 C92.9984007,2.6008779 95.5742762,1.47792659 98.4052945,1.32769438 L98.4052945,8.26938727 Z M102.209023,9.27828614 C101.49421,8.74317004 100.642357,8.38516255 99.7137194,8.26938727 L99.7137194,1.32769438 C102.544738,1.47792659 105.120958,2.6008779 107.118371,4.36541723 L102.209023,9.27828614 Z M111.235778,12.8573273 L104.292518,12.8573273 C104.168562,11.8515296 103.763983,10.9325633 103.15591,10.1827805 L108.053895,5.28162697 C109.901873,7.30252584 111.081177,9.94571685 111.235778,12.8573273 L111.235778,12.8573273 Z M99.0598513,6.89138577e-05 C91.6028623,6.89138577e-05 85.5575949,6.04967191 85.5575949,13.512009 C85.5575949,20.9743461 91.6028623,27.0242936 99.0598513,27.0242936 C106.51684,27.0242936 112.562108,20.9743461 112.562108,13.512009 C112.562108,6.04967191 106.51684,6.89138577e-05 99.0598513,6.89138577e-05 L99.0598513,6.89138577e-05 Z" id="Fill-18" fill="#16150B"></path>
                <mask id="mask-4" fill="white">
                    <use xlink:href="#path-3"></use>
                </mask>
                <g id="Clip-21"></g>
                <polygon id="Fill-20" fill="#16150B" mask="url(#mask-4)" points="94.0557802 17.3235655 104.063165 17.3235655 104.063165 16.0138577 94.0557802 16.0138577"></polygon>
                <polygon id="Fill-22" fill="#16150B" mask="url(#mask-4)" points="96.3117802 20.4684494 101.807165 20.4684494 101.807165 19.1587416 96.3117802 19.1587416"></polygon>
                <path d="M47.7955223,80.4344974 C47.7955223,80.5771491 47.650907,80.8793363 47.3623648,81.3410592 C47.1440645,81.0502427 46.8568996,80.8307521 46.5012147,80.6825873 C46.2488264,80.5802502 46.1228044,80.4431116 46.1228044,80.2722052 C46.1228044,80.1354112 46.4554198,79.7960105 47.1213392,79.2546921 C47.138211,79.465224 47.2549363,79.6723101 47.4711707,79.8745723 C47.6874051,80.077179 47.7955223,80.2639356 47.7955223,80.4344974 L47.7955223,80.4344974 Z M46.9805114,86.5350966 L46.3803575,85.3673513 C46.1889143,84.995561 46.0931927,84.7181828 46.0931927,84.5345273 C46.0467092,84.5979281 45.9168996,84.7378232 45.7034198,84.955591 C45.5994344,85.0644749 45.5477861,85.1616434 45.5477861,85.2474412 C45.5477861,85.3962951 45.5997788,85.5678906 45.7041084,85.7625723 L46.1121304,86.5350966 C46.4767678,86.5409543 46.7663429,86.5409543 46.9805114,86.5350966 L46.9805114,86.5350966 Z M45.8136029,80.4344974 C45.8136029,80.5771491 45.6689875,80.8793363 45.3804454,81.3410592 C45.1624894,81.0502427 44.8753245,80.8307521 44.5192952,80.6825873 C44.266907,80.5802502 44.140885,80.4431116 44.140885,80.2722052 C44.140885,80.1354112 44.4738447,79.7960105 45.1394198,79.2546921 C45.1562916,79.465224 45.2730168,79.6723101 45.4892513,79.8745723 C45.7054857,80.077179 45.8136029,80.2639356 45.8136029,80.4344974 L45.8136029,80.4344974 Z M49.9833465,87.8230966 L43.5231707,87.8230966 C43.7573099,87.5312464 43.8747238,87.3310517 43.8747238,87.2221678 C43.8747238,87.1074262 43.8189436,86.9289393 43.7073832,86.6856734 C43.596167,86.4424075 43.5403868,86.2122352 43.5403868,85.9944674 C43.5403868,85.582018 43.6915443,85.2243551 43.9948923,84.9211341 L45.4190095,83.4873813 L44.9045919,82.4998457 L46.0580718,81.4010142 L46.553896,82.3368644 L47.126504,81.7617783 C47.0004821,82.1166846 46.9378154,82.4457483 46.9378154,82.7489693 C46.9378154,82.983621 47.1388996,83.4901378 47.5410681,84.2685199 L48.7134857,86.5350966 L49.9833465,86.5350966 L49.9833465,87.8230966 Z" id="Fill-23" fill="#1D1D1B" mask="url(#mask-4)"></path>
                <polygon id="Fill-24" fill="#1D1D1B" mask="url(#mask-4)" points="49.3827106 87.8231311 58.8457216 87.8231311 58.8457216 86.5351311 49.3827106 86.5351311"></polygon>
                <path d="M62.14037,90.7803281 C62.14037,90.9226352 61.9957546,91.2248225 61.7068681,91.6865453 C61.4889121,91.3957288 61.2017473,91.1762382 60.8460623,91.028418 C60.593674,90.9257363 60.467652,90.7885978 60.467652,90.6176914 C60.467652,90.4808974 60.7999231,90.1414966 61.4661868,89.6001783 C61.4830586,89.8110547 61.5997839,90.0177963 61.8160183,90.2200584 C62.0322527,90.4226652 62.14037,90.6094217 62.14037,90.7803281 L62.14037,90.7803281 Z M60.1674029,90.7803281 C60.1674029,90.9226352 60.0227875,91.2248225 59.7339011,91.6865453 C59.5156007,91.3957288 59.2287802,91.1762382 58.8730952,91.028418 C58.6203626,90.9257363 58.4939963,90.7885978 58.4939963,90.6176914 C58.4939963,90.4808974 58.826956,90.1414966 59.4928755,89.6001783 C59.5097473,89.8110547 59.6264725,90.0177963 59.842707,90.2200584 C60.0589414,90.4226652 60.1674029,90.6094217 60.1674029,90.7803281 L60.1674029,90.7803281 Z M63.6505678,87.8232345 L62.2863626,87.8232345 C62.1889194,87.9548599 62.0253663,88.1295566 61.7960476,88.3469798 L60.4631758,89.6001783 C60.3946557,89.2569873 60.1732564,88.8748599 59.7993223,88.4541408 C59.4253883,88.0334217 59.1072344,87.8232345 58.8448608,87.8232345 L58.2450513,87.8232345 L58.2450513,86.5352345 L58.8190366,86.5352345 C59.0132344,86.5352345 59.3699524,86.7929723 59.8898791,87.3081034 C60.07237,87.4969273 60.3667656,87.8004929 60.7716886,88.2177663 C60.8777399,88.0919985 60.9304212,87.960373 60.9304212,87.8232345 C60.9304212,87.7088375 60.8364212,87.4597139 60.6473883,87.0762082 L60.270011,86.3119536 C59.97837,85.7223955 59.8327216,85.3278637 59.8327216,85.1273243 C59.8327216,84.7782757 59.9714835,84.4461109 60.2503846,84.1311745 C60.6022821,83.7879835 60.9552125,83.4475491 61.3081429,83.1095266 C61.2282601,83.3669199 61.1879744,83.5905453 61.1879744,83.7793693 C61.1879744,83.9850772 61.3108974,84.3344704 61.5570879,84.8268599 L62.1231538,85.9601483 C62.254685,86.2230547 62.3435201,86.4149798 62.389315,86.5352345 L63.6505678,86.5352345 L63.6505678,87.8232345 Z" id="Fill-25" fill="#1D1D1B" mask="url(#mask-4)"></path>
                <path d="M68.6952689,86.5351311 L67.9246755,85.0241948 C67.7518256,84.6865169 67.5510857,84.5176779 67.3224557,84.5176779 C67.2250125,84.5176779 67.0652469,84.6379326 66.8417817,84.8780974 C66.9388806,84.9638951 67.0652469,85.1616779 67.2195033,85.4707566 L67.7514813,86.5351311 L68.6952689,86.5351311 Z M66.4385802,86.5351311 L66.162778,85.9945019 C65.9382799,85.5593109 65.6796938,85.3418876 65.3866755,85.3418876 C65.0068879,85.3418876 64.8171663,85.50797 64.8171663,85.8397903 C64.8171663,86.0113858 64.9135766,86.1702322 65.1060527,86.3163296 C65.2988733,86.4620824 65.5071883,86.5351311 65.7316864,86.5351311 L66.4385802,86.5351311 Z M71.4405509,87.8231311 L63.0497597,87.8231311 L63.0497597,86.5351311 L63.8561626,86.5351311 C63.6388952,86.3514757 63.5304337,86.1188914 63.5304337,85.8373783 C63.5304337,85.3835805 63.71017,84.992839 64.0706755,84.6654981 C64.431181,84.3381573 64.8343824,84.1741423 65.2806242,84.1741423 C65.3150564,84.1741423 65.3976938,84.1713858 65.5295692,84.1655281 L65.7778256,84.1655281 L68.574756,81.375206 C68.4490784,81.7304569 68.3864117,82.0595206 68.3864117,82.3627416 C68.3864117,82.5801648 68.5578842,83.0294831 68.9011736,83.7106966 L70.3249465,86.5351311 L71.4405509,86.5351311 L71.4405509,87.8231311 Z" id="Fill-26" fill="#1D1D1B" mask="url(#mask-4)"></path>
                <path d="M74.7350271,90.7803281 C74.7350271,90.9226352 74.5904117,91.2248225 74.3015253,91.6865453 C74.0835692,91.3957288 73.7964044,91.1762382 73.4407194,91.028418 C73.1883311,90.9257363 73.0623092,90.7885978 73.0623092,90.6176914 C73.0623092,90.4808974 73.3945802,90.1414966 74.060844,89.6001783 C74.0777158,89.8110547 74.194441,90.0177963 74.4106755,90.2200584 C74.6269099,90.4226652 74.7350271,90.6094217 74.7350271,90.7803281 L74.7350271,90.7803281 Z M72.7620601,90.7803281 C72.7620601,90.9226352 72.6174447,91.2248225 72.3285582,91.6865453 C72.1102579,91.3957288 71.8234374,91.1762382 71.4677524,91.028418 C71.2150198,90.9257363 71.0886535,90.7885978 71.0886535,90.6176914 C71.0886535,90.4808974 71.4216132,90.1414966 72.0875326,89.6001783 C72.1044044,89.8110547 72.2211297,90.0177963 72.4373641,90.2200584 C72.6535985,90.4226652 72.7620601,90.6094217 72.7620601,90.7803281 L72.7620601,90.7803281 Z M76.2452249,87.8232345 L74.8810198,87.8232345 C74.7835766,87.9548599 74.6200234,88.1295566 74.3907048,88.3469798 L73.057833,89.6001783 C72.9893128,89.2569873 72.7679136,88.8748599 72.3939795,88.4541408 C72.0200454,88.0334217 71.7018916,87.8232345 71.4395179,87.8232345 L70.8397084,87.8232345 L70.8397084,86.5352345 L71.4136938,86.5352345 C71.6078916,86.5352345 71.9646095,86.7929723 72.4845363,87.3081034 C72.6670271,87.4969273 72.9614227,87.8004929 73.3663458,88.2177663 C73.4723971,88.0919985 73.5250784,87.960373 73.5250784,87.8232345 C73.5250784,87.7088375 73.4310784,87.4597139 73.2420454,87.0762082 L72.8646681,86.3119536 C72.5730271,85.7223955 72.4273788,85.3278637 72.4273788,85.1273243 C72.4273788,84.7782757 72.5661407,84.4461109 72.8450418,84.1311745 C73.1969392,83.7879835 73.5498696,83.4475491 73.9028,83.1095266 C73.8229172,83.3669199 73.7826315,83.5905453 73.7826315,83.7793693 C73.7826315,83.9850772 73.9055546,84.3344704 74.1517451,84.8268599 L74.717811,85.9601483 C74.8493421,86.2230547 74.9381773,86.4149798 74.9839722,86.5352345 L76.2452249,86.5352345 L76.2452249,87.8232345 Z" id="Fill-27" fill="#1D1D1B" mask="url(#mask-4)"></path>
                <path d="M80.1571055,86.2605438 C80.1571055,86.1116899 80.099948,85.9287236 79.985633,85.7109558 L79.2649663,84.3457723 C79.1847392,84.1914052 79.1447978,84.068394 79.1447978,83.9767386 C79.1447978,83.7992854 79.150307,83.6793753 79.1616696,83.6159745 C78.761567,83.953997 78.5611714,84.2341318 78.5611714,84.4577573 C78.5611714,84.6176375 78.6296916,84.8240345 78.7674205,85.0759146 L79.4023509,86.2433154 C79.5335377,86.4834801 79.6079114,86.6671356 79.6251275,86.7929034 C79.6364901,86.8845588 79.6364901,86.9586412 79.6251275,87.0158397 C79.9797795,86.7012479 80.1571055,86.4493678 80.1571055,86.2605438 M81.3498381,85.659615 C81.3498381,86.134776 81.1356696,86.5782367 80.7069883,86.9903416 L78.0081897,89.6001094 C77.9393253,89.2569184 77.6824608,88.874791 77.2386293,88.4540719 C76.7944535,88.0336974 76.4150103,87.8231655 76.0999553,87.8231655 L75.6444168,87.8231655 L75.6444168,86.5351655 L76.0734425,86.5351655 C76.4793985,86.5351655 76.9270176,86.7898022 77.4159553,87.2994202 C77.904893,87.8086936 78.1865487,88.0633303 78.2609223,88.0633303 C78.4843875,88.0633303 78.5956037,87.9833903 78.5956037,87.8231655 C78.5956037,87.6973978 78.4210322,87.4655026 78.0722337,87.1278247 L76.9397575,86.0372629 C76.6136842,85.7223266 76.4508198,85.4018772 76.4508198,85.0759146 C76.4508198,84.8412629 76.6109297,84.5635401 76.9311495,84.2430906 L79.9253766,81.2381019 C79.8454938,81.4954951 79.8055524,81.718776 79.8055524,81.9076 C79.8055524,82.1191655 79.9284755,82.4685588 80.1743216,82.9550906 L80.9807245,84.5518247 C81.2265707,85.0383566 81.3498381,85.4077348 81.3498381,85.659615 M77.3174791,81.1130232 C77.3174791,81.2556749 77.1728637,81.5575176 76.8839773,82.0192404 C76.6660212,81.7287685 76.3788564,81.5089333 76.0231714,81.3607685 C75.7707832,81.2580869 75.6444168,81.1216375 75.6444168,80.9503865 C75.6444168,80.8135925 75.9770322,80.4745363 76.6429516,79.9328734 C76.6601678,80.1437498 76.776893,80.3504914 76.9931275,80.5530981 C77.2090176,80.7550157 77.3174791,80.9417723 77.3174791,81.1130232" id="Fill-28" fill="#1D1D1B" mask="url(#mask-4)"></path>
                <path d="M89.6458029,87.8232 L87.7241399,87.8232 L84.3267114,91.1458816 C83.8002425,91.6610127 83.1281253,91.918406 82.3103597,91.918406 C82.1103084,91.918406 81.9333267,91.8898067 81.7783817,91.8326082 C81.9044037,91.7981513 82.0844842,91.7437094 82.3193121,91.6692824 C82.7765722,91.4749453 83.2600007,91.1286532 83.7692535,90.630406 L86.3427187,88.1236644 C86.7948139,87.6884734 87.0206894,87.3308105 87.0206894,87.0503311 C87.0206894,86.9931326 86.8795172,86.6812974 86.5971729,86.1144809 L86.2173853,85.3502262 C85.9233341,84.7610127 85.7766527,84.3661363 85.7766527,84.165597 C85.7766527,83.8165483 85.9174806,83.4843835 86.1994806,83.1697918 C86.5558542,82.8262562 86.9129165,82.4858217 87.2696344,82.1477993 C87.189063,82.4055371 87.1494659,82.628818 87.1494659,82.8176419 C87.1494659,83.0236944 87.271356,83.3730876 87.5158249,83.8651326 L88.0787919,84.998421 C88.3797297,85.6052075 88.5305429,86.0603835 88.5305429,86.3636045 C88.5305429,86.4435446 88.5277883,86.5007431 88.5219348,86.5352 L89.6458029,86.5352 L89.6458029,87.8232 Z" id="Fill-29" fill="#1D1D1B" mask="url(#mask-4)"></path>
                <path d="M93.3438938,81.9715865 C93.3438938,82.1138936 93.1992784,82.4160809 92.9103919,82.8778037 C92.6924359,82.5869873 92.4052711,82.3674966 92.0495861,82.2193318 C91.7971978,82.1169948 91.6708315,81.9798562 91.6708315,81.8089498 C91.6708315,81.6721558 92.0034469,81.3327551 92.6693663,80.7914367 C92.6865824,81.0023131 92.8033077,81.2090547 93.0195421,81.4113169 C93.2357766,81.6139236 93.3438938,81.8006801 93.3438938,81.9715865 L93.3438938,81.9715865 Z M91.3705824,81.9715865 C91.3705824,82.1138936 91.2263114,82.4160809 90.9374249,82.8778037 C90.7191245,82.5869873 90.432304,82.3674966 90.076619,82.2193318 C89.8235421,82.1169948 89.6975201,81.9798562 89.6975201,81.8089498 C89.6975201,81.6721558 90.0304799,81.3327551 90.6963993,80.7914367 C90.7132711,81.0023131 90.829652,81.2090547 91.0458864,81.4113169 C91.2624652,81.6139236 91.3705824,81.8006801 91.3705824,81.9715865 L91.3705824,81.9715865 Z M94.4505458,87.8230622 L93.0863407,87.8230622 C92.9888974,87.9546876 92.8253443,88.1293843 92.5960256,88.3468075 L91.2631538,89.6003506 C91.1946337,89.2571596 90.9732344,88.8746876 90.5996447,88.4539685 C90.2257106,88.033594 89.9075568,87.8230622 89.6448388,87.8230622 L89.0457179,87.8230622 L89.0457179,86.5350622 L89.619359,86.5350622 C89.8135568,86.5350622 90.1702747,86.7928 90.6898571,87.3079311 C90.8726923,87.4967551 91.1667436,87.8003206 91.572011,88.2179386 C91.6777179,88.0921708 91.7307436,87.9605453 91.7307436,87.8230622 C91.7307436,87.7086652 91.6363993,87.4598861 91.4477106,87.076036 L91.069989,86.3121258 C90.7786923,85.7225678 90.6326996,85.3276914 90.6326996,85.1271521 C90.6326996,84.7784479 90.7718059,84.4462831 91.0503626,84.1313468 C91.4026044,83.7878112 91.7555348,83.4473768 92.1084652,83.1096989 C92.0282381,83.3670921 91.9879524,83.590373 91.9879524,83.779197 C91.9879524,83.9852494 92.1112198,84.3342981 92.3570659,84.8266876 L92.9231319,85.959976 C93.0550073,86.223227 93.1434982,86.4151521 93.189293,86.5350622 L94.4505458,86.5350622 L94.4505458,87.8230622 Z" id="Fill-30" fill="#1D1D1B" mask="url(#mask-4)"></path>
                <path d="M97.2989179,87.350761 C97.0234601,87.6656974 96.6767275,87.8231655 96.2583758,87.8231655 L93.849841,87.8231655 L93.849841,86.5351655 L94.9967788,86.5351655 C95.1062733,86.5351655 95.2137018,86.4783116 95.3204418,86.36357 C95.4268374,86.249173 95.4802073,86.1316749 95.4802073,86.0114202 L95.4802073,80.7998097 C95.4802073,80.4393903 95.1510352,79.6754801 94.4933795,78.5077348 C94.8807421,78.5077348 95.5067201,78.0039745 96.3723465,76.9964539 L96.3723465,86.0889483 C96.3723465,86.4893378 96.4126322,86.7584464 96.493548,86.8959296 C96.608896,87.0902667 96.8771231,87.2422217 97.2989179,87.350761" id="Fill-31" fill="#1D1D1B" mask="url(#mask-4)"></path>
                <path d="M102.601275,87.5997813 C102.49247,87.7489798 102.074807,87.8230622 101.348286,87.8230622 C100.547393,87.8230622 99.9913121,87.7145228 99.6790117,87.4967551 C99.3388212,87.2565903 99.1690703,86.8158861 99.1690703,86.1746427 L99.1690703,80.8000509 C99.1690703,80.4396315 98.8402425,79.6753768 98.1825868,78.5076315 C98.6205648,78.5076315 99.2472315,78.0038712 100.06121,76.9966951 L100.06121,85.2219086 C100.06121,85.8342082 100.207202,86.303167 100.499188,86.6298187 C100.733671,86.8930697 101.131019,87.1277213 101.691232,87.3337738 C101.908499,87.3909723 102.211847,87.4795266 102.601275,87.5997813" id="Fill-32" fill="#1D1D1B" mask="url(#mask-4)"></path>
                <path d="M111.841131,80.4344974 C111.841131,80.5771491 111.696516,80.8793363 111.407629,81.3410592 C111.189673,81.0502427 110.902508,80.8307521 110.546823,80.6825873 C110.294435,80.5802502 110.168069,80.4431116 110.168069,80.2722052 C110.168069,80.1354112 110.500684,79.7960105 111.166604,79.2546921 C111.18382,79.465224 111.300545,79.6723101 111.516779,79.8745723 C111.733014,80.077179 111.841131,80.2639356 111.841131,80.4344974 L111.841131,80.4344974 Z M111.02612,86.5350966 L110.425966,85.3673513 C110.234179,84.995561 110.138801,84.7181828 110.138801,84.5345273 C110.092318,84.5979281 109.962508,84.7378232 109.749029,84.955591 C109.645043,85.0644749 109.593395,85.1616434 109.593395,85.2474412 C109.593395,85.3962951 109.645388,85.5678906 109.749717,85.7625723 L110.157395,86.5350966 C110.522377,86.5409543 110.811952,86.5409543 111.02612,86.5350966 L111.02612,86.5350966 Z M109.859212,80.4344974 C109.859212,80.5771491 109.714596,80.8793363 109.42571,81.3410592 C109.208098,81.0502427 108.920933,80.8307521 108.564904,80.6825873 C108.312516,80.5802502 108.186149,80.4431116 108.186149,80.2722052 C108.186149,80.1354112 108.519109,79.7960105 109.185029,79.2546921 C109.2019,79.465224 109.318626,79.6723101 109.53486,79.8745723 C109.751095,80.077179 109.859212,80.2639356 109.859212,80.4344974 L109.859212,80.4344974 Z M114.028955,87.8230966 L107.568435,87.8230966 C107.802919,87.5312464 107.919988,87.3310517 107.919988,87.2221678 C107.919988,87.1074262 107.864552,86.9289393 107.752992,86.6856734 C107.641432,86.4424075 107.585651,86.2122352 107.585651,85.9944674 C107.585651,85.582018 107.737153,85.2243551 108.040501,84.9211341 L109.464618,83.4873813 L108.949856,82.4998457 L110.103681,81.4010142 L110.599505,82.3368644 L111.172113,81.7617783 C111.045747,82.1166846 110.98308,82.4457483 110.98308,82.7489693 C110.98308,82.983621 111.184164,83.4901378 111.586677,84.2685199 L112.759095,86.5350966 L114.028955,86.5350966 L114.028955,87.8230966 Z" id="Fill-33" fill="#1D1D1B" mask="url(#mask-4)"></path>
                <polygon id="Fill-34" fill="#1D1D1B" mask="url(#mask-4)" points="113.428388 87.8231311 122.891399 87.8231311 122.891399 86.5351311 113.428388 86.5351311"></polygon>
                <path d="M126.803693,86.2605438 C126.803693,86.1116899 126.746536,85.9287236 126.632221,85.7109558 L125.91121,84.3457723 C125.831327,84.1914052 125.791385,84.068394 125.791385,83.9767386 C125.791385,83.7992854 125.796895,83.6793753 125.808257,83.6159745 C125.40781,83.953997 125.207759,84.2341318 125.207759,84.4577573 C125.207759,84.6176375 125.276279,84.8240345 125.413664,85.0759146 L126.048938,86.2433154 C126.180125,86.4834801 126.254499,86.6671356 126.271715,86.7929034 C126.283078,86.8845588 126.283078,86.9586412 126.271715,87.0158397 C126.626023,86.7012479 126.803693,86.4493678 126.803693,86.2605438 L126.803693,86.2605438 Z M125.937034,80.3315401 C125.937034,80.4741918 125.792418,80.7760345 125.503876,81.2381019 C125.28592,80.9472854 124.998755,80.7277948 124.64307,80.57963 C124.390338,80.4769483 124.263971,80.3401543 124.263971,80.1689034 C124.263971,80.0324539 124.596931,79.6930532 125.262851,79.1517348 C125.279722,79.3622667 125.396448,79.5693528 125.612682,79.771615 C125.828916,79.9738772 125.937034,80.1606337 125.937034,80.3315401 L125.937034,80.3315401 Z M129.025605,87.8231655 L126.497246,87.8231655 L124.654433,89.6001094 C124.585913,89.2569184 124.329048,88.874791 123.885217,88.4540719 C123.441041,88.0336974 123.061598,87.8231655 122.746543,87.8231655 L122.291004,87.8231655 L122.291004,86.5351655 L122.72003,86.5351655 C123.125642,86.5351655 123.573261,86.7898022 124.062543,87.2994202 C124.551481,87.8086936 124.833136,88.0633303 124.90751,88.0633303 C125.130631,88.0633303 125.242191,87.9833903 125.242191,87.8231655 C125.242191,87.6973978 125.06762,87.4655026 124.718821,87.1278247 L123.586345,86.0372629 C123.260272,85.7223266 123.097063,85.4018772 123.097063,85.0759146 C123.097063,84.8412629 123.257173,84.5635401 123.577737,84.2430906 L126.571964,81.2381019 C126.492081,81.4954951 126.45214,81.718776 126.45214,81.9076 C126.45214,82.1191655 126.574719,82.4685588 126.820909,82.9550906 L127.627312,84.5518247 C127.872814,85.0383566 127.996081,85.4077348 127.996081,85.659615 C127.996081,86.0200345 127.915854,86.3118846 127.756089,86.5351655 L129.025605,86.5351655 L129.025605,87.8231655 Z M123.963722,80.3315401 C123.963722,80.4741918 123.819451,80.7760345 123.530565,81.2381019 C123.312264,80.9472854 123.025444,80.7277948 122.669759,80.57963 C122.417371,80.4769483 122.291004,80.3401543 122.291004,80.1689034 C122.291004,80.0324539 122.62362,79.6930532 123.289539,79.1517348 C123.306755,79.3622667 123.423481,79.5693528 123.639715,79.771615 C123.855605,79.9738772 123.963722,80.1606337 123.963722,80.3315401 L123.963722,80.3315401 Z" id="Fill-35" fill="#1D1D1B" mask="url(#mask-4)"></path>
                <path d="M134.302138,86.5351311 L133.941633,85.8397903 L130.681245,85.8397903 L131.024534,86.5351311 L134.302138,86.5351311 Z M136.987508,87.8231311 L128.425245,87.8231311 L128.425245,86.5351311 L129.025743,86.5351311 L129.025743,80.7997753 C129.025743,80.4397004 128.696915,79.6754457 128.039259,78.5077004 C128.426278,78.5077004 129.0526,78.0039401 129.918226,76.9964195 L129.918226,84.5517903 L134.681582,84.5517903 C134.858219,84.5517903 135.035201,84.7378577 135.212527,85.1099925 L135.88912,86.5351311 L136.987508,86.5351311 L136.987508,87.8231311 Z" id="Fill-36" fill="#1D1D1B" mask="url(#mask-4)"></path>
                <path d="M139.080954,81.9715865 C139.080954,82.1138936 138.936338,82.4160809 138.647452,82.8778037 C138.429496,82.5869873 138.142331,82.3674966 137.786646,82.2193318 C137.534258,82.1169948 137.407892,81.9798562 137.407892,81.8089498 C137.407892,81.6721558 137.740507,81.3327551 138.406426,80.7914367 C138.423642,81.0023131 138.540368,81.2090547 138.756602,81.4113169 C138.972837,81.6139236 139.080954,81.8006801 139.080954,81.9715865 L139.080954,81.9715865 Z M141.80902,87.8230622 L140.445159,87.8230622 C140.347371,87.9546876 140.183818,88.1293843 139.954844,88.3468075 L138.621972,89.6003506 C138.553108,89.2571596 138.332053,88.8746876 137.958119,88.4539685 C137.584185,88.033594 137.266031,87.8230622 137.003313,87.8230622 L136.404192,87.8230622 L136.404192,86.5350622 L136.978177,86.5350622 C137.172031,86.5350622 137.528749,86.7928 138.048331,87.3079311 C138.231166,87.4967551 138.525562,87.8003206 138.930485,88.2179386 C139.036536,88.0921708 139.089218,87.9605453 139.089218,87.8230622 C139.089218,87.7086652 138.994873,87.4598861 138.806185,87.076036 L138.428807,86.3121258 C138.137166,85.7225678 137.991174,85.3276914 137.991174,85.1271521 C137.991174,84.7784479 138.13028,84.4462831 138.409181,84.1313468 C138.761078,83.7878112 139.114009,83.4473768 139.466939,83.1096989 C139.386712,83.3670921 139.346771,83.590373 139.346771,83.779197 C139.346771,83.9852494 139.469694,84.3342981 139.715884,84.8266876 L140.28195,85.959976 C140.413481,86.223227 140.501972,86.4151521 140.548111,86.5350622 L141.80902,86.5350622 L141.80902,87.8230622 Z" id="Fill-37" fill="#1D1D1B" mask="url(#mask-4)"></path>
                <path d="M145.086418,86.5351311 L144.494183,85.3673858 C144.305495,84.9955955 144.21115,84.7182172 144.21115,84.5345618 C144.164667,84.5979625 144.033824,84.7378577 143.818967,84.9556255 C143.714637,85.0641648 143.661956,85.1616779 143.661956,85.2474757 C143.661956,85.3963296 143.714637,85.5679251 143.818967,85.7626067 L144.228366,86.5351311 C144.588872,86.5409888 144.874659,86.5409888 145.086418,86.5351311 L145.086418,86.5351311 Z M148.089253,87.8231311 L141.208315,87.8231311 L141.208315,86.5351311 L142.023326,86.5351311 L141.86907,86.2091685 C141.77748,86.0430861 141.731685,85.8914757 141.731685,85.7536479 C141.731685,85.4507715 141.858051,85.1730487 142.110095,84.9211685 L145.25789,81.7614682 C145.132212,82.1167191 145.069201,82.4457828 145.069201,82.7490037 C145.069201,82.9781423 145.238952,83.4271161 145.579143,84.0969588 L146.819392,86.5351311 L148.089253,86.5351311 L148.089253,87.8231311 Z" id="Fill-38" fill="#1D1D1B" mask="url(#mask-4)"></path>
                <path d="M150.937522,87.350761 C150.662064,87.6656974 150.315331,87.8231655 149.896979,87.8231655 L147.488445,87.8231655 L147.488445,86.5351655 L148.635382,86.5351655 C148.744877,86.5351655 148.852305,86.4783116 148.959045,86.36357 C149.065441,86.249173 149.118811,86.1316749 149.118811,86.0114202 L149.118811,80.7998097 C149.118811,80.4393903 148.789639,79.6754801 148.132327,78.5077348 C148.519346,78.5077348 149.145668,78.0039745 150.01095,76.9964539 L150.01095,86.0889483 C150.01095,86.4893378 150.051236,86.7584464 150.132152,86.8959296 C150.2475,87.0902667 150.516071,87.2422217 150.937522,87.350761" id="Fill-39" fill="#1D1D1B" mask="url(#mask-4)"></path>
                <path d="M156.239914,87.5997813 C156.131108,87.7489798 155.713789,87.8230622 154.987269,87.8230622 C154.186375,87.8230622 153.62995,87.7145228 153.317994,87.4967551 C152.977804,87.2565903 152.808053,86.8158861 152.808053,86.1746427 L152.808053,80.8000509 C152.808053,80.4396315 152.478881,79.6753768 151.821569,78.5076315 C152.259547,78.5076315 152.886214,78.0038712 153.700192,76.9966951 L153.700192,85.2219086 C153.700192,85.8342082 153.846185,86.303167 154.13817,86.6298187 C154.372309,86.8930697 154.769657,87.1277213 155.330214,87.3337738 C155.547481,87.3909723 155.850829,87.4795266 156.239914,87.5997813" id="Fill-40" fill="#1D1D1B" mask="url(#mask-4)"></path>
            </g>
        </g>
    </g>
</svg>