<?xml version="1.0" encoding="UTF-8"?>
<svg width="480px" height="480px" viewBox="0 0 480 480" version="1.1" xmlns="http://www.w3.org/2000/svg" xmlns:xlink="http://www.w3.org/1999/xlink">
    <title>Shape</title>
    <g id="Page-1" stroke="none" stroke-width="1" fill="none" fill-rule="evenodd">
        <g id="013-boat" fill="#5E9DD2" fill-rule="nonzero">
            <path d="M8,480 L472,480 C476.418278,480 480,476.418278 480,472 L480,443.136 C480,440.461393 478.663319,437.963738 476.438,436.48 L422.188,400.313 C414.522837,395.194822 405.322125,392.888196 396.149,393.785 L439.01,315.855 C440.737146,312.714775 440.165118,308.80905 437.61,306.296 C431.351333,300.142 424.962,294.302667 418.442,288.778 L386.246,160 L432,160 C445.248666,159.98512 455.98512,149.248666 456,136 L456,104 C456,99.581722 452.418278,96 448,96 L440,96 L440,40 C440,35.581722 436.418278,32 432,32 L344,32 L344,24 C343.98457,10.7515624 333.248438,0.0154295246 320,0 L160,0 C146.751562,0.0154295246 136.01543,10.7515624 136,24 L136,32 L48,32 C43.581722,32 40,35.581722 40,40 L40,96 L32,96 C27.581722,96 24,99.581722 24,104 L24,136 C24.0148797,149.248666 34.7513343,159.98512 48,160 L93.754,160 L61.554,288.778 C55.0313333,294.316 48.642,300.155333 42.386,306.296 C39.8308822,308.80905 39.2588542,312.714775 40.986,315.855 L83.53,393.207 C77.5170631,393.725628 71.7006071,395.603923 66.52,398.7 L3.884,436.276 C1.47435245,437.721805 0,440.325884 0,443.136 L0,472 C0,476.418278 3.581722,480 8,480 Z M240,336 C235.581722,336 232,339.581722 232,344 L232,393 C227.832468,393.922542 223.840473,395.50948 220.177,397.7 L173.249,425.857 C165.288938,430.602202 155.313597,430.365074 147.588,425.247 L109.288,399.713 C107.502698,398.528697 105.623807,397.491929 103.67,396.613 L74.85,344.213 C116.377,301.476 162.929,275.989 232.001,258.229 L232.001,312 C232.001,316.418278 235.582722,320 240.001,320 C244.419278,320 248.001,316.418278 248.001,312 L248.001,258.232 C317.073,275.992 363.625,301.479 405.152,344.216 L372.263,404.016 L339.656,425.754 C332.240524,430.714401 322.681527,431.138389 314.856,426.854 L259.916,396.886 C256.194711,394.860528 252.173693,393.442656 248.005,392.686 L248.005,344 C248.005,341.877401 247.161459,339.841812 245.660087,338.341377 C244.158714,336.840942 242.122598,335.998673 240,336 Z M241.715,208.186 C240.585113,207.938015 239.414887,207.938015 238.285,208.186 C195.404,217.599 161.372,228.792 131.185,243.411 C127.489,245.201 123.843667,247.052667 120.249,248.966 L134.27,192 L345.73,192 L359.753,248.966 C356.153,247.058 352.507333,245.206333 348.816,243.411 C318.628,228.792 284.6,217.6 241.715,208.186 Z M413.194,329.593 C391.761154,307.996817 367.180673,289.771759 340.289,275.538 C314,261.648 284.531,250.848 248,241.726 L248,226.018 C324.758,243.979 376.145,269.829 422.045,313.5 L413.194,329.593 Z M424,96 L376,96 L376,48 L424,48 L424,96 Z M120,96 L120,48 L168,48 L168,96 L120,96 Z M184,48 L232,48 L232,96 L184,96 L184,48 Z M248,48 L296,48 L296,96 L248,96 L248,48 Z M312,48 L360,48 L360,96 L312,96 L312,48 Z M152,24 C152.00496,19.5837781 155.583778,16.0049599 160,16 L320,16 C324.416222,16.0049599 327.99504,19.5837781 328,24 L328,32 L152,32 L152,24 Z M56,48 L104,48 L104,96 L56,96 L56,48 Z M40,136 L40,112 L440,112 L440,136 C439.99504,140.416222 436.416222,143.99504 432,144 L48,144 C43.5837781,143.99504 40.0049599,140.416222 40,136 Z M110.246,160 L369.754,160 L397.928,272.7 C391.736,268.228 385.405667,263.982667 378.937,259.964 L359.768,182.088 C358.888062,178.512948 355.681751,176.000072 352,176 L128,176 C124.318249,176.000072 121.111938,178.512948 120.232,182.088 L101.063,259.964 C94.585,263.978 88.2543333,268.223333 82.071,272.7 L110.246,160 Z M232,226.018 L232,241.726 C195.469,250.848 166,261.648 139.711,275.538 C112.819327,289.771759 88.2388455,307.996817 66.806,329.593 L57.955,313.5 C103.854,269.829 155.241,243.979 232,226.018 Z M16,447.666 L74.751,412.415 C82.7109341,407.669311 92.6865536,407.906446 100.412,413.025 L138.712,438.56 C151.587065,447.09143 168.212963,447.486794 181.479,439.577 L228.408,411.42 C235.711328,407.059617 244.772679,406.87338 252.249,410.93 L307.189,440.9 C320.233869,448.044051 336.169973,447.337099 348.531,439.066 L383.902,415.486 L384.142,415.618 L384.396,415.157 L386.687,413.629 C394.74368,408.237963 405.25632,408.237963 413.313,413.629 L464,447.417 L464,464 L16,464 L16,447.666 Z" id="Shape"></path>
        </g>
    </g>
</svg>