<?xml version="1.0" encoding="UTF-8"?>
<svg width="61px" height="48px" viewBox="0 0 61 48" version="1.1" xmlns="http://www.w3.org/2000/svg" xmlns:xlink="http://www.w3.org/1999/xlink">
    <title>Kids pool</title>
    <g id="V2-Pages" stroke="none" stroke-width="1" fill="none" fill-rule="evenodd">
        <g id="Artboard-Copy" transform="translate(-1369.000000, -197.000000)" fill="#419E9C" fill-rule="nonzero">
            <g id="swimming-pool" transform="translate(1369.000000, 197.000000)">
                <path d="M60.9979746,16.6836548 L60.997498,16.6715939 C60.9696191,11.8222538 57.3166484,7.52564467 51.4096563,4.52125888 C51.2703809,4.392 51.0981035,4.30586802 50.9128398,4.27273096 C44.4854414,1.38274112 37.520123,-0.0431269036 30.5,0.0938071066 C13.4316758,0.0938071066 0.0561152344,7.37092386 0.00250195312,16.6715939 L0.00202539062,16.6836548 C0.00190625,16.6982741 0,16.7126497 0,16.7273909 L0,31.2816244 C0,40.6090964 13.3973633,47.9150863 30.5,47.9150863 C47.6026367,47.9150863 61,40.6089746 61,31.2816244 L61,16.7273909 C61,16.7126497 60.9980937,16.6982741 60.9979746,16.6836548 Z M58.8316406,15.3234518 C56.4619336,14.9109442 54.037541,14.9589442 51.6852285,15.4646497 C51.0555703,12.8285482 48.4765332,10.5283249 44.6459238,8.89352284 C46.4265996,7.67049746 48.4274473,6.8222132 50.5319473,6.39788832 C55.1258906,8.72698477 58.177916,11.8484467 58.8316406,15.3234518 Z M31.516627,2.18619289 C36.9860156,2.22517766 42.4098926,3.20491371 47.5614141,5.08434518 C45.6723203,5.67179695 43.941207,6.69685279 42.502584,8.07971574 C38.9384922,6.97815228 35.2397715,6.39764467 31.516627,6.35573604 L31.516627,2.18619289 Z M29.483373,2.18619289 L29.483373,6.35561421 C25.7602285,6.39764467 22.0615078,6.97803046 18.497416,8.07959391 C17.0591504,6.69685279 15.3285137,5.67167513 13.4398965,5.08373604 C18.5909414,3.20479188 24.0144609,2.22529949 29.483373,2.18619289 Z M10.4680527,6.39788832 C12.5725527,6.8222132 14.5734004,7.67049746 16.3540762,8.89352284 C12.5234668,10.5283249 9.94454883,12.8284264 9.31477148,15.4645279 C6.96257812,14.9585787 4.53806641,14.9104569 2.16847852,15.3229645 C2.82232227,11.8480812 5.87434766,8.72686294 10.4680527,6.39788832 Z M8.57657617,40.5548832 C4.49207812,38.0350051 2.03325391,34.8025584 2.03325391,31.2817462 L2.03325391,22.800731 C3.89125195,25.2741929 6.28502539,27.2731371 9.02633203,28.6405279 C8.21057617,32.5563046 8.05843359,36.5863553 8.57657617,40.5548832 Z M2.0707832,17.4778477 C4.43775,16.9831066 6.88120508,17.0153909 9.23482812,17.5727513 C9.62263086,20.0181929 11.6751855,22.196467 14.8593379,23.8557563 C13.0231426,24.4266396 11.3436172,25.4306193 9.95622461,26.7866802 C5.37109766,24.3397766 2.43058789,21.0811371 2.0707832,17.4778477 Z M29.483373,45.8228223 C23.1119707,45.8206294 16.8100273,44.4705381 10.9735664,41.8574619 C9.71174805,37.6429645 10.4900938,31.9850558 10.924123,29.5761624 C16.8100273,32.0615635 23.1154258,33.3428223 29.483373,33.3473299 L29.483373,45.8228223 L29.483373,45.8228223 Z M29.483373,31.268467 C23.4685586,31.2477563 17.512957,30.0526294 11.9364609,27.7474112 C13.7092734,26.4445888 15.7422891,25.5595127 17.8894414,25.1558985 C21.6347461,26.4036548 25.5444648,27.0588426 29.483373,27.0990457 L29.483373,31.268467 L29.483373,31.268467 Z M30.5,25.0440609 C26.3388945,25.1081421 22.1973281,24.4510051 18.2507949,23.1006701 C18.2108828,23.0836142 18.1698984,23.0692386 18.1281992,23.0577868 C13.7559766,21.4321218 11.1832539,19.0350457 11.1832539,16.727269 C11.1832539,14.3697868 13.8726152,11.9211777 18.4185449,10.2951472 C18.470252,10.2816244 18.5207676,10.2639594 18.5696152,10.2422741 C22.4225039,8.97246701 26.4521973,8.35370558 30.4998809,8.41059898 C34.5475645,8.35382741 38.5772578,8.97258883 42.4301465,10.2423959 C42.4789941,10.264203 42.5295098,10.281868 42.5812168,10.295269 C47.1271465,11.9212995 49.8165078,14.3699086 49.8165078,16.7273909 C49.8165078,19.0350457 47.2441426,21.432 42.8720391,23.057665 C42.8303398,23.0691168 42.7894746,23.0834924 42.7496816,23.1005482 C38.8032676,24.4510051 34.6613438,25.1081421 30.5,25.0440609 Z M43.1105586,25.1558985 C45.2577109,25.5595127 47.2907266,26.4445888 49.0635391,27.7474112 C43.4871621,30.0526294 37.5315605,31.2477563 31.516627,31.268467 L31.516627,27.0990457 C35.4555352,27.0588426 39.3652539,26.4036548 43.1105586,25.1558985 Z M50.0265527,41.8574619 C44.1900918,44.4705381 37.8880293,45.8205076 31.516627,45.8228223 L31.516627,33.3473299 C37.8848125,33.3428223 44.1903301,32.0615635 50.0763535,29.5759188 C50.5112168,31.9828629 51.2905156,37.6361421 50.0265527,41.8574619 Z M46.140543,23.8557563 C49.3246953,22.196467 51.37725,20.0181929 51.7650527,17.5727513 C54.1186758,17.0151472 56.5621309,16.9827411 58.9290977,17.4778477 C58.5694121,21.0812589 55.6289023,24.3398985 51.0435371,26.7866802 C49.6562637,25.4306193 47.9768574,24.4266396 46.140543,23.8557563 Z M58.966627,31.2816244 C58.966627,34.8025584 56.5078027,38.0348832 52.4233047,40.5547614 C52.9414473,36.5862335 52.7893047,32.5563046 51.9735488,28.6404061 C54.7148555,27.2730152 57.1086289,25.2740711 58.9665078,22.8006091 L58.9665078,31.2816244 L58.966627,31.2816244 Z" id="Shape"></path>
                <path d="M25.3266758,14.2310254 C25.1017383,13.7085076 24.5066309,13.4693604 23.9939687,13.6953503 C23.5996133,13.869198 23.1597461,13.903797 22.7439453,13.7937868 C22.5244883,13.6859695 22.3628145,13.4845888 22.3021719,13.2434924 C22.2978828,13.231797 22.2882324,13.2246091 22.2835859,13.2131574 C22.2515371,13.144934 22.2121016,13.0804873 22.1661133,13.0211574 C22.0516191,12.8693604 21.9063867,12.744731 21.7403047,12.6559188 C21.7280332,12.6505584 21.7200508,12.6397157 21.7074219,12.6349645 C21.6552383,12.6219289 21.6021016,12.6132792 21.5486074,12.6092589 C21.4168379,12.566132 21.2750605,12.5666193 21.1435293,12.610599 C21.0926562,12.6146193 21.0422598,12.6227817 20.9925781,12.6349645 C20.9804258,12.6397157 20.9728008,12.6500711 20.9608867,12.6551878 C20.8989336,12.6862538 20.8401973,12.7237766 20.78575,12.7671472 C20.6756641,12.8207513 20.5865469,12.9107817 20.5328145,13.0227411 C20.4873027,13.0817056 20.4482246,13.1455431 20.4164141,13.2132792 C20.4117676,13.224731 20.4021172,13.2319188 20.3978281,13.2436142 C20.3370664,13.4847107 20.1753926,13.6859695 19.9560547,13.7939086 C19.5406113,13.9036751 19.1012207,13.8690761 18.7071035,13.6954721 C18.1942031,13.4685076 17.5983809,13.7072893 17.3729668,14.2301726 C17.1475527,14.7530558 17.3771367,15.3640203 17.8870586,15.5979289 L17.8870586,15.5979289 C18.4099668,15.8229442 18.9707617,15.9418477 19.5381094,15.9476954 C19.9491445,15.9519594 20.3569629,15.8721624 20.737498,15.7131777 C20.9576699,15.6148629 21.1637832,15.486335 21.3501191,15.3312487 C21.5364551,15.486335 21.7424492,15.6148629 21.9627402,15.7131777 C22.3432754,15.8721624 22.7509746,15.9519594 23.1621289,15.9476954 C23.7294766,15.9418477 24.2902715,15.823066 24.8131797,15.5979289 C25.3222676,15.3637766 25.5516133,14.7535431 25.3266758,14.2310254 Z" id="Path"></path>
                <path d="M30.0939687,20.7126091 C29.6998516,20.8874315 29.259627,20.9221523 28.8439453,20.8110457 C28.6244883,20.7032284 28.4628145,20.5018477 28.4021719,20.2607513 C28.3978828,20.2490558 28.3882324,20.2417462 28.3835859,20.2301726 C28.3524902,20.1643858 28.3144844,20.102132 28.2705215,20.0445076 C28.2180996,19.9331574 28.1305312,19.8431269 28.0217559,19.7890355 C27.9648066,19.7432284 27.9032109,19.7038782 27.838041,19.6715939 C27.8266035,19.6667208 27.8193359,19.6566091 27.807541,19.6521015 C27.7582168,19.6399188 27.7080586,19.6317563 27.657543,19.6276142 C27.521127,19.5824162 27.3742266,19.5826599 27.2379297,19.628467 C27.1889629,19.6326091 27.1404727,19.6404061 27.0926973,19.6521015 C27.0812598,19.6564873 27.0741113,19.6663553 27.0629121,19.6711066 C26.9960742,19.704 26.9330488,19.7443249 26.8749082,19.7913503 C26.825584,19.821198 26.7788809,19.8551878 26.7351562,19.8929543 C26.6555703,20.0006497 26.5825371,20.1132183 26.5165332,20.2301726 C26.5118867,20.2416244 26.5022363,20.248934 26.4979473,20.2607513 C26.4371855,20.5018477 26.2755117,20.7031066 26.0561738,20.8110457 C25.6407305,20.9214213 25.2011016,20.8867005 24.8072227,20.7126091 C24.294918,20.4843046 23.6983809,20.7210152 23.4709414,21.2430457 C23.2431445,21.7677563 23.4742773,22.3818883 23.9871777,22.6151878 C24.5100859,22.840203 25.0708809,22.9591066 25.6382285,22.9649543 C26.0492637,22.9692183 26.457082,22.8894213 26.8376172,22.7304365 C27.0577891,22.6321218 27.2639023,22.5035939 27.4502383,22.3485076 C27.6365742,22.5035939 27.8425684,22.6321218 28.0628594,22.7304365 C28.4433945,22.8894213 28.8510937,22.9692183 29.262248,22.9649543 C29.8295957,22.9591066 30.3903906,22.8403249 30.9132988,22.6151878 C31.422625,22.3811574 31.6518516,21.7709239 31.4269141,21.2484061 C31.2016191,20.7257665 30.6066309,20.4866193 30.0939687,20.7126091 Z" id="Path"></path>
                <path d="M37.5266758,12.151797 C37.3017383,11.6292792 36.7066309,11.390132 36.1939687,11.6161218 C35.7998516,11.7909442 35.359627,11.825665 34.9439453,11.7145584 C34.7244883,11.6067411 34.5628145,11.4053604 34.5021719,11.164264 C34.4978828,11.1525685 34.4882324,11.1452589 34.4835859,11.1338071 C34.4518945,11.0666802 34.413293,11.0033299 34.3681387,10.9448528 C34.3152402,10.8336244 34.2271953,10.7439594 34.1183008,10.6903553 C34.0624238,10.6455228 34.0020195,10.6069036 33.9381602,10.5751066 C33.9266035,10.5701117 33.9192168,10.56 33.9074219,10.5554924 C33.8576211,10.5431878 33.8069863,10.5349036 33.7559941,10.5307614 C33.6208887,10.4858071 33.4752988,10.4860508 33.3403125,10.5314924 C33.2905117,10.5356345 33.2411875,10.5435533 33.1925781,10.5554924 C33.1810215,10.5598782 33.1737539,10.5699898 33.1623164,10.5748629 C32.9273711,10.697665 32.7362695,10.8933198 32.6164141,11.1336853 C32.6117676,11.1451371 32.6021172,11.1524467 32.5978281,11.1641421 C32.5370664,11.4052386 32.3753926,11.6066193 32.1560547,11.7144365 C31.7406113,11.8246904 31.3011016,11.7900914 30.9071035,11.616 C30.3942031,11.3890355 29.7983809,11.6278173 29.5729668,12.1507005 C29.3475527,12.6735838 29.5771367,13.2845482 30.0870586,13.5184569 L30.0870586,13.5184569 C30.6099668,13.7434721 31.1707617,13.8623756 31.7381094,13.8682234 C32.1491445,13.8724873 32.5569629,13.7926904 32.937498,13.6337056 C33.1576699,13.5353909 33.3637832,13.4068629 33.5501191,13.2517766 C33.7364551,13.4068629 33.9424492,13.5353909 34.1627402,13.6337056 C34.5432754,13.7926904 34.9509746,13.8724873 35.3621289,13.8682234 C35.9294766,13.8623756 36.4902715,13.7435939 37.0131797,13.5184569 C37.5222676,13.2846701 37.7516133,12.6743147 37.5266758,12.151797 Z" id="Path"></path>
                <path d="M44.6433027,17.0899492 C44.4183652,16.5674315 43.8232578,16.3282843 43.3105957,16.5542741 C42.9162402,16.7281218 42.476373,16.7628426 42.0605723,16.6527107 C41.8411152,16.5448934 41.6794414,16.3435127 41.6187988,16.1024162 C41.6145098,16.0907208 41.6048594,16.0834112 41.6002129,16.0718376 C41.534209,15.9550051 41.4612949,15.8424365 41.3818281,15.7347411 C41.337627,15.6964873 41.2903281,15.662132 41.2405273,15.6320406 C41.1829824,15.5855025 41.1205527,15.545665 41.0544297,15.5130152 C41.0431113,15.5081421 41.0357246,15.4981523 41.024168,15.4936447 C40.975082,15.4815838 40.9251621,15.4734213 40.8748848,15.4692792 C40.7385879,15.4239594 40.5916875,15.424203 40.4555098,15.4698883 C40.4063047,15.4739086 40.3573379,15.4819492 40.3093242,15.4936447 C40.2977676,15.4980305 40.2906191,15.5080203 40.2793008,15.5127716 C40.213416,15.5452995 40.1512246,15.5850152 40.0937988,15.6313096 C39.9856191,15.6852792 39.8985273,15.7749442 39.8464629,15.8858071 C39.8022617,15.9434315 39.764375,16.0056853 39.7331602,16.0715939 C39.7285137,16.0830457 39.7189824,16.0903553 39.7145742,16.1021726 C39.6538125,16.343269 39.4921387,16.5445279 39.2728008,16.652467 C38.8573574,16.7629645 38.4177285,16.7283655 38.0238496,16.5540305 C37.5115449,16.3246294 36.914293,16.5617056 36.6874492,17.084467 C36.4596523,17.6091777 36.6907852,18.2233096 37.2036855,18.4564873 C37.7265937,18.6815025 38.2873887,18.8004061 38.8547363,18.8062538 C39.2657715,18.8105178 39.6735898,18.7307208 40.054125,18.571736 C40.2742969,18.4734213 40.4804102,18.3448934 40.6667461,18.1898071 C40.853082,18.3448934 41.0590762,18.4734213 41.2793672,18.571736 C41.6599023,18.7307208 42.0676016,18.8105178 42.4787559,18.8062538 C43.0461035,18.8004061 43.6068984,18.6816244 44.1298066,18.4564873 C44.6388945,18.2227005 44.8682402,17.612467 44.6433027,17.0899492 Z" id="Path"></path>
            </g>
        </g>
    </g>
</svg>