<?xml version="1.0" encoding="UTF-8"?>
<svg width="58px" height="52px" viewBox="0 0 58 52" version="1.1" xmlns="http://www.w3.org/2000/svg" xmlns:xlink="http://www.w3.org/1999/xlink">
    <title>F&amp;B outlets</title>
    <g id="V2-Pages" stroke="none" stroke-width="1" fill="none" fill-rule="evenodd">
        <g id="Artboard-Copy" transform="translate(-920.000000, -195.000000)" fill="#DB7112" fill-rule="nonzero">
            <g id="diet" transform="translate(920.000000, 195.000000)">
                <path d="M22.4257227,19.541487 C21.9371406,19.0078087 21.2414805,18.6952435 20.5172734,18.6840522 C19.0605898,18.6654 17.8555039,19.8243217 17.8308086,21.2768174 C17.8228789,21.7450435 18.1968203,22.1309739 18.665918,22.138887 C18.6709023,22.139 18.6756602,22.139 18.6806445,22.139 C19.1431719,22.139 19.5219844,21.7687826 19.5298008,21.3054174 C19.5385234,20.7866609 19.9658203,20.3704348 20.4906523,20.3794783 C20.7526719,20.3835478 20.9943008,20.4920696 21.1711328,20.6851478 C21.4876406,21.0309478 22.0251602,21.0551391 22.3714609,20.7392957 C22.717875,20.4235652 22.7422305,19.8871739 22.4257227,19.541487 Z" id="Path"></path>
                <path d="M26.9458711,22.3046087 C26.6854375,21.6937217 26.1785039,21.2115913 25.5546641,20.9817739 C24.3001875,20.5199913 22.9017305,21.1617391 22.4369375,22.412113 C22.2736992,22.8511739 22.4981094,23.3390696 22.9379805,23.5019652 C23.0354023,23.5380261 23.1352031,23.5550957 23.2333047,23.5550957 C23.5784727,23.5550957 23.9029102,23.3437043 24.0300117,23.0018609 C24.1695742,22.6263304 24.5901875,22.4341565 24.9662813,22.5726348 C25.1553477,22.6422696 25.3030664,22.7827826 25.3820234,22.9681739 C25.5656523,23.3989826 26.0647695,23.5999739 26.4963711,23.4166174 C26.9283125,23.2333739 27.1293867,22.7355304 26.9458711,22.3046087 Z" id="Path"></path>
                <path d="M32.4217734,14.7956957 C32.0896328,14.4648174 31.5516602,14.4654957 31.2203125,14.7969391 L30.4194141,15.5977391 C30.0879531,15.9291826 30.0885195,16.4660261 30.4206602,16.7966783 C30.5863906,16.9618348 30.8035508,17.0443565 31.0207109,17.0443565 C31.2384375,17.0443565 31.4561641,16.9613826 31.6221211,16.7954348 L32.4230195,15.9946348 C32.7544805,15.6631913 32.7539141,15.1263478 32.4217734,14.7956957 Z" id="Path"></path>
                <path d="M27.135957,25.7410174 L26.0035977,25.7410174 C25.5342734,25.7410174 25.1539883,26.1206174 25.1539883,26.5888435 C25.1539883,27.0570696 25.5342734,27.4366696 26.0035977,27.4366696 L27.135957,27.4366696 C27.6052812,27.4366696 27.9855664,27.0570696 27.9855664,26.5888435 C27.9855664,26.1206174 27.6052812,25.7410174 27.135957,25.7410174 Z" id="Path"></path>
                <path d="M35.8182852,25.7410174 L34.6858125,25.7410174 C34.2164883,25.7410174 33.8362031,26.1206174 33.8362031,26.5888435 C33.8362031,27.0570696 34.2166016,27.4366696 34.6858125,27.4366696 L35.8182852,27.4366696 C36.2874961,27.4366696 36.6678945,27.0570696 36.6678945,26.5888435 C36.6678945,26.1206174 36.2874961,25.7410174 35.8182852,25.7410174 Z" id="Path"></path>
                <path d="M57.9729258,41.0282261 L57.7516875,39.8365217 C57.6106523,39.0750609 56.944332,38.5223913 56.1673359,38.5223913 C56.0698008,38.5223913 55.9714727,38.5313217 55.8747305,38.5490696 L51.370668,39.3747391 L53.4104102,38.0140348 C53.9449844,37.6574957 54.2151602,37.0197043 54.0985937,36.387 C54.0661953,36.2137043 54.0054766,36.0474174 53.9175703,35.8917565 L53.3003008,34.801 C53.0888047,34.4262609 52.7281172,34.1478348 52.3118086,34.0375043 C52.1079023,33.9832435 51.894707,33.9711478 51.6867227,33.9981652 C51.9138516,32.7472261 52.0309844,31.4696087 52.0309844,30.1690435 C52.0309844,29.5919565 51.6832109,29.0953565 51.1864727,28.8748087 C51.8355742,27.3342522 51.8798672,25.5705478 51.2382422,23.9553826 C51.1862461,23.8240261 51.1089883,23.7068 51.0089609,23.6068696 C50.9097266,23.5078435 50.7936133,23.431313 50.6618672,23.3785217 C49.8930273,23.0729652 49.0849922,22.9180957 48.2601914,22.9180957 C48.1547266,22.9180957 48.0497148,22.9208087 47.945043,22.9257826 C47.8273437,20.5594435 45.8647461,18.6703739 43.4688477,18.6703739 C43.1533594,18.6703739 42.8456875,18.7038348 42.5485508,18.7662348 C42.7549492,17.5340609 42.6333984,16.2450261 42.1525195,15.0347826 C42.1008633,14.9017304 42.0232656,14.7823565 41.9178008,14.6754174 C41.8163008,14.5741304 41.6972422,14.4960174 41.5651562,14.4436783 C40.736957,14.1144957 39.8665039,13.9476435 38.9779258,13.9476435 C37.6393945,13.9476435 36.3589766,14.3231739 35.2535781,15.0213304 C34.8497305,13.8539304 34.18375,12.7579739 33.2532578,11.827287 C32.9807031,11.5548522 32.6182031,11.4047304 32.2324805,11.4047304 C31.8467578,11.4047304 31.4842578,11.5548522 31.2113633,11.827513 L27.0977812,15.9418435 C26.3365312,15.2642609 25.3347852,14.8592261 24.2475117,14.8592261 C24.0007852,14.8592261 23.7516797,14.8808174 23.5071055,14.9233217 C22.6209062,15.077287 21.8053945,15.5101304 21.1801953,16.1440783 C20.3785039,15.7580348 19.4601328,15.6263391 18.5775586,15.7796261 C18.3833945,15.813313 18.1950078,15.8607913 18.0121719,15.9186696 L18.0121719,12.7482522 C18.0121719,10.5649304 16.253707,8.78551304 14.0784805,8.74798261 L14.0784805,6.94991304 C14.7443477,6.83494783 15.2527539,6.25582609 15.2527539,5.55902609 L15.2527539,1.48505217 C15.2527539,0.705956522 14.6175859,0.0720086957 13.8367383,0.0720086957 L6.92760156,0.0720086957 C6.14675391,0.0720086957 5.51158594,0.705956522 5.51158594,1.48505217 L5.51158594,5.55902609 C5.51158594,6.25582609 6.01999219,6.83494783 6.68585937,6.94991304 L6.68585937,8.74775652 C4.51063281,8.78517391 2.75228125,10.5645913 2.75228125,12.7480261 L2.75228125,37.4927913 C1.05600781,39.0214783 0,41.1544957 0,43.5132609 C0,48.1532435 4.08095703,51.9282174 9.09727734,51.9282174 L43.1028359,51.9182696 C44.2635156,51.9178174 45.3550938,51.4087826 46.0975391,50.5218435 C46.8207266,49.6584174 47.1280586,48.536913 46.951,47.4308957 L53.7430039,48.6489391 C53.8370273,48.6657826 53.9333164,48.6743739 54.0288125,48.6743739 C54.3675234,48.6743739 54.6920742,48.5706 54.9668945,48.3745826 C55.3202188,48.1227217 55.5593555,47.7328348 55.6231328,47.3051913 L55.8071016,46.0733565 C55.8336094,45.8968957 55.8306641,45.7191913 55.7983789,45.5449913 C55.6814727,44.915113 55.2008203,44.4153478 54.5738086,44.2720087 L52.1798359,43.7239739 L56.6794805,42.8990957 C57.103832,42.8213217 57.4719961,42.5835913 57.7162305,42.2296522 C57.9600117,41.8766174 58.0510898,41.4499913 57.9729258,41.0282261 Z M48.2601914,24.6135217 C48.7716562,24.6135217 49.2745117,24.6943478 49.7579961,24.8536261 C50.1900508,26.166513 50.0282852,27.5826087 49.3517695,28.7523826 L47.0630352,28.7523826 L47.7933594,28.0218957 C48.1248203,27.6904522 48.1241406,27.1536087 47.7918867,26.8228435 C47.4596328,26.4920783 46.9216602,26.4926435 46.5904258,26.8242 L46.2040234,27.2106957 C46.0228867,26.6155217 45.7066055,26.0826348 45.2908633,25.6454957 C46.1341289,24.9772957 47.169293,24.6135217 48.2601914,24.6135217 Z M43.4688477,20.3658 C45.0032422,20.3658 46.2514883,21.6151565 46.2514883,23.1508522 C46.2514883,23.1793391 46.2501289,23.207487 46.2493359,23.2357478 C45.3537344,23.5263826 44.5282539,24.0119043 43.8242109,24.671287 C43.7121758,24.6288957 43.5985547,24.5895565 43.481875,24.5573391 C43.2333359,23.2175478 42.3285586,22.1436348 41.1333281,21.6420609 C41.6293867,20.8751739 42.4900977,20.3658 43.4688477,20.3658 Z M38.9778125,15.6430696 C39.5548672,15.6430696 40.1219531,15.7362174 40.6684219,15.9204783 C41.1076133,17.2236435 41.0178945,18.6234609 40.4582852,19.8359652 C39.99825,20.254113 39.6249883,20.7662 39.3698789,21.3418174 C39.2181953,21.3506348 39.0665117,21.3673652 38.9166406,21.3933652 C38.2508867,21.5090087 37.6301055,21.7972696 37.1105977,22.2153043 C36.9334258,21.892 36.7164922,21.5936783 36.4679531,21.325087 L38.4162773,19.3764435 C38.7477383,19.045 38.7470586,18.5081565 38.4148047,18.1775043 C38.0826641,17.8467391 37.5446914,17.8473043 37.2132305,18.1788609 L35.0837695,20.308713 C34.6785625,20.1175565 34.2406172,19.9846174 33.7803555,19.9224435 C33.9791641,18.9107043 34.4711445,17.9574087 35.232168,17.1961739 C36.2334609,16.1946087 37.5637227,15.6430696 38.9778125,15.6430696 Z M32.4675391,28.7523826 L31.7310977,28.7523826 C31.6070547,28.4374435 31.3004023,28.2141826 30.9407344,28.2141826 C30.5810664,28.2141826 30.2744141,28.4375565 30.1503711,28.7523826 L29.2839961,28.7523826 C29.4851836,28.4254609 29.4445156,27.9922783 29.1605195,27.7094435 C28.8283789,27.3786783 28.2904063,27.3792435 27.9589453,27.710687 L27.1581602,28.511487 C27.0862266,28.5833826 27.0309453,28.6653391 26.9902773,28.7523826 L25.2610391,28.7523826 C24.6134102,27.7606522 24.2181719,26.590087 24.1713867,25.3307826 L37.6502695,25.3307826 C37.6034844,26.590087 37.2082461,27.7606522 36.5606172,28.7523826 L34.7611445,28.7523826 C34.7205898,28.6653391 34.665082,28.5832696 34.5932617,28.5113739 L33.7925898,27.7105739 C33.4610156,27.3792435 32.9232695,27.3783391 32.5911289,27.7092174 C32.3069063,27.9920522 32.2662383,28.4253478 32.4675391,28.7523826 Z M30.4915742,23.6351304 C30.8118203,22.4507739 31.8944492,21.5768348 33.1774727,21.5768348 C34.4606094,21.5768348 35.5432383,22.450887 35.8634844,23.6351304 L30.4915742,23.6351304 Z M32.2289687,13.2101478 C33.0371172,14.081713 33.5714648,15.116513 33.8334844,16.2042174 C33.3997305,16.6745913 33.0393828,17.1943652 32.7551602,17.747487 C32.6261328,17.6685826 32.4749023,17.6223478 32.3125703,17.6223478 L31.1804375,17.6223478 C30.7112266,17.6223478 30.3308281,18.0019478 30.3308281,18.4701739 C30.3308281,18.9384 30.7112266,19.318 31.1804375,19.318 L32.1735742,19.318 C32.1177266,19.552113 32.0743398,19.7890522 32.0428477,20.0278 C31.7054961,20.1162 31.3833242,20.2421304 31.0817695,20.4024261 C30.5154766,19.4272 29.5777344,18.7004435 28.4666719,18.4089043 C28.466332,18.4065304 28.4658789,18.4041565 28.4654258,18.4017826 C28.3988164,18.018113 28.2825898,17.654113 28.1241094,17.3157739 L32.2289687,13.2101478 Z M16.8705234,20.8604783 C16.8206797,20.7214348 16.782957,20.5787739 16.7581484,20.4356609 C16.5144805,19.0338087 17.4615117,17.6944696 18.8688047,17.4499565 C19.0172031,17.4241826 19.1679805,17.4110696 19.316832,17.4110696 C19.8765547,17.4110696 20.4114688,17.5892261 20.8635742,17.9262087 C21.0506016,18.0657043 21.2871328,18.122113 21.5173203,18.0823217 C21.7475078,18.0424174 21.9510742,17.9098174 22.0802148,17.7154957 C22.4790781,17.1151217 23.0893242,16.7167565 23.7984648,16.5935391 C23.9472031,16.5676522 24.0983203,16.5546522 24.2475117,16.5546522 C25.506293,16.5546522 26.5761211,17.4533478 26.7911289,18.6917391 C26.8158242,18.8336087 26.8285117,18.9814696 26.8287383,19.1312522 C26.8295312,19.570087 27.1658633,19.9358957 27.6040352,19.9743304 C28.5538984,20.0576435 29.3625,20.6541739 29.7373477,21.4945391 C29.2355117,22.0955913 28.887625,22.8294696 28.7555391,23.6351304 L23.9102734,23.6351304 C23.3078437,23.6351304 22.7909414,24.0062522 22.5753672,24.5314522 C21.5093906,23.8069565 20.2531016,23.4166174 18.9365469,23.4166174 C18.1117461,23.4166174 17.3037109,23.5716 16.5343047,23.8772696 C16.4038047,23.9292696 16.287125,24.0060261 16.1876641,24.1052783 C16.0868437,24.205887 16.0094727,24.3237913 15.9587227,24.453113 C15.7631992,24.9451913 15.6328125,25.4510609 15.5623516,25.9600957 C15.2578516,25.6141826 15.0432969,25.1840522 14.9594688,24.7013565 C14.7596406,23.5510261 15.3630898,22.4056696 16.4264609,21.9159652 C16.8261172,21.7319304 17.0188086,21.2738783 16.8705234,20.8604783 Z M19.4032656,28.5205304 L19.6350391,28.7523826 L17.5945039,28.7523826 C17.1363945,27.6918087 17.0668398,26.4846174 17.4387422,25.3523739 C17.9229063,25.1928696 18.4255352,25.1121565 18.9365469,25.1121565 C20.2167383,25.1121565 21.4210312,25.6114696 22.3273945,26.5179652 C22.4479258,26.6385826 22.5601875,26.7649652 22.6656523,26.8955304 C22.8096328,27.5459826 23.0308711,28.1673826 23.3158867,28.7522696 L22.0354688,28.7522696 L20.6061992,27.3227217 C20.274625,26.9913913 19.7366523,26.990487 19.4047383,27.3213652 C19.0724844,27.6522435 19.0718047,28.189087 19.4032656,28.5205304 Z M15.7850625,28.7523826 L12.7562617,28.7523826 C12.891293,27.9311217 13.386332,27.2310435 14.0734961,26.8182087 C14.4802891,27.3620609 15.0112383,27.8018 15.622957,28.0996696 C15.6662305,28.3196522 15.7193594,28.537713 15.7850625,28.7523826 Z M7.21080469,1.76766087 L13.5535352,1.76766087 L13.5535352,5.27641739 L7.21080469,5.27641739 L7.21080469,1.76766087 Z M12.3792617,6.97206957 L12.3792617,8.74606087 L8.38519141,8.74606087 L8.38519141,6.97206957 L12.3792617,6.97206957 Z M4.45161328,16.1863565 L9.96875,16.1863565 C10.4380742,16.1863565 10.8183594,15.8067565 10.8183594,15.3385304 C10.8183594,14.8703043 10.4380742,14.4907043 9.96875,14.4907043 L4.45161328,14.4907043 L4.45161328,12.7480261 C4.45161328,11.476287 5.48519141,10.441713 6.75564062,10.441713 L14.0088125,10.441713 C15.279375,10.441713 16.3129531,11.476287 16.3129531,12.7480261 L16.3129531,14.4907043 L14.7265625,14.4907043 C14.2572383,14.4907043 13.8769531,14.8703043 13.8769531,15.3385304 C13.8769531,15.8067565 14.2572383,16.1863565 14.7265625,16.1863565 L16.3129531,16.1863565 L16.3129531,16.938887 C15.3395273,17.8912783 14.8339531,19.2879304 15.083625,20.7246 C15.0840781,20.7274261 15.0846445,20.7303652 15.0850977,20.7333043 C13.7220977,21.6664783 12.9958516,23.3255043 13.2850586,24.9909739 C13.3019375,25.0881913 13.3231211,25.1838261 13.3462305,25.2784435 C12.9217656,25.5119913 12.5405742,25.8135913 12.2138711,26.166513 L4.45161328,26.166513 L4.45161328,16.1863565 Z M4.4515,27.8620522 L4.4515,27.8620522 L11.2273047,27.8620522 C11.1371328,28.1478261 11.0734687,28.4452435 11.0424297,28.7523826 L10.8992422,28.7523826 C10.1172617,28.7523826 9.48096094,29.3878 9.48096094,30.1688174 C9.48096094,31.5150522 9.60636328,32.8366435 9.84935156,34.1296348 C9.60523047,34.1100783 9.35487891,34.0995652 9.10022266,34.0995652 C8.07276172,34.0995652 7.09378516,34.2622348 6.34397656,34.5577304 C5.19700391,35.0096783 4.87992969,35.6514261 4.81071484,36.0954609 C4.68916406,36.1558261 4.56976563,36.2195826 4.4515,36.2848087 L4.4515,27.8620522 Z M15.2099336,38.277313 C15.5159062,38.5216 15.7029336,38.7292609 15.8113437,38.8790435 C15.8011484,38.8791565 15.7905,38.8792696 15.7797383,38.8792696 C15.2988594,38.8792696 14.4348633,38.6858522 13.452375,38.1431304 C13.0865898,37.9408957 12.7495781,37.7124348 12.4777031,37.4826174 C12.1607422,37.2145913 11.6959492,37.2148174 11.3792148,37.4827304 C11.1073398,37.7127739 10.7704414,37.9411217 10.4049961,38.1429043 C9.42228125,38.6858522 8.55828516,38.8792696 8.07751953,38.8792696 C8.06653125,38.8792696 8.05599609,38.8791565 8.0456875,38.8790435 C8.15398438,38.7292609 8.34101172,38.521487 8.64709766,38.277087 C8.91455469,38.0634348 9.02726953,37.710287 8.93290625,37.3816696 C8.83842969,37.0529391 8.55545312,36.8129478 8.21504297,36.7731565 C7.3859375,36.6761652 6.86167187,36.4655652 6.61619141,36.3122783 C6.92375,36.1211217 7.7013125,35.7952174 9.1005625,35.7952174 C10.2594297,35.7952174 11.1064336,36.0383739 11.5126602,36.2660435 C11.7710547,36.4107391 12.0860898,36.4107391 12.3444844,36.2661565 C12.7509375,36.038487 13.5980547,35.7953304 14.7569219,35.7953304 C16.1562852,35.7953304 16.9337344,36.1213478 17.2411797,36.3123913 C16.9958125,36.4657913 16.4714336,36.6762783 15.6421016,36.7732696 C15.3016914,36.8131739 15.0186016,37.0530522 14.9242383,37.3818957 C14.8295352,37.7106261 14.94225,38.0637739 15.2099336,38.277313 Z M13.510375,48.5966 L13.5396016,48.7537304 C13.6406484,49.2982609 13.8537305,49.7980261 14.1514336,50.2325652 L9.09727734,50.2325652 C5.01801953,50.2325652 1.69921875,47.2183739 1.69921875,43.5132609 C1.69921875,40.9812 3.2498125,38.7727826 5.53310938,37.6276522 C5.79535547,37.8229913 6.12228516,37.9914261 6.51016016,38.1273043 C6.35632422,38.3894522 6.24916016,38.6713826 6.22389844,38.9654087 C6.19036719,39.356313 6.31021875,39.7275478 6.56170313,40.0108348 C6.89395703,40.3852348 7.40394922,40.5750348 8.07751953,40.5750348 C8.97516016,40.5750348 10.1529453,40.2204174 11.2279844,39.626487 C11.4755039,39.4898174 11.709543,39.3454609 11.9286289,39.1946609 C12.1476016,39.3453478 12.3816406,39.4897043 12.6292734,39.6266 C13.7043125,40.2204174 14.8820977,40.5749217 15.7797383,40.5750348 L15.7798516,40.5750348 C16.4531953,40.5750348 16.9631875,40.3852348 17.2953281,40.0109478 C17.5469258,39.7276609 17.6668906,39.3564261 17.6332461,38.9654087 C17.6079844,38.6713826 17.5008203,38.3894522 17.3469844,38.1273043 C17.7348594,37.991313 18.0619023,37.8228783 18.3241484,37.6276522 C20.1349492,38.5358435 21.4842422,40.112913 21.9653477,41.9897739 L15.9563438,44.267713 C14.1974258,44.9346696 13.1687188,46.7551217 13.510375,48.5966 Z M44.7934453,49.4347043 C44.3745313,49.9352609 43.7579414,50.2223913 43.102043,50.2226174 L42.210293,50.2229565 L41.6531758,47.221087 C41.5676484,46.7606609 41.1246055,46.4562348 40.6629844,46.5418087 C40.2017031,46.6270435 39.8968633,47.0693826 39.9822773,47.5298087 L40.4823008,50.2235217 L37.5589648,50.2246522 L37.1823047,48.1947304 C37.0967773,47.7343043 36.6536211,47.4302174 36.1921133,47.5154522 C35.730832,47.600687 35.4259922,48.0430261 35.5114063,48.5034522 L35.8308594,50.2253304 L29.0311523,50.2279304 L28.5193477,47.4710261 C28.433707,47.0106 27.9907773,46.706513 27.5291563,46.7918609 C27.0677617,46.8770957 26.7630352,47.3195478 26.8484492,47.7799739 L27.3030469,50.2286087 L17.374625,50.2324522 C17.3743984,50.2324522 17.3741719,50.2324522 17.3739453,50.2324522 C16.3122734,50.2324522 15.4023984,49.480713 15.2100469,48.4445565 L15.1808203,48.2874261 C14.9888086,47.2524 15.568582,46.2285652 16.5594531,45.8528087 L19.8986445,44.5869478 L20.1474102,45.9267391 C20.2231953,46.3349391 20.5802578,46.6202609 20.9817266,46.6202609 C21.0331563,46.6202609 21.0852656,46.615513 21.1376016,46.6059043 C21.5988828,46.5205565 21.9036094,46.0782174 21.818082,45.6177913 L21.5130156,43.9749304 L26.4696367,42.0959217 C26.9082617,41.9296348 27.1288203,41.4399304 26.9621836,41.0022261 C26.7955469,40.5644087 26.3042461,40.3444261 25.8663008,40.510713 L23.5597813,41.3851043 C22.9127188,39.0990261 21.2504297,37.1893826 19.0460898,36.0953478 C18.976875,35.651313 18.6598008,35.0095652 17.5129414,34.5576174 C16.7631328,34.2621217 15.7841563,34.0994522 14.7566953,34.0994522 C14.0495938,34.0994522 13.3743242,34.1773391 12.7782383,34.3192087 L12.7782383,33.8071217 C12.7782383,33.3388957 12.3979531,32.9592957 11.9286289,32.9592957 C11.7302734,32.9592957 11.5483438,33.0275739 11.4036836,33.1412957 C11.2696719,32.2569565 11.1946797,31.358713 11.1822188,30.4478087 L38.8554688,30.4478087 C39.324793,30.4478087 39.7050781,30.0682087 39.7050781,29.5999826 C39.7050781,29.1317565 39.324793,28.7521565 38.8554688,28.7521565 L38.5078086,28.7521565 C39.0488398,27.6402609 39.3544727,26.3936174 39.3544727,25.0760957 C39.3544727,24.328087 38.7809297,23.711887 38.0500391,23.641913 C38.3682461,23.3424609 38.7654102,23.1405652 39.2081133,23.0635826 C39.3378203,23.041087 39.4694531,23.0296696 39.5995,23.0296696 C40.6964023,23.0296696 41.6284805,23.8127217 41.8157344,24.8913826 C41.8373711,25.0162957 41.8484727,25.1451652 41.8485859,25.2746 C41.8491523,25.7136609 42.1855977,26.0796957 42.6238828,26.1181304 C43.6392227,26.2070957 44.4699141,26.9691217 44.6440273,27.9711391 C44.6902461,28.2375826 44.6844688,28.5005217 44.6381367,28.7521565 L43.7265625,28.7521565 C43.2572383,28.7521565 42.8769531,29.1317565 42.8769531,29.5999826 C42.8769531,30.0682087 43.2572383,30.4478087 43.7265625,30.4478087 L50.3299531,30.4478087 C50.3088828,32.0030609 50.1081484,33.5222522 49.7337539,34.9962261 L45.1293242,37.7085913 C44.847707,36.7305391 44.193168,35.900913 43.2913359,35.3971913 C42.2798477,34.832313 41.0778203,34.7440261 39.9937187,35.1549391 L30.510832,38.7499478 C30.0720938,38.9162348 29.8516484,39.4059391 30.0182852,39.8436435 C30.1849219,40.2814609 30.6761094,40.5012174 31.114168,40.3351565 L32.3634336,39.8616174 L32.7513086,41.9514522 C32.8270937,42.3596522 33.1841563,42.645087 33.5857383,42.645087 C33.6370547,42.645087 33.6891641,42.6403391 33.7415,42.6307304 C34.2027812,42.5454957 34.5076211,42.1031565 34.422207,41.6427304 L33.9780312,39.2496 L40.5969414,36.7403739 C41.2102461,36.5079565 41.889707,36.5578087 42.4614375,36.8771565 C43.0321484,37.1958261 43.4275,37.7452174 43.5462187,38.3841391 L45.2650352,47.6440957 C45.3835273,48.2826783 45.2116797,48.9352783 44.7934453,49.4347043 Z M47.8248516,42.7983739 C47.4284805,42.8710609 47.1379141,43.2115478 47.1289648,43.6136435 C47.1201289,44.0157391 47.3956289,44.3686609 47.788375,44.4585304 L54.114,45.9063913 L53.9559727,46.9643652 L46.6228242,45.6493304 L45.4765313,39.473313 L51.8637813,35.7107739 L52.3958633,36.6509565 L47.0084336,40.2447217 C46.6734609,40.4682087 46.5418281,40.8957391 46.6933984,41.2683304 C46.8448555,41.6409217 47.2379414,41.8561565 47.6341992,41.7834696 L56.0969883,40.2321739 L56.2854883,41.2473043 L47.8248516,42.7983739 Z" id="Shape"></path>
            </g>
        </g>
    </g>
</svg>