<?xml version="1.0" encoding="UTF-8"?>
<svg width="60px" height="60px" viewBox="0 0 60 60" version="1.1" xmlns="http://www.w3.org/2000/svg" xmlns:xlink="http://www.w3.org/1999/xlink">
    <title>meditation</title>
    <g id="1.-Homepage" stroke="none" stroke-width="1" fill="none" fill-rule="evenodd">
        <g id="1,2-HP" transform="translate(-608.000000, -4549.000000)" fill="#546623" fill-rule="nonzero">
            <g id="03-Marina" transform="translate(47.000000, 3635.000000)">
                <g id="Activities" transform="translate(81.000000, 910.000000)">
                    <g id="meditation" transform="translate(480.000000, 4.000000)">
                        <path d="M1.0195316,47.4961342 C1.07513517,47.7759439 1.24616081,48.0188437 1.4900502,48.1643901 C1.73393959,48.3099366 2.0277611,48.3444446 2.29839969,48.2593272 L8.19299284,46.4056249 C7.55243312,48.6208963 8.54598625,50.9843129 10.571855,52.0643482 C10.6011048,52.0798209 10.6311047,52.0940356 10.6617295,52.106615 L20.1655531,56.0127744 L21.0512984,58.6870319 C21.1874704,59.0979331 21.5696297,59.375 22.0000432,59.375 L31.9999892,59.375 C32.129613,59.375 32.258,59.349635 32.3779872,59.3002783 L49.8806426,52.1064892 C49.9112674,52.0939098 49.9412672,52.0796951 49.9705171,52.0642224 C51.9327295,51.0179315 52.9345137,48.7611024 52.399504,46.5921776 L57.7016003,48.2597046 C57.9722389,48.344822 58.2660604,48.310314 58.5099498,48.1647675 C58.7538392,48.0192211 58.9248648,47.7763213 58.9804684,47.4965116 L59.980463,42.4647463 C60.0793384,41.9670854 59.7945187,41.4732069 59.3160916,41.3127237 L56.3161078,40.3063706 C56.1108402,40.237431 55.8888788,40.237431 55.6836112,40.3063706 L53.1305,41.162777 L45.8721642,36.5974564 L43.4721772,26.936467 C43.0836139,25.368579 42.0328566,24.0502623 40.5963177,23.3283139 C40.551818,23.3059225 34.0002284,21.3156078 34.0002284,21.3156078 L34.0002284,18.6915421 C34.0002233,18.6573871 33.9985129,18.6232538 33.9951034,18.5892715 C35.2709197,17.4458839 36.0004531,15.8083584 35.9999676,14.0891122 L35.9999676,10.0637 C35.9999564,8.30552441 35.2368851,6.63505125 33.9108539,5.49032848 L33.6321054,4.08709493 C33.2667363,2.24854811 31.9254789,0.76161609 30.1423158,0.218277449 C28.3591527,-0.325061193 26.4235654,0.163400014 25.1061514,1.4891945 C22.4684784,4.12925308 20.9899238,7.72151904 21.0000486,11.4652982 L21.0000486,11.7493413 C21.0019614,13.5038617 20.1304597,15.1427093 18.6788112,16.1143977 L18.4453124,16.2708857 C18.1487027,16.4698758 17.9797813,16.8127203 18.0019343,17.1707703 C18.0240873,17.5288202 18.2339646,17.847929 18.5528119,18.0083542 L19.3278077,18.398316 C21.3642153,19.4199659 23.7598307,19.41675 25.7935227,18.3896362 C25.8607724,18.4567264 25.9295637,18.5218039 25.9998966,18.5848687 L25.9998966,21.3146014 C25.9998966,21.3146014 19.448307,23.3047904 19.4038073,23.3273075 C17.9672684,24.049256 16.9165111,25.3675727 16.5279478,26.9354606 L14.1279608,36.59645 L6.86949999,41.1623997 L4.31638879,40.3059932 C4.1111212,40.2370536 3.88915979,40.2370536 3.6838922,40.3059932 L0.683908415,41.3123463 C0.205481283,41.4728296 -0.0793383816,41.966708 0.0195370052,42.4643689 L1.0195316,47.4961342 Z M20.8194246,54.1076223 L11.4666001,50.2633536 C10.4404096,49.6949715 9.86789844,48.5493971 10.0263348,47.3814342 C10.1847712,46.2134713 11.0414465,45.2642421 12.1814713,44.99346 C12.3753421,44.9473634 12.5734447,44.9216474 12.7725931,44.9167256 L12.7758431,44.9167256 C13.3543276,44.9035333 13.9226817,45.0709139 14.4028343,45.3958754 C14.4163342,45.4049326 14.4300841,45.4137382 14.4442091,45.4221664 L27.1691403,53.0815195 L26.0637713,53.3040494 L23.3156611,52.3822299 C22.9563307,52.2616544 22.5601469,52.3557418 22.2922917,52.6252642 L20.8194246,54.1076223 Z M15.931076,43.9718858 L17.1810693,43.5786534 C18.1526942,43.2707406 18.9590941,42.5801437 19.4165572,41.6641925 L22.3492913,35.7634413 L23.0000381,36.5818579 L23.0000381,37.9414409 C23.0002489,38.6986253 22.8789375,39.4508741 22.6407898,40.1691292 L22.051293,41.9487388 L21.126298,44.7425007 L19.6610559,46.2169337 L15.931076,43.9718858 Z M22.7207893,57.3622939 L22.1441675,55.6214289 L23.2701614,54.4882753 L25.6837733,55.2978864 C25.8489083,55.3533302 26.0255649,55.3644306 26.1962706,55.3300897 L30.2156238,54.5211076 L30.7802458,57.3622939 L22.7207893,57.3622939 Z M30.6347466,52.3841169 L30.0869995,52.4943125 C30.0763746,52.4873938 30.0664996,52.4798462 30.0554997,52.4731791 L21.4305463,47.2820326 L22.7067894,45.9976745 C22.8165157,45.8871568 22.8992309,45.7524983 22.9484131,45.6043163 L23.7207839,43.273351 L36.2790911,43.273351 L37.0512119,45.6043163 C37.1003941,45.7524983 37.1831093,45.8871568 37.2928356,45.9976745 L38.7720776,47.4861965 L30.6347466,52.3841169 Z M35.4617205,40.8056475 L35.6124697,41.2606449 L24.3875303,41.2606449 L24.5382795,40.8055217 C24.8443634,39.8820595 25.0002854,38.9149217 25.000027,37.9414409 L25.000027,37.2352326 L34.999973,37.2352326 L34.999973,37.9414409 C34.9997252,38.914962 35.1556468,39.8821394 35.4617205,40.8056475 L35.4617205,40.8056475 Z M36.9999621,37.9414409 L36.9999621,36.5818579 L37.6507087,35.7633155 L40.5824428,41.6641925 C41.0399232,42.5801786 41.8463769,43.270783 42.8180557,43.5786534 L44.4246721,44.0838426 L40.541943,46.4209718 L38.873952,44.7425007 L37.948957,41.9487388 L37.3594602,40.169255 C37.1212335,39.4509692 36.999838,38.6986796 36.9999621,37.9414409 L36.9999621,37.9414409 Z M50.4292646,48.5608558 C50.2224291,49.2879045 49.7345812,49.9011501 49.0748969,50.2633536 L32.7429852,56.9762317 L32.1189885,53.8360327 L46.097663,45.4221664 C46.1117879,45.4137382 46.1255379,45.4049326 46.1390378,45.3958754 C47.1285191,44.731989 48.4247689,44.7610453 49.3838955,45.4686109 C50.3430222,46.1761765 50.7606243,47.4114608 50.4292646,48.5608558 L50.4292646,48.5608558 Z M38.9999514,27.8887286 L38.9999514,24.9095461 L39.7638222,25.1597507 C40.6471403,25.626139 41.2904397,26.4500231 41.5318127,27.424045 L44.0297992,37.4795248 C44.0925835,37.7323231 44.2503565,37.9507587 44.4699218,38.0888716 L52.4698786,43.1206369 C52.722835,43.2797172 53.0331525,43.3168507 53.316124,43.2219012 L55.9998595,42.3214668 L57.8462245,42.9407513 L57.2373528,46.0045932 L50.6943882,43.9469786 C49.7659215,43.2072348 48.5981096,42.8397631 47.4162809,42.9154667 L43.4146775,41.6575254 C42.9612827,41.5139265 42.5849557,41.1917469 42.3714331,40.764387 L38.9984514,33.9755293 C40.1100115,32.1009304 40.1105874,29.7638821 38.9999514,27.8887286 L38.9999514,27.8887286 Z M33.9999784,14.0891122 C33.9999784,16.312286 32.2091271,18.1145245 30,18.1145245 C27.7908729,18.1145245 26.0000216,16.312286 26.0000216,14.0891122 L26.0000216,10.2915131 C28.375686,11.909766 31.1372422,12.861092 33.9999784,13.047411 L33.9999784,14.0891122 Z M32.8038598,23.1267917 L32.9999838,23.166291 L32.9999838,26.6685255 L30,28.9328199 L27.0000162,26.6685255 L27.0000162,23.166291 L27.1961402,23.1267917 C27.6635746,23.0327059 28.0000328,22.6196601 28.0000162,22.1399367 L28.0000162,19.7810451 C29.2938925,20.2426219 30.7061075,20.2426219 31.9999892,19.7810451 L31.9999892,22.1399367 C31.9999672,22.6196601 32.3364254,23.0327059 32.8038598,23.1267917 L32.8038598,23.1267917 Z M33.9999784,10.0637 L33.9999784,11.0313084 C31.3205924,10.8334452 28.7531675,9.86925262 26.6000184,8.25226445 C26.5591451,8.2218994 26.516019,8.19473214 26.4710191,8.17100144 C27.3339836,6.54056765 29.1890721,5.71069511 30.9699778,6.15839545 C32.7508836,6.60609579 34.0002658,8.21639855 33.9999784,10.0637 Z M24.0000324,10.0637 L24.0000324,14.0891122 C23.9990913,15.0032865 24.2057236,15.9055915 24.6041542,16.727141 C23.4269669,17.2327274 22.1064381,17.286434 20.8925492,16.8780939 C22.2439189,15.5179703 23.0021579,13.6727314 23.0000378,11.7493413 L23.0000378,11.465424 C22.9913575,8.25573936 24.2589945,5.17595618 26.5203938,2.91255511 C27.2859322,2.14191737 28.4000155,1.83738789 29.4477691,2.11237073 C30.4955226,2.38735357 31.3199308,3.20063998 31.6139913,4.24936936 C29.8067873,3.73996276 27.8668269,4.11140387 26.3717725,5.2530886 C24.8767181,6.39477332 23.9990207,8.17501104 24.0000324,10.0637 L24.0000324,10.0637 Z M22.8320387,28.7363294 C22.941577,28.5710098 23.0000328,28.3767566 23.0000378,28.1780551 L23.0000378,24.2769274 L25.000027,23.685695 L25.000027,27.171702 C25.000027,27.488459 25.1482204,27.7867303 25.4000249,27.9767845 L29.4000032,30.9958437 C29.7555569,31.2642045 30.2444431,31.2642045 30.5999968,30.9958437 L34.5999751,27.9767845 C34.8517796,27.7867303 34.999973,27.488459 34.999973,27.171702 L34.999973,23.685695 L36.9999622,24.2769274 L36.9999622,28.1780551 C36.9999672,28.3767566 37.058423,28.5710098 37.1679613,28.7363294 C38.1219098,30.1684343 38.0403904,32.0582568 36.9667124,33.4017822 L35.5193452,35.2225265 L24.4806548,35.2225265 L23.0332876,33.4017822 C21.9596096,32.0582568 21.8780902,30.1684343 22.8320387,28.7363294 L22.8320387,28.7363294 Z M4.0001405,42.3214668 L6.68387599,43.2216496 C6.96684747,43.3165991 7.277165,43.2794656 7.53012142,43.1203853 L15.5300782,38.08862 C15.7496435,37.9505071 15.9074165,37.7320715 15.9702008,37.4792733 L18.4681873,27.4232903 C18.7095603,26.4492684 19.3528597,25.6253842 20.2361778,25.1589959 L21.0000486,24.9095461 L21.0000486,27.8887286 C19.8893517,29.7639679 19.8899756,32.1011424 21.0016736,33.9757809 L17.6286919,40.7646386 C17.415198,41.1919726 17.0389204,41.5141485 16.5855725,41.657777 L12.5945941,42.9129508 C11.7551379,42.9513428 10.9407881,43.2129441 10.2344818,43.6711121 C10.1794821,43.6786597 2.76277218,46.0048448 2.76277218,46.0048448 L2.15377547,42.9410029 L4.0001405,42.3214668 Z" id="Shape"></path>
                        <path d="M59.0178849,21.500041 L55.9228926,21.500041 C55.7873666,20.9435154 55.5586131,20.4149475 55.2466841,19.9375638 L53.9421467,17.9452179 C53.7599847,17.6670668 53.4533526,17.5 53.125,17.5 C52.7966474,17.5 52.4900153,17.6670668 52.3078533,17.9452179 L51.0033159,19.9375638 C50.6913869,20.4149475 50.4626334,20.9435154 50.3271074,21.500041 L47.2321151,21.500041 C46.8917236,21.5000528 46.5756083,21.6795147 46.3966647,21.9743348 C46.2177211,22.2691548 46.2014669,22.6372913 46.353707,22.9472699 L47.5035561,25.2888608 C48.1651494,26.6475965 49.5279493,27.5051325 51.0174343,27.4999769 L55.2325657,27.4999769 C56.7220507,27.5051325 58.0848506,26.6475965 58.7464439,25.2888608 L59.896293,22.9472699 C60.0485331,22.6372913 60.0322789,22.2691548 59.8533353,21.9743348 C59.6743917,21.6795147 59.3582764,21.5000528 59.0178849,21.500041 Z M49.2603724,24.3943738 L48.8212298,23.5000119 L50.2216493,23.5000119 C50.3120013,24.2097065 50.5526029,24.8909695 50.9268312,25.4967328 C50.2154582,25.4662216 49.5768295,25.0437701 49.2603724,24.3943738 Z M54.1071588,22.8431465 C54.1093184,23.6392523 53.7985318,24.4031433 53.2440854,24.9644905 L53.125,25.0857388 L53.0057918,24.9643655 C52.4514092,24.4030361 52.1406683,23.6391937 52.1428411,22.8431465 L52.1428411,22.7111484 C52.1423258,22.1188098 52.3145185,21.5396443 52.6376093,21.0470476 L53.125,20.3028085 L53.6123907,21.0470476 C53.9354815,21.5396443 54.1076742,22.1188098 54.1071588,22.7111484 L54.1071588,22.8431465 Z M56.9896276,24.3943738 C56.6731705,25.0437701 56.0345418,25.4662216 55.3231688,25.4967328 C55.6973971,24.8909695 55.9379987,24.2097065 56.0283507,23.5000119 L57.4287702,23.5000119 L56.9896276,24.3943738 Z" id="Shape"></path>
                        <path d="M12.7678849,22.124966 L9.67289262,22.124966 C9.53736664,21.5684334 9.30861313,21.0398589 8.99668409,20.5624693 L7.6921467,18.5702234 C7.50998468,18.2920689 7.20335259,18.125 6.875,18.125 C6.54664741,18.125 6.24001532,18.2920689 6.0578533,18.5702234 L4.75331591,20.5624693 C4.44138687,21.0398589 4.21263336,21.5684334 4.07710738,22.124966 L0.982115139,22.124966 C0.641723643,22.1249778 0.325608278,22.304442 0.146664692,22.5992657 C-0.032278894,22.8940894 -0.0485331075,23.2622305 0.103706989,23.572213 L1.25355615,25.9138332 C1.91514943,27.2725858 3.2779493,28.1301325 4.76743428,28.1249769 L8.98256572,28.1249769 C10.4720507,28.1301325 11.8348506,27.2725858 12.4964439,25.9138332 L13.646293,23.572213 C13.7985331,23.2622305 13.7822789,22.8940894 13.6033353,22.5992657 C13.4243917,22.304442 13.1082764,22.1249778 12.7678849,22.124966 Z M3.01037245,25.019335 L2.57122976,24.1249619 L3.97164929,24.1249619 C4.06213115,24.8347284 4.30294768,25.5160154 4.67744502,26.1217077 C3.96584839,26.0914199 3.32693438,25.66893 3.01037245,25.019335 L3.01037245,25.019335 Z M7.85715877,23.4680882 C7.8593184,24.264204 7.54853175,25.0281046 6.99408538,25.5894588 L6.875,25.7107086 L6.75579185,25.5893338 C6.20140923,25.0279974 5.89066825,24.2641454 5.89284109,23.4680882 L5.89284109,23.3360885 C5.89232578,22.7437425 6.06451852,22.1645698 6.38760931,21.671967 L6.875,20.9277185 L7.36239069,21.671967 C7.68548148,22.1645698 7.85767422,22.7437425 7.85715877,23.3360885 L7.85715877,23.4680882 Z M10.7396276,25.019335 C10.4231705,25.6687394 9.78454176,26.0911962 9.07316882,26.1217077 C9.44739705,25.5159369 9.6879987,24.8346654 9.77835071,24.1249619 L11.1787702,24.1249619 L10.7396276,25.019335 Z" id="Shape"></path>
                    </g>
                </g>
            </g>
        </g>
    </g>
</svg>