<?xml version="1.0" encoding="UTF-8"?>
<svg width="60px" height="52px" viewBox="0 0 60 52" version="1.1" xmlns="http://www.w3.org/2000/svg" xmlns:xlink="http://www.w3.org/1999/xlink">
    <title>piano</title>
    <g id="1.-Homepage" stroke="none" stroke-width="1" fill="none" fill-rule="evenodd">
        <g id="1,2-HP" transform="translate(-128.000000, -3217.000000)" fill="#2F2F90" fill-rule="nonzero">
            <g id="02-Amphitheatre" transform="translate(47.000000, 2473.000000)">
                <g id="Activities" transform="translate(81.000000, 503.000000)">
                    <g id="Piano" transform="translate(0.000000, 241.000000)">
                        <g id="piano" transform="translate(0.000000, 0.000000)">
                            <path d="M32.2977941,22.5 L28.3272059,22.5 C27.8703676,22.5 27.5,22.91975 27.5,23.4375 C27.5,23.95525 27.8703676,24.375 28.3272059,24.375 L32.2977941,24.375 C32.7546324,24.375 33.125,23.95525 33.125,23.4375 C33.125,22.91975 32.7546324,22.5 32.2977941,22.5 Z" id="Path"></path>
                            <path d="M59.1210938,25.6839781 L58.4179688,25.6839781 L58.4179688,19.1157017 C58.4179688,18.6254541 58.0244531,18.2280009 57.5390625,18.2280009 L56.5041797,18.2280009 L50.821875,5.85345065 L54.2008594,4.72169122 C55.1784375,4.39383369 55.8351563,3.46932282 55.8351563,2.42112563 C55.8351563,2.1674799 55.7961328,1.91620137 55.7186719,1.67202445 C55.5202734,1.05264596 55.0961719,0.55056234 54.5245313,0.258331212 C53.9588672,-0.0308225531 53.3162109,-0.0789951206 52.7155078,0.122690518 L47.8850391,1.74067331 C47.4242578,1.89501491 47.1746484,2.39733524 47.3274609,2.86260886 C47.4802734,3.32788248 47.9775,3.58010789 48.4382813,3.4257663 L53.2693359,1.80766514 C53.4223828,1.75617849 53.5863281,1.7686063 53.7307031,1.84246302 C53.8810547,1.91927873 53.9930859,2.05278894 54.0454688,2.21636262 C54.0665625,2.28288101 54.0772266,2.3517666 54.0772266,2.42100727 C54.0772266,2.70294106 53.9041406,2.95031371 53.6470313,3.03659823 L8.29324219,18.2278825 L4.24652344,18.2278825 L44.8064063,4.64227158 C45.2671875,4.48792999 45.5167969,3.98560965 45.3639844,3.52033603 C45.2111719,3.05506241 44.7140625,2.80295536 44.2531641,2.95717859 L3.21632812,16.7025757 C2.23875,17.0304332 1.58203125,17.9539972 1.58203125,19.0007741 C1.58203125,19.0289438 1.58285156,19.0555748 1.58367187,19.0820875 C1.58320313,19.0933317 1.58203125,19.1042208 1.58203125,19.1155834 L1.58203125,25.6838597 L0.87890625,25.6838597 C0.393515625,25.6838597 0,26.081313 0,26.5715606 L0,33.6730492 C0,34.1632968 0.393515625,34.5607501 0.87890625,34.5607501 L1.11328125,34.5607501 L1.11328125,50.3622991 C1.11328125,50.8525467 1.50679688,51.25 1.9921875,51.25 L5.5078125,51.25 C5.99320312,51.25 6.38671875,50.8525467 6.38671875,50.3622991 L6.38671875,34.5608685 L27.3632812,34.5608685 L27.3632812,42.2654019 C26.8869141,41.5713382 26.0929688,41.1155334 25.1953125,41.1155334 C23.7413672,41.1155334 22.5585938,42.310142 22.5585938,43.778636 L22.5585938,44.6663369 L22.1484375,44.6663369 C21.4053516,44.6663369 20.8007812,45.2769567 20.8007812,46.0274782 L20.8007812,48.1579603 C20.8007812,48.9084818 21.4053516,49.5191017 22.1484375,49.5191017 L37.8515625,49.5191017 C38.5946484,49.5191017 39.1992188,48.9084818 39.1992188,48.1579603 L39.1992188,46.0274782 C39.1992188,45.2769567 38.5946484,44.6663369 37.8515625,44.6663369 L37.4414062,44.6663369 L37.4414062,43.778636 C37.4414062,42.310142 36.2586328,41.1155334 34.8046875,41.1155334 C33.9070312,41.1155334 33.1130859,41.5713382 32.6367188,42.2654019 L32.6367188,34.5608685 L44.9414062,34.5608685 C45.4267969,34.5608685 45.8203125,34.1634152 45.8203125,33.6731676 C45.8203125,33.18292 45.4267969,32.7854667 44.9414062,32.7854667 L1.7578125,32.7854667 L1.7578125,27.4593798 L3.515625,27.4599716 L3.515625,29.649042 C3.515625,30.1392896 3.90914062,30.5367428 4.39453125,30.5367428 L55.6054688,30.5367428 C56.0908594,30.5367428 56.484375,30.1392896 56.484375,29.649042 L56.484375,27.4599716 L58.2421875,27.4593798 L58.2421875,32.7854667 L48.8085938,32.7854667 C48.3232031,32.7854667 47.9296875,33.18292 47.9296875,33.6731676 C47.9296875,34.1634152 48.3232031,34.5608685 48.8085938,34.5608685 L53.6132812,34.5608685 L53.6132812,50.3622991 C53.6132812,50.8525467 54.0067969,51.25 54.4921875,51.25 L58.0078125,51.25 C58.4932031,51.25 58.8867188,50.8525467 58.8867188,50.3622991 L58.8867188,34.5608685 L59.1210938,34.5608685 C59.6064844,34.5608685 60,34.1634152 60,33.6731676 L60,26.5716789 C60,26.0814313 59.6064844,25.6839781 59.1210938,25.6839781 Z M24.3164062,43.778636 C24.3164062,43.2890985 24.710625,42.8909351 25.1953125,42.8909351 C25.68,42.8909351 26.0742188,43.2890985 26.0742188,43.778636 L26.0742188,44.6663369 L24.3164062,44.6663369 L24.3164062,43.778636 Z M33.9257812,43.778636 C33.9257812,43.2890985 34.32,42.8909351 34.8046875,42.8909351 C35.289375,42.8909351 35.6835938,43.2890985 35.6835938,43.778636 L35.6835938,44.6663369 L33.9257812,44.6663369 L33.9257812,43.778636 Z M37.4414062,46.4416203 L37.4414062,47.7435815 L22.5585938,47.7435815 L22.5585938,46.4416203 L37.4414062,46.4416203 Z M29.1210938,34.5614603 L30.8789062,34.5614603 L30.8789062,41.2682179 C30.6038672,41.1696239 30.3080859,41.1155334 30,41.1155334 C29.6919141,41.1155334 29.3961328,41.1697423 29.1210938,41.2682179 L29.1210938,34.5614603 Z M29.1210938,43.778636 C29.1210938,43.2890985 29.5153125,42.8909351 30,42.8909351 C30.4846875,42.8909351 30.8789062,43.2890985 30.8789062,43.778636 L30.8789062,44.6663369 L29.1210938,44.6663369 L29.1210938,43.778636 Z M2.87109375,34.5614603 L4.62890625,34.5614603 L4.62890625,49.4745982 L2.87109375,49.4745982 L2.87109375,34.5614603 Z M49.1425781,6.41601629 L54.5664844,18.2278825 L39.7069922,18.2278825 L39.7069922,16.5116608 C39.7069922,15.7611393 39.1024219,15.1505195 38.3593359,15.1505195 L23.0650781,15.1505195 L49.1425781,6.41601629 Z M22.0508203,16.9259212 L37.9492969,16.9259212 L37.9492969,18.2278825 L22.0508203,18.2278825 L22.0508203,16.9259212 Z M20.37375,16.0520685 C20.3224219,16.195876 20.2930078,16.3502176 20.2930078,16.5117792 L20.2930078,18.2280009 L13.8775781,18.2280009 L20.37375,16.0520685 Z M56.6601562,25.6839781 L15.0292969,25.6845699 C14.5439063,25.6845699 14.1503906,26.0820231 14.1503906,26.5722707 C14.1503906,27.0625183 14.5439063,27.4599716 15.0292969,27.4599716 L54.7265625,27.4599716 L54.7265625,28.7613411 L5.2734375,28.7613411 L5.2734375,27.4599716 L11.2207031,27.4599716 C11.7060937,27.4599716 12.0996094,27.0625183 12.0996094,26.5722707 C12.0996094,26.0820231 11.7060937,25.6845699 11.2207031,25.6845699 L3.33984375,25.6839781 L3.33984375,20.0032843 L56.6601562,20.0032843 L56.6601562,25.6839781 Z M57.1289062,49.4745982 L55.3710938,49.4745982 L55.3710938,34.5614603 L57.1289062,34.5614603 L57.1289062,49.4745982 Z" id="Shape"></path>
                        </g>
                    </g>
                </g>
            </g>
        </g>
    </g>
</svg>