<?xml version="1.0" encoding="UTF-8"?>
<svg width="35px" height="38px" viewBox="0 0 35 38" version="1.1" xmlns="http://www.w3.org/2000/svg" xmlns:xlink="http://www.w3.org/1999/xlink">
    <title>Group 15</title>
    <g id="HP" stroke="none" stroke-width="1" fill="none" fill-rule="evenodd">
        <g id="2,0-HP" transform="translate(-408.000000, -1962.000000)">
            <g id="01-Heritage-Trail" transform="translate(0.000000, 1287.000000)">
                <g id="MAP" transform="translate(0.000000, 296.229665)">
                    <g id="Pin" transform="translate(98.000000, 29.770335)">
                        <g id="Group-16-Copy-7" transform="translate(292.000000, 332.863281)">
                            <g id="Group-15" transform="translate(18.456301, 18.238523)">
                                <circle id="Oval" fill="#242655" cx="17" cy="17" r="17"></circle>
                                <g id="meditation" transform="translate(8.543699, 7.761477)" fill="#FFFFFF" fill-rule="nonzero">
                                    <path d="M0.288867287,14.2238932 C0.304621632,14.3040071 0.353078895,14.3735531 0.422180889,14.4152254 C0.491282883,14.4568976 0.574532312,14.4667778 0.651213246,14.4424074 L2.32134797,13.9116631 C2.13985605,14.5459303 2.42136277,15.2226138 2.99535891,15.531845 C3.00364637,15.536275 3.01214632,15.5403449 3.02082336,15.5439466 L5.71357339,16.6623417 L5.96453453,17.4280239 C6.00311663,17.5456714 6.11139507,17.625 6.23334558,17.625 L9.0666636,17.625 C9.10339034,17.625 9.13976666,17.6177376 9.17376303,17.603606 L14.1328487,15.5439106 C14.1415258,15.5403089 14.1500257,15.536239 14.1583132,15.5318089 C14.7142734,15.2322393 14.9981122,14.5860735 14.8465261,13.9650761 L16.3487868,14.4425154 C16.4254677,14.4668859 16.5087171,14.4570057 16.5778191,14.4153334 C16.6469211,14.3736612 16.6953784,14.3041151 16.7111327,14.2240012 L16.9944645,12.7833274 C17.0224792,12.6408392 16.9417803,12.499434 16.8062259,12.4534851 L15.9562305,12.1653503 C15.8980714,12.1456118 15.8351823,12.1456118 15.7770232,12.1653503 L15.0536417,12.410553 L12.9971132,11.1034296 L12.3171169,8.33733581 C12.207024,7.88842474 11.9093094,7.51096985 11.50229,7.30426461 C11.4896818,7.29785361 9.63339804,6.72799506 9.63339804,6.72799506 L9.63339804,5.97668365 C9.63339661,5.96690451 9.63291198,5.95713162 9.63194597,5.94740195 C9.99342726,5.62003204 10.2001284,5.15118262 10.1999908,4.65893529 L10.1999908,3.5063962 C10.1999876,3.00300278 9.98378412,2.52471994 9.60807526,2.19696773 L9.52909652,1.79519981 C9.42557528,1.26879483 9.04555237,0.843062712 8.54032282,0.68749628 C8.03509327,0.531929848 7.48667686,0.671784004 7.11340958,1.0513799 C6.36606887,1.80727036 5.94714508,2.83579282 5.95001378,3.9076959 L5.95001378,3.98902194 C5.95055574,4.49136882 5.70363024,4.96059676 5.29232983,5.23880651 L5.22617186,5.28361147 C5.14213243,5.34058549 5.09427137,5.43874729 5.10054805,5.54126264 C5.10682474,5.643778 5.16628997,5.73514388 5.25663003,5.78107615 L5.47621217,5.89272838 C6.05319435,6.18524288 6.73195204,6.1843221 7.30816477,5.89024321 C7.32721884,5.9094522 7.3467097,5.92808491 7.36663737,5.94614136 L7.36663737,6.72770693 C7.36663737,6.72770693 5.51035366,7.29752946 5.49774539,7.30397647 C5.09072606,7.51068172 4.79301146,7.8881366 4.68291854,8.33704768 L4.00292222,11.1031415 L1.94635833,12.410445 L1.22297682,12.1652423 C1.16481767,12.1455038 1.10192861,12.1455038 1.04376946,12.1652423 L0.193774051,12.453377 C0.0582196969,12.4993259 -0.0224792081,12.6407311 0.0055354848,12.7832193 L0.288867287,14.2238932 Z M5.89883697,16.1168666 L3.24887004,15.0161918 C2.95811605,14.853455 2.79590456,14.525459 2.84079487,14.1910527 C2.88568519,13.8566465 3.12840984,13.5848672 3.45141686,13.507338 C3.50634693,13.4941398 3.56247599,13.4867769 3.61890138,13.4853677 L3.6198222,13.4853677 C3.78372616,13.4815906 3.94475982,13.5295143 4.08080305,13.6225559 C4.08462803,13.6251491 4.08852384,13.6276703 4.0925259,13.6300834 L7.69792308,15.8230772 L7.38473519,15.886791 L6.60610398,15.6228595 C6.50429369,15.5883368 6.39204163,15.6152756 6.3161493,15.6924441 L5.89883697,16.1168666 Z M4.51380487,13.2148452 L4.86796963,13.1022565 C5.14326335,13.0140963 5.37174332,12.8163675 5.50135787,12.5541162 L6.33229921,10.8646379 L6.51667746,11.0989635 L6.51667746,11.4882336 C6.51673718,11.7050275 6.48236563,11.9204082 6.41489043,12.1260559 L6.24786634,12.6355863 L5.98578442,13.4354844 L5.5706325,13.8576379 L4.51380487,13.2148452 Z M6.43755698,17.0487305 L6.27418078,16.5502933 L6.59321239,16.2258536 L7.27706911,16.457658 C7.32385735,16.4735324 7.37391007,16.4767107 7.42227666,16.4668783 L8.56109342,16.235254 L8.72106964,17.0487305 L6.43755698,17.0487305 Z M8.67984486,15.6233998 L8.52464987,15.6549505 C8.52163947,15.6529696 8.51884156,15.6508086 8.51572492,15.6488997 L6.07198812,14.1625925 L6.43359033,13.7948605 C6.46467946,13.7632175 6.48811542,13.7246627 6.50205038,13.6822358 L6.72088878,13.0148437 L10.2790758,13.0148437 L10.4978434,13.6822358 C10.5117783,13.7246627 10.5352143,13.7632175 10.5663034,13.7948605 L10.985422,14.2210478 L8.67984486,15.6233998 Z M10.0474875,12.3083012 L10.0901997,12.4385741 L6.90980026,12.4385741 L6.95251253,12.3082652 C7.03923629,12.0438633 7.08341421,11.7669565 7.08334099,11.4882336 L7.08334099,11.286035 L9.91665901,11.286035 L9.91665901,11.4882336 C9.91658879,11.7669681 9.96076659,12.0438862 10.0474875,12.3083012 L10.0474875,12.3083012 Z M10.4833226,11.4882336 L10.4833226,11.0989635 L10.6677008,10.8646019 L11.4983588,12.5541162 C11.6279782,12.8163775 11.8564735,13.0141084 12.1317825,13.1022565 L12.5869904,13.2469002 L11.4868839,13.9160572 L11.0142864,13.4354844 L10.7522045,12.6355863 L10.5851804,12.126092 C10.5176828,11.9204354 10.4832874,11.705043 10.4833226,11.4882336 L10.4833226,11.4882336 Z M14.2882916,14.5287398 C14.2296882,14.7369053 14.0914647,14.9124872 13.9045541,15.0161918 L9.27717913,16.9381948 L9.10038009,16.0391062 L13.0610045,13.6300834 C13.0650066,13.6276703 13.0689024,13.6251491 13.0727274,13.6225559 C13.3530804,13.4324748 13.7203512,13.440794 13.9921037,13.6433812 C14.2638563,13.8459684 14.3821769,14.1996498 14.2882916,14.5287398 L14.2882916,14.5287398 Z M11.0499862,8.60998334 L11.0499862,7.75699636 L11.2664163,7.82863387 C11.5166897,7.96216822 11.6989579,8.19805925 11.7673469,8.47693711 L12.4751098,11.3559797 C12.4928987,11.4283599 12.537601,11.4909014 12.5998112,11.5304453 L14.8664656,12.9711192 C14.9381366,13.0166664 15.0260599,13.0272983 15.1062351,13.0001128 L15.8666269,12.7423042 L16.3897636,12.9196151 L16.21725,13.7968414 L14.36341,13.2077139 C14.1003444,12.9959136 13.7694644,12.8907006 13.4346129,12.9123757 L12.3008253,12.5522073 C12.1723634,12.5110926 12.0657375,12.4188475 12.0052394,12.2964877 L11.0495612,10.3527305 C11.3645033,9.81600322 11.3646664,9.1468694 11.0499862,8.60998334 L11.0499862,8.60998334 Z M9.63332721,4.65893529 C9.63332721,5.29546505 9.12591933,5.81147437 8.5,5.81147437 C7.87408067,5.81147437 7.36667279,5.29546505 7.36667279,4.65893529 L7.36667279,3.57162271 C8.03977771,4.03495405 8.82221862,4.3073337 9.63332721,4.36067978 L9.63332721,4.65893529 Z M9.29442696,7.24656562 L9.34999541,7.25787491 L9.34999541,8.26061993 L8.5,8.90892316 L7.65000459,8.26061993 L7.65000459,7.25787491 L7.70557304,7.24656562 C7.83801281,7.21962738 7.93334262,7.10136585 7.9333364,6.96401346 L7.9333364,6.28862555 C8.2999362,6.42078228 8.7000638,6.42078228 9.0666636,6.28862555 L9.0666636,6.96401346 C9.06665738,7.10136585 9.16198719,7.21962738 9.29442696,7.24656562 L9.29442696,7.24656562 Z M9.63332722,3.5063962 L9.63332722,3.78343778 C8.87416784,3.72678642 8.1467308,3.45072286 7.53667187,2.98775361 C7.52509111,2.97905962 7.51287205,2.9712812 7.50012207,2.96448673 C7.74462867,2.49766779 8.2702371,2.26006218 8.77482706,2.38824585 C9.27941701,2.51642953 9.63340866,2.97748464 9.63332722,3.5063962 Z M6.80000919,3.5063962 L6.80000919,4.65893529 C6.79974253,4.92067782 6.85828836,5.179022 6.97117701,5.41424457 C6.63764063,5.55900194 6.2634908,5.57437899 5.91955561,5.45746479 C6.30244369,5.06803992 6.51727806,4.53971889 6.51667738,3.98902194 L6.51667738,3.90773192 C6.51421796,2.98874853 6.87338178,2.10695798 7.51411158,1.45891052 C7.73101412,1.23826476 8.04667106,1.15107317 8.34353457,1.22980509 C8.64039808,1.30853702 8.87398039,1.54139376 8.95729753,1.84166154 C8.4452564,1.69581039 7.89560095,1.80215985 7.47200221,2.12904221 C7.04840346,2.45592457 6.79972253,2.96563474 6.80000919,3.5063962 L6.80000919,3.5063962 Z M6.46907764,8.85266485 C6.50011348,8.80533122 6.51667595,8.74971347 6.51667738,8.69282209 L6.51667738,7.57586764 L7.08334099,7.40658847 L7.08334099,8.40468731 C7.08334099,8.49537984 7.12532911,8.58077962 7.19667371,8.63519513 L8.33000092,9.49959945 C8.43074111,9.57643538 8.56925889,9.57643538 8.66999908,9.49959945 L9.80332629,8.63519513 C9.87467089,8.58077962 9.91665901,8.49537984 9.91665901,8.40468731 L9.91665901,7.40658847 L10.4833226,7.57586764 L10.4833226,8.69282209 C10.483324,8.74971347 10.4998865,8.80533122 10.5309224,8.85266485 C10.8012078,9.26269909 10.7781106,9.80378512 10.4739018,10.1884577 L10.0638145,10.7097655 L6.93618553,10.7097655 L6.52609817,10.1884577 C6.22188938,9.80378512 6.19879222,9.26269909 6.46907764,8.85266485 L6.46907764,8.85266485 Z M1.13337314,12.7423042 L1.89376486,13.0000407 C1.97394012,13.0272263 2.06186342,13.0165944 2.1335344,12.9710472 L4.40018882,11.5303733 C4.462399,11.4908294 4.50710134,11.4282879 4.52489023,11.3559077 L5.23265307,8.47672101 C5.30104208,8.19784315 5.48331025,7.96195212 5.7335837,7.82841777 L5.95001378,7.75699636 L5.95001378,8.60998334 C5.63531631,9.14689396 5.63549309,9.81606393 5.95047419,10.3528025 L4.99479602,12.2965597 C4.9343061,12.4189122 4.82769412,12.5111562 4.69924554,12.5522793 L3.56846832,12.9116554 C3.3306224,12.9226476 3.09988995,12.9975482 2.89976985,13.1287289 C2.8841866,13.1308899 0.782785451,13.7969135 0.782785451,13.7969135 L0.610236384,12.9196871 L1.13337314,12.7423042 Z" id="Shape"></path>
                                    <path d="M16.7142938,6.82501231 L15.8139324,6.82501231 C15.7745067,6.65805462 15.7079602,6.49948424 15.6172172,6.35626915 L15.2377154,5.75856536 C15.1847228,5.67512004 15.0955208,5.625 15,5.625 C14.9044792,5.625 14.8152772,5.67512004 14.7622846,5.75856536 L14.3827828,6.35626915 C14.2920398,6.49948424 14.2254933,6.65805462 14.1860676,6.82501231 L13.2857062,6.82501231 C13.1866832,6.82501585 13.0947224,6.87885442 13.0426661,6.96730043 C12.9906098,7.05574645 12.9858813,7.16618738 13.0301693,7.25918098 L13.3646709,7.96165824 C13.5571344,8.36927895 13.9535853,8.62653974 14.38689,8.625 L15.61311,8.625 C16.0464147,8.62653974 16.4428656,8.36927895 16.6353291,7.96165824 L16.9698307,7.25918098 C17.0141187,7.16618738 17.0093902,7.05574645 16.9573339,6.96730043 C16.9052776,6.87885442 16.8133168,6.82501585 16.7142938,6.82501231 Z M13.8757447,7.69331215 L13.7479941,7.42500356 L14.1553889,7.42500356 C14.1816731,7.63791195 14.2516663,7.84229086 14.3605327,8.02401983 C14.1535879,8.01486648 13.967805,7.88813102 13.8757447,7.69331215 Z M15.2857189,7.22794394 C15.2863472,7.46677568 15.1959365,7.695943 15.034643,7.86434716 L15,7.90072163 L14.9653213,7.86430966 C14.8040463,7.69591083 14.7136489,7.4667581 14.714281,7.22794394 L14.714281,7.18834452 C14.7141311,7.01064293 14.7642236,6.83689328 14.8582136,6.68911429 L15,6.46584255 L15.1417864,6.68911429 C15.2357764,6.83689328 15.2858689,7.01064293 15.2857189,7.18834452 L15.2857189,7.22794394 Z M16.1242553,7.69331215 C16.032195,7.88813102 15.8464121,8.01486648 15.6394673,8.02401983 C15.7483337,7.84229086 15.8183269,7.63791195 15.8446111,7.42500356 L16.2520059,7.42500356 L16.1242553,7.69331215 Z" id="Shape"></path>
                                    <path d="M3.71429378,6.82498981 L2.8139324,6.82498981 C2.77450666,6.65803003 2.70796018,6.49945767 2.61721719,6.35624079 L2.2377154,5.75856703 C2.18472282,5.67512067 2.09552075,5.625 2,5.625 C1.90447925,5.625 1.81527718,5.67512067 1.7622846,5.75856703 L1.38278281,6.35624079 C1.29203982,6.49945767 1.22549334,6.65803003 1.1860676,6.82498981 L0.285706222,6.82498981 C0.186683242,6.82499335 0.0947224081,6.8788326 0.0426660922,6.96727971 C-0.00939022371,7.05572683 -0.0141187222,7.16616914 0.0301693059,7.25916391 L0.364670879,7.96164995 C0.557134378,8.36927575 0.953585251,8.62653976 1.38688997,8.625 L2.61311003,8.625 C3.04641475,8.62653976 3.44286562,8.36927575 3.63532912,7.96164995 L3.96983069,7.25916391 C4.01411872,7.16616914 4.00939022,7.05572683 3.95733391,6.96727971 C3.90527759,6.8788326 3.81331676,6.82499335 3.71429378,6.82498981 Z M0.875744712,7.69330051 L0.747994111,7.42498856 L1.15538888,7.42498856 C1.18171088,7.63791853 1.2517666,7.84230461 1.36071128,8.02401232 C1.15370135,8.01492597 0.967835457,7.88817899 0.875744712,7.69330051 L0.875744712,7.69330051 Z M2.28571892,7.22792647 C2.28634717,7.46676121 2.19593651,7.69593138 2.03464302,7.86433765 L2,7.90071257 L1.96532127,7.86430015 C1.80404632,7.69589922 1.71364895,7.46674363 1.71428104,7.22792647 L1.71428104,7.18832656 C1.71413113,7.01062275 1.76422357,6.83687093 1.85821362,6.6890901 L2,6.46581556 L2.14178638,6.6890901 C2.23577643,6.83687093 2.28586887,7.01062275 2.28571892,7.18832656 L2.28571892,7.22792647 Z M3.12425529,7.69330051 C3.03219504,7.88812181 2.84641215,8.01485886 2.63946729,8.02401232 C2.74833369,7.84228107 2.81832689,7.63789961 2.84461112,7.42498856 L3.25200589,7.42498856 L3.12425529,7.69330051 Z" id="Shape"></path>
                                </g>
                            </g>
                        </g>
                    </g>
                </g>
            </g>
        </g>
    </g>
</svg>