<?xml version="1.0" encoding="UTF-8"?>
<svg width="24px" height="24px" viewBox="0 0 24 24" version="1.1" xmlns="http://www.w3.org/2000/svg" xmlns:xlink="http://www.w3.org/1999/xlink">
    <title>Group 5</title>
    <g id="Symbols" stroke="none" stroke-width="1" fill="none" fill-rule="evenodd">
        <g id="Group-5" transform="translate(0.000000, -0.000000)">
            <circle id="Oval" fill="#7DB2E1" cx="12" cy="12" r="12"></circle>
            <g id="basketball" transform="translate(4.400000, 4.400000)" fill="#FFFFFF" fill-rule="nonzero">
                <path d="M13.14873,2.21175 C13.1487,2.21172 13.14867,2.21169 13.14864,2.21166 C10.14495,-0.79209 5.24451,-0.70122 2.27163,2.27154 C2.2716,2.27157 2.27157,2.2716 2.27154,2.27163 C2.27151,2.27166 2.27148,2.27169 2.27145,2.27172 C-0.70194,5.24511 -0.79149,10.14561 2.21154,13.1487 C5.23689,16.17402 10.13877,16.03842 13.08855,13.08879 C13.08858,13.08876 13.08861,13.08873 13.08864,13.0887 C13.08867,13.08867 13.0887,13.08864 13.08873,13.08861 C16.0647,10.11264 16.14861,5.21172 13.14873,2.21175 Z M14.19867,5.69676 C13.07688,5.88009 11.92686,5.63007 10.98642,5.01018 L12.81951,3.17709 C13.47423,3.9258 13.93404,4.78758 14.19867,5.69676 Z M8.97546,1.00038 C10.13559,1.20966 11.24781,1.72284 12.18321,2.54076 L10.28529,4.43865 C9.37707,3.53046 8.90451,2.27211 8.97546,1.00038 Z M7.76532,0.89181 C7.87029,0.89181 7.97523,0.8943 8.08005,0.89913 C7.97799,2.4624 8.54811,3.97401 9.64899,5.07495 L7.68009,7.04385 L3.23661,2.6004 C4.53168,1.46226 6.15141,0.89181 7.76532,0.89181 Z M2.60031,3.23667 L7.04379,7.68015 L5.07489,9.64902 C3.97176,8.54586 2.45913,7.97823 0.89925,8.08008 C0.82029,6.36378 1.38825,4.61589 2.60031,3.23667 Z M1.0002,8.97555 C2.27193,8.90454 3.5304,9.37713 4.43865,10.28535 L2.5407,12.18327 C1.72272,11.24784 1.20942,10.13571 1.0002,8.97555 Z M5.69667,14.1987 C4.78749,13.93407 3.92571,13.47426 3.177,12.81954 L5.01009,10.98645 C5.62998,11.92689 5.88,13.07688 5.69667,14.1987 Z M6.57654,14.39172 C6.81642,13.00422 6.51459,11.54232 5.658,10.33857 L7.68012,8.31645 L12.1236,12.75993 C10.55508,14.13831 8.50986,14.68344 6.57654,14.39172 Z M12.7599,12.12363 L8.31642,7.68018 L10.33854,5.65806 C11.51694,6.49665 12.97173,6.82194 14.39166,6.57642 C14.68344,8.5098 14.13831,10.55511 12.7599,12.12363 Z" id="Shape"></path>
            </g>
        </g>
    </g>
</svg>