<?xml version="1.0" encoding="UTF-8"?>
<svg width="512px" height="512px" viewBox="0 0 512 512" version="1.1" xmlns="http://www.w3.org/2000/svg" xmlns:xlink="http://www.w3.org/1999/xlink">
    <title>033-rope</title>
    <g id="Page-1" stroke="none" stroke-width="1" fill="none" fill-rule="evenodd">
        <g id="033-rope" fill="#FFFFFF" fill-rule="nonzero">
            <path d="M496,160 L480,160 L480,32 C480,14.368 465.664,0 448,0 L416,0 C398.336,0 384,14.368 384,32 L384,160 L368,160 C359.168,160 352,167.168 352,176 C352,184.832 359.168,192 368,192 L400,192 L416,192 L416,432 C416,458.464 394.464,480 368,480 C341.536,480 320,458.464 320,432 L320,336 C320,300.704 291.296,272 256,272 C220.704,272 192,300.704 192,336 L192,432 C192,458.464 170.464,480 144,480 C117.536,480 96,458.464 96,432 L96,192 L112,192 L144,192 C152.832,192 160,184.832 160,176 C160,167.168 152.832,160 144,160 L128,160 L128,32 C128,14.368 113.632,0 96,0 L64,0 C46.368,0 32,14.368 32,32 L32,160 L16,160 C7.168,160 0,167.168 0,176 C0,184.832 7.168,192 16,192 L48,192 L64,192 L64,432 C64,476.128 99.904,512 144,512 C188.096,512 224,476.128 224,432 L224,336 C224,318.336 238.368,304 256,304 C273.632,304 288,318.336 288,336 L288,432 C288,476.128 323.872,512 368,512 C412.128,512 448,476.128 448,432 L448,192 L464,192 L496,192 C504.832,192 512,184.832 512,176 C512,167.168 504.832,160 496,160 Z" id="Path"></path>
        </g>
    </g>
</svg>