<?xml version="1.0" encoding="UTF-8"?>
<svg width="27px" height="24px" viewBox="0 0 27 24" version="1.1" xmlns="http://www.w3.org/2000/svg" xmlns:xlink="http://www.w3.org/1999/xlink">
    <title>Icon/Football</title>
    <g id="2.-V0.8" stroke="none" stroke-width="1" fill="none" fill-rule="evenodd">
        <g id="4,0-Event-Single" transform="translate(-787.000000, -3633.000000)" fill="#FFFFFF" fill-rule="nonzero">
            <g id="White-area" transform="translate(0.000000, 1080.000000)">
                <g id="Group-2-Copy-3" transform="translate(131.000000, 2031.000000)">
                    <g id="Card/Events" transform="translate(0.000000, 87.000000)">
                        <g id="Icon/Activites" transform="translate(640.000000, 417.000000)">
                            <g id="Group" transform="translate(15.733333, 15.733333)">
                                <g id="019-share-1" transform="translate(0.983333, 2.950000)">
                                    <path d="M25.6922054,6.82924983 L19.1306589,0.30033515 C18.8474324,0.0181736738 18.4221406,-0.0656268921 18.0530454,0.0879995185 C17.683879,0.241244879 17.4432832,0.601677971 17.4433417,1.00138783 L17.4433417,3.96510402 C14.1904552,4.18007863 12.5661181,5.52874483 12.2726341,5.79746309 C8.19075564,9.19478244 8.64217186,13.827343 8.77934758,14.7490035 C8.7813268,14.7621983 8.78330603,14.7756977 8.78558976,14.7888925 L8.91748754,15.5472921 C8.9995994,16.0213975 9.41106849,16.3675697 9.89223191,16.3673523 C10.2397214,16.3673523 10.5617171,16.184993 10.7403057,15.8869073 L11.1356438,15.2280781 C13.2967577,11.6339017 15.9673452,11.0552059 17.4432909,11.0502325 L17.4432909,14.12509 C17.44338,14.5257639 17.6851713,14.8868077 18.0556336,15.0394425 C18.4258822,15.1920682 18.8516175,15.1065525 19.1342113,14.8227932 L25.6958594,8.22800573 C26.0809968,7.84088904 26.0793221,7.21438728 25.6922054,6.82924983 Z M19.4221636,11.7281942 L19.4221636,10.1352202 C19.4221636,9.64949737 19.0700133,9.23568649 18.5905326,9.15854735 C17.4489749,8.97488515 13.8560672,8.75361761 10.7531961,12.3748435 C10.9533518,10.8969185 11.6154797,8.91058561 13.5570008,7.30304654 C13.5807515,7.28325426 13.5889729,7.27665684 13.6107444,7.25488533 C13.6252588,7.24138598 15.1005448,5.91449128 18.333639,5.91449128 L18.4325497,5.91449128 C18.9789181,5.91449128 19.4217576,5.47165172 19.4217576,4.92528331 L19.4217576,3.38113029 L23.5956448,7.53360122 L19.4221636,11.7281942 L19.4221636,11.7281942 Z" id="Shape"></path>
                                    <path d="M22.0927511,17.2576495 C21.5463827,17.2576495 21.1035431,17.7004891 21.1035431,18.2468575 L21.1035431,21.0496472 L1.97846668,21.0496472 L1.97846668,6.54104379 L7.91381598,6.54104379 C8.46018439,6.54104379 8.90302395,6.09820423 8.90302395,5.55183583 C8.90302395,5.00546742 8.46018439,4.56262786 7.91381598,4.56262786 L0.989207967,4.56262786 C0.442839561,4.56262786 0,5.00541667 0,5.55178508 L0,22.0389059 C0,22.5852743 0.442839561,23.0281139 0.989207967,23.0281139 L22.0927511,23.0281139 C22.6391195,23.0281139 23.081959,22.5852743 23.081959,22.0389059 L23.081959,18.2468575 C23.081959,17.7004891 22.6391195,17.2576495 22.0927511,17.2576495 Z" id="Path"></path>
                                </g>
                            </g>
                        </g>
                    </g>
                </g>
            </g>
        </g>
    </g>
</svg>