<?xml version="1.0" encoding="UTF-8"?>
<svg width="60px" height="53px" viewBox="0 0 60 53" version="1.1" xmlns="http://www.w3.org/2000/svg" xmlns:xlink="http://www.w3.org/1999/xlink">
    <title>shoe</title>
    <g id="1.-Homepage" stroke="none" stroke-width="1" fill="none" fill-rule="evenodd">
        <g id="1,2-HP" transform="translate(-128.000000, -4556.000000)" fill="#EB704E" fill-rule="nonzero">
            <g id="03-Marina" transform="translate(47.000000, 3635.000000)">
                <g id="Activities" transform="translate(81.000000, 910.000000)">
                    <g id="shoe" transform="translate(0.000000, 11.000000)">
                        <path d="M47.1863636,32.5904221 L47.1863636,12.787391 C47.1863636,11.9671167 46.8393254,11.1784408 46.2350914,10.6224238 L35.5369199,0.781706141 C34.9474835,0.23949882 34.1707286,-0.0355253988 33.3791762,0.00368018131 C32.5777587,0.0449923299 31.8434001,0.39854474 31.312097,0.998799727 L14.3940146,20.1339316 C13.2259463,21.6860044 13.359007,23.8254588 14.7114577,25.2202412 L40.5623382,51.9003991 C40.7476601,52.0919798 41.0039164,52.2 41.2710947,52.2 L57.0428353,52.2 C58.6732689,52.2 60,50.8777772 60,49.2531448 L60,46.3062895 C60.0009395,39.0559489 54.336877,33.0963496 47.1863636,32.5904221 Z M32.7917363,2.29831842 C32.9681327,2.09796035 33.2126448,1.98010955 33.4807627,1.96723607 C33.746884,1.94862805 34.0032577,2.04576426 34.1993842,2.22657806 L44.8975557,12.0672957 C45.0996717,12.2519715 45.2149988,12.5151756 45.2149988,12.7883273 L45.2149988,15.5623269 L32.0869727,3.3513686 C32.043637,3.31005645 31.9893793,3.29238468 31.940054,3.26102021 L32.7917363,2.29831842 Z M21.4261475,15.1507268 L24.8042207,18.5170232 C25.9338858,19.64275 26.5558534,21.139701 26.5558534,22.733086 C26.5558534,24.2959257 25.9545555,25.764438 24.8643505,26.8823237 L17.6467783,19.4237839 L21.4261475,15.1507268 Z M58.0294573,49.2551343 C58.0294573,49.7964054 57.5868221,50.2373804 57.0437749,50.2373804 L41.6898894,50.2373804 L16.1297928,23.8578765 C15.4535674,23.1604853 15.3875656,22.0906996 15.9227443,21.3745834 L16.3396599,20.9030631 L42.5335856,47.9722341 C42.7189075,48.1638148 42.9751638,48.2727712 43.2432816,48.2727712 L58.0294573,48.2727712 L58.0294573,49.2551343 L58.0294573,49.2551343 Z M43.6624286,46.308279 L26.2346523,28.2978207 C29.297279,25.2036227 29.2864744,20.2056719 26.1981281,17.1280924 L22.7323264,13.6743734 L30.6743923,4.69325272 C30.6999944,4.72368093 30.7127955,4.76007775 30.7423906,4.78758018 L45.2149988,18.2479676 L45.2149988,20.7685938 L39.300552,20.7685938 C38.7564478,20.7685938 38.3148696,21.2086326 38.3148696,21.7508399 L38.3148696,25.6800583 C38.3148696,26.2222656 38.7564478,26.6623043 39.300552,26.6623043 L45.2149988,26.6623043 L45.2149988,28.6269135 L39.300552,28.6269135 C38.7564478,28.6269135 38.3148696,29.0669523 38.3148696,29.6091596 L38.3148696,33.5383779 C38.3148696,34.0805853 38.7564478,34.520624 39.300552,34.520624 L46.2006812,34.520624 C52.7232375,34.520624 58.0294573,39.808345 58.0294573,46.308279 L43.6624286,46.308279 L43.6624286,46.308279 Z M45.2148813,22.733086 L45.2148813,24.6976952 L40.2862344,24.6976952 L40.2862344,22.733086 L45.2148813,22.733086 Z M45.2148813,30.5915227 L45.2148813,30.5915227 L45.2148813,32.5561319 L40.2862344,32.5561319 L40.2862344,30.5915227 L45.2148813,30.5915227 Z" id="Shape"></path>
                        <path d="M11.0001589,27.3046154 L0.999960286,27.3046154 C0.447974583,27.3046154 0,27.8442739 0,28.5092308 C0,29.1741876 0.447974583,29.7138462 0.999960286,29.7138462 L11.0000397,29.7138462 C11.5520254,29.7138462 12,29.1741876 12,28.5092308 C12,27.8442739 11.5521446,27.3046154 11.0001589,27.3046154 Z" id="Path"></path>
                        <path d="M17.3779469,36.1384615 L1.02217486,36.1384615 C0.457926542,36.1384615 0,36.67812 0,37.3430769 C0,38.0080338 0.457926542,38.5476923 1.02217486,38.5476923 L17.3778251,38.5476923 C17.9420734,38.5476923 18.4,38.0080338 18.4,37.3430769 C18.4,36.67812 17.9421952,36.1384615 17.3779469,36.1384615 Z" id="Path"></path>
                        <path d="M22.2333813,44.1692308 L0.966618679,44.1692308 C0.433037797,44.1692308 0,44.7088893 0,45.3738462 C0,46.038803 0.433037797,46.5784615 0.966618679,46.5784615 L22.2333813,46.5784615 C22.7669622,46.5784615 23.2,46.038803 23.2,45.3738462 C23.2,44.7088893 22.7669622,44.1692308 22.2333813,44.1692308 Z" id="Path"></path>
                    </g>
                </g>
            </g>
        </g>
    </g>
</svg>