<?xml version="1.0" encoding="UTF-8"?>
<svg width="30px" height="30px" viewBox="0 0 30 30" version="1.1" xmlns="http://www.w3.org/2000/svg" xmlns:xlink="http://www.w3.org/1999/xlink">
    <title>Icon/Football</title>
    <g id="2.-V0.8" stroke="none" stroke-width="1" fill="none" fill-rule="evenodd">
        <g id="5,0-Sport-Facility" transform="translate(-1064.000000, -2690.000000)" fill="#FFFFFF" fill-rule="nonzero">
            <g id="White-area" transform="translate(0.000000, 967.000000)">
                <g id="3-Similar-activities" transform="translate(131.000000, 1363.000000)">
                    <g id="Card/Play-Copy-3" transform="translate(902.000000, 87.000000)">
                        <g id="Icon/Activites" transform="translate(16.000000, 258.000000)">
                            <g id="skate" transform="translate(15.733333, 15.733333)">
                                <path d="M27.5968371,0.91932832 C26.9868478,0.309283301 26.1345225,0 25.0635323,0 C23.2777874,0 20.8884026,0.878001432 18.1536989,2.53904157 C15.439937,4.18732718 12.5770196,6.48715179 9.87428571,9.18983001 L9.32283353,9.74178346 C6.95901351,12.1056592 4.03037412,16.3680654 2.81251195,18.1971979 L10.3195244,25.7042104 C12.1486013,24.4862925 16.4110075,21.5577089 18.7748832,19.1938331 L19.3263354,18.6418797 C22.7018844,15.2663864 25.4426591,11.6437115 27.0438811,8.44132321 C27.8466921,6.83564551 28.3266855,5.40630329 28.4704942,4.19295254 C28.6391992,2.76912428 28.3452882,1.66772373 27.5968371,0.91932832 Z M7.74751048,19.5876639 C7.42123971,19.9139347 6.89228896,19.9139347 6.5660182,19.5876639 C6.23974743,19.2613931 6.23974743,18.7324424 6.5660182,18.4061716 C6.89228896,18.0799008 7.42123971,18.0799008 7.74751048,18.4061716 C8.07378125,18.7324424 8.07378125,19.2613931 7.74751048,19.5876639 Z M10.1104951,21.9506485 C9.78422428,22.2769192 9.25527354,22.2769192 8.92900277,21.9506485 C8.602732,21.6243777 8.602732,21.095427 8.92900277,20.7691562 C9.25527354,20.4428854 9.78422428,20.4428854 10.1104951,20.7691562 C10.4367658,21.095427 10.4367658,21.6243777 10.1104951,21.9506485 Z M10.1104951,17.2246793 C9.78422428,17.5509501 9.25527354,17.5509501 8.92900277,17.2246793 C8.602732,16.8984086 8.602732,16.3694578 8.92900277,16.043187 C9.25527354,15.7169163 9.78422428,15.7169163 10.1104951,16.043187 C10.4367658,16.3694021 10.4367658,16.8984086 10.1104951,17.2246793 Z M12.4735353,19.5876639 C12.1472646,19.9139347 11.6183138,19.9139347 11.292043,19.5876639 C10.9657723,19.2613931 10.9657723,18.7324424 11.292043,18.4061716 C11.6183138,18.0799008 12.1472646,18.0799008 12.4735353,18.4061716 C12.7998061,18.7324424 12.7998061,19.2613931 12.4735353,19.5876639 Z M19.0310876,8.30380827 C18.7048169,8.63007904 18.1758661,8.63007904 17.8495953,8.30380827 C17.5233246,7.9775375 17.5233246,7.44858675 17.8495953,7.12231598 C18.1758661,6.79604521 18.7048169,6.79604521 19.0310876,7.12231598 C19.3573584,7.44858675 19.3573027,7.9775932 19.0310876,8.30380827 Z M21.3940722,10.6668485 C21.0678014,10.9931193 20.5388507,10.9931193 20.2125799,10.6668485 C19.8863091,10.3405778 19.8863091,9.81162702 20.2125799,9.48535625 C20.5388507,9.15908548 21.0678014,9.15908548 21.3940722,9.48535625 C21.720343,9.81157132 21.720343,10.3405778 21.3940722,10.6668485 Z M21.3940722,5.9408237 C21.0678014,6.26709447 20.5388507,6.26709447 20.2125799,5.9408237 C19.8863091,5.61455293 19.8863091,5.08560218 20.2125799,4.75933141 C20.5388507,4.43306064 21.0678014,4.43306064 21.3940722,4.75933141 C21.720343,5.08560218 21.720343,5.61455293 21.3940722,5.9408237 Z M23.7570568,8.30380827 C23.430786,8.63007904 22.9018353,8.63007904 22.5755645,8.30380827 C22.2492937,7.9775375 22.2492937,7.44858675 22.5755645,7.12231598 C22.9018353,6.79604521 23.430786,6.79604521 23.7570568,7.12231598 C24.0833275,7.44858675 24.0833275,7.9775375 23.7570568,8.30380827 Z" id="Shape"></path>
                                <path d="M1.89479883,19.6424137 L0,22.7875458 L0.161353092,23.1771436 C1.13938564,25.5383459 2.97837646,27.377281 5.33952305,28.3553136 L5.72912087,28.5166667 L8.87447578,26.6220906 L1.89479883,19.6424137 Z" id="Path"></path>
                            </g>
                        </g>
                    </g>
                </g>
            </g>
        </g>
    </g>
</svg>