<?xml version="1.0" encoding="UTF-8"?>
<svg width="19px" height="18px" viewBox="0 0 19 18" version="1.1" xmlns="http://www.w3.org/2000/svg" xmlns:xlink="http://www.w3.org/1999/xlink">
    <title>Atoms / icons / System / Star</title>
    <defs>
        <path d="M12.5,19.03125 L16.9085004,21.6920439 C17.3813365,21.9774288 17.995996,21.8254696 18.2813808,21.3526335 C18.4160693,21.1294768 18.4583035,20.8625499 18.3990868,20.6087127 L17.2291667,15.59375 L17.2291667,15.59375 L21.1252723,12.2185523 C21.5427035,11.8569315 21.5879468,11.225385 21.2263259,10.8079538 C21.0556446,10.6109305 20.8147759,10.4883421 20.5550362,10.4663058 L15.4270833,10.03125 L15.4270833,10.03125 L13.4207179,5.29736998 C13.2052005,4.78887153 12.6182696,4.55136349 12.1097711,4.76688094 C11.8707977,4.86816532 11.6805665,5.05839651 11.5792821,5.29736998 L9.57291667,10.03125 L9.57291667,10.03125 L4.44496379,10.4663058 C3.894656,10.512994 3.48639162,10.9969548 3.53307976,11.5472626 C3.55511609,11.8070023 3.67770441,12.0478709 3.87472773,12.2185523 L7.77083333,15.59375 L7.77083333,15.59375 L6.60091315,20.6087127 C6.47544189,21.146556 6.80973546,21.6842787 7.34757876,21.80975 C7.60141596,21.8689666 7.8683428,21.8267324 8.09149958,21.6920439 L12.5,19.03125 L12.5,19.03125 Z" id="path-1"></path>
    </defs>
    <g id="2.-V0.8" stroke="none" stroke-width="1" fill="none" fill-rule="evenodd">
        <g id="5,0-Sport-Facility" transform="translate(-1069.000000, -1855.000000)">
            <g id="Group-2-Copy-2" transform="translate(1034.000000, 967.000000)">
                <g id="Newsletter-Copy-2" transform="translate(32.000000, 842.000000)">
                    <g id="Atoms-/-icons-/-System-/-Star-Copy-3" transform="translate(0.000000, 42.000000)">
                        <mask id="mask-2" fill="white">
                            <use xlink:href="#path-1"></use>
                        </mask>
                        <use id="Mask" fill-opacity="0.7" fill="#000000" xlink:href="#path-1"></use>
                        <g id="Group" mask="url(#mask-2)" fill="#FBBC43">
                            <g id="↪🎨">
                                <rect id="Atoms-/-Colors-/-Black" x="0" y="0" width="25" height="25"></rect>
                            </g>
                        </g>
                    </g>
                </g>
            </g>
        </g>
    </g>
</svg>