<?xml version="1.0" encoding="UTF-8"?>
<svg width="24px" height="24px" viewBox="0 0 24 24" version="1.1" xmlns="http://www.w3.org/2000/svg" xmlns:xlink="http://www.w3.org/1999/xlink">
    <title>Group 5</title>
    <g id="Symbols" stroke="none" stroke-width="1" fill="none" fill-rule="evenodd">
        <g id="Group-5">
            <circle id="Oval" fill="#E75D52" cx="12" cy="12" r="12"></circle>
            <g id="tent" transform="translate(5.000000, 4.000000)" fill="#FFFFFF" fill-rule="nonzero">
                <path d="M14.10105,14.68752 L7.5981,2.70693 L8.70231,0.6726 C8.82225,0.45159 8.74035,0.1752 8.51937,0.05526 C8.29833,-0.06474 8.02197,0.01719 7.90203,0.2382 L7.08,1.75263 L6.258,0.23817 C6.13806,0.01716 5.86161,-0.06471 5.64066,0.05523 C5.41965,0.17517 5.33778,0.45156 5.45772,0.67257 L6.56208,2.70717 L0.05895,14.68752 C-0.01764,14.82861 -0.01425,14.99958 0.0678,15.13752 C0.14988,15.27546 0.29853,15.36 0.45909,15.36 L9.86241,15.36 C9.86328,15.36 13.70094,15.36 13.70094,15.36 C13.86147,15.36 14.01012,15.27546 14.09223,15.13752 C14.17425,14.99961 14.17761,14.82858 14.10105,14.68752 Z M5.06046,14.44944 L7.08,10.72878 L9.09951,14.44944 L5.06046,14.44944 L5.06046,14.44944 Z M10.13559,14.44944 L7.48017,9.55719 C7.40052,9.41046 7.24698,9.31911 7.08003,9.31911 C6.91308,9.31911 6.75951,9.41046 6.67989,9.55719 L4.02447,14.44944 L1.22427,14.44944 L7.08015,3.66144 L12.93576,14.44944 L10.13559,14.44944 Z" id="Shape"></path>
                <path d="M7.56567,7.65984 L6.59439,7.65984 C6.34296,7.65984 6.13911,7.86369 6.13911,8.11512 C6.13911,8.36655 6.34296,8.5704 6.59439,8.5704 L7.56567,8.5704 C7.8171,8.5704 8.02095,8.36655 8.02095,8.11512 C8.02095,7.86369 7.8171,7.65984 7.56567,7.65984 Z" id="Path"></path>
                <path d="M7.56567,6.13206 L6.59439,6.13206 C6.34293,6.13206 6.13911,6.33591 6.13911,6.58734 C6.13911,6.83877 6.34296,7.04262 6.59439,7.04262 L7.56567,7.04262 C7.8171,7.04262 8.02095,6.83877 8.02095,6.58734 C8.02095,6.33591 7.8171,6.13206 7.56567,6.13206 Z" id="Path"></path>
            </g>
        </g>
    </g>
</svg>