<?xml version="1.0" encoding="UTF-8"?>
<svg width="34px" height="26px" viewBox="0 0 34 26" version="1.1" xmlns="http://www.w3.org/2000/svg" xmlns:xlink="http://www.w3.org/1999/xlink">
    <title>basketball-court (1) 2</title>
    <g id="Extras" stroke="none" stroke-width="1" fill="none" fill-rule="evenodd">
        <g id="Sports" transform="translate(-600.000000, -1583.000000)" fill="#FFFFFF" fill-rule="nonzero">
            <g id="basketball-court-(1)" transform="translate(617.000000, 1596.000000) scale(1, -1) translate(-617.000000, -1596.000000) translate(600.000000, 1583.000000)">
                <path d="M33.0039062,19.5811971 L34,19.5811971 L34,16.1732992 L27.3404389,16.1732992 C28.4454804,18.2037557 30.5697021,19.5811971 33.0039062,19.5811971 Z" id="Path"></path>
                <path d="M13.7281952,12.982015 C13.7281952,14.4671021 14.6856385,15.7284342 16.0039062,16.1590169 L16.0039062,9.80474855 C14.6856385,10.2355957 13.7281952,11.4966634 13.7281952,12.982015 Z" id="Path"></path>
                <path d="M20.2715454,12.982015 C20.2715454,11.4966634 19.3143615,10.2355957 17.9960938,9.80474855 L17.9960938,16.1590169 C19.3143615,15.7284342 20.2715454,14.4671021 20.2715454,12.982015 Z" id="Path"></path>
                <path d="M27.3404389,9.79073076 L34,9.79073076 L34,6.38256836 L33.0039062,6.38256836 C30.5697021,6.38256836 28.4452209,7.76027423 27.3404389,9.79073076 L27.3404389,9.79073076 Z" id="Path"></path>
                <path d="M26.5313721,12.982015 C26.5313721,13.3776855 26.5658722,13.7654216 26.6317597,14.1420492 L34,14.1420492 L34,11.8219808 L26.6317597,11.8219808 C26.5658722,12.1986084 26.5313721,12.5863444 26.5313721,12.982015 L26.5313721,12.982015 Z" id="Path"></path>
                <path d="M0,3.73533123 L0,4.35131836 L0.99609375,4.35131836 C4.8087463,4.35131836 8.04008486,6.93507892 9.09609982,10.4752198 C9.10466005,10.5006104 9.11218262,10.5262655 9.11892697,10.5524495 C9.34097287,11.3234253 9.46081543,12.1385702 9.46081543,12.982015 C9.46081543,13.8249308 9.34097287,14.6400757 9.11892697,15.410787 C9.11218262,15.4375 9.10466005,15.4634196 9.09609982,15.4890747 C8.03982541,19.028951 4.80848692,21.6124471 0.99609375,21.6124471 L0,21.6124471 L0,22.2286987 C0,24.2882487 1.6432953,25.9640299 3.66323849,25.9640299 L16.0039062,25.9640299 L16.0039062,18.2513631 C13.5761871,17.7750244 11.7360077,15.5940755 11.7360077,12.982015 C11.7360077,10.36969 13.5761871,8.18874103 16.0039062,7.71266681 L16.0039062,-1.92438658e-15 L3.66323849,-1.92438658e-15 C1.6432953,-1.92438658e-15 0,1.67551678 0,3.73533123 Z" id="Path"></path>
                <path d="M30.3365021,-1.92438658e-15 L17.9960938,-1.92438658e-15 L17.9960938,7.71266681 C20.4238129,8.18874103 22.2637329,10.36969 22.2637329,12.982015 C22.2637329,15.5940755 20.4238129,17.7750244 17.9960938,18.2513631 L17.9960938,25.9637655 L30.3365021,25.9637655 C32.3567047,25.9637655 34,24.2882487 34,22.2286987 L34,21.6124471 L33.0039062,21.6124471 C29.1915131,21.6124471 25.9601746,19.028951 24.9039002,15.4890747 C24.8953399,15.4634196 24.8878174,15.4372355 24.881073,15.410787 C24.6590271,14.6400757 24.5391846,13.8249308 24.5391846,12.9817505 C24.5391846,12.1375122 24.6595459,11.3210449 24.8821106,10.5492757 C24.8883361,10.5246785 24.8953399,10.5006104 24.9033813,10.4770711 C25.9586182,6.9358724 29.1904755,4.35131836 33.0039062,4.35131836 L34,4.35131836 L34,3.7350667 C34,1.67551678 32.3567047,-1.92438658e-15 30.3365021,-1.92438658e-15 L30.3365021,-1.92438658e-15 Z" id="Path"></path>
                <path d="M0.99609375,6.38256836 L0,6.38256836 L0,9.79073076 L6.65956114,9.79073076 C5.55477909,7.76027423 3.43029785,6.38256836 0.99609375,6.38256836 Z" id="Path"></path>
                <path d="M6.65956114,16.1732992 L0,16.1732992 L0,19.5811971 L0.99609375,19.5811971 C3.43029785,19.5811971 5.55477909,18.2037557 6.65956114,16.1732992 L6.65956114,16.1732992 Z" id="Path"></path>
                <path d="M7.46862793,12.982015 C7.46862793,12.5863444 7.43412782,12.1986084 7.36849979,11.8219808 L0,11.8219808 L0,14.1420492 L7.36824034,14.1420492 C7.43412782,13.7654216 7.46862793,13.3776855 7.46862793,12.982015 Z" id="Path"></path>
            </g>
        </g>
    </g>
</svg>