<?xml version="1.0" encoding="UTF-8"?>
<svg width="17px" height="22px" viewBox="0 0 17 22" version="1.1" xmlns="http://www.w3.org/2000/svg" xmlns:xlink="http://www.w3.org/1999/xlink">
    <title>parking (1) 3</title>
    <g id="Page-1" stroke="none" stroke-width="1" fill="none" fill-rule="evenodd">
        <g id="Interactive-Map" transform="translate(-366.000000, -702.000000)" fill="#419C9B" fill-rule="nonzero">
            <g id="parking-(1)" transform="translate(366.000000, 702.000000)">
                <path d="M8.5,3.95098814 C6.02515201,3.95098814 4.01123596,5.93465565 4.01123596,8.37233202 C4.01123596,10.8100084 6.02515201,12.7936759 8.5,12.7936759 C10.974848,12.7936759 12.988764,10.8100084 12.988764,8.37233202 C12.988764,5.93465565 10.974848,3.95098814 8.5,3.95098814 Z M9.49144997,9.04388933 L8.53384698,9.04388933 L8.53384698,10.4587194 C8.53384698,10.7193939 8.31969503,10.9303294 8.05504548,10.9303294 C7.79039593,10.9303294 7.57624398,10.7193939 7.57624398,10.4587194 L7.57624398,6.68583926 C7.57624398,6.42516469 7.79039593,6.21422925 8.05504548,6.21422925 L9.49144997,6.21422925 C10.2835153,6.21422925 10.9278545,6.84889056 10.9278545,7.62905929 C10.9278545,8.40922801 10.2835153,9.04388933 9.49144997,9.04388933 Z" id="Shape"></path>
                <path d="M9.46816479,6.92648221 L8.4494382,6.92648221 L8.4494382,7.86719368 L9.46816479,7.86719368 C9.7491975,7.86719368 9.97752809,7.65634888 9.97752809,7.39683794 C9.97752809,7.13732701 9.7491975,6.92648221 9.46816479,6.92648221 Z" id="Path"></path>
                <path d="M8.5,0 C3.81323077,0 0,3.73903409 0,8.28267045 C0,10.0759954 0.586151282,11.7820142 1.69529231,13.2162685 L7.97705385,21.3825589 C8.10028205,21.5422539 8.29438718,21.6363636 8.5,21.6363636 C8.70561282,21.6363636 8.89971795,21.5422539 9.02294615,21.3825589 L15.3047077,13.2162685 C16.4138487,11.7820142 17,10.0759954 17,8.28267045 C17,3.73903409 13.1867692,0 8.5,0 Z M8.5,13.987571 C5.25504872,13.987571 2.61538462,11.4285217 2.61538462,8.28267045 C2.61538462,5.13681925 5.25504872,2.57776989 8.5,2.57776989 C11.7449513,2.57776989 14.3846154,5.13681925 14.3846154,8.28267045 C14.3846154,11.4285217 11.7449513,13.987571 8.5,13.987571 Z" id="Shape"></path>
            </g>
        </g>
    </g>
</svg>