<?xml version="1.0" encoding="UTF-8"?>
<svg width="15px" height="21px" viewBox="0 0 15 21" version="1.1" xmlns="http://www.w3.org/2000/svg" xmlns:xlink="http://www.w3.org/1999/xlink">
    <title>pin (4) copy 4</title>
    <g id="Page-1" stroke="none" stroke-width="1" fill="none" fill-rule="evenodd">
        <g id="2,6-InteractiveMap" transform="translate(-1039.000000, -835.000000)" fill="#7D9730" fill-rule="nonzero">
            <g id="pins" transform="translate(343.000000, 438.000000)">
                <g id="pin-(4)-copy-4" transform="translate(696.000000, 397.000000)">
                    <path d="M13.9581325,3.59614395 C12.6342438,1.39672422 10.2827468,0.0530126435 7.66781833,0.00166113119 C7.55619125,-0.000553710397 7.44383986,-0.000553710397 7.33217017,0.00166113119 C4.71728436,0.0530126435 2.36578734,1.39672422 1.04185601,3.59614395 C-0.311388089,5.84429019 -0.348412493,8.5447563 0.942797619,10.8199318 L6.35215252,20.3514206 C6.35458104,20.3556452 6.35700957,20.3598698 6.35952331,20.3640534 C6.59751908,20.7622737 7.0238749,21 7.50007946,21 C7.97624142,21 8.40259724,20.7622327 8.6405504,20.3640534 C8.64306414,20.3598698 8.64549267,20.3556452 8.6479212,20.3514206 L14.0572761,10.8199318 C15.348401,8.5447563 15.3113766,5.84429019 13.9581325,3.59614395 Z M7.49999425,9.51563622 C5.80850304,9.51563622 4.43237965,8.19087384 4.43237965,6.5625141 C4.43237965,4.93415436 5.80850304,3.60939198 7.49999425,3.60939198 C9.19148546,3.60939198 10.5676089,4.93415436 10.5676089,6.5625141 C10.5676089,8.19087384 9.19152807,9.51563622 7.49999425,9.51563622 Z" id="Shape"></path>
                </g>
            </g>
        </g>
    </g>
</svg>