<?xml version="1.0" encoding="UTF-8"?>
<svg width="20px" height="12px" viewBox="0 0 20 12" version="1.1" xmlns="http://www.w3.org/2000/svg" xmlns:xlink="http://www.w3.org/1999/xlink">
    <!-- Generator: Sketch 55.2 (78181) - https://sketchapp.com -->
    <title>Shape</title>
    <desc>Created with Sketch.</desc>
    <g id="design" stroke="none" stroke-width="1" fill="none" fill-rule="evenodd">
        <g id="18-marsana-fand-b-info-a2" transform="translate(-1185.000000, -1645.000000)" fill="#FFFFFF">
            <path d="M1204.48,1651.12667 C1204.54617,1650.80745 1204.45149,1650.47608 1204.22667,1650.24 L1200.06,1645.90667 C1199.81519,1645.63678 1199.44296,1645.52141 1199.08843,1645.60554 C1198.7339,1645.68968 1198.45319,1645.95999 1198.35574,1646.31109 C1198.2583,1646.6622 1198.35954,1647.03852 1198.62,1647.29333 L1201.16,1649.96 L1186.14667,1649.96 C1185.59438,1649.96 1185.14667,1650.40772 1185.14667,1650.96 C1185.14667,1651.51228 1185.59438,1651.96 1186.14667,1651.96 L1201.28667,1651.96 L1198.48,1654.53333 C1198.15959,1654.75447 1197.99664,1655.14146 1198.06236,1655.52518 C1198.12809,1655.90891 1198.41054,1656.21961 1198.78629,1656.3215 C1199.16203,1656.42339 1199.56275,1656.29795 1199.81333,1656 L1204.14667,1652 C1204.3984,1651.78405 1204.52383,1651.45543 1204.48,1651.12667 L1204.48,1651.12667 Z" id="Shape" transform="translate(1194.823679, 1650.967446) rotate(-360.000000) translate(-1194.823679, -1650.967446) "></path>
        </g>
    </g>
</svg>