<?xml version="1.0" encoding="UTF-8"?>
<svg width="12px" height="20px" viewBox="0 0 12 20" version="1.1" xmlns="http://www.w3.org/2000/svg" xmlns:xlink="http://www.w3.org/1999/xlink">
    <!-- Generator: Sketch 55.2 (78181) - https://sketchapp.com -->
    <title>Shape</title>
    <desc>Created with Sketch.</desc>
    <g id="design" stroke="none" stroke-width="1" fill="none" fill-rule="evenodd">
        <g id="07-marsana-landing-a" transform="translate(-267.000000, -902.000000)" fill="#FFFFFF">
            <g id="icons/navigation/arrow" transform="translate(273.000000, 912.000000) rotate(-270.000000) translate(-273.000000, -912.000000) translate(263.000000, 906.000000)">
                <path d="M19.48,6.12666667 C19.5461712,5.80744688 19.4514941,5.47607733 19.2266667,5.24 L15.06,0.906666667 C14.8151904,0.636779588 14.4429594,0.521413051 14.0884278,0.605544768 C13.7338962,0.689676484 13.4531881,0.959988026 13.3557425,1.3110936 C13.2582969,1.66219917 13.3595398,2.03851719 13.62,2.29333333 L16.16,4.96 L1.14666667,4.96 C0.594381917,4.96 0.146666667,5.40771525 0.146666667,5.96 C0.146666667,6.51228475 0.594381917,6.96 1.14666667,6.96 L16.2866667,6.96 L13.48,9.53333333 C13.1595855,9.75446685 12.9966356,10.1414572 13.0623622,10.525183 C13.1280888,10.9089088 13.4105427,11.219608 13.7862866,11.3214999 C14.1620306,11.4233917 14.5627538,11.2979519 14.8133333,11 L19.1466667,7 C19.3984042,6.78405162 19.523833,6.45542823 19.48,6.12666667 L19.48,6.12666667 Z" id="Shape"></path>
            </g>
        </g>
    </g>
</svg>