<?xml version="1.0" encoding="UTF-8"?>
<svg width="40px" height="40px" viewBox="0 0 40 40" version="1.1" xmlns="http://www.w3.org/2000/svg" xmlns:xlink="http://www.w3.org/1999/xlink">
    <title>info</title>
    <g id="Page-1" stroke="none" stroke-width="1" fill="none" fill-rule="evenodd">
        <g id="info" fill="#FFFFFF" fill-rule="nonzero">
            <path d="M19.5467626,39 C8.82054676,39 0.0935251799,30.2729784 0.0935251799,19.5467626 C0.0935251799,8.82054676 8.82054676,0.0935251799 19.5467626,0.0935251799 C30.2729784,0.0935251799 39,8.82054676 39,19.5467626 C39,30.2729784 30.2729784,39 19.5467626,39 Z" id="Shape"></path>
            <path d="M19.5467626,30.0215827 C18.7207482,30.0215827 18.0503597,29.3511942 18.0503597,28.5251799 L18.0503597,16.5539568 C18.0503597,15.7279424 18.7207482,15.057554 19.5467626,15.057554 C20.372777,15.057554 21.0431655,15.7279424 21.0431655,16.5539568 L21.0431655,28.5251799 C21.0431655,29.3511942 20.372777,30.0215827 19.5467626,30.0215827 Z" id="Path"></path>
            <circle id="Oval" cx="19.5467626" cy="10.5683453" r="1.49640288"></circle>
        </g>
    </g>
</svg>