<?xml version="1.0" encoding="UTF-8"?>
<svg width="45px" height="30px" viewBox="0 0 45 30" version="1.1" xmlns="http://www.w3.org/2000/svg" xmlns:xlink="http://www.w3.org/1999/xlink">
    <title>contact</title>
    <g id="Page-1" stroke="none" stroke-width="1" fill="none" fill-rule="evenodd">
        <g id="contact" fill="#FFFFFF" fill-rule="nonzero">
            <path d="M40.312608,0 L4.68747986,0 C2.10375411,0 0,2.10374589 0,4.68754944 L0,25.3125384 C0,27.8962541 2.10375411,30 4.68747986,30 L40.3125201,30 C42.8962459,30 45,27.8962541 45,25.3125384 L45,4.68754944 C45,2.10374589 42.8963338,0 40.312608,0 Z M43.1251135,25.3124506 C43.1251135,26.8631019 41.8632654,28.1249451 40.312608,28.1249451 L4.68747986,28.1249451 C3.13682253,28.1249451 1.87497437,26.8631019 1.87497437,25.3124506 L1.87497437,4.68754944 C1.87497437,3.13689817 3.13682253,1.87505493 4.68747986,1.87505493 L40.3125201,1.87505493 C41.8631775,1.87505493 43.1251135,3.13689817 43.1251135,4.68754944 L43.1251135,25.3124506 L43.1251135,25.3124506 Z" id="Shape"></path>
            <path d="M41.6796628,4.36436233 C41.3920591,3.92827576 40.8151123,3.81925411 40.3901858,4.11574637 L25.1747571,14.8476542 C24.0281688,15.6548267 22.5476227,15.6548267 21.4028608,14.8476542 L6.18734511,4.11565671 C5.76250561,3.8153989 5.18547182,3.9281861 4.89786809,4.36427267 C4.61026437,4.80035926 4.71793096,5.39522653 5.14094412,5.69360156 L20.3564597,16.4255094 C21.2470138,17.0548045 22.2693246,17.3684211 23.2897221,17.3684211 C24.3101196,17.3684211 25.3324304,17.0547148 26.2229844,16.4255094 L41.4385001,5.69360156 C41.8615132,5.39522653 41.9690928,4.80044891 41.6796628,4.36436233 Z" id="Path"></path>
        </g>
    </g>
</svg>