<?xml version="1.0" encoding="UTF-8"?>
<svg width="36px" height="35px" viewBox="0 0 36 35" version="1.1" xmlns="http://www.w3.org/2000/svg" xmlns:xlink="http://www.w3.org/1999/xlink">
    <!-- Generator: Sketch 55.2 (78181) - https://sketchapp.com -->
    <title>Combined Shape</title>
    <desc>Created with Sketch.</desc>
    <g id="design" stroke="none" stroke-width="1" fill="none" fill-rule="evenodd">
        <g id="component/header-copy" transform="translate(-86.000000, -7.000000)" fill="#FFFFFF">
            <g id="icons/view/grid" transform="translate(86.000000, 7.000000)">
                <path d="M7.5,0 C8.88071187,0 10,1.11928813 10,2.5 L10,7.5 C10,8.88071187 8.88071187,10 7.5,10 L2.5,10 C1.11928813,10 0,8.88071187 0,7.5 L0,2.5 C0,1.11928813 1.11928813,0 2.5,0 L7.5,0 Z M7.5,7.5 L7.5,2.5 L2.5,2.5 L2.5,7.5 L7.5,7.5 Z M20.5,0 C21.8807119,0 23,1.11928813 23,2.5 L23,7.5 C23,8.88071187 21.8807119,10 20.5,10 L15.5,10 C14.1192881,10 13,8.88071187 13,7.5 L13,2.5 C13,1.11928813 14.1192881,0 15.5,0 L20.5,0 Z M20.5,7.5 L20.5,2.5 L15.5,2.5 L15.5,7.5 L20.5,7.5 Z M33.5,0 C34.8807119,0 36,1.11928813 36,2.5 L36,7.5 C36,8.88071187 34.8807119,10 33.5,10 L28.5,10 C27.1192881,10 26,8.88071187 26,7.5 L26,2.5 C26,1.11928813 27.1192881,0 28.5,0 L33.5,0 Z M33.5,7.5 L33.5,2.5 L28.5,2.5 L28.5,7.5 L33.5,7.5 Z M7.5,12 C8.88071187,12 10,13.1192881 10,14.5 L10,19.5 C10,20.8807119 8.88071187,22 7.5,22 L2.5,22 C1.11928813,22 0,20.8807119 0,19.5 L0,14.5 C0,13.1192881 1.11928813,12 2.5,12 L7.5,12 Z M7.5,19.5 L7.5,14.5 L2.5,14.5 L2.5,19.5 L7.5,19.5 Z M20.5,12 C21.8807119,12 23,13.1192881 23,14.5 L23,19.5 C23,20.8807119 21.8807119,22 20.5,22 L15.5,22 C14.1192881,22 13,20.8807119 13,19.5 L13,14.5 C13,13.1192881 14.1192881,12 15.5,12 L20.5,12 Z M20.5,19.5 L20.5,14.5 L15.5,14.5 L15.5,19.5 L20.5,19.5 Z M33.5,12 C34.8807119,12 36,13.1192881 36,14.5 L36,19.5 C36,20.8807119 34.8807119,22 33.5,22 L28.5,22 C27.1192881,22 26,20.8807119 26,19.5 L26,14.5 C26,13.1192881 27.1192881,12 28.5,12 L33.5,12 Z M33.5,19.5 L33.5,14.5 L28.5,14.5 L28.5,19.5 L33.5,19.5 Z M7.5,25 C8.88071187,25 10,26.1192881 10,27.5 L10,32.5 C10,33.8807119 8.88071187,35 7.5,35 L2.5,35 C1.11928813,35 0,33.8807119 0,32.5 L0,27.5 C0,26.1192881 1.11928813,25 2.5,25 L7.5,25 Z M7.5,32.5 L7.5,27.5 L2.5,27.5 L2.5,32.5 L7.5,32.5 Z M33.5,25 C34.8807119,25 36,26.1192881 36,27.5 L36,32.5 C36,33.8807119 34.8807119,35 33.5,35 L28.5,35 C27.1192881,35 26,33.8807119 26,32.5 L26,27.5 C26,26.1192881 27.1192881,25 28.5,25 L33.5,25 Z M33.5,32.5 L33.5,27.5 L28.5,27.5 L28.5,32.5 L33.5,32.5 Z M20.5,25 C21.8807119,25 23,26.1192881 23,27.5 L23,32.5 C23,33.8807119 21.8807119,35 20.5,35 L15.5,35 C14.1192881,35 13,33.8807119 13,32.5 L13,27.5 C13,26.1192881 14.1192881,25 15.5,25 L20.5,25 Z M20.5,32.5 L20.5,27.5 L15.5,27.5 L15.5,32.5 L20.5,32.5 Z" id="Combined-Shape"></path>
            </g>
        </g>
    </g>
</svg>