<?xml version="1.0" encoding="UTF-8"?>
<svg width="18px" height="30px" viewBox="0 0 18 30" version="1.1" xmlns="http://www.w3.org/2000/svg" xmlns:xlink="http://www.w3.org/1999/xlink">
    <!-- Generator: Sketch 55.2 (78181) - https://sketchapp.com -->
    <title>Shape</title>
    <desc>Created with Sketch.</desc>
    <g id="design" stroke="none" stroke-width="1" fill="none" fill-rule="evenodd">
        <g id="18-marsana-fand-b-info-a2" transform="translate(-647.000000, -1663.000000)" fill="#FFFFFF">
            <path d="M664.333333,1667.66667 L664.333333,1687.66667 C664.333333,1690.244 662.243995,1692.33333 659.666667,1692.33333 L651.666667,1692.33333 C649.089338,1692.33333 647,1690.244 647,1687.66667 L647,1667.66667 C647,1665.08934 649.089338,1663 651.666667,1663 L659.666667,1663 C662.243995,1663 664.333333,1665.08934 664.333333,1667.66667 Z M649,1669 L649,1685 L662.333333,1685 L662.333333,1669 L649,1669 Z M651.666667,1665 C650.453895,1665.00394 649.396521,1665.82573 649.093333,1667 L662.24,1667 C661.936812,1665.82573 660.879438,1665.00394 659.666667,1665 L651.666667,1665 Z M659.666667,1690.33333 C661.139426,1690.33333 662.333333,1689.13943 662.333333,1687.66667 L662.333333,1687 L649,1687 L649,1687.66667 C649,1689.13943 650.193907,1690.33333 651.666667,1690.33333 L659.666667,1690.33333 Z M655.333333,1689.66667 C654.781049,1689.66667 654.333333,1689.21895 654.333333,1688.66667 C654.333333,1688.11438 654.781049,1687.66667 655.333333,1687.66667 C655.885618,1687.66667 656.333333,1688.11438 656.333333,1688.66667 C656.333333,1689.21895 655.885618,1689.66667 655.333333,1689.66667 Z" id="Shape" transform="translate(655.666667, 1677.666667) rotate(-360.000000) translate(-655.666667, -1677.666667) "></path>
        </g>
    </g>
</svg>