<?xml version="1.0" encoding="UTF-8"?>
<svg width="32px" height="39px" viewBox="0 0 32 39" version="1.1" xmlns="http://www.w3.org/2000/svg" xmlns:xlink="http://www.w3.org/1999/xlink">
    <!-- Generator: Sketch 55.2 (78181) - https://sketchapp.com -->
    <title>Shape</title>
    <desc>Created with Sketch.</desc>
    <g id="design" stroke="none" stroke-width="1" fill="none" fill-rule="evenodd">
        <g id="icons/view/grid" fill="#FFFFFF">
            <path d="M16,0 C7.47243243,0 0,7.27351351 0,15.5675676 C0.152825113,18.0998584 0.874100024,20.5651996 2.11027027,22.7805405 L2.23135135,22.9967568 C2.32648649,23.1437838 4.54054054,26.5772973 7.12648649,30.0713514 C12.0648649,36.7481081 14.1232432,38.0540541 16,38.0540541 C17.8767568,38.0540541 19.9437838,36.7481081 24.8821622,30.0713514 C27.4767568,26.6118919 29.6735135,23.1524324 29.7686486,22.9967568 L29.8897297,22.7805405 C31.1259,20.5651996 31.8471749,18.0998584 32,15.5675676 C32,7.27351351 24.5275676,0 16,0 Z M27.5891892,21.6216216 C27.5891892,21.6216216 18.6724324,35.4594595 16,35.4594595 C13.3275676,35.4594595 4.41081081,21.6216216 4.41081081,21.6216216 C3.3645248,19.7630121 2.74417758,17.695188 2.59459459,15.5675676 C2.59459459,8.64864865 8.83891892,2.59459459 16,2.59459459 C23.1610811,2.59459459 29.4054054,8.64864865 29.4054054,15.5675676 C29.2558224,17.695188 28.6354752,19.7630121 27.5891892,21.6216216 L27.5891892,21.6216216 Z" id="Shape"></path>
        </g>
    </g>
</svg>