<?xml version="1.0" encoding="UTF-8"?>
<svg width="240px" height="32px" viewBox="0 0 240 32" version="1.1" xmlns="http://www.w3.org/2000/svg" xmlns:xlink="http://www.w3.org/1999/xlink">
    <!-- Generator: Sketch 55.2 (78181) - https://sketchapp.com -->
    <title>logo copy</title>
    <desc>Created with Sketch.</desc>
    <g id="design" stroke="none" stroke-width="1" fill="none" fill-rule="evenodd">
        <g id="graphic/logo/marsana-en" fill="#FFFFFF">
            <path d="M14.4451202,25.7190388 L12.6657334,21.9090415 C11.77604,20.0573398 10.7813337,17.2521909 10.7813337,17.2521909 L10.5721411,17.2521909 C10.5721411,17.2521909 10.7292439,19.8985022 10.7292439,22.7558948 L10.7292439,31.3807378 L3.55271368e-15,31.3807378 L3.55271368e-15,0.21358631 L11.6714438,0.21358631 L14.863922,6.98714892 C16.5908023,10.6383086 17.2192134,12.7545992 17.2192134,12.7545992 L17.4284059,12.7545992 C17.4284059,12.7545992 18.0564003,10.6383086 19.7836973,6.98714892 L22.9761755,0.21358631 L34.6472026,0.21358631 L34.6472026,31.3807378 L23.9183754,31.3807378 L23.9183754,22.7558948 C23.9183754,19.8985022 24.0750614,17.2521909 24.0750614,17.2521909 L23.8658689,17.2521909 C23.8658689,17.2521909 22.8715792,20.0573398 21.9818858,21.9090415 L20.2020824,25.7190388 L14.4451202,25.7190388 Z M60.3865337,27.4366169 L50.0970546,27.4366169 L48.8242773,31.5945155 L38.0048262,31.5945155 L48.2406748,0.982979938 L62.7196771,0.982979938 L73.0091563,31.5945155 L61.7653054,31.5945155 L60.3865337,27.4366169 Z M56.7797685,15.2753427 C55.8781828,11.9491893 55.2417942,9.29877722 55.2417942,9.29877722 L55.0293831,9.29877722 C55.0293831,9.29877722 54.5521972,11.9491893 53.6506115,15.2753427 L52.537037,19.4849668 L57.8937653,19.4849668 L56.7797685,15.2753427 Z M93.297417,31.5945155 C92.3077726,30.5554406 91.9955807,29.619818 91.5789101,27.800299 L91.0581755,25.4097232 C90.6937443,23.5910318 89.9126425,23.0191475 88.4026781,23.0191475 L86.4760432,23.0191475 L86.4760432,31.5945155 L76.0095275,31.5945155 L76.0095275,0.982979938 L90.8500476,0.982979938 C97.8795494,0.982979938 103.13872,3.52997557 103.13872,10.8577089 C103.13872,15.9512863 100.639111,18.185856 96.9421443,18.8094665 L96.9421443,19.0176125 C99.649881,19.433077 101.003957,20.784164 101.784644,23.5393057 L102.930592,27.5929806 C103.450912,29.3599459 103.867582,30.4511607 105.013115,31.5945155 L93.297417,31.5945155 Z M86.4760432,14.9635238 L89.6004505,14.9635238 C91.1622395,14.9635238 92.2037086,14.2360472 92.2037086,12.416942 C92.2037086,10.8577089 91.2663035,9.97422625 89.7045145,9.97422625 L86.4760432,9.97422625 L86.4760432,14.9635238 Z M115.155798,21.1940927 C115.8589,23.0732183 117.103546,23.8562912 118.781169,23.8562912 C120.241657,23.8562912 120.999474,23.3866137 120.999474,22.4472587 C120.999474,21.6118147 120.295941,21.1421372 118.564465,20.8811129 C109.149701,19.4712491 106.011159,16.287002 106.011159,10.6492096 C106.011159,2.61024302 112.342096,-3.55271368e-15 119.538555,-3.55271368e-15 C126.518742,-3.55271368e-15 131.388329,2.34921872 132.686828,7.93464001 L122.027848,10.2314876 C121.75686,8.56101521 120.620781,8.03938225 119.159862,8.03938225 C117.969499,8.03938225 117.265966,8.50905974 117.265966,9.34408812 C117.265966,10.3358142 118.185772,10.8582785 120.783201,11.1712582 C128.899467,12.1110288 132.849248,15.6606268 132.849248,21.9252101 C132.849248,29.3378015 126.356322,32 118.402045,32 C111.800983,32 106.552272,29.8078946 105.091353,24.6917352 L115.155798,21.1940927 Z M156.397988,27.4366169 L146.108931,27.4366169 L144.836154,31.5945155 L134.016703,31.5945155 L144.252552,0.982979938 L158.731554,0.982979938 L169.021033,31.5945155 L157.777182,31.5945155 L156.397988,27.4366169 Z M152.791645,15.2753427 C151.89006,11.9491893 151.253249,9.29877722 151.253249,9.29877722 L151.04126,9.29877722 C151.04126,9.29877722 150.564074,11.9491893 149.662488,15.2753427 L148.548491,19.4849668 L153.905642,19.4849668 L152.791645,15.2753427 Z M187.790501,9.97422625 C189.854172,12.8845464 191.071393,14.9635238 191.071393,14.9635238 L191.282901,14.9635238 C191.282901,14.9635238 191.177147,12.4686681 191.177147,9.558348 L191.177147,0.982979938 L202.025116,0.982979938 L202.025116,31.5945155 L193.029732,31.5945155 L186.361773,22.603683 C184.351189,19.8485414 182.975127,17.6661117 182.975127,17.6661117 L182.763619,17.6661117 C182.763619,17.6661117 182.869373,20.0566874 182.869373,23.9543563 L182.869373,31.5945155 L172.021404,31.5945155 L172.021404,0.982979938 L181.54682,0.982979938 L187.790501,9.97422625 Z M223.79173,14.7655177 C222.891317,11.3789471 222.255335,8.6803921 222.255335,8.6803921 L222.043622,8.6803921 C222.043622,8.6803921 221.567479,11.3789471 220.666645,14.7655177 L219.554097,19.0516067 L224.904277,19.0516067 L223.79173,14.7655177 Z M227.39338,27.147693 L217.117712,27.147693 L215.846591,31.3811169 L205.041218,31.3811169 L215.263747,0.213544178 L229.72391,0.213544178 L240,31.3811169 L228.77078,31.3811169 L227.39338,27.147693 Z" id="english"></path>
        </g>
    </g>
</svg>