<?xml version="1.0" encoding="UTF-8"?>
<svg width="870px" height="774px" viewBox="0 0 870 774" version="1.1" xmlns="http://www.w3.org/2000/svg" xmlns:xlink="http://www.w3.org/1999/xlink">
    <!-- Generator: Sketch 55.2 (78181) - https://sketchapp.com -->
    <title>M</title>
    <desc>Created with Sketch.</desc>
    <g id="design" stroke="none" stroke-width="1" fill="none" fill-rule="evenodd">
        <g id="03-marsana-intro" transform="translate(-282.000000, -125.000000)" fill="#FFFFFF" fill-rule="nonzero">
            <path d="M789.179234,758.39219 L644.820766,758.39219 L600.200876,663.777589 C577.89093,617.78438 552.956286,548.137521 552.956286,548.137521 L547.706887,548.137521 C547.706887,548.137521 551.643936,613.842105 551.643936,684.803056 L551.643936,899 L282.612245,899 L282.612245,125 L575.266231,125 L655.319563,293.203735 C698.627104,383.876061 714.375301,436.439728 714.375301,436.439728 L719.624699,436.439728 C719.624699,436.439728 735.372896,383.876061 778.680437,293.203735 L858.733769,125 L1151.38776,125 L1151.38776,899 L882.356064,899 L882.356064,684.803056 C882.356064,613.842105 886.293113,548.137521 886.293113,548.137521 L881.043714,548.137521 C881.043714,548.137521 856.10907,617.78438 833.799124,663.777589 L789.179234,758.39219 Z" id="M"></path>
        </g>
    </g>
</svg>