<?xml version="1.0" encoding="UTF-8"?>
<svg width="1895px" height="1506px" viewBox="0 0 1895 1506" version="1.1" xmlns="http://www.w3.org/2000/svg" xmlns:xlink="http://www.w3.org/1999/xlink">
    <!-- Generator: Sketch 55.2 (78181) - https://sketchapp.com -->
    <title>Mask</title>
    <desc>Created with Sketch.</desc>
    <defs>
        <path d="M1041.74554,974.888198 C1180.31538,1103.04171 1254.57329,1278.06884 1244.89689,1359.65816 C1232.79753,1461.61831 1031.07895,1613.55916 952.959183,1661.54734 C874.839418,1709.52932 680.103639,1693.53326 575.223753,1693.53326 C470.331341,1693.53326 274.67496,1569.58086 264.579636,1563.57225 C254.503101,1557.58226 224.242182,1477.61437 252.486541,1251.68941 C270.967333,1103.87077 403.437623,1009.12013 492.814441,961.276679 C486.931644,959.859068 481.073274,958.337502 475.241721,956.70458 C464.509598,953.703178 453.877251,950.319551 443.357152,946.52237 C342.43404,910.091989 256.676834,834.51806 208.690963,739.745183 C160.692619,644.972305 150.976961,532.015567 182.094505,430.632086 C219.529097,308.683673 322.803173,202.75736 450.453698,182.593451 C526.295695,170.612906 606.739845,194.298293 679.170761,164.641431 C771.594231,126.79494 876.820169,138.637634 974.282311,135.354262 C1037.48398,133.230097 1100.5921,127.578187 1163.88107,128.254912 C1196.20839,128.612073 1228.57937,130.516929 1260.545,135.460784 C1337.22262,147.297212 1412.23523,167.517514 1485.98818,191.058784 C1533.43775,206.209912 1587.21685,216.417186 1627.21443,247.653073 C1686.95513,294.290728 1688.33952,387.039695 1694.01426,455.363891 C1704.8711,585.921753 1701.64086,760.128401 1593.2221,853.616753 C1546.75157,893.687666 1485.68885,912.823955 1425.64883,927.041453 C1299.84779,956.807644 1171.17621,969.329099 1041.74551,974.888208 Z" id="path-1"></path>
    </defs>
    <g id="design" stroke="none" stroke-width="1" fill="none" fill-rule="evenodd">
        <mask id="mask-2" fill="white">
            <use xlink:href="#path-1"></use>
        </mask>
        <use id="Mask" fill="#FFFFFF" transform="translate(931.165642, 912.146027) rotate(41.000000) translate(-931.165642, -912.146027) " xlink:href="#path-1"></use>
    </g>
</svg>