<?xml version="1.0" encoding="UTF-8"?>
<svg width="1709px" height="1728px" viewBox="0 0 1709 1728" version="1.1" xmlns="http://www.w3.org/2000/svg" xmlns:xlink="http://www.w3.org/1999/xlink">
    <!-- Generator: Sketch 55.2 (78181) - https://sketchapp.com -->
    <title>Mask</title>
    <desc>Created with Sketch.</desc>
    <g id="design" stroke="none" stroke-width="1" fill="none" fill-rule="evenodd">
        <path d="M-66.0276403,479.375267 C-63.6962704,486.821002 64.4339157,826.975284 285.747529,789.729709 C507.061142,752.484133 569.960551,620.894932 569.960551,620.894932 C569.960551,620.894932 474.445753,1057.87757 688.773187,1201.88196 C903.092691,1345.88636 872.808671,1470.02982 1010.25641,1405.47759 C1147.70414,1340.92535 1208.27218,1373.20147 1313.10453,1142.29918 C1417.93688,911.388447 1420.26032,618.410203 1420.26032,618.410203 C1420.26032,618.410203 1364.35502,479.375267 1287.47532,481.859996 C1210.59562,484.344724 1189.63708,461.990618 1189.63708,461.990618 C1189.63708,461.990618 1327.07689,362.677535 1394.63904,308.055761 C1462.19325,253.433988 1490.15383,203.781672 1506.45756,166.536097 C1522.76129,129.290521 1588,106.944866 1588,106.944866 L1588,-190.994384 L912.41024,-190.994384 C912.41024,-190.994384 791.266234,-153.748808 784.280054,-79.2661087 C777.293874,-4.78340906 771.370292,-27.1290641 771.370292,-27.1290641 C771.370292,-27.1290641 665.475348,-24.6443354 653.826428,-29.6137928 C642.177508,-34.5747986 618.879669,-71.8203741 567.629181,-86.7033917 C516.378692,-101.611764 348.639007,-178.579192 316.031548,-190.994384 C283.416159,-203.409576 148.299793,-188.509655 141.313613,-190.994384 C134.319504,-193.479112 -80,149.151447 -80,149.151447 L-66.0276403,479.375267 Z" id="Mask" fill="#ABA7B2" transform="translate(754.000000, 613.500000) rotate(-210.000000) translate(-754.000000, -613.500000) "></path>
    </g>
</svg>