<?xml version="1.0" encoding="UTF-8"?>
<svg width="1409px" height="1231px" viewBox="0 0 1409 1231" version="1.1" xmlns="http://www.w3.org/2000/svg" xmlns:xlink="http://www.w3.org/1999/xlink">
    <!-- Generator: Sketch 55.2 (78181) - https://sketchapp.com -->
    <title>Bitmap Copy</title>
    <desc>Created with Sketch.</desc>
    <defs>
        <path d="M0.423895729,713.783254 C1.9002963,667.814132 7.16672517,623.00662 14.9898477,581.846021 C48.8210266,403.957677 152.889262,232.732828 320.80282,153.869446 C561.222049,40.9411878 818.70991,-10.0975942 1084.18294,2.45499262 C1144.03117,5.29148104 1205.63489,11.5587697 1258.42521,39.9056444 C1333.09147,79.9946807 1351.38443,158.47086 1362.11534,235.965525 C1377.89663,350.064397 1411.04362,469.782217 1408.90104,588.329424 C1406.5604,715.818322 1346.13601,825.991134 1263.49359,919.451176 C1161.91003,1034.33346 1045.80552,1145.03755 897.760357,1195.50903 C766.468736,1240.26252 622.375641,1235.67911 486.66382,1217.64265 C367.39046,1201.79433 233.956257,1185.59483 138.170269,1106.05609 C28.8085969,1015.27046 -4.23936949,858.7053 0.423895729,713.783254" id="path-1"></path>
    </defs>
    <g id="design" stroke="none" stroke-width="1" fill="none" fill-rule="evenodd">
        <g id="Bitmap-Copy">
            <mask id="mask-2" fill="white">
                <use xlink:href="#path-1"></use>
            </mask>
            <use id="Mask" fill="#FFFFFF" xlink:href="#path-1"></use>
        </g>
    </g>
</svg>