<?xml version="1.0" encoding="UTF-8"?>
<svg width="22px" height="18px" viewBox="0 0 22 18" version="1.1" xmlns="http://www.w3.org/2000/svg" xmlns:xlink="http://www.w3.org/1999/xlink">
    <!-- Generator: Sketch 55.2 (78181) - https://sketchapp.com -->
    <title>Combined Shape</title>
    <desc>Created with Sketch.</desc>
    <g id="Symbols" stroke="none" stroke-width="1" fill="none" fill-rule="evenodd">
        <path d="M16.835,0.7 L16.83,0.7 C19.6068531,0.699994523 21.8594849,2.94815233 21.865,5.725 L21.865,12.67 C21.8622438,15.4468498 19.6118498,17.6972438 16.835,17.7 L5.89,17.7 C3.11509887,17.6972499 0.865509864,15.449897 0.86,12.675 L0.86,5.73 C0.862756181,2.95315016 3.11315016,0.702756181 5.89,0.7 L16.835,0.7 Z M9.86,5.2 C9.03157288,5.2 8.36,5.87157288 8.36,6.7 L8.36,11.7 C8.36072499,12.2449306 8.65692444,12.7466045 9.13372027,13.0104523 C9.6105161,13.2743001 10.1929,13.258814 10.655,12.97 L14.655,10.47 C15.0940315,10.1959913 15.3608062,9.71502244 15.3608062,9.1975 C15.3608062,8.67997756 15.0940315,8.19900873 14.655,7.925 L10.655,5.425 C10.4168116,5.27529897 10.141325,5.19559844 9.86,5.195 L9.86,5.2 Z" id="Combined-Shape" fill="#FFFFFF"></path>
    </g>
</svg>