<?xml version="1.0" encoding="UTF-8"?>
<svg width="19px" height="20px" viewBox="0 0 19 20" version="1.1" xmlns="http://www.w3.org/2000/svg" xmlns:xlink="http://www.w3.org/1999/xlink">
    <!-- Generator: Sketch 55.2 (78181) - https://sketchapp.com -->
    <title>Combined Shape</title>
    <desc>Created with Sketch.</desc>
    <g id="Symbols" stroke="none" stroke-width="1" fill="none" fill-rule="evenodd">
        <path d="M14.0238095,0.5 C16.7720836,0.5 19,2.72791636 19,5.47619048 L19,14.5238095 C19,17.2720836 16.7720836,19.5 14.0238095,19.5 L4.97619048,19.5 C2.22791636,19.5 0,17.2720836 0,14.5238095 L0,5.47619048 C0,2.72791636 2.22791636,0.5 4.97619048,0.5 L14.0238095,0.5 Z M9.5,6 C7.290861,6 5.5,7.790861 5.5,10 C5.5,12.209139 7.290861,14 9.5,14 C11.709139,14 13.5,12.209139 13.5,10 C13.5,7.790861 11.709139,6 9.5,6 Z M14.5,5.5 C15.0522847,5.5 15.5,5.05228475 15.5,4.5 C15.5,3.94771525 15.0522847,3.5 14.5,3.5 C13.9477153,3.5 13.5,3.94771525 13.5,4.5 C13.5,5.05228475 13.9477153,5.5 14.5,5.5 Z" id="Combined-Shape" fill="#FFFFFF"></path>
    </g>
</svg>