<?xml version="1.0" encoding="UTF-8"?>
<svg width="20px" height="16px" viewBox="0 0 20 16" version="1.1" xmlns="http://www.w3.org/2000/svg" xmlns:xlink="http://www.w3.org/1999/xlink">
    <!-- Generator: Sketch 55.2 (78181) - https://sketchapp.com -->
    <title>Fill 1</title>
    <desc>Created with Sketch.</desc>
    <g id="Symbols" stroke="none" stroke-width="1" fill="none" fill-rule="evenodd">
        <path d="M0.906806066,14.2652326 C2.6801446,15.3990596 4.74579169,15.9997941 6.85041324,15.9997941 C8.4775975,16.0095818 10.0950381,15.6704028 11.5760681,14.9920448 C13.5345354,14.0811068 15.1713659,12.5887192 16.2724922,10.72808 C17.3053157,9.0031124 17.860702,7.0358741 17.8801892,5.02018166 L17.8801892,4.7003843 C18.5816323,4.1673887 19.1955777,3.52779398 19.6925022,2.79129097 C19.7995846,2.63623771 19.7508665,2.42303947 19.595066,2.31644035 C19.4976298,2.24860455 19.3709628,2.23891372 19.2636856,2.28736786 C19.0007053,2.40365781 18.7376276,2.5005661 18.4648063,2.57809273 C18.8058329,2.18076874 19.059167,1.71560895 19.2149675,1.22137666 C19.2735266,1.04694174 19.1760904,0.85312516 18.9909617,0.794980186 C18.8935255,0.765907699 18.7960893,0.775598528 18.7083967,0.824052673 C18.0555743,1.21168584 17.3442902,1.48302905 16.6037752,1.64777314 C14.9764935,0.0778588353 12.3847885,0.126312981 10.8063223,1.74468143 C10.0658073,2.5005661 9.65657532,3.51810315 9.65657532,4.58409435 C9.65657532,4.74883844 9.66631894,4.90389171 9.68580618,5.0686358 C6.91861857,4.81667425 4.37553419,3.46964901 2.62168289,1.31828496 C2.50475947,1.17292252 2.29039987,1.15354086 2.14424559,1.26983081 C2.11501474,1.2989033 2.08578388,1.32797578 2.06629665,1.3667391 C1.21860185,2.82036346 1.34526889,4.64223932 2.40732329,5.95050125 C2.26116901,5.89235627 2.12475836,5.8342113 1.9883477,5.75668467 C1.82270619,5.66946721 1.6180902,5.72761218 1.52065402,5.89235627 C1.49142317,5.94081042 1.48167955,5.98926456 1.48167955,6.04740954 L1.48167955,6.10555451 C1.48167955,7.48165224 2.18322007,8.77053251 3.35245427,9.52641717 C3.30373617,9.51672634 3.25501808,9.50693861 3.20629999,9.49734469 C3.02117124,9.45848446 2.84578611,9.58456215 2.80681164,9.7686879 C2.79706802,9.82683287 2.79706802,9.88497785 2.81655526,9.93343199 C3.24527446,11.2804572 4.35604695,12.3076851 5.72989714,12.6468641 C4.34630333,13.4801785 2.72886269,13.8291453 1.13090929,13.6353287 C0.945780539,13.615947 0.770395409,13.7419278 0.750908173,13.9357444 C0.741164554,14.0616283 0.799626264,14.187706 0.906806066,14.2652326" id="Fill-1" fill="#FFFFFF"></path>
    </g>
</svg>