<svg xmlns="http://www.w3.org/2000/svg" width="28.928" height="28.928" viewBox="0 0 28.928 28.928"><path d="M28.928,13.827,26.673,9.29,23.922,6.236,23.49,9.963l-1.966,2.989-1.256.022,1.3-4.018.052-4.227L20.451,3.2l-4.021-.9.34,2.321L16.189,7.7l-.895.846-.63-1.115.1-3.511-1.5-2.475L11.92.733,4.516,0,.5.5,0,4.516l.733,7.4.708,1.348,2.475,1.5,3.511-.1,1.115.63-.846.895-3.076.58L2.3,16.429l.9,4.021L4.73,21.619l4.227-.052,4.018-1.3-.022,1.256L9.963,23.49l-3.728.432L9.29,26.673l4.537,2.255,9.538-4.449,3.333,3.3,1.063-1.073-3.311-3.278Z" fill="#fff"/></svg>