<?xml version="1.0" encoding="UTF-8"?>
<svg width="22px" height="22px" viewBox="0 0 22 22" version="1.1" xmlns="http://www.w3.org/2000/svg" xmlns:xlink="http://www.w3.org/1999/xlink">
    <!-- Generator: Sketch 55.2 (78181) - https://sketchapp.com -->
    <title>Shape</title>
    <desc>Created with Sketch.</desc>
    <g id="--V2" stroke="none" stroke-width="1" fill="none" fill-rule="evenodd">
        <g id="1,1-HP" transform="translate(-401.000000, -3730.000000)" fill="#000000">
            <path d="M419.5625,3743.75 L418.1875,3743.75 C417.807804,3743.75 417.5,3744.0578 417.5,3744.4375 L417.5,3749.25 L403.75,3749.25 L403.75,3735.5 L409.9375,3735.5 C410.317196,3735.5 410.625,3735.1922 410.625,3734.8125 L410.625,3733.4375 C410.625,3733.0578 410.317196,3732.75 409.9375,3732.75 L403.0625,3732.75 C401.923413,3732.75 401,3733.67341 401,3734.8125 L401,3749.9375 C401,3751.07659 401.923413,3752 403.0625,3752 L418.1875,3752 C419.326587,3752 420.25,3751.07659 420.25,3749.9375 L420.25,3744.4375 C420.25,3744.0578 419.942196,3743.75 419.5625,3743.75 Z M421.96875,3730 L416.46875,3730 C415.550508,3730 415.091602,3731.11332 415.738281,3731.76172 L417.273555,3733.29699 L406.800781,3743.7659 C406.606609,3743.9594 406.497468,3744.22224 406.497468,3744.49637 C406.497468,3744.77049 406.606609,3745.03334 406.800781,3745.22684 L407.774883,3746.19922 C407.968382,3746.39339 408.231227,3746.50253 408.505352,3746.50253 C408.779477,3746.50253 409.042322,3746.39339 409.23582,3746.19922 L419.703438,3735.72859 L421.238281,3737.26172 C421.882812,3737.90625 423,3737.45508 423,3736.53125 L423,3731.03125 C423,3730.46171 422.538294,3730 421.96875,3730 Z" id="Shape"></path>
        </g>
    </g>
</svg>