<?xml version="1.0" encoding="UTF-8"?>
<svg width="18px" height="27px" viewBox="0 0 18 27" version="1.1" xmlns="http://www.w3.org/2000/svg" xmlns:xlink="http://www.w3.org/1999/xlink">
    <!-- Generator: Sketch 55.2 (78181) - https://sketchapp.com -->
    <title>facebook-placeholder-for-locate-places-on-maps</title>
    <desc>Created with Sketch.</desc>
    <g id="--V2" stroke="none" stroke-width="1" fill="none" fill-rule="evenodd">
        <g id="5,0-Sport-Facility" transform="translate(-1064.000000, -1444.000000)">
            <g id="Info" transform="translate(1034.000000, 1080.000000)">
                <g id="Location" transform="translate(1.000000, 365.000000)">
                    <g id="facebook-placeholder-for-locate-places-on-maps" transform="translate(30.000000, 0.000000)">
                        <g id="Group-7">
                            <path d="M15.533047,6.00661032 C15.4508456,5.68465228 15.2839195,5.34159695 15.1604295,5.04124119 C13.6827383,1.33002672 10.4540134,-7.63833441e-14 7.84697987,-7.63833441e-14 C4.35699329,-7.63833441e-14 0.513181208,2.44560179 4.4408921e-15,7.48656243 L4.4408921e-15,8.51645783 C4.4408921e-15,8.55943793 0.0141744966,8.94552948 0.0343087248,9.13865941 C0.321986577,11.5410567 2.13594631,14.094277 3.49068456,16.4966743 C4.94818792,19.0705992 6.46056376,21.6026101 7.95892617,24.1335549 C8.88284564,22.4819068 9.80343624,20.8085442 10.7063087,19.1996517 C10.9523758,18.7274878 11.2380134,18.2556043 11.484349,17.8049304 C11.6485369,17.5048552 11.9622013,17.20478 12.1055034,16.9255776 C13.562953,14.1369766 15.9088859,11.3268294 15.9088859,8.55938182 L15.9088859,7.42248504 C15.9088859,7.12246593 15.5530738,6.07130492 15.533047,6.00661032 Z" id="Facebook_Places" stroke="#212237" stroke-width="2" stroke-linejoin="round" fill-rule="nonzero"></path>
                            <path d="M7.91087248,11.1766796 C6.88499329,11.1766796 5.76209396,10.6406066 5.20783893,9.16014946 C5.12526174,8.9244883 5.13191946,8.4522121 5.13191946,8.40895145 L5.13191946,7.74393809 C5.13191946,5.85662882 6.66534228,4.9983733 7.9993557,4.9983733 C9.64166443,4.9983733 10.9118389,6.37149235 10.9118389,8.08777895 C10.9118389,9.80400943 9.55318121,11.1766796 7.91087248,11.1766796 Z" id="Facebook_Places-path" fill="#212237"></path>
                        </g>
                    </g>
                </g>
            </g>
        </g>
    </g>
</svg>