<?xml version="1.0" encoding="UTF-8"?>
<svg width="24px" height="39px" viewBox="0 0 24 39" version="1.1" xmlns="http://www.w3.org/2000/svg" xmlns:xlink="http://www.w3.org/1999/xlink">
    <title>Icon/Scroll</title>
    <g id="1.-Homepage" stroke="none" stroke-width="1" fill="none" fill-rule="evenodd">
        <g id="1,1-HP" transform="translate(-953.000000, -989.000000)" fill="#FFFFFF" fill-rule="nonzero">
            <g id="Icon/Scroll" transform="translate(953.000000, 989.000000)">
                <path d="M12.0019531,0 C5.66075638,0 0.501953125,5.14606478 0.501953125,11.4716034 L0.501953125,27.5283966 C0.501953125,33.8539352 5.66075638,39 12.0019531,39 C18.3431499,39 23.5019531,33.8539352 23.5019531,27.5283966 L23.5019531,11.4716034 C23.5019531,5.14606478 18.3431499,0 12.0019531,0 Z M21.1562562,27.5283966 C21.1562562,32.5634766 17.0494968,36.6600952 12.0019531,36.6600952 C6.95440942,36.6600952 2.84765007,32.5634766 2.84765007,27.5283966 L2.84765007,11.4716034 C2.84765007,6.43652344 6.95440942,2.33990479 12.0019531,2.33990479 C17.0494968,2.33990479 21.1562562,6.43652344 21.1562562,11.4716034 L21.1562562,27.5283966 Z" id="Shape"></path>
                <path d="M12.5019531,8 C11.9495625,8 11.5019531,8.5423311 11.5019531,9.21161705 L11.5019531,14.788383 C11.5019531,15.4573608 11.9495625,16 12.5019531,16 C13.0540895,16 13.5019531,15.4573608 13.5019531,14.788383 L13.5019531,9.21161705 C13.5019531,8.5423311 13.0543438,8 12.5019531,8 Z" id="Path"></path>
            </g>
        </g>
    </g>
</svg>