<?xml version="1.0" encoding="UTF-8"?>
<svg width="14px" height="15px" viewBox="0 0 14 15" version="1.1" xmlns="http://www.w3.org/2000/svg" xmlns:xlink="http://www.w3.org/1999/xlink">
    <title>icon/search</title>
    <g id="V1" stroke="none" stroke-width="1" fill="none" fill-rule="evenodd" opacity="0.5">
        <g id="Desktop-IntercativeMaop-Copy-2" transform="translate(-356.000000, -165.000000)">
            <g id="Map" transform="translate(-191.000000, 118.000000)">
                <g id="Search-bar" transform="translate(286.000000, 32.000000)">
                    <g id="icon/search" transform="translate(245.000000, 0.000000)">
                        <circle id="Oval" fill="#E03E52" opacity="0" cx="23" cy="23" r="23"></circle>
                        <path d="M29.56535,28.83855 L26.37755,25.668 C28.6111798,23.4205564 28.6792419,19.8128676 26.5319712,17.4827746 C24.3847006,15.1526816 20.7834728,14.9263851 18.361405,16.9693466 C15.9393372,19.0123082 15.555242,22.6001379 17.4899593,25.1095151 C19.4246765,27.6188923 22.9921972,28.1600461 25.58405,26.3373 L28.83395,29.5872 C29.0378517,29.7771976 29.3555967,29.7715914 29.552669,29.574519 C29.7497414,29.3774467 29.7553476,29.0597017 29.56535,28.8558 L29.56535,28.83855 Z M17.3834,21.528 C17.3834,18.8604647 19.5458647,16.698 22.2134,16.698 C24.8809353,16.698 27.0434,18.8604647 27.0434,21.528 C27.0434,24.1955353 24.8809353,26.358 22.2134,26.358 C19.5458647,26.358 17.3834,24.1955353 17.3834,21.528 Z" id="Shape" fill="#232323"></path>
                    </g>
                </g>
            </g>
        </g>
    </g>
</svg>