<?xml version="1.0" encoding="UTF-8"?>
<svg width="8px" height="16px" viewBox="0 0 8 16" version="1.1" xmlns="http://www.w3.org/2000/svg" xmlns:xlink="http://www.w3.org/1999/xlink">
    <!-- Generator: Sketch 55.2 (78181) - https://sketchapp.com -->
    <title>Fill 1</title>
    <desc>Created with Sketch.</desc>
    <g id="Symbols" stroke="none" stroke-width="1" fill="none" fill-rule="evenodd">
        <path d="M0.797295078,8.5368227 L1.97821719,8.5368227 L1.97821719,15.7097653 C1.97821719,15.8673213 2.11034834,16 2.26725407,16 L5.3558196,16 C5.51272534,16 5.64485648,15.8673213 5.64485648,15.7097653 L5.64485648,8.5368227 L7.43680256,8.5368227 C7.58553268,8.5368227 7.70940563,8.42081175 7.72583944,8.2797577 L7.99844251,5.64276839 C8.01487632,5.48521242 7.89934415,5.3442413 7.74243842,5.32765646 L7.70940563,5.32765646 L5.64485648,5.32765646 L5.64485648,4.06720874 C5.64485648,3.98428455 5.65311468,3.90136035 5.68614747,3.82672858 C5.71918025,3.75209681 5.77698763,3.69404987 5.85956959,3.66917261 C5.90903619,3.65258778 5.95866795,3.64429536 6.00821713,3.64429536 L7.66811465,3.64429536 C7.82502038,3.64429536 7.95715153,3.51161665 7.95715153,3.35406068 L7.95715153,0.799995564 C7.95715153,0.642439598 7.82502038,0.509760891 7.66811465,0.509760891 L5.38059419,0.501468471 C4.80252043,0.484883633 4.22444667,0.609269921 3.69592208,0.849750079 C3.37385242,0.999013625 3.08481554,1.21461652 2.84532783,1.47168152 C2.52325817,1.81996313 2.29202866,2.24287651 2.15163932,2.69895957 C2.02776637,3.09699569 1.96995899,3.50332423 1.96995899,3.91794519 L1.96995899,5.33594888 L0.789036881,5.33594888 C0.632131146,5.33594888 0.5,5.46862759 0.5,5.62618355 L0.5,8.26317286 C0.508258197,8.40414399 0.632131146,8.5368227 0.797295078,8.5368227" id="Fill-1" fill="#FFFFFF"></path>
    </g>
</svg>