<?xml version="1.0" encoding="utf-8"?>
<!-- Generator: Adobe Illustrator 24.2.1, SVG Export Plug-In . SVG Version: 6.00 Build 0)  -->
<svg version="1.1" id="Layer_1" xmlns="http://www.w3.org/2000/svg" xmlns:xlink="http://www.w3.org/1999/xlink" x="0px" y="0px"
	 viewBox="0 0 1191 842" style="enable-background:new 0 0 1191 842;" xml:space="preserve">
<g>
	<path d="M490.52,424.24l3.36-3l0.36,0.36L490.52,424.24z M490.16,423.88l0.36,0.36l3.36-3L490.16,423.88z"/>
	<path d="M496.04,420.4l3.24-2.88l0.36,0.36L496.04,420.4z M495.68,420.04l0.36,0.36l3.24-2.88L495.68,420.04z"/>
	<path d="M501.44,416.68l3.36-3l0.36,0.36L501.44,416.68z M501.08,416.2l0.36,0.48l3.36-3L501.08,416.2z"/>
	<line x1="504.8" y1="413.68" x2="505.16" y2="414.04"/>
	<path d="M505.88,413.68h-1.08l0.36,0.36L505.88,413.68z M505.76,413.2l0.12,0.48h-1.08L505.76,413.2z M506.72,413.44l-0.96-0.24
		l0.12,0.48L506.72,413.44z M506.6,412.96l0.12,0.48l-0.96-0.24L506.6,412.96z M507.56,413.56l-0.96-0.6l0.12,0.48L507.56,413.56z
		 M507.56,413.08v0.48l-0.96-0.6L507.56,413.08z"/>
	<path d="M507.56,413.56l5.16,0.48l-0.12,0.48L507.56,413.56z M507.56,413.08v0.48l5.16,0.48L507.56,413.08z"/>
	<path d="M514.76,414.88l4.44,0.36l-0.12,0.48L514.76,414.88z M514.88,414.4l-0.12,0.48l4.44,0.36L514.88,414.4z"/>
	<path d="M521.24,416.08l4.44,0.36l-0.12,0.48L521.24,416.08z M521.36,415.6l-0.12,0.48l4.44,0.36L521.36,415.6z"/>
	<path d="M527.72,417.28l4.44,0.24l-0.12,0.48L527.72,417.28z M527.84,416.8l-0.12,0.48l4.44,0.24L527.84,416.8z"/>
	<path d="M534.2,418.48l4.44,0.24l-0.12,0.48L534.2,418.48z M534.32,418l-0.12,0.48l4.44,0.24L534.32,418z"/>
	<path d="M540.68,419.68l4.44,0.24L545,420.4L540.68,419.68z M540.8,419.2l-0.12,0.48l4.44,0.24L540.8,419.2z"/>
	<path d="M547.16,420.88l4.44,0.24l-0.12,0.48L547.16,420.88z M547.28,420.4l-0.12,0.48l4.44,0.24L547.28,420.4z"/>
	<path d="M553.64,422.08l4.44,0.24l-0.12,0.48L553.64,422.08z M553.76,421.6l-0.12,0.48l4.44,0.24L553.76,421.6z"/>
	<path d="M560.12,423.28l4.44,0.24l-0.12,0.48L560.12,423.28z M560.24,422.8l-0.12,0.48l4.44,0.24L560.24,422.8z"/>
	<path d="M566.6,424.48l4.44,0.24l-0.12,0.48L566.6,424.48z M566.72,424l-0.12,0.48l4.44,0.24L566.72,424z"/>
	<path d="M573.08,425.68l4.44,0.24l-0.12,0.48L573.08,425.68z M573.2,425.2l-0.12,0.48l4.44,0.24L573.2,425.2z"/>
	<path d="M579.56,426.88l4.44,0.24l-0.12,0.48L579.56,426.88z M579.68,426.4l-0.12,0.48l4.44,0.24L579.68,426.4z"/>
	<path d="M586.04,428.08l4.44,0.24l-0.12,0.48L586.04,428.08z M586.16,427.6l-0.12,0.48l4.44,0.24L586.16,427.6z"/>
	<path d="M592.52,429.28l4.44,0.24l-0.12,0.48L592.52,429.28z M592.64,428.8l-0.12,0.48l4.44,0.24L592.64,428.8z"/>
	<path d="M599,430.36l4.44,0.36l-0.12,0.48L599,430.36z M599.12,429.88l-0.12,0.48l4.44,0.36L599.12,429.88z"/>
	<path d="M605.48,431.56l4.44,0.36l-0.12,0.48L605.48,431.56z M605.6,431.08l-0.12,0.48l4.44,0.36L605.6,431.08z"/>
	<path d="M611.96,432.76l4.44,0.36l-0.12,0.48L611.96,432.76z M612.08,432.28l-0.12,0.48l4.44,0.36L612.08,432.28z"/>
	<path d="M618.44,433.96l5.16,0.48l-0.12,0.48L618.44,433.96z M618.56,433.48l-0.12,0.48l5.16,0.48L618.56,433.48z"/>
	<line x1="623.6" y1="434.44" x2="623.48" y2="434.92"/>
	<path d="M624.8,435.52l-1.2-1.08l-0.12,0.48L624.8,435.52z M625.04,435.04l-0.24,0.48l-1.2-1.08L625.04,435.04z"/>
	<path d="M624.8,435.52l3.48,1.8l-0.24,0.48L624.8,435.52z M625.04,435.04l-0.24,0.48l3.48,1.8L625.04,435.04z"/>
	<path d="M629.84,439l3.48,1.92l-0.24,0.36L629.84,439z M630.08,438.64l-0.24,0.36l3.48,1.92L630.08,438.64z"/>
	<line x1="633.32" y1="440.92" x2="633.08" y2="441.28"/>
	<path d="M124.76,441.64l0.84-2.4l0.36,0.36L124.76,441.64z M124.28,441.4l0.48,0.24l0.84-2.4L124.28,441.4z"/>
	<path d="M127.04,437.68l1.8-4.08l0.48,0.24L127.04,437.68z M126.68,437.44l0.36,0.24l1.8-4.08L126.68,437.44z"/>
	<path d="M130.4,431.92l1.8-4.08l0.36,0.36L130.4,431.92z M129.92,431.68l0.48,0.24l1.8-4.08L129.92,431.68z"/>
	<path d="M133.64,426.28l1.8-4.08l0.48,0.24L133.64,426.28z M133.28,426.04l0.36,0.24l1.8-4.08L133.28,426.04z"/>
	<path d="M137,420.52l1.8-4.08l0.36,0.36L137,420.52z M136.52,420.28l0.48,0.24l1.8-4.08L136.52,420.28z"/>
	<path d="M140.24,414.88l0.84-2.4l0.48,0.24L140.24,414.88z M139.88,414.64l0.36,0.24l0.84-2.4L139.88,414.64z"/>
	<line x1="141.08" y1="412.48" x2="141.56" y2="412.72"/>
	<path d="M142.16,411.88l-1.08,0.6l0.48,0.24L142.16,411.88z M141.92,411.52l0.24,0.36l-1.08,0.6L141.92,411.52z"/>
	<path d="M142.16,411.88l2.52-2.76l0.36,0.36L142.16,411.88z M141.92,411.52l0.24,0.36l2.52-2.76L141.92,411.52z"/>
	<path d="M146.72,408.04l3-3.24l0.36,0.36L146.72,408.04z M146.36,407.68l0.36,0.36l3-3.24L146.36,407.68z"/>
	<path d="M151.76,403.72l3-3.24l0.24,0.36L151.76,403.72z M151.4,403.36l0.36,0.36l3-3.24L151.4,403.36z"/>
	<path d="M156.68,399.4l2.52-2.76l0.36,0.36L156.68,399.4z M156.44,399.04l0.24,0.36l2.52-2.76L156.44,399.04z"/>
	<path d="M160.4,396.52l-1.2,0.12l0.36,0.36L160.4,396.52z M160.16,396.04l0.24,0.48l-1.2,0.12L160.16,396.04z M161.36,396.28
		l-1.2-0.24l0.24,0.48L161.36,396.28z M161.36,395.8v0.48l-1.2-0.24L161.36,395.8z"/>
	<path d="M161.36,396.28l3.84-0.84v0.48L161.36,396.28z M161.36,395.8v0.48l3.84-0.84L161.36,395.8z"/>
	<path d="M167.36,395.8l4.32-0.84l0.12,0.48L167.36,395.8z M167.36,395.32v0.48l4.32-0.84L167.36,395.32z"/>
	<path d="M173.96,395.2l4.32-0.84v0.48L173.96,395.2z M173.96,394.72v0.48l4.32-0.84L173.96,394.72z"/>
	<path d="M180.56,394.6l3.72-0.72l0.12,0.48L180.56,394.6z M180.44,394.12l0.12,0.48l3.72-0.72L180.44,394.12z"/>
	<line x1="184.28" y1="393.88" x2="184.4" y2="394.36"/>
	<path d="M184.28,393.88l1.56-0.12l-0.36-0.36L184.28,393.88z M184.4,394.36l-0.12-0.48l1.56-0.12L184.4,394.36z"/>
	<path d="M185.84,393.76l2.64-2.76l0.36,0.36L185.84,393.76z M185.48,393.4l0.36,0.36l2.64-2.76L185.48,393.4z"/>
	<path d="M190.52,390.04l2.76-2.76l0.36,0.48L190.52,390.04z M190.28,389.68l0.24,0.36l2.76-2.76L190.28,389.68z"/>
	<line x1="193.28" y1="387.28" x2="193.64" y2="387.76"/>
	<path d="M194.48,387.28h-1.2l0.36,0.48L194.48,387.28z M194.24,386.8l0.24,0.48h-1.2L194.24,386.8z M195.32,387.04l-1.08-0.24
		l0.24,0.48L195.32,387.04z M195.32,386.56v0.48l-1.08-0.24L195.32,386.56z M196.28,387.16l-0.96-0.6v0.48L196.28,387.16z
		 M196.4,386.68l-0.12,0.48l-0.96-0.6L196.4,386.68z"/>
	<path d="M196.28,387.16l2.64,0.12l-0.12,0.48L196.28,387.16z M196.4,386.68l-0.12,0.48l2.64,0.12L196.4,386.68z"/>
	<path d="M200.96,388.24l4.44,0.48l-0.12,0.48L200.96,388.24z M201.08,387.76l-0.12,0.48l4.44,0.48L201.08,387.76z"/>
	<path d="M207.32,389.68l4.44,0.6l-0.12,0.48L207.32,389.68z M207.44,389.2l-0.12,0.48l4.44,0.6L207.44,389.2z"/>
	<path d="M213.8,391.24l4.32,0.48L218,392.2L213.8,391.24z M213.92,390.76l-0.12,0.48l4.32,0.48L213.92,390.76z"/>
	<path d="M220.16,392.68l2.64,0.12l-0.12,0.48L220.16,392.68z M220.28,392.2l-0.12,0.48l2.64,0.12L220.28,392.2z"/>
	<line x1="222.8" y1="392.8" x2="222.68" y2="393.28"/>
	<path d="M222.8,392.8l0.84,0.6l-0.12-0.48L222.8,392.8z M222.68,393.28l0.12-0.48l0.84,0.6L222.68,393.28z"/>
	<path d="M223.64,393.4l2.76-0.84l0.12,0.48L223.64,393.4z M223.52,392.92l0.12,0.48l2.76-0.84L223.52,392.92z"/>
	<path d="M228.68,392.8l4.32-0.96v0.48L228.68,392.8z M228.56,392.32l0.12,0.48l4.32-0.96L228.56,392.32z"/>
	<path d="M235.16,392.08l4.32-0.96l0.12,0.48L235.16,392.08z M235.16,391.6v0.48l4.32-0.96L235.16,391.6z"/>
	<path d="M241.76,391.36l4.32-0.96v0.6L241.76,391.36z M241.64,390.88l0.12,0.48l4.32-0.96L241.64,390.88z"/>
	<path d="M248.24,390.76l4.32-0.96l0.12,0.48L248.24,390.76z M248.24,390.28v0.48l4.32-0.96L248.24,390.28z"/>
	<path d="M254.84,390.04l4.32-0.96v0.48L254.84,390.04z M254.84,389.56v0.48l4.32-0.96L254.84,389.56z"/>
	<path d="M261.44,389.32l2.76-0.84v0.48L261.44,389.32z M261.32,388.84l0.12,0.48l2.76-0.84L261.32,388.84z"/>
	<line x1="264.2" y1="388.48" x2="264.2" y2="388.96"/>
	<path d="M264.2,388.48l0.84,0.24l-0.12-0.36L264.2,388.48z M264.2,388.96v-0.48l0.84,0.24L264.2,388.96z"/>
	<path d="M265.04,388.72l4.44-2.64l0.24,0.48L265.04,388.72z M264.92,388.36l0.12,0.36l4.44-2.64L264.92,388.36z"/>
	<path d="M271.76,385.6l4.44-2.64l0.12,0.48L271.76,385.6z M271.52,385.24l0.24,0.36l4.44-2.64L271.52,385.24z"/>
	<line x1="276.2" y1="382.96" x2="276.32" y2="383.44"/>
	<path d="M277.28,383.2l-1.08-0.24l0.12,0.48L277.28,383.2z M277.28,382.72v0.48l-1.08-0.24L277.28,382.72z"/>
	<path d="M277.28,383.2l3.84-0.96v0.48L277.28,383.2z M277.28,382.72v0.48l3.84-0.96L277.28,382.72z"/>
	<path d="M283.28,382.36l4.32-1.08l0.12,0.48L283.28,382.36z M283.28,381.88v0.48l4.32-1.08L283.28,381.88z"/>
	<path d="M289.88,381.52l3.72-0.96l0.12,0.48L289.88,381.52z M289.76,381.04l0.12,0.48l3.72-0.96L289.76,381.04z"/>
	<line x1="293.6" y1="380.56" x2="293.72" y2="381.04"/>
	<path d="M294.08,381.04l-0.48-0.48l0.12,0.48H294.08z M294.08,380.44v0.6l-0.48-0.48L294.08,380.44z"/>
	<path d="M294.08,381.04l3.6-0.6v0.48L294.08,381.04z M294.08,380.44v0.6l3.6-0.6H294.08z"/>
	<path d="M299.84,380.92l4.44-0.48v0.48H299.84z M299.84,380.44v0.48l4.44-0.48H299.84z"/>
	<path d="M306.44,380.8l4.44-0.48v0.48H306.44z M306.44,380.32v0.48l4.44-0.48H306.44z"/>
	<path d="M313.04,380.8l3.6-0.48v0.48H313.04z M313.04,380.32v0.48l3.6-0.48H313.04z"/>
	<line x1="316.64" y1="380.32" x2="316.64" y2="380.8"/>
	<path d="M317.96,381.04l-1.32-0.72v0.48L317.96,381.04z M318.2,380.56l-0.24,0.48l-1.32-0.72L318.2,380.56z"/>
	<path d="M319.88,381.88l3.12,0.96l-0.24,0.36L319.88,381.88z M320.12,381.52l-0.24,0.36l3.12,0.96L320.12,381.52z M317.96,381.04
		l2.16,0.48l-0.24,0.36L317.96,381.04z M318.2,380.56l-0.24,0.48l2.16,0.48L318.2,380.56z"/>
	<path d="M324.8,384.16l4.2,1.44l-0.24,0.36L324.8,384.16z M324.92,383.68l-0.12,0.48l4.2,1.44L324.92,383.68z"/>
	<path d="M330.68,386.92l4.2,1.44l-0.12,0.36L330.68,386.92z M330.92,386.44l-0.24,0.48l4.2,1.44L330.92,386.44z"/>
	<path d="M336.68,389.68l4.2,1.44l-0.12,0.36L336.68,389.68z M336.92,389.2l-0.24,0.48l4.2,1.44L336.92,389.2z"/>
	<path d="M342.68,392.44l3.12,0.84l-0.24,0.48L342.68,392.44z M342.92,391.96l-0.24,0.48l3.12,0.84L342.92,391.96z"/>
	<line x1="345.8" y1="393.28" x2="345.56" y2="393.76"/>
	<path d="M346.52,393.52l0.84,0.6l-0.12-0.48L346.52,393.52z M346.4,394l0.12-0.48l0.84,0.6L346.4,394z M345.8,393.28l0.6,0.72
		l0.12-0.48L345.8,393.28z M345.56,393.76l0.24-0.48l0.6,0.72L345.56,393.76z"/>
	<path d="M347.36,394.12l4.32-0.72v0.48L347.36,394.12z M347.24,393.64l0.12,0.48l4.32-0.72L347.24,393.64z"/>
	<path d="M353.96,393.76l4.32-0.72v0.48L353.96,393.76z M353.84,393.28l0.12,0.48l4.32-0.72L353.84,393.28z"/>
	<path d="M360.44,393.4l4.44-0.72v0.48L360.44,393.4z M360.44,392.92v0.48l4.44-0.72L360.44,392.92z"/>
	<path d="M367.04,393.04l4.44-0.6v0.48L367.04,393.04z M367.04,392.56v0.48l4.44-0.6L367.04,392.56z"/>
	<path d="M373.64,392.8l4.44-0.72v0.48L373.64,392.8z M373.64,392.32v0.48l4.44-0.72L373.64,392.32z"/>
	<line x1="378.08" y1="392.08" x2="378.08" y2="392.56"/>
	<path d="M378.56,392.56l-0.48-0.48v0.48H378.56z M378.68,392.08l-0.12,0.48l-0.48-0.48H378.68z"/>
	<path d="M378.56,392.56l3.96,0.36l-0.12,0.48L378.56,392.56z M378.68,392.08l-0.12,0.48l3.96,0.36L378.68,392.08z"/>
	<path d="M384.56,393.76l4.44,0.36l-0.12,0.48L384.56,393.76z M384.68,393.28l-0.12,0.48l4.44,0.36L384.68,393.28z"/>
	<path d="M391.04,395.08l4.44,0.36l-0.12,0.48L391.04,395.08z M391.16,394.6l-0.12,0.48l4.44,0.36L391.16,394.6z"/>
	<path d="M397.52,396.4l4.32,0.36v0.48L397.52,396.4z M397.64,395.92l-0.12,0.48l4.32,0.36L397.64,395.92z"/>
	<path d="M404,397.6l4.32,0.48l-0.12,0.48L404,397.6z M404,397.12v0.48l4.32,0.48L404,397.12z"/>
	<path d="M410.36,398.92l4.44,0.36l-0.12,0.48L410.36,398.92z M410.48,398.44l-0.12,0.48l4.44,0.36L410.48,398.44z"/>
	<path d="M416.84,400.24l4.44,0.36l-0.12,0.48L416.84,400.24z M416.96,399.76l-0.12,0.48l4.44,0.36L416.96,399.76z"/>
	<path d="M423.32,401.56l4.44,0.36l-0.12,0.48L423.32,401.56z M423.44,401.08l-0.12,0.48l4.44,0.36L423.44,401.08z"/>
	<path d="M429.8,402.88l4.44,0.36l-0.12,0.48L429.8,402.88z M429.92,402.4l-0.12,0.48l4.44,0.36L429.92,402.4z"/>
	<path d="M436.28,404.08l4.32,0.36v0.48L436.28,404.08z M436.28,403.6v0.48l4.32,0.36L436.28,403.6z"/>
	<path d="M442.76,405.4l4.32,0.36l-0.12,0.48L442.76,405.4z M442.76,404.92v0.48l4.32,0.36L442.76,404.92z"/>
	<path d="M452.96,407.44l3.6,0.24l-0.12,0.48L452.96,407.44z M453.08,406.96l-0.12,0.48l3.6,0.24L453.08,406.96z M449.12,406.72
		l3.96,0.24l-0.12,0.48L449.12,406.72z M449.24,406.24l-0.12,0.48l3.96,0.24L449.24,406.24z"/>
	<path d="M457.28,408.4l-0.72-0.72l-0.12,0.48L457.28,408.4z M457.4,408.04l-0.12,0.36l-0.72-0.72L457.4,408.04z"/>
	<path d="M457.28,408.4l3,0.96l-0.24,0.48L457.28,408.4z M457.4,408.04l-0.12,0.36l3,0.96L457.4,408.04z"/>
	<path d="M461.96,410.8l4.08,1.56l-0.12,0.48L461.96,410.8z M462.2,410.44l-0.24,0.36l4.08,1.56L462.2,410.44z"/>
	<path d="M467.84,413.8l4.08,1.56l-0.12,0.48L467.84,413.8z M468.08,413.32l-0.24,0.48l4.08,1.56L468.08,413.32z"/>
	<path d="M473.72,416.8l4.08,1.56l-0.12,0.36L473.72,416.8z M473.96,416.32l-0.24,0.48l4.08,1.56L473.96,416.32z"/>
	<path d="M479.6,419.8l3,0.96l-0.24,0.36L479.6,419.8z M479.84,419.32l-0.24,0.48l3,0.96L479.84,419.32z"/>
	<path d="M485.72,418.84l0.36-0.96L485.6,418L485.72,418.84z M486.2,418.84h-0.48l0.36-0.96L486.2,418.84z M485.6,419.68l0.6-0.84
		h-0.48L485.6,419.68z M485.96,419.92l-0.36-0.24l0.6-0.84L485.96,419.92z M485,420.4l0.96-0.48l-0.36-0.24L485,420.4z
		 M485.36,420.76L485,420.4l0.96-0.48L485.36,420.76z M484.28,420.88l1.08-0.12L485,420.4L484.28,420.88z M484.4,421.36l-0.12-0.48
		l1.08-0.12L484.4,421.36z M483.44,421l0.96,0.36l-0.12-0.48L483.44,421z M483.32,421.48l0.12-0.48l0.96,0.36L483.32,421.48z
		 M482.6,420.76l0.72,0.72l0.12-0.48L482.6,420.76z M482.36,421.12l0.24-0.36l0.72,0.72L482.36,421.12z"/>
	<path d="M486.08,417.88l-1.68-3l0.48-0.24L486.08,417.88z M485.6,418l0.48-0.12l-1.68-3L485.6,418z"/>
	<path d="M484.16,412.6l-2.04-3.96l0.48-0.12L484.16,412.6z M483.68,412.72l0.48-0.12l-2.04-3.96L483.68,412.72z"/>
	<path d="M481.88,406.48l-2.04-3.96l0.48-0.24L481.88,406.48z M481.4,406.6l0.48-0.12l-2.04-3.96L481.4,406.6z"/>
	<path d="M479.6,400.24l-2.04-3.96l0.48-0.12L479.6,400.24z M479.12,400.36l0.48-0.12l-2.04-3.96L479.12,400.36z"/>
	<path d="M477.32,394.12l-2.04-3.96l0.48-0.24L477.32,394.12z M476.84,394.24l0.48-0.12l-2.04-3.96L476.84,394.24z"/>
	<path d="M475.04,387.88l-2.04-3.96l0.48-0.12L475.04,387.88z M474.56,388.12l0.48-0.24l-2.04-3.96L474.56,388.12z"/>
	<path d="M472.76,381.76l-2.04-3.96l0.48-0.24L472.76,381.76z M472.28,381.88l0.48-0.12l-2.04-3.96L472.28,381.88z"/>
	<path d="M470.48,375.52l-2.04-3.96l0.48-0.12L470.48,375.52z M470,375.76l0.48-0.24l-2.04-3.96L470,375.76z"/>
	<path d="M468.2,369.4l-2.04-3.96l0.48-0.24L468.2,369.4z M467.72,369.52l0.48-0.12l-2.04-3.96L467.72,369.52z"/>
	<path d="M465.92,363.16l-2.04-3.96l0.48-0.12L465.92,363.16z M465.44,363.4l0.48-0.24l-2.04-3.96L465.44,363.4z"/>
	<path d="M463.64,357.04l-2.04-3.96l0.48-0.24L463.64,357.04z M463.16,357.16l0.48-0.12l-2.04-3.96L463.16,357.16z"/>
	<path d="M461.36,350.8l-2.04-3.96l0.48-0.12L461.36,350.8z M460.88,351.04l0.48-0.24l-2.04-3.96L460.88,351.04z"/>
	<path d="M459.08,344.68l-2.04-3.96l0.48-0.24L459.08,344.68z M458.6,344.8l0.48-0.12l-2.04-3.96L458.6,344.8z"/>
	<path d="M456.8,338.44l-1.68-3l0.48-0.12L456.8,338.44z M456.32,338.68l0.48-0.24l-1.68-3L456.32,338.68z"/>
	<line x1="455.12" y1="335.44" x2="455.6" y2="335.32"/>
	<path d="M455.6,335.32l-1.08-3.72H455L455.6,335.32z M455.12,335.44l0.48-0.12l-1.08-3.72L455.12,335.44z"/>
	<path d="M454.76,329.44l-1.2-4.32h0.48L454.76,329.44z M454.28,329.44h0.48l-1.2-4.32L454.28,329.44z"/>
	<path d="M453.8,322.84l-1.08-3.6l0.48-0.12L453.8,322.84z M453.32,322.96l0.48-0.12l-1.08-3.6L453.32,322.96z"/>
	<line x1="452.72" y1="319.24" x2="453.2" y2="319.12"/>
	<path d="M672.44,455.68l-1.2-0.36l0.12,0.48L672.44,455.68z M672.44,455.2v0.48l-1.2-0.36L672.44,455.2z M673.52,455.8l-1.08-0.6
		v0.48L673.52,455.8z M673.64,455.44l-0.12,0.36l-1.08-0.6L673.64,455.44z"/>
	<path d="M673.52,455.8l3.48,0.84l-0.12,0.48L673.52,455.8z M673.64,455.44l-0.12,0.36l3.48,0.84L673.64,455.44z"/>
	<path d="M678.92,457.84l4.32,1.08l-0.12,0.48L678.92,457.84z M679.16,457.36l-0.24,0.48l4.32,1.08L679.16,457.36z"/>
	<path d="M685.16,460.12l4.2,1.08l-0.12,0.48L685.16,460.12z M685.28,459.76l-0.12,0.36l4.2,1.08L685.28,459.76z"/>
	<path d="M691.28,462.52l4.32,0.96l-0.24,0.48L691.28,462.52z M691.52,462.04l-0.24,0.48l4.32,0.96L691.52,462.04z"/>
	<path d="M697.52,464.8l4.2,1.08l-0.12,0.36L697.52,464.8z M697.64,464.32l-0.12,0.48l4.2,1.08L697.64,464.32z"/>
	<path d="M703.64,467.08l4.32,1.08l-0.24,0.48L703.64,467.08z M703.76,466.6l-0.12,0.48l4.32,1.08L703.76,466.6z"/>
	<path d="M709.76,469.36l4.32,1.08l-0.12,0.48L709.76,469.36z M710,468.88l-0.24,0.48l4.32,1.08L710,468.88z"/>
	<path d="M716,471.64l4.32,1.08l-0.24,0.48L716,471.64z M716.12,471.16l-0.12,0.48l4.32,1.08L716.12,471.16z"/>
	<path d="M722.12,473.92l4.32,1.08l-0.12,0.48L722.12,473.92z M722.36,473.44l-0.24,0.48l4.32,1.08L722.36,473.44z"/>
	<path d="M728.36,476.2l4.2,1.08l-0.12,0.48L728.36,476.2z M728.48,475.84l-0.12,0.36l4.2,1.08L728.48,475.84z"/>
	<path d="M734.48,478.48l4.32,1.08l-0.24,0.48L734.48,478.48z M734.72,478.12l-0.24,0.36l4.32,1.08L734.72,478.12z"/>
	<path d="M740.72,480.88l4.2,1.08l-0.12,0.36L740.72,480.88z M740.84,480.4l-0.12,0.48l4.2,1.08L740.84,480.4z"/>
	<path d="M746.84,483.16l4.32,1.08l-0.24,0.36L746.84,483.16z M746.96,482.68l-0.12,0.48l4.32,1.08L746.96,482.68z"/>
	<path d="M753.08,485.44l4.2,1.08l-0.12,0.48L753.08,485.44z M753.2,484.96l-0.12,0.48l4.2,1.08L753.2,484.96z"/>
	<path d="M759.2,487.72l4.32,1.08l-0.24,0.48L759.2,487.72z M759.32,487.24l-0.12,0.48l4.32,1.08L759.32,487.24z"/>
	<path d="M765.32,490l4.32,1.08l-0.12,0.48L765.32,490z M765.56,489.52l-0.24,0.48l4.32,1.08L765.56,489.52z"/>
	<path d="M771.56,492.28l4.32,1.08l-0.24,0.48L771.56,492.28z M771.68,491.8l-0.12,0.48l4.32,1.08L771.68,491.8z"/>
	<path d="M777.68,494.56l4.32,1.08l-0.12,0.48L777.68,494.56z M777.92,494.2l-0.24,0.36l4.32,1.08L777.92,494.2z"/>
	<path d="M783.92,496.96l4.2,0.96L788,498.4L783.92,496.96z M784.04,496.48l-0.12,0.48l4.2,0.96L784.04,496.48z"/>
	<path d="M790.04,499.24l4.32,1.08l-0.24,0.36L790.04,499.24z M790.28,498.76l-0.24,0.48l4.32,1.08L790.28,498.76z"/>
	<path d="M796.28,501.52l4.2,1.08l-0.12,0.48L796.28,501.52z M796.4,501.04l-0.12,0.48l4.2,1.08L796.4,501.04z"/>
	<path d="M802.4,503.8l4.32,1.08l-0.24,0.48L802.4,503.8z M802.52,503.32l-0.12,0.48l4.32,1.08L802.52,503.32z"/>
	<path d="M808.52,506.08l3.6,0.84L812,507.4L808.52,506.08z M808.76,505.6l-0.24,0.48l3.6,0.84L808.76,505.6z"/>
	<line x1="812.12" y1="506.92" x2="812" y2="507.4"/>
	<path d="M812.12,506.92l0.12,0.48l0.12-0.48H812.12z M812,507.4l0.12-0.48l0.12,0.48H812z"/>
	<path d="M812.24,507.4l2.28,0.12L814.4,508L812.24,507.4z M812.36,506.92l-0.12,0.48l2.28,0.12L812.36,506.92z"/>
	<path d="M816.56,508.48l4.32,0.6l-0.12,0.48L816.56,508.48z M816.68,508l-0.12,0.48l4.32,0.6L816.68,508z"/>
	<path d="M822.92,510.16l4.44,0.6l-0.12,0.48L822.92,510.16z M823.04,509.68l-0.12,0.48l4.44,0.6L823.04,509.68z"/>
	<path d="M829.28,511.72l4.44,0.6l-0.12,0.48L829.28,511.72z M829.4,511.24l-0.12,0.48l4.44,0.6L829.4,511.24z"/>
	<path d="M835.76,513.4l4.32,0.6l-0.12,0.36L835.76,513.4z M835.88,512.92l-0.12,0.48l4.32,0.6L835.88,512.92z"/>
	<path d="M842.12,514.96l4.32,0.6l-0.12,0.48L842.12,514.96z M842.24,514.48l-0.12,0.48l4.32,0.6L842.24,514.48z"/>
	<path d="M848.48,516.52l4.44,0.6l-0.12,0.48L848.48,516.52z M848.6,516.04l-0.12,0.48l4.44,0.6L848.6,516.04z"/>
	<path d="M854.84,518.2l4.44,0.6l-0.12,0.48L854.84,518.2z M854.96,517.72l-0.12,0.48l4.44,0.6L854.96,517.72z"/>
	<path d="M861.32,519.76l4.32,0.6l-0.12,0.48L861.32,519.76z M861.44,519.28l-0.12,0.48l4.32,0.6L861.44,519.28z"/>
	<path d="M867.68,521.44h2.28l-0.12,0.48L867.68,521.44z M867.8,520.96l-0.12,0.48h2.28L867.8,520.96z"/>
	<line x1="869.96" y1="521.44" x2="869.84" y2="521.92"/>
	<path d="M870.92,522.52l-0.96-1.08l-0.12,0.48L870.92,522.52z M871.28,522.04l-0.36,0.48l-0.96-1.08L871.28,522.04z"/>
	<path d="M870.92,522.52l2.76,1.32l-0.36,0.36L870.92,522.52z M871.28,522.04l-0.36,0.48l2.76,1.32L871.28,522.04z"/>
	<path d="M875.12,525.52l3.84,2.28l-0.36,0.36L875.12,525.52z M875.36,525.16l-0.24,0.36l3.84,2.28L875.36,525.16z"/>
	<path d="M880.4,529.48l3.84,2.28l-0.36,0.36L880.4,529.48z M880.64,529.12l-0.24,0.36l3.84,2.28L880.64,529.12z"/>
	<path d="M885.68,533.44l2.64,1.32l-0.24,0.48L885.68,533.44z M885.92,533.08l-0.24,0.36l2.64,1.32L885.92,533.08z"/>
	<path d="M888.32,534.76l0.12,0.72l0.24-0.48L888.32,534.76z M888.08,535.24l0.24-0.48l0.12,0.72L888.08,535.24z"/>
	<path d="M888.44,535.48l2.28,0.48l-0.24,0.48L888.44,535.48z M888.68,535l-0.24,0.48l2.28,0.48L888.68,535z"/>
	<path d="M892.52,537.4l4.2,1.44l-0.24,0.48L892.52,537.4z M892.76,536.92l-0.24,0.48l4.2,1.44L892.76,536.92z"/>
	<path d="M898.4,540.28l2.28,0.6l-0.24,0.36L898.4,540.28z M898.64,539.8l-0.24,0.48l2.28,0.6L898.64,539.8z"/>
	<path d="M901.64,541.12l1.32,0.12l-0.24-0.48L901.64,541.12z M901.64,541.6v-0.48l1.32,0.12L901.64,541.6z M900.68,540.88
		l0.96,0.72v-0.48L900.68,540.88z M900.44,541.24l0.24-0.36l0.96,0.72L900.44,541.24z"/>
	<path d="M902.96,541.24l3.6-2.52l0.24,0.48L902.96,541.24z M902.72,540.76l0.24,0.48l3.6-2.52L902.72,540.76z"/>
	<path d="M908.72,538.24l3.72-2.52l0.24,0.36L908.72,538.24z M908.48,537.76l0.24,0.48l3.72-2.52L908.48,537.76z"/>
	<path d="M913.52,535.84l-1.08-0.12l0.24,0.36L913.52,535.84z M913.4,535.36l0.12,0.48l-1.08-0.12L913.4,535.36z M914.48,535.84
		l-1.08-0.48l0.12,0.48H914.48z M914.48,535.36v0.48l-1.08-0.48H914.48z M915.44,536.08l-0.96-0.72v0.48L915.44,536.08z
		 M915.56,535.6l-0.12,0.48l-0.96-0.72L915.56,535.6z"/>
	<path d="M915.44,536.08l2.16,0.48l-0.12,0.36L915.44,536.08z M915.56,535.6l-0.12,0.48l2.16,0.48L915.56,535.6z"/>
	<path d="M919.52,537.88l4.2,1.32l-0.24,0.48L919.52,537.88z M919.64,537.4l-0.12,0.48l4.2,1.32L919.64,537.4z"/>
	<path d="M925.52,540.52l2.28,0.48l-0.24,0.48L925.52,540.52z M925.64,540.04l-0.12,0.48l2.28,0.48L925.64,540.04z"/>
	<line x1="927.8" y1="541" x2="927.56" y2="541.48"/>
	<path d="M929.6,541l1.2-0.36l-0.48-0.24L929.6,541z M929.84,541.36L929.6,541l1.2-0.36L929.84,541.36z M928.64,541.24l1.2,0.12
		L929.6,541L928.64,541.24z M928.76,541.72l-0.12-0.48l1.2,0.12L928.76,541.72z M927.8,541l0.96,0.72l-0.12-0.48L927.8,541z
		 M927.56,541.48l0.24-0.48l0.96,0.72L927.56,541.48z"/>
	<path d="M930.8,540.64l1.92-3.24l0.36,0.36L930.8,540.64z M930.32,540.4l0.48,0.24l1.92-3.24L930.32,540.4z"/>
	<path d="M933.08,536.56l0.6-0.96l-0.6,0.12V536.56z M933.56,536.68l-0.48-0.12l0.6-0.96L933.56,536.68z M932.72,537.4l0.84-0.72
		l-0.48-0.12L932.72,537.4z M933.08,537.76l-0.36-0.36l0.84-0.72L933.08,537.76z"/>
	<path d="M933.68,535.6l-1.2-3.72l0.48-0.12L933.68,535.6z M933.08,535.72l0.6-0.12l-1.2-3.72L933.08,535.72z"/>
	<path d="M932.6,529.6l-1.2-3.72l0.48-0.12L932.6,529.6z M932.12,529.72l0.48-0.12l-1.2-3.72L932.12,529.72z"/>
	<line x1="931.4" y1="525.88" x2="931.88" y2="525.76"/>
	<path d="M931.88,524.68l-0.48,1.2l0.48-0.12V524.68z M931.4,524.56l0.48,0.12l-0.48,1.2V524.56z M932.24,523.72l-0.84,0.84
		l0.48,0.12L932.24,523.72z M931.88,523.48l0.36,0.24l-0.84,0.84L931.88,523.48z M932.96,522.88l-1.08,0.6l0.36,0.24L932.96,522.88z
		 M932.6,522.52l0.36,0.36l-1.08,0.6L932.6,522.52z M933.92,522.28l-1.32,0.24l0.36,0.36L933.92,522.28z M933.68,521.8l0.24,0.48
		l-1.32,0.24L933.68,521.8z"/>
	<path d="M933.92,522.28l2.64-1.56l0.12,0.48L933.92,522.28z M933.68,521.8l0.24,0.48l2.64-1.56L933.68,521.8z"/>
	<path d="M938.72,520.36l2.64-1.56l0.24,0.36L938.72,520.36z M938.6,519.88l0.12,0.48l2.64-1.56L938.6,519.88z"/>
	<line x1="941.36" y1="518.8" x2="941.6" y2="519.16"/>
	<path d="M942.44,517.72l0.72-0.6l-0.48-0.12L942.44,517.72z M942.92,517.96l-0.48-0.24l0.72-0.6L942.92,517.96z M941.96,518.32
		l0.96-0.36l-0.48-0.24L941.96,518.32z M942.32,518.68l-0.36-0.36l0.96-0.36L942.32,518.68z M941.36,518.8l0.96-0.12l-0.36-0.36
		L941.36,518.8z M941.6,519.16l-0.24-0.36l0.96-0.12L941.6,519.16z"/>
	<path d="M943.16,517.12l0.12-4.08h0.48L943.16,517.12z M942.68,517l0.48,0.12l0.12-4.08L942.68,517z"/>
	<path d="M944,510.88l0.12-4.08l0.48,0.12L944,510.88z M943.52,510.76l0.48,0.12l0.12-4.08L943.52,510.76z"/>
	<line x1="944.12" y1="506.8" x2="944.6" y2="506.92"/>
	<path d="M944.96,505.84l-0.84,0.96l0.48,0.12L944.96,505.84z M944.48,505.72l0.48,0.12l-0.84,0.96L944.48,505.72z M945.56,505
		l-1.08,0.72l0.48,0.12L945.56,505z M945.2,504.76l0.36,0.24l-1.08,0.72L945.2,504.76z M946.4,504.4l-1.2,0.36l0.36,0.24
		L946.4,504.4z M946.16,504.04l0.24,0.36l-1.2,0.36L946.16,504.04z M947.36,504.16l-1.2-0.12l0.24,0.36L947.36,504.16z
		 M947.36,503.68v0.48l-1.2-0.12L947.36,503.68z"/>
	<path d="M947.36,504.16l2.88-0.84v0.48L947.36,504.16z M947.36,503.68v0.48l2.88-0.84L947.36,503.68z"/>
	<path d="M952.4,503.56l2.88-0.84v0.48L952.4,503.56z M952.4,503.08v0.48l2.88-0.84L952.4,503.08z"/>
	<line x1="955.28" y1="502.72" x2="955.28" y2="503.2"/>
	<path d="M956.12,503.2l-0.84-0.48v0.48H956.12z M956.12,502.72v0.48l-0.84-0.48H956.12z M956.84,503.32l-0.72-0.6v0.48
		L956.84,503.32z M956.96,502.84l-0.12,0.48l-0.72-0.6L956.96,502.84z"/>
	<path d="M956.84,503.32l4.92,1.44l-0.24,0.36L956.84,503.32z M956.96,502.84l-0.12,0.48l4.92,1.44L956.96,502.84z"/>
	<path d="M963.56,505.96l4.32,1.08l-0.12,0.48L963.56,505.96z M963.8,505.48l-0.24,0.48l4.32,1.08L963.8,505.48z"/>
	<path d="M969.8,508.36l4.2,1.08l-0.12,0.48L969.8,508.36z M969.92,507.88l-0.12,0.48l4.2,1.08L969.92,507.88z"/>
	<path d="M975.92,510.64l4.92,1.44l-0.24,0.36L975.92,510.64z M976.04,510.16l-0.12,0.48l4.92,1.44L976.04,510.16z"/>
	<line x1="980.84" y1="512.08" x2="980.6" y2="512.44"/>
	<line x1="980.72" y1="512.2" x2="980.72" y2="512.2"/>
	<path d="M980.84,512.08l1.08,0.6v-0.48L980.84,512.08z M980.6,512.44l0.24-0.36l1.08,0.6L980.6,512.44z"/>
	<path d="M981.92,512.68l3.12-0.48v0.48H981.92z M981.92,512.2v0.48l3.12-0.48H981.92z"/>
	<path d="M987.2,512.68l4.44-0.48v0.48H987.2z M987.2,512.2v0.48l4.44-0.48H987.2z"/>
	<path d="M993.8,512.68l3.12-0.48v0.48H993.8z M993.8,512.2v0.48l3.12-0.48H993.8z"/>
	<line x1="996.92" y1="512.2" x2="996.92" y2="512.68"/>
	<path d="M997.88,512.8l-0.96-0.6v0.48L997.88,512.8z M998,512.32l-0.12,0.48l-0.96-0.6L998,512.32z M998.6,513.16l-0.6-0.84
		l-0.12,0.48L998.6,513.16z M998.84,512.8l-0.24,0.36l-0.6-0.84L998.84,512.8z"/>
	<path d="M998.6,513.16l3.24,1.56l-0.24,0.36L998.6,513.16z M998.84,512.8l-0.24,0.36l3.24,1.56L998.84,512.8z"/>
	<path d="M1003.52,516.28l3.96,1.92l-0.24,0.36L1003.52,516.28z M1003.76,515.8l-0.24,0.48l3.96,1.92L1003.76,515.8z"/>
	<path d="M1009.04,519.76l3.96,1.92l-0.24,0.36L1009.04,519.76z M1009.28,519.4l-0.24,0.36l3.96,1.92L1009.28,519.4z"/>
	<path d="M1014.68,523.24l3.24,1.44l-0.36,0.48L1014.68,523.24z M1014.92,522.88l-0.24,0.36l3.24,1.44L1014.92,522.88z"/>
	<line x1="1017.92" y1="524.68" x2="1017.56" y2="525.16"/>
	<path d="M1018.4,525.88l-0.48-1.2l-0.36,0.48L1018.4,525.88z M1018.76,525.52l-0.36,0.36l-0.48-1.2L1018.76,525.52z
		 M1018.88,526.72l-0.12-1.2l-0.36,0.36L1018.88,526.72z M1019.36,526.6l-0.48,0.12l-0.12-1.2L1019.36,526.6z"/>
	<path d="M1018.88,526.72l1.32,2.16l-0.48,0.24L1018.88,526.72z M1019.36,526.6l-0.48,0.12l1.32,2.16L1019.36,526.6z"/>
	<path d="M1020.44,531.16l2.04,3.96l-0.48,0.12L1020.44,531.16z M1020.92,530.92l-0.48,0.24l2.04,3.96L1020.92,530.92z"/>
	<path d="M1022.72,537.28l1.32,2.16l-0.48,0.24L1022.72,537.28z M1023.2,537.16l-0.48,0.12l1.32,2.16L1023.2,537.16z"/>
	<line x1="1024.04" y1="539.44" x2="1023.56" y2="539.68"/>
	<path d="M1025.12,540.76l0.84,0.6l0.12-0.48L1025.12,540.76z M1025,541.12l0.12-0.36l0.84,0.6L1025,541.12z M1024.52,540.28
		l0.48,0.84l0.12-0.36L1024.52,540.28z M1024.16,540.52l0.36-0.24l0.48,0.84L1024.16,540.52z M1024.04,539.44l0.12,1.08l0.36-0.24
		L1024.04,539.44z M1023.56,539.68l0.48-0.24l0.12,1.08L1023.56,539.68z"/>
	<path d="M1025.96,541.36l3.12-0.36v0.48L1025.96,541.36z M1026.08,540.88l-0.12,0.48l3.12-0.36L1026.08,540.88z"/>
	<path d="M1031.24,541.6l4.44-0.48v0.48H1031.24z M1031.24,541v0.6l4.44-0.48L1031.24,541z"/>
	<path d="M1037.84,541.72l3.12-0.48v0.48H1037.84z M1037.84,541.24v0.48l3.12-0.48H1037.84z"/>
	<line x1="1040.96" y1="541.24" x2="1040.96" y2="541.72"/>
	<path d="M1041.92,541.96l-0.96-0.72v0.48L1041.92,541.96z M1042.04,541.48l-0.12,0.48l-0.96-0.72L1042.04,541.48z M1042.76,542.44
		l-0.72-0.96l-0.12,0.48L1042.76,542.44z M1043,542.08l-0.24,0.36l-0.72-0.96L1043,542.08z M1043.48,543.16l-0.48-1.08l-0.24,0.36
		L1043.48,543.16z M1043.84,542.8l-0.36,0.36l-0.48-1.08L1043.84,542.8z"/>
	<path d="M1043.48,543.16l2.52,2.64l-0.48,0.36L1043.48,543.16z M1043.84,542.8l-0.36,0.36l2.52,2.64L1043.84,542.8z"/>
	<path d="M1046.84,547.96l2.88,3.24l-0.36,0.36L1046.84,547.96z M1047.2,547.6l-0.36,0.36l2.88,3.24L1047.2,547.6z"/>
	<path d="M1050.68,553.36l2.52,2.64l-0.48,0.36L1050.68,553.36z M1051.04,553l-0.36,0.36l2.52,2.64L1051.04,553z"/>
	<path d="M1053.8,556.6l0.72,0.84l0.12-0.48L1053.8,556.6z M1053.56,557.08l0.24-0.48l0.72,0.84L1053.56,557.08z M1053.2,556
		l0.36,1.08l0.24-0.48L1053.2,556z M1052.72,556.36l0.48-0.36l0.36,1.08L1052.72,556.36z"/>
	<path d="M1054.52,557.44l3.12-0.12l-0.12,0.6L1054.52,557.44z M1054.64,556.96l-0.12,0.48l3.12-0.12L1054.64,556.96z"/>
	<path d="M1059.68,558.16l4.44,0.12l-0.12,0.48L1059.68,558.16z M1059.8,557.68l-0.12,0.48l4.44,0.12L1059.8,557.68z"/>
	<path d="M1066.16,559.12l4.44,0.12v0.48L1066.16,559.12z M1066.28,558.64l-0.12,0.48l4.44,0.12L1066.28,558.64z"/>
	<path d="M1072.76,560.08l4.44,0.12l-0.12,0.48L1072.76,560.08z M1072.76,559.6v0.48l4.44,0.12L1072.76,559.6z"/>
	<path d="M1079.24,561.04h3v0.48L1079.24,561.04z M1079.36,560.56l-0.12,0.48h3L1079.36,560.56z"/>
	<line x1="1082.24" y1="561.04" x2="1082.24" y2="561.52"/>
	<path d="M1083.2,561.76l-0.96-0.72v0.48L1083.2,561.76z M1083.44,561.28l-0.24,0.48l-0.96-0.72L1083.44,561.28z M1084.04,562.36
		l-0.6-1.08l-0.24,0.48L1084.04,562.36z M1084.28,562l-0.24,0.36l-0.6-1.08L1084.28,562z M1084.64,563.2l-0.36-1.2l-0.24,0.36
		L1084.64,563.2z M1085,562.96l-0.36,0.24l-0.36-1.2L1085,562.96z M1084.88,564.16l0.12-1.2l-0.36,0.24L1084.88,564.16z
		 M1085.36,564.04l-0.48,0.12l0.12-1.2L1085.36,564.04z"/>
	<path d="M1084.88,564.4l1.08,3.96l-0.48,0.12L1084.88,564.4z M1085.36,564.4h-0.48l1.08,3.96L1085.36,564.4z M1084.88,564.16
		l0.48,0.24h-0.48V564.16z M1085.36,564.04l-0.48,0.12l0.48,0.24V564.04z"/>
	<path d="M1085.84,570.64l1.08,4.2l-0.48,0.12L1085.84,570.64z M1086.32,570.52l-0.48,0.12l1.08,4.2L1086.32,570.52z"/>
	<path d="M1086.8,577.12l1.08,4.32h-0.48L1086.8,577.12z M1087.28,577l-0.48,0.12l1.08,4.32L1087.28,577z"/>
	<path d="M1087.64,583.6l1.08,3.96h-0.48L1087.64,583.6z M1088.12,583.6h-0.48l1.08,3.96L1088.12,583.6z"/>
	<line x1="1088.72" y1="587.56" x2="1088.24" y2="587.56"/>
	<path d="M1088.24,588.4l0.48-0.84h-0.48V588.4z M1088.72,588.52l-0.48-0.12l0.48-0.84V588.52z M1087.88,589.12l0.84-0.6l-0.48-0.12
		L1087.88,589.12z M1088.24,589.48l-0.36-0.36l0.84-0.6L1088.24,589.48z M1087.28,589.72l0.96-0.24l-0.36-0.36L1087.28,589.72z
		 M1087.52,590.2l-0.24-0.48l0.96-0.24L1087.52,590.2z"/>
	<path d="M1087.28,589.72l-4.08,3.36l-0.24-0.36L1087.28,589.72z M1087.52,590.2l-0.24-0.48l-4.08,3.36L1087.52,590.2z"/>
	<path d="M1081.16,593.92l-3.48,2.88l-0.24-0.48L1081.16,593.92z M1081.4,594.28l-0.24-0.36l-3.48,2.88L1081.4,594.28z"/>
	<path d="M1075.64,597.52l-4.08,3.36l-0.24-0.36L1075.64,597.52z M1075.88,598l-0.24-0.48l-4.08,3.36L1075.88,598z"/>
	<line x1="1071.56" y1="600.88" x2="1071.32" y2="600.52"/>
</g>
<g>
	<path d="M1063.16,614.2l-3,2.64l-0.36-0.48L1063.16,614.2z M1063.4,614.68l-0.24-0.48l-3,2.64L1063.4,614.68z"/>
	<path d="M1059.32,616.72l0.84,0.12l-0.36-0.48L1059.32,616.72z M1059.56,617.2l-0.24-0.48l0.84,0.12L1059.56,617.2z"/>
	<path d="M1059.32,616.72l-3.84,2.16l-0.24-0.48L1059.32,616.72z M1059.56,617.2l-0.24-0.48l-3.84,2.16L1059.56,617.2z"/>
	<path d="M1054.76,618.64l0.72,0.24l-0.24-0.48L1054.76,618.64z M1054.88,619.12l-0.12-0.48l0.72,0.24L1054.88,619.12z"/>
	<path d="M1054.76,618.64l-3.36,1.2l-0.12-0.48L1054.76,618.64z M1054.88,619.12l-0.12-0.48l-3.36,1.2L1054.88,619.12z"/>
	<path d="M1050.68,620.2l-0.84,0.12l0.36,0.36L1050.68,620.2z M1050.44,619.72l0.24,0.48l-0.84,0.12L1050.44,619.72z M1051.4,619.84
		l-0.96-0.12l0.24,0.48L1051.4,619.84z M1051.28,619.36l0.12,0.48l-0.96-0.12L1051.28,619.36z"/>
	<path d="M1049.84,620.32l-2.64,3.96l-0.36-0.36L1049.84,620.32z M1050.2,620.68l-0.36-0.36l-2.64,3.96L1050.2,620.68z"/>
	<path d="M1046.12,624.64l1.08-0.36l-0.36-0.36L1046.12,624.64z M1046.36,625l-0.24-0.36l1.08-0.36L1046.36,625z M1045.28,625h1.08
		l-0.24-0.36L1045.28,625z M1045.4,625.48l-0.12-0.48h1.08L1045.4,625.48z M1044.32,625.12l1.08,0.36l-0.12-0.48L1044.32,625.12z
		 M1044.32,625.6v-0.48l1.08,0.36L1044.32,625.6z M1043.36,625l0.96,0.6v-0.48L1043.36,625z M1043.24,625.48l0.12-0.48l0.96,0.6
		L1043.24,625.48z"/>
	<path d="M1043.36,625l-1.08,0.12l0.24-0.48L1043.36,625z M1043.24,625.48l0.12-0.48l-1.08,0.12L1043.24,625.48z"/>
	<path d="M1041.56,624.16l0.72,0.96l0.24-0.48L1041.56,624.16z M1041.2,624.52l0.36-0.36l0.72,0.96L1041.2,624.52z M1040.84,623.32
		l0.36,1.2l0.36-0.36L1040.84,623.32z M1040.36,623.68l0.48-0.36l0.36,1.2L1040.36,623.68z M1040.36,622.36v1.32l0.48-0.36
		L1040.36,622.36z M1039.88,622.48l0.48-0.12v1.32L1039.88,622.48z M1040.36,621.28l-0.48,1.2l0.48-0.12V621.28z M1039.88,621.28
		h0.48l-0.48,1.2V621.28z M1040.6,620.2l-0.72,1.08h0.48L1040.6,620.2z M1040.24,620.08l0.36,0.12l-0.72,1.08L1040.24,620.08z"/>
	<path d="M1040.6,620.2v-0.84l0.36,0.24L1040.6,620.2z M1040.24,620.08l0.36,0.12v-0.84L1040.24,620.08z"/>
	<path d="M1041.68,618.64l-1.08,0.72l0.36,0.24L1041.68,618.64z M1041.32,618.28l0.36,0.36l-1.08,0.72L1041.32,618.28z
		 M1042.64,618.04l-1.32,0.24l0.36,0.36L1042.64,618.04z M1042.4,617.56l0.24,0.48l-1.32,0.24L1042.4,617.56z"/>
	<path d="M1042.64,618.04l2.52-1.68l0.24,0.48L1042.64,618.04z M1042.4,617.56l0.24,0.48l2.52-1.68L1042.4,617.56z"/>
	<path d="M1045.16,616.36l1.32-0.36l-0.36-0.24L1045.16,616.36z M1045.4,616.84l-0.24-0.48l1.32-0.36L1045.4,616.84z"/>
	<path d="M1046.48,616l0.12-0.96l0.36,0.24L1046.48,616z M1046.12,615.76l0.36,0.24l0.12-0.96L1046.12,615.76z"/>
	<path d="M1046.36,610.84l-0.6-0.96l-0.24,0.36L1046.36,610.84z M1046.6,610.48l-0.24,0.36l-0.6-0.96L1046.6,610.48z
		 M1046.84,611.56l-0.24-1.08l-0.24,0.36L1046.84,611.56z M1047.32,611.32l-0.48,0.24l-0.24-1.08L1047.32,611.32z M1047.2,612.4
		l0.12-1.08l-0.48,0.24L1047.2,612.4z M1047.68,612.28l-0.48,0.12l0.12-1.08L1047.68,612.28z M1047.32,613.36l0.36-1.08l-0.48,0.12
		L1047.32,613.36z M1047.8,613.36h-0.48l0.36-1.08L1047.8,613.36z M1047.08,614.2l0.72-0.84h-0.48L1047.08,614.2z M1047.56,614.44
		l-0.48-0.24l0.72-0.84L1047.56,614.44z M1046.6,615.04l0.96-0.6l-0.48-0.24L1046.6,615.04z M1046.96,615.28l-0.36-0.24l0.96-0.6
		L1046.96,615.28z"/>
	<path d="M1045.76,609.88l-1.32-0.24l0.24-0.36L1045.76,609.88z M1045.52,610.24l0.24-0.36l-1.32-0.24L1045.52,610.24z"/>
	<path d="M1044.44,609.64l-1.32-0.84v0.48L1044.44,609.64z M1044.68,609.28l-0.24,0.36l-1.32-0.84L1044.68,609.28z"/>
	<path d="M1043.12,608.8l-3.84,0.36v-0.48L1043.12,608.8z M1043.12,609.28v-0.48l-3.84,0.36L1043.12,609.28z"/>
	<path d="M1037.12,608.56l-3.84,0.24v-0.48L1037.12,608.56z M1037.12,609.04v-0.48l-3.84,0.24L1037.12,609.04z"/>
	<line x1="1033.28" y1="608.8" x2="1033.28" y2="608.32"/>
	<path d="M1031.36,609.4l-1.2,0.36l0.48,0.24L1031.36,609.4z M1031,608.92l0.36,0.48l-1.2,0.36L1031,608.92z M1032.2,608.92h-1.2
		l0.36,0.48L1032.2,608.92z M1032.08,608.44l0.12,0.48h-1.2L1032.08,608.44z M1033.28,608.8l-1.2-0.36l0.12,0.48L1033.28,608.8z
		 M1033.28,608.32v0.48l-1.2-0.36L1033.28,608.32z"/>
	<path d="M1030.16,609.76l-2.52,3.96l-0.36-0.36L1030.16,609.76z M1030.64,610l-0.48-0.24l-2.52,3.96L1030.64,610z"/>
	<path d="M1025.96,615.04l-2.52,3.96l-0.36-0.24L1025.96,615.04z M1026.32,615.4l-0.36-0.36l-2.52,3.96L1026.32,615.4z"/>
	<line x1="1023.44" y1="619" x2="1023.08" y2="618.76"/>
	<path d="M1022.36,619.36l1.08-0.36l-0.36-0.24L1022.36,619.36z M1022.6,619.72l-0.24-0.36l1.08-0.36L1022.6,619.72z M1021.4,619.6
		l1.2,0.12l-0.24-0.36L1021.4,619.6z M1021.4,620.08v-0.48l1.2,0.12L1021.4,620.08z M1020.56,619.48l0.84,0.6v-0.48L1020.56,619.48z
		 M1020.32,619.84l0.24-0.36l0.84,0.6L1020.32,619.84z"/>
	<path d="M1020.56,619.48l-3.96-0.96l0.24-0.48L1020.56,619.48z M1020.32,619.84l0.24-0.36l-3.96-0.96L1020.32,619.84z"/>
	<path d="M1014.8,617.2l-4.32-1.08l0.24-0.48L1014.8,617.2z M1014.56,617.68l0.24-0.48l-4.32-1.08L1014.56,617.68z"/>
	<path d="M1008.56,614.92l-3.84-0.96l0.24-0.48L1008.56,614.92z M1008.44,615.4l0.12-0.48l-3.84-0.96L1008.44,615.4z"/>
	<line x1="1004.72" y1="613.96" x2="1004.96" y2="613.48"/>
	<path d="M1004.24,613.12l0.48,0.84l0.24-0.48L1004.24,613.12z M1003.88,613.48l0.36-0.36l0.48,0.84L1003.88,613.48z
		 M1003.76,612.52l0.12,0.96l0.36-0.36L1003.76,612.52z M1003.28,612.76l0.48-0.24l0.12,0.96L1003.28,612.76z M1003.52,611.68
		l-0.24,1.08l0.48-0.24L1003.52,611.68z M1003.04,611.8l0.48-0.12l-0.24,1.08L1003.04,611.8z"/>
	<path d="M1003.52,611.68l-1.08-4.08l0.48-0.12L1003.52,611.68z M1003.04,611.8l0.48-0.12l-1.08-4.08L1003.04,611.8z"/>
	<path d="M1000.88,605.2l-0.84-0.84v0.48L1000.88,605.2z M1001.12,604.84l-0.24,0.36l-0.84-0.84L1001.12,604.84z M1001.6,605.8
		l-0.48-0.96l-0.24,0.36L1001.6,605.8z M1001.96,605.56l-0.36,0.24l-0.48-0.96L1001.96,605.56z M1002.2,606.64l-0.24-1.08
		l-0.36,0.24L1002.2,606.64z M1002.68,606.4l-0.48,0.24l-0.24-1.08L1002.68,606.4z M1002.44,607.6l0.24-1.2l-0.48,0.24
		L1002.44,607.6z M1002.92,607.48l-0.48,0.12l0.24-1.2L1002.92,607.48z"/>
	<path d="M1000.04,604.36l-3-0.12l0.12-0.48L1000.04,604.36z M1000.04,604.84v-0.48l-3-0.12L1000.04,604.84z"/>
	<path d="M995,603.28l-3.12-0.12l0.12-0.48L995,603.28z M994.88,603.76l0.12-0.48l-3.12-0.12L994.88,603.76z"/>
	<line x1="991.88" y1="603.16" x2="992" y2="602.68"/>
	<path d="M991.16,602.2l0.72,0.96l0.12-0.48L991.16,602.2z M990.8,602.56l0.36-0.36l0.72,0.96L990.8,602.56z M990.56,601.48
		l0.24,1.08l0.36-0.36L990.56,601.48z M990.08,601.6l0.48-0.12l0.24,1.08L990.08,601.6z"/>
	<path d="M990.56,601.48l-2.4-3.96l0.36-0.24L990.56,601.48z M990.08,601.6l0.48-0.12l-2.4-3.96L990.08,601.6z"/>
	<path d="M987.68,595.24l-2.4-3.72l0.48-0.24L987.68,595.24z M987.2,595.48l0.48-0.24l-2.4-3.72L987.2,595.48z"/>
	<path d="M984.8,589.36l-2.4-3.96l0.48-0.24L984.8,589.36z M984.32,589.48l0.48-0.12l-2.4-3.96L984.32,589.48z"/>
	<line x1="982.4" y1="585.4" x2="982.88" y2="585.16"/>
	<path d="M980.12,583.6l-1.08-0.48v0.48H980.12z M980.24,583.12l-0.12,0.48l-1.08-0.48H980.24z M981.08,583.96l-0.84-0.84
		l-0.12,0.48L981.08,583.96z M981.32,583.48l-0.24,0.48l-0.84-0.84L981.32,583.48z M981.8,584.56l-0.48-1.08l-0.24,0.48
		L981.8,584.56z M982.16,584.2l-0.36,0.36l-0.48-1.08L982.16,584.2z M982.4,585.4l-0.24-1.2l-0.36,0.36L982.4,585.4z M982.88,585.16
		l-0.48,0.24l-0.24-1.2L982.88,585.16z"/>
	<path d="M979.04,583.12l-4.56,1.08v-0.48L979.04,583.12z M979.04,583.6v-0.48l-4.56,1.08L979.04,583.6z"/>
	<path d="M972.32,584.08l-4.56,1.08v-0.48L972.32,584.08z M972.32,584.56v-0.48l-4.56,1.08L972.32,584.56z"/>
	<line x1="967.76" y1="585.16" x2="967.76" y2="584.68"/>
	<path d="M966.92,584.68l0.84,0.48v-0.48H966.92z M966.8,585.16l0.12-0.48l0.84,0.48H966.8z M966.2,584.32l0.6,0.84l0.12-0.48
		L966.2,584.32z M965.96,584.8l0.24-0.48l0.6,0.84L965.96,584.8z M965.72,583.84l0.24,0.96l0.24-0.48L965.72,583.84z M965.24,584.08
		l0.48-0.24l0.24,0.96L965.24,584.08z"/>
	<path d="M965.72,583.84l-2.76-2.76l0.48-0.36L965.72,583.84z M965.24,584.08l0.48-0.24l-2.76-2.76L965.24,584.08z"/>
	<path d="M962.12,579.04l-3-3.24l0.36-0.36L962.12,579.04z M961.64,579.28l0.48-0.24l-3-3.24L961.64,579.28z"/>
	<path d="M958.16,573.64l-3-3.24l0.36-0.24L958.16,573.64z M957.8,574l0.36-0.36l-3-3.24L957.8,574z"/>
	<path d="M954.32,568.36l-3-3.24l0.36-0.24L954.32,568.36z M953.84,568.72l0.48-0.36l-3-3.24L953.84,568.72z"/>
	<path d="M950.36,563.08l-2.64-2.76l0.36-0.24L950.36,563.08z M950,563.44l0.36-0.36l-2.64-2.76L950,563.44z"/>
	<path d="M947,559.6l-0.72-0.84l-0.12,0.48L947,559.6z M947.24,559.24L947,559.6l-0.72-0.84L947.24,559.24z M947.72,560.32
		l-0.48-1.08L947,559.6L947.72,560.32z M948.08,560.08l-0.36,0.24l-0.48-1.08L948.08,560.08z"/>
	<path d="M946.28,558.76l-4.56-1.08l0.24-0.48L946.28,558.76z M946.16,559.24l0.12-0.48l-4.56-1.08L946.16,559.24z"/>
	<path d="M939.8,556.6l-4.56-1.08l0.24-0.48L939.8,556.6z M939.68,557.08l0.12-0.48l-4.56-1.08L939.68,557.08z"/>
	<line x1="935.24" y1="555.52" x2="935.48" y2="555.04"/>
	<path d="M934.52,554.56l0.72,0.96l0.24-0.48L934.52,554.56z M934.28,554.92l0.24-0.36l0.72,0.96L934.28,554.92z M934.04,553.72
		l0.24,1.2l0.24-0.36L934.04,553.72z M933.56,553.84l0.48-0.12l0.24,1.2L933.56,553.84z"/>
	<path d="M934.04,553.72l-1.8-3.84l0.48-0.24L934.04,553.72z M933.56,553.84l0.48-0.12l-1.8-3.84L933.56,553.84z"/>
	<path d="M932,547.6l-1.8-3.84l0.36-0.24L932,547.6z M931.52,547.72l0.48-0.12l-1.8-3.84L931.52,547.72z"/>
	<line x1="930.2" y1="543.76" x2="930.56" y2="543.52"/>
	<path d="M633.08,441.28l3.96,2.16l-0.24,0.36L633.08,441.28z M633.32,440.92l-0.24,0.36l3.96,2.16L633.32,440.92z"/>
	<path d="M638.6,445.12l3.84,2.04l-0.24,0.48L638.6,445.12z M638.84,444.64l-0.24,0.48l3.84,2.04L638.84,444.64z"/>
	<path d="M644,448.84l3.84,2.16l-0.24,0.36L644,448.84z M644.24,448.48l-0.24,0.36l3.84,2.16L644.24,448.48z"/>
	<path d="M649.4,452.56l3.84,2.16l-0.24,0.36L649.4,452.56z M649.64,452.2l-0.24,0.36l3.84,2.16L649.64,452.2z"/>
	<path d="M654.8,456.4l3.96,2.16l-0.36,0.36L654.8,456.4z M655.04,455.92l-0.24,0.48l3.96,2.16L655.04,455.92z"/>
	<line x1="658.76" y1="458.56" x2="658.4" y2="458.92"/>
	<path d="M659.6,458.92l1.2,0.36l-0.12-0.48L659.6,458.92z M659.6,459.4v-0.48l1.2,0.36L659.6,459.4z M658.76,458.56l0.84,0.84
		v-0.48L658.76,458.56z M658.4,458.92l0.36-0.36l0.84,0.84L658.4,458.92z"/>
	<path d="M660.8,459.28l4.08-1.92l0.12,0.48L660.8,459.28z M660.68,458.8l0.12,0.48l4.08-1.92L660.68,458.8z"/>
	<path d="M667.16,457.24l4.08-1.92l0.12,0.48L667.16,457.24z M667.04,456.76l0.12,0.48l4.08-1.92L667.04,456.76z"/>
	<line x1="671.24" y1="455.32" x2="671.36" y2="455.8"/>
	<path d="M1071.2,600.52l-3.24,3.36l-0.24-0.36L1071.2,600.52z M1071.56,600.88l-0.36-0.36l-3.24,3.36L1071.56,600.88z"/>
	<path d="M1066.76,603.88h1.2l-0.24-0.36L1066.76,603.88z M1066.88,604.36l-0.12-0.48h1.2L1066.88,604.36z M1065.8,604l1.08,0.36
		l-0.12-0.48L1065.8,604z M1065.68,604.48l0.12-0.48l1.08,0.36L1065.68,604.48z"/>
	<path d="M1065.68,603.88l-5.52,0.24v-0.48L1065.68,603.88z M1065.68,604.48v-0.6l-5.52,0.24L1065.68,604.48z"/>
	<path d="M1059.08,604.12l-1.32-0.12l0.24,0.48L1059.08,604.12z M1058.96,603.64l0.12,0.48l-1.32-0.12L1058.96,603.64z
		 M1060.16,604.12l-1.2-0.48l0.12,0.48H1060.16z M1060.16,603.64v0.48l-1.2-0.48H1060.16z"/>
	<path d="M1057.76,604.12l-3.96,2.88l-0.24-0.36L1057.76,604.12z M1058,604.48l-0.24-0.36l-3.96,2.88L1058,604.48z"/>
	<path d="M1051.76,607.72l-3.96,3l-0.24-0.36L1051.76,607.72z M1052,608.2l-0.24-0.48l-3.96,3L1052,608.2z"/>
	<line x1="1047.8" y1="610.72" x2="1047.56" y2="610.36"/>
	<path d="M1067.72,602.56l-2.52-2.76l0.36-0.24L1067.72,602.56z M1067.36,602.92l0.36-0.36l-2.52-2.76L1067.36,602.92z"/>
	<path d="M1062.44,598.48l-1.32-0.24l0.24,0.48L1062.44,598.48z M1062.44,598v0.48l-1.32-0.24L1062.44,598z M1063.52,598.6
		l-1.08-0.6v0.48L1063.52,598.6z M1063.64,598.12l-0.12,0.48l-1.08-0.6L1063.64,598.12z M1064.48,599.08l-0.84-0.96l-0.12,0.48
		L1064.48,599.08z M1064.72,598.6l-0.24,0.48l-0.84-0.96L1064.72,598.6z M1065.2,599.8l-0.48-1.2l-0.24,0.48L1065.2,599.8z
		 M1065.56,599.56l-0.36,0.24l-0.48-1.2L1065.56,599.56z"/>
	<path d="M1061.12,598.24l-0.12,0.6l-0.24-0.48L1061.12,598.24z M1061.36,598.72l-0.24-0.48l-0.12,0.6L1061.36,598.72z"/>
	<path d="M1059.68,599.92l-0.96,0.6l0.48,0.12L1059.68,599.92z M1059.2,599.56l0.48,0.36l-0.96,0.6L1059.2,599.56z M1060.16,599.32
		l-0.96,0.24l0.48,0.36L1060.16,599.32z M1059.92,598.96l0.24,0.36l-0.96,0.24L1059.92,598.96z M1061,598.84l-1.08,0.12l0.24,0.36
		L1061,598.84z M1060.76,598.36l0.24,0.48l-1.08,0.12L1060.76,598.36z"/>
	<path d="M1058.72,600.52l-0.6,3l-0.48-0.24L1058.72,600.52z M1059.2,600.64l-0.48-0.12l-0.6,3L1059.2,600.64z"/>
	<path d="M1002.56,613.72l-2.04,2.76l-0.36-0.36L1002.56,613.72z M1002.8,614.08l-0.24-0.36l-2.04,2.76L1002.8,614.08z"/>
	<path d="M998.6,617.68l-2.76,3.36l-0.36-0.24L998.6,617.68z M998.96,618.04l-0.36-0.36l-2.76,3.36L998.96,618.04z"/>
	<path d="M993.92,622.36L992,625l-0.36-0.36L993.92,622.36z M994.28,622.6l-0.36-0.24L992,625L994.28,622.6z"/>
	<line x1="992" y1="625" x2="991.64" y2="624.64"/>
</g>
</svg>
