<?xml version="1.0" encoding="UTF-8"?>
<svg width="189px" height="84px" viewBox="0 0 189 84" version="1.1" xmlns="http://www.w3.org/2000/svg" xmlns:xlink="http://www.w3.org/1999/xlink">
    <title>Logo-EN-B</title>
    <defs>
        <polygon id="path-1" points="0 0.266054098 26.6334676 0.266054098 26.6334676 23.9996276 0 23.9996276"></polygon>
        <polygon id="path-3" points="0 83.9633721 188.963575 83.9633721 188.963575 0 0 0"></polygon>
    </defs>
    <g id="Page-1" stroke="none" stroke-width="1" fill="none" fill-rule="evenodd">
        <g id="Artboard" transform="translate(-499.000000, -324.000000)">
            <g id="Group-27" transform="translate(499.000000, 324.000000)">
                <g id="Group-3" transform="translate(0.000000, 40.128999)">
                    <mask id="mask-2" fill="white">
                        <use xlink:href="#path-1"></use>
                    </mask>
                    <g id="Clip-2"></g>
                    <path d="M-6.87272727e-05,23.4174523 L0.927749455,23.1777331 C2.199204,22.835277 2.44009309,22.7667858 2.44009309,20.4034967 L2.44009309,3.86184253 C2.44009309,1.49889585 2.199204,1.43040464 0.927749455,1.0879486 L-6.87272727e-05,0.848229368 L-6.87272727e-05,0.266054098 L12.6120731,0.266054098 L12.6120731,0.848229368 L11.7873458,1.0879486 C10.4468204,1.46465024 10.2750022,1.53314145 10.2750022,3.86184253 L10.2750022,11.2249899 L16.3580531,11.2249899 L16.3580531,3.86184253 C16.3580531,1.53314145 16.1862349,1.46465024 14.8457095,1.0879486 L14.0213258,0.848229368 L14.0213258,0.266054098 L26.6334676,0.266054098 L26.6334676,0.848229368 L25.7056495,1.0879486 C24.4338513,1.43040464 24.1933058,1.49889585 24.1933058,3.86184253 L24.1933058,20.4034967 C24.1933058,22.7667858 24.4338513,22.835277 25.7056495,23.1777331 L26.6334676,23.4174523 L26.6334676,23.9996276 L14.0213258,23.9996276 L14.0213258,23.4174523 L14.8457095,23.1777331 C16.1518713,22.8010314 16.3580531,22.7325402 16.3580531,20.4034967 L16.3580531,12.4581741 L10.2750022,12.4581741 L10.2750022,20.4034967 C10.2750022,22.7325402 10.4815276,22.8010314 11.7873458,23.1777331 L12.6120731,23.4174523 L12.6120731,23.9996276 L-6.87272727e-05,23.9996276 L-6.87272727e-05,23.4174523 Z" id="Fill-1" fill="#16150B" mask="url(#mask-2)"></path>
                </g>
                <path d="M39.4842305,50.1214209 C39.4842305,48.5800263 39.4155033,48.4087983 38.3845942,47.6896406 L37.2849578,46.9019917 L37.2849578,46.5595357 L45.9789578,45.66915 L46.2542105,45.8746236 L46.2542105,60.1560679 C46.2542105,61.9710849 46.3225942,62.1765585 47.4569378,62.5871633 L48.2820087,62.8957162 L48.2820087,63.340909 L39.8962505,64.5398476 L39.6213415,64.3340316 L39.6213415,61.7998568 L39.5185942,61.7998568 C37.6626142,63.2381722 35.6691796,64.5398476 32.8513615,64.5398476 C30.1706542,64.5398476 28.4184524,62.998453 28.4184524,59.9502518 L28.4184524,50.1214209 C28.4184524,48.5800263 28.3837451,48.4772895 27.318816,47.6896406 L26.218836,46.9019917 L26.218836,46.5595357 L34.9135233,45.66915 L35.1884324,45.8746236 L35.1884324,58.3407084 C35.1884324,60.3954446 35.9100687,61.012208 37.1471596,61.012208 C38.246796,61.012208 38.9340687,60.9094711 39.4842305,60.8063919 L39.4842305,50.1214209 Z" id="Fill-4" fill="#16150B"></path>
                <path d="M61.098408,61.0806992 L61.098408,48.1348335 C60.6173171,47.2444477 60.0671553,46.6622725 58.8991353,46.6622725 C56.974428,46.6622725 55.5998825,48.4087983 55.5998825,54.4021215 C55.5998825,59.7451206 56.6307916,61.491304 59.1393371,61.491304 C59.8269535,61.491304 60.6860444,61.2519272 61.098408,61.0806992 M48.6921044,56.1147441 C48.6921044,48.5800263 53.3659025,45.66915 58.864428,45.66915 C59.8953371,45.66915 60.4454989,45.8057899 61.098408,46.011606 L61.098408,42.5867031 C61.098408,40.9086685 60.9609535,40.7716861 59.9640644,40.2237565 L58.5895189,39.4703532 L58.5895189,38.9909147 L67.7649535,38.2029234 L68.0402062,38.4087394 C68.0402062,38.4087394 67.9027516,40.2580021 67.9027516,42.5524575 L67.9027516,60.1560679 C67.9027516,61.9710849 67.9367716,62.1765585 69.0711153,62.5871633 L69.8961862,62.8957162 L69.8961862,63.340909 L61.6138625,64.5398476 L61.1667916,64.2312947 L61.1667916,62.0734792 L61.0637007,62.0734792 C59.6891553,63.3751546 58.0053371,64.5398476 55.6342462,64.5398476 C51.6820844,64.5398476 48.6921044,61.8341025 48.6921044,56.1147441" id="Fill-6" fill="#16150B"></path>
                <path d="M80.512866,61.3545955 L80.512866,55.6352372 L79.7225024,55.7037284 C78.1761387,55.8064652 77.5572496,56.4913773 77.5572496,58.888912 C77.5572496,61.2518587 78.3135933,61.9710164 79.2414115,61.9710164 C79.8255933,61.9710164 80.2726642,61.7655428 80.512866,61.3545955 M70.9590878,60.2587362 C70.9590878,56.9708157 73.6745024,56.08043 76.5954115,55.2927811 L80.512866,54.2308249 L80.512866,50.943247 C80.512866,47.7923089 80.1692296,46.6964496 78.7603205,46.6964496 C77.900886,46.6964496 77.4545024,46.8676776 77.3854315,48.1008618 C77.2136133,51.0459838 76.4923205,51.7993871 74.4301587,51.7993871 C72.5745224,51.7993871 71.6467042,51.0117382 71.6467042,49.5734228 C71.6467042,47.2443793 74.1552496,45.6690815 80.0321187,45.6690815 C84.4306642,45.6690815 87.282846,46.9361688 87.282846,50.5665453 L87.282846,59.9501833 C87.282846,61.4573323 87.3862805,61.9367708 88.038846,62.2792268 C88.4859169,62.518946 89.2762805,62.6216829 89.5855533,62.6216829 L89.5855533,63.1353669 C88.8639169,63.6832966 87.4206442,64.5397791 84.9461187,64.5397791 C82.7812096,64.5397791 81.4066642,63.7517878 80.8912096,62.3134724 L80.7534115,62.3134724 C79.8255933,63.4093317 78.5197751,64.5397791 75.9421587,64.5397791 C72.8837951,64.5397791 70.9590878,62.9302357 70.9590878,60.2587362" id="Fill-8" fill="#16150B"></path>
                <path d="M103.571072,50.635105 C103.949072,49.6073944 104.189618,48.9224823 104.189618,48.3403071 C104.189618,47.655395 103.811618,47.1417109 102.98689,46.9362373 L102.093436,46.6965181 L102.093436,46.1143428 L108.003981,46.1143428 L108.003981,46.6965181 L107.351416,46.9362373 C106.629436,47.2102021 106.285799,47.826623 105.25489,50.292649 L98.7254558,65.6011189 C97.1787485,69.2314954 95.7701831,71.1492492 92.4365667,71.1492492 C90.5122031,71.1492492 88.7936776,70.0876355 88.7936776,68.3068641 C88.7936776,66.8343031 89.7562031,65.9435749 91.4743849,65.9435749 C92.7458395,65.9435749 93.7767485,66.4918471 93.983274,68.2380304 C94.0516576,68.923285 94.1550922,69.1287586 94.6014758,69.1287586 C95.3234558,69.1287586 96.4574558,68.1356361 97.5914558,65.3271541 L97.7289104,64.984698 L90.615294,49.8471137 C89.5156576,47.4499214 89.1029504,47.0732197 88.4847485,46.8677461 L87.969294,46.6965181 L87.969294,46.1143428 L99.7223449,46.1143428 L99.7223449,46.6965181 L98.8285467,46.9704829 C98.2100013,47.1759565 97.6258195,47.5184126 97.6258195,48.4087983 C97.6258195,48.9224823 97.8663649,49.6073944 98.1756376,50.3953858 L100.925072,57.3133403 L101.062183,57.3133403 L103.571072,50.635105 Z" id="Fill-10" fill="#16150B"></path>
                <path d="M109.343098,63.5464511 L109.961643,63.3752231 C111.336189,62.998179 111.404916,62.8957847 111.404916,61.3201444 L111.404916,50.0529982 C111.404916,48.5800948 111.370552,48.4431124 110.30528,47.6897091 L109.205643,46.9017177 L109.205643,46.5592617 L117.762532,45.6692184 L118.037785,45.8743496 L118.037785,48.6143404 L118.140876,48.6143404 C119.137421,47.3814987 120.993058,45.7031216 123.226694,45.7031216 C124.876149,45.7031216 126.044856,46.662341 126.044856,48.5800948 C126.044856,50.5666823 124.842129,51.6964448 123.157967,51.6964448 C121.508512,51.6964448 120.889967,50.9430415 120.408876,49.8817702 C120.168331,49.3680861 119.996512,49.1968581 119.584149,49.1968581 C119.102714,49.1968581 118.518532,49.3680861 118.174896,49.6759541 L118.174896,61.3201444 C118.174896,63.0327671 118.346714,63.1355039 119.618169,63.3752231 L120.374512,63.5118631 L120.374512,64.1286264 L109.343098,64.1286264 L109.343098,63.5464511 Z" id="Fill-12" fill="#16150B"></path>
                <path d="M132.572435,38.3056944 C134.462779,38.3056944 135.906051,39.504633 135.906051,41.3538956 C135.906051,43.2374039 134.462779,44.4020969 132.572435,44.4020969 C130.716799,44.4020969 129.239162,43.2374039 129.239162,41.3538956 C129.239162,39.504633 130.716799,38.3056944 132.572435,38.3056944 L132.572435,38.3056944 Z M127.280435,63.5464169 L127.898637,63.3751889 C129.273182,62.9981448 129.342253,62.8957504 129.342253,61.3201102 L129.342253,50.052964 C129.342253,48.5458149 129.239162,48.4088325 128.173546,47.6554292 L127.073909,46.8677803 L127.073909,46.5595699 L135.974779,45.6691842 L136.249688,45.8746578 C136.146597,47.5526924 136.112233,48.7512886 136.112233,50.2580952 L136.112233,61.3201102 C136.112233,62.8957504 136.18096,62.9981448 137.555506,63.3751889 L138.174395,63.5464169 L138.174395,64.1285922 L127.280435,64.1285922 L127.280435,63.5464169 Z" id="Fill-14" fill="#16150B"></path>
                <path d="M153.46611,50.635105 C153.84411,49.6073944 154.084655,48.9224823 154.084655,48.3403071 C154.084655,47.655395 153.706655,47.1417109 152.881928,46.9362373 L151.988474,46.6965181 L151.988474,46.1143428 L157.899019,46.1143428 L157.899019,46.6965181 L157.246454,46.9362373 C156.524474,47.2102021 156.180837,47.826623 155.149928,50.292649 L148.620494,65.6011189 C147.073786,69.2314954 145.665221,71.1492492 142.331605,71.1492492 C140.407241,71.1492492 138.688715,70.0876355 138.688715,68.3068641 C138.688715,66.8343031 139.651241,65.9435749 141.369423,65.9435749 C142.640877,65.9435749 143.671786,66.4918471 143.878312,68.2380304 C143.946695,68.923285 144.05013,69.1287586 144.496514,69.1287586 C145.218494,69.1287586 146.352494,68.1356361 147.486494,65.3271541 L147.623948,64.984698 L140.510332,49.8471137 C139.410695,47.4499214 138.997988,47.0732197 138.379786,46.8677461 L137.864332,46.6965181 L137.864332,46.1143428 L149.617383,46.1143428 L149.617383,46.6965181 L148.723585,46.9704829 C148.105039,47.1759565 147.520857,47.5184126 147.520857,48.4087983 C147.520857,48.9224823 147.761403,49.6073944 148.070675,50.3953858 L150.82011,57.3133403 L150.957221,57.3133403 L153.46611,50.635105 Z" id="Fill-16" fill="#16150B"></path>
                <path d="M167.176685,61.3545955 L167.176685,55.6352372 L166.386322,55.7037284 C164.839958,55.8064652 164.221069,56.4913773 164.221069,58.888912 C164.221069,61.2518587 164.977413,61.9710164 165.905231,61.9710164 C166.489413,61.9710164 166.936484,61.7655428 167.176685,61.3545955 M157.622907,60.2587362 C157.622907,56.9708157 160.338322,56.08043 163.259231,55.2927811 L167.176685,54.2308249 L167.176685,50.943247 C167.176685,47.7923089 166.833049,46.6964496 165.42414,46.6964496 C164.564705,46.6964496 164.118322,46.8676776 164.049251,48.1008618 C163.877433,51.0459838 163.15614,51.7993871 161.093978,51.7993871 C159.238342,51.7993871 158.310524,51.0117382 158.310524,49.5734228 C158.310524,47.2443793 160.819069,45.6690815 166.695938,45.6690815 C171.094484,45.6690815 173.946665,46.9361688 173.946665,50.5665453 L173.946665,59.9501833 C173.946665,61.4573323 174.0501,61.9367708 174.702665,62.2792268 C175.149736,62.518946 175.9401,62.6216829 176.249373,62.6216829 L176.249373,63.1353669 C175.527736,63.6832966 174.084464,64.5397791 171.609938,64.5397791 C169.445029,64.5397791 168.070484,63.7517878 167.555029,62.3134724 L167.417231,62.3134724 C166.489413,63.4093317 165.183595,64.5397791 162.605978,64.5397791 C159.547615,64.5397791 157.622907,62.9302357 157.622907,60.2587362" id="Fill-18" fill="#16150B"></path>
                <path d="M177.725703,59.0941802 L177.725703,47.9636739 L175.83536,47.9636739 L175.83536,47.5527267 C178.82534,46.4568673 181.643158,43.853859 182.777158,41.3196843 L184.495683,41.3196843 L184.495683,46.1144113 L188.688047,46.1144113 L188.413481,47.9636739 L184.495683,47.9636739 L184.495683,59.1284258 C184.495683,61.1489164 184.873683,61.6626005 186.72932,61.6626005 C187.519683,61.6626005 188.447501,61.5259605 188.9633,61.3886356 L188.9633,61.9708109 C188.035481,63.0670127 186.385683,64.5395737 183.155501,64.5395737 C179.306431,64.5395737 177.725703,62.9300303 177.725703,59.0941802" id="Fill-20" fill="#16150B"></path>
                <path d="M94.4791413,25.5570491 C87.9878504,25.5570491 82.6680158,20.4657552 82.3274722,14.0799774 L106.63081,14.0799774 C106.290267,20.4657552 100.970432,25.5570491 94.4791413,25.5570491 L94.4791413,25.5570491 Z M85.5030158,5.24940591 L90.3908995,10.1201582 C89.783694,10.8653425 89.3799213,11.7790152 89.2565558,12.778302 L82.3274722,12.778302 C82.4817649,9.88489088 83.6583758,7.25791059 85.5030158,5.24940591 L85.5030158,5.24940591 Z M94.4787976,9.47565591 C96.4419922,9.47565591 98.0715158,10.9081495 98.3814758,12.778302 L90.5761195,12.778302 C90.8857358,10.9081495 92.5156031,9.47565591 94.4787976,9.47565591 L94.4787976,9.47565591 Z M93.8258885,8.21884224 C92.8994449,8.33356502 92.0489449,8.6897193 91.3355558,9.22121107 L86.4359885,4.3388153 C88.4297667,2.58475546 91.0005104,1.46903368 93.8258885,1.31938039 L93.8258885,8.21884224 Z M97.6220395,9.22121107 C96.9086504,8.6897193 96.058494,8.33356502 95.1317067,8.21884224 L95.1317067,1.31938039 C97.9570849,1.46903368 100.528172,2.58475546 102.521607,4.3388153 L97.6220395,9.22121107 Z M106.63081,12.778302 L99.7013831,12.778302 C99.577674,11.7790152 99.1739013,10.8653425 98.5670395,10.1201582 L103.455267,5.24940591 C105.299563,7.25791059 106.476518,9.88489088 106.63081,12.778302 L106.63081,12.778302 Z M94.4791413,0.000239719229 C87.0370085,0.000239719229 81.0037849,6.01239797 81.0037849,13.4293109 C81.0037849,20.8458814 87.0370085,26.8583821 94.4791413,26.8583821 C101.921274,26.8583821 107.954498,20.8458814 107.954498,13.4293109 C107.954498,6.01239797 101.921274,0.000239719229 94.4791413,0.000239719229 L94.4791413,0.000239719229 Z" id="Fill-22" fill="#16150B"></path>
                <mask id="mask-4" fill="white">
                    <use xlink:href="#path-3"></use>
                </mask>
                <g id="Clip-25"></g>
                <polygon id="Fill-24" fill="#16150B" mask="url(#mask-4)" points="89.4853145 17.2173199 99.4727618 17.2173199 99.4727618 15.9156445 89.4853145 15.9156445"></polygon>
                <polygon id="Fill-26" fill="#16150B" mask="url(#mask-4)" points="91.7364764 20.3429162 97.2209127 20.3429162 97.2209127 19.0412408 91.7364764 19.0412408"></polygon>
                <path d="M6.63604498,81.1571583 L6.8182062,78.3303906 L6.64905649,78.3303906 C6.40183769,79.0305991 6.14160737,79.6530067 5.88137705,80.1198124 C5.52746381,80.7370332 5.27177956,80.8647961 4.1243165,80.871593 L4.02073026,80.8718882 C2.74915029,80.8718882 2.65811672,80.7232787 2.65463564,80.0387746 L2.65452108,73.2084952 C2.65452108,72.5471871 2.70656715,72.482353 3.18799324,72.4045521 L3.66941933,72.3137843 L3.66941933,72.1711492 L0.15631001,72.1711492 L0.15631001,72.3137843 L0.637736102,72.4045521 C1.08942159,72.4920781 1.15394808,72.5434327 1.15798099,73.1399432 L1.15819674,80.1198124 C1.15819674,80.7811204 1.09313916,80.8329877 0.637736102,80.9237554 L0.15631001,81.0145232 L0.15631001,81.1571583 L6.63604498,81.1571583 Z M10.9038222,81.3127602 C11.9837781,81.3127602 12.8295266,80.807054 13.2979412,80.2883811 L13.2979412,80.1198124 C12.8035036,80.4050825 12.1659393,80.586618 11.3852483,80.586618 C9.91494701,80.586618 9.06919847,79.704874 9.06919847,77.5005139 L9.06919847,77.3967793 L13.4670909,77.3967793 C13.4801024,75.2442865 12.4782157,74.323642 10.8257531,74.323642 C9.10823302,74.323642 7.66395474,75.7499927 7.66395474,77.8895186 C7.66395474,79.9901441 8.66584147,81.3127602 10.9038222,81.3127602 Z M9.06919847,77.1504097 C9.14726757,75.3609879 9.8238664,74.5959453 10.7737071,74.5959453 C11.7235477,74.5959453 12.0748587,75.3350543 12.0748587,77.0337082 L9.06919847,77.1504097 Z M15.3277377,73.4159643 C15.7701292,73.4159643 16.1214401,73.1047606 16.1214401,72.6509217 C16.1214401,72.2100497 15.7701292,71.8858791 15.3277377,71.8858791 C14.8723346,71.8858791 14.5340352,72.2100497 14.5340352,72.6509217 C14.5340352,73.1047606 14.8723346,73.4159643 15.3277377,73.4159643 Z M16.9151426,81.1571583 L16.9151426,81.02749 L16.5768432,80.9367223 C16.1214401,80.8329877 16.0563826,80.7811204 16.0563826,80.2754142 L16.0563826,75.8926277 C16.0563826,75.062751 16.0954171,74.6089121 16.1084286,74.3884761 L16.043371,74.3625425 L13.8574364,74.6478126 L13.8574364,74.7515472 L14.1957358,74.9460496 C14.6381273,75.1664856 14.7031849,75.2053861 14.7031849,75.6851585 L14.7031849,80.2754142 C14.7031849,80.7811204 14.6641504,80.8329877 14.2217588,80.9367223 L13.8574364,81.02749 L13.8574364,81.1571583 L16.9151426,81.1571583 Z M19.6085264,81.2868265 C21.2089429,81.2868265 22.093726,80.3532152 22.093726,79.186201 C22.093726,78.084021 21.3260465,77.5912817 20.1419986,77.1115092 C19.0620428,76.683604 18.5806167,76.3594334 18.5806167,75.6981254 C18.5806167,75.0757178 19.0360197,74.5959453 19.8427337,74.5959453 C20.4412635,74.5959453 20.7275168,74.8034145 21.0137702,75.2313197 C21.1829199,75.4906562 21.3650811,75.8277936 21.5862769,76.2556988 L21.7294035,76.2556988 L21.690369,74.621879 C21.2479774,74.4533103 20.6624592,74.323642 19.9858604,74.323642 C18.5545936,74.323642 17.6177645,75.1275851 17.6177645,76.2816324 C17.6177645,77.344912 18.2683403,77.8895186 19.4523882,78.3563243 C20.5713786,78.7971963 20.9877471,79.1213669 20.9877471,79.8215754 C20.9877471,80.5477176 20.506321,81.02749 19.7256301,81.02749 C18.9709621,81.02749 18.5806167,80.7811204 18.2423173,80.1587128 C18.060156,79.8604759 17.9040178,79.5233385 17.6958336,79.0954333 L17.5527069,79.0954333 L17.5917415,80.9885896 C18.1122021,81.1571583 18.7757894,81.2868265 19.6085264,81.2868265 Z M27.3373669,81.2868265 L29.4452325,81.0015564 L29.4452325,80.884855 L29.0939216,80.7551867 C28.6775531,80.5995848 28.599484,80.5217839 28.599484,79.9382768 L28.599484,74.401443 L28.5344264,74.3625425 L26.4395723,74.6478126 L26.4395723,74.7515472 L26.7778717,74.9460496 C27.2018303,75.1697273 27.2433949,75.2147735 27.2461225,75.6746418 L27.2462863,80.1716797 C26.8169063,80.3532152 26.2183766,80.5477176 25.5938238,80.5477176 C24.8912019,80.5477176 24.4748334,80.1587128 24.4748334,79.3418029 L24.4748334,74.401443 L24.3967643,74.3625425 L22.3149218,74.6478126 L22.3149218,74.7515472 L22.6532212,74.9460496 C23.0695897,75.1794524 23.1216358,75.2053861 23.1216358,75.724059 L23.1216358,79.6011394 C23.1216358,80.7033194 23.7592,81.2868265 24.8131328,81.2868265 C25.775985,81.2868265 26.582699,80.8459545 27.2202633,80.4180493 L27.2592978,80.4180493 L27.2592978,81.2608929 L27.3373669,81.2868265 Z M32.8802728,81.1571583 L32.8802728,81.02749 L32.3207776,80.9237554 C31.9304321,80.8459545 31.878386,80.7162863 31.878386,80.2624474 L31.878386,75.6073576 C32.2427085,75.3350543 32.6851,75.0757178 32.9062958,75.0757178 C33.0754455,75.0757178 33.11448,75.1405519 33.2055607,75.3609879 C33.3356758,75.6203244 33.491814,75.8407604 33.8821595,75.8407604 C34.2855165,75.8407604 34.5717698,75.5684571 34.5717698,75.1146183 C34.5717698,74.621879 34.272505,74.323642 33.7390328,74.323642 C33.0754455,74.323642 32.3988467,74.8812155 31.8913975,75.3480211 L31.8653745,75.3480211 L31.878386,74.4144098 L31.8003169,74.3625425 L29.7054628,74.6478126 L29.7054628,74.7515472 L30.0307507,74.9330827 C30.4731423,75.1664856 30.5251884,75.2053861 30.5251884,75.6851585 L30.5251884,80.2624474 C30.5251884,80.7681536 30.4861538,80.8329877 30.0437623,80.9367223 L29.6794398,81.02749 L29.6794398,81.1571583 L32.8802728,81.1571583 Z M37.7595913,81.3127602 C38.8395471,81.3127602 39.6852956,80.807054 40.1537102,80.2883811 L40.1537102,80.1198124 C39.6592726,80.4050825 39.0217083,80.586618 38.2410173,80.586618 C36.770716,80.586618 35.9249675,79.704874 35.9249675,77.5005139 L35.9249675,77.3967793 L40.3228599,77.3967793 C40.3358714,75.2442865 39.3339847,74.323642 37.6815222,74.323642 C35.964002,74.323642 34.5197238,75.7499927 34.5197238,77.8895186 C34.5197238,79.9901441 35.5216105,81.3127602 37.7595913,81.3127602 Z M35.9249675,77.1504097 C36.0030366,75.3609879 36.6796354,74.5959453 37.6294761,74.5959453 C38.5793168,74.5959453 38.9306277,75.3350543 38.9306277,77.0337082 L35.9249675,77.1504097 Z M45.241213,81.325727 C46.07395,81.325727 46.7115143,80.9367223 47.0758367,80.4958503 L47.1148713,80.4958503 C47.1929404,81.0404569 47.5442513,81.3127602 48.2208501,81.3127602 C48.7152877,81.3127602 49.1446678,81.1312246 49.3398405,81.0015564 L49.3398405,80.8978218 C49.0926217,80.884855 48.8454029,80.8589213 48.6632417,80.7292531 C48.494092,80.6255185 48.4030113,80.4569498 48.4030113,80.0549782 L48.4030113,76.0352628 C48.4030113,74.9071491 47.713401,74.323642 46.1520191,74.323642 C44.9809826,74.323642 43.7188656,74.6607794 43.7188656,75.4776894 C43.7188656,75.8537273 43.9530729,76.0871301 44.3824529,76.0871301 C44.8508675,76.0871301 45.0590517,75.8666941 45.1241093,75.1924192 C45.2021784,74.764514 45.3322936,74.5959453 45.9178118,74.5959453 C46.9447207,74.5959453 47.0451685,75.1252918 47.0496446,76.040048 L47.0498137,77.5264476 L45.3322936,77.9543527 C44.3434183,78.2136892 43.3415316,78.5378598 43.3415316,79.7308076 C43.3415316,80.7292531 44.0701765,81.325727 45.241213,81.325727 Z M45.8267312,80.7292531 C45.1110978,80.7292531 44.7207523,80.2754142 44.7207523,79.4974048 C44.7207523,78.5378598 45.2542245,78.2136892 46.2951457,78.0321537 L47.0498137,77.9024855 L47.0498137,80.1976133 C46.8416294,80.4958503 46.4252609,80.7292531 45.8267312,80.7292531 Z M52.5016389,81.1571583 L52.5016389,81.02749 L52.1243049,80.9496891 C51.7245911,80.8501039 51.6486455,80.8102698 51.6432094,80.3368816 L51.6428788,75.4258221 C52.0202128,75.2961538 52.605731,75.0757178 53.3994335,75.0757178 C54.1541014,75.0757178 54.4143317,75.3869216 54.4143317,76.2945993 L54.4143317,80.2754142 C54.4143317,80.807054 54.3622857,80.8459545 53.9459172,80.9496891 L53.5815947,81.02749 L53.5815947,81.1571583 L56.6262895,81.1571583 L56.6262895,81.02749 L56.261967,80.9367223 C55.8195755,80.8329877 55.7805409,80.7811204 55.7805409,80.2754142 L55.7805409,76.0611964 C55.7805409,74.8941823 55.2991148,74.323642 54.0630208,74.323642 C53.2172723,74.323642 52.2804431,74.7904477 51.6428788,75.2053861 L51.6298673,75.2053861 L51.6428788,74.3884761 L51.5648097,74.3625425 L49.4699557,74.6478126 L49.4699557,74.7515472 L49.7952436,74.9330827 C50.2116121,75.1535188 50.2896812,75.1794524 50.2896812,75.6721917 L50.2896812,80.2754142 C50.2896812,80.7811204 50.2506466,80.8329877 49.8082551,80.9367223 L49.4439326,81.02749 L49.4439326,81.1571583 L52.5016389,81.1571583 Z M61.8178843,81.2868265 L63.9387614,81.0145232 L63.9387614,80.8978218 L63.5874505,80.7811204 C63.1320475,80.6255185 63.0800014,80.5477176 63.0800014,80.0420114 L63.0800014,72.9880591 C63.0800014,72.0025805 63.1320475,71.3931398 63.1320475,71.3931398 L63.0539784,71.3672061 L60.8029861,71.5746753 L60.8029861,71.6784099 L61.3234467,71.9247796 C61.6487346,72.0803815 61.7137922,72.1452156 61.7137922,72.6509217 L61.7137922,74.5051776 C61.4795849,74.4273766 61.1673085,74.323642 60.5687788,74.323642 C58.7731896,74.323642 56.9776004,75.5425235 56.9776004,78.1229215 C56.9776004,80.5088171 58.2397174,81.2868265 59.6449612,81.2868265 C60.4646867,81.2868265 61.1152625,80.9756227 61.7007807,80.5088171 L61.7398152,80.5088171 L61.7137922,81.2349592 L61.8178843,81.2868265 Z M60.347583,80.6255185 C59.111489,80.6255185 58.3828441,79.7178408 58.3828441,77.785784 C58.3828441,75.581424 59.2025696,74.6089121 60.4776982,74.6089121 C61.0502049,74.6089121 61.4795849,74.842315 61.7137922,75.1794524 L61.7137922,80.2365138 C61.4535619,80.4180493 60.9721358,80.6255185 60.347583,80.6255185 Z M73.3721105,81.1571583 L73.5542718,78.4341252 L73.3981336,78.4341252 C73.1509148,79.0954333 72.903696,79.7567413 72.6044311,80.1976133 C72.2140856,80.7162863 72.0319244,80.8589213 70.7698073,80.8589213 C69.2651556,80.8589213 69.1725813,80.809108 69.1694802,79.8795908 L69.1693909,76.6447035 L69.9240588,76.6447035 C71.0040146,76.6447035 71.1991874,76.6965708 71.3683371,77.0855755 C71.4854407,77.3319452 71.5895329,77.6690826 71.6806135,78.0451205 L71.8237401,78.0451205 L71.8237401,74.9330827 L71.6806135,74.9330827 C71.5895329,75.3220875 71.4984522,75.6592249 71.3683371,75.8926277 C71.1861759,76.2816324 71.0170261,76.3464666 69.9240588,76.3464666 L69.1693909,76.3464666 L69.1693909,72.5860876 C69.5467248,72.5082867 69.9761049,72.4693862 70.6266807,72.4693862 C71.7977171,72.4693862 72.1099935,72.5471871 72.4743159,73.1177274 C72.6564772,73.4159643 72.8776729,73.8957368 73.1118802,74.4403434 L73.2550069,74.4403434 L73.1118802,72.1711492 L66.6711798,72.1711492 L66.6711798,72.3137843 L67.1526059,72.4045521 C67.6042914,72.5045819 67.6688179,72.5443258 67.6728508,73.1399911 L67.6730665,80.1198124 C67.6730665,80.7811204 67.608009,80.8200209 67.1526059,80.9237554 L66.6711798,81.0145232 L66.6711798,81.1571583 L73.3721105,81.1571583 Z M77.1714732,81.1571583 L77.1714732,81.02749 L76.7941393,80.9496891 C76.3777707,80.8459545 76.3127132,80.807054 76.3127132,80.2754142 L76.3127132,75.4258221 C76.6900471,75.2961538 77.2755653,75.0757178 78.0692678,75.0757178 C78.8239357,75.0757178 79.0841661,75.3869216 79.0841661,76.2945993 L79.0841661,80.2754142 C79.0841661,80.807054 79.03212,80.8459545 78.6157515,80.9496891 L78.251429,81.02749 L78.251429,81.1571583 L81.2961238,81.1571583 L81.2961238,81.02749 L80.9318013,80.9367223 C80.5071055,80.8371371 80.4541434,80.7853528 80.4505859,80.3339529 L80.4503752,76.0611964 C80.4503752,74.8941823 79.9689492,74.323642 78.7328551,74.323642 C77.8871066,74.323642 76.9502774,74.7904477 76.3127132,75.2053861 L76.2997016,75.2053861 L76.3127132,74.3884761 L76.2346441,74.3625425 L74.13979,74.6478126 L74.13979,74.7515472 L74.4650779,74.9330827 C74.8814464,75.1535188 74.9595155,75.1794524 74.9595155,75.6721917 L74.9595155,80.2754142 C74.9595155,80.7811204 74.9204809,80.8329877 74.4780894,80.9367223 L74.113767,81.02749 L74.113767,81.1571583 L77.1714732,81.1571583 Z M83.6512082,81.2868265 C84.4318991,81.2868265 85.0304289,80.9107886 85.3296937,80.6384853 L85.3296937,80.4958503 C85.0824749,80.5736512 84.757187,80.6773858 84.3668416,80.6773858 C83.7683118,80.6773858 83.49507,80.4569498 83.49507,79.8215754 L83.49507,74.9979169 L85.1865671,74.9979169 L85.2386131,74.544078 L83.49507,74.544078 L83.49507,72.9880591 L83.2868857,72.9880591 C82.9225633,73.8698032 82.2719875,74.544078 81.3872044,74.8812155 L81.3872044,74.9979169 L82.1418723,74.9979169 L82.1418723,79.8734427 C82.1418723,80.8459545 82.714379,81.2868265 83.6512082,81.2868265 Z M88.6476303,81.3127602 C89.7275862,81.3127602 90.5733347,80.807054 91.0417493,80.2883811 L91.0417493,80.1198124 C90.5473117,80.4050825 89.9097474,80.586618 89.1290564,80.586618 C87.6587551,80.586618 86.8130066,79.704874 86.8130066,77.5005139 L86.8130066,77.3967793 L91.210899,77.3967793 C91.2239105,75.2442865 90.2220238,74.323642 88.5695612,74.323642 C86.8520411,74.323642 85.4077628,75.7499927 85.4077628,77.8895186 C85.4077628,79.9901441 86.4096496,81.3127602 88.6476303,81.3127602 Z M86.8130066,77.1504097 C86.8910757,75.3609879 87.5676745,74.5959453 88.5175152,74.5959453 C89.4673558,74.5959453 89.8186668,75.3350543 89.8186668,77.0337082 L86.8130066,77.1504097 Z M94.8020774,81.1571583 L94.8020774,81.02749 L94.2425822,80.9237554 C93.8692083,80.8493372 93.8053559,80.7274637 93.8005093,80.3198278 L93.8001907,75.6073576 C94.1645131,75.3350543 94.6069047,75.0757178 94.8281004,75.0757178 C94.9972501,75.0757178 95.0362847,75.1405519 95.1273653,75.3609879 C95.2574805,75.6203244 95.4136186,75.8407604 95.8039641,75.8407604 C96.2073211,75.8407604 96.4935745,75.5684571 96.4935745,75.1146183 C96.4935745,74.621879 96.1943096,74.323642 95.6608375,74.323642 C94.9972501,74.323642 94.3206513,74.8812155 93.8132022,75.3480211 L93.7871791,75.3480211 L93.8001907,74.4144098 L93.7221216,74.3625425 L91.6272675,74.6478126 L91.6272675,74.7515472 L91.9525554,74.9330827 C92.3949469,75.1664856 92.446993,75.2053861 92.446993,75.6851585 L92.446993,80.2624474 C92.446993,80.7681536 92.4079585,80.8329877 91.9655669,80.9367223 L91.6012445,81.02749 L91.6012445,81.1571583 L94.8020774,81.1571583 Z M99.1349122,81.2868265 C99.9156032,81.2868265 100.514133,80.9107886 100.813398,80.6384853 L100.813398,80.4958503 C100.566179,80.5736512 100.240891,80.6773858 99.8505456,80.6773858 C99.2520159,80.6773858 98.978774,80.4569498 98.978774,79.8215754 L98.978774,74.9979169 L100.670271,74.9979169 L100.722317,74.544078 L98.978774,74.544078 L98.978774,72.9880591 L98.7705898,72.9880591 C98.4062673,73.8698032 97.7556915,74.544078 96.8709084,74.8812155 L96.8709084,74.9979169 L97.6255764,74.9979169 L97.6255764,79.8734427 C97.6255764,80.8459545 98.1980831,81.2868265 99.1349122,81.2868265 Z M103.285586,81.325727 C104.118323,81.325727 104.755887,80.9367223 105.12021,80.4958503 L105.159244,80.4958503 C105.237313,81.0404569 105.588624,81.3127602 106.265223,81.3127602 C106.759661,81.3127602 107.189041,81.1312246 107.384213,81.0015564 L107.384213,80.8978218 C107.136995,80.884855 106.889776,80.8589213 106.707615,80.7292531 C106.538465,80.6255185 106.447384,80.4569498 106.447384,80.0549782 L106.447384,76.0352628 C106.447384,74.9071491 105.757774,74.323642 104.196392,74.323642 C103.025356,74.323642 101.763238,74.6607794 101.763238,75.4776894 C101.763238,75.8537273 101.997446,76.0871301 102.426826,76.0871301 C102.89524,76.0871301 103.103425,75.8666941 103.168482,75.1924192 C103.246551,74.764514 103.376666,74.5959453 103.962185,74.5959453 C105.016117,74.5959453 105.094187,75.1535188 105.094187,76.1130637 L105.094187,77.5264476 L103.376666,77.9543527 C102.387791,78.2136892 101.385904,78.5378598 101.385904,79.7308076 C101.385904,80.7292531 102.114549,81.325727 103.285586,81.325727 Z M103.871104,80.7292531 C103.155471,80.7292531 102.765125,80.2754142 102.765125,79.4974048 C102.765125,78.5378598 103.298597,78.2136892 104.339519,78.0321537 L105.094187,77.9024855 L105.094187,80.1976133 C104.886002,80.4958503 104.469634,80.7292531 103.871104,80.7292531 Z M108.958607,73.4159643 C109.400998,73.4159643 109.752309,73.1047606 109.752309,72.6509217 C109.752309,72.2100497 109.400998,71.8858791 108.958607,71.8858791 C108.503204,71.8858791 108.164904,72.2100497 108.164904,72.6509217 C108.164904,73.1047606 108.503204,73.4159643 108.958607,73.4159643 Z M110.546012,81.1571583 L110.546012,81.02749 L110.207712,80.9367223 C109.752309,80.8329877 109.687252,80.7811204 109.687252,80.2754142 L109.687252,75.8926277 C109.687252,75.062751 109.726286,74.6089121 109.739298,74.3884761 L109.67424,74.3625425 L107.488305,74.6478126 L107.488305,74.7515472 L107.826605,74.9460496 C108.268996,75.1664856 108.334054,75.2053861 108.334054,75.6851585 L108.334054,80.2754142 C108.334054,80.7811204 108.295019,80.8329877 107.852628,80.9367223 L107.488305,81.02749 L107.488305,81.1571583 L110.546012,81.1571583 Z M113.837925,81.1571583 L113.837925,81.02749 L113.460591,80.9496891 C113.044223,80.8459545 112.979165,80.807054 112.979165,80.2754142 L112.979165,75.4258221 C113.356499,75.2961538 113.942017,75.0757178 114.73572,75.0757178 C115.490388,75.0757178 115.750618,75.3869216 115.750618,76.2945993 L115.750618,80.2754142 C115.750618,80.807054 115.698572,80.8459545 115.282204,80.9496891 L114.917881,81.02749 L114.917881,81.1571583 L117.962576,81.1571583 L117.962576,81.02749 L117.598253,80.9367223 C117.155862,80.8329877 117.116827,80.7811204 117.116827,80.2754142 L117.116827,76.0611964 C117.116827,74.8941823 116.635401,74.323642 115.399307,74.323642 C114.553559,74.323642 113.61673,74.7904477 112.979165,75.2053861 L112.966154,75.2053861 L112.979165,74.3884761 L112.901096,74.3625425 L110.806242,74.6478126 L110.806242,74.7515472 L111.13153,74.9330827 C111.547898,75.1535188 111.625968,75.1794524 111.625968,75.6721917 L111.625968,80.2754142 C111.625968,80.7811204 111.586933,80.8329877 111.144541,80.9367223 L110.780219,81.02749 L110.780219,81.1571583 L113.837925,81.1571583 Z M121.163409,81.1571583 L121.163409,81.02749 L120.799086,80.9496891 C120.399373,80.8376557 120.335418,80.7973237 120.330942,80.3239156 L120.330672,75.4258221 C120.721017,75.2702202 121.423639,75.0757178 121.996146,75.0757178 C122.698768,75.0757178 122.906952,75.4258221 122.906952,76.2816324 L122.906952,80.2624474 C122.906952,80.807054 122.841894,80.8329877 122.438537,80.9496891 L122.087226,81.02749 L122.087226,81.1571583 L125.053852,81.1571583 L125.053852,81.02749 L124.702541,80.9496891 C124.315991,80.8254237 124.264035,80.7607021 124.260376,80.3218468 L124.26015,76.1000969 C124.26015,75.8277936 124.247138,75.581424 124.221115,75.4517557 C124.585438,75.2961538 125.301071,75.0757178 125.912612,75.0757178 C126.628246,75.0757178 126.823418,75.4387889 126.823418,76.2816324 L126.823418,80.2624474 C126.823418,80.8200209 126.758361,80.8329877 126.368015,80.9496891 L126.016704,81.02749 L126.016704,81.1571583 L129.035376,81.1571583 L129.035376,81.02749 L128.671054,80.9367223 C128.220655,80.8120413 128.191302,80.7712802 128.18971,80.3187582 L128.189627,76.0741633 C128.189627,74.9071491 127.708201,74.323642 126.615234,74.323642 C125.769485,74.323642 124.897714,74.7904477 124.195092,75.2313197 L124.156057,75.2313197 C123.960885,74.6737463 123.609574,74.323642 122.724791,74.323642 C121.931088,74.323642 120.968236,74.764514 120.330672,75.2053861 L120.31766,75.2053861 L120.330672,74.3884761 L120.252603,74.3625425 L118.157749,74.6478126 L118.157749,74.7515472 L118.483037,74.9330827 C118.925428,75.1664856 118.977474,75.2053861 118.977474,75.6981254 L118.977474,80.2624474 C118.977474,80.7681536 118.93844,80.8200209 118.496048,80.9367223 L118.131726,81.02749 L118.131726,81.1571583 L121.163409,81.1571583 Z M132.58752,81.3127602 C133.667476,81.3127602 134.513224,80.807054 134.981639,80.2883811 L134.981639,80.1198124 C134.487201,80.4050825 133.849637,80.586618 133.068946,80.586618 C131.598645,80.586618 130.752896,79.704874 130.752896,77.5005139 L130.752896,77.3967793 L135.150789,77.3967793 C135.1638,75.2442865 134.161913,74.323642 132.509451,74.323642 C130.791931,74.323642 129.347652,75.7499927 129.347652,77.8895186 C129.347652,79.9901441 130.349539,81.3127602 132.58752,81.3127602 Z M130.752896,77.1504097 C130.830965,75.3609879 131.507564,74.5959453 132.457405,74.5959453 C133.407245,74.5959453 133.758556,75.3350543 133.758556,77.0337082 L130.752896,77.1504097 Z M138.59884,81.1571583 L138.59884,81.02749 L138.221506,80.9496891 C137.805138,80.8459545 137.74008,80.807054 137.74008,80.2754142 L137.74008,75.4258221 C138.117414,75.2961538 138.702932,75.0757178 139.496635,75.0757178 C140.251303,75.0757178 140.511533,75.3869216 140.511533,76.2945993 L140.511533,80.2754142 C140.511533,80.807054 140.459487,80.8459545 140.043119,80.9496891 L139.678796,81.02749 L139.678796,81.1571583 L142.723491,81.1571583 L142.723491,81.02749 L142.359168,80.9367223 C141.934472,80.8371371 141.88151,80.7853528 141.877953,80.3339529 L141.877742,76.0611964 C141.877742,74.8941823 141.396316,74.323642 140.160222,74.323642 C139.314474,74.323642 138.377644,74.7904477 137.74008,75.2053861 L137.727069,75.2053861 L137.74008,74.3884761 L137.662011,74.3625425 L135.567157,74.6478126 L135.567157,74.7515472 L135.892445,74.9330827 C136.308813,75.1535188 136.386883,75.1794524 136.386883,75.6721917 L136.386883,80.2754142 C136.386883,80.7811204 136.347848,80.8329877 135.905456,80.9367223 L135.541134,81.02749 L135.541134,81.1571583 L138.59884,81.1571583 Z M145.078575,81.2868265 C145.859266,81.2868265 146.457796,80.9107886 146.757061,80.6384853 L146.757061,80.4958503 C146.509842,80.5736512 146.184554,80.6773858 145.794209,80.6773858 C145.195679,80.6773858 144.922437,80.4569498 144.922437,79.8215754 L144.922437,74.9979169 L146.613934,74.9979169 L146.66598,74.544078 L144.922437,74.544078 L144.922437,72.9880591 L144.714253,72.9880591 C144.34993,73.8698032 143.699355,74.544078 142.814571,74.8812155 L142.814571,74.9979169 L143.569239,74.9979169 L143.569239,79.8734427 C143.569239,80.8459545 144.141746,81.2868265 145.078575,81.2868265 Z M153.379922,81.1571583 C155.995237,81.1571583 157.816849,79.6011394 157.816849,76.5669026 C157.816849,73.2862961 155.917168,72.1711492 153.471003,72.1711492 L149.489479,72.1711492 L149.489479,72.3137843 L149.970905,72.4045521 C150.43932,72.4953198 150.491366,72.5471871 150.491366,73.2084952 L150.491366,80.1198124 C150.491366,80.7811204 150.43932,80.8329877 149.970905,80.9237554 L149.489479,81.0145232 L149.489479,81.1571583 L153.379922,81.1571583 Z M153.288842,80.8718882 C152.130817,80.8718882 151.98769,80.7033194 151.98769,79.8864095 L151.98769,72.5731208 C152.286955,72.4953198 152.716335,72.4693862 153.262819,72.4693862 C155.409719,72.4693862 156.242456,73.7790354 156.242456,76.8262391 C156.242456,79.1991679 155.578869,80.8718882 153.288842,80.8718882 Z M159.742554,73.4159643 C160.184945,73.4159643 160.536256,73.1047606 160.536256,72.6509217 C160.536256,72.2100497 160.184945,71.8858791 159.742554,71.8858791 C159.287151,71.8858791 158.948851,72.2100497 158.948851,72.6509217 C158.948851,73.1047606 159.287151,73.4159643 159.742554,73.4159643 Z M161.329959,81.1571583 L161.329959,81.02749 L160.991659,80.9367223 C160.536256,80.8329877 160.471199,80.7811204 160.471199,80.2754142 L160.471199,75.8926277 C160.471199,75.062751 160.510233,74.6089121 160.523245,74.3884761 L160.458187,74.3625425 L158.272252,74.6478126 L158.272252,74.7515472 L158.610552,74.9460496 C159.052943,75.1664856 159.118001,75.2053861 159.118001,75.6851585 L159.118001,80.2754142 C159.118001,80.7811204 159.078966,80.8329877 158.636575,80.9367223 L158.272252,81.02749 L158.272252,81.1571583 L161.329959,81.1571583 Z M164.023343,81.2868265 C165.623759,81.2868265 166.508542,80.3532152 166.508542,79.186201 C166.508542,78.084021 165.740863,77.5912817 164.556815,77.1115092 C163.476859,76.683604 162.995433,76.3594334 162.995433,75.6981254 C162.995433,75.0757178 163.450836,74.5959453 164.25755,74.5959453 C164.85608,74.5959453 165.142333,74.8034145 165.428586,75.2313197 C165.597736,75.4906562 165.779897,75.8277936 166.001093,76.2556988 L166.14422,76.2556988 L166.105185,74.621879 C165.662794,74.4533103 165.077275,74.323642 164.400676,74.323642 C162.96941,74.323642 162.032581,75.1275851 162.032581,76.2816324 C162.032581,77.344912 162.683156,77.8895186 163.867204,78.3563243 C164.986195,78.7971963 165.402563,79.1213669 165.402563,79.8215754 C165.402563,80.5477176 164.921137,81.02749 164.140446,81.02749 C163.385778,81.02749 162.995433,80.7811204 162.657133,80.1587128 C162.474972,79.8604759 162.318834,79.5233385 162.11065,79.0954333 L161.967523,79.0954333 L162.006558,80.9885896 C162.527018,81.1571583 163.190605,81.2868265 164.023343,81.2868265 Z M169.110845,81.2868265 C169.891536,81.2868265 170.490066,80.9107886 170.789331,80.6384853 L170.789331,80.4958503 C170.542112,80.5736512 170.216824,80.6773858 169.826479,80.6773858 C169.227949,80.6773858 168.954707,80.4569498 168.954707,79.8215754 L168.954707,74.9979169 L170.646204,74.9979169 L170.69825,74.544078 L168.954707,74.544078 L168.954707,72.9880591 L168.746523,72.9880591 C168.3822,73.8698032 167.731625,74.544078 166.846841,74.8812155 L166.846841,74.9979169 L167.601509,74.9979169 L167.601509,79.8734427 C167.601509,80.8459545 168.174016,81.2868265 169.110845,81.2868265 Z M174.185337,81.1571583 L174.185337,81.02749 L173.625841,80.9237554 C173.235496,80.8459545 173.18345,80.7162863 173.18345,80.2624474 L173.18345,75.6073576 C173.547772,75.3350543 173.990164,75.0757178 174.21136,75.0757178 C174.380509,75.0757178 174.419544,75.1405519 174.510624,75.3609879 C174.64074,75.6203244 174.796878,75.8407604 175.187223,75.8407604 C175.59058,75.8407604 175.876834,75.5684571 175.876834,75.1146183 C175.876834,74.621879 175.577569,74.323642 175.044097,74.323642 C174.380509,74.323642 173.70391,74.8812155 173.196461,75.3480211 L173.170438,75.3480211 L173.18345,74.4144098 L173.105381,74.3625425 L171.010527,74.6478126 L171.010527,74.7515472 L171.335815,74.9330827 C171.778206,75.1664856 171.830252,75.2053861 171.830252,75.6851585 L171.830252,80.2624474 C171.830252,80.7681536 171.791218,80.8329877 171.348826,80.9367223 L170.984504,81.02749 L170.984504,81.1571583 L174.185337,81.1571583 Z M177.542308,73.4159643 C177.984699,73.4159643 178.33601,73.1047606 178.33601,72.6509217 C178.33601,72.2100497 177.984699,71.8858791 177.542308,71.8858791 C177.086905,71.8858791 176.748605,72.2100497 176.748605,72.6509217 C176.748605,73.1047606 177.086905,73.4159643 177.542308,73.4159643 Z M179.129713,81.1571583 L179.129713,81.02749 L178.791413,80.9367223 C178.33601,80.8329877 178.270953,80.7811204 178.270953,80.2754142 L178.270953,75.8926277 C178.270953,75.062751 178.309987,74.6089121 178.322999,74.3884761 L178.257941,74.3625425 L176.072006,74.6478126 L176.072006,74.7515472 L176.410306,74.9460496 C176.852697,75.1664856 176.917755,75.2053861 176.917755,75.6851585 L176.917755,80.2754142 C176.917755,80.7811204 176.87872,80.8329877 176.436329,80.9367223 L176.072006,81.02749 L176.072006,81.1571583 L179.129713,81.1571583 Z M182.499695,81.3127602 C183.592663,81.3127602 184.477446,80.7811204 184.841768,80.3272815 L184.841768,80.1716797 C184.347331,80.4569498 183.748801,80.6125517 183.163283,80.6125517 C181.666958,80.6125517 180.925302,79.5752057 180.925302,77.565348 C180.925302,75.581424 181.797073,74.6348458 182.746914,74.6348458 C183.293398,74.6348458 183.345444,74.8163813 183.449536,75.3480211 C183.540617,75.9055946 183.696755,76.1389974 184.165169,76.1389974 C184.646595,76.1389974 184.880803,75.8926277 184.880803,75.4776894 C184.880803,74.7774809 184.217215,74.323642 182.96811,74.323642 C181.458774,74.323642 179.520058,75.4647225 179.520058,78.0451205 C179.520058,80.1068455 180.665071,81.3127602 182.499695,81.3127602 Z M187.808394,81.2868265 C188.589085,81.2868265 189.187614,80.9107886 189.486879,80.6384853 L189.486879,80.4958503 C189.239661,80.5736512 188.914373,80.6773858 188.524027,80.6773858 C187.925497,80.6773858 187.652256,80.4569498 187.652256,79.8215754 L187.652256,74.9979169 L189.343753,74.9979169 L189.395799,74.544078 L187.652256,74.544078 L187.652256,72.9880591 L187.444071,72.9880591 C187.079749,73.8698032 186.429173,74.544078 185.54439,74.8812155 L185.54439,74.9979169 L186.299058,74.9979169 L186.299058,79.8734427 C186.299058,80.8459545 186.871565,81.2868265 187.808394,81.2868265 Z" id="LeisureandEntertainmentDistrict" fill="#1D1D1B" fill-rule="nonzero" mask="url(#mask-4)"></path>
            </g>
        </g>
    </g>
</svg>