<?xml version="1.0" standalone="no"?>
<!DOCTYPE svg PUBLIC "-//W3C//DTD SVG 1.1//EN" "http://www.w3.org/Graphics/SVG/1.1/DTD/svg11.dtd" >
<svg xmlns="http://www.w3.org/2000/svg" xmlns:xlink="http://www.w3.org/1999/xlink" version="1.1">
<metadata>
Created by FontForge 20190801 at Tue Mar 17 15:21:06 2009
 By www-data
Copyright (c) 2004-9 by Kris Sowersby. All rights reserved.
</metadata>
<defs>
<font id="NationalBlack" horiz-adv-x="500" >
  <font-face 
    font-family="NationalBlack"
    font-weight="920"
    font-stretch="normal"
    units-per-em="1000"
    panose-1="0 0 0 0 0 0 0 0 0 0"
    ascent="800"
    descent="-200"
    x-height="462"
    cap-height="589"
    bbox="-145 -268 1332 1003"
    underline-thickness="50"
    underline-position="-50"
    unicode-range="U+0020-F778"
  />
<missing-glyph horiz-adv-x="755" 
d="M83 0v589h589v-589h-589zM377 264l-221 -221h443zM156 546l221 -222l222 222h-443zM407 294l222 -221v443zM347 294l-221 222v-443z" />
    <glyph glyph-name="f_b" unicode="fb" horiz-adv-x="899" 
d="M558 240v-30q0 -36 14.5 -56t39.5 -20q34 0 47.5 24.5t13.5 74.5q0 85 -57 85q-27 0 -42.5 -20.5t-15.5 -57.5zM356 0v508q-23 18 -49 18q-43 0 -43 -45v-19h58v-148h-60v-314h-202v314h-55v148h57v6q0 102 56 155.5t154 53.5q79 0 128 -26l158 17v-291q14 45 50.5 71
t87.5 26q88 0 136.5 -62t48.5 -170q0 -124 -52.5 -189t-147.5 -65q-104 0 -134 83l-44 -71h-147z" />
    <glyph glyph-name="f_f_b" unicode="ffb" horiz-adv-x="1195" 
d="M854 240v-30q0 -36 14.5 -56t39.5 -20q34 0 47.5 24.5t13.5 74.5q0 85 -57 85q-27 0 -42.5 -20.5t-15.5 -57.5zM652 0v508q-23 18 -49 18q-43 0 -43 -45v-19h58v-148h-60v-314h-202v314h-94v-314h-202v314h-55v148h57v6q0 99 50 148.5t130 49.5q62 0 114 -28l-39 -144
q-16 11 -29 11q-24 0 -24 -35v-8h94v6q0 102 56 155.5t154 53.5q79 0 128 -26l158 17v-291q14 45 50.5 71t87.5 26q88 0 136.5 -62t48.5 -170q0 -124 -52.5 -189t-147.5 -65q-104 0 -134 83l-44 -71h-147z" />
    <glyph glyph-name="f_f_h" unicode="ffh" horiz-adv-x="1178" 
d="M652 0v508q-23 18 -49 18q-43 0 -43 -45v-19h58v-148h-60v-314h-202v314h-94v-314h-202v314h-55v148h57v6q0 99 50 148.5t130 49.5q62 0 114 -28l-39 -144q-16 11 -29 11q-24 0 -24 -35v-8h94v6q0 102 56 155.5t154 53.5q79 0 128 -26l158 17v-295q17 51 55.5 76t89.5 25
q61 0 100 -37.5t39 -113.5v-323h-202v249q0 30 -8 44t-29 14q-45 0 -45 -71v-236h-202z" />
    <glyph glyph-name="f_f_j" unicode="ffj" horiz-adv-x="897" 
d="M652 314h-94v-314h-202v314h-94v-314h-202v314h-55v148h57v6q0 99 50 148.5t130 49.5q62 0 114 -28l-39 -144q-16 11 -29 11q-24 0 -24 -35v-8h94v6q0 101 59.5 155t159.5 54q109 0 182 -48l-68 -132q-34 23 -74 23q-57 0 -57 -50v-8h294v-450q0 -119 -60.5 -168
t-174.5 -49q-59 0 -85 12v165q32 -15 63 -15q30 0 42.5 13t12.5 50v294z" />
    <glyph glyph-name="f_f_k" unicode="ffk" horiz-adv-x="1183" 
d="M652 0v508q-23 18 -49 18q-43 0 -43 -45v-19h58v-148h-60v-314h-202v314h-94v-314h-202v314h-55v148h57v6q0 99 50 148.5t130 49.5q62 0 114 -28l-39 -144q-16 11 -29 11q-24 0 -24 -35v-8h94v6q0 102 56 155.5t154 53.5q79 0 128 -26l158 17v-349h23l61 143h226
l-109 -214l128 -248h-226l-80 171h-23v-171h-202z" />
    <glyph glyph-name="f_h" unicode="fh" horiz-adv-x="882" 
d="M356 0v508q-23 18 -49 18q-43 0 -43 -45v-19h58v-148h-60v-314h-202v314h-55v148h57v6q0 102 56 155.5t154 53.5q79 0 128 -26l158 17v-295q17 51 55.5 76t89.5 25q61 0 100 -37.5t39 -113.5v-323h-202v249q0 30 -8 44t-29 14q-45 0 -45 -71v-236h-202z" />
    <glyph glyph-name="f_j" unicode="fj" horiz-adv-x="601" 
d="M356 314h-94v-314h-202v314h-55v148h57v6q0 101 59.5 155t159.5 54q109 0 182 -48l-68 -132q-34 23 -74 23q-57 0 -57 -50v-8h294v-450q0 -119 -60.5 -168t-174.5 -49q-59 0 -85 12v165q32 -15 63 -15q30 0 42.5 13t12.5 50v294z" />
    <glyph glyph-name="f_k" unicode="fk" horiz-adv-x="887" 
d="M356 0v508q-23 18 -49 18q-43 0 -43 -45v-19h58v-148h-60v-314h-202v314h-55v148h57v6q0 102 56 155.5t154 53.5q79 0 128 -26l158 17v-349h23l61 143h226l-109 -214l128 -248h-226l-80 171h-23v-171h-202z" />
    <glyph glyph-name="ff" unicode="ff" horiz-adv-x="666" 
d="M356 314h-94v-314h-202v314h-55v148h57v6q0 99 50 148.5t130 49.5q62 0 114 -28l-39 -144q-16 11 -29 11q-24 0 -24 -35v-8h95v6q0 96 53.5 152.5t151.5 56.5q90 0 151 -42l-49 -136q-26 23 -63 23q-43 0 -43 -44v-16h101v-148h-103v-314h-202v314z" />
    <glyph glyph-name="ffi" unicode="ffi" horiz-adv-x="897" 
d="M62 462v6q0 99 50 148.5t130 49.5q62 0 114 -28l-39 -144q-16 11 -29 11q-24 0 -24 -35v-8h94v6q0 101 59.5 155t159.5 54q109 0 182 -48l-68 -132q-34 23 -74 23q-57 0 -57 -50v-8h294v-462h-202v314h-94v-314h-202v314h-94v-314h-202v314h-55v148h57z" />
    <glyph glyph-name="ffl" unicode="ffl" horiz-adv-x="928" 
d="M62 462v6q0 99 50 148.5t130 49.5q62 0 114 -28l-39 -144q-16 11 -29 11q-24 0 -24 -35v-8h94v6q0 102 56 155.5t154 53.5q79 0 128 -26l158 17v-470q0 -31 27 -31q18 0 37 10l-7 -163q-36 -26 -110 -26q-59 0 -104 35t-45 111v374q-23 18 -49 18q-43 0 -43 -45v-19h58
v-148h-60v-314h-202v314h-94v-314h-202v314h-55v148h57z" />
    <glyph glyph-name="fi" unicode="fi" horiz-adv-x="601" 
d="M60 314h-55v148h57v6q0 101 59.5 155t159.5 54q109 0 182 -48l-68 -132q-34 23 -74 23q-57 0 -57 -50v-8h294v-462h-202v314h-94v-314h-202v314z" />
    <glyph glyph-name="fl" unicode="fl" horiz-adv-x="632" 
d="M622 177l-7 -163q-36 -26 -110 -26q-59 0 -104 35t-45 111v374q-23 18 -49 18q-43 0 -43 -45v-19h58v-148h-60v-314h-202v314h-55v148h57v6q0 102 56 155.5t154 53.5q79 0 128 -26l158 17v-470q0 -31 27 -31q18 0 37 10z" />
    <glyph glyph-name=".notdef" horiz-adv-x="755" 
d="M83 0v589h589v-589h-589zM377 264l-221 -221h443zM156 546l221 -222l222 222h-443zM407 294l222 -221v443zM347 294l-221 222v-443z" />
    <glyph glyph-name=".null" horiz-adv-x="0" 
 />
    <glyph glyph-name="nonmarkingreturn" horiz-adv-x="333" 
 />
    <glyph glyph-name="space" unicode=" " horiz-adv-x="170" 
 />
    <glyph glyph-name="exclam" unicode="!" horiz-adv-x="316" 
d="M30 589h256l-52 -380h-152zM53 81q0 45 30 71t76 26q48 0 78 -26t30 -71q0 -43 -30.5 -68t-77.5 -25q-46 0 -76 25.5t-30 67.5z" />
    <glyph glyph-name="quotedbl" unicode="&#x22;" horiz-adv-x="520" 
d="M79 412v256h183l-65 -256h-118zM298 412v256h183l-65 -256h-118z" />
    <glyph glyph-name="numbersign" unicode="#" horiz-adv-x="671" 
d="M55 284v120h138l24 77h141l-24 -77h86l24 77h141l-24 -77h65v-120h-103l-22 -70h105v-120h-143l-29 -94h-141l29 94h-86l-29 -94h-141l29 94h-60v120h98l22 70h-100zM296 284l-22 -70h86l22 70h-86z" />
    <glyph glyph-name="dollar" unicode="$" horiz-adv-x="510" 
d="M211 -94v83q-167 10 -191 120l182 40q2 -36 36 -36q33 0 33 23q0 22 -33 26l-49 4q-161 14 -161 155q0 79 50 120.5t133 49.5v84h84v-84q153 -16 177 -138l-182 -18q0 35 -35 35q-31 0 -31 -22q0 -21 31 -24l52 -5q86 -6 127 -49t41 -112q0 -147 -180 -167v-85h-84z" />
    <glyph glyph-name="percent" unicode="%" horiz-adv-x="847" 
d="M207 0l324 588h110l-330 -588h-104zM187 330q35 0 35 83t-35 83t-35 -83t35 -83zM20 413q0 84 43.5 134t123.5 50t123.5 -50t43.5 -134t-43.5 -134t-123.5 -50t-123.5 50t-43.5 134zM660 94q35 0 35 83t-35 83t-35 -83t35 -83zM493 177q0 84 43.5 134t123.5 50t123.5 -50
t43.5 -134t-43.5 -134t-123.5 -50t-123.5 50t-43.5 134z" />
    <glyph glyph-name="ampersand" unicode="&#x26;" horiz-adv-x="647" 
d="M628 115l-125 -127l-67 58q-68 -58 -199 -58q-54 0 -100.5 13t-82.5 50.5t-36 94.5t37 96t95 47q-74 70 -74 147q0 76 59.5 120.5t168.5 44.5q89 0 147.5 -36t58.5 -105q0 -54 -38 -89t-89 -40l63 -55q13 19 19 60l145 -45q-13 -67 -54 -114zM197 190q0 -28 19.5 -44
t51.5 -16q31 0 52 14l-106 93q-17 -22 -17 -47zM317 477q-34 0 -34 -31q0 -24 23 -44l21 -19q24 22 24 59q0 35 -34 35z" />
    <glyph glyph-name="quotesingle" unicode="'" horiz-adv-x="301" 
d="M79 412v256h183l-65 -256h-118z" />
    <glyph glyph-name="parenleft" unicode="(" horiz-adv-x="407" 
d="M246 233q0 -70 12 -131t40 -120.5t46 -90t58 -93.5h-197q-29 41 -48.5 74t-45 88.5t-38.5 124.5t-13 148t13 148t38.5 124.5t45 88.5t48.5 74h197q-40 -63 -58 -93.5t-46 -90t-40 -120.5t-12 -131z" />
    <glyph glyph-name="parenright" unicode=")" horiz-adv-x="407" 
d="M161 233q0 70 -12 131t-40 120.5t-46 90t-58 93.5h197q29 -41 48.5 -74t45 -88.5t38.5 -124.5t13 -148t-13 -148t-38.5 -124.5t-45 -88.5t-48.5 -74h-197q40 63 58 93.5t46 90t40 120.5t12 131z" />
    <glyph glyph-name="asterisk" unicode="*" horiz-adv-x="450" 
d="M30 393l47 140l87 -41l-12 97h146l-12 -97l89 42l45 -139l-95 -19l68 -72l-120 -86l-46 85l-48 -86l-119 87l67 71z" />
    <glyph glyph-name="plus" unicode="+" horiz-adv-x="498" 
d="M45 302h148v143h108v-143h152v-108h-152v-157h-108v157h-148v108z" />
    <glyph glyph-name="comma" unicode="," horiz-adv-x="296" 
d="M261 80q0 -99 -54 -148.5t-154 -49.5v80q85 8 85 53q-43 -3 -73 20.5t-30 75.5q0 49 31.5 77t76.5 28q56 0 87 -39.5t31 -96.5z" />
    <glyph glyph-name="hyphen" unicode="-" horiz-adv-x="376" 
d="M50 177v170h276v-170h-276z" />
    <glyph glyph-name="period" unicode="." horiz-adv-x="294" 
d="M35 104q0 47 31.5 79.5t80.5 32.5t80.5 -32.5t31.5 -79.5t-31.5 -79.5t-80.5 -32.5t-80.5 32.5t-31.5 79.5z" />
    <glyph glyph-name="slash" unicode="/" horiz-adv-x="483" 
d="M0 -203l272 870h171l-274 -870h-169z" />
    <glyph glyph-name="zero" unicode="0" horiz-adv-x="556" 
d="M536 240q0 -108 -69.5 -180t-188.5 -72t-188.5 72t-69.5 180q0 109 69.5 181t188.5 72t188.5 -72t69.5 -181zM346 240q0 41 -17.5 64t-50.5 23t-50.5 -23t-17.5 -64q0 -40 17.5 -62.5t50.5 -22.5t50.5 22.5t17.5 62.5z" />
    <glyph glyph-name="one" unicode="1" horiz-adv-x="358" 
d="M315 0h-205v286l-95 -10v172l300 38v-486z" />
    <glyph glyph-name="two" unicode="2" horiz-adv-x="510" 
d="M480 162v-162h-445v141q115 28 174 67t59 76q0 16 -9.5 25t-24.5 9q-16 0 -26.5 -16t-11.5 -46l-175 62q11 82 70.5 128.5t159.5 46.5q104 0 159 -46.5t55 -124.5q0 -67 -38.5 -105t-101.5 -51v-4h155z" />
    <glyph glyph-name="three" unicode="3" horiz-adv-x="501" 
d="M15 326q11 81 77 124t162 43q99 0 156 -47t57 -130q0 -56 -28 -91t-77 -47v-5q109 -26 109 -139q0 -85 -66 -128.5t-177 -43.5q-188 0 -233 144l177 77q10 -72 58 -72q17 0 29 10t12 28q0 37 -28.5 50t-100.5 13v122q73 0 100 13.5t27 43.5q0 37 -37 37q-41 0 -41 -61z
" />
    <glyph glyph-name="four" unicode="4" horiz-adv-x="612" 
d="M312 -131v131h-297v146l302 328h192v-336h88v-138h-88v-131h-197zM239 138h73v60l4 72h-4q-5 -9 -40 -47l-39 -43q-13 -14 -23.5 -24.5t-15.5 -13.5l-4 -3v-4q20 3 49 3z" />
    <glyph glyph-name="five" unicode="5" horiz-adv-x="512" 
d="M54 111l16 370h390v-167h-227l-4 -76q30 23 90 23q81 0 129.5 -49t48.5 -128q0 -113 -73 -167t-191 -54q-97 0 -161 38.5t-82 111.5l188 69q8 -66 61 -66t53 58q0 26 -11.5 41t-31.5 15q-25 0 -36 -19h-159z" />
    <glyph glyph-name="six" unicode="6" horiz-adv-x="533" 
d="M500 515l-119 -117q-22 40 -78 40q-91 0 -91 -122h5q23 61 116 61q81 0 130.5 -49.5t49.5 -128.5q0 -102 -63.5 -156.5t-168.5 -54.5q-120 0 -190.5 76.5t-70.5 211.5q0 160 80.5 242.5t206.5 82.5q135 0 193 -86zM229 193q0 -23 14 -37t36 -14t36 14t14 37t-14 37
t-36 14t-36 -14t-14 -37z" />
    <glyph glyph-name="seven" unicode="7" horiz-adv-x="524" 
d="M297 319h-109v-65h-173v220h489v-155l-207 -450h-214z" />
    <glyph glyph-name="eight" unicode="8" horiz-adv-x="534" 
d="M267 -12q-122 0 -184.5 46t-62.5 123q0 54 30.5 93t81.5 50v4q-96 26 -96 127q0 74 61 122t170 48t170 -48t61 -122q0 -101 -96 -127v-4q51 -11 81.5 -50t30.5 -93q0 -77 -62.5 -123t-184.5 -46zM217 183q-1 -22 13 -36.5t37 -14.5q22 0 36 14t14 37t-14 37t-36 14
t-36 -14t-14 -37zM223 415q0 -20 12.5 -32.5t31.5 -12.5q20 0 32.5 12.5t12.5 32.5t-12.5 33t-32.5 13q-19 0 -31.5 -13t-12.5 -33z" />
    <glyph glyph-name="nine" unicode="9" horiz-adv-x="543" 
d="M20 -47l113 111q24 -44 91 -44q102 0 102 128h-5q-29 -59 -115 -59q-84 0 -134 52.5t-50 137.5q0 101 65 157.5t171 56.5q122 0 193.5 -79.5t71.5 -219.5q0 -164 -81 -248t-218 -84q-70 0 -124.5 24.5t-79.5 66.5zM311 282q0 23 -14 37.5t-37 14.5t-37 -14.5t-14 -37.5
t14 -38t37 -15q22 0 36.5 15t14.5 38z" />
    <glyph glyph-name="colon" unicode=":" horiz-adv-x="294" 
d="M35 104q0 47 31.5 79.5t80.5 32.5t80.5 -32.5t31.5 -79.5t-31.5 -79.5t-80.5 -32.5t-80.5 32.5t-31.5 79.5zM35 362q0 47 31.5 79.5t80.5 32.5t80.5 -32.5t31.5 -79.5t-31.5 -79.5t-80.5 -32.5t-80.5 32.5t-31.5 79.5z" />
    <glyph glyph-name="semicolon" unicode=";" horiz-adv-x="299" 
d="M264 80q0 -99 -54 -148.5t-154 -49.5v80q85 8 85 53q-43 -3 -73 20.5t-30 75.5q0 49 31.5 77t76.5 28q56 0 87 -39.5t31 -96.5zM35 362q0 47 31.5 79.5t80.5 32.5t80.5 -32.5t31.5 -79.5t-31.5 -79.5t-80.5 -32.5t-80.5 32.5t-31.5 79.5z" />
    <glyph glyph-name="less" unicode="&#x3c;" horiz-adv-x="421" 
d="M381 369l-148 -122l139 -120l-83 -97l-244 217l255 212z" />
    <glyph glyph-name="equal" unicode="=" horiz-adv-x="498" 
d="M453 104h-408v109h408v-109zM453 279h-408v109h408v-109z" />
    <glyph glyph-name="greater" unicode="&#x3e;" horiz-adv-x="421" 
d="M193 247l-148 122l81 90l255 -212l-244 -217l-83 97z" />
    <glyph glyph-name="question" unicode="?" horiz-adv-x="516" 
d="M142 81q0 45 30 71t76 26q48 0 78 -26t30 -71q0 -43 -30.5 -68t-77.5 -25q-46 0 -76 25.5t-30 67.5zM193 363l-183 49q12 91 76.5 140t166.5 49q109 0 176 -44t67 -142q0 -77 -44.5 -116t-114.5 -48v-42h-179v124h31q53 0 78.5 11.5t25.5 44.5q0 49 -49 49q-51 0 -51 -75
z" />
    <glyph glyph-name="at" unicode="@" horiz-adv-x="903" 
d="M490 173v54q0 47 -41 47t-41 -74q0 -73 42 -73q40 0 40 46zM702 79q72 0 72 175q0 136 -85.5 208t-220.5 72q-141 0 -239 -92t-98 -251q0 -153 93.5 -239t259.5 -86q94 0 201 34l17 -69q-100 -32 -219 -32q-215 1 -324 109t-109 284q0 180 118.5 293.5t299.5 113.5
t283 -95.5t102 -240.5q0 -275 -206 -275q-109 0 -136 91q-13 -49 -45.5 -70t-91.5 -21q-75 0 -120.5 55.5t-45.5 148.5q0 102 46 160.5t132 58.5t126 -74l35 65h131v-289q0 -34 24 -34z" />
    <glyph glyph-name="A" unicode="A" horiz-adv-x="668" 
d="M452 0l-26 80h-194l-24 -80h-204l193 589h273l194 -589h-212zM379 233l-21 81l-29 115h-4q-9 -51 -26 -115l-21 -81h101z" />
    <glyph glyph-name="B" unicode="B" horiz-adv-x="590" 
d="M447 304v-5q60 -9 91.5 -48.5t31.5 -94.5q0 -72 -53 -114t-157 -42h-310v589h310q88 0 135.5 -41.5t47.5 -113.5q0 -109 -96 -130zM248 352h50q46 0 46 39q0 45 -44 45h-52v-84zM248 237v-83h66q26 0 36.5 9.5t10.5 30.5q0 43 -47 43h-66z" />
    <glyph glyph-name="C" unicode="C" horiz-adv-x="594" 
d="M238 291q0 -132 85 -132q36 0 54.5 19.5t23.5 60.5l193 -92q-34 -81 -101 -120t-175 -39q-133 0 -213 80t-80 224q0 149 77.5 229t226.5 80q100 0 171 -44t93 -119l-196 -81q-9 72 -71 72q-88 0 -88 -138z" />
    <glyph glyph-name="D" unicode="D" horiz-adv-x="636" 
d="M255 169h27q66 0 90.5 24t24.5 104q0 66 -25 94.5t-82 28.5h-35v-251zM299 0h-249v589h267q138 0 216 -71t78 -221q0 -157 -80 -227t-232 -70z" />
    <glyph glyph-name="E" unicode="E" horiz-adv-x="531" 
d="M496 168v-168h-446v589h442v-168h-245v-53h218v-147h-218v-53h249z" />
    <glyph glyph-name="F" unicode="F" horiz-adv-x="495" 
d="M255 0h-205v589h425v-176h-220v-80h189v-167h-189v-166z" />
    <glyph glyph-name="G" unicode="G" horiz-adv-x="651" 
d="M333 331h276v-331h-137l-21 65q-39 -77 -162 -77q-117 0 -190.5 75.5t-73.5 228.5q0 149 77.5 229t226.5 80q100 0 171 -44t93 -119l-196 -81q-9 72 -71 72q-88 0 -88 -138q0 -71 21.5 -105t71.5 -34q35 0 53.5 13t18.5 33v5h-70v128z" />
    <glyph glyph-name="H" unicode="H" horiz-adv-x="652" 
d="M255 0h-205v589h205v-202h142v202h205v-589h-205v211h-142v-211z" />
    <glyph glyph-name="I" unicode="I" horiz-adv-x="305" 
d="M50 589h205v-589h-205v589z" />
    <glyph glyph-name="J" unicode="J" horiz-adv-x="527" 
d="M283 589h204v-391q0 -210 -245 -210q-207 0 -242 180l194 72q2 -84 49 -84q40 0 40 48v385z" />
    <glyph glyph-name="K" unicode="K" horiz-adv-x="634" 
d="M634 0h-238l-112 214h-29v-214h-205v589h205v-205h32l106 205h226l-157 -284z" />
    <glyph glyph-name="L" unicode="L" horiz-adv-x="485" 
d="M50 589h205v-413h205v-176h-410v589z" />
    <glyph glyph-name="M" unicode="M" horiz-adv-x="762" 
d="M436 107h-110l-34 72l-36 88h-4q3 -50 3 -104v-163h-205v589h223l61 -128q15 -31 26 -58t15 -39l4 -12h4q12 40 45 109l61 128h223v-589h-205v163l3 104h-4q-19 -53 -36 -88z" />
    <glyph glyph-name="N" unicode="N" horiz-adv-x="667" 
d="M230 589l118 -173l62 -96h4q-2 48 -2 104v165h205v-589h-170l-126 173l-64 95h-4q2 -46 2 -121v-147h-205v589h180z" />
    <glyph glyph-name="O" unicode="O" horiz-adv-x="644" 
d="M619 294q0 -148 -77.5 -227t-219.5 -79t-219.5 79t-77.5 227q0 149 77.5 228t219.5 79t219.5 -79t77.5 -228zM405 294q0 68 -19 102t-64 34t-64 -34t-19 -102q0 -67 19 -101t64 -34t64 34t19 101z" />
    <glyph glyph-name="P" unicode="P" horiz-adv-x="577" 
d="M255 417v-108h49q49 0 49 54t-49 54h-49zM255 0h-205v589h279q233 0 233 -224q0 -107 -63 -163.5t-170 -56.5h-74v-145z" />
    <glyph glyph-name="Q" unicode="Q" horiz-adv-x="644" 
d="M619 294q0 -125 -60 -200.5t-165 -92.5q23 -32 94 -32q34 0 60 8l-37 -175q-127 1 -192.5 49t-81.5 145q-102 21 -157 97.5t-55 200.5q0 149 77.5 228t219.5 79t219.5 -79t77.5 -228zM405 294q0 68 -19 102t-64 34t-64 -34t-19 -102q0 -67 19 -101t64 -34t64 34t19 101z
" />
    <glyph glyph-name="R" unicode="R" horiz-adv-x="607" 
d="M607 0h-225q-21 23 -33 73l-10 46q-5 26 -17 36t-34 10h-37v-165h-201v589h285q236 0 236 -190q0 -133 -119 -153v-4q39 -6 60.5 -26.5t32.5 -60.5l22 -78q15 -52 40 -77zM251 416v-96h60q50 0 50 49q0 47 -48 47h-62z" />
    <glyph glyph-name="S" unicode="S" horiz-adv-x="543" 
d="M5 128l186 67q18 -51 67 -51q41 0 41 27q0 23 -45 30q-127 20 -179.5 66.5t-52.5 129.5q0 56 20 96.5t55.5 63.5t79 33.5t95.5 10.5q209 0 243 -152l-197 -44q-7 42 -53 42q-35 0 -35 -25q0 -27 65 -35q223 -27 223 -206q0 -100 -73.5 -146.5t-193.5 -46.5
q-96 0 -161.5 34.5t-84.5 105.5z" />
    <glyph glyph-name="T" unicode="T" horiz-adv-x="537" 
d="M369 0h-205v413h-144v176h497v-176h-148v-413z" />
    <glyph glyph-name="U" unicode="U" horiz-adv-x="622" 
d="M311 -12q-271 0 -271 240v361h205v-340q0 -94 66 -94t66 94v340h205v-361q0 -240 -271 -240z" />
    <glyph glyph-name="V" unicode="V" horiz-adv-x="630" 
d="M219 589l64 -216q12 -43 21 -84t12 -61l3 -19h4q7 68 32 164l57 216h214l-194 -589h-233l-195 589h215z" />
    <glyph glyph-name="W" unicode="W" horiz-adv-x="898" 
d="M345 589h212l37 -215q7 -38 12 -80t6 -64l2 -23h4q6 81 22 168l39 214h214l-134 -589h-247l-38 162q-8 31 -15 71t-10 64l-3 24h-4q-9 -90 -23 -159l-33 -162h-247l-134 589h218l39 -214q7 -38 12.5 -80t7.5 -65l2 -23h4q5 80 20 167z" />
    <glyph glyph-name="X" unicode="X" horiz-adv-x="649" 
d="M327 167h-5q-9 -26 -46 -91l-44 -76h-227l171 295l-164 294h236l31 -61q15 -29 26 -55.5t15 -38.5l3 -13h6q8 42 41 107l31 61h236l-164 -294l171 -295h-227l-44 76q-16 29 -27.5 51.5t-15.5 30.5z" />
    <glyph glyph-name="Y" unicode="Y" horiz-adv-x="642" 
d="M324 386h4q11 42 49 116l45 87h216l-215 -396v-193h-204v193l-215 396h223l45 -87q17 -33 30 -62t18 -42z" />
    <glyph glyph-name="Z" unicode="Z" horiz-adv-x="566" 
d="M523 429l-168 -185q-19 -20 -36 -37t-25 -24l-8 -7v-4q26 4 83 4h165v-176h-499v163l158 179q18 21 35 38.5t24 24.5l8 7v4q-26 -3 -88 -3h-136v176h487v-160z" />
    <glyph glyph-name="bracketleft" unicode="[" horiz-adv-x="399" 
d="M258 521v-578h131v-146h-314v871h314v-147h-131z" />
    <glyph glyph-name="backslash" unicode="\" horiz-adv-x="483" 
d="M213 667l270 -870h-168l-275 870h173z" />
    <glyph glyph-name="bracketright" unicode="]" horiz-adv-x="399" 
d="M141 -57v578h-131v147h314v-871h-314v146h131z" />
    <glyph glyph-name="asciicircum" unicode="^" horiz-adv-x="572" 
d="M184 668h204l159 -347h-193l-39 98q-10 26 -17 47.5t-8 30.5l-2 9h-4q-4 -29 -27 -87l-39 -98h-193z" />
    <glyph glyph-name="underscore" unicode="_" horiz-adv-x="481" 
d="M50 -169v147h381v-147h-381z" />
    <glyph glyph-name="grave" unicode="`" 
d="M404 515h-170l-138 156h243z" />
    <glyph glyph-name="a" unicode="a" horiz-adv-x="533" 
d="M269 146v37q-6 1 -17 1q-48 0 -48 -38q0 -30 31 -30q34 0 34 30zM469 305v-130q0 -26 21 -26q13 0 28 9v-137q-40 -28 -102 -28q-99 0 -123 72q-19 -73 -128 -73q-72 0 -111 34.5t-39 96.5q0 67 49.5 103.5t135.5 36.5q37 0 69 -4v52q0 26 -21 26q-25 0 -25 -53l-184 27
q5 76 60 119.5t156 43.5q214 0 214 -169z" />
    <glyph glyph-name="b" unicode="b" horiz-adv-x="586" 
d="M245 240v-30q0 -36 14.5 -56t39.5 -20q34 0 47.5 24.5t13.5 74.5q0 85 -57 85q-27 0 -42.5 -20.5t-15.5 -57.5zM234 71l-44 -71h-147v668h202v-291q14 45 50.5 71t87.5 26q88 0 136.5 -62t48.5 -170q0 -124 -52.5 -189t-147.5 -65q-104 0 -134 83z" />
    <glyph glyph-name="c" unicode="c" horiz-adv-x="493" 
d="M318 195l170 -58q-16 -73 -74 -111t-144 -38q-116 0 -184 64.5t-68 177.5q0 114 67 179t179 65q97 0 153 -45t63 -124l-166 -41q-2 31 -11 47t-33 16q-49 0 -49 -97q0 -50 12.5 -72.5t39.5 -22.5q39 0 45 60z" />
    <glyph glyph-name="d" unicode="d" horiz-adv-x="586" 
d="M367 0l-26 80q-12 -44 -49 -68t-89 -24q-89 0 -137 63t-48 176q0 119 52 183t145 64q97 0 126 -71v265h202v-668h-176zM341 221v30q0 36 -14.5 56t-39.5 20q-34 0 -47.5 -24.5t-13.5 -74.5q0 -85 57 -85q27 0 42.5 20.5t15.5 57.5z" />
    <glyph glyph-name="e" unicode="e" horiz-adv-x="498" 
d="M263 137q44 0 57 47l157 -62q-24 -66 -83 -100t-134 -34q-110 0 -176 63t-66 172q0 120 65 185t183 65q106 0 160 -59t54 -157q0 -27 -7 -57h-260q0 -63 50 -63zM217 272h76q3 6 3 21q0 39 -35 39q-20 0 -31 -16.5t-13 -43.5z" />
    <glyph glyph-name="f" unicode="f" horiz-adv-x="370" 
d="M60 314h-55v148h57v6q0 103 53 156t153 53q90 0 151 -42l-49 -136q-26 23 -63 23q-43 0 -43 -44v-16h101v-148h-103v-314h-202v314z" />
    <glyph glyph-name="g" unicode="g" horiz-adv-x="518" 
d="M250 474q72 0 131 -23q17 25 19 77l138 -48q-3 -38 -30 -59.5t-61 -24.5q30 -39 30 -85q0 -79 -63 -117t-164 -38q-42 0 -60 6q-17 -3 -17 -18t21 -15h141q90 0 138 -44t48 -120q0 -65 -41.5 -106t-101 -55.5t-138.5 -14.5q-235 0 -235 104q0 71 94 82q-37 8 -59 35.5
t-22 67.5q0 42 26.5 70t71.5 34q-90 32 -90 129q0 80 60.5 121.5t163.5 41.5zM153 -73q0 -17 19.5 -24.5t67.5 -7.5q100 0 100 32q0 19 -41 19h-116q-30 0 -30 -19zM215 313q0 -50 35 -50t35 50t-35 50t-35 -50z" />
    <glyph glyph-name="h" unicode="h" horiz-adv-x="569" 
d="M245 668v-295q17 51 55.5 76t89.5 25q61 0 100 -37.5t39 -113.5v-323h-202v249q0 30 -8 44t-29 14q-45 0 -45 -71v-236h-202v668h202z" />
    <glyph glyph-name="i" unicode="i" horiz-adv-x="288" 
d="M43 462h202v-462h-202v462zM30 593q0 49 33 76t81 27t81 -27t33 -76t-33 -76t-81 -27t-81 27t-33 76z" />
    <glyph glyph-name="j" unicode="j" horiz-adv-x="288" 
d="M245 462v-450q0 -119 -60.5 -168t-174.5 -49q-59 0 -85 12v165q32 -15 63 -15q30 0 42.5 13t12.5 50v442h202zM30 593q0 49 33 76t81 27t81 -27t33 -76t-33 -76t-81 -27t-81 27t-33 76z" />
    <glyph glyph-name="k" unicode="k" horiz-adv-x="574" 
d="M446 248l128 -248h-226l-80 171h-23v-171h-202v668h202v-349h23l61 143h226z" />
    <glyph glyph-name="l" unicode="l" horiz-adv-x="309" 
d="M299 167l-7 -150q-36 -26 -110 -26q-62 0 -105.5 34.5t-43.5 111.5v531h202v-473q0 -38 27 -38q18 0 37 10z" />
    <glyph glyph-name="m" unicode="m" horiz-adv-x="819" 
d="M504 368q12 49 51 77.5t89 28.5q62 0 98.5 -37t36.5 -114v-323h-202v252q0 29 -6.5 42t-24.5 13q-34 0 -34 -71v-236h-202v252q0 29 -6.5 42t-24.5 13q-34 0 -34 -71v-236h-202v462h178l25 -87q24 99 131 99t127 -106z" />
    <glyph glyph-name="n" unicode="n" horiz-adv-x="569" 
d="M221 462l25 -89q14 50 53 75.5t91 25.5q61 0 100 -37.5t39 -113.5v-323h-202v249q0 30 -8 44t-29 14q-45 0 -45 -71v-236h-202v462h178z" />
    <glyph glyph-name="o" unicode="o" horiz-adv-x="544" 
d="M18 231q0 116 69 179.5t185 63.5t185 -63.5t69 -179.5t-69 -179.5t-185 -63.5t-185 63.5t-69 179.5zM323 231q0 50 -12 73t-39 23t-39 -23t-12 -73t12 -73t39 -23t39 23t12 73z" />
    <glyph glyph-name="p" unicode="p" horiz-adv-x="586" 
d="M245 237v-30q0 -36 14.5 -56t39.5 -20q34 0 47.5 24.5t13.5 74.5q0 85 -57 85q-27 0 -42.5 -20.5t-15.5 -57.5zM245 54v-257h-202v665h179l23 -85q14 45 50.5 71t87.5 26q88 0 136.5 -62t48.5 -170q0 -124 -52.5 -189t-147.5 -65q-44 0 -78 18t-45 48z" />
    <glyph glyph-name="q" unicode="q" horiz-adv-x="584" 
d="M355 391l28 71h158v-665h-200v283q-12 -44 -49 -68t-89 -24q-89 0 -137 63t-48 176q0 120 53 183.5t150 63.5q49 0 84 -22.5t50 -60.5zM341 221v30q0 36 -14.5 56t-39.5 20q-34 0 -47.5 -24.5t-13.5 -74.5q0 -85 57 -85q27 0 42.5 20.5t15.5 57.5z" />
    <glyph glyph-name="r" unicode="r" horiz-adv-x="432" 
d="M432 468l-27 -230q-36 26 -85 26q-32 0 -53.5 -19t-21.5 -61v-184h-202v462h178l20 -131q6 60 45 100t105 40q21 0 41 -3z" />
    <glyph glyph-name="s" unicode="s" horiz-adv-x="465" 
d="M7 104l175 39q2 -35 35 -35q32 0 32 22t-32 25l-47 4q-155 14 -155 149q0 86 60 126t157 40q184 0 210 -135l-175 -17q0 34 -34 34q-30 0 -30 -22q0 -20 30 -23l50 -4q83 -6 122.5 -47.5t39.5 -107.5q0 -164 -228 -164q-185 0 -210 116z" />
    <glyph glyph-name="t" unicode="t" horiz-adv-x="407" 
d="M362 190l33 -154q-57 -48 -162 -48q-87 0 -129.5 42.5t-42.5 135.5v148h-55v148h57v98l194 22v-120h111v-148h-112v-109q0 -46 39 -46q40 0 67 31z" />
    <glyph glyph-name="u" unicode="u" horiz-adv-x="563" 
d="M345 0l-25 84q-16 -96 -135 -96q-69 0 -108 39.5t-39 117.5v317h202v-274q0 -52 32 -52q25 0 35.5 20t10.5 66v240h202v-462h-175z" />
    <glyph glyph-name="v" unicode="v" horiz-adv-x="553" 
d="M168 0l-164 462h210l41 -156l25 -120h4q8 62 25 118l48 158h192l-164 -462h-217z" />
    <glyph glyph-name="w" unicode="w" horiz-adv-x="780" 
d="M302 462h176l28 -154q5 -26 8.5 -60t4.5 -55l1 -21h4q3 78 16 136l34 154h202l-123 -462h-226l-20 103l-18 130h-4q-8 -79 -18 -130l-20 -103h-220l-123 462h202l34 -154q6 -26 10 -60t6 -55l1 -21h4q2 78 13 136z" />
    <glyph glyph-name="x" unicode="x" horiz-adv-x="562" 
d="M282 145h-4q-8 -35 -33 -87l-28 -58h-213l115 235l-108 227h220l26 -70q8 -20 13.5 -40t7.5 -30l1 -10h4q5 34 22 80l26 70h220l-109 -227l116 -235h-213l-28 58q-11 23 -20 45t-12 32z" />
    <glyph glyph-name="y" unicode="y" horiz-adv-x="557" 
d="M165 -19l-161 481h215l43 -175q6 -24 10.5 -56t6.5 -53l2 -20h4q8 73 23 127l48 177h197l-151 -436q-76 -234 -265 -234q-76 0 -124 27l40 146q24 -21 58 -21q39 0 54 37z" />
    <glyph glyph-name="z" unicode="z" horiz-adv-x="485" 
d="M446 332l-114 -124l-58 -59v-4q15 4 54 4h127v-149h-425v128l104 118l63 67v4q-29 -3 -67 -3h-96v148h412v-130z" />
    <glyph glyph-name="braceleft" unicode="{" horiz-adv-x="443" 
d="M20 162v142h41q36 0 47.5 17t11.5 60v105q0 83 41 132.5t130 49.5q81 0 147 -47l-32 -126q-30 20 -61 20q-41 0 -41 -53v-93q0 -69 -38.5 -100.5t-95.5 -33.5v-4q57 -2 95.5 -33.5t38.5 -100.5v-93q0 -53 41 -53q31 0 61 20l32 -126q-66 -47 -147 -47q-89 0 -130 49.5
t-41 132.5v105q0 43 -11.5 60t-47.5 17h-41z" />
    <glyph glyph-name="bar" unicode="|" horiz-adv-x="359" 
d="M259 -203h-159v870h159v-870z" />
    <glyph glyph-name="braceright" unicode="}" horiz-adv-x="443" 
d="M423 304v-142h-41q-36 0 -47.5 -17t-11.5 -60v-105q0 -83 -41 -132.5t-130 -49.5q-81 0 -147 47l32 126q30 -20 61 -20q41 0 41 53v93q0 69 38.5 100.5t95.5 33.5v4q-57 2 -95.5 33.5t-38.5 100.5v93q0 53 -41 53q-31 0 -61 -20l-32 126q66 47 147 47q89 0 130 -49.5
t41 -132.5v-105q0 -43 11.5 -60t47.5 -17h41z" />
    <glyph glyph-name="asciitilde" unicode="~" horiz-adv-x="531" 
d="M269 223q-43 31 -62 31q-34 0 -34 -63h-116q-12 46 -12 81q0 63 36 101.5t96 38.5q43 0 85 -30q43 -31 62 -31q34 0 34 63h116q12 -46 12 -81q0 -63 -36 -101.5t-96 -38.5q-43 0 -85 30z" />
    <glyph glyph-name="nbspace" unicode="&#xa0;" horiz-adv-x="153" 
 />
    <glyph glyph-name="exclamdown" unicode="&#xa1;" horiz-adv-x="316" 
d="M286 -120h-256l52 380h152zM263 388q0 -45 -30 -71t-76 -26q-48 0 -78 26t-30 71q0 43 30.5 68t77.5 25q46 0 76 -25.5t30 -67.5z" />
    <glyph glyph-name="cent" unicode="&#xa2;" horiz-adv-x="538" 
d="M242 -94v84q-102 11 -160.5 76.5t-58.5 172.5q0 111 58.5 176t160.5 76v84h84v-85q163 -17 188 -157l-176 -58q0 63 -50 63q-32 0 -46 -24.5t-14 -74.5q0 -96 61 -96q20 0 36 15t17 45l176 -66q-18 -66 -68 -102.5t-124 -44.5v-84h-84z" />
    <glyph glyph-name="sterling" unicode="&#xa3;" horiz-adv-x="525" 
d="M50 195v67h53q-18 40 -18 81q0 68 52 109t144 41q74 0 122 -31t64 -89l-128 -81q-6 24 -16.5 35.5t-32.5 11.5q-17 0 -26 -10t-9 -25q0 -20 13 -42h91v-67h-80q-9 -37 -46 -49h127q51 0 65 38l100 -89q-34 -95 -145 -95h-330v146h30q25 0 34.5 10.5t9.5 30.5
q0 1 -0.5 3.5t-0.5 4.5h-73z" />
    <glyph glyph-name="currency" unicode="&#xa4;" horiz-adv-x="465" 
d="M87 483l47 -48q40 24 98 24t98 -24l48 48l47 -47l-48 -48q26 -40 26 -98q0 -57 -25 -99l47 -46l-47 -47l-46 46q-43 -26 -100 -26q-60 0 -100 25l-45 -45l-47 47l45 45q-25 42 -25 100q0 59 26 99l-46 47zM232 356q-17 0 -24 -15.5t-7 -50.5q0 -64 31 -64t31 64
q0 66 -31 66z" />
    <glyph glyph-name="yen" unicode="&#xa5;" horiz-adv-x="636" 
d="M60 236v59h69l-109 186h224l43 -80q10 -18 18 -38t11 -31l3 -11h4q10 39 32 80l43 80h218l-109 -186h69v-59h-104l-30 -52h134v-59h-157v-125h-202v125h-157v59h134l-31 52h-103z" />
    <glyph glyph-name="brokenbar" unicode="&#xa6;" horiz-adv-x="354" 
d="M254 278h-154v389h154v-389zM254 -201h-154v387h154v-387z" />
    <glyph glyph-name="section" unicode="&#xa7;" horiz-adv-x="508" 
d="M267 274l-64 16q-7 -8 -7 -19q0 -24 35 -33l63 -17q8 10 8 20q0 24 -35 33zM460 70q0 -81 -60.5 -120t-156.5 -39q-89 0 -143 34t-67 101l175 17q0 -34 34 -34q30 0 30 22q0 16 -30 23l-69 17q-71 18 -107 48.5t-36 84.5q0 78 69 107q-27 13 -44 44.5t-17 66.5
q0 81 60.5 120t156.5 39q184 0 210 -135l-175 -17q0 34 -34 34q-30 0 -30 -22q0 -16 30 -23l69 -17q71 -18 107 -48.5t36 -84.5q0 -78 -69 -107q27 -13 44 -44.5t17 -66.5z" />
    <glyph glyph-name="dieresis" unicode="&#xa8;" 
d="M40 590q0 46 29 71t71 25t71 -25t29 -71q0 -45 -29 -70t-71 -25t-71 25t-29 70zM260 590q0 46 29 71t71 25t71 -25t29 -71q0 -45 -29 -70t-71 -25t-71 25t-29 70z" />
    <glyph glyph-name="copyright" unicode="&#xa9;" horiz-adv-x="703" 
d="M45 294q0 132 89 219.5t217 87.5t217.5 -87.5t89.5 -219.5t-89.5 -219t-217.5 -87t-217 87t-89 219zM76 294q0 -121 81 -199t197 -78q115 0 194.5 78t79.5 199q0 120 -80 199t-194 79q-116 0 -197 -79t-81 -199zM360 372q-47 0 -47 -78q0 -75 48 -75q16 0 28 12t13 35
l138 -51q-16 -58 -64 -87.5t-118 -29.5q-95 0 -150 52t-55 144q0 95 54.5 147t147.5 52q160 0 182 -125l-138 -45q0 49 -39 49z" />
    <glyph glyph-name="ordfeminine" unicode="&#xaa;" horiz-adv-x="386" 
d="M187 379v35q-41 0 -41 -34q0 -21 21 -21q7 0 13.5 5t6.5 15zM332 489v-87q0 -17 14 -17q10 0 20 5v-89q-31 -18 -77 -18q-36 0 -56.5 9t-33.5 33q-18 -44 -83 -44q-49 0 -75 22t-26 62q0 30 14.5 49.5t41.5 28.5t53.5 12.5t62.5 3.5v27q0 21 -14 21q-21 0 -21 -32
l-122 18q4 50 43.5 79t112.5 29q68 0 107 -28.5t39 -83.5z" />
    <glyph glyph-name="guillemotleft" unicode="&#xab;" horiz-adv-x="621" 
d="M20 240l219 211l94 -95l-61 -63q-18 -19 -33 -31.5t-21 -15.5l-6 -4v-4q19 -9 60 -52l61 -62l-94 -95zM268 240l219 211l94 -95l-61 -63q-18 -19 -33 -31.5t-21 -15.5l-6 -4v-4q19 -9 60 -52l61 -62l-94 -95z" />
    <glyph glyph-name="logicalnot" unicode="&#xac;" horiz-adv-x="515" 
d="M345 206h-291v109h408v-198h-117v89z" />
    <glyph glyph-name="uni00AD" unicode="&#xad;" horiz-adv-x="324" 
d="M50 177v170h224v-170h-224z" />
    <glyph glyph-name="registered" unicode="&#xae;" horiz-adv-x="703" 
d="M45 294q0 132 89 219.5t217 87.5t217.5 -87.5t89.5 -219.5t-89.5 -219t-217.5 -87t-217 87t-89 219zM76 294q0 -121 81 -199t197 -78q115 0 194.5 78t79.5 199q0 120 -80 199t-194 79q-116 0 -197 -79t-81 -199zM563 121h-161q-14 10 -29 47l-13 32q-8 22 -26 22h-7v-101
h-152v361h203q77 0 115 -32t38 -89q0 -43 -22 -68t-56 -28v-4q25 -4 38 -14.5t23 -34.5l22 -50q11 -25 27 -41zM327 372v-58h26q31 0 31 29t-31 29h-26z" />
    <glyph glyph-name="macron" unicode="&#xaf;" 
d="M422 515h-345v141h345v-141z" />
    <glyph glyph-name="degree" unicode="&#xb0;" horiz-adv-x="329" 
d="M20 461q0 65 41 102.5t103 37.5t103.5 -37.5t41.5 -102.5t-41 -102t-104 -37q-62 0 -103 37t-41 102zM122 461q0 -21 12 -33.5t30 -12.5q19 0 31 12.5t12 33.5t-12 33.5t-31 12.5q-18 0 -30 -12.5t-12 -33.5z" />
    <glyph glyph-name="plusminus" unicode="&#xb1;" horiz-adv-x="498" 
d="M45 391h148v106h108v-106h152v-109h-152v-121h-108v121h-148v109zM453 -5h-408v109h408v-109z" />
    <glyph glyph-name="twosuperior" unicode="&#xb2;" horiz-adv-x="367" 
d="M337 345v-109h-306v92q167 62 167 126q0 30 -28 30q-32 0 -32 -51l-118 33q16 131 163 131q70 0 112 -34t42 -91q0 -53 -37 -85t-92 -38v-4h129z" />
    <glyph glyph-name="threesuperior" unicode="&#xb3;" horiz-adv-x="351" 
d="M136 462l-108 37q9 46 49.5 72t98.5 26q63 0 100.5 -28t37.5 -77q0 -66 -76 -77v-4q36 -3 58 -26t22 -60q0 -47 -41.5 -71.5t-104.5 -24.5q-61 0 -103.5 21.5t-55.5 60.5l113 51q6 -36 34 -36q23 0 23 21q0 31 -60 31v65q37 1 49 7.5t12 23.5q0 21 -22 21q-26 0 -26 -33z
" />
    <glyph glyph-name="acute" unicode="&#xb4;" 
d="M266 515h-170l65 156h243z" />
    <glyph glyph-name="mu" unicode="&#xb5;" horiz-adv-x="563" 
d="M345 0l-25 84q-5 -32 -28 -57.5t-52 -29.5v-200h-202v665h202v-274q0 -52 32 -52q25 0 35.5 20t10.5 66v240h202v-462h-175z" />
    <glyph glyph-name="paragraph" unicode="&#xb6;" horiz-adv-x="616" 
d="M497 422v-403q0 -95 -50.5 -138.5t-129.5 -43.5q-85 0 -145 37l31 139q25 -20 59 -20q47 0 47 59v122h-50q-99 0 -164 51.5t-65 149.5q0 214 234 214h312v-167h-79z" />
    <glyph glyph-name="periodcentered" unicode="&#xb7;" horiz-adv-x="294" 
d="M35 254q0 47 31.5 79.5t80.5 32.5t80.5 -32.5t31.5 -79.5t-31.5 -79.5t-80.5 -32.5t-80.5 32.5t-31.5 79.5z" />
    <glyph glyph-name="periodcentered" unicode="&#x22c5;" horiz-adv-x="294" 
d="M35 254q0 47 31.5 79.5t80.5 32.5t80.5 -32.5t31.5 -79.5t-31.5 -79.5t-80.5 -32.5t-80.5 32.5t-31.5 79.5z" />
    <glyph glyph-name="cedilla" unicode="&#xb8;" 
d="M373 -116q0 -45 -33.5 -70t-89.5 -25q-78 0 -123 35l27 76q29 -24 60 -24q26 0 26 20q0 25 -40 25l17 112h61l-7 -63q45 0 73.5 -22t28.5 -64z" />
    <glyph glyph-name="onesuperior" unicode="&#xb9;" horiz-adv-x="323" 
d="M306 236h-276v100h76v134l-74 -5v105l207 22v-256h67v-100z" />
    <glyph glyph-name="ordmasculine" unicode="&#xba;" horiz-adv-x="404" 
d="M169 440q0 -71 33 -71t33 71t-33 71t-33 -71zM25 440q0 77 48 119t129 42t129 -42t48 -119t-48 -119t-129 -42t-129 42t-48 119z" />
    <glyph glyph-name="guillemotright" unicode="&#xbb;" horiz-adv-x="621" 
d="M382 451l219 -211l-219 -211l-94 95l61 62q18 19 33 32t21 16l6 4v4q-19 9 -60 51l-61 63zM134 451l219 -211l-219 -211l-94 95l61 62q18 19 33 32t21 16l6 4v4q-19 9 -60 51l-61 63z" />
    <glyph glyph-name="onequarter" unicode="&#xbc;" horiz-adv-x="823" 
d="M306 236h-276v97h72v134l-70 -5v108l209 22v-259h65v-97zM196 0l324 588h110l-330 -588h-104zM618 0v56h-171v93l163 204h147v-205h46v-92h-46v-56h-139zM583 146h37v54l4 52h-4q-9 -21 -29 -47l-23 -29q-6 -8 -13 -15l-11 -11l-4 -3v-4q16 3 43 3z" />
    <glyph glyph-name="onehalf" unicode="&#xbd;" horiz-adv-x="837" 
d="M196 0l324 588h110l-330 -588h-104zM807 109v-109h-306v92q167 62 167 126q0 30 -28 30q-32 0 -32 -51l-118 33q16 131 163 131q70 0 112 -34t42 -91q0 -53 -37 -85t-92 -38v-4h129zM306 236h-276v100h76v134l-74 -5v105l207 22v-256h67v-100z" />
    <glyph glyph-name="threequarters" unicode="&#xbe;" horiz-adv-x="831" 
d="M204 0l324 588h110l-330 -588h-104zM626 0v56h-171v93l163 204h147v-205h46v-92h-46v-56h-139zM591 146h37v54l4 52h-4q-9 -21 -29 -47l-23 -29q-6 -8 -13 -15l-11 -11l-4 -3v-4q16 3 43 3zM136 462l-108 37q9 46 49.5 72t98.5 26q63 0 100.5 -28t37.5 -77q0 -66 -76 -77
v-4q36 -3 58 -26t22 -60q0 -47 -41.5 -71.5t-104.5 -24.5q-61 0 -103.5 21.5t-55.5 60.5l113 51q6 -36 34 -36q23 0 23 21q0 31 -60 31v65q37 1 49 7.5t12 23.5q0 21 -22 21q-26 0 -26 -33z" />
    <glyph glyph-name="questiondown" unicode="&#xbf;" horiz-adv-x="516" 
d="M374 381q0 -45 -30 -71t-76 -26q-48 0 -78 26t-30 71q0 43 30.5 68t77.5 25q46 0 76 -25.5t30 -67.5zM323 99l183 -49q-12 -91 -76.5 -140t-166.5 -49q-109 0 -176 44t-67 142q0 77 44.5 116t114.5 48v42h179v-124h-31q-53 0 -78.5 -11.5t-25.5 -44.5q0 -49 49 -49
q51 0 51 75z" />
    <glyph glyph-name="Agrave" unicode="&#xc0;" horiz-adv-x="668" 
d="M452 0l-26 80h-194l-24 -80h-204l193 589h273l194 -589h-212zM379 233l-21 81l-29 115h-4q-9 -51 -26 -115l-21 -81h101zM420 627h-170l-138 156h243z" />
    <glyph glyph-name="Aacute" unicode="&#xc1;" horiz-adv-x="668" 
d="M452 0l-26 80h-194l-24 -80h-204l193 589h273l194 -589h-212zM379 233l-21 81l-29 115h-4q-9 -51 -26 -115l-21 -81h101zM410 627h-170l65 156h243z" />
    <glyph glyph-name="Acircumflex" unicode="&#xc2;" horiz-adv-x="668" 
d="M452 0l-26 80h-194l-24 -80h-204l193 589h273l194 -589h-212zM379 233l-21 81l-29 115h-4q-9 -51 -26 -115l-21 -81h101zM267 790h135l158 -163h-179l-25 32q-8 10 -12.5 18.5t-5.5 12.5l-1 4h-5q-2 -13 -19 -35l-25 -32h-179z" />
    <glyph glyph-name="Atilde" unicode="&#xc3;" horiz-adv-x="668" 
d="M452 0l-26 80h-194l-24 -80h-204l193 589h273l194 -589h-212zM379 233l-21 81l-29 115h-4q-9 -51 -26 -115l-21 -81h101zM144 697q0 52 29 81t75 29q37 0 82 -26q36 -21 51 -21q33 0 33 44h100q10 -38 10 -70q0 -52 -29 -81t-75 -29q-37 0 -82 26q-36 21 -51 21
q-33 0 -33 -44h-100q-10 38 -10 70z" />
    <glyph glyph-name="Adieresis" unicode="&#xc4;" horiz-adv-x="668" 
d="M452 0l-26 80h-194l-24 -80h-204l193 589h273l194 -589h-212zM379 233l-21 81l-29 115h-4q-9 -51 -26 -115l-21 -81h101zM124 715q0 46 29 71t71 25t71 -25t29 -71q0 -45 -29 -70t-71 -25t-71 25t-29 70zM344 715q0 46 29 71t71 25t71 -25t29 -71q0 -45 -29 -70t-71 -25
t-71 25t-29 70z" />
    <glyph glyph-name="Aring" unicode="&#xc5;" horiz-adv-x="668" 
d="M452 0l-26 80h-194l-24 -80h-204l193 589h273l194 -589h-212zM379 233l-21 81l-29 115h-4q-9 -51 -26 -115l-21 -81h101zM334 621q-59 0 -92 33.5t-33 85.5q0 49 34.5 82.5t90.5 33.5t90.5 -33.5t34.5 -82.5q0 -52 -33 -85.5t-92 -33.5zM334 781q-18 0 -28.5 -11.5
t-10.5 -29.5q0 -17 10 -29t29 -12q18 0 28 12t10 29q0 18 -10 29.5t-28 11.5z" />
    <glyph glyph-name="AE" unicode="&#xc6;" horiz-adv-x="934" 
d="M460 80h-202l-43 -80h-211l336 589h555v-168h-241v-53h214v-147h-214v-53h245v-168h-439v80zM462 454l-121 -221h119v86l6 135h-4z" />
    <glyph glyph-name="Ccedilla" unicode="&#xc7;" horiz-adv-x="594" 
d="M445 -116q0 -45 -33.5 -70t-89.5 -25q-78 0 -123 35l27 76q29 -24 60 -24q26 0 26 20q0 25 -40 25l10 69q-118 11 -187.5 89.5t-69.5 212.5q0 149 77.5 229t226.5 80q100 0 171 -44t93 -119l-196 -81q-9 72 -71 72q-88 0 -88 -138q0 -132 85 -132q36 0 54.5 19.5
t23.5 60.5l193 -92q-32 -76 -92.5 -115t-156.5 -43l-2 -19q45 0 73.5 -22t28.5 -64z" />
    <glyph glyph-name="Egrave" unicode="&#xc8;" horiz-adv-x="531" 
d="M496 168v-168h-446v589h442v-168h-245v-53h218v-147h-218v-53h249zM359 627h-170l-138 156h243z" />
    <glyph glyph-name="Eacute" unicode="&#xc9;" horiz-adv-x="531" 
d="M496 168v-168h-446v589h442v-168h-245v-53h218v-147h-218v-53h249zM349 627h-170l65 156h243z" />
    <glyph glyph-name="Ecircumflex" unicode="&#xca;" horiz-adv-x="531" 
d="M496 168v-168h-446v589h442v-168h-245v-53h218v-147h-218v-53h249zM206 790h135l158 -163h-179l-25 32q-8 10 -12.5 18.5t-5.5 12.5l-1 4h-5q-2 -13 -19 -35l-25 -32h-179z" />
    <glyph glyph-name="Edieresis" unicode="&#xcb;" horiz-adv-x="531" 
d="M496 168v-168h-446v589h442v-168h-245v-53h218v-147h-218v-53h249zM63 715q0 46 29 71t71 25t71 -25t29 -71q0 -45 -29 -70t-71 -25t-71 25t-29 70zM283 715q0 46 29 71t71 25t71 -25t29 -71q0 -45 -29 -70t-71 -25t-71 25t-29 70z" />
    <glyph glyph-name="Igrave" unicode="&#xcc;" horiz-adv-x="305" 
d="M50 589h205v-589h-205v589zM238 627h-170l-138 156h243z" />
    <glyph glyph-name="Iacute" unicode="&#xcd;" horiz-adv-x="305" 
d="M50 589h205v-589h-205v589zM228 627h-170l65 156h243z" />
    <glyph glyph-name="Icircumflex" unicode="&#xce;" horiz-adv-x="305" 
d="M50 589h205v-589h-205v589zM85 790h135l158 -163h-179l-25 32q-8 10 -12.5 18.5t-5.5 12.5l-1 4h-5q-2 -13 -19 -35l-25 -32h-179z" />
    <glyph glyph-name="Idieresis" unicode="&#xcf;" horiz-adv-x="305" 
d="M50 589h205v-589h-205v589zM-58 715q0 46 29 71t71 25t71 -25t29 -71q0 -45 -29 -70t-71 -25t-71 25t-29 70zM162 715q0 46 29 71t71 25t71 -25t29 -71q0 -45 -29 -70t-71 -25t-71 25t-29 70z" />
    <glyph glyph-name="Eth" unicode="&#xd0;" horiz-adv-x="635" 
d="M5 224v143h57v222h254q138 0 216 -71t78 -221q0 -157 -80 -227t-232 -70h-236v224h-57zM254 169h27q66 0 90.5 24t24.5 104q0 66 -25 94.5t-82 28.5h-35v-53h70v-143h-70v-55z" />
    <glyph glyph-name="Ntilde" unicode="&#xd1;" horiz-adv-x="667" 
d="M230 589l118 -173l62 -96h4q-2 48 -2 104v165h205v-589h-170l-126 173l-64 95h-4q2 -46 2 -121v-147h-205v589h180zM143 697q0 52 29 81t75 29q37 0 82 -26q36 -21 51 -21q33 0 33 44h100q10 -38 10 -70q0 -52 -29 -81t-75 -29q-37 0 -82 26q-36 21 -51 21q-33 0 -33 -44
h-100q-10 38 -10 70z" />
    <glyph glyph-name="Ograve" unicode="&#xd2;" horiz-adv-x="644" 
d="M619 294q0 -148 -77.5 -227t-219.5 -79t-219.5 79t-77.5 227q0 149 77.5 228t219.5 79t219.5 -79t77.5 -228zM405 294q0 68 -19 102t-64 34t-64 -34t-19 -102q0 -67 19 -101t64 -34t64 34t19 101zM408 627h-170l-138 156h243z" />
    <glyph glyph-name="Oacute" unicode="&#xd3;" horiz-adv-x="644" 
d="M619 294q0 -148 -77.5 -227t-219.5 -79t-219.5 79t-77.5 227q0 149 77.5 228t219.5 79t219.5 -79t77.5 -228zM405 294q0 68 -19 102t-64 34t-64 -34t-19 -102q0 -67 19 -101t64 -34t64 34t19 101zM398 627h-170l65 156h243z" />
    <glyph glyph-name="Ocircumflex" unicode="&#xd4;" horiz-adv-x="644" 
d="M619 294q0 -148 -77.5 -227t-219.5 -79t-219.5 79t-77.5 227q0 149 77.5 228t219.5 79t219.5 -79t77.5 -228zM405 294q0 68 -19 102t-64 34t-64 -34t-19 -102q0 -67 19 -101t64 -34t64 34t19 101zM255 790h135l158 -163h-179l-25 32q-8 10 -12.5 18.5t-5.5 12.5l-1 4h-5
q-2 -13 -19 -35l-25 -32h-179z" />
    <glyph glyph-name="Otilde" unicode="&#xd5;" horiz-adv-x="644" 
d="M619 294q0 -148 -77.5 -227t-219.5 -79t-219.5 79t-77.5 227q0 149 77.5 228t219.5 79t219.5 -79t77.5 -228zM405 294q0 68 -19 102t-64 34t-64 -34t-19 -102q0 -67 19 -101t64 -34t64 34t19 101zM132 697q0 52 29 81t75 29q37 0 82 -26q36 -21 51 -21q33 0 33 44h100
q10 -38 10 -70q0 -52 -29 -81t-75 -29q-37 0 -82 26q-36 21 -51 21q-33 0 -33 -44h-100q-10 38 -10 70z" />
    <glyph glyph-name="Odieresis" unicode="&#xd6;" horiz-adv-x="644" 
d="M619 294q0 -148 -77.5 -227t-219.5 -79t-219.5 79t-77.5 227q0 149 77.5 228t219.5 79t219.5 -79t77.5 -228zM405 294q0 68 -19 102t-64 34t-64 -34t-19 -102q0 -67 19 -101t64 -34t64 34t19 101zM112 715q0 46 29 71t71 25t71 -25t29 -71q0 -45 -29 -70t-71 -25t-71 25
t-29 70zM332 715q0 46 29 71t71 25t71 -25t29 -71q0 -45 -29 -70t-71 -25t-71 25t-29 70z" />
    <glyph glyph-name="multiply" unicode="&#xd7;" horiz-adv-x="484" 
d="M45 133l116 116l-112 116l76 75l113 -113l119 120l79 -77l-121 -121l124 -124l-78 -75l-123 124l-116 -118z" />
    <glyph glyph-name="Oslash" unicode="&#xd8;" horiz-adv-x="644" 
d="M619 294q0 -148 -77.5 -227t-219.5 -79q-115 0 -188 52l-51 -52l-58 55l53 54q-53 74 -53 197q0 149 77.5 228t219.5 79q120 0 195 -57l56 57l58 -55l-60 -61q48 -76 48 -191zM234 294q0 -25 1 -37l149 151q-21 26 -62 26q-48 0 -68 -35t-20 -105zM411 294q0 19 -1 27
l-144 -147q19 -19 56 -19q48 0 68.5 34.5t20.5 104.5z" />
    <glyph glyph-name="Ugrave" unicode="&#xd9;" horiz-adv-x="622" 
d="M311 -12q-271 0 -271 240v361h205v-340q0 -94 66 -94t66 94v340h205v-361q0 -240 -271 -240zM397 627h-170l-138 156h243z" />
    <glyph glyph-name="Uacute" unicode="&#xda;" horiz-adv-x="622" 
d="M311 -12q-271 0 -271 240v361h205v-340q0 -94 66 -94t66 94v340h205v-361q0 -240 -271 -240zM387 627h-170l65 156h243z" />
    <glyph glyph-name="Ucircumflex" unicode="&#xdb;" horiz-adv-x="622" 
d="M311 -12q-271 0 -271 240v361h205v-340q0 -94 66 -94t66 94v340h205v-361q0 -240 -271 -240zM244 790h135l158 -163h-179l-25 32q-8 10 -12.5 18.5t-5.5 12.5l-1 4h-5q-2 -13 -19 -35l-25 -32h-179z" />
    <glyph glyph-name="Udieresis" unicode="&#xdc;" horiz-adv-x="622" 
d="M311 -12q-271 0 -271 240v361h205v-340q0 -94 66 -94t66 94v340h205v-361q0 -240 -271 -240zM101 715q0 46 29 71t71 25t71 -25t29 -71q0 -45 -29 -70t-71 -25t-71 25t-29 70zM321 715q0 46 29 71t71 25t71 -25t29 -71q0 -45 -29 -70t-71 -25t-71 25t-29 70z" />
    <glyph glyph-name="Yacute" unicode="&#xdd;" horiz-adv-x="642" 
d="M324 386h4q11 42 49 116l45 87h216l-215 -396v-193h-204v193l-215 396h223l45 -87q17 -33 30 -62t18 -42zM397 627h-170l65 156h243z" />
    <glyph glyph-name="Thorn" unicode="&#xde;" horiz-adv-x="577" 
d="M252 341v-108h52q49 0 49 54t-49 54h-52zM252 0h-202v589h202v-76h77q233 0 233 -224q0 -107 -63 -163.5t-170 -56.5h-77v-69z" />
    <glyph glyph-name="germandbls" unicode="&#xdf;" horiz-adv-x="638" 
d="M43 0v367q0 88 22.5 150t64.5 96.5t94.5 49.5t120.5 15q117 0 179.5 -50.5t62.5 -133.5q0 -55 -30 -95.5t-85 -49.5v-4q65 -7 105.5 -52t40.5 -118q0 -86 -52 -136.5t-150 -50.5q-91 0 -141 39l15 164q46 -40 88 -40q23 0 36 14t13 37q0 30 -21.5 42t-64.5 12h-58v161h55
q60 0 60 49q0 22 -18 35t-46 13q-89 0 -89 -124v-390h-202z" />
    <glyph glyph-name="agrave" unicode="&#xe0;" horiz-adv-x="533" 
d="M269 146v37q-6 1 -17 1q-48 0 -48 -38q0 -30 31 -30q34 0 34 30zM469 305v-130q0 -26 21 -26q13 0 28 9v-137q-40 -28 -102 -28q-99 0 -123 72q-19 -73 -128 -73q-72 0 -111 34.5t-39 96.5q0 67 49.5 103.5t135.5 36.5q37 0 69 -4v52q0 26 -21 26q-25 0 -25 -53l-184 27
q5 76 60 119.5t156 43.5q214 0 214 -169zM350 515h-170l-138 156h243z" />
    <glyph glyph-name="aacute" unicode="&#xe1;" horiz-adv-x="533" 
d="M269 146v37q-6 1 -17 1q-48 0 -48 -38q0 -30 31 -30q34 0 34 30zM469 305v-130q0 -26 21 -26q13 0 28 9v-137q-40 -28 -102 -28q-99 0 -123 72q-19 -73 -128 -73q-72 0 -111 34.5t-39 96.5q0 67 49.5 103.5t135.5 36.5q37 0 69 -4v52q0 26 -21 26q-25 0 -25 -53l-184 27
q5 76 60 119.5t156 43.5q214 0 214 -169zM338 515h-170l65 156h243z" />
    <glyph glyph-name="acircumflex" unicode="&#xe2;" horiz-adv-x="533" 
d="M269 146v37q-6 1 -17 1q-48 0 -48 -38q0 -30 31 -30q34 0 34 30zM469 305v-130q0 -26 21 -26q13 0 28 9v-137q-40 -28 -102 -28q-99 0 -123 72q-19 -73 -128 -73q-72 0 -111 34.5t-39 96.5q0 67 49.5 103.5t135.5 36.5q37 0 69 -4v52q0 26 -21 26q-25 0 -25 -53l-184 27
q5 76 60 119.5t156 43.5q214 0 214 -169zM195 678h135l158 -163h-179l-25 32q-8 10 -12.5 18.5t-5.5 12.5l-1 4h-5q-2 -13 -19 -35l-25 -32h-179z" />
    <glyph glyph-name="atilde" unicode="&#xe3;" horiz-adv-x="533" 
d="M269 146v37q-6 1 -17 1q-48 0 -48 -38q0 -30 31 -30q34 0 34 30zM469 305v-130q0 -26 21 -26q13 0 28 9v-137q-40 -28 -102 -28q-99 0 -123 72q-19 -73 -128 -73q-72 0 -111 34.5t-39 96.5q0 67 49.5 103.5t135.5 36.5q37 0 69 -4v52q0 26 -21 26q-25 0 -25 -53l-184 27
q5 76 60 119.5t156 43.5q214 0 214 -169zM72 580q0 52 29 81t75 29q37 0 82 -26q36 -21 51 -21q33 0 33 44h100q10 -38 10 -70q0 -52 -29 -81t-75 -29q-37 0 -82 26q-36 21 -51 21q-33 0 -33 -44h-100q-10 38 -10 70z" />
    <glyph glyph-name="adieresis" unicode="&#xe4;" horiz-adv-x="533" 
d="M269 146v37q-6 1 -17 1q-48 0 -48 -38q0 -30 31 -30q34 0 34 30zM469 305v-130q0 -26 21 -26q13 0 28 9v-137q-40 -28 -102 -28q-99 0 -123 72q-19 -73 -128 -73q-72 0 -111 34.5t-39 96.5q0 67 49.5 103.5t135.5 36.5q37 0 69 -4v52q0 26 -21 26q-25 0 -25 -53l-184 27
q5 76 60 119.5t156 43.5q214 0 214 -169zM52 590q0 46 29 71t71 25t71 -25t29 -71q0 -45 -29 -70t-71 -25t-71 25t-29 70zM272 590q0 46 29 71t71 25t71 -25t29 -71q0 -45 -29 -70t-71 -25t-71 25t-29 70z" />
    <glyph glyph-name="aring" unicode="&#xe5;" horiz-adv-x="533" 
d="M269 146v37q-6 1 -17 1q-48 0 -48 -38q0 -30 31 -30q34 0 34 30zM469 305v-130q0 -26 21 -26q13 0 28 9v-137q-40 -28 -102 -28q-99 0 -123 72q-19 -73 -128 -73q-72 0 -111 34.5t-39 96.5q0 67 49.5 103.5t135.5 36.5q37 0 69 -4v52q0 26 -21 26q-25 0 -25 -53l-184 27
q5 76 60 119.5t156 43.5q214 0 214 -169zM262 490q-59 0 -92 33.5t-33 85.5q0 49 34.5 82.5t90.5 33.5t90.5 -33.5t34.5 -82.5q0 -52 -33 -85.5t-92 -33.5zM262 650q-18 0 -28.5 -11.5t-10.5 -29.5q0 -17 10 -29t29 -12q18 0 28 12t10 29q0 18 -10 29.5t-28 11.5z" />
    <glyph glyph-name="ae" unicode="&#xe6;" horiz-adv-x="739" 
d="M504 137q44 0 57 47l157 -62q-24 -66 -83 -100t-134 -34q-112 0 -178 64q-51 -64 -150 -64q-73 0 -115.5 35.5t-42.5 99.5q0 47 23.5 78t67 43.5t80 16.5t88.5 4v46q0 26 -23 26q-28 0 -28 -53l-184 27q5 76 60 119.5t156 43.5q82 0 126 -26q51 25 126 25q106 0 160 -60
t54 -159q0 -27 -7 -57h-260q0 -60 50 -60zM458 269h76q3 10 3 24q0 39 -35 39q-19 0 -30.5 -17.5t-13.5 -45.5zM274 155v36q-32 0 -51 -11.5t-19 -33.5q0 -30 31 -30q17 0 28 9.5t11 29.5z" />
    <glyph glyph-name="ccedilla" unicode="&#xe7;" horiz-adv-x="493" 
d="M386 -116q0 -45 -33.5 -70t-89.5 -25q-78 0 -123 35l27 76q29 -24 60 -24q26 0 26 20q0 25 -40 25l10 70q-96 12 -150.5 75t-54.5 164q0 114 67 179t179 65q97 0 153 -45t63 -124l-166 -41q-2 31 -11 47t-33 16q-49 0 -49 -97q0 -50 12.5 -72.5t39.5 -22.5q39 0 45 60
l170 -58q-15 -70 -69 -107.5t-133 -40.5l-2 -19q45 0 73.5 -22t28.5 -64z" />
    <glyph glyph-name="egrave" unicode="&#xe8;" horiz-adv-x="498" 
d="M263 137q44 0 57 47l157 -62q-24 -66 -83 -100t-134 -34q-110 0 -176 63t-66 172q0 120 65 185t183 65q106 0 160 -59t54 -157q0 -27 -7 -57h-260q0 -63 50 -63zM217 272h76q3 6 3 21q0 39 -35 39q-20 0 -31 -16.5t-13 -43.5zM349 515h-170l-138 156h243z" />
    <glyph glyph-name="eacute" unicode="&#xe9;" horiz-adv-x="498" 
d="M263 137q44 0 57 47l157 -62q-24 -66 -83 -100t-134 -34q-110 0 -176 63t-66 172q0 120 65 185t183 65q106 0 160 -59t54 -157q0 -27 -7 -57h-260q0 -63 50 -63zM217 272h76q3 6 3 21q0 39 -35 39q-20 0 -31 -16.5t-13 -43.5zM337 515h-170l65 156h243z" />
    <glyph glyph-name="ecircumflex" unicode="&#xea;" horiz-adv-x="498" 
d="M263 137q44 0 57 47l157 -62q-24 -66 -83 -100t-134 -34q-110 0 -176 63t-66 172q0 120 65 185t183 65q106 0 160 -59t54 -157q0 -27 -7 -57h-260q0 -63 50 -63zM217 272h76q3 6 3 21q0 39 -35 39q-20 0 -31 -16.5t-13 -43.5zM194 678h135l158 -163h-179l-25 32
q-8 10 -12.5 18.5t-5.5 12.5l-1 4h-5q-2 -13 -19 -35l-25 -32h-179z" />
    <glyph glyph-name="edieresis" unicode="&#xeb;" horiz-adv-x="498" 
d="M263 137q44 0 57 47l157 -62q-24 -66 -83 -100t-134 -34q-110 0 -176 63t-66 172q0 120 65 185t183 65q106 0 160 -59t54 -157q0 -27 -7 -57h-260q0 -63 50 -63zM217 272h76q3 6 3 21q0 39 -35 39q-20 0 -31 -16.5t-13 -43.5zM51 590q0 46 29 71t71 25t71 -25t29 -71
q0 -45 -29 -70t-71 -25t-71 25t-29 70zM271 590q0 46 29 71t71 25t71 -25t29 -71q0 -45 -29 -70t-71 -25t-71 25t-29 70z" />
    <glyph glyph-name="igrave" unicode="&#xec;" horiz-adv-x="288" 
d="M43 462h202v-462h-202v462zM232 515h-170l-138 156h243z" />
    <glyph glyph-name="iacute" unicode="&#xed;" horiz-adv-x="288" 
d="M43 462h202v-462h-202v462zM220 515h-170l65 156h243z" />
    <glyph glyph-name="icircumflex" unicode="&#xee;" horiz-adv-x="288" 
d="M43 462h202v-462h-202v462zM77 678h135l158 -163h-179l-25 32q-8 10 -12.5 18.5t-5.5 12.5l-1 4h-5q-2 -13 -19 -35l-25 -32h-179z" />
    <glyph glyph-name="idieresis" unicode="&#xef;" horiz-adv-x="288" 
d="M43 462h202v-462h-202v462zM-66 590q0 46 29 71t71 25t71 -25t29 -71q0 -45 -29 -70t-71 -25t-71 25t-29 70zM154 590q0 46 29 71t71 25t71 -25t29 -71q0 -45 -29 -70t-71 -25t-71 25t-29 70z" />
    <glyph glyph-name="eth" unicode="&#xf0;" horiz-adv-x="544" 
d="M121 452l-14 64l97 25q-50 36 -110 69l198 69q64 -40 110 -86l91 24l14 -64l-59 -16q78 -111 78 -254q0 -295 -253 -295q-117 0 -186 63t-69 176q0 106 58 160.5t130 54.5q81 0 125 -58q-14 53 -66 105zM323 231q0 50 -12 73t-39 23t-39 -23t-12 -73t12 -73t39 -23t39 23
t12 73z" />
    <glyph glyph-name="ntilde" unicode="&#xf1;" horiz-adv-x="569" 
d="M221 462l25 -89q14 50 53 75.5t91 25.5q61 0 100 -37.5t39 -113.5v-323h-202v249q0 30 -8 44t-29 14q-45 0 -45 -71v-236h-202v462h178zM96 580q0 52 29 81t75 29q37 0 82 -26q36 -21 51 -21q33 0 33 44h100q10 -38 10 -70q0 -52 -29 -81t-75 -29q-37 0 -82 26
q-36 21 -51 21q-33 0 -33 -44h-100q-10 38 -10 70z" />
    <glyph glyph-name="ograve" unicode="&#xf2;" horiz-adv-x="544" 
d="M18 231q0 116 69 179.5t185 63.5t185 -63.5t69 -179.5t-69 -179.5t-185 -63.5t-185 63.5t-69 179.5zM323 231q0 50 -12 73t-39 23t-39 -23t-12 -73t12 -73t39 -23t39 23t12 73zM360 515h-170l-138 156h243z" />
    <glyph glyph-name="oacute" unicode="&#xf3;" horiz-adv-x="544" 
d="M18 231q0 116 69 179.5t185 63.5t185 -63.5t69 -179.5t-69 -179.5t-185 -63.5t-185 63.5t-69 179.5zM323 231q0 50 -12 73t-39 23t-39 -23t-12 -73t12 -73t39 -23t39 23t12 73zM348 515h-170l65 156h243z" />
    <glyph glyph-name="ocircumflex" unicode="&#xf4;" horiz-adv-x="544" 
d="M18 231q0 116 69 179.5t185 63.5t185 -63.5t69 -179.5t-69 -179.5t-185 -63.5t-185 63.5t-69 179.5zM323 231q0 50 -12 73t-39 23t-39 -23t-12 -73t12 -73t39 -23t39 23t12 73zM205 678h135l158 -163h-179l-25 32q-8 10 -12.5 18.5t-5.5 12.5l-1 4h-5q-2 -13 -19 -35
l-25 -32h-179z" />
    <glyph glyph-name="otilde" unicode="&#xf5;" horiz-adv-x="544" 
d="M18 231q0 116 69 179.5t185 63.5t185 -63.5t69 -179.5t-69 -179.5t-185 -63.5t-185 63.5t-69 179.5zM323 231q0 50 -12 73t-39 23t-39 -23t-12 -73t12 -73t39 -23t39 23t12 73zM82 580q0 52 29 81t75 29q37 0 82 -26q36 -21 51 -21q33 0 33 44h100q10 -38 10 -70
q0 -52 -29 -81t-75 -29q-37 0 -82 26q-36 21 -51 21q-33 0 -33 -44h-100q-10 38 -10 70z" />
    <glyph glyph-name="odieresis" unicode="&#xf6;" horiz-adv-x="544" 
d="M18 231q0 116 69 179.5t185 63.5t185 -63.5t69 -179.5t-69 -179.5t-185 -63.5t-185 63.5t-69 179.5zM323 231q0 50 -12 73t-39 23t-39 -23t-12 -73t12 -73t39 -23t39 23t12 73zM62 590q0 46 29 71t71 25t71 -25t29 -71q0 -45 -29 -70t-71 -25t-71 25t-29 70zM282 590
q0 46 29 71t71 25t71 -25t29 -71q0 -45 -29 -70t-71 -25t-71 25t-29 70z" />
    <glyph glyph-name="divide" unicode="&#xf7;" horiz-adv-x="498" 
d="M453 194h-408v108h408v-108zM172 81q0 30 20.5 51.5t50.5 21.5t51 -21.5t21 -51.5q0 -29 -21 -49.5t-51 -20.5t-50.5 20.5t-20.5 49.5zM172 412q0 30 20.5 51.5t50.5 21.5t51 -21.5t21 -51.5q0 -29 -21 -49.5t-51 -20.5t-50.5 20.5t-20.5 49.5z" />
    <glyph glyph-name="oslash" unicode="&#xf8;" horiz-adv-x="544" 
d="M18 39l43 41q-43 58 -43 151q0 116 69 179.5t185 63.5q94 0 159 -43l45 43l50 -51l-44 -41q44 -61 44 -151q0 -116 -69 -179.5t-185 -63.5q-96 0 -159 42l-45 -42zM212 231v-8l99 94q-16 14 -39 14q-32 0 -46 -24t-14 -76zM332 231v7l-99 -93q14 -14 39 -14q32 0 46 24
t14 76z" />
    <glyph glyph-name="ugrave" unicode="&#xf9;" horiz-adv-x="563" 
d="M345 0l-25 84q-16 -96 -135 -96q-69 0 -108 39.5t-39 117.5v317h202v-274q0 -52 32 -52q25 0 35.5 20t10.5 66v240h202v-462h-175zM377 515h-170l-138 156h243z" />
    <glyph glyph-name="uacute" unicode="&#xfa;" horiz-adv-x="563" 
d="M345 0l-25 84q-16 -96 -135 -96q-69 0 -108 39.5t-39 117.5v317h202v-274q0 -52 32 -52q25 0 35.5 20t10.5 66v240h202v-462h-175zM355 515h-170l65 156h243z" />
    <glyph glyph-name="ucircumflex" unicode="&#xfb;" horiz-adv-x="563" 
d="M345 0l-25 84q-16 -96 -135 -96q-69 0 -108 39.5t-39 117.5v317h202v-274q0 -52 32 -52q25 0 35.5 20t10.5 66v240h202v-462h-175zM212 678h135l158 -163h-179l-25 32q-8 10 -12.5 18.5t-5.5 12.5l-1 4h-5q-2 -13 -19 -35l-25 -32h-179z" />
    <glyph glyph-name="udieresis" unicode="&#xfc;" horiz-adv-x="563" 
d="M345 0l-25 84q-16 -96 -135 -96q-69 0 -108 39.5t-39 117.5v317h202v-274q0 -52 32 -52q25 0 35.5 20t10.5 66v240h202v-462h-175zM69 590q0 46 29 71t71 25t71 -25t29 -71q0 -45 -29 -70t-71 -25t-71 25t-29 70zM289 590q0 46 29 71t71 25t71 -25t29 -71q0 -45 -29 -70
t-71 -25t-71 25t-29 70z" />
    <glyph glyph-name="yacute" unicode="&#xfd;" horiz-adv-x="557" 
d="M165 -19l-161 481h215l43 -175q6 -24 10.5 -56t6.5 -53l2 -20h4q8 73 23 127l48 177h197l-151 -436q-76 -234 -265 -234q-76 0 -124 27l40 146q24 -21 58 -21q39 0 54 37zM364 515h-170l65 156h243z" />
    <glyph glyph-name="thorn" unicode="&#xfe;" horiz-adv-x="586" 
d="M245 237v-30q0 -36 14.5 -56t39.5 -20q34 0 47.5 24.5t13.5 74.5q0 85 -57 85q-27 0 -42.5 -20.5t-15.5 -57.5zM245 54v-257h-202v871h202v-291q14 45 50.5 71t87.5 26q88 0 136.5 -62t48.5 -170q0 -124 -52.5 -189t-147.5 -65q-44 0 -78 18t-45 48z" />
    <glyph glyph-name="ydieresis" unicode="&#xff;" horiz-adv-x="557" 
d="M165 -19l-161 481h215l43 -175q6 -24 10.5 -56t6.5 -53l2 -20h4q8 73 23 127l48 177h197l-151 -436q-76 -234 -265 -234q-76 0 -124 27l40 146q24 -21 58 -21q39 0 54 37zM78 590q0 46 29 71t71 25t71 -25t29 -71q0 -45 -29 -70t-71 -25t-71 25t-29 70zM298 590
q0 46 29 71t71 25t71 -25t29 -71q0 -45 -29 -70t-71 -25t-71 25t-29 70z" />
    <glyph glyph-name="Amacron" unicode="&#x100;" horiz-adv-x="668" 
d="M452 0l-26 80h-194l-24 -80h-204l193 589h273l194 -589h-212zM379 233l-21 81l-29 115h-4q-9 -51 -26 -115l-21 -81h101zM507 627h-345v141h345v-141z" />
    <glyph glyph-name="amacron" unicode="&#x101;" horiz-adv-x="533" 
d="M269 146v37q-6 1 -17 1q-48 0 -48 -38q0 -30 31 -30q34 0 34 30zM469 305v-130q0 -26 21 -26q13 0 28 9v-137q-40 -28 -102 -28q-99 0 -123 72q-19 -73 -128 -73q-72 0 -111 34.5t-39 96.5q0 67 49.5 103.5t135.5 36.5q37 0 69 -4v52q0 26 -21 26q-25 0 -25 -53l-184 27
q5 76 60 119.5t156 43.5q214 0 214 -169zM435 515h-345v141h345v-141z" />
    <glyph glyph-name="Abreve" unicode="&#x102;" horiz-adv-x="668" 
d="M452 0l-26 80h-194l-24 -80h-204l193 589h273l194 -589h-212zM379 233l-21 81l-29 115h-4q-9 -51 -26 -115l-21 -81h101zM334 622q-173 0 -173 174h138q0 -49 35 -49t35 49h138q0 -174 -173 -174z" />
    <glyph glyph-name="abreve" unicode="&#x103;" horiz-adv-x="533" 
d="M269 146v37q-6 1 -17 1q-48 0 -48 -38q0 -30 31 -30q34 0 34 30zM469 305v-130q0 -26 21 -26q13 0 28 9v-137q-40 -28 -102 -28q-99 0 -123 72q-19 -73 -128 -73q-72 0 -111 34.5t-39 96.5q0 67 49.5 103.5t135.5 36.5q37 0 69 -4v52q0 26 -21 26q-25 0 -25 -53l-184 27
q5 76 60 119.5t156 43.5q214 0 214 -169zM262 510q-173 0 -173 174h138q0 -49 35 -49t35 49h138q0 -174 -173 -174z" />
    <glyph glyph-name="Aogonek" unicode="&#x104;" horiz-adv-x="668" 
d="M352 -86q0 88 87 125l-13 41h-194l-24 -80h-204l193 589h273l194 -589h-108q-60 0 -60 -50q0 -37 44 -37q30 0 60 25l40 -100q-53 -49 -142 -49q-62 0 -104 30t-42 95zM379 233l-21 81l-29 115h-4q-9 -51 -26 -115l-21 -81h101z" />
    <glyph glyph-name="aogonek" unicode="&#x105;" horiz-adv-x="533" 
d="M266 -86q0 67 55 107q-20 18 -28 44q-19 -73 -128 -73q-72 0 -111 34.5t-39 96.5q0 67 49.5 103.5t135.5 36.5q37 0 69 -4v52q0 26 -21 26q-25 0 -25 -53l-184 27q5 76 60 119.5t156 43.5q214 0 214 -169v-130q0 -26 21 -26q13 0 28 9v-137q-24 -6 -37.5 -10.5t-32 -13
t-27.5 -21.5t-9 -30q0 -33 42 -33q30 0 60 25l40 -100q-53 -49 -142 -49q-63 0 -104.5 29t-41.5 96zM269 146v37q-6 1 -17 1q-48 0 -48 -38q0 -30 31 -30q34 0 34 30z" />
    <glyph glyph-name="Cacute" unicode="&#x106;" horiz-adv-x="594" 
d="M238 291q0 -132 85 -132q36 0 54.5 19.5t23.5 60.5l193 -92q-34 -81 -101 -120t-175 -39q-133 0 -213 80t-80 224q0 149 77.5 229t226.5 80q100 0 171 -44t93 -119l-196 -81q-9 72 -71 72q-88 0 -88 -138zM397 627h-170l65 156h243z" />
    <glyph glyph-name="cacute" unicode="&#x107;" horiz-adv-x="493" 
d="M318 195l170 -58q-16 -73 -74 -111t-144 -38q-116 0 -184 64.5t-68 177.5q0 114 67 179t179 65q97 0 153 -45t63 -124l-166 -41q-2 31 -11 47t-33 16q-49 0 -49 -97q0 -50 12.5 -72.5t39.5 -22.5q39 0 45 60zM339 515h-170l65 156h243z" />
    <glyph glyph-name="Ccircumflex" unicode="&#x108;" horiz-adv-x="594" 
d="M238 291q0 -132 85 -132q36 0 54.5 19.5t23.5 60.5l193 -92q-34 -81 -101 -120t-175 -39q-133 0 -213 80t-80 224q0 149 77.5 229t226.5 80q100 0 171 -44t93 -119l-196 -81q-9 72 -71 72q-88 0 -88 -138zM254 790h135l158 -163h-179l-25 32q-8 10 -12.5 18.5t-5.5 12.5
l-1 4h-5q-2 -13 -19 -35l-25 -32h-179z" />
    <glyph glyph-name="ccircumflex" unicode="&#x109;" horiz-adv-x="493" 
d="M318 195l170 -58q-16 -73 -74 -111t-144 -38q-116 0 -184 64.5t-68 177.5q0 114 67 179t179 65q97 0 153 -45t63 -124l-166 -41q-2 31 -11 47t-33 16q-49 0 -49 -97q0 -50 12.5 -72.5t39.5 -22.5q39 0 45 60zM196 678h135l158 -163h-179l-25 32q-8 10 -12.5 18.5
t-5.5 12.5l-1 4h-5q-2 -13 -19 -35l-25 -32h-179z" />
    <glyph glyph-name="Cdotaccent" unicode="&#x10a;" horiz-adv-x="594" 
d="M238 291q0 -132 85 -132q36 0 54.5 19.5t23.5 60.5l193 -92q-34 -81 -101 -120t-175 -39q-133 0 -213 80t-80 224q0 149 77.5 229t226.5 80q100 0 171 -44t93 -119l-196 -81q-9 72 -71 72q-88 0 -88 -138zM207 722q0 49 33 76t81 27t81 -27t33 -76t-33 -76t-81 -27
t-81 27t-33 76z" />
    <glyph glyph-name="cdotaccent" unicode="&#x10b;" horiz-adv-x="493" 
d="M318 195l170 -58q-16 -73 -74 -111t-144 -38q-116 0 -184 64.5t-68 177.5q0 114 67 179t179 65q97 0 153 -45t63 -124l-166 -41q-2 31 -11 47t-33 16q-49 0 -49 -97q0 -50 12.5 -72.5t39.5 -22.5q39 0 45 60zM149 593q0 49 33 76t81 27t81 -27t33 -76t-33 -76t-81 -27
t-81 27t-33 76z" />
    <glyph glyph-name="Ccaron" unicode="&#x10c;" horiz-adv-x="594" 
d="M238 291q0 -132 85 -132q36 0 54.5 19.5t23.5 60.5l193 -92q-34 -81 -101 -120t-175 -39q-133 0 -213 80t-80 224q0 149 77.5 229t226.5 80q100 0 171 -44t93 -119l-196 -81q-9 72 -71 72q-88 0 -88 -138zM389 627h-135l-158 163h179l25 -32q8 -10 12.5 -18.5t5.5 -12.5
l1 -4h5q2 13 19 35l25 32h179z" />
    <glyph glyph-name="ccaron" unicode="&#x10d;" horiz-adv-x="493" 
d="M318 195l170 -58q-16 -73 -74 -111t-144 -38q-116 0 -184 64.5t-68 177.5q0 114 67 179t179 65q97 0 153 -45t63 -124l-166 -41q-2 31 -11 47t-33 16q-49 0 -49 -97q0 -50 12.5 -72.5t39.5 -22.5q39 0 45 60zM331 515h-135l-158 163h179l25 -32q8 -10 12.5 -18.5
t5.5 -12.5l1 -4h5q2 13 19 35l25 32h179z" />
    <glyph glyph-name="Dcaron" unicode="&#x10e;" horiz-adv-x="636" 
d="M255 169h27q66 0 90.5 24t24.5 104q0 66 -25 94.5t-82 28.5h-35v-251zM299 0h-249v589h267q138 0 216 -71t78 -221q0 -157 -80 -227t-232 -70zM366 627h-135l-158 163h179l25 -32q8 -10 12.5 -18.5t5.5 -12.5l1 -4h5q2 13 19 35l25 32h179z" />
    <glyph glyph-name="dcaron" unicode="&#x10f;" horiz-adv-x="586" 
d="M367 0l-26 80q-12 -44 -49 -68t-89 -24q-89 0 -137 63t-48 176q0 119 52 183t145 64q97 0 126 -71v265h202v-668h-176zM341 221v30q0 36 -14.5 56t-39.5 20q-34 0 -47.5 -24.5t-13.5 -74.5q0 -85 57 -85q27 0 42.5 20.5t15.5 57.5zM780 668l-63 -177h-144l12 177h195z
" />
    <glyph glyph-name="Dcroat" unicode="&#x110;" horiz-adv-x="635" 
d="M5 224v143h57v222h254q138 0 216 -71t78 -221q0 -157 -80 -227t-232 -70h-236v224h-57zM254 169h27q66 0 90.5 24t24.5 104q0 66 -25 94.5t-82 28.5h-35v-53h70v-143h-70v-55z" />
    <glyph glyph-name="dcroat" unicode="&#x111;" horiz-adv-x="601" 
d="M217 505v106h124v57h202v-57h53v-106h-53v-505h-176l-26 80q-12 -44 -49 -68t-89 -24q-89 0 -137 63t-48 176q0 119 52 183t145 64q97 0 126 -71v102h-124zM341 221v30q0 36 -14.5 56t-39.5 20q-34 0 -47.5 -24.5t-13.5 -74.5q0 -85 57 -85q27 0 42.5 20.5t15.5 57.5z
" />
    <glyph glyph-name="Emacron" unicode="&#x112;" horiz-adv-x="531" 
d="M496 168v-168h-446v589h442v-168h-245v-53h218v-147h-218v-53h249zM446 627h-345v141h345v-141z" />
    <glyph glyph-name="emacron" unicode="&#x113;" horiz-adv-x="498" 
d="M263 137q44 0 57 47l157 -62q-24 -66 -83 -100t-134 -34q-110 0 -176 63t-66 172q0 120 65 185t183 65q106 0 160 -59t54 -157q0 -27 -7 -57h-260q0 -63 50 -63zM217 272h76q3 6 3 21q0 39 -35 39q-20 0 -31 -16.5t-13 -43.5zM434 515h-345v141h345v-141z" />
    <glyph glyph-name="Ebreve" unicode="&#x114;" horiz-adv-x="531" 
d="M496 168v-168h-446v589h442v-168h-245v-53h218v-147h-218v-53h249zM273 622q-173 0 -173 174h138q0 -49 35 -49t35 49h138q0 -174 -173 -174z" />
    <glyph glyph-name="ebreve" unicode="&#x115;" horiz-adv-x="498" 
d="M263 137q44 0 57 47l157 -62q-24 -66 -83 -100t-134 -34q-110 0 -176 63t-66 172q0 120 65 185t183 65q106 0 160 -59t54 -157q0 -27 -7 -57h-260q0 -63 50 -63zM217 272h76q3 6 3 21q0 39 -35 39q-20 0 -31 -16.5t-13 -43.5zM261 510q-173 0 -173 174h138q0 -49 35 -49
t35 49h138q0 -174 -173 -174z" />
    <glyph glyph-name="Edotaccent" unicode="&#x116;" horiz-adv-x="531" 
d="M496 168v-168h-446v589h442v-168h-245v-53h218v-147h-218v-53h249zM159 722q0 49 33 76t81 27t81 -27t33 -76t-33 -76t-81 -27t-81 27t-33 76z" />
    <glyph glyph-name="edotaccent" unicode="&#x117;" horiz-adv-x="498" 
d="M263 137q44 0 57 47l157 -62q-24 -66 -83 -100t-134 -34q-110 0 -176 63t-66 172q0 120 65 185t183 65q106 0 160 -59t54 -157q0 -27 -7 -57h-260q0 -63 50 -63zM217 272h76q3 6 3 21q0 39 -35 39q-20 0 -31 -16.5t-13 -43.5zM147 593q0 49 33 76t81 27t81 -27t33 -76
t-33 -76t-81 -27t-81 27t-33 76z" />
    <glyph glyph-name="Eogonek" unicode="&#x118;" horiz-adv-x="531" 
d="M243 -95q0 63 42 95h-235v589h442v-168h-245v-53h218v-147h-218v-53h249v-168h-47q-63 0 -63 -48q0 -39 45 -39q30 0 60 25l40 -100q-53 -49 -146 -49q-60 0 -101 28t-41 88z" />
    <glyph glyph-name="eogonek" unicode="&#x119;" horiz-adv-x="498" 
d="M172 -86q0 46 26 80q-84 16 -132 76t-48 153q0 120 65 185t183 65q106 0 160 -59t54 -157q0 -27 -7 -57h-260q0 -63 50 -63q44 0 57 47l157 -62q-15 -41 -45.5 -68t-77.5 -51q-36 -18 -36 -52q0 -38 42 -38q30 0 60 25l40 -100q-53 -49 -142 -49q-63 0 -104.5 29
t-41.5 96zM217 272h76q3 6 3 21q0 39 -35 39q-20 0 -31 -16.5t-13 -43.5z" />
    <glyph glyph-name="Ecaron" unicode="&#x11a;" horiz-adv-x="531" 
d="M496 168v-168h-446v589h442v-168h-245v-53h218v-147h-218v-53h249zM341 627h-135l-158 163h179l25 -32q8 -10 12.5 -18.5t5.5 -12.5l1 -4h5q2 13 19 35l25 32h179z" />
    <glyph glyph-name="ecaron" unicode="&#x11b;" horiz-adv-x="498" 
d="M263 137q44 0 57 47l157 -62q-24 -66 -83 -100t-134 -34q-110 0 -176 63t-66 172q0 120 65 185t183 65q106 0 160 -59t54 -157q0 -27 -7 -57h-260q0 -63 50 -63zM217 272h76q3 6 3 21q0 39 -35 39q-20 0 -31 -16.5t-13 -43.5zM329 515h-135l-158 163h179l25 -32
q8 -10 12.5 -18.5t5.5 -12.5l1 -4h5q2 13 19 35l25 32h179z" />
    <glyph glyph-name="Gcircumflex" unicode="&#x11c;" horiz-adv-x="651" 
d="M333 331h276v-331h-137l-21 65q-39 -77 -162 -77q-117 0 -190.5 75.5t-73.5 228.5q0 149 77.5 229t226.5 80q100 0 171 -44t93 -119l-196 -81q-9 72 -71 72q-88 0 -88 -138q0 -71 21.5 -105t71.5 -34q35 0 53.5 13t18.5 33v5h-70v128zM256 790h135l158 -163h-179l-25 32
q-8 10 -12.5 18.5t-5.5 12.5l-1 4h-5q-2 -13 -19 -35l-25 -32h-179z" />
    <glyph glyph-name="gcircumflex" unicode="&#x11d;" horiz-adv-x="518" 
d="M250 474q72 0 131 -23q17 25 19 77l138 -48q-3 -38 -30 -59.5t-61 -24.5q30 -39 30 -85q0 -79 -63 -117t-164 -38q-42 0 -60 6q-17 -3 -17 -18t21 -15h141q90 0 138 -44t48 -120q0 -65 -41.5 -106t-101 -55.5t-138.5 -14.5q-235 0 -235 104q0 71 94 82q-37 8 -59 35.5
t-22 67.5q0 42 26.5 70t71.5 34q-90 32 -90 129q0 80 60.5 121.5t163.5 41.5zM153 -73q0 -17 19.5 -24.5t67.5 -7.5q100 0 100 32q0 19 -41 19h-116q-30 0 -30 -19zM215 313q0 -50 35 -50t35 50t-35 50t-35 -50zM204 708h135l158 -163h-179l-25 32q-8 10 -12.5 18.5
t-5.5 12.5l-1 4h-5q-2 -13 -19 -35l-25 -32h-179z" />
    <glyph glyph-name="Gbreve" unicode="&#x11e;" horiz-adv-x="651" 
d="M333 331h276v-331h-137l-21 65q-39 -77 -162 -77q-117 0 -190.5 75.5t-73.5 228.5q0 149 77.5 229t226.5 80q100 0 171 -44t93 -119l-196 -81q-9 72 -71 72q-88 0 -88 -138q0 -71 21.5 -105t71.5 -34q35 0 53.5 13t18.5 33v5h-70v128zM323 622q-173 0 -173 174h138
q0 -49 35 -49t35 49h138q0 -174 -173 -174z" />
    <glyph glyph-name="gbreve" unicode="&#x11f;" horiz-adv-x="518" 
d="M250 474q72 0 131 -23q17 25 19 77l138 -48q-3 -38 -30 -59.5t-61 -24.5q30 -39 30 -85q0 -79 -63 -117t-164 -38q-42 0 -60 6q-17 -3 -17 -18t21 -15h141q90 0 138 -44t48 -120q0 -65 -41.5 -106t-101 -55.5t-138.5 -14.5q-235 0 -235 104q0 71 94 82q-37 8 -59 35.5
t-22 67.5q0 42 26.5 70t71.5 34q-90 32 -90 129q0 80 60.5 121.5t163.5 41.5zM153 -73q0 -17 19.5 -24.5t67.5 -7.5q100 0 100 32q0 19 -41 19h-116q-30 0 -30 -19zM215 313q0 -50 35 -50t35 50t-35 50t-35 -50zM271 510q-173 0 -173 174h138q0 -49 35 -49t35 49h138
q0 -174 -173 -174z" />
    <glyph glyph-name="Gdotaccent" unicode="&#x120;" horiz-adv-x="651" 
d="M333 331h276v-331h-137l-21 65q-39 -77 -162 -77q-117 0 -190.5 75.5t-73.5 228.5q0 149 77.5 229t226.5 80q100 0 171 -44t93 -119l-196 -81q-9 72 -71 72q-88 0 -88 -138q0 -71 21.5 -105t71.5 -34q35 0 53.5 13t18.5 33v5h-70v128zM209 722q0 49 33 76t81 27t81 -27
t33 -76t-33 -76t-81 -27t-81 27t-33 76z" />
    <glyph glyph-name="gdotaccent" unicode="&#x121;" horiz-adv-x="518" 
d="M250 474q72 0 131 -23q17 25 19 77l138 -48q-3 -38 -30 -59.5t-61 -24.5q30 -39 30 -85q0 -79 -63 -117t-164 -38q-42 0 -60 6q-17 -3 -17 -18t21 -15h141q90 0 138 -44t48 -120q0 -65 -41.5 -106t-101 -55.5t-138.5 -14.5q-235 0 -235 104q0 71 94 82q-37 8 -59 35.5
t-22 67.5q0 42 26.5 70t71.5 34q-90 32 -90 129q0 80 60.5 121.5t163.5 41.5zM153 -73q0 -17 19.5 -24.5t67.5 -7.5q100 0 100 32q0 19 -41 19h-116q-30 0 -30 -19zM215 313q0 -50 35 -50t35 50t-35 50t-35 -50zM157 603q0 49 33 76t81 27t81 -27t33 -76t-33 -76t-81 -27
t-81 27t-33 76z" />
    <glyph glyph-name="Gcommaaccent" unicode="&#x122;" horiz-adv-x="651" 
d="M333 331h276v-331h-137l-21 65q-39 -77 -162 -77q-117 0 -190.5 75.5t-73.5 228.5q0 149 77.5 229t226.5 80q100 0 171 -44t93 -119l-196 -81q-9 72 -71 72q-88 0 -88 -138q0 -71 21.5 -105t71.5 -34q35 0 53.5 13t18.5 33v5h-70v128zM419 -138q0 -130 -179 -130v58
q78 0 78 31q-90 0 -90 72q0 39 26 59.5t63 20.5q48 0 75 -31t27 -80z" />
    <glyph glyph-name="gcommaaccent" unicode="&#x123;" horiz-adv-x="518" 
d="M250 474q72 0 131 -23q17 25 19 77l138 -48q-3 -38 -30 -59.5t-61 -24.5q30 -39 30 -85q0 -79 -63 -117t-164 -38q-42 0 -60 6q-17 -3 -17 -18t21 -15h141q90 0 138 -44t48 -120q0 -65 -41.5 -106t-101 -55.5t-138.5 -14.5q-235 0 -235 104q0 71 94 82q-37 8 -59 35.5
t-22 67.5q0 42 26.5 70t71.5 34q-90 32 -90 129q0 80 60.5 121.5t163.5 41.5zM153 -73q0 -17 19.5 -24.5t67.5 -7.5q100 0 100 32q0 19 -41 19h-116q-30 0 -30 -19zM215 313q0 -50 35 -50t35 50t-35 50t-35 -50zM156 615q0 130 179 130v-58q-78 0 -78 -31q90 0 90 -72
q0 -39 -26 -59.5t-63 -20.5q-48 0 -75 31t-27 80z" />
    <glyph glyph-name="Hcircumflex" unicode="&#x124;" horiz-adv-x="652" 
d="M255 0h-205v589h205v-202h142v202h205v-589h-205v211h-142v-211zM259 790h135l158 -163h-179l-25 32q-8 10 -12.5 18.5t-5.5 12.5l-1 4h-5q-2 -13 -19 -35l-25 -32h-179z" />
    <glyph glyph-name="hcircumflex" unicode="&#x125;" horiz-adv-x="569" 
d="M245 668v-295q17 51 55.5 76t89.5 25q61 0 100 -37.5t39 -113.5v-323h-202v249q0 30 -8 44t-29 14q-45 0 -45 -71v-236h-202v668h202zM74 852h135l158 -163h-179l-25 32q-8 10 -12.5 18.5t-5.5 12.5l-1 4h-5q-2 -13 -19 -35l-25 -32h-179z" />
    <glyph glyph-name="Hbar" unicode="&#x126;" horiz-adv-x="678" 
d="M5 394v133h58v62h205v-62h142v62h205v-62h58v-133h-58v-394h-205v181h-142v-181h-205v394h-58zM268 337h142v57h-142v-57z" />
    <glyph glyph-name="hbar" unicode="&#x127;" horiz-adv-x="592" 
d="M5 505v106h61v57h202v-57h116v-106h-116v-132q17 51 55.5 76t89.5 25q61 0 100 -37.5t39 -113.5v-323h-202v249q0 30 -8 44t-29 14q-45 0 -45 -71v-236h-202v505h-61z" />
    <glyph glyph-name="Itilde" unicode="&#x128;" horiz-adv-x="305" 
d="M50 589h205v-589h-205v589zM-38 697q0 52 29 81t75 29q37 0 82 -26q36 -21 51 -21q33 0 33 44h100q10 -38 10 -70q0 -52 -29 -81t-75 -29q-37 0 -82 26q-36 21 -51 21q-33 0 -33 -44h-100q-10 38 -10 70z" />
    <glyph glyph-name="itilde" unicode="&#x129;" horiz-adv-x="288" 
d="M43 462h202v-462h-202v462zM-46 580q0 52 29 81t75 29q37 0 82 -26q36 -21 51 -21q33 0 33 44h100q10 -38 10 -70q0 -52 -29 -81t-75 -29q-37 0 -82 26q-36 21 -51 21q-33 0 -33 -44h-100q-10 38 -10 70z" />
    <glyph glyph-name="Imacron" unicode="&#x12a;" horiz-adv-x="305" 
d="M50 589h205v-589h-205v589zM325 627h-345v141h345v-141z" />
    <glyph glyph-name="imacron" unicode="&#x12b;" horiz-adv-x="288" 
d="M297 515h-305v141h305v-141zM43 462h202v-462h-202v462z" />
    <glyph glyph-name="Ibreve" unicode="&#x12c;" horiz-adv-x="305" 
d="M50 589h205v-589h-205v589zM152 622q-173 0 -173 174h138q0 -49 35 -49t35 49h138q0 -174 -173 -174z" />
    <glyph glyph-name="Iogonek" unicode="&#x12e;" horiz-adv-x="305" 
d="M24 -86q0 50 26 86v589h205v-589h-27q-63 0 -63 -46q0 -41 47 -41q30 0 60 25l40 -100q-53 -49 -142 -49q-63 0 -104.5 29t-41.5 96z" />
    <glyph glyph-name="iogonek" unicode="&#x12f;" horiz-adv-x="288" 
d="M6 -86q0 56 37 91v457h202v-462h-55q-38 -19 -38 -54q0 -33 42 -33q30 0 60 25l40 -100q-53 -49 -142 -49q-63 0 -104.5 29t-41.5 96zM30 593q0 49 33 76t81 27t81 -27t33 -76t-33 -76t-81 -27t-81 27t-33 76z" />
    <glyph glyph-name="Idotaccent" unicode="&#x130;" horiz-adv-x="305" 
d="M50 589h205v-589h-205v589zM38 722q0 49 33 76t81 27t81 -27t33 -76t-33 -76t-81 -27t-81 27t-33 76z" />
    <glyph glyph-name="dotlessi" unicode="&#x131;" horiz-adv-x="288" 
d="M43 462h202v-462h-202v462z" />
    <glyph glyph-name="IJ" unicode="&#x132;" horiz-adv-x="812" 
d="M50 589h205v-589h-205v589zM568 589h204v-391q0 -210 -245 -210q-207 0 -242 180l194 72q2 -84 49 -84q40 0 40 48v385z" />
    <glyph glyph-name="ij" unicode="&#x133;" horiz-adv-x="555" 
d="M43 462h202v-462h-202v462zM30 593q0 49 33 76t81 27t81 -27t33 -76t-33 -76t-81 -27t-81 27t-33 76zM512 462v-450q0 -119 -60.5 -168t-174.5 -49q-59 0 -85 12v165q32 -15 63 -15q30 0 42.5 13t12.5 50v442h202zM297 593q0 49 33 76t81 27t81 -27t33 -76t-33 -76
t-81 -27t-81 27t-33 76z" />
    <glyph glyph-name="Jcircumflex" unicode="&#x134;" horiz-adv-x="527" 
d="M283 589h204v-391q0 -210 -245 -210q-207 0 -242 180l194 72q2 -84 49 -84q40 0 40 48v385zM314 790h135l158 -163h-179l-25 32q-8 10 -12.5 18.5t-5.5 12.5l-1 4h-5q-2 -13 -19 -35l-25 -32h-179z" />
    <glyph glyph-name="jcircumflex" unicode="&#x135;" horiz-adv-x="288" 
d="M245 462v-450q0 -119 -60.5 -168t-174.5 -49q-59 0 -85 12v165q32 -15 63 -15q30 0 42.5 13t12.5 50v442h202zM73 678h135l158 -163h-179l-25 32q-8 10 -12.5 18.5t-5.5 12.5l-1 4h-5q-2 -13 -19 -35l-25 -32h-179z" />
    <glyph glyph-name="Kcommaaccent" unicode="&#x136;" horiz-adv-x="634" 
d="M634 0h-238l-112 214h-29v-214h-205v589h205v-205h32l106 205h226l-157 -284zM414 -138q0 -130 -179 -130v58q78 0 78 31q-90 0 -90 72q0 39 26 59.5t63 20.5q48 0 75 -31t27 -80z" />
    <glyph glyph-name="kcommaaccent" unicode="&#x137;" horiz-adv-x="574" 
d="M446 248l128 -248h-226l-80 171h-23v-171h-202v668h202v-349h23l61 143h226zM390 -138q0 -130 -179 -130v58q78 0 78 31q-90 0 -90 72q0 39 26 59.5t63 20.5q48 0 75 -31t27 -80z" />
    <glyph glyph-name="kgreenlandic" unicode="&#x138;" horiz-adv-x="574" 
d="M446 248l128 -248h-226l-80 171h-23v-171h-202v462h202v-143h23l61 143h226z" />
    <glyph glyph-name="Lacute" unicode="&#x139;" horiz-adv-x="485" 
d="M50 589h205v-413h205v-176h-410v589zM235 626h-170l65 156h243z" />
    <glyph glyph-name="lacute" unicode="&#x13a;" horiz-adv-x="309" 
d="M299 167l-7 -150q-36 -26 -110 -26q-62 0 -105.5 34.5t-43.5 111.5v531h202v-473q0 -38 27 -38q18 0 37 10zM216 695h-170l65 156h243z" />
    <glyph glyph-name="Lcommaaccent" unicode="&#x13b;" horiz-adv-x="485" 
d="M50 589h205v-413h205v-176h-410v589zM351 -138q0 -130 -179 -130v58q78 0 78 31q-90 0 -90 72q0 39 26 59.5t63 20.5q48 0 75 -31t27 -80z" />
    <glyph glyph-name="lcommaaccent" unicode="&#x13c;" horiz-adv-x="309" 
d="M299 167l-7 -150q-36 -26 -110 -26q-62 0 -105.5 34.5t-43.5 111.5v531h202v-473q0 -38 27 -38q18 0 37 10zM262 -138q0 -130 -179 -130v58q78 0 78 31q-90 0 -90 72q0 39 26 59.5t63 20.5q48 0 75 -31t27 -80z" />
    <glyph glyph-name="Lcaron" unicode="&#x13d;" horiz-adv-x="485" 
d="M50 589h205v-413h205v-176h-410v589zM518 589l-63 -177h-144l12 177h195z" />
    <glyph glyph-name="lcaron" unicode="&#x13e;" horiz-adv-x="309" 
d="M299 167l-7 -150q-36 -26 -110 -26q-62 0 -105.5 34.5t-43.5 111.5v531h202v-473q0 -38 27 -38q18 0 37 10zM472 668l-63 -177h-144l12 177h195z" />
    <glyph glyph-name="Ldot" unicode="&#x13f;" horiz-adv-x="499" 
d="M50 589h205v-413h205v-176h-410v589zM275 334q0 47 31.5 79.5t80.5 32.5t80.5 -32.5t31.5 -79.5t-31.5 -79.5t-80.5 -32.5t-80.5 32.5t-31.5 79.5z" />
    <glyph glyph-name="ldot" unicode="&#x140;" horiz-adv-x="477" 
d="M299 167l-7 -150q-36 -26 -110 -26q-62 0 -105.5 34.5t-43.5 111.5v531h202v-473q0 -38 27 -38q18 0 37 10zM257 354q0 47 31.5 79.5t80.5 32.5t80.5 -32.5t31.5 -79.5t-31.5 -79.5t-80.5 -32.5t-80.5 32.5t-31.5 79.5z" />
    <glyph glyph-name="Lslash" unicode="&#x141;" horiz-adv-x="490" 
d="M5 185v133l50 16v255h205v-193l117 39v-133l-117 -39v-87h205v-176h-410v202z" />
    <glyph glyph-name="lslash" unicode="&#x142;" horiz-adv-x="331" 
d="M0 219v124l50 24v301h202v-218l63 31v-124l-63 -30v-132q0 -38 27 -38q18 0 37 10l-7 -150q-36 -26 -110 -26q-62 0 -105.5 34.5t-43.5 111.5v106z" />
    <glyph glyph-name="Nacute" unicode="&#x143;" horiz-adv-x="667" 
d="M230 589l118 -173l62 -96h4q-2 48 -2 104v165h205v-589h-170l-126 173l-64 95h-4q2 -46 2 -121v-147h-205v589h180zM399 627h-170l65 156h243z" />
    <glyph glyph-name="nacute" unicode="&#x144;" horiz-adv-x="569" 
d="M221 462l25 -89q14 50 53 75.5t91 25.5q61 0 100 -37.5t39 -113.5v-323h-202v249q0 30 -8 44t-29 14q-45 0 -45 -71v-236h-202v462h178zM362 515h-170l65 156h243z" />
    <glyph glyph-name="Ncommaaccent" unicode="&#x145;" horiz-adv-x="667" 
d="M230 589l118 -173l62 -96h4q-2 48 -2 104v165h205v-589h-170l-126 173l-64 95h-4q2 -46 2 -121v-147h-205v589h180zM429 -138q0 -130 -179 -130v58q78 0 78 31q-90 0 -90 72q0 39 26 59.5t63 20.5q48 0 75 -31t27 -80z" />
    <glyph glyph-name="ncommaaccent" unicode="&#x146;" horiz-adv-x="569" 
d="M221 462l25 -89q14 50 53 75.5t91 25.5q61 0 100 -37.5t39 -113.5v-323h-202v249q0 30 -8 44t-29 14q-45 0 -45 -71v-236h-202v462h178zM382 -138q0 -130 -179 -130v58q78 0 78 31q-90 0 -90 72q0 39 26 59.5t63 20.5q48 0 75 -31t27 -80z" />
    <glyph glyph-name="Ncaron" unicode="&#x147;" horiz-adv-x="667" 
d="M230 589l118 -173l62 -96h4q-2 48 -2 104v165h205v-589h-170l-126 173l-64 95h-4q2 -46 2 -121v-147h-205v589h180zM392 627h-135l-158 163h179l25 -32q8 -10 12.5 -18.5t5.5 -12.5l1 -4h5q2 13 19 35l25 32h179z" />
    <glyph glyph-name="ncaron" unicode="&#x148;" horiz-adv-x="569" 
d="M221 462l25 -89q14 50 53 75.5t91 25.5q61 0 100 -37.5t39 -113.5v-323h-202v249q0 30 -8 44t-29 14q-45 0 -45 -71v-236h-202v462h178zM354 515h-135l-158 163h179l25 -32q8 -10 12.5 -18.5t5.5 -12.5l1 -4h5q2 13 19 35l25 32h179z" />
    <glyph glyph-name="Eng" unicode="&#x14a;" horiz-adv-x="667" 
d="M413 47l-92 126l-64 95h-4q2 -46 2 -121v-147h-205v589h180l118 -173l62 -96h4q-2 48 -2 104v165h205v-586q0 -210 -245 -210q-162 0 -219 112l175 101q10 -45 45 -45q40 0 40 48v38z" />
    <glyph glyph-name="eng" unicode="&#x14b;" horiz-adv-x="569" 
d="M327 20v229q0 30 -8 44t-29 14q-45 0 -45 -71v-236h-202v462h178l25 -89q14 50 53 75.5t91 25.5q61 0 100 -37.5t39 -113.5v-311q0 -119 -60.5 -168t-174.5 -49q-59 0 -85 12v165q32 -15 63 -15q30 0 42.5 13t12.5 50z" />
    <glyph glyph-name="Omacron" unicode="&#x14c;" horiz-adv-x="644" 
d="M619 294q0 -148 -77.5 -227t-219.5 -79t-219.5 79t-77.5 227q0 149 77.5 228t219.5 79t219.5 -79t77.5 -228zM405 294q0 68 -19 102t-64 34t-64 -34t-19 -102q0 -67 19 -101t64 -34t64 34t19 101zM495 627h-345v141h345v-141z" />
    <glyph glyph-name="omacron" unicode="&#x14d;" horiz-adv-x="544" 
d="M18 231q0 116 69 179.5t185 63.5t185 -63.5t69 -179.5t-69 -179.5t-185 -63.5t-185 63.5t-69 179.5zM323 231q0 50 -12 73t-39 23t-39 -23t-12 -73t12 -73t39 -23t39 23t12 73zM445 515h-345v141h345v-141z" />
    <glyph glyph-name="Obreve" unicode="&#x14e;" horiz-adv-x="644" 
d="M619 294q0 -148 -77.5 -227t-219.5 -79t-219.5 79t-77.5 227q0 149 77.5 228t219.5 79t219.5 -79t77.5 -228zM405 294q0 68 -19 102t-64 34t-64 -34t-19 -102q0 -67 19 -101t64 -34t64 34t19 101zM322 622q-173 0 -173 174h138q0 -49 35 -49t35 49h138q0 -174 -173 -174z
" />
    <glyph glyph-name="obreve" unicode="&#x14f;" horiz-adv-x="544" 
d="M18 231q0 116 69 179.5t185 63.5t185 -63.5t69 -179.5t-69 -179.5t-185 -63.5t-185 63.5t-69 179.5zM323 231q0 50 -12 73t-39 23t-39 -23t-12 -73t12 -73t39 -23t39 23t12 73zM272 510q-173 0 -173 174h138q0 -49 35 -49t35 49h138q0 -174 -173 -174z" />
    <glyph glyph-name="Ohungarumlaut" unicode="&#x150;" horiz-adv-x="644" 
d="M619 294q0 -148 -77.5 -227t-219.5 -79t-219.5 79t-77.5 227q0 149 77.5 228t219.5 79t219.5 -79t77.5 -228zM405 294q0 68 -19 102t-64 34t-64 -34t-19 -102q0 -67 19 -101t64 -34t64 34t19 101zM277 627h-138l37 166h192zM491 627h-156l64 166h211z" />
    <glyph glyph-name="ohungarumlaut" unicode="&#x151;" horiz-adv-x="544" 
d="M18 231q0 116 69 179.5t185 63.5t185 -63.5t69 -179.5t-69 -179.5t-185 -63.5t-185 63.5t-69 179.5zM323 231q0 50 -12 73t-39 23t-39 -23t-12 -73t12 -73t39 -23t39 23t12 73zM237 515h-138l37 166h192zM451 515h-156l64 166h211z" />
    <glyph glyph-name="OE" unicode="&#x152;" horiz-adv-x="894" 
d="M859 172v-172h-436q-47 -12 -101 -12q-142 0 -219.5 79t-77.5 227q0 149 77.5 228t219.5 79q54 0 101 -12h432v-172h-253q5 -17 11 -49h215v-147h-215q-5 -32 -11 -49h257zM405 294q0 68 -19 102t-64 34t-64 -34t-19 -102q0 -67 19 -101t64 -34t64 34t19 101z" />
    <glyph glyph-name="oe" unicode="&#x153;" horiz-adv-x="789" 
d="M554 137q44 0 57 47l157 -62q-24 -66 -83 -100t-134 -34q-78 0 -139 43q-65 -43 -140 -43q-116 0 -185 63.5t-69 179.5t69 179.5t185 63.5q81 0 146 -44q61 43 139 43q106 0 160 -59t54 -157q0 -27 -7 -57h-260q0 -63 50 -63zM323 231q0 50 -12 73t-39 23t-39 -23
t-12 -73t12 -73t39 -23t39 23t12 73zM508 272h76q3 6 3 21q0 39 -35 39q-20 0 -31 -16.5t-13 -43.5z" />
    <glyph glyph-name="Racute" unicode="&#x154;" horiz-adv-x="607" 
d="M607 0h-225q-21 23 -33 73l-10 46q-5 26 -17 36t-34 10h-37v-165h-201v589h285q236 0 236 -190q0 -133 -119 -153v-4q39 -6 60.5 -26.5t32.5 -60.5l22 -78q15 -52 40 -77zM251 416v-96h60q50 0 50 49q0 47 -48 47h-62zM366 627h-170l65 156h243z" />
    <glyph glyph-name="racute" unicode="&#x155;" horiz-adv-x="432" 
d="M432 468l-27 -230q-36 26 -85 26q-32 0 -53.5 -19t-21.5 -61v-184h-202v462h178l20 -131q6 60 45 100t105 40q21 0 41 -3zM313 515h-170l65 156h243z" />
    <glyph glyph-name="Rcommaaccent" unicode="&#x156;" horiz-adv-x="607" 
d="M607 0h-225q-21 23 -33 73l-10 46q-5 26 -17 36t-34 10h-37v-165h-201v589h285q236 0 236 -190q0 -133 -119 -153v-4q39 -6 60.5 -26.5t32.5 -60.5l22 -78q15 -52 40 -77zM251 416v-96h60q50 0 50 49q0 47 -48 47h-62zM406 -138q0 -130 -179 -130v58q78 0 78 31
q-90 0 -90 72q0 39 26 59.5t63 20.5q48 0 75 -31t27 -80z" />
    <glyph glyph-name="rcommaaccent" unicode="&#x157;" horiz-adv-x="432" 
d="M432 468l-27 -230q-36 26 -85 26q-32 0 -53.5 -19t-21.5 -61v-184h-202v462h178l20 -131q6 60 45 100t105 40q21 0 41 -3zM245 -138q0 -130 -179 -130v58q78 0 78 31q-90 0 -90 72q0 39 26 59.5t63 20.5q48 0 75 -31t27 -80z" />
    <glyph glyph-name="Rcaron" unicode="&#x158;" horiz-adv-x="607" 
d="M607 0h-225q-21 23 -33 73l-10 46q-5 26 -17 36t-34 10h-37v-165h-201v589h285q236 0 236 -190q0 -133 -119 -153v-4q39 -6 60.5 -26.5t32.5 -60.5l22 -78q15 -52 40 -77zM251 416v-96h60q50 0 50 49q0 47 -48 47h-62zM358 627h-135l-158 163h179l25 -32
q8 -10 12.5 -18.5t5.5 -12.5l1 -4h5q2 13 19 35l25 32h179z" />
    <glyph glyph-name="rcaron" unicode="&#x159;" horiz-adv-x="432" 
d="M432 468l-27 -230q-36 26 -85 26q-32 0 -53.5 -19t-21.5 -61v-184h-202v462h178l20 -131q6 60 45 100t105 40q21 0 41 -3zM305 515h-135l-158 163h179l25 -32q8 -10 12.5 -18.5t5.5 -12.5l1 -4h5q2 13 19 35l25 32h179z" />
    <glyph glyph-name="Sacute" unicode="&#x15a;" horiz-adv-x="543" 
d="M5 128l186 67q18 -51 67 -51q41 0 41 27q0 23 -45 30q-127 20 -179.5 66.5t-52.5 129.5q0 56 20 96.5t55.5 63.5t79 33.5t95.5 10.5q209 0 243 -152l-197 -44q-7 42 -53 42q-35 0 -35 -25q0 -27 65 -35q223 -27 223 -206q0 -100 -73.5 -146.5t-193.5 -46.5
q-96 0 -161.5 34.5t-84.5 105.5zM345 627h-170l65 156h243z" />
    <glyph glyph-name="sacute" unicode="&#x15b;" horiz-adv-x="465" 
d="M7 104l175 39q2 -35 35 -35q32 0 32 22t-32 25l-47 4q-155 14 -155 149q0 86 60 126t157 40q184 0 210 -135l-175 -17q0 34 -34 34q-30 0 -30 -22q0 -20 30 -23l50 -4q83 -6 122.5 -47.5t39.5 -107.5q0 -164 -228 -164q-185 0 -210 116zM302 515h-170l65 156h243z" />
    <glyph glyph-name="Scircumflex" unicode="&#x15c;" horiz-adv-x="543" 
d="M5 128l186 67q18 -51 67 -51q41 0 41 27q0 23 -45 30q-127 20 -179.5 66.5t-52.5 129.5q0 56 20 96.5t55.5 63.5t79 33.5t95.5 10.5q209 0 243 -152l-197 -44q-7 42 -53 42q-35 0 -35 -25q0 -27 65 -35q223 -27 223 -206q0 -100 -73.5 -146.5t-193.5 -46.5
q-96 0 -161.5 34.5t-84.5 105.5zM202 790h135l158 -163h-179l-25 32q-8 10 -12.5 18.5t-5.5 12.5l-1 4h-5q-2 -13 -19 -35l-25 -32h-179z" />
    <glyph glyph-name="scircumflex" unicode="&#x15d;" horiz-adv-x="465" 
d="M7 104l175 39q2 -35 35 -35q32 0 32 22t-32 25l-47 4q-155 14 -155 149q0 86 60 126t157 40q184 0 210 -135l-175 -17q0 34 -34 34q-30 0 -30 -22q0 -20 30 -23l50 -4q83 -6 122.5 -47.5t39.5 -107.5q0 -164 -228 -164q-185 0 -210 116zM165 678h135l158 -163h-179
l-25 32q-8 10 -12.5 18.5t-5.5 12.5l-1 4h-5q-2 -13 -19 -35l-25 -32h-179z" />
    <glyph glyph-name="Scedilla" unicode="&#x15e;" horiz-adv-x="543" 
d="M392 -116q0 -45 -33.5 -70t-89.5 -25q-78 0 -123 35l27 76q29 -24 60 -24q26 0 26 20q0 25 -40 25l10 68q-88 4 -147 38.5t-77 100.5l186 67q18 -51 67 -51q41 0 41 27q0 23 -45 30q-127 20 -179.5 66.5t-52.5 129.5q0 56 20 96.5t55.5 63.5t79 33.5t95.5 10.5
q209 0 243 -152l-197 -44q-7 42 -53 42q-35 0 -35 -25q0 -27 65 -35q223 -27 223 -206q0 -91 -61.5 -137.5t-164.5 -53.5l-2 -20q45 0 73.5 -22t28.5 -64z" />
    <glyph glyph-name="scedilla" unicode="&#x15f;" horiz-adv-x="465" 
d="M355 -116q0 -45 -33.5 -70t-89.5 -25q-78 0 -123 35l27 76q29 -24 60 -24q26 0 26 20q0 25 -40 25l10 68q-162 8 -185 115l175 39q2 -35 35 -35q32 0 32 22t-32 25l-47 4q-155 14 -155 149q0 86 60 126t157 40q184 0 210 -135l-175 -17q0 34 -34 34q-30 0 -30 -22
q0 -20 30 -23l50 -4q83 -6 122.5 -47.5t39.5 -107.5q0 -149 -190 -162l-2 -20q45 0 73.5 -22t28.5 -64z" />
    <glyph glyph-name="Scaron" unicode="&#x160;" horiz-adv-x="543" 
d="M5 128l186 67q18 -51 67 -51q41 0 41 27q0 23 -45 30q-127 20 -179.5 66.5t-52.5 129.5q0 56 20 96.5t55.5 63.5t79 33.5t95.5 10.5q209 0 243 -152l-197 -44q-7 42 -53 42q-35 0 -35 -25q0 -27 65 -35q223 -27 223 -206q0 -100 -73.5 -146.5t-193.5 -46.5
q-96 0 -161.5 34.5t-84.5 105.5zM337 627h-135l-158 163h179l25 -32q8 -10 12.5 -18.5t5.5 -12.5l1 -4h5q2 13 19 35l25 32h179z" />
    <glyph glyph-name="scaron" unicode="&#x161;" horiz-adv-x="465" 
d="M7 104l175 39q2 -35 35 -35q32 0 32 22t-32 25l-47 4q-155 14 -155 149q0 86 60 126t157 40q184 0 210 -135l-175 -17q0 34 -34 34q-30 0 -30 -22q0 -20 30 -23l50 -4q83 -6 122.5 -47.5t39.5 -107.5q0 -164 -228 -164q-185 0 -210 116zM300 515h-135l-158 163h179
l25 -32q8 -10 12.5 -18.5t5.5 -12.5l1 -4h5q2 13 19 35l25 32h179z" />
    <glyph glyph-name="Tcommaaccent" unicode="&#x162;" horiz-adv-x="537" 
d="M369 0h-205v413h-144v176h497v-176h-148v-413zM364 -138q0 -130 -179 -130v58q78 0 78 31q-90 0 -90 72q0 39 26 59.5t63 20.5q48 0 75 -31t27 -80z" />
    <glyph glyph-name="tcommaaccent" unicode="&#x163;" horiz-adv-x="407" 
d="M362 190l33 -154q-57 -48 -162 -48q-87 0 -129.5 42.5t-42.5 135.5v148h-55v148h57v98l194 22v-120h111v-148h-112v-109q0 -46 39 -46q40 0 67 31zM320 -138q0 -130 -179 -130v58q78 0 78 31q-90 0 -90 72q0 39 26 59.5t63 20.5q48 0 75 -31t27 -80z" />
    <glyph glyph-name="Tcaron" unicode="&#x164;" horiz-adv-x="537" 
d="M369 0h-205v413h-144v176h497v-176h-148v-413zM336 627h-135l-158 163h179l25 -32q8 -10 12.5 -18.5t5.5 -12.5l1 -4h5q2 13 19 35l25 32h179z" />
    <glyph glyph-name="tcaron" unicode="&#x165;" horiz-adv-x="407" 
d="M362 190l33 -154q-57 -48 -162 -48q-87 0 -129.5 42.5t-42.5 135.5v148h-55v148h57v98l194 22v-120h111v-148h-112v-109q0 -46 39 -46q40 0 67 31zM486 666l-63 -177h-144l12 177h195z" />
    <glyph glyph-name="Tbar" unicode="&#x166;" horiz-adv-x="537" 
d="M70 182v149h94v82h-144v176h497v-176h-148v-82h94v-149h-94v-182h-205v182h-94z" />
    <glyph glyph-name="tbar" unicode="&#x167;" horiz-adv-x="407" 
d="M6 212v81h55v34h-55v135h57v98l194 22v-120h111v-135h-112v-34h112v-81h-112v-7q0 -46 39 -46q40 0 67 31l33 -154q-57 -48 -162 -48q-87 0 -129.5 42.5t-42.5 135.5v46h-55z" />
    <glyph glyph-name="Utilde" unicode="&#x168;" horiz-adv-x="622" 
d="M311 -12q-271 0 -271 240v361h205v-340q0 -94 66 -94t66 94v340h205v-361q0 -240 -271 -240zM121 697q0 52 29 81t75 29q37 0 82 -26q36 -21 51 -21q33 0 33 44h100q10 -38 10 -70q0 -52 -29 -81t-75 -29q-37 0 -82 26q-36 21 -51 21q-33 0 -33 -44h-100q-10 38 -10 70z
" />
    <glyph glyph-name="utilde" unicode="&#x169;" horiz-adv-x="563" 
d="M345 0l-25 84q-16 -96 -135 -96q-69 0 -108 39.5t-39 117.5v317h202v-274q0 -52 32 -52q25 0 35.5 20t10.5 66v240h202v-462h-175zM89 580q0 52 29 81t75 29q37 0 82 -26q36 -21 51 -21q33 0 33 44h100q10 -38 10 -70q0 -52 -29 -81t-75 -29q-37 0 -82 26q-36 21 -51 21
q-33 0 -33 -44h-100q-10 38 -10 70z" />
    <glyph glyph-name="Umacron" unicode="&#x16a;" horiz-adv-x="622" 
d="M311 -12q-271 0 -271 240v361h205v-340q0 -94 66 -94t66 94v340h205v-361q0 -240 -271 -240zM484 627h-345v141h345v-141z" />
    <glyph glyph-name="umacron" unicode="&#x16b;" horiz-adv-x="563" 
d="M345 0l-25 84q-16 -96 -135 -96q-69 0 -108 39.5t-39 117.5v317h202v-274q0 -52 32 -52q25 0 35.5 20t10.5 66v240h202v-462h-175zM452 515h-345v141h345v-141z" />
    <glyph glyph-name="Ubreve" unicode="&#x16c;" horiz-adv-x="622" 
d="M311 -12q-271 0 -271 240v361h205v-340q0 -94 66 -94t66 94v340h205v-361q0 -240 -271 -240zM311 622q-173 0 -173 174h138q0 -49 35 -49t35 49h138q0 -174 -173 -174z" />
    <glyph glyph-name="ubreve" unicode="&#x16d;" horiz-adv-x="563" 
d="M345 0l-25 84q-16 -96 -135 -96q-69 0 -108 39.5t-39 117.5v317h202v-274q0 -52 32 -52q25 0 35.5 20t10.5 66v240h202v-462h-175zM279 510q-173 0 -173 174h138q0 -49 35 -49t35 49h138q0 -174 -173 -174z" />
    <glyph glyph-name="Uring" unicode="&#x16e;" horiz-adv-x="622" 
d="M311 -12q-271 0 -271 240v361h205v-340q0 -94 66 -94t66 94v340h205v-361q0 -240 -271 -240zM311 621q-59 0 -92 33.5t-33 85.5q0 49 34.5 82.5t90.5 33.5t90.5 -33.5t34.5 -82.5q0 -52 -33 -85.5t-92 -33.5zM311 781q-18 0 -28.5 -11.5t-10.5 -29.5q0 -17 10 -29t29 -12
q18 0 28 12t10 29q0 18 -10 29.5t-28 11.5z" />
    <glyph glyph-name="uring" unicode="&#x16f;" horiz-adv-x="563" 
d="M345 0l-25 84q-16 -96 -135 -96q-69 0 -108 39.5t-39 117.5v317h202v-274q0 -52 32 -52q25 0 35.5 20t10.5 66v240h202v-462h-175zM279 490q-59 0 -92 33.5t-33 85.5q0 49 34.5 82.5t90.5 33.5t90.5 -33.5t34.5 -82.5q0 -52 -33 -85.5t-92 -33.5zM279 650
q-18 0 -28.5 -11.5t-10.5 -29.5q0 -17 10 -29t29 -12q18 0 28 12t10 29q0 18 -10 29.5t-28 11.5z" />
    <glyph glyph-name="Uhungarumlaut" unicode="&#x170;" horiz-adv-x="622" 
d="M311 -12q-271 0 -271 240v361h205v-340q0 -94 66 -94t66 94v340h205v-361q0 -240 -271 -240zM276 627h-138l37 166h192zM490 627h-156l64 166h211z" />
    <glyph glyph-name="uhungarumlaut" unicode="&#x171;" horiz-adv-x="563" 
d="M345 0l-25 84q-16 -96 -135 -96q-69 0 -108 39.5t-39 117.5v317h202v-274q0 -52 32 -52q25 0 35.5 20t10.5 66v240h202v-462h-175zM239 515h-138l37 166h192zM453 515h-156l64 166h211z" />
    <glyph glyph-name="Uogonek" unicode="&#x172;" horiz-adv-x="622" 
d="M223 -86q0 44 24 78q-207 25 -207 236v361h205v-340q0 -94 66 -94t66 94v340h205v-361q0 -198 -182 -232q-31 -19 -31 -50q0 -33 42 -33q30 0 60 25l40 -100q-53 -49 -142 -49q-63 0 -104.5 29t-41.5 96z" />
    <glyph glyph-name="uogonek" unicode="&#x173;" horiz-adv-x="563" 
d="M269 -86q0 78 75 105l-24 65q-16 -96 -135 -96q-69 0 -108 39.5t-39 117.5v317h202v-274q0 -52 32 -52q25 0 35.5 20t10.5 66v240h202v-462h-37q-33 0 -50.5 -15t-17.5 -35q0 -37 42 -37q30 0 60 25l40 -100q-53 -49 -142 -49q-63 0 -104.5 29t-41.5 96z" />
    <glyph glyph-name="Wcircumflex" unicode="&#x174;" horiz-adv-x="898" 
d="M345 589h212l37 -215q7 -38 12 -80t6 -64l2 -23h4q6 81 22 168l39 214h214l-134 -589h-247l-38 162q-8 31 -15 71t-10 64l-3 24h-4q-9 -90 -23 -159l-33 -162h-247l-134 589h218l39 -214q7 -38 12.5 -80t7.5 -65l2 -23h4q5 80 20 167zM382 790h135l158 -163h-179l-25 32
q-8 10 -12.5 18.5t-5.5 12.5l-1 4h-5q-2 -13 -19 -35l-25 -32h-179z" />
    <glyph glyph-name="wcircumflex" unicode="&#x175;" horiz-adv-x="780" 
d="M302 462h176l28 -154q5 -26 8.5 -60t4.5 -55l1 -21h4q3 78 16 136l34 154h202l-123 -462h-226l-20 103l-18 130h-4q-8 -79 -18 -130l-20 -103h-220l-123 462h202l34 -154q6 -26 10 -60t6 -55l1 -21h4q2 78 13 136zM323 678h135l158 -163h-179l-25 32q-8 10 -12.5 18.5
t-5.5 12.5l-1 4h-5q-2 -13 -19 -35l-25 -32h-179z" />
    <glyph glyph-name="Ycircumflex" unicode="&#x176;" horiz-adv-x="642" 
d="M324 386h4q11 42 49 116l45 87h216l-215 -396v-193h-204v193l-215 396h223l45 -87q17 -33 30 -62t18 -42zM254 790h135l158 -163h-179l-25 32q-8 10 -12.5 18.5t-5.5 12.5l-1 4h-5q-2 -13 -19 -35l-25 -32h-179z" />
    <glyph glyph-name="ycircumflex" unicode="&#x177;" horiz-adv-x="557" 
d="M165 -19l-161 481h215l43 -175q6 -24 10.5 -56t6.5 -53l2 -20h4q8 73 23 127l48 177h197l-151 -436q-76 -234 -265 -234q-76 0 -124 27l40 146q24 -21 58 -21q39 0 54 37zM221 678h135l158 -163h-179l-25 32q-8 10 -12.5 18.5t-5.5 12.5l-1 4h-5q-2 -13 -19 -35l-25 -32
h-179z" />
    <glyph glyph-name="Ydieresis" unicode="&#x178;" horiz-adv-x="642" 
d="M324 386h4q11 42 49 116l45 87h216l-215 -396v-193h-204v193l-215 396h223l45 -87q17 -33 30 -62t18 -42zM111 715q0 46 29 71t71 25t71 -25t29 -71q0 -45 -29 -70t-71 -25t-71 25t-29 70zM331 715q0 46 29 71t71 25t71 -25t29 -71q0 -45 -29 -70t-71 -25t-71 25t-29 70z
" />
    <glyph glyph-name="Zacute" unicode="&#x179;" horiz-adv-x="566" 
d="M523 429l-168 -185q-19 -20 -36 -37t-25 -24l-8 -7v-4q26 4 83 4h165v-176h-499v163l158 179q18 21 35 38.5t24 24.5l8 7v4q-26 -3 -88 -3h-136v176h487v-160zM364 627h-170l65 156h243z" />
    <glyph glyph-name="zacute" unicode="&#x17a;" horiz-adv-x="485" 
d="M446 332l-114 -124l-58 -59v-4q15 4 54 4h127v-149h-425v128l104 118l63 67v4q-29 -3 -67 -3h-96v148h412v-130zM318 515h-170l65 156h243z" />
    <glyph glyph-name="Zdotaccent" unicode="&#x17b;" horiz-adv-x="566" 
d="M523 429l-168 -185q-19 -20 -36 -37t-25 -24l-8 -7v-4q26 4 83 4h165v-176h-499v163l158 179q18 21 35 38.5t24 24.5l8 7v4q-26 -3 -88 -3h-136v176h487v-160zM174 722q0 49 33 76t81 27t81 -27t33 -76t-33 -76t-81 -27t-81 27t-33 76z" />
    <glyph glyph-name="zdotaccent" unicode="&#x17c;" horiz-adv-x="485" 
d="M446 332l-114 -124l-58 -59v-4q15 4 54 4h127v-149h-425v128l104 118l63 67v4q-29 -3 -67 -3h-96v148h412v-130zM128 593q0 49 33 76t81 27t81 -27t33 -76t-33 -76t-81 -27t-81 27t-33 76z" />
    <glyph glyph-name="Zcaron" unicode="&#x17d;" horiz-adv-x="566" 
d="M523 429l-168 -185q-19 -20 -36 -37t-25 -24l-8 -7v-4q26 4 83 4h165v-176h-499v163l158 179q18 21 35 38.5t24 24.5l8 7v4q-26 -3 -88 -3h-136v176h487v-160zM356 627h-135l-158 163h179l25 -32q8 -10 12.5 -18.5t5.5 -12.5l1 -4h5q2 13 19 35l25 32h179z" />
    <glyph glyph-name="zcaron" unicode="&#x17e;" horiz-adv-x="485" 
d="M446 332l-114 -124l-58 -59v-4q15 4 54 4h127v-149h-425v128l104 118l63 67v4q-29 -3 -67 -3h-96v148h412v-130zM310 515h-135l-158 163h179l25 -32q8 -10 12.5 -18.5t5.5 -12.5l1 -4h5q2 13 19 35l25 32h179z" />
    <glyph glyph-name="Schwa" unicode="&#x18f;" horiz-adv-x="602" 
d="M287 420q-50 0 -70 -67l-188 79q30 84 98.5 126.5t157.5 42.5q134 0 213 -79.5t79 -217.5q0 -154 -72 -235t-214 -81q-129 0 -197.5 75t-68.5 198q0 48 9 72h318q0 87 -65 87zM352 242h-106q-4 -8 -4 -30q0 -25 13 -42t39 -17q58 0 58 89z" />
    <glyph glyph-name="florin" unicode="&#x192;" horiz-adv-x="591" 
d="M44 -121l53 220h-67l23 128h69l10 42q29 121 90.5 172.5t167.5 51.5q57 0 108.5 -21t77.5 -57l-93 -143q-11 22 -31.5 36t-42.5 14q-32 0 -46.5 -14.5t-22.5 -49.5l-7 -31h118l-23 -128h-120l-54 -220h-210z" />
    <glyph glyph-name="Khook" unicode="&#x198;" horiz-adv-x="634" 
d="M470 362l-13 -48l177 -314h-238l-112 214h-29v-214h-205v589h205v-205h32l19 62q24 78 61.5 116.5t108.5 38.5q109 0 156 -92l-100 -133q-13 19 -32 19q-21 0 -30 -33z" />
    <glyph glyph-name="khook" unicode="&#x199;" horiz-adv-x="574" 
d="M245 478v-159h23l61 143h226l-109 -214l128 -248h-226l-80 171h-23v-171h-202v468q0 103 53 156t153 53q89 0 151 -42l-49 -136q-26 23 -63 23q-43 0 -43 -44z" />
    <glyph glyph-name="Ezh" unicode="&#x1b7;" horiz-adv-x="534" 
d="M151 278l51 66q15 19 30 36t22 24l8 8v4q-32 -3 -70 -3h-147v176h459v-147l-155 -188v-1q86 -9 130.5 -66.5t44.5 -133.5q0 -101 -69 -165t-193 -64q-112 0 -185.5 43.5t-96.5 130.5l170 92q27 -107 109 -107q30 0 47 17t17 44q0 47 -42.5 73.5t-129.5 26.5v134z" />
    <glyph glyph-name="Acaron" unicode="&#x1cd;" horiz-adv-x="668" 
d="M452 0l-26 80h-194l-24 -80h-204l193 589h273l194 -589h-212zM379 233l-21 81l-29 115h-4q-9 -51 -26 -115l-21 -81h101zM402 627h-135l-158 163h179l25 -32q8 -10 12.5 -18.5t5.5 -12.5l1 -4h5q2 13 19 35l25 32h179z" />
    <glyph glyph-name="acaron" unicode="&#x1ce;" horiz-adv-x="533" 
d="M269 146v37q-6 1 -17 1q-48 0 -48 -38q0 -30 31 -30q34 0 34 30zM469 305v-130q0 -26 21 -26q13 0 28 9v-137q-40 -28 -102 -28q-99 0 -123 72q-19 -73 -128 -73q-72 0 -111 34.5t-39 96.5q0 67 49.5 103.5t135.5 36.5q37 0 69 -4v52q0 26 -21 26q-25 0 -25 -53l-184 27
q5 76 60 119.5t156 43.5q214 0 214 -169zM330 515h-135l-158 163h179l25 -32q8 -10 12.5 -18.5t5.5 -12.5l1 -4h5q2 13 19 35l25 32h179z" />
    <glyph glyph-name="Icaron" unicode="&#x1cf;" horiz-adv-x="305" 
d="M50 589h205v-589h-205v589zM220 627h-135l-158 163h179l25 -32q8 -10 12.5 -18.5t5.5 -12.5l1 -4h5q2 13 19 35l25 32h179z" />
    <glyph glyph-name="icaron" unicode="&#x1d0;" horiz-adv-x="288" 
d="M43 462h202v-462h-202v462zM212 515h-135l-158 163h179l25 -32q8 -10 12.5 -18.5t5.5 -12.5l1 -4h5q2 13 19 35l25 32h179z" />
    <glyph glyph-name="Ocaron" unicode="&#x1d1;" horiz-adv-x="644" 
d="M619 294q0 -148 -77.5 -227t-219.5 -79t-219.5 79t-77.5 227q0 149 77.5 228t219.5 79t219.5 -79t77.5 -228zM405 294q0 68 -19 102t-64 34t-64 -34t-19 -102q0 -67 19 -101t64 -34t64 34t19 101zM390 627h-135l-158 163h179l25 -32q8 -10 12.5 -18.5t5.5 -12.5l1 -4h5
q2 13 19 35l25 32h179z" />
    <glyph glyph-name="ocaron" unicode="&#x1d2;" horiz-adv-x="544" 
d="M18 231q0 116 69 179.5t185 63.5t185 -63.5t69 -179.5t-69 -179.5t-185 -63.5t-185 63.5t-69 179.5zM323 231q0 50 -12 73t-39 23t-39 -23t-12 -73t12 -73t39 -23t39 23t12 73zM340 515h-135l-158 163h179l25 -32q8 -10 12.5 -18.5t5.5 -12.5l1 -4h5q2 13 19 35l25 32
h179z" />
    <glyph glyph-name="Ucaron" unicode="&#x1d3;" horiz-adv-x="622" 
d="M311 -12q-271 0 -271 240v361h205v-340q0 -94 66 -94t66 94v340h205v-361q0 -240 -271 -240zM379 627h-135l-158 163h179l25 -32q8 -10 12.5 -18.5t5.5 -12.5l1 -4h5q2 13 19 35l25 32h179z" />
    <glyph glyph-name="ucaron" unicode="&#x1d4;" horiz-adv-x="563" 
d="M345 0l-25 84q-16 -96 -135 -96q-69 0 -108 39.5t-39 117.5v317h202v-274q0 -52 32 -52q25 0 35.5 20t10.5 66v240h202v-462h-175zM347 515h-135l-158 163h179l25 -32q8 -10 12.5 -18.5t5.5 -12.5l1 -4h5q2 13 19 35l25 32h179z" />
    <glyph glyph-name="uni01D9" unicode="&#x1d9;" horiz-adv-x="622" 
d="M311 -12q-271 0 -271 240v361h205v-340q0 -94 66 -94t66 94v340h205v-361q0 -240 -271 -240zM101 705q0 46 29 71t71 25t71 -25t29 -71q0 -45 -29 -70t-71 -25t-71 25t-29 70zM321 705q0 46 29 71t71 25t71 -25t29 -71q0 -45 -29 -70t-71 -25t-71 25t-29 70zM379 817
h-135l-158 163h179l25 -32q8 -10 12.5 -18.5t5.5 -12.5l1 -4h5q2 13 19 35l25 32h179z" />
    <glyph glyph-name="uni01DA" unicode="&#x1da;" horiz-adv-x="563" 
d="M345 0l-25 84q-16 -96 -135 -96q-69 0 -108 39.5t-39 117.5v317h202v-274q0 -52 32 -52q25 0 35.5 20t10.5 66v240h202v-462h-175zM69 585q0 46 29 71t71 25t71 -25t29 -71q0 -45 -29 -70t-71 -25t-71 25t-29 70zM289 585q0 46 29 71t71 25t71 -25t29 -71q0 -45 -29 -70
t-71 -25t-71 25t-29 70zM347 697h-135l-158 163h179l25 -32q8 -10 12.5 -18.5t5.5 -12.5l1 -4h5q2 13 19 35l25 32h179z" />
    <glyph glyph-name="uni004100A800AF" unicode="&#x1de;" horiz-adv-x="668" 
d="M452 0l-26 80h-194l-24 -80h-204l193 589h273l194 -589h-212zM379 233l-21 81l-29 115h-4q-9 -51 -26 -115l-21 -81h101zM124 695q0 46 29 71t71 25t71 -25t29 -71q0 -45 -29 -70t-71 -25t-71 25t-29 70zM344 695q0 46 29 71t71 25t71 -25t29 -71q0 -45 -29 -70t-71 -25
t-71 25t-29 70zM509 803h-345v141h345v-141z" />
    <glyph glyph-name="adieresismacron" unicode="&#x1df;" horiz-adv-x="533" 
d="M269 146v37q-6 1 -17 1q-48 0 -48 -38q0 -30 31 -30q34 0 34 30zM469 305v-130q0 -26 21 -26q13 0 28 9v-137q-40 -28 -102 -28q-99 0 -123 72q-19 -73 -128 -73q-72 0 -111 34.5t-39 96.5q0 67 49.5 103.5t135.5 36.5q37 0 69 -4v52q0 26 -21 26q-25 0 -25 -53l-184 27
q5 76 60 119.5t156 43.5q214 0 214 -169zM52 574q0 46 29 71t71 25t71 -25t29 -71q0 -45 -29 -70t-71 -25t-71 25t-29 70zM272 574q0 46 29 71t71 25t71 -25t29 -71q0 -45 -29 -70t-71 -25t-71 25t-29 70zM435 689h-345v141h345v-141z" />
    <glyph glyph-name="AEmacron" unicode="&#x1e2;" horiz-adv-x="934" 
d="M460 80h-202l-43 -80h-211l336 589h555v-168h-241v-53h214v-147h-214v-53h245v-168h-439v80zM772 627h-345v141h345v-141zM462 454l-121 -221h119v86l6 135h-4z" />
    <glyph glyph-name="aemacron" unicode="&#x1e3;" horiz-adv-x="739" 
d="M504 137q44 0 57 47l157 -62q-24 -66 -83 -100t-134 -34q-112 0 -178 64q-51 -64 -150 -64q-73 0 -115.5 35.5t-42.5 99.5q0 47 23.5 78t67 43.5t80 16.5t88.5 4v46q0 26 -23 26q-28 0 -28 -53l-184 27q5 76 60 119.5t156 43.5q82 0 126 -26q51 25 126 25q106 0 160 -60
t54 -159q0 -27 -7 -57h-260q0 -60 50 -60zM458 269h76q3 10 3 24q0 39 -35 39q-19 0 -30.5 -17.5t-13.5 -45.5zM274 155v36q-32 0 -51 -11.5t-19 -33.5q0 -30 31 -30q17 0 28 9.5t11 29.5zM541 515h-345v141h345v-141z" />
    <glyph glyph-name="Gstroke" unicode="&#x1e4;" horiz-adv-x="662" 
d="M333 174v69h70v25h-70v69h276v-94h53v-69h-53v-174h-137l-21 65q-34 -77 -162 -77q-117 0 -190.5 75.5t-73.5 228.5q0 149 77.5 229t226.5 80q100 0 171 -44t93 -119l-196 -75q-9 72 -71 72q-88 0 -88 -144q0 -156 93 -156q59 0 70 39h-68z" />
    <glyph glyph-name="gstroke" unicode="&#x1e5;" horiz-adv-x="518" 
d="M-24 -90v35h47q22 24 76 30q-37 8 -59 35.5t-22 67.5q0 42 26.5 70t71.5 34q-90 32 -90 129q0 80 60.5 121.5t163.5 41.5q72 0 131 -23q17 25 19 77l138 -48q-3 -38 -30 -59.5t-61 -24.5q30 -39 30 -85q0 -79 -63 -117t-164 -38q-42 0 -60 6q-17 -3 -17 -18t21 -15h141
q90 0 138 -44t48 -120q0 -3 -0.5 -10t-0.5 -10h33v-35h-41q-43 -121 -272 -121q-235 0 -235 104q0 12 1 17h-30zM215 313q0 -50 35 -50t35 50t-35 50t-35 -50zM174 -28q-33 0 -37 -27h230q-4 27 -50 27h-143zM244 -121q94 0 116 31h-217q17 -31 101 -31z" />
    <glyph glyph-name="Gcaron" unicode="&#x1e6;" horiz-adv-x="651" 
d="M333 331h276v-331h-137l-21 65q-39 -77 -162 -77q-117 0 -190.5 75.5t-73.5 228.5q0 149 77.5 229t226.5 80q100 0 171 -44t93 -119l-196 -81q-9 72 -71 72q-88 0 -88 -138q0 -71 21.5 -105t71.5 -34q35 0 53.5 13t18.5 33v5h-70v128zM391 627h-135l-158 163h179l25 -32
q8 -10 12.5 -18.5t5.5 -12.5l1 -4h5q2 13 19 35l25 32h179z" />
    <glyph glyph-name="gcaron" unicode="&#x1e7;" horiz-adv-x="518" 
d="M250 474q72 0 131 -23q17 25 19 77l138 -48q-3 -38 -30 -59.5t-61 -24.5q30 -39 30 -85q0 -79 -63 -117t-164 -38q-42 0 -60 6q-17 -3 -17 -18t21 -15h141q90 0 138 -44t48 -120q0 -65 -41.5 -106t-101 -55.5t-138.5 -14.5q-235 0 -235 104q0 71 94 82q-37 8 -59 35.5
t-22 67.5q0 42 26.5 70t71.5 34q-90 32 -90 129q0 80 60.5 121.5t163.5 41.5zM153 -73q0 -17 19.5 -24.5t67.5 -7.5q100 0 100 32q0 19 -41 19h-116q-30 0 -30 -19zM215 313q0 -50 35 -50t35 50t-35 50t-35 -50zM339 515h-135l-158 163h179l25 -32q8 -10 12.5 -18.5
t5.5 -12.5l1 -4h5q2 13 19 35l25 32h179z" />
    <glyph glyph-name="Kcaron" unicode="&#x1e8;" horiz-adv-x="634" 
d="M634 0h-238l-112 214h-29v-214h-205v589h205v-205h32l106 205h226l-157 -284zM386 627h-135l-158 163h179l25 -32q8 -10 12.5 -18.5t5.5 -12.5l1 -4h5q2 13 19 35l25 32h179z" />
    <glyph glyph-name="kcaron" unicode="&#x1e9;" horiz-adv-x="574" 
d="M446 248l128 -248h-226l-80 171h-23v-171h-202v668h202v-349h23l61 143h226zM211 695h-135l-158 163h179l25 -32q8 -10 12.5 -18.5t5.5 -12.5l1 -4h5q2 13 19 35l25 32h179z" />
    <glyph glyph-name="Oogonek" unicode="&#x1ea;" horiz-adv-x="644" 
d="M619 294q0 -137 -66.5 -215t-189.5 -89q-22 -17 -22 -44q0 -33 42 -33q30 0 60 25l40 -100q-53 -49 -142 -49q-63 0 -104.5 29t-41.5 96q0 50 32 85q-98 23 -150 98.5t-52 196.5q0 149 77.5 228t219.5 79t219.5 -79t77.5 -228zM405 294q0 68 -19 102t-64 34t-64 -34
t-19 -102q0 -67 19 -101t64 -34t64 34t19 101z" />
    <glyph glyph-name="oogonek" unicode="&#x1eb;" horiz-adv-x="544" 
d="M173 -86q0 48 27 81q-86 18 -134 78.5t-48 157.5q0 116 69 179.5t185 63.5t185 -63.5t69 -179.5q0 -95 -46.5 -155t-128.5 -79q-32 -19 -32 -51q0 -33 42 -33q30 0 60 25l40 -100q-53 -49 -142 -49q-63 0 -104.5 29t-41.5 96zM323 231q0 50 -12 73t-39 23t-39 -23
t-12 -73t12 -73t39 -23t39 23t12 73z" />
    <glyph glyph-name="uni004F02DB00AF" unicode="&#x1ec;" horiz-adv-x="644" 
d="M495 627h-345v141h345v-141zM619 294q0 -137 -66.5 -215t-189.5 -89q-22 -17 -22 -44q0 -33 42 -33q30 0 60 25l40 -100q-53 -49 -142 -49q-63 0 -104.5 29t-41.5 96q0 50 32 85q-98 23 -150 98.5t-52 196.5q0 149 77.5 228t219.5 79t219.5 -79t77.5 -228zM405 294
q0 68 -19 102t-64 34t-64 -34t-19 -102q0 -67 19 -101t64 -34t64 34t19 101z" />
    <glyph glyph-name="oogonekmacron" unicode="&#x1ed;" horiz-adv-x="544" 
d="M445 515h-345v141h345v-141zM173 -86q0 48 27 81q-86 18 -134 78.5t-48 157.5q0 116 69 179.5t185 63.5t185 -63.5t69 -179.5q0 -95 -46.5 -155t-128.5 -79q-32 -19 -32 -51q0 -33 42 -33q30 0 60 25l40 -100q-53 -49 -142 -49q-63 0 -104.5 29t-41.5 96zM323 231
q0 50 -12 73t-39 23t-39 -23t-12 -73t12 -73t39 -23t39 23t12 73z" />
    <glyph glyph-name="Ezhcaron" unicode="&#x1ee;" horiz-adv-x="534" 
d="M151 278l51 66q15 19 30 36t22 24l8 8v4q-32 -3 -70 -3h-147v176h459v-147l-155 -188v-1q86 -9 130.5 -66.5t44.5 -133.5q0 -101 -69 -165t-193 -64q-112 0 -185.5 43.5t-96.5 130.5l170 92q27 -107 109 -107q30 0 47 17t17 44q0 47 -42.5 73.5t-129.5 26.5v134zM348 627
h-135l-158 163h179l25 -32q8 -10 12.5 -18.5t5.5 -12.5l1 -4h5q2 13 19 35l25 32h179z" />
    <glyph glyph-name="ezhcaron" unicode="&#x1ef;" horiz-adv-x="449" 
d="M115 223l35 41l48 48v4q-43 -2 -82 -2h-89v148h390v-136l-118 -116v-3q68 -12 106.5 -54.5t38.5 -109.5q0 -90 -60.5 -142.5t-181.5 -52.5q-88 0 -147 35.5t-77 108.5l168 77q9 -66 59 -66q45 0 45 45q0 31 -31.5 46t-103.5 15v114zM299 515h-135l-158 163h179l25 -32
q8 -10 12.5 -18.5t5.5 -12.5l1 -4h5q2 13 19 35l25 32h179z" />
    <glyph glyph-name="jcaron" unicode="&#x1f0;" horiz-adv-x="288" 
d="M245 462v-450q0 -119 -60.5 -168t-174.5 -49q-59 0 -85 12v165q32 -15 63 -15q30 0 42.5 13t12.5 50v442h202zM208 515h-135l-158 163h179l25 -32q8 -10 12.5 -18.5t5.5 -12.5l1 -4h5q2 13 19 35l25 32h179z" />
    <glyph glyph-name="jcaron" unicode="&#xe10c;" horiz-adv-x="288" 
d="M245 462v-450q0 -119 -60.5 -168t-174.5 -49q-59 0 -85 12v165q32 -15 63 -15q30 0 42.5 13t12.5 50v442h202zM208 515h-135l-158 163h179l25 -32q8 -10 12.5 -18.5t5.5 -12.5l1 -4h5q2 13 19 35l25 32h179z" />
    <glyph glyph-name="Gacute" unicode="&#x1f4;" horiz-adv-x="651" 
d="M333 331h276v-331h-137l-21 65q-39 -77 -162 -77q-117 0 -190.5 75.5t-73.5 228.5q0 149 77.5 229t226.5 80q100 0 171 -44t93 -119l-196 -81q-9 72 -71 72q-88 0 -88 -138q0 -71 21.5 -105t71.5 -34q35 0 53.5 13t18.5 33v5h-70v128zM399 627h-170l65 156h243z" />
    <glyph glyph-name="gacute" unicode="&#x1f5;" horiz-adv-x="518" 
d="M250 474q72 0 131 -23q17 25 19 77l138 -48q-3 -38 -30 -59.5t-61 -24.5q30 -39 30 -85q0 -79 -63 -117t-164 -38q-42 0 -60 6q-17 -3 -17 -18t21 -15h141q90 0 138 -44t48 -120q0 -65 -41.5 -106t-101 -55.5t-138.5 -14.5q-235 0 -235 104q0 71 94 82q-37 8 -59 35.5
t-22 67.5q0 42 26.5 70t71.5 34q-90 32 -90 129q0 80 60.5 121.5t163.5 41.5zM153 -73q0 -17 19.5 -24.5t67.5 -7.5q100 0 100 32q0 19 -41 19h-116q-30 0 -30 -19zM215 313q0 -50 35 -50t35 50t-35 50t-35 -50zM347 515h-170l65 156h243z" />
    <glyph glyph-name="Ngrave" unicode="&#x1f8;" horiz-adv-x="667" 
d="M230 589l118 -173l62 -96h4q-2 48 -2 104v165h205v-589h-170l-126 173l-64 95h-4q2 -46 2 -121v-147h-205v589h180zM419 627h-170l-138 156h243z" />
    <glyph glyph-name="ngrave" unicode="&#x1f9;" horiz-adv-x="569" 
d="M221 462l25 -89q14 50 53 75.5t91 25.5q61 0 100 -37.5t39 -113.5v-323h-202v249q0 30 -8 44t-29 14q-45 0 -45 -71v-236h-202v462h178zM374 515h-170l-138 156h243z" />
    <glyph glyph-name="uni004102DA00B4" unicode="&#x1fa;" horiz-adv-x="668" 
d="M452 0l-26 80h-194l-24 -80h-204l193 589h273l194 -589h-212zM379 233l-21 81l-29 115h-4q-9 -51 -26 -115l-21 -81h101zM334 601q-59 0 -92 33.5t-33 85.5q0 49 34.5 82.5t90.5 33.5t90.5 -33.5t34.5 -82.5q0 -52 -33 -85.5t-92 -33.5zM334 761q-18 0 -28.5 -11.5
t-10.5 -29.5t10 -29.5t29 -11.5q18 0 28 12t10 29q0 18 -10 29.5t-28 11.5zM420 847h-170l65 156h243z" />
    <glyph glyph-name="aringacute" unicode="&#x1fb;" horiz-adv-x="533" 
d="M269 146v37q-6 1 -17 1q-48 0 -48 -38q0 -30 31 -30q34 0 34 30zM469 305v-130q0 -26 21 -26q13 0 28 9v-137q-40 -28 -102 -28q-99 0 -123 72q-19 -73 -128 -73q-72 0 -111 34.5t-39 96.5q0 67 49.5 103.5t135.5 36.5q37 0 69 -4v52q0 26 -21 26q-25 0 -25 -53l-184 27
q5 76 60 119.5t156 43.5q214 0 214 -169zM338 728h-170l65 156h243zM262 483q-59 0 -92 33.5t-33 85.5q0 49 34.5 82.5t90.5 33.5t90.5 -33.5t34.5 -82.5q0 -52 -33 -85.5t-92 -33.5zM262 643q-18 0 -28.5 -11.5t-10.5 -29.5t10 -29.5t29 -11.5q18 0 28 12t10 29
q0 18 -10 29.5t-28 11.5z" />
    <glyph glyph-name="AEacute" unicode="&#x1fc;" horiz-adv-x="934" 
d="M460 80h-202l-43 -80h-211l336 589h555v-168h-241v-53h214v-147h-214v-53h245v-168h-439v80zM679 627h-170l65 156h243zM462 454l-121 -221h119v86l6 135h-4z" />
    <glyph glyph-name="aeacute" unicode="&#x1fd;" horiz-adv-x="739" 
d="M504 137q44 0 57 47l157 -62q-24 -66 -83 -100t-134 -34q-112 0 -178 64q-51 -64 -150 -64q-73 0 -115.5 35.5t-42.5 99.5q0 47 23.5 78t67 43.5t80 16.5t88.5 4v46q0 26 -23 26q-28 0 -28 -53l-184 27q5 76 60 119.5t156 43.5q82 0 126 -26q51 25 126 25q106 0 160 -60
t54 -159q0 -27 -7 -57h-260q0 -60 50 -60zM458 269h76q3 10 3 24q0 39 -35 39q-19 0 -30.5 -17.5t-13.5 -45.5zM274 155v36q-32 0 -51 -11.5t-19 -33.5q0 -30 31 -30q17 0 28 9.5t11 29.5zM444 515h-170l65 156h243z" />
    <glyph glyph-name="Oslashacute" unicode="&#x1fe;" horiz-adv-x="644" 
d="M619 294q0 -148 -77.5 -227t-219.5 -79q-115 0 -188 52l-51 -52l-58 55l53 54q-53 74 -53 197q0 149 77.5 228t219.5 79q120 0 195 -57l56 57l58 -55l-60 -61q48 -76 48 -191zM404 627h-170l65 156h243zM234 294q0 -25 1 -37l149 151q-21 26 -62 26q-48 0 -68 -35
t-20 -105zM411 294q0 19 -1 27l-144 -147q19 -19 56 -19q48 0 68.5 34.5t20.5 104.5z" />
    <glyph glyph-name="oslashacute" unicode="&#x1ff;" horiz-adv-x="544" 
d="M18 39l43 41q-43 58 -43 151q0 116 69 179.5t185 63.5q94 0 159 -43l45 43l50 -51l-44 -41q44 -61 44 -151q0 -116 -69 -179.5t-185 -63.5q-96 0 -159 42l-45 -42zM348 515h-170l65 156h243zM212 231v-8l99 94q-16 14 -39 14q-32 0 -46 -24t-14 -76zM332 231v7l-99 -93
q14 -14 39 -14q32 0 46 24t14 76z" />
    <glyph glyph-name="Adoublegrave" unicode="&#x200;" horiz-adv-x="668" 
d="M452 0l-26 80h-194l-24 -80h-204l193 589h273l194 -589h-212zM379 233l-21 81l-29 115h-4q-9 -51 -26 -115l-21 -81h101zM513 627h-139l-91 166h193zM317 627h-157l-118 166h210z" />
    <glyph glyph-name="edoublegrave" unicode="&#x201;" horiz-adv-x="498" 
d="M263 137q44 0 57 47l157 -62q-24 -66 -83 -100t-134 -34q-110 0 -176 63t-66 172q0 120 65 185t183 65q106 0 160 -59t54 -157q0 -27 -7 -57h-260q0 -63 50 -63zM217 272h76q3 6 3 21q0 39 -35 39q-20 0 -31 -16.5t-13 -43.5zM449 515h-139l-91 166h193zM253 515h-157
l-118 166h210z" />
    <glyph glyph-name="edoublegrave" unicode="&#x205;" horiz-adv-x="498" 
d="M263 137q44 0 57 47l157 -62q-24 -66 -83 -100t-134 -34q-110 0 -176 63t-66 172q0 120 65 185t183 65q106 0 160 -59t54 -157q0 -27 -7 -57h-260q0 -63 50 -63zM217 272h76q3 6 3 21q0 39 -35 39q-20 0 -31 -16.5t-13 -43.5zM449 515h-139l-91 166h193zM253 515h-157
l-118 166h210z" />
    <glyph glyph-name="Ainvertedbreve" unicode="&#x202;" horiz-adv-x="668" 
d="M452 0l-26 80h-194l-24 -80h-204l193 589h273l194 -589h-212zM379 233l-21 81l-29 115h-4q-9 -51 -26 -115l-21 -81h101zM334 801q173 0 173 -174h-138q0 49 -35 49t-35 -49h-138q0 174 173 174z" />
    <glyph glyph-name="ainvertedbreve" unicode="&#x203;" horiz-adv-x="533" 
d="M269 146v37q-6 1 -17 1q-48 0 -48 -38q0 -30 31 -30q34 0 34 30zM469 305v-130q0 -26 21 -26q13 0 28 9v-137q-40 -28 -102 -28q-99 0 -123 72q-19 -73 -128 -73q-72 0 -111 34.5t-39 96.5q0 67 49.5 103.5t135.5 36.5q37 0 69 -4v52q0 26 -21 26q-25 0 -25 -53l-184 27
q5 76 60 119.5t156 43.5q214 0 214 -169zM262 689q173 0 173 -174h-138q0 49 -35 49t-35 -49h-138q0 174 173 174z" />
    <glyph glyph-name="Edoublegrave" unicode="&#x204;" horiz-adv-x="531" 
d="M496 168v-168h-446v589h442v-168h-245v-53h218v-147h-218v-53h249zM454 627h-139l-91 166h193zM258 627h-157l-118 166h210z" />
    <glyph glyph-name="Einvertedbreve" unicode="&#x206;" horiz-adv-x="531" 
d="M496 168v-168h-446v589h442v-168h-245v-53h218v-147h-218v-53h249zM273 801q173 0 173 -174h-138q0 49 -35 49t-35 -49h-138q0 174 173 174z" />
    <glyph glyph-name="einvertedbreve" unicode="&#x207;" horiz-adv-x="498" 
d="M263 137q44 0 57 47l157 -62q-24 -66 -83 -100t-134 -34q-110 0 -176 63t-66 172q0 120 65 185t183 65q106 0 160 -59t54 -157q0 -27 -7 -57h-260q0 -63 50 -63zM217 272h76q3 6 3 21q0 39 -35 39q-20 0 -31 -16.5t-13 -43.5zM261 689q173 0 173 -174h-138q0 49 -35 49
t-35 -49h-138q0 174 173 174z" />
    <glyph glyph-name="Idoublegrave" unicode="&#x208;" horiz-adv-x="305" 
d="M50 589h205v-589h-205v589zM326 627h-139l-91 166h193zM130 627h-157l-118 166h210z" />
    <glyph glyph-name="idoublegrave" unicode="&#x209;" horiz-adv-x="288" 
d="M43 462h202v-462h-202v462zM332 515h-139l-91 166h193zM136 515h-157l-118 166h210z" />
    <glyph glyph-name="Iinvertedbreve" unicode="&#x20a;" horiz-adv-x="305" 
d="M50 589h205v-589h-205v589zM152 801q173 0 173 -174h-138q0 49 -35 49t-35 -49h-138q0 174 173 174z" />
    <glyph glyph-name="iinvertedbreve" unicode="&#x20b;" horiz-adv-x="288" 
d="M43 462h202v-462h-202v462zM144 689q173 0 173 -174h-138q0 49 -35 49t-35 -49h-138q0 174 173 174z" />
    <glyph glyph-name="Odoublegrave" unicode="&#x20c;" horiz-adv-x="644" 
d="M619 294q0 -148 -77.5 -227t-219.5 -79t-219.5 79t-77.5 227q0 149 77.5 228t219.5 79t219.5 -79t77.5 -228zM405 294q0 68 -19 102t-64 34t-64 -34t-19 -102q0 -67 19 -101t64 -34t64 34t19 101zM506 627h-139l-91 166h193zM310 627h-157l-118 166h210z" />
    <glyph glyph-name="odoublegrave" unicode="&#x20d;" horiz-adv-x="544" 
d="M18 231q0 116 69 179.5t185 63.5t185 -63.5t69 -179.5t-69 -179.5t-185 -63.5t-185 63.5t-69 179.5zM323 231q0 50 -12 73t-39 23t-39 -23t-12 -73t12 -73t39 -23t39 23t12 73zM460 515h-139l-91 166h193zM264 515h-157l-118 166h210z" />
    <glyph glyph-name="Oinvertedbreve" unicode="&#x20e;" horiz-adv-x="644" 
d="M619 294q0 -148 -77.5 -227t-219.5 -79t-219.5 79t-77.5 227q0 149 77.5 228t219.5 79t219.5 -79t77.5 -228zM405 294q0 68 -19 102t-64 34t-64 -34t-19 -102q0 -67 19 -101t64 -34t64 34t19 101zM322 801q173 0 173 -174h-138q0 49 -35 49t-35 -49h-138q0 174 173 174z
" />
    <glyph glyph-name="oinvertedbreve" unicode="&#x20f;" horiz-adv-x="544" 
d="M18 231q0 116 69 179.5t185 63.5t185 -63.5t69 -179.5t-69 -179.5t-185 -63.5t-185 63.5t-69 179.5zM323 231q0 50 -12 73t-39 23t-39 -23t-12 -73t12 -73t39 -23t39 23t12 73zM272 689q173 0 173 -174h-138q0 49 -35 49t-35 -49h-138q0 174 173 174z" />
    <glyph glyph-name="Rinvertedbreve" unicode="&#x212;" horiz-adv-x="607" 
d="M607 0h-225q-21 23 -33 73l-10 46q-5 26 -17 36t-34 10h-37v-165h-201v589h285q236 0 236 -190q0 -133 -119 -153v-4q39 -6 60.5 -26.5t32.5 -60.5l22 -78q15 -52 40 -77zM251 416v-96h60q50 0 50 49q0 47 -48 47h-62zM290 801q173 0 173 -174h-138q0 49 -35 49t-35 -49
h-138q0 174 173 174z" />
    <glyph glyph-name="rinvertedbreve" unicode="&#x213;" horiz-adv-x="432" 
d="M432 468l-27 -230q-36 26 -85 26q-32 0 -53.5 -19t-21.5 -61v-184h-202v462h178l20 -131q6 60 45 100t105 40q21 0 41 -3zM237 689q173 0 173 -174h-138q0 49 -35 49t-35 -49h-138q0 174 173 174z" />
    <glyph glyph-name="Udoublegrave" unicode="&#x214;" horiz-adv-x="622" 
d="M311 -12q-271 0 -271 240v361h205v-340q0 -94 66 -94t66 94v340h205v-361q0 -240 -271 -240zM485 627h-139l-91 166h193zM289 627h-157l-118 166h210z" />
    <glyph glyph-name="udoublegrave" unicode="&#x215;" horiz-adv-x="563" 
d="M345 0l-25 84q-16 -96 -135 -96q-69 0 -108 39.5t-39 117.5v317h202v-274q0 -52 32 -52q25 0 35.5 20t10.5 66v240h202v-462h-175zM469 515h-139l-91 166h193zM273 515h-157l-118 166h210z" />
    <glyph glyph-name="Uinvertedbreve" unicode="&#x216;" horiz-adv-x="622" 
d="M311 -12q-271 0 -271 240v361h205v-340q0 -94 66 -94t66 94v340h205v-361q0 -240 -271 -240zM311 801q173 0 173 -174h-138q0 49 -35 49t-35 -49h-138q0 174 173 174z" />
    <glyph glyph-name="uinvertedbreve" unicode="&#x217;" horiz-adv-x="563" 
d="M345 0l-25 84q-16 -96 -135 -96q-69 0 -108 39.5t-39 117.5v317h202v-274q0 -52 32 -52q25 0 35.5 20t10.5 66v240h202v-462h-175zM279 689q173 0 173 -174h-138q0 49 -35 49t-35 -49h-138q0 174 173 174z" />
    <glyph glyph-name="Scommaaccent" unicode="&#x218;" horiz-adv-x="543" 
d="M5 128l186 67q18 -51 67 -51q41 0 41 27q0 23 -45 30q-127 20 -179.5 66.5t-52.5 129.5q0 56 20 96.5t55.5 63.5t79 33.5t95.5 10.5q209 0 243 -152l-197 -44q-7 42 -53 42q-35 0 -35 -25q0 -27 65 -35q223 -27 223 -206q0 -100 -73.5 -146.5t-193.5 -46.5
q-96 0 -161.5 34.5t-84.5 105.5zM365 -138q0 -130 -179 -130v58q78 0 78 31q-90 0 -90 72q0 39 26 59.5t63 20.5q48 0 75 -31t27 -80z" />
    <glyph glyph-name="scommaaccent" unicode="&#x219;" horiz-adv-x="465" 
d="M7 104l175 39q2 -35 35 -35q32 0 32 22t-32 25l-47 4q-155 14 -155 149q0 86 60 126t157 40q184 0 210 -135l-175 -17q0 34 -34 34q-30 0 -30 -22q0 -20 30 -23l50 -4q83 -6 122.5 -47.5t39.5 -107.5q0 -164 -228 -164q-185 0 -210 116zM328 -138q0 -130 -179 -130v58
q78 0 78 31q-90 0 -90 72q0 39 26 59.5t63 20.5q48 0 75 -31t27 -80z" />
    <glyph glyph-name="Hcaron" unicode="&#x21e;" horiz-adv-x="652" 
d="M255 0h-205v589h205v-202h142v202h205v-589h-205v211h-142v-211zM394 627h-135l-158 163h179l25 -32q8 -10 12.5 -18.5t5.5 -12.5l1 -4h5q2 13 19 35l25 32h179z" />
    <glyph glyph-name="hcaron" unicode="&#x21f;" horiz-adv-x="569" 
d="M245 668v-295q17 51 55.5 76t89.5 25q61 0 100 -37.5t39 -113.5v-323h-202v249q0 30 -8 44t-29 14q-45 0 -45 -71v-236h-202v668h202zM211 695h-135l-158 163h179l25 -32q8 -10 12.5 -18.5t5.5 -12.5l1 -4h5q2 13 19 35l25 32h179z" />
    <glyph glyph-name="Adotabove" unicode="&#x226;" horiz-adv-x="668" 
d="M452 0l-26 80h-194l-24 -80h-204l193 589h273l194 -589h-212zM379 233l-21 81l-29 115h-4q-9 -51 -26 -115l-21 -81h101zM220 722q0 49 33 76t81 27t81 -27t33 -76t-33 -76t-81 -27t-81 27t-33 76z" />
    <glyph glyph-name="adotabove" unicode="&#x227;" horiz-adv-x="533" 
d="M269 146v37q-6 1 -17 1q-48 0 -48 -38q0 -30 31 -30q34 0 34 30zM469 305v-130q0 -26 21 -26q13 0 28 9v-137q-40 -28 -102 -28q-99 0 -123 72q-19 -73 -128 -73q-72 0 -111 34.5t-39 96.5q0 67 49.5 103.5t135.5 36.5q37 0 69 -4v52q0 26 -21 26q-25 0 -25 -53l-184 27
q5 76 60 119.5t156 43.5q214 0 214 -169zM148 593q0 49 33 76t81 27t81 -27t33 -76t-33 -76t-81 -27t-81 27t-33 76z" />
    <glyph glyph-name="Otildemacron" unicode="&#x22c;" horiz-adv-x="644" 
d="M619 294q0 -148 -77.5 -227t-219.5 -79t-219.5 79t-77.5 227q0 149 77.5 228t219.5 79t219.5 -79t77.5 -228zM405 294q0 68 -19 102t-64 34t-64 -34t-19 -102q0 -67 19 -101t64 -34t64 34t19 101zM132 678q0 52 29 81t75 29q37 0 82 -26q36 -21 51 -21q33 0 33 44h100
q10 -38 10 -70q0 -52 -29 -81t-75 -29q-37 0 -82 26q-36 21 -51 21q-33 0 -33 -44h-100q-10 38 -10 70zM495 800h-345v141h345v-141z" />
    <glyph glyph-name="otildemacron" unicode="&#x22d;" horiz-adv-x="544" 
d="M18 231q0 116 69 179.5t185 63.5t185 -63.5t69 -179.5t-69 -179.5t-185 -63.5t-185 63.5t-69 179.5zM323 231q0 50 -12 73t-39 23t-39 -23t-12 -73t12 -73t39 -23t39 23t12 73zM82 552q0 52 29 81t75 29q37 0 82 -26q36 -21 51 -21q33 0 33 44h100q10 -38 10 -70
q0 -52 -29 -81t-75 -29q-37 0 -82 26q-36 21 -51 21q-33 0 -33 -44h-100q-10 38 -10 70zM445 677h-345v141h345v-141z" />
    <glyph glyph-name="Odotabove" unicode="&#x22e;" horiz-adv-x="644" 
d="M619 294q0 -148 -77.5 -227t-219.5 -79t-219.5 79t-77.5 227q0 149 77.5 228t219.5 79t219.5 -79t77.5 -228zM405 294q0 68 -19 102t-64 34t-64 -34t-19 -102q0 -67 19 -101t64 -34t64 34t19 101zM208 722q0 49 33 76t81 27t81 -27t33 -76t-33 -76t-81 -27t-81 27t-33 76
z" />
    <glyph glyph-name="odotabove" unicode="&#x22f;" horiz-adv-x="544" 
d="M18 231q0 116 69 179.5t185 63.5t185 -63.5t69 -179.5t-69 -179.5t-185 -63.5t-185 63.5t-69 179.5zM323 231q0 50 -12 73t-39 23t-39 -23t-12 -73t12 -73t39 -23t39 23t12 73zM158 593q0 49 33 76t81 27t81 -27t33 -76t-33 -76t-81 -27t-81 27t-33 76z" />
    <glyph glyph-name="odotabovemacron" unicode="&#x231;" horiz-adv-x="544" 
d="M18 231q0 116 69 179.5t185 63.5t185 -63.5t69 -179.5t-69 -179.5t-185 -63.5t-185 63.5t-69 179.5zM323 231q0 50 -12 73t-39 23t-39 -23t-12 -73t12 -73t39 -23t39 23t12 73zM158 591q0 49 33 76t81 27t81 -27t33 -76t-33 -76t-81 -27t-81 27t-33 76zM445 711h-345v141
h345v-141z" />
    <glyph glyph-name="odotabovemacron" unicode="&#xe11e;" horiz-adv-x="544" 
d="M18 231q0 116 69 179.5t185 63.5t185 -63.5t69 -179.5t-69 -179.5t-185 -63.5t-185 63.5t-69 179.5zM323 231q0 50 -12 73t-39 23t-39 -23t-12 -73t12 -73t39 -23t39 23t12 73zM158 591q0 49 33 76t81 27t81 -27t33 -76t-33 -76t-81 -27t-81 27t-33 76zM445 711h-345v141
h345v-141z" />
    <glyph glyph-name="Ymacron" unicode="&#x232;" horiz-adv-x="642" 
d="M324 386h4q11 42 49 116l45 87h216l-215 -396v-193h-204v193l-215 396h223l45 -87q17 -33 30 -62t18 -42zM494 627h-345v141h345v-141z" />
    <glyph glyph-name="ymacron" unicode="&#x233;" horiz-adv-x="557" 
d="M165 -19l-161 481h215l43 -175q6 -24 10.5 -56t6.5 -53l2 -20h4q8 73 23 127l48 177h197l-151 -436q-76 -234 -265 -234q-76 0 -124 27l40 146q24 -21 58 -21q39 0 54 37zM461 515h-345v141h345v-141z" />
    <glyph glyph-name="dotlessj" unicode="&#x237;" horiz-adv-x="288" 
d="M245 462v-450q0 -119 -60.5 -168t-174.5 -49q-59 0 -85 12v165q32 -15 63 -15q30 0 42.5 13t12.5 50v442h202z" />
    <glyph glyph-name="schwa" unicode="&#x259;" horiz-adv-x="498" 
d="M235 324q-44 0 -57 -47l-157 62q24 66 83 100t134 34q110 0 176 -63t66 -172q0 -120 -65 -185t-183 -65q-106 0 -160 59t-54 157q0 27 7 57h260q0 63 -50 63zM281 189h-76q-3 -6 -3 -21q0 -39 35 -39q20 0 31 16.5t13 43.5z" />
    <glyph glyph-name="ezh" unicode="&#x292;" horiz-adv-x="449" 
d="M115 223l35 41l48 48v4q-43 -2 -82 -2h-89v148h390v-136l-118 -116v-3q68 -12 106.5 -54.5t38.5 -109.5q0 -90 -60.5 -142.5t-181.5 -52.5q-88 0 -147 35.5t-77 108.5l168 77q9 -66 59 -66q45 0 45 45q0 31 -31.5 46t-103.5 15v114z" />
    <glyph glyph-name="circumflex" unicode="&#x2c6;" 
d="M182 678h135l158 -163h-179l-25 32q-8 10 -12.5 18.5t-5.5 12.5l-1 4h-5q-2 -13 -19 -35l-25 -32h-179z" />
    <glyph glyph-name="caron" unicode="&#x2c7;" 
d="M317 515h-135l-158 163h179l25 -32q8 -10 12.5 -18.5t5.5 -12.5l1 -4h5q2 13 19 35l25 32h179z" />
    <glyph glyph-name="breve" unicode="&#x2d8;" 
d="M250 510q-173 0 -173 174h138q0 -49 35 -49t35 49h138q0 -174 -173 -174z" />
    <glyph glyph-name="dotaccent" unicode="&#x2d9;" 
d="M136 593q0 49 33 76t81 27t81 -27t33 -76t-33 -76t-81 -27t-81 27t-33 76z" />
    <glyph glyph-name="ring" unicode="&#x2da;" 
d="M250 490q-59 0 -92 33.5t-33 85.5q0 49 34.5 82.5t90.5 33.5t90.5 -33.5t34.5 -82.5q0 -52 -33 -85.5t-92 -33.5zM250 650q-18 0 -28.5 -11.5t-10.5 -29.5q0 -17 10 -29t29 -12q18 0 28 12t10 29q0 18 -10 29.5t-28 11.5z" />
    <glyph glyph-name="ogonek" unicode="&#x2db;" 
d="M106 -86q0 69 53.5 106t122.5 36l58 -38q-43 -12 -65.5 -28.5t-22.5 -43.5q0 -33 42 -33q30 0 60 25l40 -100q-53 -49 -142 -49q-63 0 -104.5 29t-41.5 96z" />
    <glyph glyph-name="tilde" unicode="&#x2dc;" 
d="M60 580q0 52 29 81t75 29q37 0 82 -26q36 -21 51 -21q33 0 33 44h100q10 -38 10 -70q0 -52 -29 -81t-75 -29q-37 0 -82 26q-36 21 -51 21q-33 0 -33 -44h-100q-10 38 -10 70z" />
    <glyph glyph-name="hungarumlaut" unicode="&#x2dd;" 
d="M152 515h-138l37 166h192zM366 515h-156l64 166h211z" />
    <glyph glyph-name="uni0312" unicode="&#x312;" 
d="M154 733q0 130 179 130v-58q-78 0 -78 -31q90 0 90 -72q0 -39 -26 -59.5t-63 -20.5q-48 0 -75 31t-27 80z" />
    <glyph glyph-name="uni0320" unicode="&#x320;" 
d="M422 -192h-345v141h345v-141z" />
    <glyph glyph-name="uni0323" unicode="&#x323;" 
d="M143 -130q0 46 31.5 71.5t75.5 25.5q45 0 76.5 -25.5t31.5 -71.5t-31.5 -71.5t-76.5 -25.5q-44 0 -75.5 25.5t-31.5 71.5z" />
    <glyph glyph-name="uni0329" unicode="&#x329;" 
d="M145 -239v213h210v-197z" />
    <glyph glyph-name="pi" unicode="&#x3c0;" horiz-adv-x="834" 
d="M215 481h530v-155h-86v-133q0 -41 35 -41q37 0 67 37l43 -125q-50 -76 -172 -76q-175 0 -175 189v149h-37l-51 -326h-199l53 326h-18q-31 0 -31 -49h-144q0 42 6.5 73.5t24.5 63.5t57 49.5t97 17.5z" />
    <glyph glyph-name="uni0E3F" unicode="&#xe3f;" horiz-adv-x="562" 
d="M242 -94v94h-192v481h192v94h84v-94h41q73 0 112 -32.5t39 -94.5q0 -91 -87 -107v-6q108 -12 108 -114q0 -65 -47.5 -96t-130.5 -31h-35v-94h-84zM246 195v-67h54q33 0 33 33q0 34 -33 34h-54zM246 291h39q38 0 38 32q0 33 -38 33h-39v-65z" />
    <glyph glyph-name="Ddotbelow" unicode="&#x1e0c;" horiz-adv-x="636" 
d="M255 169h27q66 0 90.5 24t24.5 104q0 66 -25 94.5t-82 28.5h-35v-251zM299 0h-249v589h267q138 0 216 -71t78 -221q0 -157 -80 -227t-232 -70zM191 -126q0 46 31.5 71.5t75.5 25.5q45 0 76.5 -25.5t31.5 -71.5t-31.5 -71.5t-76.5 -25.5q-44 0 -75.5 25.5t-31.5 71.5z" />
    <glyph glyph-name="ddotbelow" unicode="&#x1e0d;" horiz-adv-x="586" 
d="M367 0l-26 80q-12 -44 -49 -68t-89 -24q-89 0 -137 63t-48 176q0 119 52 183t145 64q97 0 126 -71v265h202v-668h-176zM341 221v30q0 36 -14.5 56t-39.5 20q-34 0 -47.5 -24.5t-13.5 -74.5q0 -85 57 -85q27 0 42.5 20.5t15.5 57.5zM193 -126q0 46 31.5 71.5t75.5 25.5
q45 0 76.5 -25.5t31.5 -71.5t-31.5 -71.5t-76.5 -25.5q-44 0 -75.5 25.5t-31.5 71.5z" />
    <glyph glyph-name="Dcedilla" unicode="&#x1e10;" horiz-adv-x="636" 
d="M405 -116q0 -45 -33.5 -70t-89.5 -25q-78 0 -123 35l27 76q29 -24 60 -24q26 0 26 20q0 25 -40 25l12 79h-194v589h267q138 0 216 -71t78 -221q0 -155 -78 -225t-227 -72l-3 -30q45 0 73.5 -22t28.5 -64zM255 169h27q66 0 90.5 24t24.5 104q0 66 -25 94.5t-82 28.5h-35
v-251z" />
    <glyph glyph-name="dcedilla" unicode="&#x1e11;" horiz-adv-x="586" 
d="M367 0l-26 80q-12 -44 -49 -68t-89 -24q-89 0 -137 63t-48 176q0 119 52 183t145 64q97 0 126 -71v265h202v-668h-176zM341 221v30q0 36 -14.5 56t-39.5 20q-34 0 -47.5 -24.5t-13.5 -74.5q0 -85 57 -85q27 0 42.5 20.5t15.5 57.5zM443 -116q0 -45 -33.5 -70t-89.5 -25
q-78 0 -123 35l27 76q29 -24 60 -24q26 0 26 20q0 25 -40 25l9 52q21 6 46 6q54 0 86 -23.5t32 -71.5z" />
    <glyph glyph-name="Hdotbelow" unicode="&#x1e24;" horiz-adv-x="652" 
d="M255 0h-205v589h205v-202h142v202h205v-589h-205v211h-142v-211zM219 -126q0 46 31.5 71.5t75.5 25.5q45 0 76.5 -25.5t31.5 -71.5t-31.5 -71.5t-76.5 -25.5q-44 0 -75.5 25.5t-31.5 71.5z" />
    <glyph glyph-name="hdotbelow" unicode="&#x1e25;" horiz-adv-x="569" 
d="M245 668v-295q17 51 55.5 76t89.5 25q61 0 100 -37.5t39 -113.5v-323h-202v249q0 30 -8 44t-29 14q-45 0 -45 -71v-236h-202v668h202zM179 -126q0 46 31.5 71.5t75.5 25.5q45 0 76.5 -25.5t31.5 -71.5t-31.5 -71.5t-76.5 -25.5q-44 0 -75.5 25.5t-31.5 71.5z" />
    <glyph glyph-name="Ldotbelow" unicode="&#x1e36;" horiz-adv-x="485" 
d="M50 589h205v-413h205v-176h-410v589zM148 -126q0 46 31.5 71.5t75.5 25.5q45 0 76.5 -25.5t31.5 -71.5t-31.5 -71.5t-76.5 -25.5q-44 0 -75.5 25.5t-31.5 71.5z" />
    <glyph glyph-name="ldotbelow" unicode="&#x1e37;" horiz-adv-x="309" 
d="M299 167l-7 -150q-36 -26 -110 -26q-62 0 -105.5 34.5t-43.5 111.5v531h202v-473q0 -38 27 -38q18 0 37 10zM59 -126q0 46 31.5 71.5t75.5 25.5q45 0 76.5 -25.5t31.5 -71.5t-31.5 -71.5t-76.5 -25.5q-44 0 -75.5 25.5t-31.5 71.5z" />
    <glyph glyph-name="uni004C032300AF" unicode="&#x1e38;" horiz-adv-x="485" 
d="M50 589h205v-413h205v-176h-410v589zM328 627h-345v141h345v-141zM148 -126q0 46 31.5 71.5t75.5 25.5q45 0 76.5 -25.5t31.5 -71.5t-31.5 -71.5t-76.5 -25.5q-44 0 -75.5 25.5t-31.5 71.5z" />
    <glyph glyph-name="ldotbelowmacron" unicode="&#x1e39;" horiz-adv-x="309" 
d="M299 167l-7 -150q-36 -26 -110 -26q-62 0 -105.5 34.5t-43.5 111.5v531h202v-473q0 -38 27 -38q18 0 37 10zM310 695h-345v141h345v-141zM59 -126q0 46 31.5 71.5t75.5 25.5q45 0 76.5 -25.5t31.5 -71.5t-31.5 -71.5t-76.5 -25.5q-44 0 -75.5 25.5t-31.5 71.5z" />
    <glyph glyph-name="Mdotbelow" unicode="&#x1e42;" horiz-adv-x="762" 
d="M436 107h-110l-34 72l-36 88h-4q3 -50 3 -104v-163h-205v589h223l61 -128q15 -31 26 -58t15 -39l4 -12h4q12 40 45 109l61 128h223v-589h-205v163l3 104h-4q-19 -53 -36 -88zM274 -126q0 46 31.5 71.5t75.5 25.5q45 0 76.5 -25.5t31.5 -71.5t-31.5 -71.5t-76.5 -25.5
q-44 0 -75.5 25.5t-31.5 71.5z" />
    <glyph glyph-name="mdotbelow" unicode="&#x1e43;" horiz-adv-x="819" 
d="M504 368q12 49 51 77.5t89 28.5q62 0 98.5 -37t36.5 -114v-323h-202v252q0 29 -6.5 42t-24.5 13q-34 0 -34 -71v-236h-202v252q0 29 -6.5 42t-24.5 13q-34 0 -34 -71v-236h-202v462h178l25 -87q24 99 131 99t127 -106zM304 -126q0 46 31.5 71.5t75.5 25.5
q45 0 76.5 -25.5t31.5 -71.5t-31.5 -71.5t-76.5 -25.5q-44 0 -75.5 25.5t-31.5 71.5z" />
    <glyph glyph-name="Ndotaccent" unicode="&#x1e44;" horiz-adv-x="667" 
d="M230 589l118 -173l62 -96h4q-2 48 -2 104v165h205v-589h-170l-126 173l-64 95h-4q2 -46 2 -121v-147h-205v589h180zM219 722q0 49 33 76t81 27t81 -27t33 -76t-33 -76t-81 -27t-81 27t-33 76z" />
    <glyph glyph-name="ndotaccent" unicode="&#x1e45;" horiz-adv-x="569" 
d="M221 462l25 -89q14 50 53 75.5t91 25.5q61 0 100 -37.5t39 -113.5v-323h-202v249q0 30 -8 44t-29 14q-45 0 -45 -71v-236h-202v462h178zM172 593q0 49 33 76t81 27t81 -27t33 -76t-33 -76t-81 -27t-81 27t-33 76z" />
    <glyph glyph-name="Ndotbelow" unicode="&#x1e46;" horiz-adv-x="667" 
d="M230 589l118 -173l62 -96h4q-2 48 -2 104v165h205v-589h-170l-126 173l-64 95h-4q2 -46 2 -121v-147h-205v589h180zM236 -126q0 46 31.5 71.5t75.5 25.5q45 0 76.5 -25.5t31.5 -71.5t-31.5 -71.5t-76.5 -25.5q-44 0 -75.5 25.5t-31.5 71.5z" />
    <glyph glyph-name="ndotbelow" unicode="&#x1e47;" horiz-adv-x="569" 
d="M221 462l25 -89q14 50 53 75.5t91 25.5q61 0 100 -37.5t39 -113.5v-323h-202v249q0 30 -8 44t-29 14q-45 0 -45 -71v-236h-202v462h178zM179 -126q0 46 31.5 71.5t75.5 25.5q45 0 76.5 -25.5t31.5 -71.5t-31.5 -71.5t-76.5 -25.5q-44 0 -75.5 25.5t-31.5 71.5z" />
    <glyph glyph-name="Rdotbelow" unicode="&#x1e5a;" horiz-adv-x="607" 
d="M607 0h-225q-21 23 -33 73l-10 46q-5 26 -17 36t-34 10h-37v-165h-201v589h285q236 0 236 -190q0 -133 -119 -153v-4q39 -6 60.5 -26.5t32.5 -60.5l22 -78q15 -52 40 -77zM251 416v-96h60q50 0 50 49q0 47 -48 47h-62zM203 -126q0 46 31.5 71.5t75.5 25.5
q45 0 76.5 -25.5t31.5 -71.5t-31.5 -71.5t-76.5 -25.5q-44 0 -75.5 25.5t-31.5 71.5z" />
    <glyph glyph-name="rdotbelow" unicode="&#x1e5b;" horiz-adv-x="432" 
d="M432 468l-27 -230q-36 26 -85 26q-32 0 -53.5 -19t-21.5 -61v-184h-202v462h178l20 -131q6 60 45 100t105 40q21 0 41 -3zM44 -126q0 46 31.5 71.5t75.5 25.5q45 0 76.5 -25.5t31.5 -71.5t-31.5 -71.5t-76.5 -25.5q-44 0 -75.5 25.5t-31.5 71.5z" />
    <glyph glyph-name="Rdotbelowmacron" unicode="&#x1e5c;" horiz-adv-x="607" 
d="M607 0h-225q-21 23 -33 73l-10 46q-5 26 -17 36t-34 10h-37v-165h-201v589h285q236 0 236 -190q0 -133 -119 -153v-4q39 -6 60.5 -26.5t32.5 -60.5l22 -78q15 -52 40 -77zM251 416v-96h60q50 0 50 49q0 47 -48 47h-62zM203 -126q0 46 31.5 71.5t75.5 25.5
q45 0 76.5 -25.5t31.5 -71.5t-31.5 -71.5t-76.5 -25.5q-44 0 -75.5 25.5t-31.5 71.5zM463 627h-345v141h345v-141z" />
    <glyph glyph-name="rdotbelowmacron" unicode="&#x1e5d;" horiz-adv-x="432" 
d="M432 468l-27 -230q-36 26 -85 26q-32 0 -53.5 -19t-21.5 -61v-184h-202v462h178l20 -131q6 60 45 100t105 40q21 0 41 -3zM38 -126q0 46 31.5 71.5t75.5 25.5q45 0 76.5 -25.5t31.5 -71.5t-31.5 -71.5t-76.5 -25.5q-44 0 -75.5 25.5t-31.5 71.5zM410 515h-345v141h345
v-141z" />
    <glyph glyph-name="Sdotbelow" unicode="&#x1e62;" horiz-adv-x="543" 
d="M5 128l186 67q18 -51 67 -51q41 0 41 27q0 23 -45 30q-127 20 -179.5 66.5t-52.5 129.5q0 56 20 96.5t55.5 63.5t79 33.5t95.5 10.5q209 0 243 -152l-197 -44q-7 42 -53 42q-35 0 -35 -25q0 -27 65 -35q223 -27 223 -206q0 -100 -73.5 -146.5t-193.5 -46.5
q-96 0 -161.5 34.5t-84.5 105.5zM162 -126q0 46 31.5 71.5t75.5 25.5q45 0 76.5 -25.5t31.5 -71.5t-31.5 -71.5t-76.5 -25.5q-44 0 -75.5 25.5t-31.5 71.5z" />
    <glyph glyph-name="sdotbelow" unicode="&#x1e63;" horiz-adv-x="465" 
d="M7 104l175 39q2 -35 35 -35q32 0 32 22t-32 25l-47 4q-155 14 -155 149q0 86 60 126t157 40q184 0 210 -135l-175 -17q0 34 -34 34q-30 0 -30 -22q0 -20 30 -23l50 -4q83 -6 122.5 -47.5t39.5 -107.5q0 -164 -228 -164q-185 0 -210 116zM125 -126q0 46 31.5 71.5
t75.5 25.5q45 0 76.5 -25.5t31.5 -71.5t-31.5 -71.5t-76.5 -25.5q-44 0 -75.5 25.5t-31.5 71.5z" />
    <glyph glyph-name="Tdotbelow" unicode="&#x1e6c;" horiz-adv-x="537" 
d="M369 0h-205v413h-144v176h497v-176h-148v-413zM161 -126q0 46 31.5 71.5t75.5 25.5q45 0 76.5 -25.5t31.5 -71.5t-31.5 -71.5t-76.5 -25.5q-44 0 -75.5 25.5t-31.5 71.5z" />
    <glyph glyph-name="tdotbelow" unicode="&#x1e6d;" horiz-adv-x="407" 
d="M362 190l33 -154q-57 -48 -162 -48q-87 0 -129.5 42.5t-42.5 135.5v148h-55v148h57v98l194 22v-120h111v-148h-112v-109q0 -46 39 -46q40 0 67 31zM117 -126q0 46 31.5 71.5t75.5 25.5q45 0 76.5 -25.5t31.5 -71.5t-31.5 -71.5t-76.5 -25.5q-44 0 -75.5 25.5t-31.5 71.5z
" />
    <glyph glyph-name="Wgrave" unicode="&#x1e80;" horiz-adv-x="898" 
d="M345 589h212l37 -215q7 -38 12 -80t6 -64l2 -23h4q6 81 22 168l39 214h214l-134 -589h-247l-38 162q-8 31 -15 71t-10 64l-3 24h-4q-9 -90 -23 -159l-33 -162h-247l-134 589h218l39 -214q7 -38 12.5 -80t7.5 -65l2 -23h4q5 80 20 167zM535 627h-170l-138 156h243z" />
    <glyph glyph-name="wgrave" unicode="&#x1e81;" horiz-adv-x="780" 
d="M302 462h176l28 -154q5 -26 8.5 -60t4.5 -55l1 -21h4q3 78 16 136l34 154h202l-123 -462h-226l-20 103l-18 130h-4q-8 -79 -18 -130l-20 -103h-220l-123 462h202l34 -154q6 -26 10 -60t6 -55l1 -21h4q2 78 13 136zM478 515h-170l-138 156h243z" />
    <glyph glyph-name="Wacute" unicode="&#x1e82;" horiz-adv-x="898" 
d="M345 589h212l37 -215q7 -38 12 -80t6 -64l2 -23h4q6 81 22 168l39 214h214l-134 -589h-247l-38 162q-8 31 -15 71t-10 64l-3 24h-4q-9 -90 -23 -159l-33 -162h-247l-134 589h218l39 -214q7 -38 12.5 -80t7.5 -65l2 -23h4q5 80 20 167zM525 627h-170l65 156h243z" />
    <glyph glyph-name="wacute" unicode="&#x1e83;" horiz-adv-x="780" 
d="M302 462h176l28 -154q5 -26 8.5 -60t4.5 -55l1 -21h4q3 78 16 136l34 154h202l-123 -462h-226l-20 103l-18 130h-4q-8 -79 -18 -130l-20 -103h-220l-123 462h202l34 -154q6 -26 10 -60t6 -55l1 -21h4q2 78 13 136zM478 515h-170l65 156h243z" />
    <glyph glyph-name="Wdieresis" unicode="&#x1e84;" horiz-adv-x="898" 
d="M345 589h212l37 -215q7 -38 12 -80t6 -64l2 -23h4q6 81 22 168l39 214h214l-134 -589h-247l-38 162q-8 31 -15 71t-10 64l-3 24h-4q-9 -90 -23 -159l-33 -162h-247l-134 589h218l39 -214q7 -38 12.5 -80t7.5 -65l2 -23h4q5 80 20 167zM239 715q0 46 29 71t71 25t71 -25
t29 -71q0 -45 -29 -70t-71 -25t-71 25t-29 70zM459 715q0 46 29 71t71 25t71 -25t29 -71q0 -45 -29 -70t-71 -25t-71 25t-29 70z" />
    <glyph glyph-name="wdieresis" unicode="&#x1e85;" horiz-adv-x="780" 
d="M302 462h176l28 -154q5 -26 8.5 -60t4.5 -55l1 -21h4q3 78 16 136l34 154h202l-123 -462h-226l-20 103l-18 130h-4q-8 -79 -18 -130l-20 -103h-220l-123 462h202l34 -154q6 -26 10 -60t6 -55l1 -21h4q2 78 13 136zM180 590q0 46 29 71t71 25t71 -25t29 -71q0 -45 -29 -70
t-71 -25t-71 25t-29 70zM400 590q0 46 29 71t71 25t71 -25t29 -71q0 -45 -29 -70t-71 -25t-71 25t-29 70z" />
    <glyph glyph-name="Idotbelow" unicode="&#x1eca;" horiz-adv-x="305" 
d="M50 589h205v-589h-205v589zM45 -126q0 46 31.5 71.5t75.5 25.5q45 0 76.5 -25.5t31.5 -71.5t-31.5 -71.5t-76.5 -25.5q-44 0 -75.5 25.5t-31.5 71.5z" />
    <glyph glyph-name="idotbelow" unicode="&#x1ecb;" horiz-adv-x="288" 
d="M43 462h202v-462h-202v462zM30 593q0 49 33 76t81 27t81 -27t33 -76t-33 -76t-81 -27t-81 27t-33 76zM37 -126q0 46 31.5 71.5t75.5 25.5q45 0 76.5 -25.5t31.5 -71.5t-31.5 -71.5t-76.5 -25.5q-44 0 -75.5 25.5t-31.5 71.5z" />
    <glyph glyph-name="Odotbelow" unicode="&#x1ecc;" horiz-adv-x="644" 
d="M619 294q0 -148 -77.5 -227t-219.5 -79t-219.5 79t-77.5 227q0 149 77.5 228t219.5 79t219.5 -79t77.5 -228zM405 294q0 68 -19 102t-64 34t-64 -34t-19 -102q0 -67 19 -101t64 -34t64 34t19 101zM215 -126q0 46 31.5 71.5t75.5 25.5q45 0 76.5 -25.5t31.5 -71.5
t-31.5 -71.5t-76.5 -25.5q-44 0 -75.5 25.5t-31.5 71.5z" />
    <glyph glyph-name="odotbelow" unicode="&#x1ecd;" horiz-adv-x="544" 
d="M18 231q0 116 69 179.5t185 63.5t185 -63.5t69 -179.5t-69 -179.5t-185 -63.5t-185 63.5t-69 179.5zM323 231q0 50 -12 73t-39 23t-39 -23t-12 -73t12 -73t39 -23t39 23t12 73zM165 -126q0 46 31.5 71.5t75.5 25.5q45 0 76.5 -25.5t31.5 -71.5t-31.5 -71.5t-76.5 -25.5
q-44 0 -75.5 25.5t-31.5 71.5z" />
    <glyph glyph-name="Udotbelow" unicode="&#x1ee4;" horiz-adv-x="622" 
d="M311 -12q-271 0 -271 240v361h205v-340q0 -94 66 -94t66 94v340h205v-361q0 -240 -271 -240zM204 -126q0 46 31.5 71.5t75.5 25.5q45 0 76.5 -25.5t31.5 -71.5t-31.5 -71.5t-76.5 -25.5q-44 0 -75.5 25.5t-31.5 71.5z" />
    <glyph glyph-name="udotbelow" unicode="&#x1ee5;" horiz-adv-x="563" 
d="M345 0l-25 84q-16 -96 -135 -96q-69 0 -108 39.5t-39 117.5v317h202v-274q0 -52 32 -52q25 0 35.5 20t10.5 66v240h202v-462h-175zM172 -126q0 46 31.5 71.5t75.5 25.5q45 0 76.5 -25.5t31.5 -71.5t-31.5 -71.5t-76.5 -25.5q-44 0 -75.5 25.5t-31.5 71.5z" />
    <glyph glyph-name="Ygrave" unicode="&#x1ef2;" horiz-adv-x="642" 
d="M324 386h4q11 42 49 116l45 87h216l-215 -396v-193h-204v193l-215 396h223l45 -87q17 -33 30 -62t18 -42zM407 627h-170l-138 156h243z" />
    <glyph glyph-name="ygrave" unicode="&#x1ef3;" horiz-adv-x="557" 
d="M165 -19l-161 481h215l43 -175q6 -24 10.5 -56t6.5 -53l2 -20h4q8 73 23 127l48 177h197l-151 -436q-76 -234 -265 -234q-76 0 -124 27l40 146q24 -21 58 -21q39 0 54 37zM376 515h-170l-138 156h243z" />
    <glyph glyph-name="Ytilde" unicode="&#x1ef8;" horiz-adv-x="642" 
d="M324 386h4q11 42 49 116l45 87h216l-215 -396v-193h-204v193l-215 396h223l45 -87q17 -33 30 -62t18 -42zM131 697q0 52 29 81t75 29q37 0 82 -26q36 -21 51 -21q33 0 33 44h100q10 -38 10 -70q0 -52 -29 -81t-75 -29q-37 0 -82 26q-36 21 -51 21q-33 0 -33 -44h-100
q-10 38 -10 70z" />
    <glyph glyph-name="ytilde" unicode="&#x1ef9;" horiz-adv-x="557" 
d="M165 -19l-161 481h215l43 -175q6 -24 10.5 -56t6.5 -53l2 -20h4q8 73 23 127l48 177h197l-151 -436q-76 -234 -265 -234q-76 0 -124 27l40 146q24 -21 58 -21q39 0 54 37zM98 580q0 52 29 81t75 29q37 0 82 -26q36 -21 51 -21q33 0 33 44h100q10 -38 10 -70
q0 -52 -29 -81t-75 -29q-37 0 -82 26q-36 21 -51 21q-33 0 -33 -44h-100q-10 38 -10 70z" />
    <glyph glyph-name="enspace" unicode="&#x2002;" horiz-adv-x="450" 
 />
    <glyph glyph-name="emspace" unicode="&#x2003;" horiz-adv-x="900" 
 />
    <glyph glyph-name="threeperemspace" unicode="&#x2004;" horiz-adv-x="300" 
 />
    <glyph glyph-name="fourperemspace" unicode="&#x2005;" horiz-adv-x="225" 
 />
    <glyph glyph-name="sixperemspace" unicode="&#x2006;" horiz-adv-x="150" 
 />
    <glyph glyph-name="figurespace" unicode="&#x2007;" horiz-adv-x="513" 
 />
    <glyph glyph-name="punctuationspace" unicode="&#x2008;" horiz-adv-x="171" 
 />
    <glyph glyph-name="thinspace" unicode="&#x2009;" horiz-adv-x="90" 
 />
    <glyph glyph-name="hairspace" unicode="&#x200a;" horiz-adv-x="45" 
 />
    <glyph glyph-name="zerowidthspace" unicode="&#x200b;" horiz-adv-x="0" 
 />
    <glyph glyph-name="figuredash" unicode="&#x2012;" horiz-adv-x="559" 
d="M50 193v130h459v-130h-459z" />
    <glyph glyph-name="endash" unicode="&#x2013;" horiz-adv-x="494" 
d="M50 193v130h394v-130h-394z" />
    <glyph glyph-name="emdash" unicode="&#x2014;" horiz-adv-x="994" 
d="M50 193v130h894v-130h-894z" />
    <glyph glyph-name="uni2015" unicode="&#x2015;" horiz-adv-x="1244" 
d="M50 193v130h1144v-130h-1144z" />
    <glyph glyph-name="doublebar" unicode="&#x2016;" horiz-adv-x="618" 
d="M254 -203h-154v870h154v-870zM518 -203h-155v870h155v-870z" />
    <glyph glyph-name="quoteleft" unicode="&#x2018;" horiz-adv-x="296" 
d="M35 476q0 99 54 148.5t154 49.5v-80q-85 -8 -85 -53q43 3 73 -20.5t30 -75.5q0 -49 -31.5 -77t-76.5 -28q-56 0 -87 39.5t-31 96.5z" />
    <glyph glyph-name="quoteright" unicode="&#x2019;" horiz-adv-x="296" 
d="M261 542q0 -99 -54 -148.5t-154 -49.5v80q85 8 85 53q-43 -3 -73 20.5t-30 75.5q0 49 31.5 77t76.5 28q56 0 87 -39.5t31 -96.5z" />
    <glyph glyph-name="quotesinglbase" unicode="&#x201a;" horiz-adv-x="296" 
d="M261 81q0 -99 -54 -148.5t-154 -49.5v80q85 9 85 53q-43 -3 -73 20.5t-30 75.5q0 49 31.5 77t76.5 28q56 0 87 -39.5t31 -96.5z" />
    <glyph glyph-name="reversequoteleft" unicode="&#x201b;" horiz-adv-x="296" 
d="M35 542q0 57 31 96.5t87 39.5q45 0 76.5 -28t31.5 -77q0 -52 -30 -75.5t-73 -20.5q0 -45 85 -53v-80q-100 0 -154 49.5t-54 148.5z" />
    <glyph glyph-name="quotedblleft" unicode="&#x201c;" horiz-adv-x="554" 
d="M35 476q0 99 54 148.5t154 49.5v-80q-85 -8 -85 -53q43 3 73 -20.5t30 -75.5q0 -49 -31.5 -77t-76.5 -28q-56 0 -87 39.5t-31 96.5zM293 476q0 99 54 148.5t154 49.5v-80q-85 -8 -85 -53q43 3 73 -20.5t30 -75.5q0 -49 -31.5 -77t-76.5 -28q-56 0 -87 39.5t-31 96.5z" />
    <glyph glyph-name="quotedblright" unicode="&#x201d;" horiz-adv-x="554" 
d="M261 542q0 -99 -54 -148.5t-154 -49.5v80q85 8 85 53q-43 -3 -73 20.5t-30 75.5q0 49 31.5 77t76.5 28q56 0 87 -39.5t31 -96.5zM519 542q0 -99 -54 -148.5t-154 -49.5v80q85 8 85 53q-43 -3 -73 20.5t-30 75.5q0 49 31.5 77t76.5 28q56 0 87 -39.5t31 -96.5z" />
    <glyph glyph-name="quotedblbase" unicode="&#x201e;" horiz-adv-x="554" 
d="M261 80q0 -99 -54 -148.5t-154 -49.5v80q85 8 85 53q-43 -3 -73 20.5t-30 75.5q0 49 31.5 77t76.5 28q56 0 87 -39.5t31 -96.5zM519 80q0 -99 -54 -148.5t-154 -49.5v80q85 8 85 53q-43 -3 -73 20.5t-30 75.5q0 49 31.5 77t76.5 28q56 0 87 -39.5t31 -96.5z" />
    <glyph glyph-name="reversequotedblleft" unicode="&#x201f;" horiz-adv-x="554" 
d="M293 542q0 57 31 96.5t87 39.5q45 0 76.5 -28t31.5 -77q0 -52 -30 -75.5t-73 -20.5q0 -45 85 -53v-80q-100 0 -154 49.5t-54 148.5zM35 542q0 57 31 96.5t87 39.5q45 0 76.5 -28t31.5 -77q0 -52 -30 -75.5t-73 -20.5q0 -45 85 -53v-80q-100 0 -154 49.5t-54 148.5z" />
    <glyph glyph-name="dagger" unicode="&#x2020;" horiz-adv-x="579" 
d="M204 201l-164 -11v174l163 -10l-10 235h193l-10 -235l163 10v-174l-163 11l10 -352h-192z" />
    <glyph glyph-name="daggerdbl" unicode="&#x2021;" horiz-adv-x="582" 
d="M376 281l1 -90l165 9v-175l-166 11l10 -186h-190l12 186l-168 -11v175l164 -9v90l-164 -11v177l164 -11l-10 153h192l-9 -153l165 11v-177z" />
    <glyph glyph-name="bullet" unicode="&#x2022;" horiz-adv-x="406" 
d="M33 280q0 68 50.5 118.5t119.5 50.5t119.5 -50.5t50.5 -118.5q0 -70 -50.5 -121t-119.5 -51q-70 0 -120 50.5t-50 121.5z" />
    <glyph glyph-name="ellipsis" unicode="&#x2026;" horiz-adv-x="904" 
d="M36 107q0 50 32.5 84t78.5 34q51 0 84.5 -33.5t33.5 -84.5q0 -47 -33.5 -79t-84.5 -32q-46 0 -78.5 32.5t-32.5 78.5zM338 107q0 50 32.5 84t78.5 34q51 0 84.5 -33.5t33.5 -84.5q0 -47 -33.5 -79t-84.5 -32q-46 0 -78.5 32.5t-32.5 78.5zM639 107q0 50 32.5 84t78.5 34
q51 0 84.5 -33.5t33.5 -84.5q0 -47 -33.5 -79t-84.5 -32q-46 0 -78.5 32.5t-32.5 78.5z" />
    <glyph glyph-name="perthousand" unicode="&#x2030;" horiz-adv-x="1214" 
d="M207 0l324 588h110l-330 -588h-104zM187 330q35 0 35 83t-35 83t-35 -83t35 -83zM20 413q0 84 43.5 134t123.5 50t123.5 -50t43.5 -134t-43.5 -134t-123.5 -50t-123.5 50t-43.5 134zM660 94q35 0 35 83t-35 83t-35 -83t35 -83zM493 177q0 84 43.5 134t123.5 50t123.5 -50
t43.5 -134t-43.5 -134t-123.5 -50t-123.5 50t-43.5 134zM1027 94q35 0 35 83t-35 83t-35 -83t35 -83zM860 177q0 84 43.5 134t123.5 50t123.5 -50t43.5 -134t-43.5 -134t-123.5 -50t-123.5 50t-43.5 134z" />
    <glyph glyph-name="tripleprime" unicode="&#x2034;" horiz-adv-x="739" 
d="M79 412v256h183l-65 -256h-118zM298 412v256h183l-65 -256h-118zM518 412v256h183l-65 -256h-118z" />
    <glyph glyph-name="guilsinglleft" unicode="&#x2039;" horiz-adv-x="373" 
d="M20 240l219 211l94 -95l-61 -63q-18 -19 -33 -31.5t-21 -15.5l-6 -4v-4q19 -9 60 -52l61 -62l-94 -95z" />
    <glyph glyph-name="guilsinglright" unicode="&#x203a;" horiz-adv-x="373" 
d="M134 451l219 -211l-219 -211l-94 95l61 62q18 19 33 32t21 16l6 4v4q-19 9 -60 51l-61 63z" />
    <glyph glyph-name="fraction" unicode="&#x2044;" horiz-adv-x="174" 
d="M-130 0l324 588h110l-330 -588h-104z" />
    <glyph glyph-name="uni2070" unicode="&#x2070;" horiz-adv-x="374" 
d="M187 330q35 0 35 83t-35 83t-35 -83t35 -83zM20 413q0 84 43.5 134t123.5 50t123.5 -50t43.5 -134t-43.5 -134t-123.5 -50t-123.5 50t-43.5 134z" />
    <glyph glyph-name="uni2074" unicode="&#x2074;" horiz-adv-x="391" 
d="M186 236v56h-171v93l163 204h147v-205h46v-92h-46v-56h-139zM151 382h37v54l4 52h-4q-9 -21 -29 -47l-23 -29q-6 -8 -13 -15l-11 -11l-4 -3v-4q16 3 43 3z" />
    <glyph glyph-name="uni2075" unicode="&#x2075;" horiz-adv-x="366" 
d="M43 381l10 208h261v-104h-157l-2 -49q23 28 68 28q57 0 87.5 -30.5t30.5 -78.5q0 -66 -48 -96.5t-121 -30.5q-128 0 -152 89l116 47q5 -37 36 -37q34 0 34 35q0 31 -26 31q-14 0 -22 -12h-115z" />
    <glyph glyph-name="uni2076" unicode="&#x2076;" horiz-adv-x="356" 
d="M325 550l-74 -73q-18 20 -47 20q-30 0 -46 -23.5t-16 -58.5h5q18 47 83 47q47 0 77.5 -31t30.5 -81q0 -61 -42.5 -91t-110.5 -30q-81 0 -123 46t-42 130q0 94 50 143t132 49q79 0 123 -47zM156 357q0 -15 9.5 -24.5t22.5 -9.5q14 0 23.5 9.5t9.5 24.5q0 14 -9.5 23.5
t-23.5 9.5q-13 0 -22.5 -9.5t-9.5 -23.5z" />
    <glyph glyph-name="uni2077" unicode="&#x2077;" horiz-adv-x="364" 
d="M206 492h-72v-47h-114v144h324v-98l-120 -255h-142z" />
    <glyph glyph-name="uni2078" unicode="&#x2078;" horiz-adv-x="360" 
d="M180 597q70 0 109 -28t39 -72q0 -65 -60 -78v-4q72 -12 72 -81q0 -52 -43 -78.5t-117 -26.5t-117 26.5t-43 78.5q0 69 72 81v4q-60 13 -60 78q0 44 39 72t109 28zM180 313q12 0 19.5 8t7.5 22t-7.5 22t-19.5 8t-19.5 -8t-7.5 -22t7.5 -22t19.5 -8zM180 458q11 0 18 8
t7 21q0 28 -25 28t-25 -28q0 -13 7 -21t18 -8z" />
    <glyph glyph-name="uni2079" unicode="&#x2079;" horiz-adv-x="356" 
d="M31 276l74 73q18 -20 47 -20q30 0 46 23.5t16 58.5h-5q-18 -47 -83 -47q-47 0 -77.5 31t-30.5 81q0 61 42.5 91t110.5 30q81 0 123 -46t42 -130q0 -94 -50 -143t-132 -49q-79 0 -123 47zM200 469q0 15 -9.5 24.5t-22.5 9.5q-14 0 -23.5 -9.5t-9.5 -24.5q0 -14 9.5 -23.5
t23.5 -9.5q13 0 22.5 9.5t9.5 23.5z" />
    <glyph glyph-name="uni207A" unicode="&#x207a;" horiz-adv-x="442" 
d="M45 465h126v123h97v-123h129v-96h-129v-133h-97v133h-126v96z" />
    <glyph glyph-name="uni207B" unicode="&#x207b;" horiz-adv-x="441" 
d="M396 369h-351v96h351v-96z" />
    <glyph glyph-name="uni207C" unicode="&#x207c;" horiz-adv-x="441" 
d="M396 301h-351v94h351v-94zM396 452h-351v94h351v-94z" />
    <glyph glyph-name="uni207D" unicode="&#x207d;" horiz-adv-x="236" 
d="M149 407q0 -36 8 -71.5t15.5 -55.5t23.5 -53.5t21 -44.5h-107q-2 5 -16.5 34t-22.5 48.5t-16 59t-8 83.5t8 85t15.5 60.5t22.5 50t17 33.5h107q-5 -12 -21 -46.5t-23.5 -54.5t-15.5 -56t-8 -72z" />
    <glyph glyph-name="uni207E" unicode="&#x207e;" horiz-adv-x="236" 
d="M87 407q0 36 -8 72t-15.5 56t-23.5 54.5t-21 46.5h109q3 -7 16 -34.5t21 -48.5t16 -61.5t8 -84.5q0 -43 -8 -82.5t-16 -60.5t-21 -47.5t-16 -34.5h-109q5 11 21 44.5t23.5 53.5t15.5 55.5t8 71.5z" />
    <glyph glyph-name="n.superior" unicode="&#x207f;" horiz-adv-x="435" 
d="M174 593l17 -59q18 68 99 68q46 0 75 -26.5t29 -80.5v-208h-145v165q0 41 -27 41q-33 0 -33 -50v-156h-144v306h129z" />
    <glyph glyph-name="uni2080" unicode="&#x2080;" horiz-adv-x="374" 
d="M187 94q35 0 35 83t-35 83t-35 -83t35 -83zM20 177q0 84 43.5 134t123.5 50t123.5 -50t43.5 -134t-43.5 -134t-123.5 -50t-123.5 50t-43.5 134z" />
    <glyph glyph-name="uni2081" unicode="&#x2081;" horiz-adv-x="323" 
d="M306 0h-276v100h76v134l-74 -5v105l207 22v-256h67v-100z" />
    <glyph glyph-name="uni2082" unicode="&#x2082;" horiz-adv-x="367" 
d="M337 109v-109h-306v92q167 62 167 126q0 30 -28 30q-32 0 -32 -51l-118 33q16 131 163 131q70 0 112 -34t42 -91q0 -53 -37 -85t-92 -38v-4h129z" />
    <glyph glyph-name="uni2083" unicode="&#x2083;" horiz-adv-x="351" 
d="M136 226l-108 37q9 46 49.5 72t98.5 26q63 0 100.5 -28t37.5 -77q0 -66 -76 -77v-4q36 -3 58 -26t22 -60q0 -47 -41.5 -71.5t-104.5 -24.5q-61 0 -103.5 21.5t-55.5 60.5l113 51q6 -36 34 -36q23 0 23 21q0 31 -60 31v65q37 1 49 7.5t12 23.5q0 21 -22 21q-26 0 -26 -33z
" />
    <glyph glyph-name="uni2084" unicode="&#x2084;" horiz-adv-x="391" 
d="M186 0v56h-171v93l163 204h147v-205h46v-92h-46v-56h-139zM151 146h37v54l4 52h-4q-9 -21 -29 -47l-23 -29q-6 -8 -13 -15l-11 -11l-4 -3v-4q16 3 43 3z" />
    <glyph glyph-name="uni2085" unicode="&#x2085;" horiz-adv-x="366" 
d="M43 145l10 208h261v-104h-157l-2 -49q23 28 68 28q57 0 87.5 -30.5t30.5 -78.5q0 -66 -48 -96.5t-121 -30.5q-128 0 -152 89l116 47q5 -37 36 -37q34 0 34 35q0 31 -26 31q-14 0 -22 -12h-115z" />
    <glyph glyph-name="uni2086" unicode="&#x2086;" horiz-adv-x="356" 
d="M325 314l-74 -73q-18 20 -47 20q-30 0 -46 -23.5t-16 -58.5h5q18 47 83 47q47 0 77.5 -31t30.5 -81q0 -61 -42.5 -91t-110.5 -30q-81 0 -123 46t-42 130q0 94 50 143t132 49q79 0 123 -47zM156 121q0 -15 9.5 -24.5t22.5 -9.5q14 0 23.5 9.5t9.5 24.5q0 14 -9.5 23.5
t-23.5 9.5q-13 0 -22.5 -9.5t-9.5 -23.5z" />
    <glyph glyph-name="uni2087" unicode="&#x2087;" horiz-adv-x="364" 
d="M206 256h-72v-47h-114v144h324v-98l-120 -255h-142z" />
    <glyph glyph-name="uni2088" unicode="&#x2088;" horiz-adv-x="360" 
d="M180 361q70 0 109 -28t39 -72q0 -65 -60 -78v-4q72 -12 72 -81q0 -52 -43 -78.5t-117 -26.5t-117 26.5t-43 78.5q0 69 72 81v4q-60 13 -60 78q0 44 39 72t109 28zM180 77q12 0 19.5 8t7.5 22t-7.5 22t-19.5 8t-19.5 -8t-7.5 -22t7.5 -22t19.5 -8zM180 222q11 0 18 8t7 21
q0 28 -25 28t-25 -28q0 -13 7 -21t18 -8z" />
    <glyph glyph-name="uni2089" unicode="&#x2089;" horiz-adv-x="356" 
d="M31 40l74 73q18 -20 47 -20q30 0 46 23.5t16 58.5h-5q-18 -47 -83 -47q-47 0 -77.5 31t-30.5 81q0 61 42.5 91t110.5 30q81 0 123 -46t42 -130q0 -94 -50 -143t-132 -49q-79 0 -123 47zM200 233q0 15 -9.5 24.5t-22.5 9.5q-14 0 -23.5 -9.5t-9.5 -24.5q0 -14 9.5 -23.5
t23.5 -9.5q13 0 22.5 9.5t9.5 23.5z" />
    <glyph glyph-name="uni208A" unicode="&#x208a;" horiz-adv-x="442" 
d="M45 229h126v123h97v-123h129v-95h-129v-134h-97v134h-126v95z" />
    <glyph glyph-name="uni208B" unicode="&#x208b;" horiz-adv-x="441" 
d="M396 135h-351v94h351v-94z" />
    <glyph glyph-name="uni208C" unicode="&#x208c;" horiz-adv-x="441" 
d="M396 67h-351v94h351v-94zM396 216h-351v95h351v-95z" />
    <glyph glyph-name="uni208D" unicode="&#x208d;" horiz-adv-x="236" 
d="M149 171q0 -36 8 -71.5t15.5 -55.5t23.5 -53.5t21 -44.5h-107l-17 34t-22 48t-16 59.5t-8 83.5t8 85t15.5 60.5t22.5 50t17 33.5h107q-4 -9 -20.5 -44.5t-24 -55t-15.5 -56t-8 -73.5z" />
    <glyph glyph-name="uni208E" unicode="&#x208e;" horiz-adv-x="236" 
d="M87 171q0 37 -8 73.5t-15.5 56t-24 55t-20.5 44.5h109q3 -7 16 -34.5t21 -48.5t16 -61.5t8 -84.5q0 -43 -7.5 -82.5t-16.5 -60.5t-21.5 -47.5t-15.5 -34.5h-109q5 11 21 44.5t23.5 53.5t15.5 55.5t8 71.5z" />
    <glyph glyph-name="uni20A1" unicode="&#x20a1;" horiz-adv-x="528" 
d="M112 -59l25 81q-114 62 -114 217q0 121 68.5 187t186.5 67l26 89l66 -19l-23 -76q22 -4 32 -7l22 73l66 -19l-25 -84q59 -40 72 -117l-176 -58q0 63 -50 63q-32 0 -46 -24.5t-14 -74.5q0 -96 61 -96q20 0 36 15t17 45l176 -66q-20 -70 -76 -107t-138 -41l-29 -96l-66 19
l24 80q-17 2 -32 6l-23 -76z" />
    <glyph glyph-name="uni20A2" unicode="&#x20a2;" horiz-adv-x="524" 
d="M382 175l122 -62q-31 -59 -85 -92t-150 -33q-114 0 -181.5 64.5t-67.5 186.5q0 119 69 186.5t184 67.5q173 0 230 -133l-140 -68q-9 35 -26.5 54t-55.5 19t-61.5 -30.5t-23.5 -92.5q0 -115 54 -127v160h71l8 -57q8 31 27 47t63 16l-11 -87q-14 3 -25 3q-54 0 -54 -46v-36
q34 14 53 60z" />
    <glyph glyph-name="franc" unicode="&#x20a3;" horiz-adv-x="517" 
d="M414 107h-119v-107h-203v107h-62v61h62v39h-62v61h62v213h395v-161h-192v-52h119v-61h-119v-39h119v-61z" />
    <glyph glyph-name="lira" unicode="&#x20a4;" horiz-adv-x="525" 
d="M50 240v47h43q-8 26 -8 56q0 68 52 109t144 41q74 0 122 -31t64 -89l-128 -68q-6 24 -16.5 35.5t-32.5 11.5q-17 0 -26 -10t-9 -25t5 -30h99v-47h-80q3 -12 3 -24h77v-47h-89q-14 -24 -37 -32h127q51 0 65 38l100 -80q-34 -95 -145 -95h-330v137h30q35 0 42 32h-72v47h70
q-2 8 -8 24h-62z" />
    <glyph glyph-name="uni20A6" unicode="&#x20a6;" horiz-adv-x="722" 
d="M30 260v59h70v162h194l75 -104q15 -20 29 -42.5t20 -34.5l7 -12h4q-3 48 -3 108v85h196v-162h70v-59h-70v-52h70v-59h-70v-149h-171l-92 116q-21 26 -36.5 49t-20.5 33l-5 9h-4q3 -32 3 -102v-105h-196v149h-70v59h70v52h-70z" />
    <glyph glyph-name="peseta" unicode="&#x20a7;" horiz-adv-x="1331" 
d="M771 0h-182v245h-78q-24 -154 -205 -154h-64v-91h-192v481h243q141 0 191 -77h379q50 89 207 89q92 0 148.5 -35.5t69.5 -104.5l-182 -18q0 35 -35 35q-31 0 -31 -22q0 -21 31 -24l52 -5q86 -6 127 -49t41 -112q0 -170 -237 -170q-192 0 -218 121l182 40q2 -36 36 -36
q33 0 33 23q0 22 -33 26l-49 4q-109 9 -145 79h-89v-245zM242 328v-88h51q37 0 37 45q0 43 -37 43h-51z" />
    <glyph glyph-name="uni20A8" unicode="&#x20a8;" horiz-adv-x="952" 
d="M421 187l177 -64q92 -30 126 -30q25 0 25 16q0 10 -7.5 14t-28.5 8l-47 9q-60 11 -91.5 39t-31.5 82q0 73 51.5 110.5t135.5 37.5q79 0 126 -33.5t54 -88.5l-146 -10q0 14 -9.5 22.5t-23.5 8.5q-24 0 -24 -19q0 -20 31 -24l36 -6q138 -22 138 -130q0 -73 -49 -107
t-152 -34q-180 0 -347 76l-112 51v-115h-202v481h271q102 0 153 -42.5t51 -118.5q0 -58 -30 -91t-74 -37v-5zM252 335v-92h35q42 0 42 46t-42 46h-35z" />
    <glyph glyph-name="uni20A9" unicode="&#x20a9;" horiz-adv-x="886" 
d="M30 260v59h53l-38 162h206l33 -160q7 -32 11.5 -66t5.5 -52l1 -18h4q5 70 17 136l30 160h180l30 -160q5 -29 9.5 -63t5.5 -54l2 -19h4q3 65 18 136l33 160h206l-38 -162h53v-59h-67l-13 -52h80v-59h-94l-35 -149h-233l-29 122l-22 115h-4q-7 -50 -22 -115l-29 -122h-229
l-35 149h-94v59h80l-13 52h-67z" />
    <glyph glyph-name="uni20AA" unicode="&#x20aa;" horiz-adv-x="829" 
d="M532 187h-95v113q0 23 -9.5 31t-34.5 8h-141v-339h-202v481h333q50 0 81 -10t45 -33t18.5 -46.5t4.5 -62.5v-142zM577 481h202v-329q0 -152 -179 -152h-303v294h95v-152h147q38 0 38 33v306z" />
    <glyph glyph-name="Euro" unicode="&#x20ac;" horiz-adv-x="585" 
d="M20 258v54h57q20 87 86 134t165 47q98 0 158.5 -40.5t74.5 -119.5l-156 -52q0 30 -18.5 51t-50.5 21q-51 0 -67 -41h90l-10 -54h-88v-37h84l-10 -54h-66q14 -40 67 -40q31 0 51.5 22t22.5 55l155 -67q-20 -74 -82 -111.5t-151 -37.5q-101 0 -168 46.5t-87 132.5h-57v54
h50v37h-50z" />
    <glyph glyph-name="uni20AE" unicode="&#x20ae;" horiz-adv-x="514" 
d="M76 173v59l80 11v69h-121v169h444v-169h-121v-41l80 11v-59l-80 -11v-42l80 11v-59l-80 -11v-111h-202v83l-80 -11v59l80 11v42z" />
    <glyph glyph-name="uni20B1" unicode="&#x20b1;" horiz-adv-x="654" 
d="M20 246v67h70v168h253q205 0 220 -168h76v-67h-78q-11 -74 -63 -114.5t-142 -40.5h-64v-91h-202v246h-70zM292 328v-88h41q37 0 37 45q0 43 -37 43h-41z" />
    <glyph glyph-name="afii61289" unicode="&#x2113;" horiz-adv-x="488" 
d="M40 111l-30 64l100 64v194q0 126 52 181t152 55q69 0 111.5 -37t42.5 -112q0 -96 -38.5 -156t-125.5 -124q0 -76 59 -76q30 0 63 19l-8 -165q-54 -30 -143 -30q-66 0 -115.5 39t-49.5 115v11zM304 504v-173q38 33 55 73.5t17 106.5q0 60 -37 60q-20 0 -27.5 -15.5
t-7.5 -51.5z" />
    <glyph glyph-name="afii61352" unicode="&#x2116;" horiz-adv-x="1146" 
d="M743 0v122h323v-122h-323zM905 164q-79 0 -125.5 45t-46.5 127q0 80 46.5 124.5t125.5 44.5q78 0 124.5 -44.5t46.5 -124.5q0 -82 -46.5 -127t-124.5 -45zM905 402q-17 0 -24 -15.5t-7 -50.5q0 -64 31 -64t31 64q0 66 -31 66zM665 374v-374h-170l-142 176
q-17 21 -29.5 39.5t-17.5 26.5l-4 9h-4q4 -40 4 -71v-26q0 -91 -60.5 -128.5t-168.5 -37.5l-33 158q30 6 43.5 19.5t13.5 49.5v374h177l138 -187q16 -21 27.5 -39.5t15.5 -26.5l4 -8h4q-3 32 -3 89v18q0 91 60.5 128.5t168.5 37.5l33 -158q-30 -6 -43.5 -19.5t-13.5 -49.5z
" />
    <glyph glyph-name="published" unicode="&#x2117;" horiz-adv-x="703" 
d="M45 294q0 132 89 219.5t217 87.5t217.5 -87.5t89.5 -219.5t-89.5 -219t-217.5 -87t-217 87t-89 219zM76 294q0 -121 81 -199t197 -78q115 0 194.5 78t79.5 199q0 120 -80 199t-194 79q-116 0 -197 -79t-81 -199zM348 362v-68h31q29 0 29 35q0 33 -29 33h-31zM348 108
h-157v373h196q88 0 130 -37.5t42 -114.5q0 -72 -41.5 -111t-120.5 -39h-49v-71z" />
    <glyph glyph-name="servicemark" unicode="&#x2120;" horiz-adv-x="693" 
d="M501 354h-36l-32 64h-5v-106h-115v276h117l51 -96h4l51 96h117v-276h-116v106h-4zM18 377l103 22q0 -20 20 -20q19 0 19 15q0 14 -19 15l-27 2q-92 8 -92 86q0 50 36 74t93 24q109 0 124 -80l-103 -10q0 20 -21 20q-17 0 -17 -13q0 -14 17 -15l31 -3q94 -11 94 -89
q0 -97 -135 -97q-108 0 -123 69z" />
    <glyph glyph-name="trademark" unicode="&#x2122;" horiz-adv-x="683" 
d="M199 312h-118v180h-69v97h256v-97h-69v-180zM490 353h-36l-32 65h-5v-106h-116v277h118l51 -97h4l52 97h117v-277h-116v106h-5z" />
    <glyph glyph-name="ohm" unicode="&#x2126;" horiz-adv-x="722" 
d="M361 429q-80 0 -80 -111q0 -110 51 -135v-183h-287v183h147q-49 13 -84 63t-35 117q0 113 75 175.5t213 62.5t213 -62.5t75 -175.5q0 -67 -35 -117t-84 -63h147v-183h-287v183q51 25 51 135q0 111 -80 111z" />
    <glyph glyph-name="estimated" unicode="&#x212e;" horiz-adv-x="647" 
d="M323 601q71 0 126 -25.5t87.5 -69.5t49 -98t16.5 -114v-26h-431v-169q56 -58 152 -58q131 0 184 104h66q-30 -73 -93 -115t-157 -42q-93 0 -157.5 45t-92.5 112.5t-28 148.5q0 82 28 149.5t92.5 112.5t157.5 45zM323 548q-97 0 -152 -58v-170h306v170q-55 58 -154 58z
" />
    <glyph glyph-name="uni2153" unicode="&#x2153;" horiz-adv-x="823" 
d="M196 0l324 588h110l-330 -588h-104zM306 236h-276v100h76v134l-74 -5v105l207 22v-256h67v-100zM608 226l-108 37q9 46 49.5 72t98.5 26q63 0 100.5 -28t37.5 -77q0 -66 -76 -77v-4q36 -3 58 -26t22 -60q0 -47 -41.5 -71.5t-104.5 -24.5q-61 0 -103.5 21.5t-55.5 60.5
l113 51q6 -36 34 -36q23 0 23 21q0 31 -60 31v65q37 1 49 7.5t12 23.5q0 21 -22 21q-26 0 -26 -33z" />
    <glyph glyph-name="uni2154" unicode="&#x2154;" horiz-adv-x="861" 
d="M337 345v-109h-306v92q167 62 167 126q0 30 -28 30q-32 0 -32 -51l-118 33q16 131 163 131q70 0 112 -34t42 -91q0 -53 -37 -85t-92 -38v-4h129zM234 0l324 588h110l-330 -588h-104zM646 226l-108 37q9 46 49.5 72t98.5 26q63 0 100.5 -28t37.5 -77q0 -66 -76 -77v-4
q36 -3 58 -26t22 -60q0 -47 -41.5 -71.5t-104.5 -24.5q-61 0 -103.5 21.5t-55.5 60.5l113 51q6 -36 34 -36q23 0 23 21q0 31 -60 31v65q37 1 49 7.5t12 23.5q0 21 -22 21q-26 0 -26 -33z" />
    <glyph glyph-name="uni215B" unicode="&#x215b;" horiz-adv-x="832" 
d="M196 0l324 588h110l-330 -588h-104zM652 361q70 0 109 -28t39 -72q0 -65 -60 -78v-4q72 -12 72 -81q0 -52 -43 -78.5t-117 -26.5t-117 26.5t-43 78.5q0 69 72 81v4q-60 13 -60 78q0 44 39 72t109 28zM652 77q12 0 19.5 8t7.5 22t-7.5 22t-19.5 8t-19.5 -8t-7.5 -22
t7.5 -22t19.5 -8zM652 222q11 0 18 8t7 21q0 28 -25 28t-25 -28q0 -13 7 -21t18 -8zM306 236h-276v100h76v134l-74 -5v105l207 22v-256h67v-100z" />
    <glyph glyph-name="uni215C" unicode="&#x215c;" horiz-adv-x="840" 
d="M204 0l324 588h110l-330 -588h-104zM660 361q70 0 109 -28t39 -72q0 -65 -60 -78v-4q72 -12 72 -81q0 -52 -43 -78.5t-117 -26.5t-117 26.5t-43 78.5q0 69 72 81v4q-60 13 -60 78q0 44 39 72t109 28zM660 77q12 0 19.5 8t7.5 22t-7.5 22t-19.5 8t-19.5 -8t-7.5 -22
t7.5 -22t19.5 -8zM660 222q11 0 18 8t7 21q0 28 -25 28t-25 -28q0 -13 7 -21t18 -8zM136 462l-108 37q9 46 49.5 72t98.5 26q63 0 100.5 -28t37.5 -77q0 -66 -76 -77v-4q36 -3 58 -26t22 -60q0 -47 -41.5 -71.5t-104.5 -24.5q-61 0 -103.5 21.5t-55.5 60.5l113 51
q6 -36 34 -36q23 0 23 21q0 31 -60 31v65q37 1 49 7.5t12 23.5q0 21 -22 21q-26 0 -26 -33z" />
    <glyph glyph-name="uni215D" unicode="&#x215d;" horiz-adv-x="849" 
d="M43 381l10 208h261v-104h-157l-2 -49q23 28 68 28q57 0 87.5 -30.5t30.5 -78.5q0 -66 -48 -96.5t-121 -30.5q-128 0 -152 89l116 47q5 -37 36 -37q34 0 34 35q0 31 -26 31q-14 0 -22 -12h-115zM213 0l324 588h110l-330 -588h-104zM669 361q70 0 109 -28t39 -72
q0 -65 -60 -78v-4q72 -12 72 -81q0 -52 -43 -78.5t-117 -26.5t-117 26.5t-43 78.5q0 69 72 81v4q-60 13 -60 78q0 44 39 72t109 28zM669 77q12 0 19.5 8t7.5 22t-7.5 22t-19.5 8t-19.5 -8t-7.5 -22t7.5 -22t19.5 -8zM669 222q11 0 18 8t7 21q0 28 -25 28t-25 -28
q0 -13 7 -21t18 -8z" />
    <glyph glyph-name="uni215E" unicode="&#x215e;" horiz-adv-x="800" 
d="M164 0l324 588h110l-330 -588h-104zM620 361q70 0 109 -28t39 -72q0 -65 -60 -78v-4q72 -12 72 -81q0 -52 -43 -78.5t-117 -26.5t-117 26.5t-43 78.5q0 69 72 81v4q-60 13 -60 78q0 44 39 72t109 28zM620 77q12 0 19.5 8t7.5 22t-7.5 22t-19.5 8t-19.5 -8t-7.5 -22
t7.5 -22t19.5 -8zM620 222q11 0 18 8t7 21q0 28 -25 28t-25 -28q0 -13 7 -21t18 -8zM206 492h-72v-47h-114v144h324v-98l-120 -255h-142z" />
    <glyph glyph-name="arrowleft" unicode="&#x2190;" horiz-adv-x="759" 
d="M329 378h385v-166h-383l107 -105l-113 -119l-291 308l287 305l115 -121z" />
    <glyph glyph-name="arrowup" unicode="&#x2191;" horiz-adv-x="685" 
d="M426 306v-306h-166v304l-105 -108l-119 115l308 290l305 -288l-121 -114z" />
    <glyph glyph-name="arrowright" unicode="&#x2192;" horiz-adv-x="759" 
d="M34 378h385l-110 102l114 121l291 -305l-293 -308l-116 119l111 105h-382v166z" />
    <glyph glyph-name="arrowdown" unicode="&#x2193;" horiz-adv-x="685" 
d="M259 283v306h166v-304l105 107l119 -113l-308 -291l-305 287l121 114z" />
    <glyph glyph-name="uni2196" unicode="&#x2196;" horiz-adv-x="685" 
d="M549 0l-320 317v-221h-164v493h488v-156h-205l319 -316z" />
    <glyph glyph-name="uni2197" unicode="&#x2197;" horiz-adv-x="685" 
d="M455 317l-319 -317l-118 117l318 316h-204v156h487v-493h-164v221z" />
    <glyph glyph-name="uni2198" unicode="&#x2198;" horiz-adv-x="685" 
d="M136 589l319 -316v220h164v-493h-487v158h204l-318 314z" />
    <glyph glyph-name="uni2199" unicode="&#x2199;" horiz-adv-x="685" 
d="M229 273l320 316l118 -117l-319 -314h205v-158h-488v493h164v-220z" />
    <glyph glyph-name="partialdiff" unicode="&#x2202;" horiz-adv-x="552" 
d="M149 581l171 116q103 -79 156.5 -178t53.5 -236q0 -295 -253 -295q-117 0 -186 63t-69 176q0 106 58 160.5t130 54.5q81 0 125 -58q-33 70 -70.5 109t-115.5 88zM327 231q0 50 -12 73t-39 23t-39 -23t-12 -73t12 -73t39 -23t39 23t12 73z" />
    <glyph glyph-name="increment" unicode="&#x2206;" horiz-adv-x="686" 
d="M476 589l195 -589h-656l195 589h266zM345 444h-4q-8 -60 -22 -107l-52 -182h152l-52 182q-6 21 -11.5 47.5t-7.5 43.5z" />
    <glyph glyph-name="product" unicode="&#x220f;" horiz-adv-x="689" 
d="M273 -204h-203v793h549v-793h-203v611h-143v-611z" />
    <glyph glyph-name="summation" unicode="&#x2211;" horiz-adv-x="529" 
d="M323 365l37 -69l-37 -72q-8 -16 -16.5 -29.5t-12.5 -18.5l-5 -6v-2q14 4 62 4h133v-172h-474l139 296l-139 293h474v-172h-133l-62 4v-2q16 -19 34 -54z" />
    <glyph glyph-name="minus" unicode="&#x2212;" horiz-adv-x="498" 
d="M453 194h-408v108h408v-108z" />
    <glyph glyph-name="radical" unicode="&#x221a;" horiz-adv-x="721" 
d="M264 474l117 -227h5l137 418l182 -47l-229 -618h-177l-139 270l-67 -29l-64 135z" />
    <glyph glyph-name="infinity" unicode="&#x221e;" horiz-adv-x="862" 
d="M205 233q0 -56 43 -56q29 0 64 28l36 28l-36 28q-35 28 -64 28q-43 0 -43 -56zM657 233q0 56 -43 56q-29 0 -64 -28l-36 -28l36 -28q35 -28 64 -28q43 0 43 56zM431 132l-41 -31q-55 -41 -90 -57t-86 -16q-69 0 -121.5 50.5t-52.5 154.5t52.5 154.5t121.5 50.5
q51 0 86 -16t90 -57l41 -31l41 31q55 41 90 57t86 16q69 0 121.5 -50.5t52.5 -154.5t-52.5 -154.5t-121.5 -50.5q-51 0 -86 16t-90 57z" />
    <glyph glyph-name="integral" unicode="&#x222b;" horiz-adv-x="448" 
d="M113 27v442q0 99 55 154.5t144 56.5q79 0 136 -31l-24 -178q-31 28 -69 28q-40 0 -40 -49v-442q0 -99 -55 -154.5t-144 -56.5q-79 0 -136 31l24 178q31 -28 69 -28q40 0 40 49z" />
    <glyph glyph-name="approxequal" unicode="&#x2248;" horiz-adv-x="498" 
d="M355 232q-22 0 -102 16.5t-93 16.5q-62 0 -115 -31v101q39 25 64 33t64 8q27 0 89.5 -13.5t79.5 -13.5q34 0 44 0.5t28.5 5.5t38.5 17v-101q-37 -39 -98 -39zM355 82q-22 0 -102 15.5t-93 15.5q-63 0 -115 -30v100q38 26 63 34t65 8q27 0 89.5 -13.5t79.5 -13.5
q34 0 44 0.5t28.5 5.5t38.5 17v-101q-36 -38 -98 -38z" />
    <glyph glyph-name="notequal" unicode="&#x2260;" horiz-adv-x="498" 
d="M453 104h-215l-54 -103l-95 50l28 53h-72v109h129l34 66h-163v109h220l54 102l95 -50l-28 -52h67v-109h-124l-34 -66h158v-109z" />
    <glyph glyph-name="lessequal" unicode="&#x2264;" horiz-adv-x="476" 
d="M388 368l-132 -56l130 -63l-75 -100l-259 159l270 154zM431 18h-386v108h386v-108z" />
    <glyph glyph-name="greaterequal" unicode="&#x2265;" horiz-adv-x="476" 
d="M219 312l-131 56l66 94l271 -154l-262 -159l-72 100zM431 18h-386v108h386v-108z" />
    <glyph glyph-name="blacksquare" unicode="&#x25a0;" horiz-adv-x="724" 
d="M68 0v589h589v-589h-589z" />
    <glyph glyph-name="whitesquare" unicode="&#x25a1;" horiz-adv-x="724" 
d="M68 0v589h589v-589h-589zM111 546v-503h504v503h-504z" />
    <glyph glyph-name="blacksmallsquare" unicode="&#x25aa;" horiz-adv-x="458" 
d="M68 139v325h322v-325h-322z" />
    <glyph glyph-name="whitesmallsquare" unicode="&#x25ab;" horiz-adv-x="461" 
d="M68 139v325h326v-325h-326zM111 421v-239h240v239h-240z" />
    <glyph glyph-name="triagup" unicode="&#x25b2;" horiz-adv-x="569" 
d="M40 0l245 601l244 -601h-489z" />
    <glyph glyph-name="triagrt" unicode="&#x25ba;" horiz-adv-x="669" 
d="M68 536l601 -245l-601 -244v489z" />
    <glyph glyph-name="triagdn" unicode="&#x25bc;" horiz-adv-x="569" 
d="M285 -12l-245 601h489z" />
    <glyph glyph-name="triaglf" unicode="&#x25c4;" horiz-adv-x="669" 
d="M0 291l601 245v-489z" />
    <glyph glyph-name="lozenge" unicode="&#x25ca;" horiz-adv-x="598" 
d="M578 299l-200 -334h-149l-199 334l199 330h149zM426 298l-119 207l-117 -207l117 -209z" />
    <glyph glyph-name="circle" unicode="&#x25cb;" horiz-adv-x="511" 
d="M36 295q0 90 64.5 154.5t155.5 64.5q89 0 154 -64.5t65 -154.5t-65 -154.5t-154 -64.5q-91 0 -155.5 64.5t-64.5 154.5zM85 294q0 -73 49 -123.5t121 -50.5q69 0 119.5 51t50.5 123t-50.5 123t-119.5 51q-72 0 -121 -50.5t-49 -123.5z" />
    <glyph glyph-name="blackcircle" unicode="&#x25cf;" horiz-adv-x="686" 
d="M36 294q0 127 89.5 217t216.5 90t217 -90t90 -217t-90 -216.5t-217 -89.5t-216.5 89.5t-89.5 216.5z" />
    <glyph glyph-name="whitecircle" unicode="&#x25ef;" horiz-adv-x="686" 
d="M36 294q0 127 89.5 217t216.5 90t217 -90t90 -217t-90 -216.5t-217 -89.5t-216.5 89.5t-89.5 216.5zM80 295q0 -111 76.5 -189t185.5 -78q108 0 185 78t77 189q0 109 -77 187t-185 78t-185 -78t-77 -187z" />
    <glyph glyph-name="anglebracketleft" unicode="&#x3008;" horiz-adv-x="387" 
d="M382 -203h-199l-153 438l153 433h199l-155 -437z" />
    <glyph glyph-name="anglebracketright" unicode="&#x3009;" horiz-adv-x="387" 
d="M204 -203h-199l155 434l-155 437h199l153 -433z" />
    <glyph glyph-name="lcedilla" unicode="&#xe100;" horiz-adv-x="309" 
d="M289 -116q0 -45 -33.5 -70t-89.5 -25q-78 0 -123 35l27 76q29 -24 60 -24q26 0 26 20q0 25 -40 25l11 78q-94 26 -94 138v531h202v-473q0 -38 27 -38q18 0 37 10l-7 -150q-32 -25 -103 -26l-2 -21q45 0 73.5 -22t28.5 -64z" />
    <glyph glyph-name="uni004500600323" unicode="&#xe101;" horiz-adv-x="531" 
d="M496 168v-168h-446v589h442v-168h-245v-53h218v-147h-218v-53h249zM349 627h-170l65 156h243zM166 -126q0 46 31.5 71.5t75.5 25.5q45 0 76.5 -25.5t31.5 -71.5t-31.5 -71.5t-76.5 -25.5q-44 0 -75.5 25.5t-31.5 71.5z" />
    <glyph glyph-name="uni006500600323" unicode="&#xe102;" horiz-adv-x="498" 
d="M263 137q44 0 57 47l157 -62q-24 -66 -83 -100t-134 -34q-110 0 -176 63t-66 172q0 120 65 185t183 65q106 0 160 -59t54 -157q0 -27 -7 -57h-260q0 -63 50 -63zM217 272h76q3 6 3 21q0 39 -35 39q-20 0 -31 -16.5t-13 -43.5zM337 515h-170l65 156h243zM154 -126
q0 46 31.5 71.5t75.5 25.5q45 0 76.5 -25.5t31.5 -71.5t-31.5 -71.5t-76.5 -25.5q-44 0 -75.5 25.5t-31.5 71.5z" />
    <glyph glyph-name="uni004500B40323" unicode="&#xe103;" horiz-adv-x="531" 
d="M496 168v-168h-446v589h442v-168h-245v-53h218v-147h-218v-53h249zM359 627h-170l-138 156h243zM166 -126q0 46 31.5 71.5t75.5 25.5q45 0 76.5 -25.5t31.5 -71.5t-31.5 -71.5t-76.5 -25.5q-44 0 -75.5 25.5t-31.5 71.5z" />
    <glyph glyph-name="uni006500B40323" unicode="&#xe104;" horiz-adv-x="498" 
d="M263 137q44 0 57 47l157 -62q-24 -66 -83 -100t-134 -34q-110 0 -176 63t-66 172q0 120 65 185t183 65q106 0 160 -59t54 -157q0 -27 -7 -57h-260q0 -63 50 -63zM217 272h76q3 6 3 21q0 39 -35 39q-20 0 -31 -16.5t-13 -43.5zM349 515h-170l-138 156h243zM154 -126
q0 46 31.5 71.5t75.5 25.5q45 0 76.5 -25.5t31.5 -71.5t-31.5 -71.5t-76.5 -25.5q-44 0 -75.5 25.5t-31.5 71.5z" />
    <glyph glyph-name="Gtilde" unicode="&#xe105;" horiz-adv-x="651" 
d="M333 331h276v-331h-137l-21 65q-39 -77 -162 -77q-117 0 -190.5 75.5t-73.5 228.5q0 149 77.5 229t226.5 80q100 0 171 -44t93 -119l-196 -81q-9 72 -71 72q-88 0 -88 -138q0 -71 21.5 -105t71.5 -34q35 0 53.5 13t18.5 33v5h-70v128zM133 697q0 52 29 81t75 29
q37 0 82 -26q36 -21 51 -21q33 0 33 44h100q10 -38 10 -70q0 -52 -29 -81t-75 -29q-37 0 -82 26q-36 21 -51 21q-33 0 -33 -44h-100q-10 38 -10 70z" />
    <glyph glyph-name="gtilde" unicode="&#xe106;" horiz-adv-x="518" 
d="M250 474q72 0 131 -23q17 25 19 77l138 -48q-3 -38 -30 -59.5t-61 -24.5q30 -39 30 -85q0 -79 -63 -117t-164 -38q-42 0 -60 6q-17 -3 -17 -18t21 -15h141q90 0 138 -44t48 -120q0 -65 -41.5 -106t-101 -55.5t-138.5 -14.5q-235 0 -235 104q0 71 94 82q-37 8 -59 35.5
t-22 67.5q0 42 26.5 70t71.5 34q-90 32 -90 129q0 80 60.5 121.5t163.5 41.5zM153 -73q0 -17 19.5 -24.5t67.5 -7.5q100 0 100 32q0 19 -41 19h-116q-30 0 -30 -19zM215 313q0 -50 35 -50t35 50t-35 50t-35 -50zM81 600q0 52 29 81t75 29q37 0 82 -26q36 -21 51 -21
q33 0 33 44h100q10 -38 10 -70q0 -52 -29 -81t-75 -29q-37 0 -82 26q-36 21 -51 21q-33 0 -33 -44h-100q-10 38 -10 70z" />
    <glyph glyph-name="Gcommaturnedabove" unicode="&#xe107;" horiz-adv-x="651" 
d="M333 331h276v-331h-137l-21 65q-39 -77 -162 -77q-117 0 -190.5 75.5t-73.5 228.5q0 149 77.5 229t226.5 80q100 0 171 -44t93 -119l-196 -81q-9 72 -71 72q-88 0 -88 -138q0 -71 21.5 -105t71.5 -34q35 0 53.5 13t18.5 33v5h-70v128zM228 733q0 130 179 130v-58
q-78 0 -78 -31q90 0 90 -72q0 -39 -26 -59.5t-63 -20.5q-48 0 -75 31t-27 80z" />
    <glyph glyph-name="gcommaturnedabove" unicode="&#xe108;" horiz-adv-x="518" 
d="M250 474q72 0 131 -23q17 25 19 77l138 -48q-3 -38 -30 -59.5t-61 -24.5q30 -39 30 -85q0 -79 -63 -117t-164 -38q-42 0 -60 6q-17 -3 -17 -18t21 -15h141q90 0 138 -44t48 -120q0 -65 -41.5 -106t-101 -55.5t-138.5 -14.5q-235 0 -235 104q0 71 94 82q-37 8 -59 35.5
t-22 67.5q0 42 26.5 70t71.5 34q-90 32 -90 129q0 80 60.5 121.5t163.5 41.5zM153 -73q0 -17 19.5 -24.5t67.5 -7.5q100 0 100 32q0 19 -41 19h-116q-30 0 -30 -19zM215 313q0 -50 35 -50t35 50t-35 50t-35 -50zM156 615q0 130 179 130v-58q-78 0 -78 -31q90 0 90 -72
q0 -39 -26 -59.5t-63 -20.5q-48 0 -75 31t-27 80z" />
    <glyph glyph-name="Hmacronbelow" unicode="&#xe109;" horiz-adv-x="652" 
d="M255 0h-205v589h205v-202h142v202h205v-589h-205v211h-142v-211zM499 -192h-345v141h345v-141z" />
    <glyph glyph-name="hmacronbelow" unicode="&#xe10a;" horiz-adv-x="569" 
d="M245 668v-295q17 51 55.5 76t89.5 25q61 0 100 -37.5t39 -113.5v-323h-202v249q0 30 -8 44t-29 14q-45 0 -45 -71v-236h-202v668h202zM459 -192h-345v141h345v-141z" />
    <glyph glyph-name="Jcaron" unicode="&#xe10b;" horiz-adv-x="527" 
d="M283 589h204v-391q0 -210 -245 -210q-207 0 -242 180l194 72q2 -84 49 -84q40 0 40 48v385zM449 627h-135l-158 163h179l25 -32q8 -10 12.5 -18.5t5.5 -12.5l1 -4h5q2 13 19 35l25 32h179z" />
    <glyph glyph-name="Kcedilla" unicode="&#xe10d;" horiz-adv-x="634" 
d="M634 0h-238l-112 214h-29v-214h-205v589h205v-205h32l106 205h226l-157 -284zM441 -116q0 -45 -33.5 -70t-89.5 -25q-78 0 -123 35l27 76q29 -24 60 -24q26 0 26 20q0 25 -40 25l9 52q21 6 46 6q54 0 86 -23.5t32 -71.5z" />
    <glyph glyph-name="kcedilla" unicode="&#xe10e;" horiz-adv-x="574" 
d="M446 248l128 -248h-226l-80 171h-23v-171h-202v668h202v-349h23l61 143h226zM417 -116q0 -45 -33.5 -70t-89.5 -25q-78 0 -123 35l27 76q29 -24 60 -24q26 0 26 20q0 25 -40 25l9 52q21 6 46 6q54 0 86 -23.5t32 -71.5z" />
    <glyph glyph-name="Lcedilla" unicode="&#xe10f;" horiz-adv-x="485" 
d="M378 -116q0 -45 -33.5 -70t-89.5 -25q-78 0 -123 35l27 76q29 -24 60 -24q26 0 26 20q0 25 -40 25l12 79h-167v589h205v-413h205v-176h-181l-3 -30q45 0 73.5 -22t28.5 -64z" />
    <glyph glyph-name="ocedilla" unicode="&#xe110;" horiz-adv-x="544" 
d="M395 -116q0 -45 -33.5 -70t-89.5 -25q-78 0 -123 35l27 76q29 -24 60 -24q26 0 26 20q0 25 -40 25l10 69q-99 10 -156.5 72.5t-57.5 168.5q0 116 69 179.5t185 63.5t185 -63.5t69 -179.5q0 -110 -62 -173t-169 -69l-2 -19q45 0 73.5 -22t28.5 -64zM323 231q0 50 -12 73
t-39 23t-39 -23t-12 -73t12 -73t39 -23t39 23t12 73z" />
    <glyph glyph-name="Mmacron" unicode="&#xe111;" horiz-adv-x="762" 
d="M436 107h-110l-34 72l-36 88h-4q3 -50 3 -104v-163h-205v589h223l61 -128q15 -31 26 -58t15 -39l4 -12h4q12 40 45 109l61 128h223v-589h-205v163l3 104h-4q-19 -53 -36 -88zM554 627h-345v141h345v-141z" />
    <glyph glyph-name="mmacron" unicode="&#xe112;" horiz-adv-x="819" 
d="M504 368q12 49 51 77.5t89 28.5q62 0 98.5 -37t36.5 -114v-323h-202v252q0 29 -6.5 42t-24.5 13q-34 0 -34 -71v-236h-202v252q0 29 -6.5 42t-24.5 13q-34 0 -34 -71v-236h-202v462h178l25 -87q24 99 131 99t127 -106zM584 515h-345v141h345v-141z" />
    <glyph glyph-name="Mcedilla" unicode="&#xe113;" horiz-adv-x="762" 
d="M436 107h-110l-34 72l-36 88h-4q3 -50 3 -104v-163h-205v589h223l61 -128q15 -31 26 -58t15 -39l4 -12h4q12 40 45 109l61 128h223v-589h-205v163l3 104h-4q-19 -53 -36 -88zM504 -116q0 -45 -33.5 -70t-89.5 -25q-78 0 -123 35l27 76q29 -24 60 -24q26 0 26 20
q0 25 -40 25l9 52q21 6 46 6q54 0 86 -23.5t32 -71.5z" />
    <glyph glyph-name="mcedilla" unicode="&#xe114;" horiz-adv-x="819" 
d="M534 -116q0 -45 -33.5 -70t-89.5 -25q-78 0 -123 35l27 76q29 -24 60 -24q26 0 26 20q0 25 -40 25l12 79h-63v252q0 29 -6.5 42t-24.5 13q-34 0 -34 -71v-236h-202v462h178l25 -87q24 99 131 99t127 -106q12 49 51 77.5t89 28.5q62 0 98.5 -37t36.5 -114v-323h-202v252
q0 29 -6.5 42t-24.5 13q-34 0 -34 -71v-236h-77l-3 -30q45 0 73.5 -22t28.5 -64z" />
    <glyph glyph-name="Ndieresis" unicode="&#xe115;" horiz-adv-x="667" 
d="M230 589l118 -173l62 -96h4q-2 48 -2 104v165h205v-589h-170l-126 173l-64 95h-4q2 -46 2 -121v-147h-205v589h180zM123 715q0 46 29 71t71 25t71 -25t29 -71q0 -45 -29 -70t-71 -25t-71 25t-29 70zM343 715q0 46 29 71t71 25t71 -25t29 -71q0 -45 -29 -70t-71 -25
t-71 25t-29 70z" />
    <glyph glyph-name="ndieresis" unicode="&#xe116;" horiz-adv-x="569" 
d="M221 462l25 -89q14 50 53 75.5t91 25.5q61 0 100 -37.5t39 -113.5v-323h-202v249q0 30 -8 44t-29 14q-45 0 -45 -71v-236h-202v462h178zM76 590q0 46 29 71t71 25t71 -25t29 -71q0 -45 -29 -70t-71 -25t-71 25t-29 70zM296 590q0 46 29 71t71 25t71 -25t29 -71
q0 -45 -29 -70t-71 -25t-71 25t-29 70z" />
    <glyph glyph-name="Nmacron" unicode="&#xe117;" horiz-adv-x="667" 
d="M230 589l118 -173l62 -96h4q-2 48 -2 104v165h205v-589h-170l-126 173l-64 95h-4q2 -46 2 -121v-147h-205v589h180zM506 627h-345v141h345v-141z" />
    <glyph glyph-name="nmacron" unicode="&#xe118;" horiz-adv-x="569" 
d="M221 462l25 -89q14 50 53 75.5t91 25.5q61 0 100 -37.5t39 -113.5v-323h-202v249q0 30 -8 44t-29 14q-45 0 -45 -71v-236h-202v462h178zM459 515h-345v141h345v-141z" />
    <glyph glyph-name="Ncedilla" unicode="&#xe119;" horiz-adv-x="667" 
d="M230 589l118 -173l62 -96h4q-2 48 -2 104v165h205v-589h-170l-126 173l-64 95h-4q2 -46 2 -121v-147h-205v589h180zM455 -116q0 -45 -33.5 -70t-89.5 -25q-78 0 -123 35l27 76q29 -24 60 -24q26 0 26 20q0 25 -40 25l9 52q21 6 46 6q54 0 86 -23.5t32 -71.5z" />
    <glyph glyph-name="ncedilla" unicode="&#xe11a;" horiz-adv-x="569" 
d="M221 462l25 -89q14 50 53 75.5t91 25.5q61 0 100 -37.5t39 -113.5v-323h-202v249q0 30 -8 44t-29 14q-45 0 -45 -71v-236h-202v462h178zM413 -116q0 -45 -33.5 -70t-89.5 -25q-78 0 -123 35l27 76q29 -24 60 -24q26 0 26 20q0 25 -40 25l9 52q21 6 46 6q54 0 86 -23.5
t32 -71.5z" />
    <glyph glyph-name="Ocommaturnedabove" unicode="&#xe11b;" horiz-adv-x="644" 
d="M619 294q0 -148 -77.5 -227t-219.5 -79t-219.5 79t-77.5 227q0 149 77.5 228t219.5 79t219.5 -79t77.5 -228zM405 294q0 68 -19 102t-64 34t-64 -34t-19 -102q0 -67 19 -101t64 -34t64 34t19 101zM227 733q0 130 179 130v-58q-78 0 -78 -31q90 0 90 -72q0 -39 -26 -59.5
t-63 -20.5q-48 0 -75 31t-27 80z" />
    <glyph glyph-name="ocommaturnedabove" unicode="&#xe11c;" horiz-adv-x="544" 
d="M18 231q0 116 69 179.5t185 63.5t185 -63.5t69 -179.5t-69 -179.5t-185 -63.5t-185 63.5t-69 179.5zM323 231q0 50 -12 73t-39 23t-39 -23t-12 -73t12 -73t39 -23t39 23t12 73zM177 613q0 130 179 130v-58q-78 0 -78 -31q90 0 90 -72q0 -39 -26 -59.5t-63 -20.5
q-48 0 -75 31t-27 80z" />
    <glyph glyph-name="uni004F02D900AF" unicode="&#xe11d;" horiz-adv-x="644" 
d="M619 294q0 -148 -77.5 -227t-219.5 -79t-219.5 79t-77.5 227q0 149 77.5 228t219.5 79t219.5 -79t77.5 -228zM405 294q0 68 -19 102t-64 34t-64 -34t-19 -102q0 -67 19 -101t64 -34t64 34t19 101zM208 712q0 49 33 76t81 27t81 -27t33 -76t-33 -76t-81 -27t-81 27t-33 76
zM495 824h-345v141h345v-141z" />
    <glyph glyph-name="Ocedilla" unicode="&#xe11f;" horiz-adv-x="644" 
d="M445 -116q0 -45 -33.5 -70t-89.5 -25q-78 0 -123 35l27 76q29 -24 60 -24q26 0 26 20q0 25 -40 25l10 69q-123 11 -190 88.5t-67 215.5q0 149 77.5 228t219.5 79t219.5 -79t77.5 -228q0 -142 -71.5 -220.5t-202.5 -84.5l-2 -19q45 0 73.5 -22t28.5 -64zM405 294
q0 68 -19 102t-64 34t-64 -34t-19 -102q0 -67 19 -101t64 -34t64 34t19 101z" />
    <glyph glyph-name="Ounderlineaccent" unicode="&#xe121;" horiz-adv-x="644" 
d="M619 294q0 -148 -77.5 -227t-219.5 -79t-219.5 79t-77.5 227q0 149 77.5 228t219.5 79t219.5 -79t77.5 -228zM405 294q0 68 -19 102t-64 34t-64 -34t-19 -102q0 -67 19 -101t64 -34t64 34t19 101zM495 -192h-345v141h345v-141z" />
    <glyph glyph-name="ounderlineaccent" unicode="&#xe122;" horiz-adv-x="544" 
d="M18 231q0 116 69 179.5t185 63.5t185 -63.5t69 -179.5t-69 -179.5t-185 -63.5t-185 63.5t-69 179.5zM323 231q0 50 -12 73t-39 23t-39 -23t-12 -73t12 -73t39 -23t39 23t12 73zM445 -192h-345v141h345v-141z" />
    <glyph glyph-name="Pmacron" unicode="&#xe123;" horiz-adv-x="577" 
d="M255 417v-108h49q49 0 49 54t-49 54h-49zM255 0h-205v589h279q233 0 233 -224q0 -107 -63 -163.5t-170 -56.5h-74v-145zM439 627h-345v141h345v-141z" />
    <glyph glyph-name="pmacron" unicode="&#xe124;" horiz-adv-x="586" 
d="M245 237v-30q0 -36 14.5 -56t39.5 -20q34 0 47.5 24.5t13.5 74.5q0 85 -57 85q-27 0 -42.5 -20.5t-15.5 -57.5zM245 54v-257h-202v665h179l23 -85q14 45 50.5 71t87.5 26q88 0 136.5 -62t48.5 -170q0 -124 -52.5 -189t-147.5 -65q-44 0 -78 18t-45 48zM478 515h-345v141
h345v-141z" />
    <glyph glyph-name="Rdoublegrave" unicode="&#xe125;" horiz-adv-x="607" 
d="M607 0h-225q-21 23 -33 73l-10 46q-5 26 -17 36t-34 10h-37v-165h-201v589h285q236 0 236 -190q0 -133 -119 -153v-4q39 -6 60.5 -26.5t32.5 -60.5l22 -78q15 -52 40 -77zM251 416v-96h60q50 0 50 49q0 47 -48 47h-62zM464 627h-139l-91 166h193zM268 627h-157l-118 166
h210z" />
    <glyph glyph-name="rdoublegrave" unicode="&#xe126;" horiz-adv-x="432" 
d="M432 468l-27 -230q-36 26 -85 26q-32 0 -53.5 -19t-21.5 -61v-184h-202v462h178l20 -131q6 60 45 100t105 40q21 0 41 -3zM425 515h-139l-91 166h193zM229 515h-157l-118 166h210z" />
    <glyph glyph-name="Rcedilla" unicode="&#xe127;" horiz-adv-x="607" 
d="M607 0h-225q-21 23 -33 73l-10 46q-5 26 -17 36t-34 10h-37v-165h-201v589h285q236 0 236 -190q0 -133 -119 -153v-4q39 -6 60.5 -26.5t32.5 -60.5l22 -78q15 -52 40 -77zM251 416v-96h60q50 0 50 49q0 47 -48 47h-62zM437 -116q0 -45 -33.5 -70t-89.5 -25q-78 0 -123 35
l27 76q29 -24 60 -24q26 0 26 20q0 25 -40 25l9 52q21 6 46 6q54 0 86 -23.5t32 -71.5z" />
    <glyph glyph-name="rcedilla" unicode="&#xe128;" horiz-adv-x="432" 
d="M270 -116q0 -45 -33.5 -70t-89.5 -25q-78 0 -123 35l27 76q29 -24 60 -24q26 0 26 20q0 25 -40 25l12 79h-66v462h178l20 -131q6 60 45 100t105 40q21 0 41 -3l-27 -230q-36 26 -85 26q-32 0 -53.5 -19t-21.5 -61v-184h-74l-3 -30q45 0 73.5 -22t28.5 -64z" />
    <glyph glyph-name="Tcedilla" unicode="&#xe129;" horiz-adv-x="537" 
d="M391 -116q0 -45 -33.5 -70t-89.5 -25q-78 0 -123 35l27 76q29 -24 60 -24q26 0 26 20q0 25 -40 25l12 79h-66v413h-144v176h497v-176h-148v-413h-77l-3 -30q45 0 73.5 -22t28.5 -64z" />
    <glyph glyph-name="tcedilla" unicode="&#xe12a;" horiz-adv-x="407" 
d="M347 -116q0 -45 -33.5 -70t-89.5 -25q-78 0 -123 35l27 76q29 -24 60 -24q26 0 26 20q0 25 -40 25l10 71q-123 20 -123 174v148h-55v148h57v98l194 22v-120h111v-148h-112v-109q0 -46 39 -46q40 0 67 31l33 -154q-54 -45 -148 -48l-2 -18q45 0 73.5 -22t28.5 -64z" />
    <glyph glyph-name="Umacronbelow" unicode="&#xe12b;" horiz-adv-x="622" 
d="M311 -12q-271 0 -271 240v361h205v-340q0 -94 66 -94t66 94v340h205v-361q0 -240 -271 -240zM484 -192h-345v141h345v-141z" />
    <glyph glyph-name="umacronbelow" unicode="&#xe12c;" horiz-adv-x="563" 
d="M345 0l-25 84q-16 -96 -135 -96q-69 0 -108 39.5t-39 117.5v317h202v-274q0 -52 32 -52q25 0 35.5 20t10.5 66v240h202v-462h-175zM452 -192h-345v141h345v-141z" />
    <glyph glyph-name="R.alt" unicode="&#xe141;" horiz-adv-x="612" 
d="M617 0h-236l-93 165h-37v-165h-201v589h277q116 0 180 -48.5t64 -164.5q0 -117 -92 -162zM251 416v-96h60q50 0 50 49q0 47 -48 47h-62z" />
    <glyph glyph-name="Racute.alt" unicode="&#xe142;" horiz-adv-x="612" 
d="M617 0h-236l-93 165h-37v-165h-201v589h277q116 0 180 -48.5t64 -164.5q0 -117 -92 -162zM251 416v-96h60q50 0 50 49q0 47 -48 47h-62zM361 627h-170l65 156h243z" />
    <glyph glyph-name="Rcaron.alt" unicode="&#xe143;" horiz-adv-x="612" 
d="M617 0h-236l-93 165h-37v-165h-201v589h277q116 0 180 -48.5t64 -164.5q0 -117 -92 -162zM251 416v-96h60q50 0 50 49q0 47 -48 47h-62zM353 627h-135l-158 163h179l25 -32q8 -10 12.5 -18.5t5.5 -12.5l1 -4h5q2 13 19 35l25 32h179z" />
    <glyph glyph-name="Rinvertedbreve.alt" unicode="&#xe144;" horiz-adv-x="612" 
d="M617 0h-236l-93 165h-37v-165h-201v589h277q116 0 180 -48.5t64 -164.5q0 -117 -92 -162zM251 416v-96h60q50 0 50 49q0 47 -48 47h-62zM285 801q173 0 173 -174h-138q0 49 -35 49t-35 -49h-138q0 174 173 174z" />
    <glyph glyph-name="Rdoublegrave.alt" unicode="&#xe145;" horiz-adv-x="612" 
d="M617 0h-236l-93 165h-37v-165h-201v589h277q116 0 180 -48.5t64 -164.5q0 -117 -92 -162zM251 416v-96h60q50 0 50 49q0 47 -48 47h-62zM459 627h-139l-91 166h193zM263 627h-157l-118 166h210z" />
    <glyph glyph-name="Rcommaaccent.alt" unicode="&#xe146;" horiz-adv-x="612" 
d="M617 0h-236l-93 165h-37v-165h-201v589h277q116 0 180 -48.5t64 -164.5q0 -117 -92 -162zM251 416v-96h60q50 0 50 49q0 47 -48 47h-62zM401 -138q0 -130 -179 -130v58q78 0 78 31q-90 0 -90 72q0 39 26 59.5t63 20.5q48 0 75 -31t27 -80z" />
    <glyph glyph-name="Rcedilla.alt" unicode="&#xe147;" horiz-adv-x="612" 
d="M617 0h-236l-93 165h-37v-165h-201v589h277q116 0 180 -48.5t64 -164.5q0 -117 -92 -162zM251 416v-96h60q50 0 50 49q0 47 -48 47h-62zM437 -116q0 -45 -33.5 -70t-89.5 -25q-78 0 -123 35l27 76q29 -24 60 -24q26 0 26 20q0 25 -40 25l9 52q21 6 46 6q54 0 86 -23.5
t32 -71.5z" />
    <glyph glyph-name="Rdotbelow.alt" unicode="&#xe148;" horiz-adv-x="612" 
d="M617 0h-236l-93 165h-37v-165h-201v589h277q116 0 180 -48.5t64 -164.5q0 -117 -92 -162zM251 416v-96h60q50 0 50 49q0 47 -48 47h-62zM198 -126q0 46 31.5 71.5t75.5 25.5q45 0 76.5 -25.5t31.5 -71.5t-31.5 -71.5t-76.5 -25.5q-44 0 -75.5 25.5t-31.5 71.5z" />
    <glyph glyph-name="Rdotbelowmacron.alt" unicode="&#xe149;" horiz-adv-x="612" 
d="M617 0h-236l-93 165h-37v-165h-201v589h277q116 0 180 -48.5t64 -164.5q0 -117 -92 -162zM251 416v-96h60q50 0 50 49q0 47 -48 47h-62zM198 -126q0 46 31.5 71.5t75.5 25.5q45 0 76.5 -25.5t31.5 -71.5t-31.5 -71.5t-76.5 -25.5q-44 0 -75.5 25.5t-31.5 71.5zM458 627
h-345v141h345v-141z" />
    <glyph glyph-name="aogonek.school" unicode="&#xe150;" horiz-adv-x="585" 
d="M341 221v30q0 36 -14.5 56t-39.5 20q-34 0 -47.5 -24.5t-13.5 -74.5q0 -85 57 -85q27 0 42.5 20.5t15.5 57.5zM366 19l-25 61q-12 -44 -49 -68t-89 -24q-89 0 -137 63t-48 176q0 120 53.5 183.5t150.5 63.5q102 0 134 -83l28 71h158v-462h-37q-33 0 -50.5 -15t-17.5 -35
q0 -37 42 -37q30 0 60 25l40 -100q-53 -49 -142 -49q-63 0 -104.5 29t-41.5 96q0 78 75 105z" />
    <glyph glyph-name="a.school" unicode="&#xe151;" horiz-adv-x="585" 
d="M222 474q102 0 134 -83l28 71h158v-462h-175l-26 80q-12 -44 -49 -68t-89 -24q-89 0 -137 63t-48 176q0 120 53.5 183.5t150.5 63.5zM341 221v30q0 36 -14.5 56t-39.5 20q-34 0 -47.5 -24.5t-13.5 -74.5q0 -85 57 -85q27 0 42.5 20.5t15.5 57.5z" />
    <glyph glyph-name="agrave.school" unicode="&#xe152;" horiz-adv-x="585" 
d="M222 474q102 0 134 -83l28 71h158v-462h-175l-26 80q-12 -44 -49 -68t-89 -24q-89 0 -137 63t-48 176q0 120 53.5 183.5t150.5 63.5zM341 221v30q0 36 -14.5 56t-39.5 20q-34 0 -47.5 -24.5t-13.5 -74.5q0 -85 57 -85q27 0 42.5 20.5t15.5 57.5zM384 515h-170l-138 156
h243z" />
    <glyph glyph-name="aacute.school" unicode="&#xe153;" horiz-adv-x="585" 
d="M222 474q102 0 134 -83l28 71h158v-462h-175l-26 80q-12 -44 -49 -68t-89 -24q-89 0 -137 63t-48 176q0 120 53.5 183.5t150.5 63.5zM341 221v30q0 36 -14.5 56t-39.5 20q-34 0 -47.5 -24.5t-13.5 -74.5q0 -85 57 -85q27 0 42.5 20.5t15.5 57.5zM372 515h-170l65 156h243
z" />
    <glyph glyph-name="acircumflex.school" unicode="&#xe154;" horiz-adv-x="585" 
d="M222 474q102 0 134 -83l28 71h158v-462h-175l-26 80q-12 -44 -49 -68t-89 -24q-89 0 -137 63t-48 176q0 120 53.5 183.5t150.5 63.5zM341 221v30q0 36 -14.5 56t-39.5 20q-34 0 -47.5 -24.5t-13.5 -74.5q0 -85 57 -85q27 0 42.5 20.5t15.5 57.5zM236 678h135l158 -163
h-179l-25 32q-8 10 -12.5 18.5t-5.5 12.5l-1 4h-5q-2 -13 -19 -35l-25 -32h-179z" />
    <glyph glyph-name="adieresis.school" unicode="&#xe155;" horiz-adv-x="585" 
d="M222 474q102 0 134 -83l28 71h158v-462h-175l-26 80q-12 -44 -49 -68t-89 -24q-89 0 -137 63t-48 176q0 120 53.5 183.5t150.5 63.5zM341 221v30q0 36 -14.5 56t-39.5 20q-34 0 -47.5 -24.5t-13.5 -74.5q0 -85 57 -85q27 0 42.5 20.5t15.5 57.5zM91 590q0 46 29 71t71 25
t71 -25t29 -71q0 -45 -29 -70t-71 -25t-71 25t-29 70zM311 590q0 46 29 71t71 25t71 -25t29 -71q0 -45 -29 -70t-71 -25t-71 25t-29 70z" />
    <glyph glyph-name="atilde.school" unicode="&#xe156;" horiz-adv-x="585" 
d="M222 474q102 0 134 -83l28 71h158v-462h-175l-26 80q-12 -44 -49 -68t-89 -24q-89 0 -137 63t-48 176q0 120 53.5 183.5t150.5 63.5zM341 221v30q0 36 -14.5 56t-39.5 20q-34 0 -47.5 -24.5t-13.5 -74.5q0 -85 57 -85q27 0 42.5 20.5t15.5 57.5zM106 580q0 52 29 81
t75 29q37 0 82 -26q36 -21 51 -21q33 0 33 44h100q10 -38 10 -70q0 -52 -29 -81t-75 -29q-37 0 -82 26q-36 21 -51 21q-33 0 -33 -44h-100q-10 38 -10 70z" />
    <glyph glyph-name="aring.school" unicode="&#xe157;" horiz-adv-x="585" 
d="M222 474q102 0 134 -83l28 71h158v-462h-175l-26 80q-12 -44 -49 -68t-89 -24q-89 0 -137 63t-48 176q0 120 53.5 183.5t150.5 63.5zM341 221v30q0 36 -14.5 56t-39.5 20q-34 0 -47.5 -24.5t-13.5 -74.5q0 -85 57 -85q27 0 42.5 20.5t15.5 57.5zM296 490q-59 0 -92 33.5
t-33 85.5q0 49 34.5 82.5t90.5 33.5t90.5 -33.5t34.5 -82.5q0 -52 -33 -85.5t-92 -33.5zM296 650q-18 0 -28.5 -11.5t-10.5 -29.5q0 -17 10 -29t29 -12q18 0 28 12t10 29q0 18 -10 29.5t-28 11.5z" />
    <glyph glyph-name="acaron.school" unicode="&#xe158;" horiz-adv-x="585" 
d="M222 474q102 0 134 -83l28 71h158v-462h-175l-26 80q-12 -44 -49 -68t-89 -24q-89 0 -137 63t-48 176q0 120 53.5 183.5t150.5 63.5zM341 221v30q0 36 -14.5 56t-39.5 20q-34 0 -47.5 -24.5t-13.5 -74.5q0 -85 57 -85q27 0 42.5 20.5t15.5 57.5zM369 515h-135l-158 163
h179l25 -32q8 -10 12.5 -18.5t5.5 -12.5l1 -4h5q2 13 19 35l25 32h179z" />
    <glyph glyph-name="amacron.school" unicode="&#xe159;" horiz-adv-x="585" 
d="M222 474q102 0 134 -83l28 71h158v-462h-175l-26 80q-12 -44 -49 -68t-89 -24q-89 0 -137 63t-48 176q0 120 53.5 183.5t150.5 63.5zM341 221v30q0 36 -14.5 56t-39.5 20q-34 0 -47.5 -24.5t-13.5 -74.5q0 -85 57 -85q27 0 42.5 20.5t15.5 57.5zM469 515h-345v141h345
v-141z" />
    <glyph glyph-name="abreve.school" unicode="&#xe15a;" horiz-adv-x="585" 
d="M222 474q102 0 134 -83l28 71h158v-462h-175l-26 80q-12 -44 -49 -68t-89 -24q-89 0 -137 63t-48 176q0 120 53.5 183.5t150.5 63.5zM341 221v30q0 36 -14.5 56t-39.5 20q-34 0 -47.5 -24.5t-13.5 -74.5q0 -85 57 -85q27 0 42.5 20.5t15.5 57.5zM301 510q-173 0 -173 174
h138q0 -49 35 -49t35 49h138q0 -174 -173 -174z" />
    <glyph glyph-name="ainvertedbreve.school" unicode="&#xe15b;" horiz-adv-x="585" 
d="M222 474q102 0 134 -83l28 71h158v-462h-175l-26 80q-12 -44 -49 -68t-89 -24q-89 0 -137 63t-48 176q0 120 53.5 183.5t150.5 63.5zM341 221v30q0 36 -14.5 56t-39.5 20q-34 0 -47.5 -24.5t-13.5 -74.5q0 -85 57 -85q27 0 42.5 20.5t15.5 57.5zM296 689q173 0 173 -174
h-138q0 49 -35 49t-35 -49h-138q0 174 173 174z" />
    <glyph glyph-name="adoublegrave.school" unicode="&#xe15c;" horiz-adv-x="585" 
d="M222 474q102 0 134 -83l28 71h158v-462h-175l-26 80q-12 -44 -49 -68t-89 -24q-89 0 -137 63t-48 176q0 120 53.5 183.5t150.5 63.5zM341 221v30q0 36 -14.5 56t-39.5 20q-34 0 -47.5 -24.5t-13.5 -74.5q0 -85 57 -85q27 0 42.5 20.5t15.5 57.5zM489 515h-139l-91 166
h193zM293 515h-157l-118 166h210z" />
    <glyph glyph-name="adotabove.school" unicode="&#xe15d;" horiz-adv-x="585" 
d="M222 474q102 0 134 -83l28 71h158v-462h-175l-26 80q-12 -44 -49 -68t-89 -24q-89 0 -137 63t-48 176q0 120 53.5 183.5t150.5 63.5zM341 221v30q0 36 -14.5 56t-39.5 20q-34 0 -47.5 -24.5t-13.5 -74.5q0 -85 57 -85q27 0 42.5 20.5t15.5 57.5zM182 593q0 49 33 76
t81 27t81 -27t33 -76t-33 -76t-81 -27t-81 27t-33 76z" />
    <glyph glyph-name="aringacute.school" unicode="&#xe15e;" horiz-adv-x="585" 
d="M222 474q102 0 134 -83l28 71h158v-462h-175l-26 80q-12 -44 -49 -68t-89 -24q-89 0 -137 63t-48 176q0 120 53.5 183.5t150.5 63.5zM341 221v30q0 36 -14.5 56t-39.5 20q-34 0 -47.5 -24.5t-13.5 -74.5q0 -85 57 -85q27 0 42.5 20.5t15.5 57.5zM296 477q-59 0 -92 33.5
t-33 85.5q0 49 34.5 82.5t90.5 33.5t90.5 -33.5t34.5 -82.5q0 -52 -33 -85.5t-92 -33.5zM296 637q-18 0 -28.5 -11.5t-10.5 -29.5t10 -29.5t29 -11.5q18 0 28 12t10 29q0 18 -10 29.5t-28 11.5zM383 722h-170l65 156h243z" />
    <glyph glyph-name="adieresismacron.school" unicode="&#xe15f;" horiz-adv-x="585" 
d="M222 474q102 0 134 -83l28 71h158v-462h-175l-26 80q-12 -44 -49 -68t-89 -24q-89 0 -137 63t-48 176q0 120 53.5 183.5t150.5 63.5zM341 221v30q0 36 -14.5 56t-39.5 20q-34 0 -47.5 -24.5t-13.5 -74.5q0 -85 57 -85q27 0 42.5 20.5t15.5 57.5zM91 583q0 46 29 71t71 25
t71 -25t29 -71q0 -45 -29 -70t-71 -25t-71 25t-29 70zM311 583q0 46 29 71t71 25t71 -25t29 -71q0 -45 -29 -70t-71 -25t-71 25t-29 70zM474 695h-345v141h345v-141z" />
    <glyph glyph-name="ytilde.school" unicode="&#xe160;" horiz-adv-x="563" 
d="M320 38v46q-23 -68 -133 -68q-67 0 -108 39t-41 115v292h202v-253q0 -52 32 -52q25 0 35.5 20t10.5 66v219h202v-416q0 -257 -291 -257q-86 0 -146.5 28t-86.5 72l112 114q41 -61 121 -61q91 0 91 96zM88 580q0 52 29 81t75 29q37 0 82 -26q36 -21 51 -21q33 0 33 44h100
q10 -38 10 -70q0 -52 -29 -81t-75 -29q-37 0 -82 26q-36 21 -51 21q-33 0 -33 -44h-100q-10 38 -10 70z" />
    <glyph glyph-name="g.school" unicode="&#xe161;" horiz-adv-x="584" 
d="M341 38v42q-31 -64 -131 -64q-87 0 -139.5 56.5t-52.5 165.5q0 112 53.5 174t149.5 62q49 0 84 -22.5t50 -60.5l28 71h158v-416q0 -131 -81 -194t-223 -63q-86 0 -146.5 28t-86.5 72l112 114q21 -33 49 -47t72 -14q104 0 104 96zM342 234v27q0 32 -14.5 50t-39.5 18
q-35 0 -48.5 -21.5t-13.5 -67.5q0 -76 57 -76q27 0 43 18.5t16 51.5z" />
    <glyph glyph-name="gacute.school" unicode="&#xe162;" horiz-adv-x="584" 
d="M341 38v42q-31 -64 -131 -64q-87 0 -139.5 56.5t-52.5 165.5q0 112 53.5 174t149.5 62q49 0 84 -22.5t50 -60.5l28 71h158v-416q0 -131 -81 -194t-223 -63q-86 0 -146.5 28t-86.5 72l112 114q21 -33 49 -47t72 -14q104 0 104 96zM342 234v27q0 32 -14.5 50t-39.5 18
q-35 0 -48.5 -21.5t-13.5 -67.5q0 -76 57 -76q27 0 43 18.5t16 51.5zM370 515h-170l65 156h243z" />
    <glyph glyph-name="gcircumflex.school" unicode="&#xe163;" horiz-adv-x="584" 
d="M341 38v42q-31 -64 -131 -64q-87 0 -139.5 56.5t-52.5 165.5q0 112 53.5 174t149.5 62q49 0 84 -22.5t50 -60.5l28 71h158v-416q0 -131 -81 -194t-223 -63q-86 0 -146.5 28t-86.5 72l112 114q21 -33 49 -47t72 -14q104 0 104 96zM342 234v27q0 32 -14.5 50t-39.5 18
q-35 0 -48.5 -21.5t-13.5 -67.5q0 -76 57 -76q27 0 43 18.5t16 51.5zM232 678h135l158 -163h-179l-25 32q-8 10 -12.5 18.5t-5.5 12.5l-1 4h-5q-2 -13 -19 -35l-25 -32h-179z" />
    <glyph glyph-name="gtilde.school" unicode="&#xe164;" horiz-adv-x="584" 
d="M341 38v42q-31 -64 -131 -64q-87 0 -139.5 56.5t-52.5 165.5q0 112 53.5 174t149.5 62q49 0 84 -22.5t50 -60.5l28 71h158v-416q0 -131 -81 -194t-223 -63q-86 0 -146.5 28t-86.5 72l112 114q21 -33 49 -47t72 -14q104 0 104 96zM342 234v27q0 32 -14.5 50t-39.5 18
q-35 0 -48.5 -21.5t-13.5 -67.5q0 -76 57 -76q27 0 43 18.5t16 51.5zM104 580q0 52 29 81t75 29q37 0 82 -26q36 -21 51 -21q33 0 33 44h100q10 -38 10 -70q0 -52 -29 -81t-75 -29q-37 0 -82 26q-36 21 -51 21q-33 0 -33 -44h-100q-10 38 -10 70z" />
    <glyph glyph-name="gcaron.school" unicode="&#xe165;" horiz-adv-x="584" 
d="M341 38v42q-31 -64 -131 -64q-87 0 -139.5 56.5t-52.5 165.5q0 112 53.5 174t149.5 62q49 0 84 -22.5t50 -60.5l28 71h158v-416q0 -131 -81 -194t-223 -63q-86 0 -146.5 28t-86.5 72l112 114q21 -33 49 -47t72 -14q104 0 104 96zM342 234v27q0 32 -14.5 50t-39.5 18
q-35 0 -48.5 -21.5t-13.5 -67.5q0 -76 57 -76q27 0 43 18.5t16 51.5zM367 515h-135l-158 163h179l25 -32q8 -10 12.5 -18.5t5.5 -12.5l1 -4h5q2 13 19 35l25 32h179z" />
    <glyph glyph-name="gbreve.school" unicode="&#xe166;" horiz-adv-x="584" 
d="M341 38v42q-31 -64 -131 -64q-87 0 -139.5 56.5t-52.5 165.5q0 112 53.5 174t149.5 62q49 0 84 -22.5t50 -60.5l28 71h158v-416q0 -131 -81 -194t-223 -63q-86 0 -146.5 28t-86.5 72l112 114q21 -33 49 -47t72 -14q104 0 104 96zM342 234v27q0 32 -14.5 50t-39.5 18
q-35 0 -48.5 -21.5t-13.5 -67.5q0 -76 57 -76q27 0 43 18.5t16 51.5zM299 510q-173 0 -173 174h138q0 -49 35 -49t35 49h138q0 -174 -173 -174z" />
    <glyph glyph-name="gdotaccent.school" unicode="&#xe167;" horiz-adv-x="584" 
d="M341 38v42q-31 -64 -131 -64q-87 0 -139.5 56.5t-52.5 165.5q0 112 53.5 174t149.5 62q49 0 84 -22.5t50 -60.5l28 71h158v-416q0 -131 -81 -194t-223 -63q-86 0 -146.5 28t-86.5 72l112 114q21 -33 49 -47t72 -14q104 0 104 96zM342 234v27q0 32 -14.5 50t-39.5 18
q-35 0 -48.5 -21.5t-13.5 -67.5q0 -76 57 -76q27 0 43 18.5t16 51.5zM185 593q0 49 33 76t81 27t81 -27t33 -76t-33 -76t-81 -27t-81 27t-33 76z" />
    <glyph glyph-name="gcommaaccent.school" unicode="&#xe168;" horiz-adv-x="584" 
d="M341 38v42q-31 -64 -131 -64q-87 0 -139.5 56.5t-52.5 165.5q0 112 53.5 174t149.5 62q49 0 84 -22.5t50 -60.5l28 71h158v-416q0 -131 -81 -194t-223 -63q-86 0 -146.5 28t-86.5 72l112 114q21 -33 49 -47t72 -14q104 0 104 96zM342 234v27q0 32 -14.5 50t-39.5 18
q-35 0 -48.5 -21.5t-13.5 -67.5q0 -76 57 -76q27 0 43 18.5t16 51.5zM204 615q0 130 179 130v-58q-78 0 -78 -31q90 0 90 -72q0 -39 -26 -59.5t-63 -20.5q-48 0 -75 31t-27 80z" />
    <glyph glyph-name="gcommaturnedabove.school" unicode="&#xe169;" horiz-adv-x="584" 
d="M341 38v42q-31 -64 -131 -64q-87 0 -139.5 56.5t-52.5 165.5q0 112 53.5 174t149.5 62q49 0 84 -22.5t50 -60.5l28 71h158v-416q0 -131 -81 -194t-223 -63q-86 0 -146.5 28t-86.5 72l112 114q21 -33 49 -47t72 -14q104 0 104 96zM342 234v27q0 32 -14.5 50t-39.5 18
q-35 0 -48.5 -21.5t-13.5 -67.5q0 -76 57 -76q27 0 43 18.5t16 51.5zM204 615q0 130 179 130v-58q-78 0 -78 -31q90 0 90 -72q0 -39 -26 -59.5t-63 -20.5q-48 0 -75 31t-27 80z" />
    <glyph glyph-name="gstroke.school" unicode="&#xe16a;" horiz-adv-x="584" 
d="M250 -43v56h90q1 4 1 12v55q-17 -27 -53 -40.5t-72 -13.5q-91 0 -144.5 53t-53.5 159q0 112 53.5 174t149.5 62q49 0 84 -22.5t50 -60.5l28 71h158v-416q0 -13 -2 -33h57v-56h-67q-25 -85 -98.5 -126.5t-181.5 -41.5q-94 0 -156 28t-89 72l112 121q52 -81 123 -81
q57 0 81 28h-70zM342 234v27q0 32 -14.5 50t-39.5 18q-35 0 -48.5 -21.5t-13.5 -67.5q0 -76 57 -76q27 0 43 18.5t16 51.5z" />
    <glyph glyph-name="y.school" unicode="&#xe16b;" horiz-adv-x="563" 
d="M320 38v46q-23 -68 -133 -68q-67 0 -108 39t-41 115v292h202v-253q0 -52 32 -52q25 0 35.5 20t10.5 66v219h202v-416q0 -257 -291 -257q-86 0 -146.5 28t-86.5 72l112 114q41 -61 121 -61q91 0 91 96z" />
    <glyph glyph-name="ygrave.school" unicode="&#xe16c;" horiz-adv-x="563" 
d="M320 38v46q-23 -68 -133 -68q-67 0 -108 39t-41 115v292h202v-253q0 -52 32 -52q25 0 35.5 20t10.5 66v219h202v-416q0 -257 -291 -257q-86 0 -146.5 28t-86.5 72l112 114q41 -61 121 -61q91 0 91 96zM366 515h-170l-138 156h243z" />
    <glyph glyph-name="yacute.school" unicode="&#xe16d;" horiz-adv-x="563" 
d="M320 38v46q-23 -68 -133 -68q-67 0 -108 39t-41 115v292h202v-253q0 -52 32 -52q25 0 35.5 20t10.5 66v219h202v-416q0 -257 -291 -257q-86 0 -146.5 28t-86.5 72l112 114q41 -61 121 -61q91 0 91 96zM354 515h-170l65 156h243z" />
    <glyph glyph-name="ycircumflex.school" unicode="&#xe16e;" horiz-adv-x="563" 
d="M320 38v46q-23 -68 -133 -68q-67 0 -108 39t-41 115v292h202v-253q0 -52 32 -52q25 0 35.5 20t10.5 66v219h202v-416q0 -257 -291 -257q-86 0 -146.5 28t-86.5 72l112 114q41 -61 121 -61q91 0 91 96zM211 678h135l158 -163h-179l-25 32q-8 10 -12.5 18.5t-5.5 12.5l-1 4
h-5q-2 -13 -19 -35l-25 -32h-179z" />
    <glyph glyph-name="ydieresis.school" unicode="&#xe16f;" horiz-adv-x="563" 
d="M320 38v46q-23 -68 -133 -68q-67 0 -108 39t-41 115v292h202v-253q0 -52 32 -52q25 0 35.5 20t10.5 66v219h202v-416q0 -257 -291 -257q-86 0 -146.5 28t-86.5 72l112 114q41 -61 121 -61q91 0 91 96zM68 590q0 46 29 71t71 25t71 -25t29 -71q0 -45 -29 -70t-71 -25
t-71 25t-29 70zM288 590q0 46 29 71t71 25t71 -25t29 -71q0 -45 -29 -70t-71 -25t-71 25t-29 70z" />
    <glyph glyph-name="ymacron.school" unicode="&#xe171;" horiz-adv-x="563" 
d="M320 38v46q-23 -68 -133 -68q-67 0 -108 39t-41 115v292h202v-253q0 -52 32 -52q25 0 35.5 20t10.5 66v219h202v-416q0 -257 -291 -257q-86 0 -146.5 28t-86.5 72l112 114q41 -61 121 -61q91 0 91 96zM451 515h-345v141h345v-141z" />
    <glyph glyph-name="cordinal" unicode="&#xe181;" horiz-adv-x="360" 
d="M227 420l118 -44q-11 -48 -50.5 -72.5t-98.5 -24.5q-79 0 -125 42t-46 117q0 77 45.5 120t122.5 43q64 0 102.5 -30.5t43.5 -81.5l-113 -30q-3 19 -8.5 27.5t-19.5 8.5q-33 0 -33 -55t33 -55q28 0 29 35z" />
    <glyph glyph-name="ordfeminine.school" unicode="&#xe182;" horiz-adv-x="440" 
d="M274 287l-17 52q-32 -60 -104 -60q-58 0 -93 41.5t-35 115.5q0 79 37 122t102 43t86 -50l20 42h125v-306h-121zM250 429v25q0 22 -10 35t-25 13q-22 0 -31 -15.5t-9 -51.5q0 -57 37 -57q15 0 26.5 13t11.5 38z" />
    <glyph glyph-name="gsuperior.school" unicode="&#xe183;" horiz-adv-x="439" 
d="M250 338v22q-32 -50 -100 -50q-59 0 -95 37.5t-36 104.5q0 72 37.5 110.5t102.5 38.5q77 0 92 -49l14 41h129v-224q0 -200 -209 -200q-47 0 -90.5 13.5t-64.5 38.5l53 81q40 -35 91 -35q76 0 76 71zM250 448v22q0 20 -10 31.5t-26 11.5q-22 0 -31.5 -14t-9.5 -46
q0 -52 38 -52q15 0 27 12t12 35z" />
    <glyph glyph-name="ysuperior.school" unicode="&#xe184;" horiz-adv-x="429" 
d="M240 338v36q-18 -65 -97 -65q-46 0 -74 28.5t-28 88.5v167h145v-143q0 -36 22 -36q31 0 31 45v134h145v-224q0 -200 -204 -200q-47 0 -89.5 13.5t-63.5 38.5l53 81q40 -35 89 -35q71 0 71 71z" />
    <glyph glyph-name="p.smcp" unicode="&#xe200;" horiz-adv-x="539" 
d="M252 328v-88h41q37 0 37 45q0 43 -37 43h-41zM252 0h-202v481h253q112 0 166.5 -48t54.5 -148q0 -93 -53 -143.5t-155 -50.5h-64v-91z" />
    <glyph glyph-name="p.smcp" unicode="&#xf770;" horiz-adv-x="539" 
d="M252 328v-88h41q37 0 37 45q0 43 -37 43h-41zM252 0h-202v481h253q112 0 166.5 -48t54.5 -148q0 -93 -53 -143.5t-155 -50.5h-64v-91z" />
    <glyph glyph-name="a.smcp" unicode="&#xe201;" horiz-adv-x="627" 
d="M176 481h269l177 -481h-212l-22 66h-156l-19 -66h-208zM270 198l-3 -10h82l-3 10q-11 33 -19.5 68t-12.5 54l-3 18h-6q-14 -66 -35 -140z" />
    <glyph glyph-name="a.smcp" unicode="&#xf761;" horiz-adv-x="627" 
d="M176 481h269l177 -481h-212l-22 66h-156l-19 -66h-208zM270 198l-3 -10h82l-3 10q-11 33 -19.5 68t-12.5 54l-3 18h-6q-14 -66 -35 -140z" />
    <glyph glyph-name="b.smcp" unicode="&#xe202;" horiz-adv-x="562" 
d="M431 247v-6q108 -12 108 -114q0 -65 -47.5 -96t-130.5 -31h-311v481h317q73 0 112 -32.5t39 -94.5q0 -91 -87 -107zM246 291h39q38 0 38 32q0 33 -38 33h-39v-65zM246 195v-67h54q33 0 33 33q0 34 -33 34h-54z" />
    <glyph glyph-name="b.smcp" unicode="&#xf762;" horiz-adv-x="562" 
d="M431 247v-6q108 -12 108 -114q0 -65 -47.5 -96t-130.5 -31h-311v481h317q73 0 112 -32.5t39 -94.5q0 -91 -87 -107zM246 291h39q38 0 38 32q0 33 -38 33h-39v-65zM246 195v-67h54q33 0 33 33q0 34 -33 34h-54z" />
    <glyph glyph-name="c.smcp" unicode="&#xe203;" horiz-adv-x="528" 
d="M288 338q-32 0 -46 -24.5t-14 -74.5q0 -96 61 -96q20 0 36 15t17 45l176 -66q-20 -74 -82 -111.5t-151 -37.5q-121 0 -191.5 66.5t-70.5 184.5q0 121 69.5 187.5t188.5 66.5q98 0 158.5 -40.5t74.5 -119.5l-176 -58q0 63 -50 63z" />
    <glyph glyph-name="c.smcp" unicode="&#xf763;" horiz-adv-x="528" 
d="M288 338q-32 0 -46 -24.5t-14 -74.5q0 -96 61 -96q20 0 36 15t17 45l176 -66q-20 -74 -82 -111.5t-151 -37.5q-121 0 -191.5 66.5t-70.5 184.5q0 121 69.5 187.5t188.5 66.5q98 0 158.5 -40.5t74.5 -119.5l-176 -58q0 63 -50 63z" />
    <glyph glyph-name="d.smcp" unicode="&#xe204;" horiz-adv-x="583" 
d="M247 153h39q34 0 50.5 17.5t16.5 73.5q0 51 -15.5 67.5t-51.5 16.5h-39v-175zM560 244q0 -127 -75.5 -185.5t-196.5 -58.5h-238v481h250q117 0 188.5 -57.5t71.5 -179.5z" />
    <glyph glyph-name="d.smcp" unicode="&#xf764;" horiz-adv-x="583" 
d="M247 153h39q34 0 50.5 17.5t16.5 73.5q0 51 -15.5 67.5t-51.5 16.5h-39v-175zM560 244q0 -127 -75.5 -185.5t-196.5 -58.5h-238v481h250q117 0 188.5 -57.5t71.5 -179.5z" />
    <glyph glyph-name="e.smcp" unicode="&#xe205;" horiz-adv-x="503" 
d="M468 141v-141h-418v481h414v-141h-218v-43h191v-114h-191v-42h222z" />
    <glyph glyph-name="e.smcp" unicode="&#xf765;" horiz-adv-x="503" 
d="M468 141v-141h-418v481h414v-141h-218v-43h191v-114h-191v-42h222z" />
    <glyph glyph-name="f.smcp" unicode="&#xe206;" horiz-adv-x="469" 
d="M252 0h-202v481h394v-169h-192v-57h161v-159h-161v-96z" />
    <glyph glyph-name="f.smcp" unicode="&#xf766;" horiz-adv-x="469" 
d="M252 0h-202v481h394v-169h-192v-57h161v-159h-161v-96z" />
    <glyph glyph-name="g.smcp" unicode="&#xe207;" horiz-adv-x="580" 
d="M289 493q99 0 160.5 -40.5t75.5 -119.5l-179 -58q0 29 -13.5 46t-39.5 17q-65 0 -65 -98t56 -98q49 0 49 60v38h209v-240h-128l-28 55q-34 -67 -145 -67q-97 0 -157.5 63t-60.5 187q0 120 71.5 187.5t194.5 67.5z" />
    <glyph glyph-name="g.smcp" unicode="&#xf767;" horiz-adv-x="580" 
d="M289 493q99 0 160.5 -40.5t75.5 -119.5l-179 -58q0 29 -13.5 46t-39.5 17q-65 0 -65 -98t56 -98q49 0 49 60v38h209v-240h-128l-28 55q-34 -67 -145 -67q-97 0 -157.5 63t-60.5 187q0 120 71.5 187.5t194.5 67.5z" />
    <glyph glyph-name="h.smcp" unicode="&#xe208;" horiz-adv-x="620" 
d="M252 0h-202v481h202v-158h116v158h202v-481h-202v157h-116v-157z" />
    <glyph glyph-name="h.smcp" unicode="&#xf768;" horiz-adv-x="620" 
d="M252 0h-202v481h202v-158h116v158h202v-481h-202v157h-116v-157z" />
    <glyph glyph-name="i.smcp" unicode="&#xe209;" horiz-adv-x="302" 
d="M50 481h202v-481h-202v481z" />
    <glyph glyph-name="i.smcp" unicode="&#xf769;" horiz-adv-x="302" 
d="M50 481h202v-481h-202v481z" />
    <glyph glyph-name="j.smcp" unicode="&#xe20a;" horiz-adv-x="505" 
d="M263 481h202v-274q0 -112 -59 -165.5t-181 -53.5q-98 0 -156.5 48t-68.5 122l181 72q0 -77 43 -77q21 0 30 12.5t9 42.5v273z" />
    <glyph glyph-name="j.smcp" unicode="&#xf76a;" horiz-adv-x="505" 
d="M263 481h202v-274q0 -112 -59 -165.5t-181 -53.5q-98 0 -156.5 48t-68.5 122l181 72q0 -77 43 -77q21 0 30 12.5t9 42.5v273z" />
    <glyph glyph-name="k.smcp" unicode="&#xe20b;" horiz-adv-x="593" 
d="M593 0h-225l-88 166h-28v-166h-202v481h202v-167h25l85 167h225l-134 -235z" />
    <glyph glyph-name="k.smcp" unicode="&#xf76b;" horiz-adv-x="593" 
d="M593 0h-225l-88 166h-28v-166h-202v481h202v-167h25l85 167h225l-134 -235z" />
    <glyph glyph-name="l.smcp" unicode="&#xe20c;" horiz-adv-x="447" 
d="M50 481h202v-314h170v-167h-372v481z" />
    <glyph glyph-name="l.smcp" unicode="&#xf76c;" horiz-adv-x="447" 
d="M50 481h202v-314h170v-167h-372v481z" />
    <glyph glyph-name="m.smcp" unicode="&#xe20d;" horiz-adv-x="702" 
d="M387 92h-72l-16 27l-46 87h-4q3 -37 3 -87v-119h-202v481h204l48 -83l47 -86h4q16 33 47 86l48 83h204v-481h-202v119l3 87h-4q-18 -39 -46 -87z" />
    <glyph glyph-name="m.smcp" unicode="&#xf76d;" horiz-adv-x="702" 
d="M387 92h-72l-16 27l-46 87h-4q3 -37 3 -87v-119h-202v481h204l48 -83l47 -86h4q16 33 47 86l48 83h204v-481h-202v119l3 87h-4q-18 -39 -46 -87z" />
    <glyph glyph-name="n.smcp" unicode="&#xe20e;" horiz-adv-x="622" 
d="M244 481l75 -112l56 -91h4q-3 50 -3 110v93h196v-481h-171l-92 123q-20 27 -35.5 51t-21.5 34l-5 10h-4q3 -36 3 -106v-112h-196v481h194z" />
    <glyph glyph-name="n.smcp" unicode="&#xf76e;" horiz-adv-x="622" 
d="M244 481l75 -112l56 -91h4q-3 50 -3 110v93h196v-481h-171l-92 123q-20 27 -35.5 51t-21.5 34l-5 10h-4q3 -36 3 -106v-112h-196v481h194z" />
    <glyph glyph-name="o.smcp" unicode="&#xe20f;" horiz-adv-x="576" 
d="M288 143q33 0 46.5 24.5t13.5 73.5t-13.5 73t-46.5 24t-46.5 -24t-13.5 -73t13.5 -73.5t46.5 -24.5zM288 -12q-124 0 -194.5 66t-70.5 187t70.5 186.5t194.5 65.5t194.5 -65.5t70.5 -186.5t-70.5 -187t-194.5 -66z" />
    <glyph glyph-name="o.smcp" unicode="&#xf76f;" horiz-adv-x="576" 
d="M288 143q33 0 46.5 24.5t13.5 73.5t-13.5 73t-46.5 24t-46.5 -24t-13.5 -73t13.5 -73.5t46.5 -24.5zM288 -12q-124 0 -194.5 66t-70.5 187t70.5 186.5t194.5 65.5t194.5 -65.5t70.5 -186.5t-70.5 -187t-194.5 -66z" />
    <glyph glyph-name="q.smcp" unicode="&#xe211;" horiz-adv-x="576" 
d="M467 -188q-253 0 -273 192q-171 47 -171 237q0 121 70.5 186.5t194.5 65.5t194.5 -65.5t70.5 -186.5q0 -100 -48.5 -160.5t-136.5 -80.5q22 -40 87 -40q25 0 46 8zM288 143q33 0 46.5 24.5t13.5 73.5t-13.5 73t-46.5 24t-46.5 -24t-13.5 -73t13.5 -73.5t46.5 -24.5z" />
    <glyph glyph-name="q.smcp" unicode="&#xf771;" horiz-adv-x="576" 
d="M467 -188q-253 0 -273 192q-171 47 -171 237q0 121 70.5 186.5t194.5 65.5t194.5 -65.5t70.5 -186.5q0 -100 -48.5 -160.5t-136.5 -80.5q22 -40 87 -40q25 0 46 8zM288 143q33 0 46.5 24.5t13.5 73.5t-13.5 73t-46.5 24t-46.5 -24t-13.5 -73t13.5 -73.5t46.5 -24.5z" />
    <glyph glyph-name="r.smcp" unicode="&#xe212;" horiz-adv-x="572" 
d="M567 0h-214q-20 13 -39 62l-17 43q-12 30 -35 30h-10v-135h-202v481h271q102 0 153 -42.5t51 -118.5q0 -58 -30 -91t-74 -37v-5q33 -5 50 -19.5t31 -46.5l29 -67q19 -38 36 -54zM252 335v-78h35q42 0 42 39t-42 39h-35z" />
    <glyph glyph-name="r.smcp" unicode="&#xf772;" horiz-adv-x="572" 
d="M567 0h-214q-20 13 -39 62l-17 43q-12 30 -35 30h-10v-135h-202v481h271q102 0 153 -42.5t51 -118.5q0 -58 -30 -91t-74 -37v-5q33 -5 50 -19.5t31 -46.5l29 -67q19 -38 36 -54zM252 335v-78h35q42 0 42 39t-42 39h-35z" />
    </font>
</defs>
</svg>
